<?xml version="1.0" encoding="UTF-8" standalone="no"?>
<svg
   xmlns:dc="http://purl.org/dc/elements/1.1/"
   xmlns:cc="http://creativecommons.org/ns#"
   xmlns:rdf="http://www.w3.org/1999/02/22-rdf-syntax-ns#"
   xmlns:svg="http://www.w3.org/2000/svg"
   xmlns="http://www.w3.org/2000/svg"
   width="160"
   height="80"
   viewBox="0 0 42.333332 21.166667"
   version="1.1"
   id="svg8">
  <defs
     id="defs2" />
  <metadata
     id="metadata5">
    <rdf:RDF>
      <cc:Work
         rdf:about="">
        <dc:format>image/svg+xml</dc:format>
        <dc:type
           rdf:resource="http://purl.org/dc/dcmitype/StillImage" />
        <dc:title></dc:title>
      </cc:Work>
    </rdf:RDF>
  </metadata>
  <g
     id="layer1">
    <polygon
       points="6,0 6,12 0,6 "
       style="fill:black"
       id="polygon422"
       transform="matrix(0.26458333,0,0,0.26458333,21.289566,5.2320981)">
      <title
         id="title436">Heel Mark, HE</title>
    </polygon>
    <polygon
       points="0,6 6,0 6,12 "
       style="fill:black"
       id="polygon424"
       transform="matrix(0.26458333,0,0,0.26458333,21.435294,10.272448)">
      <title
         id="title434">Heel Mark, HE</title>
    </polygon>
    <g
       id="g448"
       transform="matrix(0,-0.26458333,0.26458333,0,17.420866,10.958437)">
      <title
         id="title444">Right Horizontal Mark, RH</title>
      <polygon
         points="4,4 0,0 12,0 8,4 8,40 4,40 "
         style="fill:black"
         id="polygon446" />
    </g>
    <polygon
       points="6,0 6,12 0,6 "
       style="fill:black"
       id="polygon529"
       transform="matrix(0.26458333,0,0,0.26458333,24.644105,5.2681187)">
      <title
         id="title527">Heel Mark, HE</title>
    </polygon>
    <polygon
       points="6,0 6,12 0,6 "
       style="fill:black"
       id="polygon533"
       transform="matrix(0.26458333,0,0,0.26458333,28.083573,6.9613392)">
      <title
         id="title531">Heel Mark, HE</title>
    </polygon>
    <polygon
       points="6,12 0,6 6,0 "
       style="fill:black"
       id="polygon541"
       transform="matrix(0.26458333,0,0,0.26458333,24.602546,10.291232)">
      <title
         id="title539">Heel Mark, HE</title>
    </polygon>
    <polygon
       points="0,6 6,0 6,12 "
       style="fill:black"
       id="polygon918"
       transform="matrix(0.26458333,0,0,0.26458333,14.752638,7.7570541)">
      <title
         id="title916">Heel Mark, HE</title>
    </polygon>
  </g>
</svg>
