<?xml version="1.0" encoding="UTF-8" standalone="no"?>
<svg
   xmlns:dc="http://purl.org/dc/elements/1.1/"
   xmlns:cc="http://creativecommons.org/ns#"
   xmlns:rdf="http://www.w3.org/1999/02/22-rdf-syntax-ns#"
   xmlns:svg="http://www.w3.org/2000/svg"
   xmlns="http://www.w3.org/2000/svg"
   width="160"
   height="80"
   viewBox="0 0 42.333332 21.166667"
   version="1.1"
   id="svg8">
  <defs
     id="defs2" />
  <metadata
     id="metadata5">
    <rdf:RDF>
      <cc:Work
         rdf:about="">
        <dc:format>image/svg+xml</dc:format>
        <dc:type
           rdf:resource="http://purl.org/dc/dcmitype/StillImage" />
        <dc:title></dc:title>
      </cc:Work>
    </rdf:RDF>
  </metadata>
  <g
     id="layer1">
    <g
       id="g857"
       transform="matrix(0,-0.26458333,0.26458333,0,5.5751487,6.3084604)">
      <title
         id="title853">Right Horizontal Mark, RH</title>
      <polygon
         points="8,40 4,40 4,4 0,0 12,0 8,4 "
         style="fill:black"
         id="polygon855" />
    </g>
    <g
       id="g874"
       transform="matrix(0,-0.26458333,0.26458333,0,5.5751487,15.568877)">
      <title
         id="title870">Right Horizontal Mark, RH</title>
      <polygon
         points="4,40 4,4 0,0 12,0 8,4 8,40 "
         style="fill:black"
         id="polygon872" />
    </g>
    <g
       id="g894"
       transform="matrix(0,-0.26458333,0.26458333,0,7.1059147,12.558259)">
      <title
         id="title890">Right Horizontal Mark, RH</title>
      <polygon
         points="4,4 0,0 12,0 8,4 8,25 4,25 "
         style="fill:black"
         id="polygon892" />
    </g>
    <g
       id="g911"
       transform="matrix(0,-0.26458333,0.26458333,0,7.0529979,9.3832593)">
      <title
         id="title907">Right Horizontal Mark, RH</title>
      <polygon
         points="8,25 4,25 4,4 0,0 12,0 8,4 "
         style="fill:black"
         id="polygon909" />
    </g>
    <polygon
       points="6,12 0,6 6,0 "
       style="fill:black"
       id="polygon943"
       transform="matrix(0.26458333,0,0,0.26458333,14.041815,7.7674109)">
      <title
         id="title941">Heel Mark, HE</title>
    </polygon>
    <polygon
       points="6,0 6,12 0,6 "
       style="fill:black"
       id="polygon947"
       transform="matrix(0.26458333,0,0,0.26458333,15.999617,5.1479979)">
      <title
         id="title945">Heel Mark, HE</title>
    </polygon>
    <polygon
       points="6,0 6,12 0,6 "
       style="fill:black"
       id="polygon951"
       transform="matrix(0.26458333,0,0,0.26458333,15.999617,10.227998)">
      <title
         id="title949">Heel Mark, HE</title>
    </polygon>
  </g>
</svg>
