<?xml version="1.0" encoding="UTF-8" standalone="no"?>
<svg
   xmlns:dc="http://purl.org/dc/elements/1.1/"
   xmlns:cc="http://creativecommons.org/ns#"
   xmlns:rdf="http://www.w3.org/1999/02/22-rdf-syntax-ns#"
   xmlns:svg="http://www.w3.org/2000/svg"
   xmlns="http://www.w3.org/2000/svg"
   width="160"
   height="80"
   viewBox="0 0 42.333332 21.166667"
   version="1.1"
   id="svg8">
  <defs
     id="defs2" />
  <metadata
     id="metadata5">
    <rdf:RDF>
      <cc:Work
         rdf:about="">
        <dc:format>image/svg+xml</dc:format>
        <dc:type
           rdf:resource="http://purl.org/dc/dcmitype/StillImage" />
        <dc:title></dc:title>
      </cc:Work>
    </rdf:RDF>
  </metadata>
  <g
     id="layer1">
    <g
       id="g857"
       transform="matrix(0,-0.26458333,0.26458333,0,5.9058772,6.4539437)">
      <title
         id="title853">Right Horizontal Mark, RH</title>
      <polygon
         points="4,4 0,0 12,0 8,4 8,40 4,40 "
         style="fill:black"
         id="polygon855" />
    </g>
    <g
       id="g874"
       transform="matrix(0,-0.26458333,0.26458333,0,5.9058772,9.5231478)">
      <title
         id="title870">Right Horizontal Mark, RH</title>
      <polygon
         points="8,4 8,40 4,40 4,4 0,0 12,0 "
         style="fill:black"
         id="polygon872" />
    </g>
    <g
       id="g880"
       transform="matrix(0,-0.26458333,0.26458333,0,5.9058772,12.539398)">
      <title
         id="title876">Right Horizontal Mark, RH</title>
      <polygon
         points="4,40 4,4 0,0 12,0 8,4 8,40 "
         style="fill:black"
         id="polygon878" />
    </g>
    <g
       id="g886"
       transform="matrix(0,-0.26458333,0.26458333,0,5.9058772,15.476273)">
      <title
         id="title882">Right Horizontal Mark, RH</title>
      <polygon
         points="8,40 4,40 4,4 0,0 12,0 8,4 "
         style="fill:black"
         id="polygon884" />
    </g>
    <g
       id="g906"
       transform="matrix(0.26458333,0,0,0.26458333,15.245556,4.3372771)">
      <title
         id="title902">Down Vertical Mark, DV</title>
      <polygon
         points="4,38 4,4 0,0 12,0 8,4 8,38 "
         style="fill:black"
         id="polygon904" />
    </g>
    <g
       id="g937"
       transform="matrix(0.26458333,0,0,0.26458333,18.420556,4.3372771)">
      <title
         id="title933">Down Vertical Mark, DV</title>
      <polygon
         points="8,25 4,25 4,4 0,0 12,0 8,4 "
         style="fill:black"
         id="polygon935" />
    </g>
    <g
       id="g954"
       transform="matrix(0.26458333,0,0,0.26458333,21.99243,4.3372771)">
      <title
         id="title950">Down Vertical Mark, DV</title>
      <polygon
         points="4,25 4,4 0,0 12,0 8,4 8,25 "
         style="fill:black"
         id="polygon952" />
    </g>
    <g
       id="g960"
       transform="matrix(0.25556787,0.0684792,-0.0684792,0.25556787,20.301419,10.13011)">
      <title
         id="title956">Left Down Diagonal Mark, LDD</title>
      <polygon
         points="8,4 8,25 4,25 4,4 0,0 12,0 "
         style="fill:black"
         id="polygon958" />
    </g>
    
   
    
    
   
  </g>
</svg>
