<?xml version="1.0" encoding="UTF-8" standalone="no"?>
<svg
   xmlns:dc="http://purl.org/dc/elements/1.1/"
   xmlns:cc="http://creativecommons.org/ns#"
   xmlns:rdf="http://www.w3.org/1999/02/22-rdf-syntax-ns#"
   xmlns:svg="http://www.w3.org/2000/svg"
   xmlns="http://www.w3.org/2000/svg"
   width="160"
   height="80"
   viewBox="0 0 42.333332 21.166667"
   version="1.1"
   id="svg8">
  <defs
     id="defs2" />
  <metadata
     id="metadata5">
    <rdf:RDF>
      <cc:Work
         rdf:about="">
        <dc:format>image/svg+xml</dc:format>
        <dc:type
           rdf:resource="http://purl.org/dc/dcmitype/StillImage" />
        <dc:title></dc:title>
      </cc:Work>
    </rdf:RDF>
  </metadata>
  <g
     id="layer1">
    <polygon
       points="6,0 6,12 0,6 "
       style="fill:black"
       id="polygon902"
       transform="matrix(0.26458333,0,0,0.26458333,24.644955,6.8177448)">
      <title
         id="title920">Heel Mark, HE</title>
    </polygon>
    <polygon
       points="6,0 6,12 0,6 "
       style="fill:black"
       id="polygon904"
       transform="matrix(0.26458333,0,0,0.26458333,26.189026,6.812)">
      <title
         id="title918">Heel Mark, HE</title>
    </polygon>
    <polygon
       points="6,0 6,12 0,6 "
       style="fill:black"
       id="polygon908"
       transform="matrix(0.26458333,0,0,0.26458333,24.644955,9.992745)">
      <title
         id="title914">Heel Mark, HE</title>
    </polygon>
    <polygon
       points="6,12 0,6 6,0 "
       style="fill:black"
       id="polygon910"
       transform="matrix(0.26458333,0,0,0.26458333,26.189026,9.987)">
      <title
         id="title912">Heel Mark, HE</title>
    </polygon>
    <polygon
       points="0,40 4,35 4,4 0,0 12,0 8,4 8,35 12,40 "
       style="fill:black"
       id="polygon936"
       transform="matrix(0,-0.26458333,0.26458333,0,14.079613,9.9974708)">
      <title
         id="title950">Right Horizontal Barbell Mark, RHBB</title>
    </polygon>
    <polygon
       points="4,35 4,4 0,0 12,0 8,4 8,35 12,40 0,40 "
       style="fill:black"
       id="polygon954"
       transform="matrix(0,-0.26458333,0.26458333,0,14.079613,13.172471)">
      <title
         id="title952">Right Horizontal Barbell Mark, RHBB</title>
    </polygon>
  </g>
</svg>
