<?xml version="1.0" encoding="UTF-8" standalone="no"?>
<svg
   xmlns:dc="http://purl.org/dc/elements/1.1/"
   xmlns:cc="http://creativecommons.org/ns#"
   xmlns:rdf="http://www.w3.org/1999/02/22-rdf-syntax-ns#"
   xmlns:svg="http://www.w3.org/2000/svg"
   xmlns="http://www.w3.org/2000/svg"
   width="160"
   height="80"
   viewBox="0 0 42.333332 21.166667"
   version="1.1"
   id="svg8">
  <defs
     id="defs2" />
  <metadata
     id="metadata5">
    <rdf:RDF>
      <cc:Work
         rdf:about="">
        <dc:format>image/svg+xml</dc:format>
        <dc:type
           rdf:resource="http://purl.org/dc/dcmitype/StillImage" />
        <dc:title></dc:title>
      </cc:Work>
    </rdf:RDF>
  </metadata>
  <g
     id="layer1">
    <polygon
       points="8,22 8,40 4,40 4,22 0,18 4,18 4,4 0,0 12,0 8,4 8,18 12,18 "
       style="fill:black"
       id="polygon937"
       transform="matrix(0,-0.26458333,0.26458333,0,8.124617,10.356453)">
      <title
         id="title983">Right Horizontal Head-to-Tail Mark, RHHT</title>
    </polygon>
    <polygon
       points="4,40 4,22 0,18 4,18 4,4 0,0 12,0 8,4 8,18 12,18 8,22 8,40 "
       style="fill:black"
       id="polygon951"
       transform="matrix(0,-0.26458333,0.26458333,0,8.124617,13.399426)">
      <title
         id="title981">Right Horizontal Head-to-Tail Mark, RHHT</title>
    </polygon>
    <g
       id="g886"
       transform="matrix(0,-0.26458333,0.26458333,0,18.711692,10.252604)">
      <title
         id="title882">Right Horizontal Mark, RH</title>
      <polygon
         points="8,4 8,25 4,25 4,4 0,0 12,0 "
         style="fill:black"
         id="polygon884" />
    </g>
    
    <g
       id="g892"
       transform="matrix(0,-0.26458333,0.26458333,0,18.711692,13.427604)">
      <title
         id="title888">Right Horizontal Mark, RH</title>
      <polygon
         points="12,0 8,4 8,25 4,25 4,4 0,0 "
         style="fill:black"
         id="polygon890" />
    </g>
   
    <g
       id="g912"
       transform="matrix(0,-0.26458333,0.26458333,0,25.326275,11.760729)">
      <title
         id="title908">Right Horizontal Mark, RH</title>
      <polygon
         points="0,0 12,0 8,4 8,25 4,25 4,4 "
         style="fill:black"
         id="polygon910" />
    </g>
  
  </g>
</svg>
