<?xml version="1.0" encoding="UTF-8" standalone="no"?>
<svg
   xmlns:dc="http://purl.org/dc/elements/1.1/"
   xmlns:cc="http://creativecommons.org/ns#"
   xmlns:rdf="http://www.w3.org/1999/02/22-rdf-syntax-ns#"
   xmlns:svg="http://www.w3.org/2000/svg"
   xmlns="http://www.w3.org/2000/svg"
   width="160"
   height="80"
   viewBox="0 0 42.333332 21.166667"
   version="1.1"
   id="svg8">
  <defs
     id="defs2" />
  <metadata
     id="metadata5">
    <rdf:RDF>
      <cc:Work
         rdf:about="">
        <dc:format>image/svg+xml</dc:format>
        <dc:type
           rdf:resource="http://purl.org/dc/dcmitype/StillImage" />
        <dc:title></dc:title>
      </cc:Work>
    </rdf:RDF>
  </metadata>
  <g
     id="layer1">
    <g
       id="g857"
       transform="matrix(0,-0.26458333,0.26458333,0,6.7752234,5.5221188)">
      <title
         id="title853">Right Horizontal Mark, RH</title>
      <polygon
         points="12,0 8,4 8,90 4,90 4,4 0,0 "
         style="fill:black"
         id="polygon855" />
    </g>
    <g
       id="g874"
       transform="matrix(0,-0.26458333,0.26458333,0,6.7752234,14.967744)">
      <title
         id="title870">Right Horizontal Mark, RH</title>
      <polygon
         points="12,0 8,4 8,90 4,90 4,4 0,0 "
         style="fill:black"
         id="polygon872" />
    </g>
    <g
       id="g923"
       transform="matrix(0.26458333,0,0,0.26458333,18.60206,2.2942021)">
      <title
         id="title919">Down Vertical Mark, DV</title>
      <polygon
         points="12,0 8,4 8,40 4,40 4,4 0,0 "
         style="fill:black"
         id="polygon921" />
    </g>
    <g
       id="g929"
       transform="matrix(0.26458333,0,0,0.26458333,28.418102,2.2942021)">
      <title
         id="title925">Down Vertical Mark, DV</title>
      <polygon
         points="0,0 12,0 8,4 8,40 4,40 4,4 "
         style="fill:black"
         id="polygon927" />
    </g>
   
   
   
   
    <g
       id="g1057"
       transform="matrix(0.26458333,0,0,0.26458333,8.4912728,6.3311008)">
      <title
         id="title1053">Down Vertical Mark, DV</title>
      <polygon
         points="4,4 0,0 12,0 8,4 8,25 4,25 "
         style="fill:black"
         id="polygon1055" />
    </g>
   
    <g
       id="g1074"
       transform="matrix(0.26458333,0,0,0.26458333,11.825023,6.3311008)">
      <title
         id="title1070">Down Vertical Mark, DV</title>
      <polygon
         points="12,0 8,4 8,25 4,25 4,4 0,0 "
         style="fill:black"
         id="polygon1072" />
    </g>
   
    <g
       id="g1094"
       transform="matrix(0.26458333,0,0,0.26458333,21.705283,4.3939741)">
      <title
         id="title1090">Down Vertical Mark, DV</title>
      <polygon
         points="4,4 0,0 12,0 8,4 8,36 4,36 "
         style="fill:black"
         id="polygon1092" />
    </g>
    <g
       id="g1111"
       transform="matrix(0.26458333,0,0,0.26458333,24.906816,4.3939741)">
      <title
         id="title1107">Down Vertical Mark, DV</title>
      <polygon
         points="4,36 4,4 0,0 12,0 8,4 8,36 "
         style="fill:black"
         id="polygon1109" />
    </g>
    <polygon
       points="12,0 8,4 8,55 4,55 4,4 0,0 "
       style="fill:black"
       id="polygon1129"
       transform="matrix(0,-0.26458333,0.26458333,0,15.723923,9.1715166)">
      <title
         id="title1182">Right Horizontal Mark, RH</title>
    </polygon>
    <polygon
       points="8,4 8,55 4,55 4,4 0,0 12,0 "
       style="fill:black"
       id="polygon1144"
       transform="matrix(0,-0.26458333,0.26458333,0,15.723923,12.240683)">
      <title
         id="title1180">Right Horizontal Mark, RH</title>
    </polygon>
    
   
   
   
    
   
    
  
  
   
   
    
  </g>
</svg>
