<?xml version="1.0" encoding="UTF-8" standalone="no"?>
<svg
   xmlns:dc="http://purl.org/dc/elements/1.1/"
   xmlns:cc="http://creativecommons.org/ns#"
   xmlns:rdf="http://www.w3.org/1999/02/22-rdf-syntax-ns#"
   xmlns:svg="http://www.w3.org/2000/svg"
   xmlns="http://www.w3.org/2000/svg"
   width="160"
   height="80"
   viewBox="0 0 42.333332 21.166667"
   version="1.1"
   id="svg8">
  <defs
     id="defs2" />
  <metadata
     id="metadata5">
    <rdf:RDF>
      <cc:Work
         rdf:about="">
        <dc:format>image/svg+xml</dc:format>
        <dc:type
           rdf:resource="http://purl.org/dc/dcmitype/StillImage" />
        <dc:title></dc:title>
      </cc:Work>
    </rdf:RDF>
  </metadata>
  <g
     id="layer1">
    <g
       id="g1338"
       transform="matrix(-0.0684792,-0.25556787,0.25556787,-0.0684792,16.646479,14.544505)">
      <title
         id="title1334">Right Horizontal  Mark, RH</title>
      <polygon
         points="0,0 12,0 8,4 8,60 4,60 4,4 "
         style="fill:black"
         id="polygon1336"
         transform="translate(1.2218398,-9.1971482)" />
    </g>
    <g
       id="g1344"
       transform="matrix(0.26458333,0,0,0.26458333,14.263953,8.8309409)">
      <title
         id="title1340">Down Vertical Mark, DV</title>
      <polygon
         points="0,0 12,0 8,4 8,25 4,25 4,4 "
         style="fill:black"
         id="polygon1342" />
    </g>
    
    <g
       id="g1405"
       transform="matrix(0.26458333,0,0,0.26458333,17.518329,8.8309409)">
      <title
         id="title1401">Down Vertical Mark, DV</title>
      <polygon
         points="8,4 8,25 4,25 4,4 0,0 12,0 "
         style="fill:black"
         id="polygon1403" />
    </g>
    <g
       id="g1415"
       transform="matrix(0.0684792,-0.25556787,0.25556787,0.0684792,18.508376,7.8430158)">
      <title
         id="title1411">Right Down Diagonal Mark, RDD</title>
      <polygon
         points="12,0 8,4 8,40 4,40 4,4 0,0 "
         style="fill:black"
         id="polygon1413" />
    </g>
    <g
       id="g1421"
       transform="matrix(0.26458333,0,0,0.26458333,20.904994,8.8309409)">
      <title
         id="title1417">Down Vertical Mark, DV</title>
      <polygon
         points="8,25 4,25 4,4 0,0 12,0 8,4 "
         style="fill:black"
         id="polygon1419" />
    </g>
    
    
    
  </g>
</svg>
