<?xml version="1.0" encoding="UTF-8" standalone="no"?>
<svg
   xmlns:dc="http://purl.org/dc/elements/1.1/"
   xmlns:cc="http://creativecommons.org/ns#"
   xmlns:rdf="http://www.w3.org/1999/02/22-rdf-syntax-ns#"
   xmlns:svg="http://www.w3.org/2000/svg"
   xmlns="http://www.w3.org/2000/svg"
   width="160"
   height="80"
   viewBox="0 0 42.333332 21.166667"
   version="1.1"
   id="svg8">
  <defs
     id="defs2" />
  <metadata
     id="metadata5">
    <rdf:RDF>
      <cc:Work
         rdf:about="">
        <dc:format>image/svg+xml</dc:format>
        <dc:type
           rdf:resource="http://purl.org/dc/dcmitype/StillImage" />
        <dc:title></dc:title>
      </cc:Work>
    </rdf:RDF>
  </metadata>
  <g
     id="layer1">
    <polygon
       points="0,0 12,0 8,4 8,35 12,40 0,40 4,35 4,4 "
       style="fill:black"
       id="polygon851"
       transform="matrix(0,-0.26458333,0.26458333,0,8.6934517,7.8241076)">
      <title
         id="title865">Right Horizontal Barbell Mark, RHBB</title>
    </polygon>
    <polygon
       points="8,35 12,40 0,40 4,35 4,4 0,0 12,0 8,4 "
       style="fill:black"
       id="polygon869"
       transform="matrix(0,-0.26458333,0.26458333,0,8.6934517,12.136701)">
      <title
         id="title867">Right Horizontal Barbell Mark, RHBB</title>
    </polygon>
    <g
       id="g889"
       transform="matrix(0.26458333,0,0,0.26458333,14.090915,6.7657743)">
      <title
         id="title885">Down Vertical Mark, DV</title>
      <polygon
         points="0,0 12,0 8,4 8,25 4,25 4,4 "
         style="fill:black"
         id="polygon887" />
    </g>
    <g
       id="g906"
       transform="matrix(0.26458333,0,0,0.26458333,10.677791,6.7657743)">
      <title
         id="title902">Down Vertical Mark, DV</title>
      <polygon
         points="8,25 4,25 4,4 0,0 12,0 8,4 "
         style="fill:black"
         id="polygon904" />
    </g>
    
    
    
    
  </g>
</svg>
