<?xml version="1.0" encoding="UTF-8" standalone="no"?>
<svg
   xmlns:dc="http://purl.org/dc/elements/1.1/"
   xmlns:cc="http://creativecommons.org/ns#"
   xmlns:rdf="http://www.w3.org/1999/02/22-rdf-syntax-ns#"
   xmlns:svg="http://www.w3.org/2000/svg"
   xmlns="http://www.w3.org/2000/svg"
   width="160"
   height="80"
   viewBox="0 0 42.333332 21.166667"
   version="1.1"
   id="svg8">
  <defs
     id="defs2" />
  <metadata
     id="metadata5">
    <rdf:RDF>
      <cc:Work
         rdf:about="">
        <dc:format>image/svg+xml</dc:format>
        <dc:type
           rdf:resource="http://purl.org/dc/dcmitype/StillImage" />
        <dc:title></dc:title>
      </cc:Work>
    </rdf:RDF>
  </metadata>
  <g
     id="layer1">
    <g
       id="g886"
       transform="matrix(0,-0.26458333,0.26458333,0,24.733816,11.122895)">
      <title
         id="title882">Right Horizontal Mark, RH</title>
      <polygon
         points="8,4 8,25 4,25 4,4 0,0 12,0 "
         style="fill:black"
         id="polygon884" />
    </g>
    <g
       id="g921"
       transform="matrix(0,-0.26458333,0.26458333,0,18.166481,14.352701)">
      <title
         id="title917">Right Horizontal Mark, RH</title>
      <polygon
         points="8,4 8,25 4,25 4,4 0,0 12,0 "
         style="fill:black"
         id="polygon919" />
    </g>
    <g
       id="g927"
       transform="matrix(0,-0.26458333,0.26458333,0,11.635166,14.352701)">
      <title
         id="title923">Right Horizontal Mark, RH</title>
      <polygon
         points="4,4 0,0 12,0 8,4 8,25 4,25 "
         style="fill:black"
         id="polygon925" />
    </g>
    <g
       id="g933"
       transform="matrix(0,-0.26458333,0.26458333,0,18.166481,11.230618)">
      <title
         id="title929">Right Horizontal Mark, RH</title>
      <polygon
         points="8,4 8,25 4,25 4,4 0,0 12,0 "
         style="fill:black"
         id="polygon931" />
    </g>
    <g
       id="g940"
       transform="matrix(0,-0.26458333,0.26458333,0,11.551897,11.230618)">
      <title
         id="title935">Right Horizontal Mark, RH</title>
      <polygon
         points="12,0 8,4 8,25 4,25 4,4 0,0 "
         style="fill:black"
         id="polygon938" />
    </g>
   
   
    
    <g
       id="g941"
       transform="matrix(0,-0.26458333,0.26458333,0,24.733816,14.297895)">
      <title
         id="title936">Right Horizontal Mark, RH</title>
      <polygon
         points="4,4 0,0 12,0 8,4 8,25 4,25 "
         style="fill:black"
         id="polygon939" />
    </g>
   
    <g
       id="g960"
       transform="matrix(0,-0.26458333,0.26458333,0,31.348399,12.604485)">
      <title
         id="title956">Right Horizontal Mark, RH</title>
      <polygon
         points="0,0 12,0 8,4 8,25 4,25 4,4 "
         style="fill:black"
         id="polygon958" />
    </g>
   
  </g>
</svg>
