<?xml version="1.0" encoding="UTF-8" standalone="no"?>
<svg
   xmlns:dc="http://purl.org/dc/elements/1.1/"
   xmlns:cc="http://creativecommons.org/ns#"
   xmlns:rdf="http://www.w3.org/1999/02/22-rdf-syntax-ns#"
   xmlns:svg="http://www.w3.org/2000/svg"
   xmlns="http://www.w3.org/2000/svg"
   width="160"
   height="80"
   viewBox="0 0 42.333332 21.166667"
   version="1.1"
   id="svg8">
  <defs
     id="defs2" />
  <metadata
     id="metadata5">
    <rdf:RDF>
      <cc:Work
         rdf:about="">
        <dc:format>image/svg+xml</dc:format>
        <dc:type
           rdf:resource="http://purl.org/dc/dcmitype/StillImage" />
        <dc:title></dc:title>
      </cc:Work>
    </rdf:RDF>
  </metadata>
  <g
     id="layer1">
    <g
       id="g874"
       transform="matrix(0.26458333,0,0,0.26458333,20.670573,5.3578129)">
      <title
         id="title870">Down Vertical Mark, DV</title>
      <polygon
         points="4,40 4,4 0,0 12,0 8,4 8,40 "
         style="fill:black"
         id="polygon872" />
    </g>
    <g
       id="g892"
       transform="matrix(0.26458333,0,0,0.26458333,14.443415,5.3200145)">
      <title
         id="title888">Down Vertical Mark, DV</title>
      <polygon
         points="8,4 8,40 4,40 4,4 0,0 12,0 "
         style="fill:black"
         id="polygon890" />
    </g>
    <g
       id="g1045"
       transform="matrix(0,-0.26458333,0.26458333,0,11.778682,11.953497)">
      <title
         id="title1041">Right Horizontal Mark, RH</title>
      <polygon
         points="4,25 4,4 0,0 12,0 8,4 8,25 "
         style="fill:black"
         id="polygon1043" />
    </g>
    <g
       id="g1062"
       transform="matrix(0.13229166,-0.22913589,0.22913589,0.13229166,16.947555,12.473179)">
      <title
         id="title1058">Right Down Diagonal Mark, RDD</title>
      <polygon
         points="0,0 12,0 8,4 8,25 4,25 4,4 "
         style="fill:black"
         id="polygon1060" />
    </g>
    
    
    
  </g>
</svg>
