<?xml version="1.0" encoding="UTF-8" standalone="no"?>
<svg
   xmlns:dc="http://purl.org/dc/elements/1.1/"
   xmlns:cc="http://creativecommons.org/ns#"
   xmlns:rdf="http://www.w3.org/1999/02/22-rdf-syntax-ns#"
   xmlns:svg="http://www.w3.org/2000/svg"
   xmlns="http://www.w3.org/2000/svg"
   width="160"
   height="80"
   viewBox="0 0 42.333332 21.166667"
   version="1.1"
   id="svg8">
  <defs
     id="defs2" />
  <metadata
     id="metadata5">
    <rdf:RDF>
      <cc:Work
         rdf:about="">
        <dc:format>image/svg+xml</dc:format>
        <dc:type
           rdf:resource="http://purl.org/dc/dcmitype/StillImage" />
        <dc:title></dc:title>
      </cc:Work>
    </rdf:RDF>
  </metadata>
  <g
     id="layer1">
    <g
       id="g874"
       transform="matrix(0.13229167,-0.22913589,0.22913589,0.13229167,18.831569,5.8556781)">
      <title
         id="title870">Right Down Diagonal Mark, RDD</title>
      <polygon
         points="12,0 8,4 8,40 4,40 4,4 0,0 "
         style="fill:black"
         id="polygon872" />
    </g>
    <g
       id="g880"
       transform="matrix(-0.13229166,-0.22913589,0.22913589,-0.13229166,20.39261,17.021185)">
      <title
         id="title876">Right Up Diagonal Mark, RUD</title>
      <polygon
         points="12,0 8,4 8,40 4,40 4,4 0,0 "
         style="fill:black"
         id="polygon878" />
    </g>
    <g
       id="g886"
       transform="matrix(-0.09049283,-0.248627,0.248627,-0.09049283,9.7162059,9.7975706)">
      <title
         id="title882">Right Up Diagonal Mark, RUD</title>
      <polygon
         points="4,4 0,0 12,0 8,4 8,40 4,40 "
         style="fill:black"
         id="polygon884" />
    </g>
    <g
       id="g892"
       transform="matrix(0.09049283,-0.248627,0.248627,0.09049283,8.6387605,13.326575)">
      <title
         id="title888">Right Down Diagonal Mark, RDD</title>
      <polygon
         points="4,40 4,4 0,0 12,0 8,4 8,40 "
         style="fill:black"
         id="polygon890" />
    </g>
    
   
   
    <polygon
       points="6,12 0,6 6,0 "
       style="fill:black"
       id="polygon1039"
       transform="matrix(0.26458333,0,0,0.26458333,20.750893,8.6121874)">
      <title
         id="title1053">Heel Mark, HE</title>
    </polygon>
    <polygon
       points="6,0 6,12 0,6 "
       style="fill:black"
       id="polygon1057"
       transform="matrix(0.26458333,0,0,0.26458333,17.727084,8.5706101)">
      <title
         id="title1055">Heel Mark, HE</title>
    </polygon>
    <polygon
       points="6,0 6,12 0,6 "
       style="fill:black"
       id="polygon1061"
       transform="matrix(0.26458333,0,0,0.26458333,14.561533,8.7123511)">
      <title
         id="title1059">Heel Mark, HE</title>
    </polygon>
  </g>
</svg>
