<?xml version="1.0" encoding="UTF-8" standalone="no"?>
<svg
   xmlns:dc="http://purl.org/dc/elements/1.1/"
   xmlns:cc="http://creativecommons.org/ns#"
   xmlns:rdf="http://www.w3.org/1999/02/22-rdf-syntax-ns#"
   xmlns:svg="http://www.w3.org/2000/svg"
   xmlns="http://www.w3.org/2000/svg"
   width="160"
   height="80"
   viewBox="0 0 42.333332 21.166667"
   version="1.1"
   id="svg8">
  <defs
     id="defs2" />
  <metadata
     id="metadata5">
    <rdf:RDF>
      <cc:Work
         rdf:about="">
        <dc:format>image/svg+xml</dc:format>
        <dc:type
           rdf:resource="http://purl.org/dc/dcmitype/StillImage" />
        <dc:title></dc:title>
      </cc:Work>
    </rdf:RDF>
  </metadata>
  <g
     id="layer1">
    <g
       id="g857"
       transform="matrix(0,-0.26458333,0.26458333,0,12.597947,16.778364)">
      <title
         id="title853">Right Horizontal Mark, RH</title>
      <polygon
         points="0,0 12,0 8,4 8,77 4,77 4,4 "
         style="fill:black"
         id="polygon855" />
    </g>
    <g
       id="g874"
       transform="matrix(0,-0.26458333,0.26458333,0,13.894291,6.0891208)">
      <title
         id="title870">Right Horizontal Mark, RH</title>
      <polygon
         points="4,4 0,0 12,0 8,4 8,72 4,72 "
         style="fill:black"
         id="polygon872" />
    </g>
    <g
       id="g894"
       transform="matrix(0.26458333,0,0,0.26458333,31.330446,3.9989125)">
      <title
         id="title890">Down Vertical Mark, DV</title>
      <polygon
         points="0,0 12,0 8,4 8,44 4,44 4,4 "
         style="fill:black"
         id="polygon892" />
    </g>
    <g
       id="g911"
       transform="matrix(0.26458333,0,0,0.26458333,11.777738,4.1577381)">
      <title
         id="title907">Down Vertical Mark, DV</title>
      <polygon
         points="8,40 4,40 4,4 0,0 12,0 8,4 "
         style="fill:black"
         id="polygon909" />
    </g>
    <g
       id="g917"
       transform="matrix(0.26458333,0,0,0.26458333,14.952738,5.0043291)">
      <title
         id="title913">Down Vertical Mark, DV</title>
      <polygon
         points="8,40 4,40 4,4 0,0 12,0 8,4 "
         style="fill:black"
         id="polygon915" />
    </g>
    <g
       id="g937"
       transform="matrix(0,-0.26458333,0.26458333,0,6.2214885,14.238363)">
      <title
         id="title933">Right Horizontal Mark, RH</title>
      <polygon
         points="12,0 8,4 8,25 4,25 4,4 0,0 "
         style="fill:black"
         id="polygon935" />
    </g>
    <g
       id="g954"
       transform="matrix(0,-0.26458333,0.26458333,0,6.2214885,9.634614)">
      <title
         id="title950">Right Horizontal Mark, RH</title>
      <polygon
         points="4,4 0,0 12,0 8,4 8,25 4,25 "
         style="fill:black"
         id="polygon952" />
    </g>
    <polygon
       points="0,6 6,0 6,12 "
       style="fill:black"
       id="polygon968"
       transform="matrix(0.26458333,0,0,0.26458333,20.971895,11.909916)">
      <title
         id="title982">Heel Mark, HE</title>
    </polygon>
    <polygon
       points="0,6 6,0 6,12 "
       style="fill:black"
       id="polygon986"
       transform="matrix(0.26458333,0,0,0.26458333,24.658978,4.7246645)">
      <title
         id="title984">Heel Mark, HE</title>
    </polygon>
    <polygon
       points="6,12 0,6 6,0 "
       style="fill:black"
       id="polygon990"
       transform="matrix(0.26458333,0,0,0.26458333,19.176508,11.957162)">
      <title
         id="title988">Heel Mark, HE</title>
    </polygon>
    <polygon
       points="0,6 6,0 6,12 "
       style="fill:black"
       id="polygon994"
       transform="matrix(0.26458333,0,0,0.26458333,17.333874,11.862668)">
      <title
         id="title992">Heel Mark, HE</title>
    </polygon>
    <polygon
       points="6,12 0,6 6,0 "
       style="fill:black"
       id="polygon998"
       transform="matrix(0.26458333,0,0,0.26458333,26.688785,4.6810083)">
      <title
         id="title996">Heel Mark, HE</title>
    </polygon>
   
    
    
    
    
   
   
    
  </g>
</svg>
