<?xml version="1.0" encoding="UTF-8" standalone="no"?>
<svg
   xmlns:dc="http://purl.org/dc/elements/1.1/"
   xmlns:cc="http://creativecommons.org/ns#"
   xmlns:rdf="http://www.w3.org/1999/02/22-rdf-syntax-ns#"
   xmlns:svg="http://www.w3.org/2000/svg"
   xmlns="http://www.w3.org/2000/svg"
   width="160"
   height="80"
   viewBox="0 0 42.333332 21.166667"
   version="1.1"
   id="svg8">
  <defs
     id="defs2" />
  <metadata
     id="metadata5">
    <rdf:RDF>
      <cc:Work
         rdf:about="">
        <dc:format>image/svg+xml</dc:format>
        <dc:type
           rdf:resource="http://purl.org/dc/dcmitype/StillImage" />
        <dc:title></dc:title>
      </cc:Work>
    </rdf:RDF>
  </metadata>
  <g
     id="layer1">
    <g
       id="g857"
       transform="matrix(0.26458333,0,0,0.26458333,17.401078,5.1971726)">
      <title
         id="title853">Down Vertical Mark, DV</title>
      <polygon
         points="12,0 8,4 8,40 4,40 4,4 0,0 "
         style="fill:black"
         id="polygon855" />
    </g>
    <g
       id="g874"
       transform="matrix(0.26458333,0,0,0.26458333,12.383444,5.1971726)">
      <title
         id="title870">Down Vertical Mark, DV</title>
      <polygon
         points="8,40 4,40 4,4 0,0 12,0 8,4 "
         style="fill:black"
         id="polygon872" />
    </g>
    <g
       id="g1088"
       transform="matrix(0,-0.26458333,0.26458333,0,7.9705721,11.887351)">
      <title
         id="title1084">Right Horizontal  Mark, RH</title>
      <polygon
         points="0,0 12,0 8,4 8,40 4,40 4,4 "
         style="fill:black"
         id="polygon1086" />
    </g>
   
   
    <g
       id="g976"
       transform="matrix(0.18708867,-0.18708867,0.18708867,0.18708867,21.287052,7.6938932)">
      <title
         id="title972">Right Down Diagonal Mark, RDD</title>
      <polygon
         points="4,4 0,0 12,0 8,4 8,40 4,40 "
         style="fill:black"
         id="polygon974" />
    </g>
    <g
       id="g982"
       transform="matrix(0.18708867,-0.18708867,0.18708867,0.18708867,23.070873,5.9362661)">
      <title
         id="title978">Right Down Diagonal Mark, RDD</title>
      <polygon
         points="12,0 8,4 8,40 4,40 4,4 0,0 "
         style="fill:black"
         id="polygon980" />
    </g>
    <g
       id="g994"
       transform="matrix(0.18708867,-0.18708867,0.18708867,0.18708867,24.73378,4.3791932)">
      <title
         id="title990">Right Down Diagonal Mark , RDD</title>
      <polygon
         points="8,40 4,40 4,4 0,0 12,0 8,4 "
         style="fill:black"
         id="polygon992" />
    </g>
    <g
       id="g1000"
       transform="matrix(0.18708867,-0.18708867,0.18708867,0.18708867,19.533227,9.5004507)">
      <title
         id="title996">Right Down Diagonal Mark, RDD</title>
      <polygon
         points="4,40 4,4 0,0 12,0 8,4 8,40 "
         style="fill:black"
         id="polygon998" />
    </g>
    <g
       id="g1006"
       transform="matrix(-0.18708867,-0.18708867,0.18708867,-0.18708867,24.707607,15.385196)">
      <title
         id="title1002">Right Up Diagonal Mark, RUD</title>
      <polygon
         points="4,4 0,0 12,0 8,4 8,40 4,40 "
         style="fill:black"
         id="polygon1004" />
    </g>
    <g
       id="g1012"
       transform="matrix(-0.18708867,-0.18708867,0.18708867,-0.18708867,26.219511,16.849853)">
      <title
         id="title1008">Right Up Diagonal Mark, RUD</title>
      <polygon
         points="8,4 8,40 4,40 4,4 0,0 12,0 "
         style="fill:black"
         id="polygon1010" />
    </g>
   
    
    
    
    
    
    
   
  </g>
</svg>
