<?xml version="1.0" encoding="UTF-8" standalone="no"?>
<svg
   xmlns:dc="http://purl.org/dc/elements/1.1/"
   xmlns:cc="http://creativecommons.org/ns#"
   xmlns:rdf="http://www.w3.org/1999/02/22-rdf-syntax-ns#"
   xmlns:svg="http://www.w3.org/2000/svg"
   xmlns="http://www.w3.org/2000/svg"
   width="160"
   height="80"
   viewBox="0 0 42.333332 21.166667"
   version="1.1"
   id="svg8">
  <defs
     id="defs2" />
  <metadata
     id="metadata5">
    <rdf:RDF>
      <cc:Work
         rdf:about="">
        <dc:format>image/svg+xml</dc:format>
        <dc:type
           rdf:resource="http://purl.org/dc/dcmitype/StillImage" />
        <dc:title></dc:title>
      </cc:Work>
    </rdf:RDF>
  </metadata>
  <g
     id="layer1">
    <g
       id="g888"
       transform="matrix(0,-0.26458333,0.26458333,0,11.696359,8.7199861)">
      <title
         id="title884">Right Horizontal Mark, RH</title>
      <polygon
         points="8,4 8,40 4,40 4,4 0,0 12,0 "
         style="fill:#000000"
         id="polygon886" />
    </g>
    <g
       id="g905"
       transform="matrix(0,-0.26458333,0.26458333,0,11.669976,11.842069)">
      <title
         id="title901">Right Horizontal Mark, RH</title>
      <polygon
         points="4,40 4,4 0,0 12,0 8,4 8,40 "
         style="fill:#000000"
         id="polygon903" />
    </g>
    <g
       id="g911"
       transform="matrix(0,-0.26458333,0.26458333,0,11.669976,15.017069)">
      <title
         id="title907">Right Horizontal Mark, RH</title>
      <polygon
         points="0,0 12,0 8,4 8,40 4,40 4,4 "
         style="fill:#000000"
         id="polygon909" />
    </g>
    <g
       id="g923"
       transform="matrix(0.26458333,0,0,0.26458333,21.017366,5.3786388)">
      <title
         id="title919">Down Vertical Mark, DV</title>
      <polygon
         points="8,40 4,40 4,4 0,0 12,0 8,4 "
         style="fill:#000000"
         id="polygon921" />
    </g>
    <g
       id="g929"
       transform="matrix(0.26458333,0,0,0.26458333,24.536324,5.3786388)">
      <title
         id="title925">Down Vertical Mark, DV</title>
      <polygon
         points="8,4 8,40 4,40 4,4 0,0 12,0 "
         style="fill:#000000"
         id="polygon927" />
    </g>
    <circle
       style="fill:#000000;fill-rule:evenodd;stroke-width:0.264583"
       id="circle985"
       cx="22.489546"
       cy="7.0700812"
       r="0.79374999">
      <title
         id="title983">Right 2 Touch Connector, R2T</title>
    </circle>
    <circle
       style="fill:#000000;fill-rule:evenodd;stroke-width:0.264583"
       id="circle989"
       cx="22.442299"
       cy="10.235632"
       r="0.79374999">
      <title
         id="title987">Right 2 Touch Connector, R2T</title>
    </circle>
    <circle
       style="fill:#000000;fill-rule:evenodd;stroke-width:0.264583"
       id="circle993"
       cx="22.442299"
       cy="13.306687"
       r="0.79374999">
      <title
         id="title991">Right 2 Touch Connector, R2T</title>
    </circle>
    <polygon
       points="8,4 8,75 12,80 0,80 4,75 4,4 0,0 12,0 "
       style="fill:#000000"
       id="polygon1020"
       transform="matrix(0,-0.26458333,0.26458333,0,8.2020833,17.390533)">
      <title
         id="title1038">Right Horizontal Barbell Mark, RHBB</title>
    </polygon>
    <polygon
       points="0,80 4,75 4,4 0,0 12,0 8,4 8,75 12,80 "
       style="fill:#000000"
       id="polygon1034"
       transform="matrix(0,-0.26458333,0.26458333,0,8.2020833,6.4367833)">
      <title
         id="title1036">Right Horizontal Barbell Mark, RHBB</title>
    </polygon>
    <circle
       style="fill:#000000;fill-rule:evenodd;stroke-width:0.264583"
       id="circle979"
       cx="26.169067"
       cy="5.4579382"
       r="0.79374999">
      <title
         id="title981">Top 2 Touch Connector, T2T</title>
    </circle>
    <circle
       style="fill:#000000;fill-rule:evenodd;stroke-width:0.264583"
       id="circle997"
       cx="22.589785"
       cy="5.3691883"
       r="0.79374999">
      <title
         id="title995">Top 2 Touch Connector, T2T</title>
    </circle>
    <circle
       style="fill:#000000;fill-rule:evenodd;stroke-width:0.264583"
       id="path839"
       cx="26.174814"
       cy="15.323193"
       r="0.79374999">
      <title
         id="title999">Bottom 2 Touch Connector, B2T</title>
    </circle>
    <circle
       style="fill:#000000;fill-rule:evenodd;stroke-width:0.264583"
       id="circle1003"
       cx="22.489546"
       cy="15.332717"
       r="0.79374999">
      <title
         id="title1001">Bottom 2 Touch Connector, B2T</title>
    </circle>
  </g>
</svg>
