<?xml version="1.0" encoding="UTF-8" standalone="no"?>
<svg
   xmlns:dc="http://purl.org/dc/elements/1.1/"
   xmlns:cc="http://creativecommons.org/ns#"
   xmlns:rdf="http://www.w3.org/1999/02/22-rdf-syntax-ns#"
   xmlns:svg="http://www.w3.org/2000/svg"
   xmlns="http://www.w3.org/2000/svg"
   width="160"
   height="80"
   viewBox="0 0 42.333332 21.166667"
   version="1.1"
   id="svg8">
  <defs
     id="defs2" />
  <metadata
     id="metadata5">
    <rdf:RDF>
      <cc:Work
         rdf:about="">
        <dc:format>image/svg+xml</dc:format>
        <dc:type
           rdf:resource="http://purl.org/dc/dcmitype/StillImage" />
        <dc:title></dc:title>
      </cc:Work>
    </rdf:RDF>
  </metadata>
  <g
     id="layer1">
    <g
       id="g857"
       transform="matrix(0,-0.26458333,0.26458333,0,20.335119,4.5262272)">
      <title
         id="title853">Right Horizontal Mark, RH</title>
      <polygon
         points="4,4 0,0 12,0 8,4 8,72 4,72 "
         style="fill:black"
         id="polygon855" />
    </g>
    <g
       id="g874"
       transform="matrix(0,-0.26458333,0.26458333,0,20.335119,18.311017)">
      <title
         id="title870">Right Horizontal Mark, RH</title>
      <polygon
         points="4,72 4,4 0,0 12,0 8,4 8,72 "
         style="fill:black"
         id="polygon872" />
    </g>
    <polygon
       points="4,62 4,4 0,0 12,0 8,4 8,62 "
       style="fill:black"
       id="polygon878"
       transform="matrix(0,-0.26458333,0.26458333,0,22.954456,16.035602)">
      <title
         id="title1029">Right Horizontal Mark, RH</title>
    </polygon>
    <polygon
       points="8,62 4,62 4,4 0,0 12,0 8,4 "
       style="fill:black"
       id="polygon882"
       transform="matrix(0,-0.26458333,0.26458333,0,22.954456,12.992894)">
      <title
         id="title1027">Right Horizontal Mark, RH</title>
    </polygon>
    <polygon
       points="0,0 12,0 8,4 8,62 4,62 4,4 "
       style="fill:black"
       id="polygon884"
       transform="matrix(0,-0.26458333,0.26458333,0,22.954456,9.7914353)">
      <title
         id="title1025">Right Horizontal Mark, RH</title>
    </polygon>
    <polygon
       points="8,4 8,62 4,62 4,4 0,0 12,0 "
       style="fill:black"
       id="polygon886"
       transform="matrix(0,-0.26458333,0.26458333,0,22.954456,6.7751853)">
      <title
         id="title1023">Right Horizontal Mark, RH</title>
    </polygon>
    <g
       id="g906"
       transform="matrix(0.26458333,0,0,0.26458333,38.141539,1.8803937)">
      <title
         id="title902">Down Vertical Mark, DV</title>
      <polygon
         points="0,0 12,0 8,4 8,58 4,58 4,4 "
         style="fill:black"
         id="polygon904" />
    </g>
    <g
       id="g937"
       transform="matrix(0,-0.26458333,0.26458333,0,12.371123,8.8918519)">
      <title
         id="title933">Right Horizontal Mark, RH</title>
      <polygon
         points="8,4 8,40 4,40 4,4 0,0 12,0 "
         style="fill:black"
         id="polygon935" />
    </g>
    <g
       id="g954"
       transform="matrix(0,-0.26458333,0.26458333,0,12.371123,13.892477)">
      <title
         id="title950">Right Horizontal Mark, RH</title>
      <polygon
         points="8,40 4,40 4,4 0,0 12,0 8,4 "
         style="fill:black"
         id="polygon952" />
    </g>
    <g
       id="g974"
       transform="matrix(0.26458333,0,0,0.26458333,14.712723,7.8430057)">
      <title
         id="title970">Down Vertical Mark, DV</title>
      <polygon
         points="12,0 8,4 8,25 4,25 4,4 0,0 "
         style="fill:black"
         id="polygon972" />
    </g>
    <g
       id="g991"
       transform="matrix(0.26458333,0,0,0.26458333,18.12581,7.8430057)">
      <title
         id="title987">Down Vertical Mark, DV</title>
      <polygon
         points="0,0 12,0 8,4 8,25 4,25 4,4 "
         style="fill:black"
         id="polygon989" />
    </g>
    <polygon
       points="6,12 0,6 6,0 "
       style="fill:black"
       id="polygon1005"
       transform="matrix(0.26458333,0,0,0.26458333,9.7423363,8.1453866)">
      <title
         id="title1031">Heel Mark, HE</title>
    </polygon>
   
    
    
  
  
    
    
    
    
   
   
   
  </g>
</svg>
