<?xml version="1.0" encoding="UTF-8" standalone="no"?>
<svg
   xmlns:dc="http://purl.org/dc/elements/1.1/"
   xmlns:cc="http://creativecommons.org/ns#"
   xmlns:rdf="http://www.w3.org/1999/02/22-rdf-syntax-ns#"
   xmlns:svg="http://www.w3.org/2000/svg"
   xmlns="http://www.w3.org/2000/svg"
   width="160"
   height="80"
   viewBox="0 0 42.333332 21.166667"
   version="1.1"
   id="svg8">
  <defs
     id="defs2" />
  <metadata
     id="metadata5">
    <rdf:RDF>
      <cc:Work
         rdf:about="">
        <dc:format>image/svg+xml</dc:format>
        <dc:type
           rdf:resource="http://purl.org/dc/dcmitype/StillImage" />
        <dc:title></dc:title>
      </cc:Work>
    </rdf:RDF>
  </metadata>
  <g
     id="layer1">
    <g
       id="g857"
       transform="matrix(0,-0.26458333,0.26458333,0,10.602232,18.785417)">
      <title
         id="title853">Right Horizontal Mark, RH</title>
      <polygon
         points="8,72 4,72 4,4 0,0 12,0 8,4 "
         style="fill:black"
         id="polygon855" />
    </g>
    <g
       id="g888"
       transform="matrix(0,-0.26458333,0.26458333,0,18.757068,15.453519)">
      <title
         id="title884">Right Horizontal Mark, RH</title>
      <polygon
         points="12,0 8,4 8,40 4,40 4,4 0,0 "
         style="fill:black"
         id="polygon886" />
    </g>
    <g
       id="g905"
       transform="matrix(0,-0.26458333,0.26458333,0,18.757068,12.781227)">
      <title
         id="title901">Right Horizontal Mark, RH</title>
      <polygon
         points="8,4 8,40 4,40 4,4 0,0 12,0 "
         style="fill:black"
         id="polygon903" />
    </g>
    <g
       id="g911"
       transform="matrix(0,-0.26458333,0.26458333,0,18.757068,10.108935)">
      <title
         id="title907">Right Horizontal Mark, RH</title>
      <polygon
         points="8,40 4,40 4,4 0,0 12,0 8,4 "
         style="fill:black"
         id="polygon909" />
    </g>
    <g
       id="g917"
       transform="matrix(0,-0.26458333,0.26458333,0,18.757068,7.1456021)">
      <title
         id="title913">Right Horizontal Mark, RH</title>
      <polygon
         points="4,40 4,4 0,0 12,0 8,4 8,40 "
         style="fill:black"
         id="polygon915" />
    </g>
    <g
       id="g923"
       transform="matrix(0.26458333,0,0,0.26458333,15.449814,3.9706021)">
      <title
         id="title919">Down Vertical Mark, DV</title>
      <polygon
         points="4,4 0,0 12,0 8,4 8,60 4,60 "
         style="fill:black"
         id="polygon921" />
    </g>
    <g
       id="g929"
       transform="matrix(0.26458333,0,0,0.26458333,19.101064,6.0872688)">
      <title
         id="title925">Down Vertical Mark, DV</title>
      <polygon
         points="8,52 4,52 4,4 0,0 12,0 8,4 "
         style="fill:black"
         id="polygon927" />
    </g>
    <g
       id="g935"
       transform="matrix(0.26458333,0,0,0.26458333,22.355439,9.0241437)">
      <title
         id="title931">Down Vertical Mark, DV</title>
      <polygon
         points="4,4 0,0 12,0 8,4 8,41 4,41 "
         style="fill:black"
         id="polygon933" />
    </g>
    
    
   
    
    
    
    
  
    
   
  </g>
</svg>
