<?xml version="1.0" encoding="UTF-8" standalone="no"?>
<svg
   xmlns:dc="http://purl.org/dc/elements/1.1/"
   xmlns:cc="http://creativecommons.org/ns#"
   xmlns:rdf="http://www.w3.org/1999/02/22-rdf-syntax-ns#"
   xmlns:svg="http://www.w3.org/2000/svg"
   xmlns="http://www.w3.org/2000/svg"
   width="160"
   height="80"
   viewBox="0 0 42.333332 21.166667"
   version="1.1"
   id="svg8">
  <defs
     id="defs2" />
  <metadata
     id="metadata5">
    <rdf:RDF>
      <cc:Work
         rdf:about="">
        <dc:format>image/svg+xml</dc:format>
        <dc:type
           rdf:resource="http://purl.org/dc/dcmitype/StillImage" />
        <dc:title></dc:title>
      </cc:Work>
    </rdf:RDF>
  </metadata>
  <g
     id="layer1">
    <g
       id="g952"
       transform="matrix(0,-0.26458333,0.26458333,0,13.027253,14.465197)">
      <title
         id="title948">Right Horizontal Mark, RH</title>
      <polygon
         points="8,40 4,40 4,4 0,0 12,0 8,4 "
         style="fill:black"
         id="polygon950" />
    </g>
    <polygon
       points="6,12 0,6 6,0 "
       style="fill:black"
       id="polygon1009"
       transform="matrix(0.26458333,0,0,0.26458333,24.035858,9.0733659)">
      <title
         id="title1007">Heel Mark, HE</title>
    </polygon>
    <polygon
       points="0,6 6,0 6,12 "
       style="fill:black"
       id="polygon1013"
       transform="matrix(0.26458333,0,0,0.26458333,14.321821,9.6212609)">
      <title
         id="title1011">Heel Mark, HE</title>
    </polygon>
    <polygon
       points="6,0 6,12 0,6 "
       style="fill:black"
       id="polygon1017"
       transform="matrix(0.26458333,0,0,0.26458333,18.297601,5.9266195)">
      <title
         id="title1015">Heel Mark, HE</title>
    </polygon>
    <polygon
       points="6,0 6,12 0,6 "
       style="fill:black"
       id="polygon922"
       transform="matrix(0.26458333,0,0,0.26458333,16.683531,9.5249529)">
      <title
         id="title920">Heel Mark, HE</title>
    </polygon>
    <polygon
       points="0,6 6,0 6,12 "
       style="fill:black"
       id="polygon926"
       transform="matrix(0.26458333,0,0,0.26458333,18.809647,9.5609369)">
      <title
         id="title924">Heel Mark, HE</title>
    </polygon>
    <polygon
       points="0,6 6,0 6,12 "
       style="fill:black"
       id="polygon927"
       transform="matrix(0.26458333,0,0,0.26458333,23.610586,11.819364)">
      <title
         id="title925">Heel Mark, HE</title>
    </polygon>
  </g>
</svg>
