<?xml version="1.0" encoding="UTF-8" standalone="no"?>
<svg
   xmlns:dc="http://purl.org/dc/elements/1.1/"
   xmlns:cc="http://creativecommons.org/ns#"
   xmlns:rdf="http://www.w3.org/1999/02/22-rdf-syntax-ns#"
   xmlns:svg="http://www.w3.org/2000/svg"
   xmlns="http://www.w3.org/2000/svg"
   width="160"
   height="80"
   viewBox="0 0 42.333332 21.166667"
   version="1.1"
   id="svg8">
  <defs
     id="defs2" />
  <metadata
     id="metadata5">
    <rdf:RDF>
      <cc:Work
         rdf:about="">
        <dc:format>image/svg+xml</dc:format>
        <dc:type
           rdf:resource="http://purl.org/dc/dcmitype/StillImage" />
        <dc:title></dc:title>
      </cc:Work>
    </rdf:RDF>
  </metadata>
  <g
     id="layer1">
    <g
       id="g1188"
       transform="matrix(0.13229167,-0.22913589,0.22913589,0.13229167,14.703761,8.7273998)">
      <title
         id="title1184">Right Down Diagonal Mark, RDD</title>
      <polygon
         points="4,40 4,4 0,0 12,0 8,4 8,40 "
         style="fill:black"
         id="polygon1186" />
    </g>
    <g
       id="g1338"
       transform="matrix(-0.0684792,-0.25556787,0.25556787,-0.0684792,14.406214,16.905067)">
      <title
         id="title1334">Right Up Diagonal  Mark, RUD</title>
      <polygon
         points="4,4 0,0 12,0 8,4 8,40 4,40 "
         style="fill:black"
         id="polygon1336" />
    </g>
    <g
       id="g1344"
       transform="matrix(0.26458333,0,0,0.26458333,17.545579,11.356181)">
      <title
         id="title1340">Down Vertical Mark, DV</title>
      <polygon
         points="8,25 4,25 4,4 0,0 12,0 8,4 "
         style="fill:black"
         id="polygon1342" />
    </g>
    
    <g
       id="g900"
       transform="matrix(0.26458333,0,0,0.26458333,14.529329,11.356181)">
      <title
         id="title896">Down Vertical Mark, DV</title>
      <polygon
         points="12,0 8,4 8,25 4,25 4,4 0,0 "
         style="fill:black"
         id="polygon898" />
    </g>
   
    
  </g>
</svg>
