<?xml version="1.0" encoding="UTF-8" standalone="no"?>
<svg
   xmlns:dc="http://purl.org/dc/elements/1.1/"
   xmlns:cc="http://creativecommons.org/ns#"
   xmlns:rdf="http://www.w3.org/1999/02/22-rdf-syntax-ns#"
   xmlns:svg="http://www.w3.org/2000/svg"
   xmlns="http://www.w3.org/2000/svg"
   xmlns:sodipodi="http://sodipodi.sourceforge.net/DTD/sodipodi-0.dtd"
   xmlns:inkscape="http://www.inkscape.org/namespaces/inkscape"
   width="160"
   height="80"
   viewBox="0 0 42.333332 21.166667"
   version="1.1"
   id="svg8"
   inkscape:version="1.0.2-2 (e86c870879, 2021-01-15)"
   sodipodi:docname="m91x.svg">
  <defs
     id="defs2" />
  <sodipodi:namedview
     id="base"
     pagecolor="#ffffff"
     bordercolor="#666666"
     borderopacity="1.0"
     inkscape:pageopacity="0.0"
     inkscape:pageshadow="2"
     inkscape:zoom="5.6"
     inkscape:cx="73.572176"
     inkscape:cy="59.654865"
     inkscape:document-units="px"
     inkscape:current-layer="layer1"
     inkscape:document-rotation="0"
     showgrid="false"
     units="px"
     inkscape:window-width="1755"
     inkscape:window-height="1020"
     inkscape:window-x="114"
     inkscape:window-y="0"
     inkscape:window-maximized="0" />
  <metadata
     id="metadata5">
    <rdf:RDF>
      <cc:Work
         rdf:about="">
        <dc:format>image/svg+xml</dc:format>
        <dc:type
           rdf:resource="http://purl.org/dc/dcmitype/StillImage" />
        <dc:title></dc:title>
      </cc:Work>
    </rdf:RDF>
  </metadata>
  <g
     inkscape:label="Layer 1"
     inkscape:groupmode="layer"
     id="layer1">
    <g
       id="g857"
       transform="matrix(0,-0.26458333,0.26458333,0,0.8011969,5.8652638)">
      <title
         id="title853">Right Horizontal Mark, RH</title>
      <polygon
         points="4,4 0,0 12,0 8,4 8,40 4,40 "
         style="fill:black"
         id="polygon855" />
    </g>
    <g
       id="g888"
       transform="matrix(0,-0.26458333,0.26458333,0,1.9333104,11.09636)">
      <title
         id="title884">Right Horizontal Mark, RH</title>
      <polygon
         points="4,4 0,0 12,0 8,4 8,35 4,35 "
         style="fill:black"
         id="polygon886" />
    </g>
    <g
       id="g917"
       transform="matrix(0.04594441,-0.26056371,0.26056371,0.04594441,0.8441728,15.637718)">
      <title
         id="title913">Right Down Diagonal Mark, RDD</title>
      <polygon
         points="8,4 8,40 4,40 4,4 0,0 12,0 "
         style="fill:black"
         id="polygon915" />
    </g>
    <g
       id="g937"
       transform="matrix(0.26458333,0,0,0.26458333,11.38453,3.7485972)">
      <title
         id="title933">Down Vertical Mark, DV</title>
      <polygon
         points="4,4 0,0 12,0 8,4 8,48 4,48 "
         style="fill:black"
         id="polygon935"
         transform="translate(-3.6995705)" />
    </g>
    <g
       id="g954"
       transform="matrix(0.26458333,0,0,0.26458333,20.27453,3.7485972)">
      <title
         id="title950">Down Vertical Mark, DV</title>
      <polygon
         points="8,4 8,48 4,48 4,4 0,0 12,0 "
         style="fill:black"
         id="polygon952"
         transform="translate(-3.6995705)" />
    </g>
    <polygon
       points="8,30 4,30 4,4 0,0 12,0 8,4 "
       style="fill:black"
       id="polygon958"
       transform="matrix(0,-0.26458333,0.26458333,0,12.542989,8.1331217)">
      <title
         id="title1044">Right Horizontal Mark, RH</title>
    </polygon>
    <polygon
       points="8,4 8,30 4,30 4,4 0,0 12,0 "
       style="fill:black"
       id="polygon962"
       transform="matrix(0,-0.26458333,0.26458333,0,12.542989,13.795242)">
      <title
         id="title1046">Right Horizontal Mark, RH</title>
    </polygon>
    <polygon
       points="6,0 6,12 0,6 "
       style="fill:black"
       id="polygon978"
       transform="matrix(0.26458333,0,0,0.26458333,14.95255,9.8339005)">
      <title
         id="title1058">Heel Mark, HE</title>
    </polygon>
    <polygon
       points="6,0 6,12 0,6 "
       style="fill:black"
       id="polygon992"
       transform="matrix(0.26458333,0,0,0.26458333,13.567342,6.1297338)">
      <title
         id="title1056">Heel Mark, HE</title>
    </polygon>
    <polygon
       points="6,12 0,6 6,0 "
       style="fill:black"
       id="polygon994"
       transform="matrix(0.26458333,0,0,0.26458333,15.604746,6.2355672)">
      <title
         id="title1054">Heel Mark, HE</title>
    </polygon>
    <polygon
       points="6,12 0,6 6,0 "
       style="fill:black"
       id="polygon996"
       transform="matrix(0.26458333,0,0,0.26458333,17.615581,6.2091089)">
      <title
         id="title1052">Heel Mark, HE</title>
    </polygon>
    <g
       id="g1002"
       transform="matrix(0.26458333,0,0,0.26458333,38.424945,3.7485972)">
      <title
         id="title998">Down Vertical Mark, DV</title>
      <polygon
         points="8,48 4,48 4,4 0,0 12,0 8,4 "
         style="fill:black"
         id="polygon1000"
         transform="translate(-3.6995705)" />
    </g>
    <g
       id="g1008"
       transform="matrix(0.26458333,0,0,0.26458333,33.979945,3.7485972)">
      <title
         id="title1004">Down Vertical Mark, DV</title>
      <polygon
         points="8,48 4,48 4,4 0,0 12,0 8,4 "
         style="fill:black"
         id="polygon1006"
         transform="translate(-3.6995705)" />
    </g>
    <polygon
       points="6,12 0,6 6,0 "
       style="fill:black"
       id="polygon1010"
       transform="matrix(0.26458333,0,0,0.26458333,36.024722,5.4399272)">
      <title
         id="title1050">Heel Mark, HE</title>
    </polygon>
    <polygon
       points="0,6 6,0 6,12 "
       style="fill:black"
       id="polygon1012"
       transform="matrix(0.26458333,0,0,0.26458333,36.024722,10.467046)">
      <title
         id="title1048">Heel Mark, HE</title>
    </polygon>
    <g
       id="g1018"
       transform="matrix(0.26458333,0,0,0.26458333,-0.177648,4.330567)">
      <title
         id="title1014">Down Vertical Mark, DV</title>
      <polygon
         points="8,40 4,40 4,4 0,0 12,0 8,4 "
         style="fill:black"
         id="polygon1016" />
    </g>
    <g
       id="g1024"
       transform="matrix(0,-0.26458333,0.26458333,0,23.527015,6.0598838)">
      <title
         id="title1020">Right Horizontal Mark, RH</title>
      <polygon
         points="4,4 0,0 12,0 8,4 8,40 4,40 "
         style="fill:black"
         id="polygon1022" />
    </g>
    <g
       id="g1030"
       transform="matrix(0,-0.26458333,0.26458333,0,23.527015,17.436967)">
      <title
         id="title1026">Right Horizontal Mark, RH</title>
      <polygon
         points="12,0 8,4 8,40 4,40 4,4 0,0 "
         style="fill:black"
         id="polygon1028" />
    </g>
    <g
       id="g1036"
       transform="matrix(0,-0.26458333,0.26458333,0,23.527015,9.7905084)">
      <title
         id="title1032">Right Horizontal Mark, RH</title>
      <polygon
         points="8,4 8,40 4,40 4,4 0,0 12,0 "
         style="fill:black"
         id="polygon1034" />
    </g>
    <g
       id="g1042"
       transform="matrix(0,-0.26458333,0.26458333,0,23.527015,13.679883)">
      <title
         id="title1038">Right Horizontal Mark, RH</title>
      <polygon
         points="12,0 8,4 8,40 4,40 4,4 0,0 "
         style="fill:black"
         id="polygon1040" />
    </g>
   
   
   
   
    
    
    
   
    
   
   
    <g
       id="g1216"
       transform="matrix(0,-0.26458333,0.26458333,0,1.9333104,13.821569)">
      <title
         id="title1212">Right Horizontal Mark, RH</title>
      <polygon
         points="4,4 0,0 12,0 8,4 8,35 4,35 "
         style="fill:black"
         id="polygon1214" />
    </g>
   
    
    <g
       id="g1222"
       transform="matrix(0,-0.26458333,0.26458333,0,1.9333104,8.1594853)">
      <title
         id="title1218">Right Horizontal Mark, RH</title>
      <polygon
         points="8,4 8,35 4,35 4,4 0,0 12,0 "
         style="fill:black"
         id="polygon1220" />
    </g>
   
    
    
  
    
  </g>
</svg>
