<?xml version="1.0" encoding="UTF-8" standalone="no"?>
<svg
   xmlns:dc="http://purl.org/dc/elements/1.1/"
   xmlns:cc="http://creativecommons.org/ns#"
   xmlns:rdf="http://www.w3.org/1999/02/22-rdf-syntax-ns#"
   xmlns:svg="http://www.w3.org/2000/svg"
   xmlns="http://www.w3.org/2000/svg"
   width="160"
   height="80"
   viewBox="0 0 42.333332 21.166667"
   version="1.1"
   id="svg8">
  <defs
     id="defs2" />
  <metadata
     id="metadata5">
    <rdf:RDF>
      <cc:Work
         rdf:about="">
        <dc:format>image/svg+xml</dc:format>
        <dc:type
           rdf:resource="http://purl.org/dc/dcmitype/StillImage" />
        <dc:title></dc:title>
      </cc:Work>
    </rdf:RDF>
  </metadata>
  <g
     id="layer1">
    <polygon
       points="4,40 4,22 0,18 4,18 4,4 0,0 12,0 8,4 8,18 12,18 8,22 8,40 "
       style="fill:black"
       id="polygon851"
       transform="matrix(0.26458333,0,0,0.26458333,35.548661,5.2916667)">
      <title
         id="title865">Down Vertical Head-to-Tail Mark, DVHT</title>
    </polygon>
    <polygon
       points="8,18 12,18 8,22 8,40 4,40 4,22 0,18 4,18 4,4 0,0 12,0 8,4 "
       style="fill:black"
       id="polygon869"
       transform="matrix(0.26458333,0,0,0.26458333,15.175708,5.2916667)">
      <title
         id="title867">Down Vertical Head-to-Tail Mark, DVHT</title>
    </polygon>
    <g
       id="g889"
       transform="matrix(0.26458333,0,0,0.26458333,30.812583,7.5160187)">
      <title
         id="title885">Down Vertical Mark, DV</title>
      <polygon
         points="8,4 8,25 4,25 4,4 0,0 12,0 "
         style="fill:black"
         id="polygon887" />
    </g>
    <g
       id="g906"
       transform="matrix(0.26458333,0,0,0.26458333,27.743416,7.5160187)">
      <title
         id="title902">Down Vertical Mark, DV</title>
      <polygon
         points="4,25 4,4 0,0 12,0 8,4 8,25 "
         style="fill:black"
         id="polygon904" />
    </g>
    <g
       id="g912"
       transform="matrix(0.26458333,0,0,0.26458333,24.594873,7.5160187)">
      <title
         id="title908">Down Vertical Mark, DV</title>
      <polygon
         points="4,25 4,4 0,0 12,0 8,4 8,25 "
         style="fill:black"
         id="polygon910" />
    </g>
    <g
       id="g918"
       transform="matrix(0.26458333,0,0,0.26458333,21.446333,7.5160187)">
      <title
         id="title914">Down Vertical Mark, DV</title>
      <polygon
         points="8,4 8,25 4,25 4,4 0,0 12,0 "
         style="fill:black"
         id="polygon916" />
    </g>
    <g
       id="g938"
       transform="matrix(0,-0.26458333,0.26458333,0,22.512261,20.864286)">
      <title
         id="title934">Right Horizontal Mark, RH</title>
      <polygon
         points="12,0 8,4 8,60 4,60 4,4 0,0 "
         style="fill:black"
         id="polygon936"
         transform="translate(34.500145,-12.999713)" />
    </g>
    <g
       id="g969"
       transform="matrix(0,-0.26458333,0.26458333,0,5.6507081,7.4612499)">
      <title
         id="title965">Right Horizontal Mark, RH</title>
      <polygon
         points="8,4 8,40 4,40 4,4 0,0 12,0 "
         style="fill:black"
         id="polygon967" />
    </g>
    <g
       id="g986"
       transform="matrix(0,-0.26458333,0.26458333,0,5.6507081,16.906875)">
      <title
         id="title982">Right Horizontal Mark, RH</title>
      <polygon
         points="4,40 4,4 0,0 12,0 8,4 8,40 "
         style="fill:black"
         id="polygon984" />
    </g>
    <g
       id="g1006"
       transform="matrix(0.26458333,0,0,0.26458333,12.539359,7.2704854)">
      <title
         id="title1002">Down Vertical Mark, DV</title>
      <polygon
         points="4,4 0,0 12,0 8,4 8,25 4,25 "
         style="fill:black"
         id="polygon1004" />
    </g>
    <g
       id="g1023"
       transform="matrix(0,-0.26458333,0.26458333,0,7.0360646,14.20257)">
      <title
         id="title1019">Right Horizontal Mark, RH</title>
      <polygon
         points="12,0 8,4 8,25 4,25 4,4 0,0 "
         style="fill:black"
         id="polygon1021" />
    </g>
    <g
       id="g1029"
       transform="matrix(0,-0.26458333,0.26458333,0,7.1154395,9.8369437)">
      <title
         id="title1025">Right Horizontal Mark, RH</title>
      <polygon
         points="4,25 4,4 0,0 12,0 8,4 8,25 "
         style="fill:black"
         id="polygon1027" />
    </g>
    
   
   
   
   
   
    
   
  </g>
</svg>
