<?xml version="1.0" encoding="UTF-8" standalone="no"?>
<svg
   xmlns:dc="http://purl.org/dc/elements/1.1/"
   xmlns:cc="http://creativecommons.org/ns#"
   xmlns:rdf="http://www.w3.org/1999/02/22-rdf-syntax-ns#"
   xmlns:svg="http://www.w3.org/2000/svg"
   xmlns="http://www.w3.org/2000/svg"
   width="160"
   height="80"
   viewBox="0 0 42.333332 21.166667"
   version="1.1"
   id="svg8">
  <defs
     id="defs2" />
  <metadata
     id="metadata5">
    <rdf:RDF>
      <cc:Work
         rdf:about="">
        <dc:format>image/svg+xml</dc:format>
        <dc:type
           rdf:resource="http://purl.org/dc/dcmitype/StillImage" />
        <dc:title></dc:title>
      </cc:Work>
    </rdf:RDF>
  </metadata>
  <g
     id="layer1">
    <g
       id="g34"
       transform="matrix(0,-0.26458333,0.26458333,0,10.847917,16.767969)">
      <title
         id="title30">Right Horizontal Mark, MH</title>
      <polygon
         points="8,4 8,72 4,72 4,4 0,0 12,0 "
         style="fill:black"
         id="polygon32" />
    </g>
    <g
       id="g82"
       transform="matrix(0.26458333,0,0,0.26458333,15.015103,3.6862884)">
      <title
         id="title78">Down Vertical Mark, DV</title>
      <polygon
         points="4,4 0,0 12,0 8,4 8,40 4,40 "
         style="fill:black"
         id="polygon80"
         transform="translate(0.17857143,5.1785715)" />
    </g>
    <g
       id="g88"
       transform="matrix(0.26458333,0,0,0.26458333,27.911689,5.1035479)">
      <title
         id="title84">Down Vertical Mark, DV</title>
      <polygon
         points="8,4 8,40 4,40 4,4 0,0 12,0 "
         style="fill:black"
         id="polygon86" />
    </g>
    
    
    <g
       id="g962"
       transform="matrix(0.26458333,0,0,0.26458333,10.120426,3.6862884)">
      <title
         id="title958">Down Vertical Mark, DV</title>
      <polygon
         points="8,4 8,40 4,40 4,4 0,0 12,0 "
         style="fill:black"
         id="polygon960"
         transform="translate(0.17857143,5.1785715)" />
    </g>
   
    <g
       id="g982"
       transform="matrix(0,-0.26458333,0.26458333,0,19.380729,11.893021)">
      <title
         id="title978">Right Horizontal Mark, RH</title>
      <polygon
         points="4,4 0,0 12,0 8,4 8,40 4,40 "
         style="fill:black"
         id="polygon980" />
    </g>
    
  </g>
</svg>
