<?xml version="1.0" encoding="UTF-8" standalone="no"?>
<svg
   xmlns:dc="http://purl.org/dc/elements/1.1/"
   xmlns:cc="http://creativecommons.org/ns#"
   xmlns:rdf="http://www.w3.org/1999/02/22-rdf-syntax-ns#"
   xmlns:svg="http://www.w3.org/2000/svg"
   xmlns="http://www.w3.org/2000/svg"
   width="160"
   height="80"
   viewBox="0 0 42.333332 21.166667"
   version="1.1"
   id="svg8">
  <defs
     id="defs2" />
  <metadata
     id="metadata5">
    <rdf:RDF>
      <cc:Work
         rdf:about="">
        <dc:format>image/svg+xml</dc:format>
        <dc:type
           rdf:resource="http://purl.org/dc/dcmitype/StillImage" />
        <dc:title></dc:title>
      </cc:Work>
    </rdf:RDF>
  </metadata>
  <g
     id="layer1">
    <polygon
       points="0,6 6,0 6,12 "
       style="fill:black"
       id="polygon851"
       transform="matrix(0.26458333,0,0,0.26458333,8.3097998,10.179844)">
      <title
         id="title865">Heel Mark, HE</title>
    </polygon>
    <polygon
       points="6,0 6,12 0,6 "
       style="fill:black"
       id="polygon869"
       transform="matrix(0.26458333,0,0,0.26458333,7.948877,4.4344166)">
      <title
         id="title867">Heel Mark, HE</title>
    </polygon>
    <polygon
       points="0,6 6,0 6,12 "
       style="fill:black"
       id="polygon873"
       transform="matrix(0.26458333,0,0,0.26458333,5.3578438,10.189369)">
      <title
         id="title871">Heel Mark, HE</title>
    </polygon>
    <polygon
       points="6,12 0,6 6,0 "
       style="fill:black"
       id="polygon878"
       transform="matrix(0.26458333,0,0,0.26458333,9.7290418,4.4743688)">
      <title
         id="title876">Heel Mark, HE</title>
    </polygon>
    <polygon
       points="6,0 6,12 0,6 "
       style="fill:black"
       id="polygon886"
       transform="matrix(0.26458333,0,0,0.26458333,6.043877,4.4873334)">
      <title
         id="title884">Heel Mark, HE</title>
    </polygon>
    <g
       id="g857"
       transform="matrix(0,-0.26458333,0.26458333,0,12.379629,6.0079318)">
      <title
         id="title853">Right Horizontal Mark, RH</title>
      <polygon
         points="12,0 8,4 8,40 4,40 4,4 0,0 "
         style="fill:black"
         id="polygon855" />
    </g>
    <g
       id="g874"
       transform="matrix(0,-0.26458333,0.26458333,0,12.432659,15.215432)">
      <title
         id="title870">Right Horizontal Mark, RH</title>
      <polygon
         points="8,40 4,40 4,4 0,0 12,0 8,4 "
         style="fill:black"
         id="polygon872" />
    </g>
    <g
       id="g894"
       transform="matrix(0,-0.26458333,0.26458333,0,16.442872,9.1545838)">
      <title
         id="title890">Right Horizontal Mark, RH</title>
      <polygon
         points="12,0 8,4 8,25 4,25 4,4 0,0 "
         style="fill:black"
         id="polygon892" />
    </g>
    <g
       id="g911"
       transform="matrix(0,-0.26458333,0.26458333,0,16.442872,12.065038)">
      <title
         id="title907">Right Horizontal Mark, RH</title>
      <polygon
         points="12,0 8,4 8,25 4,25 4,4 0,0 "
         style="fill:black"
         id="polygon909" />
    </g>
    <g
       id="g931"
       transform="matrix(0.26458333,0,0,0.26458333,21.959511,3.5642401)">
      <title
         id="title927">Down Vertical Mark, DV</title>
      <polygon
         points="8,4 8,40 4,40 4,4 0,0 12,0 "
         style="fill:black"
         id="polygon929" />
    </g>
    <g
       id="g948"
       transform="matrix(0.26458333,0,0,0.26458333,27.251176,3.5642401)">
      <title
         id="title944">Down Vertical Mark, DV</title>
      <polygon
         points="12,0 8,4 8,40 4,40 4,4 0,0 "
         style="fill:black"
         id="polygon946" />
    </g>
    <polygon
       points="6,0 6,12 0,6 "
       style="fill:black"
       id="polygon962"
       transform="matrix(0.26458333,0,0,0.26458333,25.098528,9.9465206)">
      <title
         id="title976">Heel Mark, HE</title>
    </polygon>
    <polygon
       points="6,0 6,12 0,6 "
       style="fill:black"
       id="polygon980"
       transform="matrix(0.26458333,0,0,0.26458333,25.004034,5.1763845)">
      <title
         id="title978">Heel Mark, HE</title>
    </polygon>
    
   
    
    
    <polygon
       points="0,6 6,0 6,12 "
       style="fill:black"
       id="polygon1027"
       transform="matrix(0.26458333,0,0,0.26458333,4.2182521,4.460875)">
      <title
         id="title1025">Heel Mark, HE</title>
    </polygon>
  </g>
</svg>
