<?xml version="1.0" encoding="UTF-8" standalone="no"?>
<svg
   xmlns:dc="http://purl.org/dc/elements/1.1/"
   xmlns:cc="http://creativecommons.org/ns#"
   xmlns:rdf="http://www.w3.org/1999/02/22-rdf-syntax-ns#"
   xmlns:svg="http://www.w3.org/2000/svg"
   xmlns="http://www.w3.org/2000/svg"
   width="160"
   height="80"
   viewBox="0 0 42.333332 21.166667"
   version="1.1"
   id="svg8">
  <defs
     id="defs2" />
  <metadata
     id="metadata5">
    <rdf:RDF>
      <cc:Work
         rdf:about="">
        <dc:format>image/svg+xml</dc:format>
        <dc:type
           rdf:resource="http://purl.org/dc/dcmitype/StillImage" />
        <dc:title></dc:title>
      </cc:Work>
    </rdf:RDF>
  </metadata>
  <g
     id="layer1">
    <g
       id="g857"
       transform="matrix(0.13229166,-0.22913589,0.22913589,0.13229166,10.46937,4.7746116)">
      <title
         id="title853">Right Down Diagonal Mark, RDD</title>
      <polygon
         points="8,72 4,72 4,4 0,0 12,0 8,4 "
         style="fill:black"
         id="polygon855" />
    </g>
    <g
       id="g874"
       transform="matrix(0.13229166,-0.22913589,0.22913589,0.13229166,10.46937,8.3729447)">
      <title
         id="title870">Right Down Diagonal Mark, RDD</title>
      <polygon
         points="12,0 8,4 8,72 4,72 4,4 0,0 "
         style="fill:black"
         id="polygon872" />
    </g>
    <g
       id="g894"
       transform="matrix(-0.13229166,-0.22913589,0.22913589,-0.13229166,12.02109,19.897638)">
      <title
         id="title890">Right Up Diagonal Mark, RUD</title>
      <polygon
         points="12,0 8,4 8,72 4,72 4,4 0,0 "
         style="fill:black"
         id="polygon892" />
    </g>
    <g
       id="g911"
       transform="matrix(-0.13229166,-0.22913589,0.22913589,-0.13229166,12.02109,16.087638)">
      <title
         id="title907">Right Up Diagonal Mark, RUD</title>
      <polygon
         points="12,0 8,4 8,72 4,72 4,4 0,0 "
         style="fill:black"
         id="polygon909" />
    </g>
   
    
   
    
    <polygon
       points="6,0 6,12 0,6 "
       style="fill:black"
       id="polygon944"
       transform="matrix(0.26458333,0,0,0.26458333,29.389654,13.531548)">
      <title
         id="title958">Heel Mark, HE</title>
    </polygon>
    <polygon
       points="6,0 6,12 0,6 "
       style="fill:black"
       id="polygon962"
       transform="matrix(0.26458333,0,0,0.26458333,29.019121,4.838095)">
      <title
         id="title960">Heel Mark, HE</title>
    </polygon>
    <polygon
       points="6,12 0,6 6,0 "
       style="fill:black"
       id="polygon966"
       transform="matrix(0.26458333,0,0,0.26458333,32.515401,8.9958331)">
      <title
         id="title964">Heel Mark, HE</title>
    </polygon>
  </g>
</svg>
