<?xml version="1.0" encoding="UTF-8" standalone="no"?>
<svg
   xmlns:dc="http://purl.org/dc/elements/1.1/"
   xmlns:cc="http://creativecommons.org/ns#"
   xmlns:rdf="http://www.w3.org/1999/02/22-rdf-syntax-ns#"
   xmlns:svg="http://www.w3.org/2000/svg"
   xmlns="http://www.w3.org/2000/svg"
   width="160"
   height="80"
   viewBox="0 0 42.333332 21.166667"
   version="1.1"
   id="svg8">
  <defs
     id="defs2" />
  <metadata
     id="metadata5">
    <rdf:RDF>
      <cc:Work
         rdf:about="">
        <dc:format>image/svg+xml</dc:format>
        <dc:type
           rdf:resource="http://purl.org/dc/dcmitype/StillImage" />
        <dc:title></dc:title>
      </cc:Work>
    </rdf:RDF>
  </metadata>
  <g
     id="layer1">
    <g
       id="g1451"
       transform="matrix(0,-0.26458333,0.26458333,0,22.158853,9.6552682)">
      <title
         id="title1447">Right Horizontal Mark, RH</title>
      <polygon
         points="0,0 12,0 8,4 8,35 4,35 4,4 "
         style="fill:black"
         id="polygon1449" />
    </g>
    <g
       id="g1548"
       transform="matrix(0,-0.26458333,0.26458333,0,20.580803,15.704854)">
      <title
         id="title1544">Right Horizontal Mark, RH</title>
      <polygon
         points="4,4 0,0 12,0 8,4 8,40 4,40 "
         style="fill:black"
         id="polygon1546" />
    </g>
    <g
       id="g1554"
       transform="matrix(0.26458333,0,0,0.26458333,30.105803,4.0631872)">
      <title
         id="title1550">Down Vertical Mark, DV</title>
      <polygon
         points="4,4 0,0 12,0 8,4 8,40 4,40 "
         style="fill:black"
         id="polygon1552" />
    </g>
    <g
       id="g1560"
       transform="matrix(0,-0.26458333,0.26458333,0,22.158853,12.909643)">
      <title
         id="title1556">Right Horizontal Mark, RH</title>
      <polygon
         points="8,4 8,35 4,35 4,4 0,0 12,0 "
         style="fill:black"
         id="polygon1558" />
    </g>
    
    
   
    <polygon
       points="0,6 6,0 6,12 "
       style="fill:black"
       id="polygon851"
       transform="matrix(0.26458333,0,0,0.26458333,18.058869,10.8204)">
      <title
         id="title865">Heel Mark, HE</title>
    </polygon>
    <polygon
       points="6,12 0,6 6,0 "
       style="fill:black"
       id="polygon869"
       transform="matrix(0.26458333,0,0,0.26458333,15.687146,5.0752375)">
      <title
         id="title867">Heel Mark, HE</title>
    </polygon>
    <polygon
       points="6,0 6,12 0,6 "
       style="fill:black"
       id="polygon873"
       transform="matrix(0.26458333,0,0,0.26458333,15.821289,10.829925)">
      <title
         id="title871">Heel Mark, HE</title>
    </polygon>
    <polygon
       points="0,6 6,0 6,12 "
       style="fill:black"
       id="polygon878"
       transform="matrix(0.26458333,0,0,0.26458333,17.837679,5.0090917)">
      <title
         id="title876">Heel Mark, HE</title>
    </polygon>
    <g
       id="g991"
       transform="matrix(0,-0.26458333,0.26458333,0,22.158853,6.7182999)">
      <title
         id="title987">Right Horizontal Mark, RH</title>
      <polygon
         points="12,0 8,4 8,35 4,35 4,4 0,0 "
         style="fill:black"
         id="polygon989" />
    </g>
    
  </g>
</svg>
