<?xml version="1.0" encoding="UTF-8" standalone="no"?>
<svg
   xmlns:dc="http://purl.org/dc/elements/1.1/"
   xmlns:cc="http://creativecommons.org/ns#"
   xmlns:rdf="http://www.w3.org/1999/02/22-rdf-syntax-ns#"
   xmlns:svg="http://www.w3.org/2000/svg"
   xmlns="http://www.w3.org/2000/svg"
   width="160"
   height="80"
   viewBox="0 0 42.333332 21.166667"
   version="1.1"
   id="svg8">
  <defs
     id="defs2" />
  <metadata
     id="metadata5">
    <rdf:RDF>
      <cc:Work
         rdf:about="">
        <dc:format>image/svg+xml</dc:format>
        <dc:type
           rdf:resource="http://purl.org/dc/dcmitype/StillImage" />
        <dc:title></dc:title>
      </cc:Work>
    </rdf:RDF>
  </metadata>
  <g
     id="layer1">
    <polygon
       points="4,40 4,22 0,18 4,18 4,4 0,0 12,0 8,4 8,18 12,18 8,22 8,40 "
       style="fill:black"
       id="polygon120"
       transform="matrix(0.26458333,0,0,0.26458333,3.751414,5.2444197)">
      <title
         id="title195">Down Vertical Head-to-Tail Mark, DVHT</title>
    </polygon>
    <polygon
       points="4,22 0,18 4,18 4,4 0,0 12,0 8,4 8,18 12,18 8,22 8,40 4,40 "
       style="fill:black"
       id="polygon134"
       transform="matrix(0.26458333,0,0,0.26458333,8.003646,5.2444197)">
      <title
         id="title197">Down Vertical Head-to-Tail Mark, DVHT</title>
    </polygon>
    <g
       id="g917"
       transform="matrix(0,-0.26458333,0.26458333,0,13.370907,9.5628353)">
      <title
         id="title913">Right Horizontal Mark, RH</title>
      <polygon
         points="8,25 4,25 4,4 0,0 12,0 8,4 "
         style="fill:black"
         id="polygon915" />
    </g>
    <g
       id="g934"
       transform="matrix(0,-0.26458333,0.26458333,0,13.370907,15.013252)">
      <title
         id="title930">Right Horizontal Mark, RH</title>
      <polygon
         points="12,0 8,4 8,25 4,25 4,4 0,0 "
         style="fill:black"
         id="polygon932" />
    </g>
    <g
       id="g977"
       transform="matrix(0.26458333,0,0,0.26458333,28.072291,7.4840041)">
      <title
         id="title973">Down Vertical Mark, DV</title>
      <polygon
         points="8,4 8,30 4,30 4,4 0,0 12,0 "
         style="fill:black"
         id="polygon975" />
    </g>
    <g
       id="g983"
       transform="matrix(0.26458333,0,0,0.26458333,24.950207,7.5369207)">
      <title
         id="title979">Down Vertical Mark, DV</title>
      <polygon
         points="8,4 8,30 4,30 4,4 0,0 12,0 "
         style="fill:black"
         id="polygon981" />
    </g>
    <g
       id="g989"
       transform="matrix(0.26458333,0,0,0.26458333,21.854581,7.5369208)">
      <title
         id="title985">Down Vertical Mark, DV</title>
      <polygon
         points="4,30 4,4 0,0 12,0 8,4 8,30 "
         style="fill:black"
         id="polygon987" />
    </g>
    <g
       id="g1009"
       transform="matrix(0,-0.26458333,0.26458333,0,19.979746,16.540162)">
      <title
         id="title1005">Right Horizontal Mark, RH</title>
      <polygon
         points="12,0 8,4 8,50 4,50 4,4 0,0 "
         style="fill:black"
         id="polygon1007" />
    </g>
    <g
       id="g1026"
       transform="matrix(0,-0.26458333,0.26458333,0,19.953287,8.0470374)">
      <title
         id="title1022">Right Horizontal Mark, RH</title>
      <polygon
         points="4,4 0,0 12,0 8,4 8,50 4,50 "
         style="fill:black"
         id="polygon1024" />
    </g>
    <g
       id="g1046"
       transform="matrix(0.26458333,0,0,0.26458333,31.965371,5.3218291)">
      <title
         id="title1042">Down Vertical Mark, DV</title>
      <polygon
         points="12,0 8,4 8,38 4,38 4,4 0,0 "
         style="fill:black"
         id="polygon1044"
         transform="translate(0,0.3000001)" />
    </g>
    <polygon
       points="6,0 6,12 0,6 "
       style="fill:black"
       id="polygon1071"
       transform="matrix(0.26458333,0,0,0.26458333,11.337396,9.0013893)">
      <title
         id="title1085">Heel Mark, HE</title>
    </polygon>
    
    
    
    
    
    
    
  </g>
</svg>
