<?xml version="1.0" encoding="UTF-8" standalone="no"?>
<svg
   xmlns:dc="http://purl.org/dc/elements/1.1/"
   xmlns:cc="http://creativecommons.org/ns#"
   xmlns:rdf="http://www.w3.org/1999/02/22-rdf-syntax-ns#"
   xmlns:svg="http://www.w3.org/2000/svg"
   xmlns="http://www.w3.org/2000/svg"
   width="160"
   height="80"
   viewBox="0 0 42.333332 21.166667"
   version="1.1"
   id="svg8">
  <defs
     id="defs2" />
  <metadata
     id="metadata5">
    <rdf:RDF>
      <cc:Work
         rdf:about="">
        <dc:format>image/svg+xml</dc:format>
        <dc:type
           rdf:resource="http://purl.org/dc/dcmitype/StillImage" />
        <dc:title></dc:title>
      </cc:Work>
    </rdf:RDF>
  </metadata>
  <g
     id="layer1">
    <g
       id="g857"
       transform="matrix(0,-0.26458333,0.26458333,0,4.2182519,6.0759673)">
      <title
         id="title853">Right Horizontal Mark, RH</title>
      <polygon
         points="4,72 4,4 0,0 12,0 8,4 8,72 "
         style="fill:black"
         id="polygon855" />
    </g>
    <g
       id="g888"
       transform="matrix(0,-0.26458333,0.26458333,0,12.306829,8.3589812)">
      <title
         id="title884">Right Horizontal Mark, RH</title>
      <polygon
         points="8,40 4,40 4,4 0,0 12,0 8,4 "
         style="fill:black"
         id="polygon886" />
    </g>
    <g
       id="g905"
       transform="matrix(0,-0.26458333,0.26458333,0,12.280371,11.481064)">
      <title
         id="title901">Right Horizontal Mark, RH</title>
      <polygon
         points="8,4 8,40 4,40 4,4 0,0 12,0 "
         style="fill:black"
         id="polygon903" />
    </g>
    <g
       id="g911"
       transform="matrix(0,-0.26458333,0.26458333,0,12.359746,14.656064)">
      <title
         id="title907">Right Horizontal Mark, RH</title>
      <polygon
         points="4,4 0,0 12,0 8,4 8,40 4,40 "
         style="fill:black"
         id="polygon909" />
    </g>
    <g
       id="g917"
       transform="matrix(0,-0.26458333,0.26458333,0,4.0595021,16.976725)">
      <title
         id="title913">Right Horizontal Mark, RH</title>
      <polygon
         points="4,4 0,0 12,0 8,4 8,72 4,72 "
         style="fill:black"
         id="polygon915" />
    </g>
    <g
       id="g923"
       transform="matrix(0.26458333,0,0,0.26458333,21.70721,5.017634)">
      <title
         id="title919">Down Vertical Mark, DV</title>
      <polygon
         points="8,4 8,40 4,40 4,4 0,0 12,0 "
         style="fill:black"
         id="polygon921" />
    </g>
   
    
   
    <g
       id="g1009"
       transform="matrix(0.26458333,0,0,0.26458333,3.0540856,5.017634)">
      <title
         id="title1005">Down Vertical Mark, DV</title>
      <polygon
         points="8,4 8,40 4,40 4,4 0,0 12,0 "
         style="fill:black"
         id="polygon1007" />
    </g>
    <g
       id="g1029"
       transform="matrix(0.07735667,-0.2530223,0.2530223,0.07735667,22.680164,5.7455732)">
      <title
         id="title1025">Right Down Diagonal Mark, RDD</title>
      <polygon
         points="12,0 8,4 8,72 4,72 4,4 0,0 "
         style="fill:black"
         id="polygon1027" />
    </g>
    <g
       id="g1046"
       transform="matrix(-0.07735667,-0.2530223,0.2530223,-0.07735667,23.581986,17.259091)">
      <title
         id="title1042">Right Up Diagonal Mark, RUD</title>
      <polygon
         points="4,4 0,0 12,0 8,4 8,72 4,72 "
         style="fill:black"
         id="polygon1044" />
    </g>
   
    
   
    <g
       id="g1070"
       transform="matrix(0.26458333,0,0,0.26458333,25.626785,5.9494208)">
      <title
         id="title1066">Down Vertical Mark, DV</title>
      <polygon
         points="4,4 0,0 12,0 8,4 8,30 4,30 "
         style="fill:black"
         id="polygon1068" />
    </g>
    
   
    <g
       id="g1109"
       transform="matrix(0.26458333,0,0,0.26458333,28.695914,6.7431705)">
      <title
         id="title1105">Down Vertical Mark, DV</title>
      <polygon
         points="12,0 8,4 8,25 4,25 4,4 0,0 "
         style="fill:black"
         id="polygon1107" />
    </g>
   
   
   
    
  </g>
</svg>
