<?xml version="1.0" encoding="UTF-8" standalone="no"?>
<svg
   xmlns:dc="http://purl.org/dc/elements/1.1/"
   xmlns:cc="http://creativecommons.org/ns#"
   xmlns:rdf="http://www.w3.org/1999/02/22-rdf-syntax-ns#"
   xmlns:svg="http://www.w3.org/2000/svg"
   xmlns="http://www.w3.org/2000/svg"
   width="160"
   height="80"
   viewBox="0 0 42.333332 21.166667"
   version="1.1"
   id="svg8">
  <defs
     id="defs2" />
  <metadata
     id="metadata5">
    <rdf:RDF>
      <cc:Work
         rdf:about="">
        <dc:format>image/svg+xml</dc:format>
        <dc:type
           rdf:resource="http://purl.org/dc/dcmitype/StillImage" />
        <dc:title></dc:title>
      </cc:Work>
    </rdf:RDF>
  </metadata>
  <g
     id="layer1">
    <g
       id="g857"
       transform="matrix(0,-0.26458333,0.26458333,0,11.811755,16.51756)">
      <title
         id="title853" />
      <polygon
         points="8,40 4,40 4,4 0,0 12,0 8,4 "
         style="fill:black"
         id="polygon855" />
    </g>
    <g
       id="g905"
       transform="matrix(0,-0.26458333,0.26458333,0,11.811755,12.019758)">
      <title
         id="title901" />
      <polygon
         points="8,4 8,35 4,35 4,4 0,0 12,0 "
         style="fill:black"
         id="polygon903"
         transform="translate(-4.899993,4.9001461)" />
    </g>
    <polygon
       points="6,0 6,12 0,6 "
       style="fill:black"
       id="polygon919"
       transform="matrix(0.26458333,0,0,0.26458333,8.9278353,13.34256)">
      <title
         id="title933">Heel Mark, HE</title>
    </polygon>
    <polygon
       points="6,12 0,6 6,0 "
       style="fill:black"
       id="polygon937"
       transform="matrix(0.26458333,0,0,0.26458333,10.224255,10.16756)">
      <title
         id="title935">Heel Mark, HE</title>
    </polygon>
  </g>
</svg>
