<?xml version="1.0" encoding="UTF-8" standalone="no"?>
<svg
   xmlns:dc="http://purl.org/dc/elements/1.1/"
   xmlns:cc="http://creativecommons.org/ns#"
   xmlns:rdf="http://www.w3.org/1999/02/22-rdf-syntax-ns#"
   xmlns:svg="http://www.w3.org/2000/svg"
   xmlns="http://www.w3.org/2000/svg"
   width="160"
   height="80"
   viewBox="0 0 42.333332 21.166667"
   version="1.1"
   id="svg8">
  <defs
     id="defs2" />
  <metadata
     id="metadata5">
    <rdf:RDF>
      <cc:Work
         rdf:about="">
        <dc:format>image/svg+xml</dc:format>
        <dc:type
           rdf:resource="http://purl.org/dc/dcmitype/StillImage" />
        <dc:title></dc:title>
      </cc:Work>
    </rdf:RDF>
  </metadata>
  <g
     id="layer1">
    <g
       id="g857"
       transform="matrix(0.26458333,0,0,0.26458333,23.935342,4.5640628)">
      <title
         id="title853">Down Vertical Mark, DV</title>
      <polygon
         points="4,4 0,0 12,0 8,4 8,40 4,40 "
         style="fill:#000000"
         id="polygon855" />
    </g>
    <g
       id="g888"
       transform="matrix(0.02305996,-0.26357651,0.26357651,0.02305996,6.8998948,15.792803)">
      <title
         id="title884">Right Down Diagonal Mark, RUD</title>
      <polygon
         points="8,4 8,72 4,72 4,4 0,0 12,0 "
         style="fill:#000000"
         id="polygon886" />
    </g>
    <g
       id="g919"
       transform="matrix(0.26458333,0,0,0.26458333,20.282166,6.6749083)">
      <title
         id="title915">Down Vertical Mark, DV</title>
      <polygon
         points="4,4 0,0 12,0 8,4 8,35 4,35 "
         style="fill:#000000"
         id="polygon917" />
    </g>
    <g
       id="g936"
       transform="matrix(0.26458333,0,0,0.26458333,16.339873,7.0717833)">
      <title
         id="title932">Down Vertical Mark, DV</title>
      <polygon
         points="4,30 4,4 0,0 12,0 8,4 8,30 "
         style="fill:#000000"
         id="polygon934" />
    </g>
    <g
       id="g942"
       transform="matrix(0.26458333,0,0,0.26458333,12.318206,7.3893595)">
      <title
         id="title938">Down Vertical Mark, DV</title>
      <polygon
         points="8,4 8,30 4,30 4,4 0,0 12,0 "
         style="fill:#000000"
         id="polygon940" />
    </g>
    <g
       id="g954"
       transform="matrix(-0.02305996,-0.26357651,0.26357651,-0.02305996,7.1766142,9.3040911)">
      <title
         id="title950">Right Up Diagonal Mark, RDD</title>
      <polygon
         points="0,0 12,0 8,4 8,72 4,72 4,4 "
         style="fill:#000000"
         id="polygon952" />
    </g>
    <g
       id="g960"
       transform="matrix(0,-0.26458333,0.26458333,0,5.3483632,3.9630823)">
      <title
         id="title956">Right Horizontal Mark, RH</title>
      <polygon
         points="8,62 4,62 4,4 0,0 12,0 8,4 "
         style="fill:#000000"
         id="polygon958"
         transform="translate(-32.285422,12.271)" />
    </g>
    <circle
       style="fill:#000000;fill-rule:evenodd;stroke-width:0.264583"
       id="path839"
       cx="21.811192"
       cy="15.207985"
       r="0.79374999">
      <title
         id="title992">Other 2 Touch Connector, O2T</title>
    </circle>
    <circle
       style="fill:#000000;fill-rule:evenodd;stroke-width:0.264583"
       id="circle980"
       cx="25.433941"
       cy="10.876225"
       r="0.79374999">
      <title
         id="title982">Right 2 Touch Connector, R2T</title>
    </circle>
    <circle
       style="fill:#000000;fill-rule:evenodd;stroke-width:0.264583"
       id="circle986"
       cx="25.52284"
       cy="6.1592374"
       r="0.79374999">
      <title
         id="title984">Other 2 Touch Connector, O2T</title>
    </circle>
    <circle
       style="fill:#000000;fill-rule:evenodd;stroke-width:0.264583"
       id="circle988"
       cx="25.558825"
       cy="15.704873"
       r="0.79374999">
      <title
         id="title990">Other 2 Touch Connector, O2T</title>
    </circle>
    <circle
       style="fill:#000000;fill-rule:evenodd;stroke-width:0.264583"
       id="circle996"
       cx="17.867048"
       cy="10.861146"
       r="0.79374999">
      <title
         id="title994">2 Cross Connector, 2C</title>
    </circle>
    <circle
       style="fill:#000000;fill-rule:evenodd;stroke-width:0.264583"
       id="circle1000"
       cx="13.885069"
       cy="10.846065"
       r="0.79374999">
      <title
         id="title998">2 Cross Connector, 2C</title>
    </circle>
    <circle
       style="fill:#000000;fill-rule:evenodd;stroke-width:0.264583"
       id="circle1008"
       cx="21.858288"
       cy="10.89316"
       r="0.79374999">
      <title
         id="title1006">2 Cross Connector, 2C</title>
    </circle>
    <circle
       style="fill:#000000;fill-rule:evenodd;stroke-width:0.264583"
       id="circle1016"
       cx="13.926608"
       cy="14.49361"
       r="0.79374999">
      <title
         id="title1014">Other 2 Touch Connector, O2T</title>
    </circle>
    <circle
       style="fill:#000000;fill-rule:evenodd;stroke-width:0.264583"
       id="circle1020"
       cx="17.987963"
       cy="14.790205"
       r="0.79374999">
      <title
         id="title1018">Other 2 Touch Connector, O2T</title>
    </circle>
    <circle
       style="fill:#000000;fill-rule:evenodd;stroke-width:0.264583"
       id="circle1024"
       cx="21.901678"
       cy="6.8849874"
       r="0.79374999">
      <title
         id="title1022">Other 2 Touch Connector, O2T</title>
    </circle>
    <circle
       style="fill:#000000;fill-rule:evenodd;stroke-width:0.264583"
       id="circle1032"
       cx="13.964179"
       cy="7.5993624"
       r="0.79374999">
      <title
         id="title1030">Other 2 Touch Connector, O2T</title>
    </circle>
    <circle
       style="fill:#000000;fill-rule:evenodd;stroke-width:0.264583"
       id="circle1036"
       cx="17.946157"
       cy="7.2609606"
       r="0.79374999">
      <title
         id="title1034">Other 2 Touch Connector, O2T</title>
    </circle>
  </g>
</svg>
