<?xml version="1.0" encoding="UTF-8" standalone="no"?>
<svg
   xmlns:dc="http://purl.org/dc/elements/1.1/"
   xmlns:cc="http://creativecommons.org/ns#"
   xmlns:rdf="http://www.w3.org/1999/02/22-rdf-syntax-ns#"
   xmlns:svg="http://www.w3.org/2000/svg"
   xmlns="http://www.w3.org/2000/svg"
   width="160"
   height="80"
   viewBox="0 0 42.333332 21.166667"
   version="1.1"
   id="svg8">
  <defs
     id="defs2" />
  <metadata
     id="metadata5">
    <rdf:RDF>
      <cc:Work
         rdf:about="">
        <dc:format>image/svg+xml</dc:format>
        <dc:type
           rdf:resource="http://purl.org/dc/dcmitype/StillImage" />
        <dc:title></dc:title>
      </cc:Work>
    </rdf:RDF>
  </metadata>
  <g
     id="layer1">
    <g
       id="g857"
       transform="matrix(0,-0.26458333,0.26458333,0,12.074525,6.9471645)">
      <title
         id="title853">Right Horizontal Mark, RH</title>
      <polygon
         points="0,0 12,0 8,4 8,40 4,40 4,4 "
         style="fill:black"
         id="polygon855" />
    </g>
    <polygon
       points="8,4 8,40 4,40 4,4 0,0 12,0 "
       style="fill:black"
       id="polygon872"
       transform="matrix(0.22913589,-0.13229167,0.13229167,0.22913589,10.623813,5.4117875)">
      <title
         id="title912">Right Down Diagonal Mark, RDD</title>
    </polygon>
    <polygon
       points="8,4 8,30 4,30 4,4 0,0 12,0 "
       style="fill:black"
       id="polygon877"
       transform="matrix(0.22913589,-0.13229167,0.13229167,0.22913589,20.572147,5.4117875)">
      <title
         id="title910">Right Down Diagonal Mark, RDD</title>
    </polygon>
    <g
       id="g897"
       transform="matrix(-0.0684792,-0.25556787,0.25556787,-0.0684792,15.478697,15.533996)">
      <title
         id="title893">Right Up Diagonal Mark, RUD</title>
      <polygon
         points="12,0 8,4 8,40 4,40 4,4 0,0 "
         style="fill:black"
         id="polygon895" />
    </g>
    
  
    
 
    
  </g>
</svg>
