<?xml version="1.0" encoding="UTF-8" standalone="no"?>
<svg
   xmlns:dc="http://purl.org/dc/elements/1.1/"
   xmlns:cc="http://creativecommons.org/ns#"
   xmlns:rdf="http://www.w3.org/1999/02/22-rdf-syntax-ns#"
   xmlns:svg="http://www.w3.org/2000/svg"
   xmlns="http://www.w3.org/2000/svg"
   width="160"
   height="80"
   viewBox="0 0 42.333332 21.166667"
   version="1.1"
   id="svg8">
  <defs
     id="defs2" />
  <metadata
     id="metadata5">
    <rdf:RDF>
      <cc:Work
         rdf:about="">
        <dc:format>image/svg+xml</dc:format>
        <dc:type
           rdf:resource="http://purl.org/dc/dcmitype/StillImage" />
        <dc:title></dc:title>
      </cc:Work>
    </rdf:RDF>
  </metadata>
  <g
     id="layer1">
    <g
       id="g857"
       transform="matrix(0.26458333,0,0,0.26458333,15.241888,5.6223958)">
      <title
         id="title853">Down Vertical Mark, DV</title>
      <polygon
         points="8,40 4,40 4,4 0,0 12,0 8,4 "
         style="fill:black"
         id="polygon855" />
    </g>
    <g
       id="g874"
       transform="matrix(0.26458333,0,0,0.26458333,10.224254,5.6223958)">
      <title
         id="title870">Down Vertical Mark, DV</title>
      <polygon
         points="8,40 4,40 4,4 0,0 12,0 8,4 "
         style="fill:black"
         id="polygon872" />
    </g>
    <g
       id="g1003"
       transform="matrix(0,-0.26458333,0.26458333,0,8.1131832,12.690551)">
      <title
         id="title999">Right Horizontal Mark, RH</title>
      <polygon
         points="8,72 4,72 4,4 0,0 12,0 8,4 "
         style="fill:black"
         id="polygon1001" />
    </g>
   
   
    <polygon
       points="6,0 6,12 0,6 "
       style="fill:black"
       id="polygon1050"
       transform="matrix(0.26458333,0,0,0.26458333,19.422268,11.90625)">
      <title
         id="title1072">Heel Mark, HE</title>
    </polygon>
    <polygon
       points="6,0 6,12 0,6 "
       style="fill:black"
       id="polygon1064"
       transform="matrix(0.26458333,0,0,0.26458333,18.422674,7.1860833)">
      <title
         id="title1074">Heel Mark, HE</title>
    </polygon>
    <polygon
       points="0,6 6,0 6,12 "
       style="fill:black"
       id="polygon1066"
       transform="matrix(0.26458333,0,0,0.26458333,20.448588,7.1860833)">
      <title
         id="title1076">Heel Mark, HE</title>
    </polygon>
    <polygon
       points="0,6 6,0 6,12 "
       style="fill:black"
       id="polygon1068"
       transform="matrix(0.26458333,0,0,0.26458333,22.772988,11.90625)">
      <title
         id="title1070">Heel Mark, HE</title>
    </polygon>
    <polygon
       points="0,6 6,0 6,12 "
       style="fill:black"
       id="polygon965"
       transform="matrix(0.26458333,0,0,0.26458333,22.368669,7.1860833)">
      <title
         id="title963">Heel Mark, HE</title>
    </polygon>
    <polygon
       points="0,6 6,0 6,12 "
       style="fill:black"
       id="polygon969"
       transform="matrix(0.26458333,0,0,0.26458333,24.358601,7.1860833)">
      <title
         id="title967">Heel Mark, HE</title>
    </polygon>
  </g>
</svg>
