<?xml version="1.0" encoding="UTF-8" standalone="no"?>
<svg
   xmlns:dc="http://purl.org/dc/elements/1.1/"
   xmlns:cc="http://creativecommons.org/ns#"
   xmlns:rdf="http://www.w3.org/1999/02/22-rdf-syntax-ns#"
   xmlns:svg="http://www.w3.org/2000/svg"
   xmlns="http://www.w3.org/2000/svg"
   width="160"
   height="80"
   viewBox="0 0 42.333332 21.166667"
   version="1.1"
   id="svg8">
  <defs
     id="defs2" />
  <metadata
     id="metadata5">
    <rdf:RDF>
      <cc:Work
         rdf:about="">
        <dc:format>image/svg+xml</dc:format>
        <dc:type
           rdf:resource="http://purl.org/dc/dcmitype/StillImage" />
        <dc:title></dc:title>
      </cc:Work>
    </rdf:RDF>
  </metadata>
  <g
     id="layer1">
    <polygon
       points="6,12 0,6 6,0 "
       style="fill:black"
       id="polygon851"
       transform="matrix(0.26458333,0,0,0.26458333,6.6263506,11.408266)">
      <title
         id="title865">Heel Mark, HE</title>
    </polygon>
    <polygon
       points="0,6 6,0 6,12 "
       style="fill:black"
       id="polygon869"
       transform="matrix(0.26458333,0,0,0.26458333,6.2654278,5.6628389)">
      <title
         id="title867">Heel Mark, HE</title>
    </polygon>
    <polygon
       points="6,12 0,6 6,0 "
       style="fill:black"
       id="polygon873"
       transform="matrix(0.26458333,0,0,0.26458333,3.6743946,11.417791)">
      <title
         id="title871">Heel Mark, HE</title>
    </polygon>
    <polygon
       points="6,0 6,12 0,6 "
       style="fill:black"
       id="polygon878"
       transform="matrix(0.26458333,0,0,0.26458333,8.0455926,5.7027911)">
      <title
         id="title876">Heel Mark, HE</title>
    </polygon>
    <polygon
       points="0,6 6,0 6,12 "
       style="fill:black"
       id="polygon886"
       transform="matrix(0.26458333,0,0,0.26458333,4.3604278,5.7157557)">
      <title
         id="title884">Heel Mark, HE</title>
    </polygon>
    <polygon
       points="6,12 0,6 6,0 "
       style="fill:black"
       id="polygon1027"
       transform="matrix(0.26458333,0,0,0.26458333,2.5348029,5.6892973)">
      <title
         id="title1025">Heel Mark, HE</title>
    </polygon>
    <g
       id="g874"
       transform="matrix(0.26458333,0,0,0.26458333,18.678564,5.1215777)">
      <title
         id="title870">Down Vertical Mark, DV</title>
      <polygon
         points="8,40 4,40 4,4 0,0 12,0 8,4 "
         style="fill:black"
         id="polygon872" />
    </g>
    <g
       id="g892"
       transform="matrix(0.26458333,0,0,0.26458333,12.451406,5.0837794)">
      <title
         id="title888">Down Vertical Mark, DV</title>
      <polygon
         points="8,40 4,40 4,4 0,0 12,0 8,4 "
         style="fill:black"
         id="polygon890" />
    </g>
    <g
       id="g1045"
       transform="matrix(0,-0.26458333,0.26458333,0,9.7866729,11.717262)">
      <title
         id="title1041">Right Horizontal Mark, RH</title>
      <polygon
         points="4,4 0,0 12,0 8,4 8,25 4,25 "
         style="fill:black"
         id="polygon1043" />
    </g>
    
    <polygon
       points="0,6 6,0 6,12 "
       style="fill:black"
       id="polygon934"
       transform="matrix(0.26458333,0,0,0.26458333,16.727262,10.035268)">
      <title
         id="title948">Heel Mark, HE</title>
    </polygon>
  </g>
</svg>
