<?xml version="1.0" encoding="UTF-8" standalone="no"?>
<svg
   xmlns:dc="http://purl.org/dc/elements/1.1/"
   xmlns:cc="http://creativecommons.org/ns#"
   xmlns:rdf="http://www.w3.org/1999/02/22-rdf-syntax-ns#"
   xmlns:svg="http://www.w3.org/2000/svg"
   xmlns="http://www.w3.org/2000/svg"
   width="160"
   height="80"
   viewBox="0 0 42.333332 21.166667"
   version="1.1"
   id="svg8">
  <defs
     id="defs2" />
  <metadata
     id="metadata5">
    <rdf:RDF>
      <cc:Work
         rdf:about="">
        <dc:format>image/svg+xml</dc:format>
        <dc:type
           rdf:resource="http://purl.org/dc/dcmitype/StillImage" />
        <dc:title></dc:title>
      </cc:Work>
    </rdf:RDF>
  </metadata>
  <g
     id="layer1">
    <g
       id="g857"
       transform="matrix(0,-0.26458333,0.26458333,0,7.7372102,7.5840166)">
      <title
         id="title853">Right Horizontal Mark, RH</title>
      <polygon
         points="8,40 4,40 4,4 0,0 12,0 8,4 "
         style="fill:black"
         id="polygon855" />
    </g>
    <g
       id="g874"
       transform="matrix(0,-0.26458333,0.26458333,0,7.8430436,14.965892)">
      <title
         id="title870">Right Horizontal Mark, RH</title>
      <polygon
         points="12,0 8,4 8,40 4,40 4,4 0,0 "
         style="fill:black"
         id="polygon872" />
    </g>
    <g
       id="g880"
       transform="matrix(0.13229166,-0.22913589,0.22913589,0.13229166,17.288565,5.820914)">
      <title
         id="title876">Right Down Diagonal Mark, RDD</title>
      <polygon
         points="0,0 12,0 8,4 8,40 4,40 4,4 "
         style="fill:black"
         id="polygon878" />
    </g>
    <g
       id="g886"
       transform="matrix(-0.13229167,-0.22913588,0.22913588,-0.13229167,18.876066,16.155512)">
      <title
         id="title882">Right Up Diagonal Mark, RUD</title>
      <polygon
         points="8,4 8,40 4,40 4,4 0,0 12,0 "
         style="fill:black"
         id="polygon884" />
    </g>
    <g
       id="g906"
       transform="matrix(0.26458333,0,0,0.26458333,10.082515,11.055803)">
      <title
         id="title902">Down Vertical Mark, DV</title>
      <polygon
         points="0,0 12,0 8,4 8,25 4,25 4,4 "
         style="fill:black"
         id="polygon904" />
    </g>
    <g
       id="g923"
       transform="matrix(0.26458333,0,0,0.26458333,13.257515,11.055803)">
      <title
         id="title919">Down Vertical Mark, DV</title>
      <polygon
         points="4,4 0,0 12,0 8,4 8,25 4,25 "
         style="fill:black"
         id="polygon921" />
    </g>
    <g
       id="g929"
       transform="matrix(0.21673398,-0.15175876,0.15175876,0.21673398,18.292762,12.19383)">
      <title
         id="title925">Right Down Diagonal Mark, RDD</title>
      <polygon
         points="4,4 0,0 12,0 8,4 8,25 4,25 "
         style="fill:black"
         id="polygon927" />
    </g>
    <g
       id="g935"
       transform="matrix(0.21673398,-0.15175876,0.15175876,0.21673398,20.920075,10.372701)">
      <title
         id="title931">Right Down Diagonal Mark, RDD</title>
      <polygon
         points="0,0 12,0 8,4 8,25 4,25 4,4 "
         style="fill:black"
         id="polygon933" />
    </g>
    <polygon
       points="6,0 6,12 0,6 "
       style="fill:black"
       id="polygon949"
       transform="matrix(0.26458333,0,0,0.26458333,28.013819,7.9451729)">
      <title
         id="title994">Heel Mark, HE</title>
    </polygon>
    <g
       id="g981"
       transform="matrix(0.26458333,0,0,0.26458333,29.387536,4.3957876)">
      <title
         id="title977">Down Vertical Mark, DV</title>
      <polygon
         points="4,4 0,0 12,0 8,4 8,40 4,40 "
         style="fill:black"
         id="polygon979" />
    </g>
    
    
   
    
  
   
    
  </g>
</svg>
