<?xml version="1.0" encoding="UTF-8" standalone="no"?>
<svg
   xmlns:dc="http://purl.org/dc/elements/1.1/"
   xmlns:cc="http://creativecommons.org/ns#"
   xmlns:rdf="http://www.w3.org/1999/02/22-rdf-syntax-ns#"
   xmlns:svg="http://www.w3.org/2000/svg"
   xmlns="http://www.w3.org/2000/svg"
   width="160"
   height="80"
   viewBox="0 0 42.333332 21.166667"
   version="1.1"
   id="svg8">
  <defs
     id="defs2" />
  <metadata
     id="metadata5">
    <rdf:RDF>
      <cc:Work
         rdf:about="">
        <dc:format>image/svg+xml</dc:format>
        <dc:type
           rdf:resource="http://purl.org/dc/dcmitype/StillImage" />
        <dc:title></dc:title>
      </cc:Work>
    </rdf:RDF>
  </metadata>
  <g
     id="layer1">
    <polygon
       points="0,50 4,45 4,4 0,0 12,0 8,4 8,45 12,50 "
       style="fill:black"
       id="polygon869"
       transform="matrix(0,-0.26458333,0.26458333,0,7.9186181,14.51044)">
      <title
         id="title867">Right Horizontal Barbell Mark, RHBB</title>
    </polygon>
    <g
       id="g889"
       transform="matrix(0.09049283,-0.24862701,0.24862701,0.09049283,21.428187,11.97075)">
      <title
         id="title885">Right Down Diagonal Mark, RDD</title>
      <polygon
         points="0,0 12,0 8,4 8,40 4,40 4,4 "
         style="fill:black"
         id="polygon887" />
    </g>
    <g
       id="g906"
       transform="matrix(-0.09049283,-0.24862701,0.24862701,-0.09049283,22.530371,11.706971)">
      <title
         id="title902">Right Up Diagonal Mark, RUD</title>
      <polygon
         points="12,0 8,4 8,40 4,40 4,4 0,0 "
         style="fill:black"
         id="polygon904" />
    </g>
    <g
       id="g926"
       transform="matrix(0.26458333,0,0,0.26458333,16.290563,9.5249999)">
      <title
         id="title922">Down Vertical Mark, DV</title>
      <polygon
         points="8,25 4,25 4,4 0,0 12,0 8,4 "
         style="fill:black"
         id="polygon924" />
    </g>
    <g
       id="g943"
       transform="matrix(0.26458333,0,0,0.26458333,12.930355,9.5249999)">
      <title
         id="title939">Down Vertical Mark, DV</title>
      <polygon
         points="4,25 4,4 0,0 12,0 8,4 8,25 "
         style="fill:black"
         id="polygon941" />
    </g>
    <g
       id="g949"
       transform="matrix(0.26458333,0,0,0.26458333,9.4378556,9.5249999)">
      <title
         id="title945">Down Vertical Mark, DV</title>
      <polygon
         points="8,25 4,25 4,4 0,0 12,0 8,4 "
         style="fill:black"
         id="polygon947" />
    </g>
   
   
    
    
    <polygon
       points="4,45 4,4 0,0 12,0 8,4 8,45 12,50 0,50 "
       style="fill:black"
       id="polygon1002"
       transform="matrix(0,-0.26458333,0.26458333,0,7.9186181,9.245119)">
      <title
         id="title1000">Right Horizontal Barbell Mark, RHBB</title>
    </polygon>
    <g
       id="g1042"
       transform="matrix(0,-0.26458333,0.26458333,0,21.513877,15.718114)">
      <title
         id="title1038">Right Horizontal Mark, RH</title>
      <polygon
         points="4,4 0,0 12,0 8,4 8,40 4,40 "
         style="fill:black"
         id="polygon1040" />
    </g>
    <g
       id="g1059"
       transform="matrix(0,-0.26458333,0.26458333,0,21.530146,8.151083)">
      <title
         id="title1055">Right Horizontal Mark, RH</title>
      <polygon
         points="4,4 0,0 12,0 8,4 8,40 4,40 "
         style="fill:black"
         id="polygon1057" />
    </g>
   
    
  </g>
</svg>
