<?xml version="1.0" encoding="UTF-8" standalone="no"?>
<svg
   xmlns:dc="http://purl.org/dc/elements/1.1/"
   xmlns:cc="http://creativecommons.org/ns#"
   xmlns:rdf="http://www.w3.org/1999/02/22-rdf-syntax-ns#"
   xmlns:svg="http://www.w3.org/2000/svg"
   xmlns="http://www.w3.org/2000/svg"
   width="160"
   height="80"
   viewBox="0 0 42.333332 21.166667"
   version="1.1"
   id="svg8">
  <defs
     id="defs2" />
  <metadata
     id="metadata5">
    <rdf:RDF>
      <cc:Work
         rdf:about="">
        <dc:format>image/svg+xml</dc:format>
        <dc:type
           rdf:resource="http://purl.org/dc/dcmitype/StillImage" />
        <dc:title></dc:title>
      </cc:Work>
    </rdf:RDF>
  </metadata>
  <g
     id="layer1">
    <g
       id="g857"
       transform="matrix(0,-0.26458333,0.26458333,0,10.460491,8.1548367)">
      <title
         id="title853">Right Horizontal Mark, RH</title>
      <polygon
         points="4,72 4,4 0,0 12,0 8,4 8,72 "
         style="fill:black"
         id="polygon855" />
    </g>
    <g
       id="g874"
       transform="matrix(0,-0.26458333,0.26458333,0,10.460491,11.065139)">
      <title
         id="title870">Right Horizontal Mark, RH</title>
      <polygon
         points="8,72 4,72 4,4 0,0 12,0 8,4 "
         style="fill:black"
         id="polygon872" />
    </g>
    <g
       id="g880"
       transform="matrix(0,-0.26458333,0.26458333,0,10.460491,14.081389)">
      <title
         id="title876">Right Horizontal Mark, RH</title>
      <polygon
         points="12,0 8,4 8,72 4,72 4,4 0,0 "
         style="fill:black"
         id="polygon878" />
    </g>
    <g
       id="g886"
       transform="matrix(0,-0.26458333,0.26458333,0,10.460491,17.097638)">
      <title
         id="title882">Right Horizontal Mark, RH</title>
      <polygon
         points="8,72 4,72 4,4 0,0 12,0 8,4 "
         style="fill:black"
         id="polygon884" />
    </g>
    <polygon
       points="8,50 4,50 4,4 0,0 12,0 8,4 "
       style="fill:black"
       id="polygon904"
       transform="matrix(0.26458333,0,0,0.26458333,14.750521,4.0632441)">
      <title
         id="title997">Down Vertical Mark, DV</title>
    </polygon>
    <polygon
       points="12,0 8,4 8,50 4,50 4,4 0,0 "
       style="fill:black"
       id="polygon919"
       transform="matrix(0.26458333,0,0,0.26458333,17.925521,4.0632441)" />
    <polygon
       points="8,50 4,50 4,4 0,0 12,0 8,4 "
       style="fill:black"
       id="polygon925"
       transform="matrix(0.26458333,0,0,0.26458333,17.978437,4.0632441)">
      <title
         id="title999">Down Vertical Mark, DV</title>
    </polygon>
    <polygon
       points="4,50 4,4 0,0 12,0 8,4 8,50 "
       style="fill:black"
       id="polygon931"
       transform="matrix(0.26458333,0,0,0.26458333,21.259271,4.0632441)">
      <title
         id="title1001">Down Vertical Mark, DV</title>
    </polygon>
    
    
   
    
    
   
    
    
   
    
    
    
  </g>
</svg>
