<?xml version="1.0" encoding="UTF-8" standalone="no"?>
<svg
   xmlns:dc="http://purl.org/dc/elements/1.1/"
   xmlns:cc="http://creativecommons.org/ns#"
   xmlns:rdf="http://www.w3.org/1999/02/22-rdf-syntax-ns#"
   xmlns:svg="http://www.w3.org/2000/svg"
   xmlns="http://www.w3.org/2000/svg"
   width="160"
   height="80"
   viewBox="0 0 42.333332 21.166667"
   version="1.1"
   id="svg8">
  <defs
     id="defs2" />
  <metadata
     id="metadata5">
    <rdf:RDF>
      <cc:Work
         rdf:about="">
        <dc:format>image/svg+xml</dc:format>
        <dc:type
           rdf:resource="http://purl.org/dc/dcmitype/StillImage" />
        <dc:title></dc:title>
      </cc:Work>
    </rdf:RDF>
  </metadata>
  <g
     id="layer1">
    <g
       id="g1108"
       transform="matrix(0,-0.26458333,0.26458333,0,21.354767,12.964546)">
      <title
         id="title1104">Right Horizontal Mark, RH</title>
      <polygon
         points="0,0 12,0 8,4 8,25 4,25 4,4 "
         style="fill:black"
         id="polygon1106" />
    </g>
    <g
       id="g1114"
       transform="matrix(0.26458333,0,0,0.26458333,13.863279,9.3965261)">
      <title
         id="title1110">Down Vertical Mark, DV</title>
      <polygon
         points="0,0 12,0 8,4 8,32 4,32 4,4 "
         style="fill:black"
         id="polygon1112"
         transform="translate(0,-4.3004297)" />
    </g>
    <g
       id="g1120"
       transform="matrix(0,-0.26458333,0.26458333,0,9.7337748,9.3643604)">
      <title
         id="title1116">Right Horizontal Mark, RH</title>
      <polygon
         points="12,0 8,4 8,40 4,40 4,4 0,0 "
         style="fill:black"
         id="polygon1118" />
    </g>
    <g
       id="g1130"
       transform="matrix(0.26458333,0,0,0.26458333,19.258775,6.1893604)">
      <title
         id="title1126">Down Vertical Mark, DV</title>
      <polygon
         points="4,40 4,4 0,0 12,0 8,4 8,40 "
         style="fill:black"
         id="polygon1128" />
    </g>
    
    <g
       id="g1140"
       transform="matrix(0,-0.26458333,0.26458333,0,9.8755158,16.120685)">
      <title
         id="title1136">Right Horizontal Mark, RH</title>
      <polygon
         points="4,40 4,4 0,0 12,0 8,4 8,40 "
         style="fill:black"
         id="polygon1138" />
    </g>
   
   
   
    
  </g>
</svg>
