<?xml version="1.0" encoding="UTF-8" standalone="no"?>
<svg
   xmlns:dc="http://purl.org/dc/elements/1.1/"
   xmlns:cc="http://creativecommons.org/ns#"
   xmlns:rdf="http://www.w3.org/1999/02/22-rdf-syntax-ns#"
   xmlns:svg="http://www.w3.org/2000/svg"
   xmlns="http://www.w3.org/2000/svg"
   width="160"
   height="80"
   viewBox="0 0 42.333332 21.166667"
   version="1.1"
   id="svg8">
  <defs
     id="defs2" />
  <metadata
     id="metadata5">
    <rdf:RDF>
      <cc:Work
         rdf:about="">
        <dc:format>image/svg+xml</dc:format>
        <dc:type
           rdf:resource="http://purl.org/dc/dcmitype/StillImage" />
        <dc:title></dc:title>
      </cc:Work>
    </rdf:RDF>
  </metadata>
  <g
     id="layer1">
    <g
       id="g1114"
       transform="matrix(0.26458333,0,0,0.26458333,12.100057,7.9611046)">
      <title
         id="title1110">Down Vertical Mark, DV</title>
      <polygon
         points="8,25 4,25 4,4 0,0 12,0 8,4 "
         style="fill:black"
         id="polygon1112" />
    </g>
    <g
       id="g1120"
       transform="matrix(0,-0.26458333,0.26458333,0,7.9705534,7.9289389)">
      <title
         id="title1116">Right Horizontal Mark, RH</title>
      <polygon
         points="8,40 4,40 4,4 0,0 12,0 8,4 "
         style="fill:black"
         id="polygon1118" />
    </g>
    <g
       id="g1130"
       transform="matrix(0.26458333,0,0,0.26458333,17.495553,4.7539389)">
      <title
         id="title1126">Down Vertical Mark, DV</title>
      <polygon
         points="4,40 4,4 0,0 12,0 8,4 8,40 "
         style="fill:black"
         id="polygon1128" />
    </g>
    
    <g
       id="g1140"
       transform="matrix(0,-0.26458333,0.26458333,0,8.1122944,14.685263)">
      <title
         id="title1136">Right Horizontal Mark, RH</title>
      <polygon
         points="0,0 12,0 8,4 8,40 4,40 4,4 "
         style="fill:black"
         id="polygon1138" />
    </g>
   
    
    <g
       id="g1150"
       transform="matrix(0.26458333,0,0,0.26458333,21.570156,4.7539389)">
      <title
         id="title1146">Down Vertical Mark, DV</title>
      <polygon
         points="4,4 0,0 12,0 8,4 8,40 4,40 "
         style="fill:black"
         id="polygon1148" />
    </g>
    <polygon
       points="4,22 0,18 4,18 4,4 0,0 12,0 8,4 8,18 12,18 8,22 8,40 4,40 "
       style="fill:black"
       id="polygon988"
       transform="matrix(0.26458333,0,0,0.26458333,24.745156,4.7539389)">
      <title
         id="title1002">Down Vertical Head-to-Tail Mark, DVHT</title>
    </polygon>
  </g>
</svg>
