<?xml version="1.0" encoding="UTF-8" standalone="no"?>
<svg
   xmlns:dc="http://purl.org/dc/elements/1.1/"
   xmlns:cc="http://creativecommons.org/ns#"
   xmlns:rdf="http://www.w3.org/1999/02/22-rdf-syntax-ns#"
   xmlns:svg="http://www.w3.org/2000/svg"
   xmlns="http://www.w3.org/2000/svg"
   xmlns:sodipodi="http://sodipodi.sourceforge.net/DTD/sodipodi-0.dtd"
   xmlns:inkscape="http://www.inkscape.org/namespaces/inkscape"
   width="160"
   height="80"
   viewBox="0 0 42.333332 21.166667"
   version="1.1"
   id="svg8"
   inkscape:version="1.0.2-2 (e86c870879, 2021-01-15)"
   sodipodi:docname="m95w.svg">
  <defs
     id="defs2" />
  <sodipodi:namedview
     id="base"
     pagecolor="#ffffff"
     bordercolor="#666666"
     borderopacity="1.0"
     inkscape:pageopacity="0.0"
     inkscape:pageshadow="2"
     inkscape:zoom="5.6"
     inkscape:cx="85.88188"
     inkscape:cy="67.175518"
     inkscape:document-units="px"
     inkscape:current-layer="layer1"
     inkscape:document-rotation="0"
     showgrid="false"
     units="px"
     inkscape:window-width="1755"
     inkscape:window-height="1020"
     inkscape:window-x="143"
     inkscape:window-y="0"
     inkscape:window-maximized="0" />
  <metadata
     id="metadata5">
    <rdf:RDF>
      <cc:Work
         rdf:about="">
        <dc:format>image/svg+xml</dc:format>
        <dc:type
           rdf:resource="http://purl.org/dc/dcmitype/StillImage" />
        <dc:title></dc:title>
      </cc:Work>
    </rdf:RDF>
  </metadata>
  <g
     inkscape:label="Layer 1"
     inkscape:groupmode="layer"
     id="layer1">
    <polygon
       points="8,40 4,40 4,4 0,0 12,0 8,4 "
       style="fill:black"
       id="polygon855"
       transform="matrix(0,-0.26458333,0.26458333,0,12.898437,6.2536916)">
      <title
         id="title966">Right Horizontal Mark, RH</title>
    </polygon>
    <polygon
       points="12,0 8,4 8,32.5 4,32.5 4,4 0,0 "
       style="fill:black"
       id="polygon901"
       transform="matrix(0,-0.26458333,0.26458333,0,12.898437,9.3757749)">
      <title
         id="title968">Right Horizontal Mark, RH</title>
    </polygon>
    <g
       id="g888"
       transform="matrix(0,-0.26458333,0.26458333,0,12.898437,12.497858)">
      <title
         id="title884">Right Horizontal Mark, RH</title>
      <polygon
         points="0,0 12,0 8,4 8,25 4,25 4,4 "
         style="fill:black"
         id="polygon886" />
    </g>
    <polygon
       points="6,12 0,6 6,0 "
       style="fill:black"
       id="polygon917"
       transform="matrix(0.26458333,0,0,0.26458333,19.751146,8.8730666)">
      <title
         id="title974">Heel Mark, HE</title>
    </polygon>
    <polygon
       points="0,6 6,0 6,12 "
       style="fill:black"
       id="polygon931"
       transform="matrix(0.26458333,0,0,0.26458333,23.772812,3.6078582)">
      <title
         id="title970">Heel Mark, HE</title>
    </polygon>
    <polygon
       points="6,12 0,6 6,0 "
       style="fill:black"
       id="polygon933"
       transform="matrix(0.26458333,0,0,0.26458333,21.735521,6.2272333)">
      <title
         id="title972">Heel Mark, HE</title>
    </polygon>
    <g
       id="g953"
       transform="matrix(0.26458333,0,0,0.26458333,22.413913,7.5595242)">
      <title
         id="title949">Down Vertical Mark, DV</title>
      <polygon
         points="4,4 0,0 12,0 8,4 8,25 4,25 "
         style="fill:black"
         id="polygon951" />
    </g>
  </g>
</svg>
