<?xml version="1.0" encoding="UTF-8" standalone="no"?>
<svg
   xmlns:dc="http://purl.org/dc/elements/1.1/"
   xmlns:cc="http://creativecommons.org/ns#"
   xmlns:rdf="http://www.w3.org/1999/02/22-rdf-syntax-ns#"
   xmlns:svg="http://www.w3.org/2000/svg"
   xmlns="http://www.w3.org/2000/svg"
   width="160"
   height="80"
   viewBox="0 0 42.333332 21.166667"
   version="1.1"
   id="svg8">
  <defs
     id="defs2" />
  <metadata
     id="metadata5">
    <rdf:RDF>
      <cc:Work
         rdf:about="">
        <dc:format>image/svg+xml</dc:format>
        <dc:type
           rdf:resource="http://purl.org/dc/dcmitype/StillImage" />
        <dc:title></dc:title>
      </cc:Work>
    </rdf:RDF>
  </metadata>
  <g
     id="layer1">
    <g
       id="g1108"
       transform="matrix(0,-0.26458333,0.26458333,0,24.095094,13.626004)">
      <title
         id="title1104">Right Horizontal Mark, RH</title>
      <polygon
         points="8,4 8,25 4,25 4,4 0,0 12,0 "
         style="fill:black"
         id="polygon1106" />
    </g>
    <g
       id="g1120"
       transform="matrix(0,-0.26458333,0.26458333,0,12.474102,10.025818)">
      <title
         id="title1116">Right Horizontal Mark, RH</title>
      <polygon
         points="12,0 8,4 8,40 4,40 4,4 0,0 "
         style="fill:black"
         id="polygon1118" />
    </g>
    <g
       id="g1130"
       transform="matrix(0.26458333,0,0,0.26458333,21.999102,6.8508185)">
      <title
         id="title1126">Down Vertical Mark, DV</title>
      <polygon
         points="4,40 4,4 0,0 12,0 8,4 8,40 "
         style="fill:black"
         id="polygon1128" />
    </g>
   
    <g
       id="g1140"
       transform="matrix(0,-0.26458333,0.26458333,0,12.615843,16.782143)">
      <title
         id="title1136">Right Horizontal Mark, RH</title>
      <polygon
         points="4,40 4,4 0,0 12,0 8,4 8,40 "
         style="fill:black"
         id="polygon1138" />
    </g>
   
    
    <g
       id="g970"
       transform="matrix(0.26458333,0,0,0.26458333,16.617685,10.819568)">
      <title
         id="title966">Down Vertical Mark, DV</title>
      <polygon
         points="12,0 8,4 8,25 4,25 4,4 0,0 "
         style="fill:black"
         id="polygon968" />
    </g>
   
  </g>
</svg>
