<?xml version="1.0" encoding="UTF-8" standalone="no"?>
<svg
   xmlns:dc="http://purl.org/dc/elements/1.1/"
   xmlns:cc="http://creativecommons.org/ns#"
   xmlns:rdf="http://www.w3.org/1999/02/22-rdf-syntax-ns#"
   xmlns:svg="http://www.w3.org/2000/svg"
   xmlns="http://www.w3.org/2000/svg"
   width="160"
   height="80"
   viewBox="0 0 42.333332 21.166667"
   version="1.1"
   id="svg8">
  <defs
     id="defs2" />
  <metadata
     id="metadata5">
    <rdf:RDF>
      <cc:Work
         rdf:about="">
        <dc:format>image/svg+xml</dc:format>
        <dc:type
           rdf:resource="http://purl.org/dc/dcmitype/StillImage" />
        <dc:title></dc:title>
      </cc:Work>
    </rdf:RDF>
  </metadata>
  <g
     id="layer1">
    <g
       id="g439"
       transform="matrix(0.26458333,0,0,0.26458333,24.555147,8.0318803)">
      <title
         id="title435">Down Vertical Mark, DV</title>
      <polygon
         points="4,4 0,0 12,0 8,4 8,40 4,40 "
         style="fill:black"
         id="polygon437"
         transform="translate(-12.199714,0.46428666)" />
    </g>
    <g
       id="g581"
       transform="matrix(0.18708867,-0.18708867,0.18708867,0.18708867,16.799251,8.9713055)">
      <title
         id="title577">Right Down Diagonal, RDD</title>
      <polygon
         points="0,0 12,0 8,4 8,25 4,25 4,4 "
         style="fill:black"
         id="polygon579" />
    </g>
    <g
       id="g632"
       transform="matrix(0,-0.26458333,0.26458333,0,15.185193,11.163602)">
      <title
         id="title628">Right Horizontal Mark, RH</title>
      <polygon
         points="4,4 0,0 12,0 8,4 8,40 4,40 "
         style="fill:black"
         id="polygon630"
         transform="translate(-12.199714,0.46428666)" />
    </g>
   
  </g>
</svg>
