<?xml version="1.0" encoding="UTF-8" standalone="no"?>
<svg
   xmlns:dc="http://purl.org/dc/elements/1.1/"
   xmlns:cc="http://creativecommons.org/ns#"
   xmlns:rdf="http://www.w3.org/1999/02/22-rdf-syntax-ns#"
   xmlns:svg="http://www.w3.org/2000/svg"
   xmlns="http://www.w3.org/2000/svg"
   width="160"
   height="80"
   viewBox="0 0 42.333332 21.166667"
   version="1.1"
   id="svg8">
  <defs
     id="defs2" />
  <metadata
     id="metadata5">
    <rdf:RDF>
      <cc:Work
         rdf:about="">
        <dc:format>image/svg+xml</dc:format>
        <dc:type
           rdf:resource="http://purl.org/dc/dcmitype/StillImage" />
        <dc:title></dc:title>
      </cc:Work>
    </rdf:RDF>
  </metadata>
  <g
     id="layer1">
    <polygon
       points="6,12 0,6 6,0 "
       style="fill:black"
       id="polygon851"
       transform="matrix(0.26458333,0,0,0.26458333,6.6263506,11.408266)">
      <title
         id="title865">Heel Mark, HE</title>
    </polygon>
    <polygon
       points="0,6 6,0 6,12 "
       style="fill:black"
       id="polygon869"
       transform="matrix(0.26458333,0,0,0.26458333,6.2654278,5.6628389)">
      <title
         id="title867">Heel Mark, HE</title>
    </polygon>
    <polygon
       points="6,12 0,6 6,0 "
       style="fill:black"
       id="polygon873"
       transform="matrix(0.26458333,0,0,0.26458333,3.6743946,11.417791)">
      <title
         id="title871">Heel Mark, HE</title>
    </polygon>
    <polygon
       points="6,0 6,12 0,6 "
       style="fill:black"
       id="polygon878"
       transform="matrix(0.26458333,0,0,0.26458333,8.0455926,5.7027911)">
      <title
         id="title876">Heel Mark, HE</title>
    </polygon>
    <polygon
       points="0,6 6,0 6,12 "
       style="fill:black"
       id="polygon886"
       transform="matrix(0.26458333,0,0,0.26458333,4.3604278,5.7157557)">
      <title
         id="title884">Heel Mark, HE</title>
    </polygon>
    <polygon
       points="6,12 0,6 6,0 "
       style="fill:black"
       id="polygon1027"
       transform="matrix(0.26458333,0,0,0.26458333,2.5348029,5.6892973)">
      <title
         id="title1025">Heel Mark, HE</title>
    </polygon>
    <g
       id="g1188"
       transform="matrix(0.13229167,-0.22913589,0.22913589,0.13229167,10.704772,7.4309604)">
      <title
         id="title1184">Right Down Diagonal Mark, RDD</title>
      <polygon
         points="8,4 8,40 4,40 4,4 0,0 12,0 "
         style="fill:black"
         id="polygon1186" />
    </g>
    <g
       id="g1338"
       transform="matrix(-0.0684792,-0.25556787,0.25556787,-0.0684792,10.407225,15.608628)">
      <title
         id="title1334">Right Up Diagonal  Mark, RUD</title>
      <polygon
         points="8,40 4,40 4,4 0,0 12,0 8,4 "
         style="fill:black"
         id="polygon1336" />
    </g>
    <g
       id="g1344"
       transform="matrix(0.26458333,0,0,0.26458333,13.54659,10.059742)">
      <title
         id="title1340">Down Vertical Mark, DV</title>
      <polygon
         points="12,0 8,4 8,25 4,25 4,4 0,0 "
         style="fill:black"
         id="polygon1342" />
    </g>
    
    <g
       id="g900"
       transform="matrix(0.26458333,0,0,0.26458333,10.53034,10.059742)">
      <title
         id="title896">Down Vertical Mark, DV</title>
      <polygon
         points="4,4 0,0 12,0 8,4 8,25 4,25 "
         style="fill:black"
         id="polygon898" />
    </g>
    
   
  </g>
</svg>
