<?xml version="1.0" encoding="UTF-8" standalone="no"?>
<svg
   xmlns:dc="http://purl.org/dc/elements/1.1/"
   xmlns:cc="http://creativecommons.org/ns#"
   xmlns:rdf="http://www.w3.org/1999/02/22-rdf-syntax-ns#"
   xmlns:svg="http://www.w3.org/2000/svg"
   xmlns="http://www.w3.org/2000/svg"
   width="160"
   height="80"
   viewBox="0 0 42.333332 21.166667"
   version="1.1"
   id="svg8">
  <defs
     id="defs2" />
  <metadata
     id="metadata5">
    <rdf:RDF>
      <cc:Work
         rdf:about="">
        <dc:format>image/svg+xml</dc:format>
        <dc:type
           rdf:resource="http://purl.org/dc/dcmitype/StillImage" />
        <dc:title></dc:title>
      </cc:Work>
    </rdf:RDF>
  </metadata>
  <g
     id="layer1">
    <polygon
       points="12,0 8,4 8,40 4,40 4,4 0,0 "
       style="fill:black"
       id="polygon855"
       transform="matrix(0,-0.26458333,0.26458333,0,14.646577,5.6034974)">
      <title
         id="title948">Right Horizontal Mark, RH</title>
    </polygon>
    <polygon
       points="8,4 8,40 4,40 4,4 0,0 12,0 "
       style="fill:black"
       id="polygon871"
       transform="matrix(0,-0.26458333,0.26458333,0,14.646577,8.5669437)">
      <title
         id="title950">Right Horizontal Mark, RH</title>
    </polygon>
    <polygon
       points="8,40 4,40 4,4 0,0 12,0 8,4 "
       style="fill:black"
       id="polygon873"
       transform="matrix(0,-0.26458333,0.26458333,0,14.646577,11.583195)">
      <title
         id="title952">Right Horizontal Mark, RH</title>
    </polygon>
    <polygon
       points="8,40 4,40 4,4 0,0 12,0 8,4 "
       style="fill:black"
       id="polygon875"
       transform="matrix(0,-0.26458333,0.26458333,0,14.646577,14.546527)">
      <title
         id="title954">Right Horizontal Mark, RH</title>
    </polygon>
    <g
       id="g895"
       transform="matrix(0,-0.26458333,0.26458333,0,10.36029,16.954236)">
      <title
         id="title891">Right Horizontal Mark, RH</title>
      <polygon
         points="4,4 0,0 12,0 8,4 8,72 4,72 "
         style="fill:black"
         id="polygon893" />
    </g>
    <polygon
       points="8,45 4,45 4,4 0,0 12,0 8,4 "
       style="fill:black"
       id="polygon910"
       transform="matrix(0.26458333,0,0,0.26458333,12.582789,3.4869437)">
      <title
         id="title958">Down Vertical Mark, DV</title>
    </polygon>
    <polygon
       points="8,4 8,45 4,45 4,4 0,0 12,0 "
       style="fill:black"
       id="polygon914"
       transform="matrix(0.26458333,0,0,0.26458333,24.171539,3.4869437)">
      <title
         id="title956">Down Vertical Mark, DV</title>
    </polygon>
    <polygon
       points="8,4 8,40 4,40 4,4 0,0 12,0 "
       style="fill:black"
       id="polygon918"
       transform="matrix(0.26458333,0,0,0.26458333,18.509456,4.5188187)">
      <title
         id="title960">Down Vertical Mark, DV</title>
    </polygon>
    <polygon
       points="0,6 6,0 6,12 "
       style="fill:black"
       id="polygon932"
       transform="matrix(0.26458333,0,0,0.26458333,17.490849,6.8224704)">
      <title
         id="title946">Heel Mark, HE</title>
    </polygon>
   
    
   
    
    
    
  
   
    
    
  
   
    
    
  
  </g>
</svg>
