<?xml version="1.0" encoding="UTF-8" standalone="no"?>
<svg
   xmlns:dc="http://purl.org/dc/elements/1.1/"
   xmlns:cc="http://creativecommons.org/ns#"
   xmlns:rdf="http://www.w3.org/1999/02/22-rdf-syntax-ns#"
   xmlns:svg="http://www.w3.org/2000/svg"
   xmlns="http://www.w3.org/2000/svg"
   width="160"
   height="80"
   viewBox="0 0 42.333332 21.166667"
   version="1.1"
   id="svg8">
  <defs
     id="defs2" />
  <metadata
     id="metadata5">
    <rdf:RDF>
      <cc:Work
         rdf:about="">
        <dc:format>image/svg+xml</dc:format>
        <dc:type
           rdf:resource="http://purl.org/dc/dcmitype/StillImage" />
        <dc:title></dc:title>
      </cc:Work>
    </rdf:RDF>
  </metadata>
  <g
     id="layer1">
    <g
       id="g857"
       transform="matrix(0.26458333,0,0,0.26458333,17.859375,0.91659263)">
      <title
         id="title853">Down Vertical Mark, DV</title>
      <polygon
         points="8,67 4,67 4,4 0,0 12,0 8,4 "
         style="fill:black"
         id="polygon855" />
    </g>
    <g
       id="g974"
       transform="matrix(0.26458333,0,0,0.26458333,30.115139,4.2730208)">
      <title
         id="title970">Down Vertical Mark, DV</title>
      <polygon
         points="12,0 8,4 8,40 4,40 4,4 0,0 "
         style="fill:black"
         id="polygon972" />
    </g>
    <g
       id="g991"
       transform="matrix(0,-0.26458333,0.26458333,0,20.603369,8.4703708)">
      <title
         id="title987">Right Horizontal Mark, RH</title>
      <polygon
         points="0,0 12,0 8,4 8,40 4,40 4,4 "
         style="fill:black"
         id="polygon989" />
    </g>
    <g
       id="g997"
       transform="matrix(0,-0.26458333,0.26458333,0,20.559977,14.338564)">
      <title
         id="title993">Right Horizontal Mark, RH</title>
      <polygon
         points="12,0 8,4 8,40 4,40 4,4 0,0 "
         style="fill:black"
         id="polygon995" />
    </g>
   
    
    <g
       id="g1057"
       transform="matrix(0,-0.26458333,0.26458333,0,8.3248499,7.047177)">
      <title
         id="title1053">Right Horizontal Mark, RH</title>
      <polygon
         points="0,0 12,0 8,4 8,40 4,40 4,4 "
         style="fill:black"
         id="polygon1055" />
    </g>
   
    <g
       id="g1063"
       transform="matrix(0,-0.26458333,0.26458333,0,8.3777666,10.116344)">
      <title
         id="title1059">Right Horizontal Mark, RH</title>
      <polygon
         points="4,4 0,0 12,0 8,4 8,40 4,40 "
         style="fill:black"
         id="polygon1061" />
    </g>
    
    <g
       id="g1069"
       transform="matrix(0,-0.26458333,0.26458333,0,8.3777666,13.02676)">
      <title
         id="title1065">Right Horizontal Mark, RH</title>
      <polygon
         points="0,0 12,0 8,4 8,40 4,40 4,4 "
         style="fill:black"
         id="polygon1067" />
    </g>
   
    <g
       id="g1075"
       transform="matrix(0,-0.26458333,0.26458333,0,8.3513083,15.990094)">
      <title
         id="title1071">Right Horizontal Mark, RH</title>
      <polygon
         points="4,4 0,0 12,0 8,4 8,40 4,40 "
         style="fill:black"
         id="polygon1073" />
    </g>
    
    <g
       id="g1095"
       transform="matrix(-0.04594441,-0.2605637,0.2605637,-0.04594441,0.82034642,6.0992702)">
      <title
         id="title1091">Right Up Diagonal Mark, RUD</title>
      <polygon
         points="0,0 12,0 8,4 8,72 4,72 4,4 "
         style="fill:black"
         id="polygon1093" />
    </g>
   
    <g
       id="g1112"
       transform="matrix(0.04594441,-0.2605637,0.2605637,0.04594441,0.23124583,16.863402)">
      <title
         id="title1108">Right Down Diagonal Mark, RDD</title>
      <polygon
         points="0,0 12,0 8,4 8,72 4,72 4,4 "
         style="fill:black"
         id="polygon1110" />
    </g>
    
  </g>
</svg>
