<?xml version="1.0" encoding="UTF-8" standalone="no"?>
<svg
   xmlns:dc="http://purl.org/dc/elements/1.1/"
   xmlns:cc="http://creativecommons.org/ns#"
   xmlns:rdf="http://www.w3.org/1999/02/22-rdf-syntax-ns#"
   xmlns:svg="http://www.w3.org/2000/svg"
   xmlns="http://www.w3.org/2000/svg"
   width="160"
   height="80"
   viewBox="0 0 42.333332 21.166667"
   version="1.1"
   id="svg8">
  <defs
     id="defs2" />
  <metadata
     id="metadata5">
    <rdf:RDF>
      <cc:Work
         rdf:about="">
        <dc:format>image/svg+xml</dc:format>
        <dc:type
           rdf:resource="http://purl.org/dc/dcmitype/StillImage" />
        <dc:title></dc:title>
      </cc:Work>
    </rdf:RDF>
  </metadata>
  <g
     id="layer1">
    <polygon
       points="12,40 0,40 4,35 4,4 0,0 12,0 8,4 8,35 "
       style="fill:black"
       id="polygon851"
       transform="matrix(0,-0.26458333,0.26458333,0,6.8980656,7.9658487)">
      <title
         id="title865">Right Horizontal Barbell Mark, RHBB</title>
    </polygon>
    <polygon
       points="0,40 4,35 4,4 0,0 12,0 8,4 8,35 12,40 "
       style="fill:black"
       id="polygon869"
       transform="matrix(0,-0.26458333,0.26458333,0,6.8980656,14.02477)">
      <title
         id="title867">Right Horizontal Barbell Mark, RHBB</title>
    </polygon>
    <g
       id="g889"
       transform="matrix(0.26458333,0,0,0.26458333,29.453681,4.6302083)">
      <title
         id="title885">Down Vertical Mark, DV</title>
      <polygon
         points="12,0 8,4 8,40 4,40 4,4 0,0 "
         style="fill:black"
         id="polygon887" />
    </g>
    <g
       id="g920"
       transform="matrix(0.26458333,0,0,0.26458333,11.951494,6.9075154)">
      <title
         id="title916">Down Vertical Mark, DV</title>
      <polygon
         points="12,0 8,4 8,25 4,25 4,4 0,0 "
         style="fill:black"
         id="polygon918" />
    </g>
    <g
       id="g937"
       transform="matrix(0.26458333,0,0,0.26458333,8.5912851,6.9075154)">
      <title
         id="title933">Down Vertical Mark, DV</title>
      <polygon
         points="12,0 8,4 8,25 4,25 4,4 0,0 "
         style="fill:black"
         id="polygon935" />
    </g>
    <g
       id="g943"
       transform="matrix(0,-0.26458333,0.26458333,0,23.920185,14.166585)">
      <title
         id="title939">Right Horizontal Mark, RH</title>
      <polygon
         points="8,25 4,25 4,4 0,0 12,0 8,4 "
         style="fill:black"
         id="polygon941" />
    </g>
    <g
       id="g949"
       transform="matrix(0,-0.26458333,0.26458333,0,23.946644,11.07096)">
      <title
         id="title945">Right Horizontal Mark, RH</title>
      <polygon
         points="12,0 8,4 8,25 4,25 4,4 0,0 "
         style="fill:black"
         id="polygon947" />
    </g>
    <g
       id="g955"
       transform="matrix(0,-0.26458333,0.26458333,0,23.946644,7.9224187)">
      <title
         id="title951">Right Horizontal Mark, RH</title>
      <polygon
         points="8,4 8,25 4,25 4,4 0,0 12,0 "
         style="fill:black"
         id="polygon953" />
    </g>
    <g
       id="g961"
       transform="matrix(0,-0.26458333,0.26458333,0,19.928681,16.271875)">
      <title
         id="title957">Right Horizontal Mark, RH</title>
      <polygon
         points="4,4 0,0 12,0 8,4 8,40 4,40 "
         style="fill:black"
         id="polygon959" />
    </g>
    <polygon
       points="6,12 0,6 6,0 "
       style="fill:black"
       id="polygon975"
       transform="matrix(0.26458333,0,0,0.26458333,18.07671,10.980208)">
      <title
         id="title989">Heel Mark, HE</title>
    </polygon>
    <polygon
       points="6,12 0,6 6,0 "
       style="fill:black"
       id="polygon993"
       transform="matrix(0.26458333,0,0,0.26458333,18.2468,4.8853419)">
      <title
         id="title991">Heel Mark, HE</title>
    </polygon>
   
   
    
    
    
    
    
    
  </g>
</svg>
