<?xml version="1.0" encoding="UTF-8" standalone="no"?>
<svg
   xmlns:dc="http://purl.org/dc/elements/1.1/"
   xmlns:cc="http://creativecommons.org/ns#"
   xmlns:rdf="http://www.w3.org/1999/02/22-rdf-syntax-ns#"
   xmlns:svg="http://www.w3.org/2000/svg"
   xmlns="http://www.w3.org/2000/svg"
   width="160"
   height="80"
   viewBox="0 0 42.333332 21.166667"
   version="1.1"
   id="svg8">
  <defs
     id="defs2" />
  <metadata
     id="metadata5">
    <rdf:RDF>
      <cc:Work
         rdf:about="">
        <dc:format>image/svg+xml</dc:format>
        <dc:type
           rdf:resource="http://purl.org/dc/dcmitype/StillImage" />
        <dc:title></dc:title>
      </cc:Work>
    </rdf:RDF>
  </metadata>
  <g
     id="layer1">
    <polygon
       points="0,0 12,0 8,4 8,45 4,45 4,4 "
       style="fill:black"
       id="polygon493"
       transform="matrix(0.26458333,0,0,0.26458333,13.713089,4.7426938)">
      <title
         id="title956">Down Vertical Mark, DV</title>
    </polygon>
    <polygon
       points="4,4 0,0 12,0 8,4 8,45 4,45 "
       style="fill:black"
       id="polygon948"
       transform="matrix(0.26458333,0,0,0.26458333,23.264434,4.7162355)">
      <title
         id="title958">Down Vertical Mark, DV</title>
    </polygon>
    <polygon
       points="4,40 4,4 0,0 12,0 8,4 8,40 "
       style="fill:black"
       id="polygon522"
       transform="matrix(0,-0.26458333,0.26458333,0,14.744964,17.750668)">
      <title
         id="title962">Right Horizontal Mark, RH</title>
    </polygon>
    <g
       id="g1034"
       transform="matrix(0,-0.26458333,0.26458333,0,17.812128,12.596057)">
      <title
         id="title1030">Right Horizontal Mark, RH</title>
      <polygon
         points="12,0 8,4 8,25 4,25 4,4 0,0 "
         style="fill:black"
         id="polygon1032" />
    </g>
   
    <polygon
       points="8,4 8,40 4,40 4,4 0,0 12,0 "
       style="fill:black"
       id="polygon1049"
       transform="matrix(0,-0.26458333,0.26458333,0,14.771423,7.2731312)">
      <title
         id="title1047">Right Horizontal Mark, RH</title>
    </polygon>
    
    
    
    
  </g>
</svg>
