<?xml version="1.0" encoding="UTF-8" standalone="no"?>
<svg
   xmlns:dc="http://purl.org/dc/elements/1.1/"
   xmlns:cc="http://creativecommons.org/ns#"
   xmlns:rdf="http://www.w3.org/1999/02/22-rdf-syntax-ns#"
   xmlns:svg="http://www.w3.org/2000/svg"
   xmlns="http://www.w3.org/2000/svg"
   width="160"
   height="80"
   viewBox="0 0 42.333332 21.166667"
   version="1.1"
   id="svg8">
  <defs
     id="defs2" />
  <metadata
     id="metadata5">
    <rdf:RDF>
      <cc:Work
         rdf:about="">
        <dc:format>image/svg+xml</dc:format>
        <dc:type
           rdf:resource="http://purl.org/dc/dcmitype/StillImage" />
        <dc:title></dc:title>
      </cc:Work>
    </rdf:RDF>
  </metadata>
  <g
     id="layer1">
    <g
       id="g857"
       transform="matrix(0,-0.26458333,0.26458333,0,2.031622,6.5011903)">
      <title
         id="title853">Right Horizontal Mark, RH</title>
      <polygon
         points="0,0 12,0 8,4 8,40 4,40 4,4 "
         style="fill:black"
         id="polygon855" />
    </g>
    <g
       id="g888"
       transform="matrix(0,-0.26458333,0.26458333,0,6.0476188,8.7690482)">
      <title
         id="title884">Right Horizontal Mark, RH</title>
      <polygon
         points="4,25 4,4 0,0 12,0 8,4 8,25 "
         style="fill:black"
         id="polygon886" />
    </g>
    <g
       id="g905"
       transform="matrix(0,-0.26458333,0.26458333,0,6.0476188,11.785335)">
      <title
         id="title901">Right Horizontal Mark, RH</title>
      <polygon
         points="0,0 12,0 8,4 8,25 4,25 4,4 "
         style="fill:black"
         id="polygon903" />
    </g>
    <g
       id="g911"
       transform="matrix(0,-0.26458333,0.26458333,0,6.0740395,14.589919)">
      <title
         id="title907">Right Horizontal Mark, RH</title>
      <polygon
         points="4,4 0,0 12,0 8,4 8,25 4,25 "
         style="fill:black"
         id="polygon909" />
    </g>
    <g
       id="g917"
       transform="matrix(0.04594441,-0.26056371,0.26056371,0.04594441,2.0745979,16.273645)">
      <title
         id="title913">Right Down Diagonal Mark, RDD</title>
      <polygon
         points="8,40 4,40 4,4 0,0 12,0 8,4 "
         style="fill:black"
         id="polygon915" />
    </g>
    <g
       id="g937"
       transform="matrix(0.26458333,0,0,0.26458333,12.614955,4.3845237)">
      <title
         id="title933">Down Vertical Mark, DV</title>
      <polygon
         points="0,0 12,0 8,4 8,48 4,48 4,4 "
         style="fill:black"
         id="polygon935"
         transform="translate(-3.6995705)" />
    </g>
    <g
       id="g954"
       transform="matrix(0.26458333,0,0,0.26458333,21.504955,4.3845237)">
      <title
         id="title950">Down Vertical Mark, DV</title>
      <polygon
         points="8,48 4,48 4,4 0,0 12,0 8,4 "
         style="fill:black"
         id="polygon952"
         transform="translate(-3.6995705)" />
    </g>
    <polygon
       points="12,0 8,4 8,30 4,30 4,4 0,0 "
       style="fill:black"
       id="polygon958"
       transform="matrix(0,-0.26458333,0.26458333,0,13.773414,8.7690482)">
      <title
         id="title1044">Right Horizontal Mark, RH</title>
    </polygon>
    <polygon
       points="0,0 12,0 8,4 8,30 4,30 4,4 "
       style="fill:black"
       id="polygon962"
       transform="matrix(0,-0.26458333,0.26458333,0,13.773414,14.431169)">
      <title
         id="title1046">Right Horizontal Mark, RH</title>
    </polygon>
    <polygon
       points="6,12 0,6 6,0 "
       style="fill:black"
       id="polygon978"
       transform="matrix(0.26458333,0,0,0.26458333,16.182975,10.469827)">
      <title
         id="title1058">Heel Mark, HE</title>
    </polygon>
    <polygon
       points="6,12 0,6 6,0 "
       style="fill:black"
       id="polygon992"
       transform="matrix(0.26458333,0,0,0.26458333,14.797767,6.7656604)">
      <title
         id="title1056">Heel Mark, HE</title>
    </polygon>
    <polygon
       points="0,6 6,0 6,12 "
       style="fill:black"
       id="polygon994"
       transform="matrix(0.26458333,0,0,0.26458333,16.835171,6.8714938)">
      <title
         id="title1054">Heel Mark, HE</title>
    </polygon>
    <polygon
       points="0,6 6,0 6,12 "
       style="fill:black"
       id="polygon996"
       transform="matrix(0.26458333,0,0,0.26458333,18.846006,6.8450354)">
      <title
         id="title1052">Heel Mark, HE</title>
    </polygon>
    <g
       id="g1002"
       transform="matrix(0.26458333,0,0,0.26458333,39.65537,4.3845237)">
      <title
         id="title998">Down Vertical Mark, DV</title>
      <polygon
         points="4,48 4,4 0,0 12,0 8,4 8,48 "
         style="fill:black"
         id="polygon1000"
         transform="translate(-3.6995705)" />
    </g>
    <g
       id="g1008"
       transform="matrix(0.26458333,0,0,0.26458333,35.21037,4.3845237)">
      <title
         id="title1004">Down Vertical Mark, DV</title>
      <polygon
         points="4,48 4,4 0,0 12,0 8,4 8,48 "
         style="fill:black"
         id="polygon1006"
         transform="translate(-3.6995705)" />
    </g>
    <polygon
       points="0,6 6,0 6,12 "
       style="fill:black"
       id="polygon1010"
       transform="matrix(0.26458333,0,0,0.26458333,37.255147,6.0758538)">
      <title
         id="title1050">Heel Mark, HE</title>
    </polygon>
    <polygon
       points="6,0 6,12 0,6 "
       style="fill:black"
       id="polygon1012"
       transform="matrix(0.26458333,0,0,0.26458333,37.255147,11.102973)">
      <title
         id="title1048">Heel Mark, HE</title>
    </polygon>
    <g
       id="g1018"
       transform="matrix(0.26458333,0,0,0.26458333,1.0527771,4.9664935)">
      <title
         id="title1014">Down Vertical Mark, DV</title>
      <polygon
         points="4,40 4,4 0,0 12,0 8,4 8,40 "
         style="fill:black"
         id="polygon1016" />
    </g>
    <g
       id="g1024"
       transform="matrix(0,-0.26458333,0.26458333,0,24.75744,6.6958104)">
      <title
         id="title1020">Right Horizontal Mark, RH</title>
      <polygon
         points="0,0 12,0 8,4 8,40 4,40 4,4 "
         style="fill:black"
         id="polygon1022" />
    </g>
    <g
       id="g1030"
       transform="matrix(0,-0.26458333,0.26458333,0,24.75744,18.072894)">
      <title
         id="title1026">Right Horizontal Mark, RH</title>
      <polygon
         points="8,4 8,40 4,40 4,4 0,0 12,0 "
         style="fill:black"
         id="polygon1028" />
    </g>
    <g
       id="g1036"
       transform="matrix(0,-0.26458333,0.26458333,0,24.75744,10.426435)">
      <title
         id="title1032">Right Horizontal Mark, RH</title>
      <polygon
         points="8,40 4,40 4,4 0,0 12,0 8,4 "
         style="fill:black"
         id="polygon1034" />
    </g>
    <g
       id="g1042"
       transform="matrix(0,-0.26458333,0.26458333,0,24.75744,14.31581)">
      <title
         id="title1038">Right Horizontal Mark, RH</title>
      <polygon
         points="8,4 8,40 4,40 4,4 0,0 12,0 "
         style="fill:black"
         id="polygon1040" />
    </g>
    
    
    
    
   
   
   
   
    
    
   
    
  
    
    
  </g>
</svg>
