<?xml version="1.0" encoding="UTF-8" standalone="no"?>
<svg
   xmlns:dc="http://purl.org/dc/elements/1.1/"
   xmlns:cc="http://creativecommons.org/ns#"
   xmlns:rdf="http://www.w3.org/1999/02/22-rdf-syntax-ns#"
   xmlns:svg="http://www.w3.org/2000/svg"
   xmlns="http://www.w3.org/2000/svg"
   width="160"
   height="80"
   viewBox="0 0 42.333332 21.166667"
   version="1.1"
   id="svg8">
  <defs
     id="defs2" />
  <metadata
     id="metadata5">
    <rdf:RDF>
      <cc:Work
         rdf:about="">
        <dc:format>image/svg+xml</dc:format>
        <dc:type
           rdf:resource="http://purl.org/dc/dcmitype/StillImage" />
        <dc:title></dc:title>
      </cc:Work>
    </rdf:RDF>
  </metadata>
  <g
     id="layer1">
    <polygon
       points="8,22 8,50 4,50 4,22 0,18 4,18 4,4 0,0 12,0 8,4 8,18 12,18 "
       style="fill:black"
       id="polygon851"
       transform="matrix(0.26458333,0,0,0.26458333,37.242901,3.874256)">
      <title
         id="title865">Down Vertical Head-to-Tail Mark, DVHT</title>
    </polygon>
    <polygon
       points="12,18 8,22 8,50 4,50 4,22 0,18 4,18 4,4 0,0 12,0 8,4 8,18 "
       style="fill:black"
       id="polygon881"
       transform="matrix(0.1984375,0,0,0.23151041,29.861025,4.7869549)">
      <title
         id="title879">Down Vertical Head-to-Tail Mark, DVHT</title>
    </polygon>
    <g
       id="g901"
       transform="matrix(0,-0.26458333,0.26458333,0,27.717901,16.904985)">
      <title
         id="title897">Right Horizontal Mark, RH</title>
      <polygon
         points="0,0 12,0 8,4 8,40 4,40 4,4 "
         style="fill:black"
         id="polygon899" />
    </g>
    <g
       id="g918"
       transform="matrix(0,-0.26458333,0.26458333,0,27.691443,7.7107139)">
      <title
         id="title914">Right Horizontal Mark, RH</title>
      <polygon
         points="4,40 4,4 0,0 12,0 8,4 8,40 "
         style="fill:black"
         id="polygon916" />
    </g>
    <g
       id="g924"
       transform="matrix(0,-0.26458333,0.26458333,0,13.868816,7.5331787)">
      <title
         id="title920">Right Horizontal Mark, RH</title>
      <polygon
         points="8,4 8,40 4,40 4,4 0,0 12,0 "
         style="fill:black"
         id="polygon922" />
    </g>
    <g
       id="g930"
       transform="matrix(0,-0.26458333,0.26458333,0,13.868816,10.708179)">
      <title
         id="title926">Right Horizontal Mark, RH</title>
      <polygon
         points="12,0 8,4 8,30 4,30 4,4 0,0 "
         style="fill:black"
         id="polygon928" />
    </g>
    <g
       id="g936"
       transform="matrix(0,-0.26458333,0.26458333,0,13.868816,16.820053)">
      <title
         id="title932">Right Horizontal Mark, RH</title>
      <polygon
         points="8,40 4,40 4,4 0,0 12,0 8,4 "
         style="fill:black"
         id="polygon934" />
    </g>
    <g
       id="g942"
       transform="matrix(0,-0.26458333,0.26458333,0,13.868816,13.883179)">
      <title
         id="title938">Right Horizontal Mark, RH</title>
      <polygon
         points="4,30 4,4 0,0 12,0 8,4 8,30 "
         style="fill:black"
         id="polygon940" />
    </g>
    <polygon
       points="0,0 12,0 8,4 8,18 12,18 8,22 8,50 4,50 4,22 0,18 4,18 4,4 "
       style="fill:black"
       id="polygon946"
       transform="matrix(0.1984375,0,0,0.23151041,32.162901,4.7869549)">
      <title
         id="title944">Down Vertical Head-to-Tail Mark, DVHT</title>
    </polygon>
    <polygon
       points="12,18 8,22 8,50 4,50 4,22 0,18 4,18 4,4 0,0 12,0 8,4 8,18 "
       style="fill:black"
       id="polygon950"
       transform="matrix(0.1984375,0,0,0.23151041,34.491233,4.7869549)">
      <title
         id="title948">Down Vertical Head-to-Tail Mark, DVHT</title>
    </polygon>
    <polygon
       points="0,6 6,0 6,12 "
       style="fill:black"
       id="polygon964"
       transform="matrix(0.26458333,0,0,0.26458333,24.745081,11.959054)">
      <title
         id="title978">Heel Mark, HE</title>
    </polygon>
    <polygon
       points="6,12 0,6 6,0 "
       style="fill:black"
       id="polygon982"
       transform="matrix(0.26458333,0,0,0.26458333,24.688384,5.9740269)">
      <title
         id="title980">Heel Mark, HE</title>
    </polygon>
    <polygon
       points="6,0 6,12 0,6 "
       style="fill:black"
       id="polygon986"
       transform="matrix(0.26458333,0,0,0.26458333,22.477224,9.0769846)">
      <title
         id="title984">Heel Mark, HE</title>
    </polygon>
    <g
       id="g992"
       transform="matrix(0,-0.26458333,0.26458333,0,3.3799387,8.9505896)">
      <title
         id="title988">Right Horizontal Mark, RH</title>
      <polygon
         points="12,0 8,4 8,40 4,40 4,4 0,0 "
         style="fill:black"
         id="polygon990" />
    </g>
    <g
       id="g998"
       transform="matrix(0,-0.26458333,0.26458333,0,3.332843,15.13995)">
      <title
         id="title994">Right Horizontal Mark, RH</title>
      <polygon
         points="8,40 4,40 4,4 0,0 12,0 8,4 "
         style="fill:black"
         id="polygon996" />
    </g>
    <g
       id="g1004"
       transform="matrix(0.26458333,0,0,0.26458333,5.7045305,8.9958333)">
      <title
         id="title1000">Down Vertical Mark, DV</title>
      <polygon
         points="0,0 12,0 8,4 8,25 4,25 4,4 "
         style="fill:black"
         id="polygon1002" />
    </g>
    <g
       id="g1016"
       transform="matrix(0.26458333,0,0,0.26458333,8.5885263,8.9958333)">
      <title
         id="title1012">Down Vertical Mark, DV</title>
      <polygon
         points="0,0 12,0 8,4 8,25 4,25 4,4 "
         style="fill:black"
         id="polygon1014" />
    </g>
    
    
    
   
    
   
    
   
    
   
   
    
  </g>
</svg>
