<?xml version="1.0" encoding="UTF-8" standalone="no"?>
<svg
   xmlns:dc="http://purl.org/dc/elements/1.1/"
   xmlns:cc="http://creativecommons.org/ns#"
   xmlns:rdf="http://www.w3.org/1999/02/22-rdf-syntax-ns#"
   xmlns:svg="http://www.w3.org/2000/svg"
   xmlns="http://www.w3.org/2000/svg"
   width="160"
   height="80"
   viewBox="0 0 42.333332 21.166667"
   version="1.1"
   id="svg8">
  <defs
     id="defs2" />
  <metadata
     id="metadata5">
    <rdf:RDF>
      <cc:Work
         rdf:about="">
        <dc:format>image/svg+xml</dc:format>
        <dc:type
           rdf:resource="http://purl.org/dc/dcmitype/StillImage" />
        <dc:title></dc:title>
      </cc:Work>
    </rdf:RDF>
  </metadata>
  <g
     id="layer1">
    <g
       id="g894"
       transform="matrix(0.26458333,0,0,0.26458333,26.043248,5.2708208)">
      <title
         id="title890">Down Vertical Mark, DV</title>
      <polygon
         points="8,40 4,40 4,4 0,0 12,0 8,4 "
         style="fill:black"
         id="polygon892" />
    </g>
    <g
       id="g982"
       transform="matrix(-0.02305995,-0.26357651,0.26357651,-0.02305995,12.541359,8.5670876)">
      <title
         id="title978">Right Up Diagonal Mark, RUD</title>
      <polygon
         points="8,4 8,40 4,40 4,4 0,0 12,0 "
         style="fill:black"
         id="polygon980" />
    </g>
    <g
       id="g989"
       transform="matrix(0.02305996,-0.26357651,0.26357651,0.02305996,12.422063,15.859421)">
      <title
         id="title985">Right Down Diagonal Mark, RDD</title>
      <polygon
         points="8,4 8,40 4,40 4,4 0,0 12,0 "
         style="fill:black"
         id="polygon987" />
    </g>
    <g
       id="g1445"
       transform="matrix(0.26458333,0,0,0.26458333,21.592577,5.0176145)">
      <title
         id="title1441">Down Vertical Mark, DV</title>
      <polygon
         points="12,0 8,4 8,40 4,40 4,4 0,0 "
         style="fill:black"
         id="polygon1443" />
    </g>
   
    
  </g>
</svg>
