<?xml version="1.0" encoding="UTF-8" standalone="no"?>
<svg
   xmlns:dc="http://purl.org/dc/elements/1.1/"
   xmlns:cc="http://creativecommons.org/ns#"
   xmlns:rdf="http://www.w3.org/1999/02/22-rdf-syntax-ns#"
   xmlns:svg="http://www.w3.org/2000/svg"
   xmlns="http://www.w3.org/2000/svg"
   width="160"
   height="80"
   viewBox="0 0 42.333332 21.166667"
   version="1.1"
   id="svg8">
  <defs
     id="defs2" />
  <metadata
     id="metadata5">
    <rdf:RDF>
      <cc:Work
         rdf:about="">
        <dc:format>image/svg+xml</dc:format>
        <dc:type
           rdf:resource="http://purl.org/dc/dcmitype/StillImage" />
        <dc:title></dc:title>
      </cc:Work>
    </rdf:RDF>
  </metadata>
  <g
     id="layer1">
    <g
       id="g857"
       transform="matrix(0,-0.26458333,0.26458333,0,18.520832,7.4461311)">
      <title
         id="title853">Right Horizontal Mark, RH</title>
      <polygon
         points="12,0 8,4 8,25 4,25 4,4 0,0 "
         style="fill:black"
         id="polygon855" />
    </g>
    <g
       id="g874"
       transform="matrix(0,-0.26458333,0.26458333,0,18.520832,10.171377)">
      <title
         id="title870">Right Horizontal Mark, RH</title>
      <polygon
         points="4,4 0,0 12,0 8,4 8,25 4,25 "
         style="fill:black"
         id="polygon872" />
    </g>
    <g
       id="g880"
       transform="matrix(0,-0.26458333,0.26458333,0,18.520832,13.161169)">
      <title
         id="title876">Right Horizontal Mark, RH</title>
      <polygon
         points="12,0 8,4 8,25 4,25 4,4 0,0 "
         style="fill:black"
         id="polygon878" />
    </g>
    <g
       id="g886"
       transform="matrix(0,-0.26458333,0.26458333,0,18.520832,16.045127)">
      <title
         id="title882">Right Horizontal Mark, RH</title>
      <polygon
         points="0,0 12,0 8,4 8,25 4,25 4,4 "
         style="fill:black"
         id="polygon884" />
    </g>
    <polygon
       points="8,4 8,50 4,50 4,4 0,0 12,0 "
       style="fill:black"
       id="polygon904"
       transform="matrix(0.26458333,0,0,0.26458333,23.925892,3.5226625)">
      <title
         id="title954">Down Vertical Mark, DV</title>
    </polygon>
    <polygon
       points="12,0 8,4 8,50 4,50 4,4 0,0 "
       style="fill:black"
       id="polygon919"
       transform="matrix(0.26458333,0,0,0.26458333,16.411839,3.5226625)">
      <title
         id="title956">Down Vertical Mark, DV</title>
    </polygon>
    <g
       id="g939"
       transform="matrix(0.18708867,-0.18708867,0.18708867,0.18708867,12.900575,14.106205)">
      <title
         id="title935">Right Down Diagonal Mark, RDD</title>
      <polygon
         points="4,30 4,4 0,0 12,0 8,4 8,30 "
         style="fill:black"
         id="polygon937"
         transform="translate(-0.07111338,10.819024)" />
    </g>
    
    
    
    
    
  
   
   
    
  </g>
</svg>
