<?xml version="1.0" encoding="UTF-8" standalone="no"?>
<svg
   xmlns:dc="http://purl.org/dc/elements/1.1/"
   xmlns:cc="http://creativecommons.org/ns#"
   xmlns:rdf="http://www.w3.org/1999/02/22-rdf-syntax-ns#"
   xmlns:svg="http://www.w3.org/2000/svg"
   xmlns="http://www.w3.org/2000/svg"
   width="160"
   height="80"
   viewBox="0 0 42.333332 21.166667"
   version="1.1"
   id="svg8">
  <defs
     id="defs2" />
  <metadata
     id="metadata5">
    <rdf:RDF>
      <cc:Work
         rdf:about="">
        <dc:format>image/svg+xml</dc:format>
        <dc:type
           rdf:resource="http://purl.org/dc/dcmitype/StillImage" />
        <dc:title></dc:title>
      </cc:Work>
    </rdf:RDF>
  </metadata>
  <g
     id="layer1">
    <polygon
       points="0,6 6,0 6,12 "
       style="fill:#000000"
       id="polygon1274"
       transform="matrix(0.26458333,0,0,0.26458333,18.13577,3.2315814)">
      <title
         id="title1353">Heel Mark, HE</title>
    </polygon>
    <g
       id="g1298"
       transform="matrix(0.26458333,0,0,0.26458333,28.403892,5.8209083)">
      <title
         id="title1294">Down Vertical Mark, DV</title>
      <polygon
         points="12,0 8,4 8,35 4,35 4,4 0,0 "
         style="fill:#000000"
         id="polygon1296"
         transform="translate(-11.800293,0.39971649)" />
    </g>
    <polygon
       points="12,0 8,4 8,35 12,40 0,40 4,35 4,4 0,0 "
       style="fill:#000000"
       id="polygon1514"
       transform="matrix(0,-0.26458333,0.26458333,0,8.3414614,12.346591)">
      <title
         id="title1528">Right Horizontal Barbell Mark, RHBB</title>
    </polygon>
    <g
       id="g971"
       transform="matrix(0,-0.26458333,0.26458333,0,19.72327,15.190748)">
      <title
         id="title967">Right Horizontal Mark, RH</title>
      <polygon
         points="4,4 0,0 12,0 8,4 8,25 4,25 "
         style="fill:#000000"
         id="polygon969" />
    </g>
    <g
       id="g988"
       transform="matrix(0,-0.26458333,0.26458333,0,19.72327,13.285748)">
      <title
         id="title984">Right Horizontal Mark, RH</title>
      <polygon
         points="4,25 4,4 0,0 12,0 8,4 8,25 "
         style="fill:#000000"
         id="polygon986" />
    </g>
    <g
       id="g994"
       transform="matrix(0,-0.26458333,0.26458333,0,19.72327,11.539497)">
      <title
         id="title990">Right Horizontal Mark, RH</title>
      <polygon
         points="4,25 4,4 0,0 12,0 8,4 8,25 "
         style="fill:#000000"
         id="polygon992" />
    </g>
    <g
       id="g1000"
       transform="matrix(0,-0.26458333,0.26458333,0,19.72327,9.5815813)">
      <title
         id="title996">Right Horizontal Mark, RH</title>
      <polygon
         points="8,4 8,25 4,25 4,4 0,0 12,0 "
         style="fill:#000000"
         id="polygon998" />
    </g>
    <circle
       style="fill:#000000;fill-rule:evenodd;stroke-width:0.264583"
       id="circle1022"
       cx="26.800968"
       cy="7.8675723"
       r="0.79374999">
      <title
         id="title1020">Right 2 Touch Connector, R2T</title>
    </circle>
    <circle
       style="fill:#000000;fill-rule:evenodd;stroke-width:0.264583"
       id="circle1026"
       cx="26.884054"
       cy="9.9464407"
       r="0.79374999">
      <title
         id="title1024">Right 2 Touch Connector, R2T</title>
    </circle>
    <circle
       style="fill:#000000;fill-rule:evenodd;stroke-width:0.264583"
       id="circle1030"
       cx="26.867115"
       cy="11.647332"
       r="0.79374999">
      <title
         id="title1028">Right 2 Touch Connector, R2T</title>
    </circle>
    <circle
       style="fill:#000000;fill-rule:evenodd;stroke-width:0.264583"
       id="circle1034"
       cx="26.897276"
       cy="13.584461"
       r="0.79374999">
      <title
         id="title1032">Right 2 Touch Connector, R2T</title>
    </circle>
  </g>
</svg>
