<?xml version="1.0" encoding="UTF-8" standalone="no"?>
<svg
   xmlns:dc="http://purl.org/dc/elements/1.1/"
   xmlns:cc="http://creativecommons.org/ns#"
   xmlns:rdf="http://www.w3.org/1999/02/22-rdf-syntax-ns#"
   xmlns:svg="http://www.w3.org/2000/svg"
   xmlns="http://www.w3.org/2000/svg"
   width="160"
   height="80"
   viewBox="0 0 42.333332 21.166667"
   version="1.1"
   id="svg8">
  <defs
     id="defs2" />
  <metadata
     id="metadata5">
    <rdf:RDF>
      <cc:Work
         rdf:about="">
        <dc:format>image/svg+xml</dc:format>
        <dc:type
           rdf:resource="http://purl.org/dc/dcmitype/StillImage" />
        <dc:title></dc:title>
      </cc:Work>
    </rdf:RDF>
  </metadata>
  <g
     id="layer1">
    <g
       id="g857"
       transform="matrix(0,-0.26458333,0.26458333,0,6.5579626,17.179018)">
      <title
         id="title853">Right Horizontal Mark, RH</title>
      <polygon
         points="8,72 4,72 4,4 0,0 12,0 8,4 "
         style="fill:black"
         id="polygon855" />
    </g>
    <g
       id="g888"
       transform="matrix(0,-0.26458333,0.26458333,0,11.764509,6.1023501)">
      <title
         id="title884">Right Horizontal Mark, RH</title>
      <polygon
         points="8,4 8,40 4,40 4,4 0,0 12,0 "
         style="fill:black"
         id="polygon886" />
    </g>
    <g
       id="g911"
       transform="matrix(0,-0.26458333,0.26458333,0,11.764509,9.0656832)">
      <title
         id="title907">Right Horizontal Mark, RH</title>
      <polygon
         points="0,0 12,0 8,4 8,40 4,40 4,4 "
         style="fill:black"
         id="polygon909" />
    </g>
    <g
       id="g917"
       transform="matrix(0,-0.26458333,0.26458333,0,11.764509,12.029017)">
      <title
         id="title913">Right Horizontal Mark, RH</title>
      <polygon
         points="8,4 8,40 4,40 4,4 0,0 12,0 "
         style="fill:black"
         id="polygon915" />
    </g>
    <g
       id="g923"
       transform="matrix(0,-0.26458333,0.26458333,0,11.764509,15.018808)">
      <title
         id="title919">Right Horizontal Mark, RH</title>
      <polygon
         points="0,0 12,0 8,4 8,40 4,40 4,4 "
         style="fill:black"
         id="polygon921" />
    </g>
    <g
       id="g943"
       transform="matrix(0.26458333,0,0,0.26458333,21.289509,2.3717251)">
      <title
         id="title939">Down Vertical Mark, DV</title>
      <polygon
         points="8,4 8,50 4,50 4,4 0,0 12,0 "
         style="fill:black"
         id="polygon941"
         transform="translate(0,-1.1000005)" />
    </g>
    <g
       id="g960"
       transform="matrix(0.26458333,0,0,0.26458333,9.6477666,2.3981834)">
      <title
         id="title956">Down Vertical Mark, DV</title>
      <polygon
         points="8,50 4,50 4,4 0,0 12,0 8,4 "
         style="fill:black"
         id="polygon958"
         transform="translate(0,-1.1000005)" />
    </g>
    <g
       id="g966"
       transform="matrix(0.26458333,0,0,0.26458333,15.839017,3.0596417)">
      <title
         id="title962">Down Vertical Mark, DV</title>
      <polygon
         points="4,50 4,4 0,0 12,0 8,4 8,50 "
         style="fill:black"
         id="polygon964"
         transform="translate(0,-1.1000005)" />
    </g>
    <polygon
       points="0,6 6,0 6,12 "
       style="fill:black"
       id="polygon980"
       transform="matrix(0.26458333,0,0,0.26458333,25.607962,13.474851)">
      <title
         id="title998">Heel Mark, HE</title>
    </polygon>
    <polygon
       points="6,0 6,12 0,6 "
       style="fill:black"
       id="polygon994"
       transform="matrix(0.26458333,0,0,0.26458333,27.195462,11.887351)">
      <title
         id="title996">Heel Mark, HE</title>
    </polygon>
    
   
   
    
   
    
    
   
    
    
    
    
    
    
    
  </g>
</svg>
