<?xml version="1.0" encoding="UTF-8" standalone="no"?>
<svg
   xmlns:dc="http://purl.org/dc/elements/1.1/"
   xmlns:cc="http://creativecommons.org/ns#"
   xmlns:rdf="http://www.w3.org/1999/02/22-rdf-syntax-ns#"
   xmlns:svg="http://www.w3.org/2000/svg"
   xmlns="http://www.w3.org/2000/svg"
   xmlns:sodipodi="http://sodipodi.sourceforge.net/DTD/sodipodi-0.dtd"
   xmlns:inkscape="http://www.inkscape.org/namespaces/inkscape"
   width="160"
   height="80"
   viewBox="0 0 42.333332 21.166667"
   version="1.1"
   id="svg8"
   inkscape:version="1.0.2-2 (e86c870879, 2021-01-15)"
   sodipodi:docname="blkm25x.svg.svg">
  <defs
     id="defs2" />
  <sodipodi:namedview
     id="base"
     pagecolor="#ffffff"
     bordercolor="#666666"
     borderopacity="1.0"
     inkscape:pageopacity="0.0"
     inkscape:pageshadow="2"
     inkscape:zoom="5.6"
     inkscape:cx="90.415249"
     inkscape:cy="48.120787"
     inkscape:document-units="px"
     inkscape:current-layer="layer1"
     inkscape:document-rotation="0"
     showgrid="false"
     units="px"
     inkscape:window-width="1755"
     inkscape:window-height="1020"
     inkscape:window-x="38"
     inkscape:window-y="0"
     inkscape:window-maximized="0" />
  <metadata
     id="metadata5">
    <rdf:RDF>
      <cc:Work
         rdf:about="">
        <dc:format>image/svg+xml</dc:format>
        <dc:type
           rdf:resource="http://purl.org/dc/dcmitype/StillImage" />
        <dc:title></dc:title>
      </cc:Work>
    </rdf:RDF>
  </metadata>
  <g
     inkscape:label="Layer 1"
     inkscape:groupmode="layer"
     id="layer1">
    <g
       id="g935"
       transform="matrix(0,-0.26458333,0.26458333,0,14.593699,17.708129)">
      <title
         id="title931">Horizontal Line Mark, HL</title>
      <polygon
         points="4,72 4,4 4,0 8,0 8,4 8,72 "
         style="fill:#000000"
         id="polygon933" />
    </g>
    <g
       id="g900"
       transform="matrix(0.26458333,0,0,0.26458333,12.490262,1.0508309)">
      <title
         id="title896">Down Vertical Mark, DV</title>
      <polygon
         points="4,72 4,4 0,0 12,0 8,4 8,72 "
         style="fill:#000000"
         id="polygon898" />
    </g>
    <g
       id="g917"
       transform="matrix(0.26458333,0,0,0.26458333,22.491436,1.0980779)">
      <title
         id="title913">Down Vertical Mark, DV</title>
      <polygon
         points="4,4 0,0 12,0 8,4 8,72 4,72 "
         style="fill:#000000"
         id="polygon915" />
    </g>
    <g
       id="g923"
       transform="matrix(0.26458333,0,0,0.26458333,32.188413,1.1453249)">
      <title
         id="title919">Down Vertical Mark, DV</title>
      <polygon
         points="0,0 12,0 8,4 8,72 4,72 4,4 "
         style="fill:#000000"
         id="polygon921" />
    </g>
    <g
       id="g929"
       transform="matrix(0,-0.26458333,0.26458333,0,12.503415,21.253658)">
      <title
         id="title925">Right Horizontal Mark, RH</title>
      <polygon
         points="8,82 4,82 4,4 0,0 12,0 8,4 "
         style="fill:#000000"
         id="polygon927" />
    </g>
    <g
       id="g941"
       transform="matrix(0,-0.26458333,0.26458333,0,14.567241,14.056954)">
      <title
         id="title937">Horizontal Line Mark, HL</title>
      <polygon
         points="4,4 4,0 8,0 8,4 8,72 4,72 "
         style="fill:#000000"
         id="polygon939" />
    </g>
    <g
       id="g947"
       transform="matrix(0,-0.26458333,0.26458333,0,14.567241,10.299794)">
      <title
         id="title943">Horizontal Line Mark, HL</title>
      <polygon
         points="8,72 4,72 4,4 4,0 8,0 8,4 "
         style="fill:#000000"
         id="polygon945" />
    </g>
    <g
       id="g953"
       transform="matrix(0,-0.26458333,0.26458333,0,14.593699,3.1825028)">
      <title
         id="title949">Right Horizontal Mark, RH</title>
      <polygon
         points="4,72 4,4 0,0 12,0 8,4 8,72 "
         style="fill:#000000"
         id="polygon951" />
    </g>
    <g
       id="g990"
       transform="matrix(0,-0.26458333,0.26458333,0,6.9699195,11.851465)">
      <title
         id="title986">Right Horizontal Mark, RH</title>
      <polygon
         points="8,25 4,25 4,4 0,0 12,0 8,4 "
         style="fill:#000000"
         id="polygon988" />
    </g>
    <g
       id="g1292"
       transform="matrix(0,-0.26458333,0.26458333,0,14.593623,6.5691695)">
      <title
         id="title1288">Horizontal Line Mark, HL</title>
      <polygon
         points="4,72 4,4 4,0 8,0 8,4 8,72 "
         style="fill:#000000"
         id="polygon1290" />
    </g>
    <polygon
       points="6,0 6,12 0,6 "
       style="fill:black"
       id="polygon996"
       transform="matrix(0.26458333,0,0,0.26458333,21.317857,8.5706107)" />
  </g>
</svg>
