<?xml version="1.0" encoding="UTF-8" standalone="no"?>
<svg
   xmlns:dc="http://purl.org/dc/elements/1.1/"
   xmlns:cc="http://creativecommons.org/ns#"
   xmlns:rdf="http://www.w3.org/1999/02/22-rdf-syntax-ns#"
   xmlns:svg="http://www.w3.org/2000/svg"
   xmlns="http://www.w3.org/2000/svg"
   width="160"
   height="80"
   viewBox="0 0 42.333332 21.166667"
   version="1.1"
   id="svg8">
  <defs
     id="defs2" />
  <metadata
     id="metadata5">
    <rdf:RDF>
      <cc:Work
         rdf:about="">
        <dc:format>image/svg+xml</dc:format>
        <dc:type
           rdf:resource="http://purl.org/dc/dcmitype/StillImage" />
        <dc:title></dc:title>
      </cc:Work>
    </rdf:RDF>
  </metadata>
  <g
     id="layer1">
    <polygon
       points="8,4 8,40 4,40 4,4 0,0 12,0 "
       style="fill:black"
       id="polygon855"
       transform="matrix(0.26458333,0,0,0.26458333,14.448104,4.7719499)">
      <title
         id="title871">Down Vertical Mark, DV</title>
    </polygon>
    <polygon
       points="4,4 0,0 12,0 8,4 8,40 4,40 "
       style="fill:black"
       id="polygon875"
       transform="matrix(0.26458333,0,0,0.26458333,21.96227,4.7719499)">
      <title
         id="title873">Down Vertical Mark, DV</title>
    </polygon>
    <polygon
       points="4,40 4,4 0,0 12,0 8,4 8,40 "
       style="fill:black"
       id="polygon963"
       transform="matrix(0,-0.26458333,0.26458333,0,14.104144,17.2339)">
      <title
         id="title961">Right Horizontal Mark, RH</title>
    </polygon>
    
    
    <polygon
       points="4,4 0,0 12,0 8,4 8,30 4,30 "
       style="fill:black"
       id="polygon967"
       transform="matrix(0.26458333,0,0,0.26458333,18.152269,7.3120249)">
      <title
         id="title965">Down Vertical Mark, DV</title>
    </polygon>
    
  </g>
</svg>
