<?xml version="1.0" encoding="UTF-8" standalone="no"?>
<svg
   xmlns:dc="http://purl.org/dc/elements/1.1/"
   xmlns:cc="http://creativecommons.org/ns#"
   xmlns:rdf="http://www.w3.org/1999/02/22-rdf-syntax-ns#"
   xmlns:svg="http://www.w3.org/2000/svg"
   xmlns="http://www.w3.org/2000/svg"
   width="160"
   height="80"
   viewBox="0 0 42.333332 21.166667"
   version="1.1"
   id="svg8">
  <defs
     id="defs2" />
  <metadata
     id="metadata5">
    <rdf:RDF>
      <cc:Work
         rdf:about="">
        <dc:format>image/svg+xml</dc:format>
        <dc:type
           rdf:resource="http://purl.org/dc/dcmitype/StillImage" />
        <dc:title></dc:title>
      </cc:Work>
    </rdf:RDF>
  </metadata>
  <g
     id="layer1">
    <g
       id="g857"
       transform="matrix(0,-0.26458333,0.26458333,0,10.932961,6.4066966)">
      <title
         id="title853">Right Horizontal Mark, RH</title>
      <polygon
         points="0,0 12,0 8,4 8,72 4,72 4,4 "
         style="fill:black"
         id="polygon855" />
    </g>
    <g
       id="g874"
       transform="matrix(0,-0.26458333,0.26458333,0,10.932961,9.4228707)">
      <title
         id="title870">Right Horizontal Mark, RH</title>
      <polygon
         points="12,0 8,4 8,72 4,72 4,4 0,0 "
         style="fill:black"
         id="polygon872" />
    </g>
    <g
       id="g880"
       transform="matrix(0,-0.26458333,0.26458333,0,10.985764,12.518496)">
      <title
         id="title876">Right Horizontal Mark, RH</title>
      <polygon
         points="4,72 4,4 0,0 12,0 8,4 8,72 "
         style="fill:black"
         id="polygon878" />
    </g>
    <g
       id="g886"
       transform="matrix(0,-0.26458333,0.26458333,0,10.985764,15.455371)">
      <title
         id="title882">Right Horizontal Mark, RH</title>
      <polygon
         points="4,72 4,4 0,0 12,0 8,4 8,72 "
         style="fill:black"
         id="polygon884" />
    </g>
    <g
       id="g906"
       transform="matrix(0.26458333,0,0,0.26458333,28.871598,3.8137041)">
      <title
         id="title902">Down Vertical Mark, DV</title>
      <polygon
         points="4,40 4,4 0,0 12,0 8,4 8,40 "
         style="fill:black"
         id="polygon904" />
    </g>
    <g
       id="g923"
       transform="matrix(0.26458333,0,0,0.26458333,18.711598,5.1101625)">
      <title
         id="title919">Down Vertical Mark, DV</title>
      <polygon
         points="8,4 8,32 4,32 4,4 0,0 12,0 "
         style="fill:black"
         id="polygon921" />
    </g>
    <polygon
       points="6,0 6,12 0,6 "
       style="fill:black"
       id="polygon937"
       transform="matrix(0.26458333,0,0,0.26458333,17.96706,7.8146581)">
      <title
         id="title951">Heel Mark, HE</title>
    </polygon>
   
 
    
   
    
    
    
   
  </g>
</svg>
