<?xml version="1.0" encoding="UTF-8" standalone="no"?>
<svg
   xmlns:dc="http://purl.org/dc/elements/1.1/"
   xmlns:cc="http://creativecommons.org/ns#"
   xmlns:rdf="http://www.w3.org/1999/02/22-rdf-syntax-ns#"
   xmlns:svg="http://www.w3.org/2000/svg"
   xmlns="http://www.w3.org/2000/svg"
   width="160"
   height="80"
   viewBox="0 0 42.333332 21.166667"
   version="1.1"
   id="svg8">
  <defs
     id="defs2" />
  <metadata
     id="metadata5">
    <rdf:RDF>
      <cc:Work
         rdf:about="">
        <dc:format>image/svg+xml</dc:format>
        <dc:type
           rdf:resource="http://purl.org/dc/dcmitype/StillImage" />
        <dc:title></dc:title>
      </cc:Work>
    </rdf:RDF>
  </metadata>
  <g
     id="layer1">
    <g
       id="g857"
       transform="matrix(0,-0.26458333,0.26458333,0,11.791024,7.2685199)">
      <title
         id="title853">Right Horizontal Mark, RH</title>
      <polygon
         points="4,4 0,0 12,0 8,4 8,72 4,72 "
         style="fill:black"
         id="polygon855" />
    </g>
    <g
       id="g874"
       transform="matrix(0,-0.26458333,0.26458333,0,11.791024,10.284694)">
      <title
         id="title870">Right Horizontal Mark, RH</title>
      <polygon
         points="4,72 4,4 0,0 12,0 8,4 8,72 "
         style="fill:black"
         id="polygon872" />
    </g>
    <g
       id="g880"
       transform="matrix(0,-0.26458333,0.26458333,0,11.843827,13.380319)">
      <title
         id="title876">Right Horizontal Mark, RH</title>
      <polygon
         points="12,0 8,4 8,72 4,72 4,4 0,0 "
         style="fill:black"
         id="polygon878" />
    </g>
    <g
       id="g886"
       transform="matrix(0,-0.26458333,0.26458333,0,11.843827,16.317194)">
      <title
         id="title882">Right Horizontal Mark, RH</title>
      <polygon
         points="12,0 8,4 8,72 4,72 4,4 0,0 "
         style="fill:black"
         id="polygon884" />
    </g>
    <g
       id="g906"
       transform="matrix(0.26458333,0,0,0.26458333,29.729661,4.6755274)">
      <title
         id="title902">Down Vertical Mark, DV</title>
      <polygon
         points="12,0 8,4 8,40 4,40 4,4 0,0 "
         style="fill:black"
         id="polygon904" />
    </g>
    <g
       id="g923"
       transform="matrix(0.26458333,0,0,0.26458333,19.569661,5.9719858)">
      <title
         id="title919">Down Vertical Mark, DV</title>
      <polygon
         points="4,4 0,0 12,0 8,4 8,32 4,32 "
         style="fill:black"
         id="polygon921" />
    </g>
   
    
   
    
    
    
   
    <g
       id="g1017"
       transform="matrix(0.18708867,-0.18708867,0.18708867,0.18708867,17.697998,10.930352)">
      <title
         id="title1013">Right Down Diagonal Mark, RDD</title>
      <polygon
         points="12,0 8,4 8,18 4,18 4,4 0,0 "
         style="fill:black"
         id="polygon1015"
         transform="translate(0.98995129,2.9698482)" />
    </g>
  
  </g>
</svg>
