<?xml version="1.0" encoding="UTF-8" standalone="no"?>
<svg
   xmlns:dc="http://purl.org/dc/elements/1.1/"
   xmlns:cc="http://creativecommons.org/ns#"
   xmlns:rdf="http://www.w3.org/1999/02/22-rdf-syntax-ns#"
   xmlns:svg="http://www.w3.org/2000/svg"
   xmlns="http://www.w3.org/2000/svg"
   width="160"
   height="80"
   viewBox="0 0 42.333332 21.166667"
   version="1.1"
   id="svg8">
  <defs
     id="defs2" />
  <metadata
     id="metadata5">
    <rdf:RDF>
      <cc:Work
         rdf:about="">
        <dc:format>image/svg+xml</dc:format>
        <dc:type
           rdf:resource="http://purl.org/dc/dcmitype/StillImage" />
        <dc:title></dc:title>
      </cc:Work>
    </rdf:RDF>
  </metadata>
  <g
     id="layer1">
    <polygon
       points="4,4 0,0 12,0 8,4 8,45 4,45 "
       style="fill:black"
       id="polygon493"
       transform="matrix(0.26458333,0,0,0.26458333,9.321007,4.7426938)">
      <title
         id="title956">Down Vertical Mark, DV</title>
    </polygon>
    <polygon
       points="12,0 8,4 8,45 4,45 4,4 0,0 "
       style="fill:black"
       id="polygon948"
       transform="matrix(0.26458333,0,0,0.26458333,23.264434,4.7162355)">
      <title
         id="title958">Down Vertical Mark, DV</title>
    </polygon>
    <polygon
       points="4,4 0,0 12,0 8,4 8,55 4,55 "
       style="fill:black"
       id="polygon522"
       transform="matrix(0,-0.26458333,0.26458333,0,9.7972562,17.750668)">
      <title
         id="title962">Right Horizontal Mark, RH</title>
    </polygon>
    
   
    <polygon
       points="4,4 0,0 12,0 8,4 8,55 4,55 "
       style="fill:black"
       id="polygon983"
       transform="matrix(0,-0.26458333,0.26458333,0,9.7972562,7.3260477)">
      <title
         id="title981">Right Horizontal Mark, RH</title>
    </polygon>
    
    <g
       id="g1003"
       transform="matrix(0,-0.26458333,0.26458333,0,13.820775,12.461875)">
      <title
         id="title999">Right Horizontal Mark, RH</title>
      <polygon
         points="8,40 4,40 4,4 0,0 12,0 8,4 "
         style="fill:black"
         id="polygon1001" />
    </g>
    
   
  </g>
</svg>
