<?xml version="1.0" encoding="UTF-8" standalone="no"?>
<svg
   xmlns:dc="http://purl.org/dc/elements/1.1/"
   xmlns:cc="http://creativecommons.org/ns#"
   xmlns:rdf="http://www.w3.org/1999/02/22-rdf-syntax-ns#"
   xmlns:svg="http://www.w3.org/2000/svg"
   xmlns="http://www.w3.org/2000/svg"
   width="160"
   height="80"
   viewBox="0 0 42.333332 21.166667"
   version="1.1"
   id="svg8">
  <defs
     id="defs2" />
  <metadata
     id="metadata5">
    <rdf:RDF>
      <cc:Work
         rdf:about="">
        <dc:format>image/svg+xml</dc:format>
        <dc:type
           rdf:resource="http://purl.org/dc/dcmitype/StillImage" />
        <dc:title></dc:title>
      </cc:Work>
    </rdf:RDF>
  </metadata>
  <g
     id="layer1">
    <polygon
       points="8,50 4,50 4,22 0,18 4,18 4,4 0,0 12,0 8,4 8,18 12,18 8,22 "
       style="fill:black"
       id="polygon851"
       transform="matrix(0.26458333,0,0,0.26458333,35.280335,5.3522564)">
      <title
         id="title865">Down Vertical Head-to-Tail Mark, DVHT</title>
    </polygon>
    <polygon
       points="8,22 8,50 4,50 4,22 0,18 4,18 4,4 0,0 12,0 8,4 8,18 12,18 "
       style="fill:black"
       id="polygon881"
       transform="matrix(0.1984375,0,0,0.23151041,27.898459,6.2649553)">
      <title
         id="title879">Down Vertical Head-to-Tail Mark, DVHT</title>
    </polygon>
    <g
       id="g901"
       transform="matrix(0,-0.26458333,0.26458333,0,25.755335,18.382985)">
      <title
         id="title897">Right Horizontal Mark, RH</title>
      <polygon
         points="4,40 4,4 0,0 12,0 8,4 8,40 "
         style="fill:black"
         id="polygon899" />
    </g>
    <g
       id="g918"
       transform="matrix(0,-0.26458333,0.26458333,0,25.728877,9.1887143)">
      <title
         id="title914">Right Horizontal Mark, RH</title>
      <polygon
         points="8,4 8,40 4,40 4,4 0,0 12,0 "
         style="fill:black"
         id="polygon916" />
    </g>
    <g
       id="g924"
       transform="matrix(0,-0.26458333,0.26458333,0,11.90625,9.0111791)">
      <title
         id="title920">Right Horizontal Mark, RH</title>
      <polygon
         points="0,0 12,0 8,4 8,40 4,40 4,4 "
         style="fill:black"
         id="polygon922" />
    </g>
    <g
       id="g930"
       transform="matrix(0,-0.26458333,0.26458333,0,11.90625,12.186179)">
      <title
         id="title926">Right Horizontal Mark, RH</title>
      <polygon
         points="4,4 0,0 12,0 8,4 8,30 4,30 "
         style="fill:black"
         id="polygon928" />
    </g>
    <g
       id="g936"
       transform="matrix(0,-0.26458333,0.26458333,0,11.90625,18.298053)">
      <title
         id="title932">Right Horizontal Mark, RH</title>
      <polygon
         points="12,0 8,4 8,40 4,40 4,4 0,0 "
         style="fill:black"
         id="polygon934" />
    </g>
    <g
       id="g942"
       transform="matrix(0,-0.26458333,0.26458333,0,11.90625,15.361179)">
      <title
         id="title938">Right Horizontal Mark, RH</title>
      <polygon
         points="8,4 8,30 4,30 4,4 0,0 12,0 "
         style="fill:black"
         id="polygon940" />
    </g>
    <polygon
       points="12,0 8,4 8,18 12,18 8,22 8,50 4,50 4,22 0,18 4,18 4,4 0,0 "
       style="fill:black"
       id="polygon946"
       transform="matrix(0.1984375,0,0,0.23151041,30.200335,6.2649553)">
      <title
         id="title944">Down Vertical Head-to-Tail Mark, DVHT</title>
    </polygon>
    <polygon
       points="8,22 8,50 4,50 4,22 0,18 4,18 4,4 0,0 12,0 8,4 8,18 12,18 "
       style="fill:black"
       id="polygon950"
       transform="matrix(0.1984375,0,0,0.23151041,32.528667,6.2649553)">
      <title
         id="title948">Down Vertical Head-to-Tail Mark, DVHT</title>
    </polygon>
    <polygon
       points="6,0 6,12 0,6 "
       style="fill:black"
       id="polygon964"
       transform="matrix(0.26458333,0,0,0.26458333,22.782515,13.437054)">
      <title
         id="title978">Heel Mark, HE</title>
    </polygon>
    <polygon
       points="0,6 6,0 6,12 "
       style="fill:black"
       id="polygon982"
       transform="matrix(0.26458333,0,0,0.26458333,22.725818,7.4520273)">
      <title
         id="title980">Heel Mark, HE</title>
    </polygon>
    <polygon
       points="6,12 0,6 6,0 "
       style="fill:black"
       id="polygon986"
       transform="matrix(0.26458333,0,0,0.26458333,20.514658,10.554985)">
      <title
         id="title984">Heel Mark, HE</title>
    </polygon>
    <g
       id="g992"
       transform="matrix(0,-0.26458333,0.26458333,0,1.4173728,10.42859)">
      <title
         id="title988">Right Horizontal Mark, RH</title>
      <polygon
         points="4,4 0,0 12,0 8,4 8,40 4,40 "
         style="fill:black"
         id="polygon990" />
    </g>
    <g
       id="g998"
       transform="matrix(0,-0.26458333,0.26458333,0,1.3702771,16.61795)">
      <title
         id="title994">Right Horizontal Mark, RH</title>
      <polygon
         points="12,0 8,4 8,40 4,40 4,4 0,0 "
         style="fill:black"
         id="polygon996" />
    </g>
    <g
       id="g1004"
       transform="matrix(0.26458333,0,0,0.26458333,3.7419646,9.198276)">
      <title
         id="title1000">Down Vertical Mark, DV</title>
      <polygon
         points="12,0 8,4 8,25 4,25 4,4 0,0 "
         style="fill:black"
         id="polygon1002" />
    </g>
    <g
       id="g1016"
       transform="matrix(0.26458333,0,0,0.26458333,6.6259604,9.198276)">
      <title
         id="title1012">Down Vertical Mark, DV</title>
      <polygon
         points="8,4 8,25 4,25 4,4 0,0 12,0 "
         style="fill:black"
         id="polygon1014" />
    </g>
   
   
    
    
   
   
   
    
    
   
    
    
    
    
  </g>
</svg>
