<?xml version="1.0" encoding="UTF-8" standalone="no"?>
<svg
   xmlns:dc="http://purl.org/dc/elements/1.1/"
   xmlns:cc="http://creativecommons.org/ns#"
   xmlns:rdf="http://www.w3.org/1999/02/22-rdf-syntax-ns#"
   xmlns:svg="http://www.w3.org/2000/svg"
   xmlns="http://www.w3.org/2000/svg"
   width="160"
   height="80"
   viewBox="0 0 42.333332 21.166667"
   version="1.1"
   id="svg8">
  <defs
     id="defs2" />
  <metadata
     id="metadata5">
    <rdf:RDF>
      <cc:Work
         rdf:about="">
        <dc:format>image/svg+xml</dc:format>
        <dc:type
           rdf:resource="http://purl.org/dc/dcmitype/StillImage" />
        <dc:title></dc:title>
      </cc:Work>
    </rdf:RDF>
  </metadata>
  <g
     id="layer1">
    <g
       id="g906"
       transform="matrix(0.26458333,0,0,0.26458333,34.407116,5.4314797)">
      <title
         id="title902">Down Vertical Mark, DV</title>
      <polygon
         points="4,40 4,4 0,0 12,0 8,4 8,40 "
         style="fill:black"
         id="polygon904" />
    </g>
    <polygon
       points="0,6 6,0 6,12 "
       style="fill:black"
       id="polygon937"
       transform="matrix(0.26458333,0,0,0.26458333,17.218724,9.7215853)">
      <title
         id="title951">Heel Mark, HE</title>
    </polygon>
    <g
       id="g1000"
       transform="matrix(0.26458333,0,0,0.26458333,25.358461,5.4314797)">
      <title
         id="title996">Down Vertical Mark, DV</title>
      <polygon
         points="12,0 8,4 8,40 4,40 4,4 0,0 "
         style="fill:black"
         id="polygon998" />
    </g>
    <g
       id="g1006"
       transform="matrix(0,-0.26458333,0.26458333,0,25.951921,18.108877)">
      <title
         id="title1002">Right Horizontal Mark, RH</title>
      <polygon
         points="8,4 8,40 4,40 4,4 0,0 12,0 "
         style="fill:black"
         id="polygon1004" />
    </g>
    <polygon
       points="2,35 0,35 0,0 2,0 "
       style="fill:black"
       id="polygon1031"
       transform="matrix(0,-0.26458333,0.26458333,0,26.75512,8.6444666)">
      <title
         id="title1113">Horizontal Line Mark, HL</title>
    </polygon>
    <polygon
       points="2,0 2,35 0,35 0,0 "
       style="fill:black"
       id="polygon1035"
       transform="matrix(0,-0.26458333,0.26458333,0,26.75512,14.862175)">
      <title
         id="title1119">Horizontal Line Mark, HL</title>
    </polygon>
    <polygon
       points="0,35 0,0 2,0 2,35 "
       style="fill:black"
       id="polygon1037"
       transform="matrix(0,-0.26458333,0.26458333,0,26.75512,12.745509)">
      <title
         id="title1117">Horizontal Line Mark, HL</title>
    </polygon>
    <polygon
       points="0,0 2,0 2,35 0,35 "
       style="fill:black"
       id="polygon1039"
       transform="matrix(0,-0.26458333,0.26458333,0,26.75512,10.708218)">
      <title
         id="title1115">Horizontal Line Mark, HL</title>
    </polygon>
    <g
       id="g1076"
       transform="matrix(0.26458333,0,0,0.26458333,29.988669,8.5534499)">
      <title
         id="title1072">Down Vertical Mark, DV</title>
      <polygon
         points="8,30 4,30 4,4 0,0 12,0 8,4 "
         style="fill:black"
         id="polygon1074" />
    </g>
    <g
       id="g1096"
       transform="matrix(0,-0.26458333,0.26458333,0,19.823112,12.930717)">
      <title
         id="title1092">Right Horizontal Mark, RH</title>
      <polygon
         points="12,0 8,4 8,25 4,25 4,4 0,0 "
         style="fill:black"
         id="polygon1094" />
    </g>
    <polygon
       points="0,6 6,0 6,12 "
       style="fill:black"
       id="polygon1111"
       transform="matrix(0.26458333,0,0,0.26458333,31.72356,11.322315)">
      <title
         id="title1109">Heel Mark, HE</title>
    </polygon>
        
  </g>
</svg>
