<?xml version="1.0" encoding="UTF-8" standalone="no"?>
<svg
   xmlns:dc="http://purl.org/dc/elements/1.1/"
   xmlns:cc="http://creativecommons.org/ns#"
   xmlns:rdf="http://www.w3.org/1999/02/22-rdf-syntax-ns#"
   xmlns:svg="http://www.w3.org/2000/svg"
   xmlns="http://www.w3.org/2000/svg"
   width="160"
   height="80"
   viewBox="0 0 42.333332 21.166667"
   version="1.1"
   id="svg8">
  <defs
     id="defs2" />
  <metadata
     id="metadata5">
    <rdf:RDF>
      <cc:Work
         rdf:about="">
        <dc:format>image/svg+xml</dc:format>
        <dc:type
           rdf:resource="http://purl.org/dc/dcmitype/StillImage" />
        <dc:title></dc:title>
      </cc:Work>
    </rdf:RDF>
  </metadata>
  <g
     id="layer1">
    <g
       id="g857"
       transform="matrix(0.26458333,0,0,0.26458333,13.567568,6.4785874)">
      <title
         id="title853">Down Vertical Mark, DV</title>
      <polygon
         points="8,4 8,40 4,40 4,4 0,0 12,0 "
         style="fill:black"
         id="polygon855" />
    </g>
    <g
       id="g905"
       transform="matrix(0.26458333,0,0,0.26458333,17.914143,5.1499258)">
      <title
         id="title901">Down Vertical Mark, DV</title>
      <polygon
         points="8,45 4,45 4,4 0,0 12,0 8,4 "
         style="fill:black"
         id="polygon903" />
    </g>
    <g
       id="g911"
       transform="matrix(0.26458333,0,0,0.26458333,9.175372,6.4785874)">
      <title
         id="title907">Down Vertical Mark, DV</title>
      <polygon
         points="12,0 8,4 8,40 4,40 4,4 0,0 "
         style="fill:black"
         id="polygon909" />
    </g>
    <g
       id="g917"
       transform="matrix(0.26458333,0,0,0.26458333,4.8363187,6.4785874)">
      <title
         id="title913">Down Vertical Mark, DV</title>
      <polygon
         points="4,4 0,0 12,0 8,4 8,40 4,40 "
         style="fill:black"
         id="polygon915" />
    </g>
    <g
       id="g937"
       transform="matrix(0,-0.26458333,0.26458333,0,0.98080988,19.172842)">
      <title
         id="title933">Right Horizontal Mark, RH</title>
      <polygon
         points="4,4 0,0 12,0 8,4 8,72 4,72 "
         style="fill:black"
         id="polygon935" />
    </g>
    <polygon
       points="0,0 12,0 8,4 8,35 4,35 4,4 "
       style="fill:black"
       id="polygon966"
       transform="matrix(0.22913588,-0.13229166,0.13229166,0.22913588,11.530279,10.01686)">
      <title
         id="title981">Right Down Diagonal Mark, RDD</title>
    </polygon>
    <polygon
       points="4,4 0,0 12,0 8,4 8,35 4,35 "
       style="fill:black"
       id="polygon985"
       transform="matrix(0.22913588,-0.13229166,0.13229166,0.22913588,2.8254852,10.0584)">
      <title
         id="title983">Right Down Diagonal Mark, RDD</title>
    </polygon>
   
    
    
   
    
    
    
    
  </g>
</svg>
