<?xml version="1.0" encoding="UTF-8" standalone="no"?>
<svg
   xmlns:dc="http://purl.org/dc/elements/1.1/"
   xmlns:cc="http://creativecommons.org/ns#"
   xmlns:rdf="http://www.w3.org/1999/02/22-rdf-syntax-ns#"
   xmlns:svg="http://www.w3.org/2000/svg"
   xmlns="http://www.w3.org/2000/svg"
   width="160"
   height="80"
   viewBox="0 0 42.333332 21.166667"
   version="1.1"
   id="svg8">
  <defs
     id="defs2" />
  <metadata
     id="metadata5">
    <rdf:RDF>
      <cc:Work
         rdf:about="">
        <dc:format>image/svg+xml</dc:format>
        <dc:type
           rdf:resource="http://purl.org/dc/dcmitype/StillImage" />
        <dc:title></dc:title>
      </cc:Work>
    </rdf:RDF>
  </metadata>
  <g
     id="layer1">
    <g
       id="g1751"
       transform="matrix(0,-0.26458333,0.26458333,0,12.095238,11.854279)">
      <title
         id="title1747">Right Horizontal Mark, RH</title>
      <polygon
         points="0,0 12,0 8,4 8,50 4,50 4,4 "
         style="fill:#ff0000"
         id="polygon1749" />
    </g>
    <g
       id="g1799"
       transform="matrix(0.26458333,0,0,0.26458333,16.774583,5.4645153)">
      <title
         id="title1795">Down Vertical Mark, DV</title>
      <polygon
         points="0,0 12,0 8,4 8,60 4,60 4,4 "
         style="fill:#ff0000"
         id="polygon1797"
         transform="translate(0,-13.099714)" />
    </g>
    <g
       id="g1859"
       transform="matrix(0,-0.26458333,0.26458333,0,12.095238,17.939695)">
      <title
         id="title1855">Right Horizontal Mark, RH</title>
      <polygon
         points="0,0 12,0 8,4 8,60 4,60 4,4 "
         style="fill:#ff0000"
         id="polygon1857"
         transform="translate(0,-9.5002858)" />
    </g>
    <g
       id="g1865"
       transform="matrix(0,-0.26458333,0.26458333,0,12.174613,5.6630284)">
      <title
         id="title1861">Right Horizontal Mark, RH</title>
      <polygon
         points="8,4 8,55 4,55 4,4 0,0 12,0 "
         style="fill:#ff0000"
         id="polygon1863"
         transform="translate(0,-5.4002857)" />
    </g>
    <circle
       style="fill:#008000;fill-rule:evenodd;stroke-width:0.264583"
       id="circle1869"
       cx="18.352634"
       cy="10.210156"
       r="0.79374999">
      <title
         id="title1867">2 Cross Connector, 2C</title>
    </circle>
    <g
       id="g928"
       transform="matrix(0,-0.26458333,0.26458333,0,12.095238,8.7586533)">
      <title
         id="title924">Right Horizontal Mark, RH</title>
      <polygon
         points="4,4 0,0 12,0 8,4 8,50 4,50 "
         style="fill:#ff0000"
         id="polygon926" />
    </g>
    <g
       id="g934"
       transform="matrix(0,-0.26458333,0.26458333,0,12.095238,14.949904)">
      <title
         id="title930">Right Horizontal Mark, RH</title>
      <polygon
         points="4,50 4,4 0,0 12,0 8,4 8,50 "
         style="fill:#ff0000"
         id="polygon932" />
    </g>
    <circle
       style="fill:#008000;fill-rule:evenodd;stroke-width:0.264583"
       id="circle1873"
       cx="18.352634"
       cy="16.153753"
       r="0.79374999">
      <title
         id="title1871">2 Cross Connector, 2C</title>
    </circle>
    <circle
       style="fill:#008000;fill-rule:evenodd;stroke-width:0.264583"
       id="circle1849"
       cx="18.337553"
       cy="4.1133637"
       r="0.79374999">
      <title
         id="title1851">2 Cross Connector, 2C</title>
    </circle>
    <circle
       style="fill:#008000;fill-rule:evenodd;stroke-width:0.264583"
       id="circle938"
       cx="18.352634"
       cy="7.0351539"
       r="0.79374999">
      <title
         id="title936">2 Cross Connector, 2C</title>
    </circle>
    <circle
       style="fill:#008000;fill-rule:evenodd;stroke-width:0.264583"
       id="circle942"
       cx="18.352634"
       cy="13.438074"
       r="0.79374999">
      <title
         id="title940">2 Cross Connector, 2C</title>
    </circle>
  </g>
</svg>
