<?xml version="1.0" encoding="UTF-8" standalone="no"?>
<svg
   xmlns:dc="http://purl.org/dc/elements/1.1/"
   xmlns:cc="http://creativecommons.org/ns#"
   xmlns:rdf="http://www.w3.org/1999/02/22-rdf-syntax-ns#"
   xmlns:svg="http://www.w3.org/2000/svg"
   xmlns="http://www.w3.org/2000/svg"
   width="160"
   height="80"
   viewBox="0 0 42.333332 21.166667"
   version="1.1"
   id="svg8">
  <defs
     id="defs2" />
  <metadata
     id="metadata5">
    <rdf:RDF>
      <cc:Work
         rdf:about="">
        <dc:format>image/svg+xml</dc:format>
        <dc:type
           rdf:resource="http://purl.org/dc/dcmitype/StillImage" />
        <dc:title></dc:title>
      </cc:Work>
    </rdf:RDF>
  </metadata>
  <g
     id="layer1">
    <g
       id="g857"
       transform="matrix(0,-0.26458333,0.26458333,0,4.2182519,6.0759673)">
      <title
         id="title853">Right Horizontal Mark, RH</title>
      <polygon
         points="4,72 4,4 0,0 12,0 8,4 8,72 "
         style="fill:#ff0000"
         id="polygon855" />
    </g>
    <g
       id="g888"
       transform="matrix(0,-0.26458333,0.26458333,0,12.306829,8.3589812)">
      <title
         id="title884">Right Horizontal Mark, RH</title>
      <polygon
         points="8,40 4,40 4,4 0,0 12,0 8,4 "
         style="fill:#ff0000"
         id="polygon886" />
    </g>
    <g
       id="g905"
       transform="matrix(0,-0.26458333,0.26458333,0,12.280371,11.481064)">
      <title
         id="title901">Right Horizontal Mark, RH</title>
      <polygon
         points="8,4 8,40 4,40 4,4 0,0 12,0 "
         style="fill:#ff0000"
         id="polygon903" />
    </g>
    <g
       id="g911"
       transform="matrix(0,-0.26458333,0.26458333,0,12.359746,14.656064)">
      <title
         id="title907">Right Horizontal Mark, RH</title>
      <polygon
         points="4,4 0,0 12,0 8,4 8,40 4,40 "
         style="fill:#ff0000"
         id="polygon909" />
    </g>
    <g
       id="g917"
       transform="matrix(0,-0.26458333,0.26458333,0,4.0595021,16.976725)">
      <title
         id="title913">Right Horizontal Mark, RH</title>
      <polygon
         points="4,4 0,0 12,0 8,4 8,72 4,72 "
         style="fill:#ff0000"
         id="polygon915" />
    </g>
    <g
       id="g923"
       transform="matrix(0.26458333,0,0,0.26458333,21.70721,5.017634)">
      <title
         id="title919">Down Vertical Mark, DV</title>
      <polygon
         points="8,4 8,40 4,40 4,4 0,0 12,0 "
         style="fill:#ff0000"
         id="polygon921" />
    </g>
    <circle
       style="fill:#008000;fill-rule:evenodd;stroke-width:0.264583"
       id="circle985"
       cx="23.258726"
       cy="6.7090764"
       r="0.79374999">
      <title
         id="title983">Right 2 Touch Connector, R2T</title>
    </circle>
    <circle
       style="fill:#008000;fill-rule:evenodd;stroke-width:0.264583"
       id="circle989"
       cx="23.264547"
       cy="9.8746271"
       r="0.79374999">
      <title
         id="title987">Right 2 Touch Connector, R2T</title>
    </circle>
    <circle
       style="fill:#008000;fill-rule:evenodd;stroke-width:0.264583"
       id="circle993"
       cx="23.264547"
       cy="12.945683"
       r="0.79374999">
      <title
         id="title991">Right 2 Touch Connector, R2T</title>
    </circle>
    <g
       id="g1009"
       transform="matrix(0.26458333,0,0,0.26458333,3.0540856,5.017634)">
      <title
         id="title1005">Down Vertical Mark, DV</title>
      <polygon
         points="8,4 8,40 4,40 4,4 0,0 12,0 "
         style="fill:#ff0000"
         id="polygon1007" />
    </g>
    <g
       id="g1029"
       transform="matrix(0.07735667,-0.2530223,0.2530223,0.07735667,22.680164,5.7455732)">
      <title
         id="title1025">Right Down Diagonal Mark, RDD</title>
      <polygon
         points="12,0 8,4 8,72 4,72 4,4 0,0 "
         style="fill:#ff0000"
         id="polygon1027" />
    </g>
    <g
       id="g1046"
       transform="matrix(-0.07735667,-0.2530223,0.2530223,-0.07735667,23.581986,17.259091)">
      <title
         id="title1042">Right Up Diagonal Mark, RUD</title>
      <polygon
         points="4,4 0,0 12,0 8,4 8,72 4,72 "
         style="fill:#ff0000"
         id="polygon1044" />
    </g>
    <circle
       style="fill:#008000;fill-rule:evenodd;stroke-width:0.264583"
       id="circle997"
       cx="23.298529"
       cy="4.9609365"
       r="0.79374999">
      <title
         id="title995">3 Touch Connector, 3T</title>
    </circle>
    <circle
       style="fill:#008000;fill-rule:evenodd;stroke-width:0.264583"
       id="circle1050"
       cx="23.298529"
       cy="15.308035"
       r="0.79374999">
      <title
         id="title1048">3 Touch Connector, 3T</title>
    </circle>
    <circle
       style="fill:#008000;fill-rule:evenodd;stroke-width:0.264583"
       id="circle1003"
       cx="41.2939"
       cy="10.010776"
       r="0.79374999">
      <title
         id="title1001">Right Middle Corner, RMC</title>
    </circle>
    <g
       id="g1070"
       transform="matrix(0.26458333,0,0,0.26458333,25.626785,5.9494208)">
      <title
         id="title1066">Down Vertical Mark, DV</title>
      <polygon
         points="4,4 0,0 12,0 8,4 8,30 4,30 "
         style="fill:#ff0000"
         id="polygon1068" />
    </g>
    <circle
       style="fill:#008000;fill-rule:evenodd;stroke-width:0.264583"
       id="circle1091"
       cx="4.7719502"
       cy="15.255196"
       r="0.79374999">
      <title
         id="title1089">Southwest Corner Connector, SWC</title>
    </circle>
    <circle
       style="fill:#008000;fill-rule:evenodd;stroke-width:0.264583"
       id="circle1103"
       cx="4.9609385"
       cy="5.0025907"
       r="0.79374999">
      <title
         id="title1101">Northwest Corner Connector, NWC</title>
    </circle>
    <g
       id="g1109"
       transform="matrix(0.26458333,0,0,0.26458333,28.695914,6.7431705)">
      <title
         id="title1105">Down Vertical Mark, DV</title>
      <polygon
         points="12,0 8,4 8,25 4,25 4,4 0,0 "
         style="fill:#ff0000"
         id="polygon1107" />
    </g>
    <circle
       style="fill:#008000;fill-rule:evenodd;stroke-width:0.264583"
       id="circle1095"
       cx="30.427084"
       cy="13.318068"
       r="0.79374999">
      <desc
         id="desc1111">Not a right angle; therefore, other 2 touch connector.</desc>
      <title
         id="title1093">Other 2 Touch Connector, O2T</title>
    </circle>
    <circle
       style="fill:#008000;fill-rule:evenodd;stroke-width:0.264583"
       id="circle1117"
       cx="27.403275"
       cy="14.121267"
       r="0.79374999">
      <desc
         id="desc1113">Not a right angle; therefore, other 2 touch connector.</desc>
      <title
         id="title1115">Other 2 Touch Connector, O2T</title>
    </circle>
    <circle
       style="fill:#008000;fill-rule:evenodd;stroke-width:0.264583"
       id="circle1123"
       cx="30.238096"
       cy="6.8452258"
       r="0.79374999">
      <desc
         id="desc1119">Not a right angle; therefore, other 2 touch connector.</desc>
      <title
         id="title1121">Other 2 Touch Connector, O2T</title>
    </circle>
    <circle
       style="fill:#008000;fill-rule:evenodd;stroke-width:0.264583"
       id="circle1129"
       cx="27.16704"
       cy="5.9002852"
       r="0.79374999">
      <desc
         id="desc1125">Not a right angle; therefore, other 2 touch connector.</desc>
      <title
         id="title1127">Other 2 Touch Connector, O2T</title>
    </circle>
  </g>
</svg>
