<?xml version="1.0" encoding="UTF-8" standalone="no"?>
<svg
   xmlns:dc="http://purl.org/dc/elements/1.1/"
   xmlns:cc="http://creativecommons.org/ns#"
   xmlns:rdf="http://www.w3.org/1999/02/22-rdf-syntax-ns#"
   xmlns:svg="http://www.w3.org/2000/svg"
   xmlns="http://www.w3.org/2000/svg"
   width="160"
   height="80"
   viewBox="0 0 42.333332 21.166667"
   version="1.1"
   id="svg8">
  <defs
     id="defs2" />
  <metadata
     id="metadata5">
    <rdf:RDF>
      <cc:Work
         rdf:about="">
        <dc:format>image/svg+xml</dc:format>
        <dc:type
           rdf:resource="http://purl.org/dc/dcmitype/StillImage" />
        <dc:title></dc:title>
      </cc:Work>
    </rdf:RDF>
  </metadata>
  <g
     id="layer1">
    <g
       id="g1751"
       transform="matrix(0,-0.26458333,0.26458333,0,4.6869802,11.854279)">
      <title
         id="title1747">Right Horizontal Mark, RH</title>
      <polygon
         points="8,4 8,50 4,50 4,4 0,0 12,0 "
         style="fill:#ff0000"
         id="polygon1749" />
    </g>
    <polygon
       points="4,4 0,0 12,0 8,4 8,52 4,52 "
       style="fill:#ff0000"
       id="polygon1797"
       transform="matrix(0.26458333,0,0,0.26458333,16.721667,3.1099124)" />
    <polygon
       points="4,4 0,0 12,0 8,4 8,52 4,52 "
       style="fill:#ff0000"
       id="polygon964"
       transform="matrix(0.26458333,0,0,0.26458333,30.585831,3.1099124)">
      <title
         id="title989">Down Vertical Mark, DV</title>
    </polygon>
    <polygon
       points="4,4 0,0 12,0 8,4 8,52 4,52 "
       style="fill:#ff0000"
       id="polygon966"
       transform="matrix(0,-0.26458333,0.26458333,0,18.494375,5.5969958)">
      <title
         id="title987">Right Horizontal Mark, RH</title>
    </polygon>
    <g
       id="g1859"
       transform="matrix(0,-0.26458333,0.26458333,0,4.6869802,17.939695)">
      <title
         id="title1855">Right Horizontal Mark, RH</title>
      <polygon
         points="0,0 12,0 8,4 8,60 4,60 4,4 "
         style="fill:#ff0000"
         id="polygon1857"
         transform="translate(0,-9.5002858)" />
    </g>
    <g
       id="g1865"
       transform="matrix(0,-0.26458333,0.26458333,0,4.7663552,5.6630284)">
      <title
         id="title1861">Right Horizontal Mark, RH</title>
      <polygon
         points="0,0 12,0 8,4 8,55 4,55 4,4 "
         style="fill:#ff0000"
         id="polygon1863"
         transform="translate(0,-5.4002857)" />
    </g>
    <g
       id="g928"
       transform="matrix(0,-0.26458333,0.26458333,0,4.6869802,8.7586533)">
      <title
         id="title924">Right Horizontal Mark, RH</title>
      <polygon
         points="8,50 4,50 4,4 0,0 12,0 8,4 "
         style="fill:#ff0000"
         id="polygon926" />
    </g>
    <g
       id="g934"
       transform="matrix(0,-0.26458333,0.26458333,0,4.6869802,14.949904)">
      <title
         id="title930">Right Horizontal Mark, RH</title>
      <polygon
         points="8,4 8,50 4,50 4,4 0,0 12,0 "
         style="fill:#ff0000"
         id="polygon932" />
    </g>
    <circle
       style="fill:#008000;fill-rule:evenodd;stroke-width:0.264583"
       id="circle1849"
       cx="18.583313"
       cy="3.9243755"
       r="0.79374999">
      <title
         id="title1851">3 Touch Connector, 3T</title>
    </circle>
    <circle
       style="fill:#008000;fill-rule:evenodd;stroke-width:0.264583"
       id="circle938"
       cx="32.158291"
       cy="4.0113444"
       r="0.79374999">
      <title
         id="title936">Northeast Corner Connector, NEC</title>
    </circle>
    <polygon
       points="0,0 12,0 8,4 8,52 4,52 4,4 "
       style="fill:#ff0000"
       id="polygon971"
       transform="matrix(0,-0.26458333,0.26458333,0,18.494375,17.926579)">
      <title
         id="title985">Right Horizontal Mark, RH</title>
    </polygon>
    <circle
       style="fill:#008000;fill-rule:evenodd;stroke-width:0.264583"
       id="circle975"
       cx="18.441572"
       cy="16.255848"
       r="0.79374999">
      <title
         id="title973">3 Touch Connector, 3T</title>
    </circle>
    <circle
       style="fill:#008000;fill-rule:evenodd;stroke-width:0.264583"
       id="circle1873"
       cx="32.063797"
       cy="16.201"
       r="0.79374999">
      <title
         id="title1871">Southeast Corner Connector, SEC</title>
    </circle>
    <circle
       style="fill:#008000;fill-rule:evenodd;stroke-width:0.264583"
       id="circle1869"
       cx="18.022093"
       cy="7.0918527"
       r="0.79374999">
      <title
         id="title1867">Right 2 Touch Connector, R2T</title>
    </circle>
    <circle
       style="fill:#008000;fill-rule:evenodd;stroke-width:0.264583"
       id="circle979"
       cx="18.090092"
       cy="10.16291"
       r="0.79374999">
      <title
         id="title977">Right 2 Touch Connector, R2T</title>
    </circle>
    <circle
       style="fill:#008000;fill-rule:evenodd;stroke-width:0.264583"
       id="circle983"
       cx="18.17317"
       cy="13.328461"
       r="0.79374999">
      <title
         id="title981">Right 2 Touch Connector, R2T</title>
    </circle>
  </g>
</svg>
