<?xml version="1.0" encoding="UTF-8" standalone="no"?>
<svg
   xmlns:dc="http://purl.org/dc/elements/1.1/"
   xmlns:cc="http://creativecommons.org/ns#"
   xmlns:rdf="http://www.w3.org/1999/02/22-rdf-syntax-ns#"
   xmlns:svg="http://www.w3.org/2000/svg"
   xmlns="http://www.w3.org/2000/svg"
   xmlns:sodipodi="http://sodipodi.sourceforge.net/DTD/sodipodi-0.dtd"
   xmlns:inkscape="http://www.inkscape.org/namespaces/inkscape"
   width="160"
   height="80"
   viewBox="0 0 42.333332 21.166667"
   version="1.1"
   id="svg8"
   inkscape:version="1.0.2-2 (e86c870879, 2021-01-15)"
   sodipodi:docname="m104w.svg">
  <defs
     id="defs2" />
  <sodipodi:namedview
     id="base"
     pagecolor="#ffffff"
     bordercolor="#666666"
     borderopacity="1.0"
     inkscape:pageopacity="0.0"
     inkscape:pageshadow="2"
     inkscape:zoom="5.6"
     inkscape:cx="80.415249"
     inkscape:cy="64.43875"
     inkscape:document-units="px"
     inkscape:current-layer="layer1"
     inkscape:document-rotation="0"
     showgrid="false"
     units="px"
     inkscape:window-width="1755"
     inkscape:window-height="1020"
     inkscape:window-x="194"
     inkscape:window-y="12"
     inkscape:window-maximized="0" />
  <metadata
     id="metadata5">
    <rdf:RDF>
      <cc:Work
         rdf:about="">
        <dc:format>image/svg+xml</dc:format>
        <dc:type
           rdf:resource="http://purl.org/dc/dcmitype/StillImage" />
        <dc:title></dc:title>
      </cc:Work>
    </rdf:RDF>
  </metadata>
  <g
     inkscape:label="Layer 1"
     inkscape:groupmode="layer"
     id="layer1">
    <g
       id="g1751"
       transform="matrix(0,-0.26458333,0.26458333,0,9.7896585,11.712538)">
      <title
         id="title1747">Right Horizontal Mark, RH</title>
      <polygon
         points="8,4 8,35 4,35 4,4 0,0 12,0 "
         style="fill:#ff0000"
         id="polygon1749" />
    </g>
    <g
       id="g1799"
       transform="matrix(0.26458333,0,0,0.26458333,21.295254,6.6457283)">
      <title
         id="title1795">Down Vertical Mark, DV</title>
      <polygon
         points="12,0 8,4 8,52 4,52 4,4 0,0 "
         style="fill:#ff0000"
         id="polygon1797"
         transform="translate(0,-13.699714)" />
    </g>
    <g
       id="g1859"
       transform="matrix(0,-0.26458333,0.26458333,0,9.7896585,17.797954)">
      <title
         id="title1855">Right Horizontal Mark, RH</title>
      <polygon
         points="8,60 4,60 4,4 0,0 12,0 8,4 "
         style="fill:#ff0000"
         id="polygon1857"
         transform="translate(0,-9.5002858)" />
    </g>
    <g
       id="g1865"
       transform="matrix(0,-0.26458333,0.26458333,0,9.8690335,5.5212876)">
      <title
         id="title1861">Right Horizontal Mark, RH</title>
      <polygon
         points="4,4 0,0 12,0 8,4 8,55 4,55 "
         style="fill:#ff0000"
         id="polygon1863"
         transform="translate(0,-5.4002857)" />
    </g>
    <g
       id="g928"
       transform="matrix(0,-0.26458333,0.26458333,0,9.7896585,8.6169125)">
      <title
         id="title924">Right Horizontal Mark, RH</title>
      <polygon
         points="8,4 8,50 4,50 4,4 0,0 12,0 "
         style="fill:#ff0000"
         id="polygon926" />
    </g>
    <g
       id="g934"
       transform="matrix(0,-0.26458333,0.26458333,0,9.7896585,14.808163)">
      <title
         id="title930">Right Horizontal Mark, RH</title>
      <polygon
         points="12,0 8,4 8,50 4,50 4,4 0,0 "
         style="fill:#ff0000"
         id="polygon932" />
    </g>
    <circle
       style="fill:#008000;fill-rule:evenodd;stroke-width:0.264583"
       id="circle1873"
       cx="22.926146"
       cy="16.091429"
       r="0.79374999">
      <title
         id="title1871">Southeast Corner Connector, SEC</title>
    </circle>
    <circle
       style="fill:#008000;fill-rule:evenodd;stroke-width:0.264583"
       id="circle1849"
       cx="22.911064"
       cy="3.9716229"
       r="0.79374999">
      <title
         id="title1851">Northeast Corner Connector, NEC</title>
    </circle>
    <circle
       style="fill:#008000;fill-rule:evenodd;stroke-width:0.264583"
       id="circle938"
       cx="22.820312"
       cy="6.8934131"
       r="0.79374999">
      <title
         id="title936">Right 2 Touch Connector, R2T</title>
    </circle>
    <circle
       style="fill:#008000;fill-rule:evenodd;stroke-width:0.264583"
       id="circle942"
       cx="22.740942"
       cy="13.296333"
       r="0.79374999">
      <title
         id="title940">Right 2 Touch Connector, R2T</title>
    </circle>
    <polygon
       points="0,40 4,35 4,4 0,0 12,0 8,4 8,35 12,40 "
       style="fill:#ff0000"
       id="polygon976"
       transform="matrix(0,-0.26458333,0.26458333,0,19.034919,11.698363)">
      <title
         id="title996">Right Horizontal Barbell, RHBB</title>
    </polygon>
    <g
       id="g994"
       transform="matrix(0.26458333,0,0,0.26458333,29.259212,6.6457283)">
      <title
         id="title990">Down Vertical Mark, DV</title>
      <polygon
         points="0,0 12,0 8,4 8,52 4,52 4,4 "
         style="fill:#ff0000"
         id="polygon992"
         transform="translate(0,-13.699714)" />
    </g>
    <circle
       style="fill:#008000;fill-rule:evenodd;stroke-width:0.264583"
       id="circle1869"
       cx="19.142609"
       cy="10.068416"
       r="0.79374999">
      <title
         id="title1867">Horizontal 2 Touch Connector, H2T</title>
    </circle>
    <circle
       style="fill:#008000;fill-rule:evenodd;stroke-width:0.264583"
       id="circle1000"
       cx="22.878899"
       cy="10.04381"
       r="0.79374999">
      <title
         id="title998">2 Cross Connector, 2C</title>
    </circle>
  </g>
</svg>
