<?xml version="1.0" encoding="UTF-8" standalone="no"?>
<svg
   xmlns:dc="http://purl.org/dc/elements/1.1/"
   xmlns:cc="http://creativecommons.org/ns#"
   xmlns:rdf="http://www.w3.org/1999/02/22-rdf-syntax-ns#"
   xmlns:svg="http://www.w3.org/2000/svg"
   xmlns="http://www.w3.org/2000/svg"
   width="160"
   height="80"
   viewBox="0 0 42.333332 21.166667"
   version="1.1"
   id="svg8">
  <defs
     id="defs2" />
  <metadata
     id="metadata5">
    <rdf:RDF>
      <cc:Work
         rdf:about="">
        <dc:format>image/svg+xml</dc:format>
        <dc:type
           rdf:resource="http://purl.org/dc/dcmitype/StillImage" />
        <dc:title></dc:title>
      </cc:Work>
    </rdf:RDF>
  </metadata>
  <g
     id="layer1">
    <g
       id="g1431"
       transform="matrix(0,-0.26458333,0.26458333,0,7.8750871,6.0740771)">
      <title
         id="title1427">Right Horizontal Mark, RH</title>
      <polygon
         points="12,0 8,4 8,40 4,40 4,4 0,0 "
         style="fill:#ff0000"
         id="polygon1429" />
    </g>
    <g
       id="g1451"
       transform="matrix(0,-0.26458333,0.26458333,0,9.4531371,11.322087)">
      <title
         id="title1447">Right Horizontal Mark, RH</title>
      <polygon
         points="12,0 8,4 8,35 4,35 4,4 0,0 "
         style="fill:#ff0000"
         id="polygon1449" />
    </g>
    <g
       id="g1548"
       transform="matrix(0,-0.26458333,0.26458333,0,7.9016397,16.472202)">
      <title
         id="title1544">Right Horizontal Mark, RH</title>
      <polygon
         points="8,4 8,40 4,40 4,4 0,0 12,0 "
         style="fill:#ff0000"
         id="polygon1546" />
    </g>
    <g
       id="g1554"
       transform="matrix(0.26458333,0,0,0.26458333,17.400087,3.5076186)">
      <title
         id="title1550">Down Vertical Mark, DV</title>
      <polygon
         points="8,4 8,45 4,45 4,4 0,0 12,0 "
         style="fill:#ff0000"
         id="polygon1552" />
    </g>
    <g
       id="g1560"
       transform="matrix(0,-0.26458333,0.26458333,0,9.4531371,14.311877)">
      <title
         id="title1556">Right Horizontal Mark, RH</title>
      <polygon
         points="0,0 12,0 8,4 8,35 4,35 4,4 "
         style="fill:#ff0000"
         id="polygon1558" />
    </g>
    <circle
       style="fill:#008000;fill-rule:evenodd;stroke-width:0.264583"
       id="path839"
       cx="19.025385"
       cy="14.860098"
       r="0.79374999">
      <title
         id="title1586">Southeast Corner Connector, SEC</title>
    </circle>
    <circle
       style="fill:#008000;fill-rule:evenodd;stroke-width:0.264583"
       id="circle1582"
       cx="18.930891"
       cy="4.2786164"
       r="0.79374999">
      <title
         id="title1584">Northeast Corner Connector, NEC</title>
    </circle>
    <g
       id="g946"
       transform="matrix(0,-0.26458333,0.26458333,0,19.533724,11.401462)">
      <title
         id="title942">Right Horizontal Mark, RH</title>
      <polygon
         points="8,4 8,15 4,15 4,4 0,0 12,0 "
         style="fill:#ff0000"
         id="polygon944" />
    </g>
    <circle
       style="fill:#008000;fill-rule:evenodd;stroke-width:0.264583"
       id="circle1578"
       cx="18.930891"
       cy="12.754807"
       r="0.79374999">
      <title
         id="title1590">Right 2 Touch Connector, R2T</title>
    </circle>
    <circle
       style="fill:#008000;fill-rule:evenodd;stroke-width:0.264583"
       id="circle950"
       cx="20.227398"
       cy="9.8179302"
       r="0.79374999">
      <title
         id="title948">Left 2 Touch Connector, L2T</title>
    </circle>
    <polygon
       points="8,35 4,35 4,4 0,0 12,0 8,4 "
       style="fill:#ff0000"
       id="polygon966"
       transform="matrix(0,-0.26458333,0.26458333,0,9.4531371,8.2529206)" />
    <circle
       style="fill:#008000;fill-rule:evenodd;stroke-width:0.264583"
       id="circle1580"
       cx="18.978138"
       cy="6.6466351"
       r="0.79374999">
      <title
         id="title1588">Right 2 Touch Connector, R2T</title>
    </circle>
    <polygon
       points="0,6 6,0 6,12 "
       style="fill:#ff0000"
       id="polygon983"
       transform="matrix(0.26458333,0,0,0.26458333,26.026429,9.7556025)">
      <title
         id="title997">Heel Mark, HE</title>
    </polygon>
    <polygon
       points="0,6 6,0 6,12 "
       style="fill:#ff0000"
       id="polygon1001"
       transform="matrix(0.26458333,0,0,0.26458333,24.438929,8.1681025)">
      <title
         id="title999">Heel Mark, HE</title>
    </polygon>
    <polygon
       points="0,6 6,0 6,12 "
       style="fill:#ff0000"
       id="polygon1005"
       transform="matrix(0.26458333,0,0,0.26458333,26.026429,6.5806025)">
      <title
         id="title1003">Heel Mark, HE</title>
    </polygon>
    <polygon
       points="0,6 6,0 6,12 "
       style="fill:#ff0000"
       id="polygon1009"
       transform="matrix(0.26458333,0,0,0.26458333,22.851429,9.7556025)">
      <title
         id="title1007">Heel Mark, HE</title>
    </polygon>
    <g
       id="g1015"
       transform="matrix(0.26458333,0,0,0.26458333,27.031014,3.5076186)">
      <title
         id="title1011">Down Vertical Mark, DV</title>
      <polygon
         points="8,4 8,45 4,45 4,4 0,0 12,0 "
         style="fill:#ff0000"
         id="polygon1013" />
    </g>
    <circle
       style="fill:#008000;fill-rule:evenodd;stroke-width:0.264583"
       id="circle1014"
       cx="18.475325"
       cy="9.7951393"
       r="0.79374999">
      <title
         id="title1012">Right 2 Touch Connector, R2T</title>
    </circle>
  </g>
</svg>
