<?xml version="1.0" encoding="UTF-8" standalone="no"?>
<svg
   xmlns:dc="http://purl.org/dc/elements/1.1/"
   xmlns:cc="http://creativecommons.org/ns#"
   xmlns:rdf="http://www.w3.org/1999/02/22-rdf-syntax-ns#"
   xmlns:svg="http://www.w3.org/2000/svg"
   xmlns="http://www.w3.org/2000/svg"
   width="160"
   height="80"
   viewBox="0 0 42.333332 21.166667"
   version="1.1"
   id="svg8">
  <defs
     id="defs2" />
  <metadata
     id="metadata5">
    <rdf:RDF>
      <cc:Work
         rdf:about="">
        <dc:format>image/svg+xml</dc:format>
        <dc:type
           rdf:resource="http://purl.org/dc/dcmitype/StillImage" />
        <dc:title></dc:title>
      </cc:Work>
    </rdf:RDF>
  </metadata>
  <g
     id="layer1">
    <g
       id="g1751"
       transform="matrix(0,-0.26458333,0.26458333,0,9.506177,11.901526)">
      <title
         id="title1747">Right Horizontal Mark, RH</title>
      <polygon
         points="0,0 12,0 8,4 8,50 4,50 4,4 "
         style="fill:#ff0000"
         id="polygon1749" />
    </g>
    <g
       id="g1799"
       transform="matrix(0.26458333,0,0,0.26458333,21.646885,6.4906826)">
      <title
         id="title1795">Down Vertical Mark, DV</title>
      <polygon
         points="8,60 4,60 4,4 0,0 12,0 8,4 "
         style="fill:#ff0000"
         id="polygon1797"
         transform="translate(0,-13.099714)" />
    </g>
    <g
       id="g1859"
       transform="matrix(0,-0.26458333,0.26458333,0,9.506177,17.986942)">
      <title
         id="title1855">Right Horizontal Mark, RH</title>
      <polygon
         points="4,60 4,4 0,0 12,0 8,4 8,60 "
         style="fill:#ff0000"
         id="polygon1857"
         transform="translate(0,-9.5002858)" />
    </g>
    <g
       id="g1865"
       transform="matrix(0,-0.26458333,0.26458333,0,9.585552,5.7102752)">
      <title
         id="title1861">Right Horizontal Mark, RH</title>
      <polygon
         points="0,0 12,0 8,4 8,55 4,55 4,4 "
         style="fill:#ff0000"
         id="polygon1863"
         transform="translate(0,-5.4002857)" />
    </g>
    <circle
       style="fill:#008000;fill-rule:evenodd;stroke-width:0.264583"
       id="circle1869"
       cx="23.145485"
       cy="10.257403"
       r="0.79374999">
      <title
         id="title1867">Right 2 Touch Connector, R2T</title>
    </circle>
    <g
       id="g928"
       transform="matrix(0,-0.26458333,0.26458333,0,9.506177,8.8059001)">
      <title
         id="title924">Right Horizontal Mark, RH</title>
      <polygon
         points="8,50 4,50 4,4 0,0 12,0 8,4 "
         style="fill:#ff0000"
         id="polygon926" />
    </g>
    <g
       id="g934"
       transform="matrix(0,-0.26458333,0.26458333,0,9.506177,14.997151)">
      <title
         id="title930">Right Horizontal Mark, RH</title>
      <polygon
         points="8,4 8,50 4,50 4,4 0,0 12,0 "
         style="fill:#ff0000"
         id="polygon932" />
    </g>
    <circle
       style="fill:#008000;fill-rule:evenodd;stroke-width:0.264583"
       id="circle1873"
       cx="23.251318"
       cy="16.201"
       r="0.79374999">
      <title
         id="title1871">Right 2 Touch Connector, R2T</title>
    </circle>
    <circle
       style="fill:#008000;fill-rule:evenodd;stroke-width:0.264583"
       id="circle1849"
       cx="23.183321"
       cy="4.1606107"
       r="0.79374999">
      <title
         id="title1851">Northeast Corner Connector, NEC</title>
    </circle>
    <circle
       style="fill:#008000;fill-rule:evenodd;stroke-width:0.264583"
       id="circle938"
       cx="23.224861"
       cy="7.0824008"
       r="0.79374999">
      <title
         id="title936">Right 2 Touch Connector, R2T</title>
    </circle>
    <circle
       style="fill:#008000;fill-rule:evenodd;stroke-width:0.264583"
       id="circle942"
       cx="23.251318"
       cy="13.485321"
       r="0.79374999">
      <title
         id="title940">Right 2 Touch Connector, R2T</title>
    </circle>
    <polygon
       points="0,0 12,0 8,4 8,28 12,28 8,32 8,60 4,60 4,32 0,28 4,28 4,4 "
       style="fill:#ff0000"
       id="polygon1002"
       transform="matrix(0.26458333,0,0,0.26458333,25.615635,3.0247166)" />
  </g>
</svg>
