<?xml version="1.0" encoding="UTF-8" standalone="no"?>
<svg
   xmlns:dc="http://purl.org/dc/elements/1.1/"
   xmlns:cc="http://creativecommons.org/ns#"
   xmlns:rdf="http://www.w3.org/1999/02/22-rdf-syntax-ns#"
   xmlns:svg="http://www.w3.org/2000/svg"
   xmlns="http://www.w3.org/2000/svg"
   width="160"
   height="80"
   viewBox="0 0 42.333332 21.166667"
   version="1.1"
   id="svg8">
  <defs
     id="defs2" />
  <metadata
     id="metadata5">
    <rdf:RDF>
      <cc:Work
         rdf:about="">
        <dc:format>image/svg+xml</dc:format>
        <dc:type
           rdf:resource="http://purl.org/dc/dcmitype/StillImage" />
        <dc:title></dc:title>
      </cc:Work>
    </rdf:RDF>
  </metadata>
  <g
     id="layer1">
    <polygon
       points="0,0 12,0 8,4 8,45 12,50 0,50 4,45 4,4 "
       style="fill:#ff0000"
       id="polygon863"
       transform="matrix(0,-0.26458333,0.26458333,0,20.197659,6.9453715)">
      <title
         id="title1048">Right Horizontal Barbell Mark, RHBB</title>
    </polygon>
    <g
       id="g895"
       transform="matrix(0.26458333,0,0,0.26458333,21.255992,5.8870065)">
      <title
         id="title891">Down Vertical Mark, DV</title>
      <polygon
         points="12,0 8,4 8,40 4,40 4,4 0,0 "
         style="fill:#ff0000"
         id="polygon893">
        <title
           id="title1052">Down Vertical Mark, DV</title>
      </polygon>
    </g>
    <g
       id="g912"
       transform="matrix(0.26458333,0,0,0.26458333,24.933605,5.8870065)">
      <title
         id="title908">Down Vertical Mark, DV</title>
      <polygon
         points="8,4 8,40 4,40 4,4 0,0 12,0 "
         style="fill:#ff0000"
         id="polygon910">
        <title
           id="title1050">Down Vertical Mark, DV</title>
      </polygon>
    </g>
    <g
       id="g918"
       transform="matrix(0.26458333,0,0,0.26458333,28.82298,5.8870065)">
      <title
         id="title914">Down Vertical Mark, DV</title>
      <polygon
         points="4,40 4,4 0,0 12,0 8,4 8,40 "
         style="fill:#ff0000"
         id="polygon916">
        <title
           id="title1058">Down Vertical Mark, DV</title>
      </polygon>
    </g>
    <g
       id="g955"
       transform="matrix(0.26458333,0,0,0.26458333,13.505177,7.6242585)">
      <title
         id="title951">Right Horizontal Mark, RH</title>
      <polygon
         points="4,50 4,4 0,0 12,0 8,4 8,50 "
         style="fill:#ff0000"
         id="polygon953"
         transform="rotate(-90,28.728432,3.1554511)">
        <title
           id="title1056">Right Horizontal Mark, RH</title>
      </polygon>
    </g>
    <g
       id="g975"
       transform="matrix(0.26458333,0,0,0.26458333,18.168209,10.9707)">
      <title
         id="title971" />
      <polygon
         points="0,0 12,0 8,4 8,25 4,25 4,4 "
         style="fill:#ff0000"
         id="polygon973">
        <title
           id="title1054">Down Vertical Mark, DV</title>
      </polygon>
    </g>
    <polygon
       points="8,35 12,40 0,40 4,35 4,4 0,0 12,0 8,4 "
       style="fill:#ff0000"
       id="polygon1000"
       transform="matrix(0,-0.26458333,0.26458333,0,5.4310191,11.288501)">
      <title
         id="title1042">Right Horizontal Barbell Mark, RHBB</title>
    </polygon>
    <polygon
       points="6,12 0,6 6,0 "
       style="fill:#ff0000"
       id="polygon1026"
       transform="matrix(0.26458333,0,0,0.26458333,16.225109,4.9771045)">
      <title
         id="title1044">Heel Mark, HE</title>
    </polygon>
    <polygon
       points="6,0 6,12 0,6 "
       style="fill:#ff0000"
       id="polygon1040"
       transform="matrix(0.26458333,0,0,0.26458333,16.07958,11.466275)">
      <title
         id="title1046">Heel Mark, HE</title>
    </polygon>
    <circle
       style="fill:#008000;fill-rule:evenodd;stroke-width:0.264583"
       id="path839"
       cx="22.914804"
       cy="5.6696429"
       r="0.79374999">
      <title
         id="title996">Top 2 Touch Connector, T2T</title>
    </circle>
    <circle
       style="fill:#008000;fill-rule:evenodd;stroke-width:0.264583"
       id="circle980"
       cx="26.505577"
       cy="14.504835"
       r="0.79374999">
      <title
         id="title1002">2 Cross Connector, 2C</title>
    </circle>
    <circle
       style="fill:#008000;fill-rule:evenodd;stroke-width:0.264583"
       id="circle982"
       cx="22.820309"
       cy="14.552083"
       r="0.79374999">
      <title
         id="title1004">2 Cross Connector, 2C</title>
    </circle>
    <circle
       style="fill:#008000;fill-rule:evenodd;stroke-width:0.264583"
       id="circle986"
       cx="20.363464"
       cy="14.504837"
       r="0.79374999">
      <title
         id="title1006">Left 2 Touch, L2T</title>
    </circle>
    <circle
       style="fill:#008000;fill-rule:evenodd;stroke-width:0.264583"
       id="circle988"
       cx="26.552826"
       cy="5.6696429"
       r="0.79374999">
      <title
         id="title994">Top 2 Touch Connector, T2T</title>
    </circle>
    <circle
       style="fill:#008000;fill-rule:evenodd;stroke-width:0.264583"
       id="circle990"
       cx="30.427082"
       cy="5.622396"
       r="0.79374999">
      <title
         id="title992">Top 2 Touch Connector, T2T</title>
    </circle>
    <circle
       style="fill:#008000;fill-rule:evenodd;stroke-width:0.264583"
       id="circle998"
       cx="30.332586"
       cy="14.599331"
       r="0.79374999">
      <title
         id="title1000">2 Cross Connector, 2C</title>
    </circle>
    <g
       id="g1038"
       transform="matrix(0.26458333,0,0,0.26458333,32.38311,9.7328866)">
      <title
         id="title1034">Down Vertical Mark, DV</title>
      <polygon
         points="8,25 4,25 4,4 0,0 12,0 8,4 "
         style="fill:#ff0000"
         id="polygon1036" />
    </g>
    <circle
       style="fill:#008000;fill-rule:evenodd;stroke-width:0.264583"
       id="circle1053"
       cx="33.734371"
       cy="14.457589"
       r="0.79374999">
      <title
         id="title1051">right 2 Touch, R2T</title>
    </circle>
  </g>
</svg>
