<?xml version="1.0" encoding="UTF-8" standalone="no"?>
<svg
   xmlns:dc="http://purl.org/dc/elements/1.1/"
   xmlns:cc="http://creativecommons.org/ns#"
   xmlns:rdf="http://www.w3.org/1999/02/22-rdf-syntax-ns#"
   xmlns:svg="http://www.w3.org/2000/svg"
   xmlns="http://www.w3.org/2000/svg"
   width="160"
   height="80"
   viewBox="0 0 42.333332 21.166667"
   version="1.1"
   id="svg8">
  <defs
     id="defs2" />
  <metadata
     id="metadata5">
    <rdf:RDF>
      <cc:Work
         rdf:about="">
        <dc:format>image/svg+xml</dc:format>
        <dc:type
           rdf:resource="http://purl.org/dc/dcmitype/StillImage" />
        <dc:title></dc:title>
      </cc:Work>
    </rdf:RDF>
  </metadata>
  <g
     id="layer1">
    <g
       id="g857"
       transform="matrix(0,-0.26458333,0.26458333,0,10.460491,8.1548367)">
      <title
         id="title853">Right Horizontal Mark, RH</title>
      <polygon
         points="4,72 4,4 0,0 12,0 8,4 8,72 "
         style="fill:#ff0000"
         id="polygon855" />
    </g>
    <g
       id="g874"
       transform="matrix(0,-0.26458333,0.26458333,0,10.460491,11.065139)">
      <title
         id="title870">Right Horizontal Mark, RH</title>
      <polygon
         points="8,72 4,72 4,4 0,0 12,0 8,4 "
         style="fill:#ff0000"
         id="polygon872" />
    </g>
    <g
       id="g880"
       transform="matrix(0,-0.26458333,0.26458333,0,10.460491,14.081389)">
      <title
         id="title876">Right Horizontal Mark, RH</title>
      <polygon
         points="12,0 8,4 8,72 4,72 4,4 0,0 "
         style="fill:#ff0000"
         id="polygon878" />
    </g>
    <g
       id="g886"
       transform="matrix(0,-0.26458333,0.26458333,0,10.460491,17.097638)">
      <title
         id="title882">Right Horizontal Mark, RH</title>
      <polygon
         points="8,72 4,72 4,4 0,0 12,0 8,4 "
         style="fill:#ff0000"
         id="polygon884" />
    </g>
    <polygon
       points="8,50 4,50 4,4 0,0 12,0 8,4 "
       style="fill:#ff0000"
       id="polygon904"
       transform="matrix(0.26458333,0,0,0.26458333,14.750521,4.0632441)">
      <title
         id="title997">Down Vertical Mark, DV</title>
    </polygon>
    <polygon
       points="12,0 8,4 8,50 4,50 4,4 0,0 "
       style="fill:#ff0000"
       id="polygon919"
       transform="matrix(0.26458333,0,0,0.26458333,17.925521,4.0632441)" />
    <polygon
       points="8,50 4,50 4,4 0,0 12,0 8,4 "
       style="fill:#ff0000"
       id="polygon925"
       transform="matrix(0.26458333,0,0,0.26458333,17.978437,4.0632441)">
      <title
         id="title999">Down Vertical Mark, DV</title>
    </polygon>
    <polygon
       points="4,50 4,4 0,0 12,0 8,4 8,50 "
       style="fill:#ff0000"
       id="polygon931"
       transform="matrix(0.26458333,0,0,0.26458333,21.259271,4.0632441)">
      <title
         id="title1001">Down Vertical Mark, DV</title>
    </polygon>
    <circle
       style="fill:#008000;fill-rule:evenodd;stroke-width:0.264583"
       id="path839"
       cx="16.252977"
       cy="15.544271"
       r="0.79374999">
      <title
         id="title951">2 Cross Connector, 2C</title>
    </circle>
    <circle
       style="fill:#008000;fill-rule:evenodd;stroke-width:0.264583"
       id="circle955"
       cx="16.300224"
       cy="6.5200887"
       r="0.79374999">
      <title
         id="title953">2 Cross Connector, 2C</title>
    </circle>
    <circle
       style="fill:#008000;fill-rule:evenodd;stroke-width:0.264583"
       id="circle959"
       cx="19.560268"
       cy="6.4728417"
       r="0.79374999">
      <title
         id="title957">2 Cross Connector, 2C</title>
    </circle>
    <circle
       style="fill:#008000;fill-rule:evenodd;stroke-width:0.264583"
       id="circle963"
       cx="22.773066"
       cy="6.5200887"
       r="0.79374999">
      <title
         id="title961">2 Cross Connector, 2C</title>
    </circle>
    <circle
       style="fill:#008000;fill-rule:evenodd;stroke-width:0.264583"
       id="circle967"
       cx="22.914806"
       cy="9.3549099"
       r="0.79374999">
      <title
         id="title965">2 Cross Connector, 2C</title>
    </circle>
    <circle
       style="fill:#008000;fill-rule:evenodd;stroke-width:0.264583"
       id="circle971"
       cx="19.560268"
       cy="9.5438976"
       r="0.79374999">
      <title
         id="title969">2 Cross Connector, 2C</title>
    </circle>
    <circle
       style="fill:#008000;fill-rule:evenodd;stroke-width:0.264583"
       id="circle975"
       cx="16.300224"
       cy="9.4494038"
       r="0.79374999">
      <title
         id="title973">2 Cross Connector, 2C</title>
    </circle>
    <circle
       style="fill:#008000;fill-rule:evenodd;stroke-width:0.264583"
       id="circle979"
       cx="16.347471"
       cy="12.473213"
       r="0.79374999">
      <title
         id="title977">2 Cross Connector, 2C</title>
    </circle>
    <circle
       style="fill:#008000;fill-rule:evenodd;stroke-width:0.264583"
       id="circle983"
       cx="19.607515"
       cy="12.473213"
       r="0.79374999">
      <title
         id="title981">2 Cross Connector, 2C</title>
    </circle>
    <circle
       style="fill:#008000;fill-rule:evenodd;stroke-width:0.264583"
       id="circle987"
       cx="22.914806"
       cy="12.378719"
       r="0.79374999">
      <title
         id="title985">2 Cross Connector, 2C</title>
    </circle>
    <circle
       style="fill:#008000;fill-rule:evenodd;stroke-width:0.264583"
       id="circle991"
       cx="22.820312"
       cy="15.449776"
       r="0.79374999">
      <title
         id="title989">2 Cross Connector, 2C</title>
    </circle>
    <circle
       style="fill:#008000;fill-rule:evenodd;stroke-width:0.264583"
       id="circle995"
       cx="19.560268"
       cy="15.449776"
       r="0.79374999">
      <title
         id="title993">2 Cross Connector, 2C</title>
    </circle>
  </g>
</svg>
