<?xml version="1.0" encoding="UTF-8" standalone="no"?>
<svg
   xmlns:dc="http://purl.org/dc/elements/1.1/"
   xmlns:cc="http://creativecommons.org/ns#"
   xmlns:rdf="http://www.w3.org/1999/02/22-rdf-syntax-ns#"
   xmlns:svg="http://www.w3.org/2000/svg"
   xmlns="http://www.w3.org/2000/svg"
   width="160"
   height="80"
   viewBox="0 0 42.333332 21.166667"
   version="1.1"
   id="svg8">
  <defs
     id="defs2" />
  <metadata
     id="metadata5">
    <rdf:RDF>
      <cc:Work
         rdf:about="">
        <dc:format>image/svg+xml</dc:format>
        <dc:type
           rdf:resource="http://purl.org/dc/dcmitype/StillImage" />
        <dc:title></dc:title>
      </cc:Work>
    </rdf:RDF>
  </metadata>
  <g
     id="layer1">
    <g
       id="g857"
       transform="matrix(0,-0.26458333,0.26458333,0,10.932961,6.4066966)">
      <title
         id="title853">Right Horizontal Mark, RH</title>
      <polygon
         points="0,0 12,0 8,4 8,72 4,72 4,4 "
         style="fill:#ff0000"
         id="polygon855" />
    </g>
    <g
       id="g874"
       transform="matrix(0,-0.26458333,0.26458333,0,10.932961,9.4228707)">
      <title
         id="title870">Right Horizontal Mark, RH</title>
      <polygon
         points="12,0 8,4 8,72 4,72 4,4 0,0 "
         style="fill:#ff0000"
         id="polygon872" />
    </g>
    <g
       id="g880"
       transform="matrix(0,-0.26458333,0.26458333,0,10.985764,12.518496)">
      <title
         id="title876">Right Horizontal Mark, RH</title>
      <polygon
         points="4,72 4,4 0,0 12,0 8,4 8,72 "
         style="fill:#ff0000"
         id="polygon878" />
    </g>
    <g
       id="g886"
       transform="matrix(0,-0.26458333,0.26458333,0,10.985764,15.455371)">
      <title
         id="title882">Right Horizontal Mark, RH</title>
      <polygon
         points="4,72 4,4 0,0 12,0 8,4 8,72 "
         style="fill:#ff0000"
         id="polygon884" />
    </g>
    <g
       id="g906"
       transform="matrix(0.26458333,0,0,0.26458333,28.871598,3.8137041)">
      <title
         id="title902">Down Vertical Mark, DV</title>
      <polygon
         points="4,40 4,4 0,0 12,0 8,4 8,40 "
         style="fill:#ff0000"
         id="polygon904" />
    </g>
    <g
       id="g923"
       transform="matrix(0.26458333,0,0,0.26458333,18.711598,5.1101625)">
      <title
         id="title919">Down Vertical Mark, DV</title>
      <polygon
         points="8,4 8,32 4,32 4,4 0,0 12,0 "
         style="fill:#ff0000"
         id="polygon921" />
    </g>
    <polygon
       points="6,0 6,12 0,6 "
       style="fill:#ff0000"
       id="polygon937"
       transform="matrix(0.26458333,0,0,0.26458333,17.96706,7.8146581)">
      <title
         id="title951">Heel Mark, HE</title>
    </polygon>
    <circle
       style="fill:#008000;fill-rule:evenodd;stroke-width:0.264583"
       id="path839"
       cx="20.221727"
       cy="11.008556"
       r="0.79374999">
      <title
         id="title993">2 Cross Connector, 2C</title>
    </circle>
    <circle
       style="fill:#008000;fill-rule:evenodd;stroke-width:0.264583"
       id="circle969"
       cx="30.33259"
       cy="4.7247019"
       r="0.79374999">
      <title
         id="title971">Northeast Corner Connector, NEC</title>
    </circle>
    <circle
       style="fill:#008000;fill-rule:evenodd;stroke-width:0.264583"
       id="circle973"
       cx="30.379837"
       cy="13.79613"
       r="0.79374999">
      <title
         id="title975">Southeast Corner Connector, SEC</title>
    </circle>
    <circle
       style="fill:#008000;fill-rule:evenodd;stroke-width:0.264583"
       id="circle977"
       cx="30.379839"
       cy="7.9374995"
       r="0.79374999">
      <title
         id="title979">Right 2 Touch Connector, R2T</title>
    </circle>
    <circle
       style="fill:#008000;fill-rule:evenodd;stroke-width:0.264583"
       id="circle983"
       cx="30.332592"
       cy="10.866816"
       r="0.79374999">
      <title
         id="title981">Right 2 Touch Connector, R2T</title>
    </circle>
    <circle
       style="fill:#008000;fill-rule:evenodd;stroke-width:0.264583"
       id="circle985"
       cx="20.363468"
       cy="5.2444201"
       r="0.79374999">
      <title
         id="title987">Top 2 Touch Connector, T2T</title>
    </circle>
    <circle
       style="fill:#008000;fill-rule:evenodd;stroke-width:0.264583"
       id="circle989"
       cx="20.363468"
       cy="13.654389"
       r="0.79374999">
      <title
         id="title991">Bottom 2 Touch Connector, B2T</title>
    </circle>
    <circle
       style="fill:#008000;fill-rule:evenodd;stroke-width:0.264583"
       id="circle997"
       cx="20.363468"
       cy="7.7957587"
       r="0.79374999">
      <title
         id="title995">2 Cross Connector, 2C</title>
    </circle>
  </g>
</svg>
