<?xml version="1.0" encoding="UTF-8" standalone="no"?>
<svg
   xmlns:dc="http://purl.org/dc/elements/1.1/"
   xmlns:cc="http://creativecommons.org/ns#"
   xmlns:rdf="http://www.w3.org/1999/02/22-rdf-syntax-ns#"
   xmlns:svg="http://www.w3.org/2000/svg"
   xmlns="http://www.w3.org/2000/svg"
   width="160"
   height="80"
   viewBox="0 0 42.333332 21.166667"
   version="1.1"
   id="svg8">
  <defs
     id="defs2" />
  <metadata
     id="metadata5">
    <rdf:RDF>
      <cc:Work
         rdf:about="">
        <dc:format>image/svg+xml</dc:format>
        <dc:type
           rdf:resource="http://purl.org/dc/dcmitype/StillImage" />
        <dc:title></dc:title>
      </cc:Work>
    </rdf:RDF>
  </metadata>
  <g
     id="layer1">
    <g
       id="g857"
       transform="matrix(0,-0.26458333,0.26458333,0,6.7752234,5.5221188)">
      <title
         id="title853">Right Horizontal Mark, RH</title>
      <polygon
         points="12,0 8,4 8,90 4,90 4,4 0,0 "
         style="fill:#ff0000"
         id="polygon855" />
    </g>
    <g
       id="g874"
       transform="matrix(0,-0.26458333,0.26458333,0,6.7752234,14.967744)">
      <title
         id="title870">Right Horizontal Mark, RH</title>
      <polygon
         points="12,0 8,4 8,90 4,90 4,4 0,0 "
         style="fill:#ff0000"
         id="polygon872" />
    </g>
    <g
       id="g923"
       transform="matrix(0.26458333,0,0,0.26458333,18.60206,2.2942021)">
      <title
         id="title919">Down Vertical Mark, DV</title>
      <polygon
         points="12,0 8,4 8,40 4,40 4,4 0,0 "
         style="fill:#ff0000"
         id="polygon921" />
    </g>
    <g
       id="g929"
       transform="matrix(0.26458333,0,0,0.26458333,28.418102,2.2942021)">
      <title
         id="title925">Down Vertical Mark, DV</title>
      <polygon
         points="0,0 12,0 8,4 8,40 4,40 4,4 "
         style="fill:#ff0000"
         id="polygon927" />
    </g>
    <circle
       style="fill:#008000;fill-rule:evenodd;stroke-width:0.264583"
       id="path839"
       cx="30.096354"
       cy="13.323661"
       r="0.79374999">
      <title
         id="title1035">Southeast Corner Connector, SEC</title>
    </circle>
    <circle
       style="fill:#008000;fill-rule:evenodd;stroke-width:0.264583"
       id="circle959"
       cx="20.221725"
       cy="13.040178"
       r="0.79374999">
      <title
         id="title961">Bottom 2 Touch Connector, B2T</title>
    </circle>
    <circle
       style="fill:#008000;fill-rule:evenodd;stroke-width:0.264583"
       id="circle1001"
       cx="20.127232"
       cy="4.0159979"
       r="0.79374999">
      <title
         id="title999">2 Cross Connector, 2C</title>
    </circle>
    <circle
       style="fill:#008000;fill-rule:evenodd;stroke-width:0.264583"
       id="circle1031"
       cx="29.860117"
       cy="3.7797625"
       r="0.79374999">
      <desc
         id="desc1037">This could also be written as a NEC.</desc>
      <title
         id="title1033">Right 2 Touch Connector, R2T</title>
    </circle>
    <g
       id="g1057"
       transform="matrix(0.26458333,0,0,0.26458333,8.4912728,6.3311008)">
      <title
         id="title1053">Down Vertical Mark, DV</title>
      <polygon
         points="4,4 0,0 12,0 8,4 8,25 4,25 "
         style="fill:#ff0000"
         id="polygon1055" />
    </g>
    <circle
       style="fill:#008000;fill-rule:evenodd;stroke-width:0.264583"
       id="circle965"
       cx="10.110864"
       cy="12.898438"
       r="0.79374999">
      <title
         id="title963">Bottom 2 Touch Connector, B2T</title>
    </circle>
    <g
       id="g1074"
       transform="matrix(0.26458333,0,0,0.26458333,11.825023,6.3311008)">
      <title
         id="title1070">Down Vertical Mark, DV</title>
      <polygon
         points="12,0 8,4 8,25 4,25 4,4 0,0 "
         style="fill:#ff0000"
         id="polygon1072" />
    </g>
    <circle
       style="fill:#008000;fill-rule:evenodd;stroke-width:0.264583"
       id="circle969"
       cx="13.418155"
       cy="12.945684"
       r="0.79374999">
      <title
         id="title967">Bottom 2 Touch Connector, B2T</title>
    </circle>
    <g
       id="g1094"
       transform="matrix(0.26458333,0,0,0.26458333,21.705283,4.3939741)">
      <title
         id="title1090">Down Vertical Mark, DV</title>
      <polygon
         points="4,4 0,0 12,0 8,4 8,36 4,36 "
         style="fill:#ff0000"
         id="polygon1092" />
    </g>
    <g
       id="g1111"
       transform="matrix(0.26458333,0,0,0.26458333,24.906816,4.3939741)">
      <title
         id="title1107">Down Vertical Mark, DV</title>
      <polygon
         points="4,36 4,4 0,0 12,0 8,4 8,36 "
         style="fill:#ff0000"
         id="polygon1109" />
    </g>
    <polygon
       points="12,0 8,4 8,55 4,55 4,4 0,0 "
       style="fill:#ff0000"
       id="polygon1129"
       transform="matrix(0,-0.26458333,0.26458333,0,15.723923,9.1715166)">
      <title
         id="title1182">Right Horizontal Mark, RH</title>
    </polygon>
    <polygon
       points="8,4 8,55 4,55 4,4 0,0 12,0 "
       style="fill:#ff0000"
       id="polygon1144"
       transform="matrix(0,-0.26458333,0.26458333,0,15.723923,12.240683)">
      <title
         id="title1180">Right Horizontal Mark, RH</title>
    </polygon>
    <circle
       style="fill:#008000;fill-rule:evenodd;stroke-width:0.264583"
       id="circle1005"
       cx="20.268974"
       cy="7.553854"
       r="0.79374999">
      <title
         id="title1003">2 Cross Connector, 2C</title>
    </circle>
    <circle
       style="fill:#008000;fill-rule:evenodd;stroke-width:0.264583"
       id="circle993"
       cx="29.741018"
       cy="7.5803113"
       r="0.79374999">
      <title
         id="title991">Right 2 Touch Connector, R2T</title>
    </circle>
    <circle
       style="fill:#008000;fill-rule:evenodd;stroke-width:0.264583"
       id="circle1009"
       cx="20.316221"
       cy="10.621169"
       r="0.79374999">
      <title
         id="title1007">2 Cross Connector, 2C</title>
    </circle>
    <circle
       style="fill:#008000;fill-rule:evenodd;stroke-width:0.264583"
       id="circle987"
       cx="29.765625"
       cy="10.609793"
       r="0.79374999">
      <title
         id="title989">Right 2 Touch Connector, R2T</title>
    </circle>
    <circle
       style="fill:#008000;fill-rule:evenodd;stroke-width:0.264583"
       id="circle1150"
       cx="26.460186"
       cy="7.553854"
       r="0.79374999">
      <title
         id="title1148">2 Cross Connector, 2C</title>
    </circle>
    <circle
       style="fill:#008000;fill-rule:evenodd;stroke-width:0.264583"
       id="circle1154"
       cx="23.391018"
       cy="7.553854"
       r="0.79374999">
      <title
         id="title1152">2 Cross Connector, 2C</title>
    </circle>
    <circle
       style="fill:#008000;fill-rule:evenodd;stroke-width:0.264583"
       id="circle1158"
       cx="23.391018"
       cy="10.517187"
       r="0.79374999">
      <title
         id="title1156">2 Cross Connector, 2C</title>
    </circle>
    <circle
       style="fill:#008000;fill-rule:evenodd;stroke-width:0.264583"
       id="circle1162"
       cx="26.407269"
       cy="10.517187"
       r="0.79374999">
      <title
         id="title1160">2 Cross Connector, 2C</title>
    </circle>
    <circle
       style="fill:#008000;fill-rule:evenodd;stroke-width:0.264583"
       id="circle1166"
       cx="26.518923"
       cy="13.040178"
       r="0.79374999">
      <title
         id="title1164">Bottom 2 Touch Connector, B2T</title>
    </circle>
    <circle
       style="fill:#008000;fill-rule:evenodd;stroke-width:0.264583"
       id="circle1170"
       cx="23.291006"
       cy="13.040178"
       r="0.79374999">
      <title
         id="title1168">Bottom 2 Touch Connector, B2T</title>
    </circle>
    <circle
       style="fill:#008000;fill-rule:evenodd;stroke-width:0.264583"
       id="circle1174"
       cx="26.55468"
       cy="4.5772915"
       r="0.79374999">
      <title
         id="title1172">Top 2 Touch Connector, T2T</title>
    </circle>
    <circle
       style="fill:#008000;fill-rule:evenodd;stroke-width:0.264583"
       id="circle1178"
       cx="23.300266"
       cy="4.5772915"
       r="0.79374999">
      <title
         id="title1176">Top 2 Touch Connector, T2T</title>
    </circle>
  </g>
</svg>
