<?xml version="1.0" encoding="UTF-8" standalone="no"?>
<svg
   xmlns:dc="http://purl.org/dc/elements/1.1/"
   xmlns:cc="http://creativecommons.org/ns#"
   xmlns:rdf="http://www.w3.org/1999/02/22-rdf-syntax-ns#"
   xmlns:svg="http://www.w3.org/2000/svg"
   xmlns="http://www.w3.org/2000/svg"
   width="160"
   height="80"
   viewBox="0 0 42.333332 21.166667"
   version="1.1"
   id="svg8">
  <defs
     id="defs2" />
  <metadata
     id="metadata5">
    <rdf:RDF>
      <cc:Work
         rdf:about="">
        <dc:format>image/svg+xml</dc:format>
        <dc:type
           rdf:resource="http://purl.org/dc/dcmitype/StillImage" />
        <dc:title></dc:title>
      </cc:Work>
    </rdf:RDF>
  </metadata>
  <g
     id="layer1">
    <g
       id="g857"
       transform="matrix(0,-0.26458333,0.26458333,0,6.7752234,5.5221188)">
      <title
         id="title853">Right Horizontal Mark, RH</title>
      <polygon
         points="8,90 4,90 4,4 0,0 12,0 8,4 "
         style="fill:#ff0000"
         id="polygon855" />
    </g>
    <g
       id="g874"
       transform="matrix(0,-0.26458333,0.26458333,0,6.7752234,14.967744)">
      <title
         id="title870">Right Horizontal Mark, RH</title>
      <polygon
         points="12,0 8,4 8,90 4,90 4,4 0,0 "
         style="fill:#ff0000"
         id="polygon872" />
    </g>
    <g
       id="g894"
       transform="matrix(0.26458333,0,0,0.26458333,8.4420604,4.4637855)">
      <title
         id="title890">Down Vertical Mark, DV</title>
      <polygon
         points="8,35 4,35 4,4 0,0 12,0 8,4 "
         style="fill:#ff0000"
         id="polygon892" />
    </g>
    <g
       id="g911"
       transform="matrix(0.26458333,0,0,0.26458333,11.828727,4.4637855)">
      <title
         id="title907">Down Vertical Mark, DV</title>
      <polygon
         points="12,0 8,4 8,35 4,35 4,4 0,0 "
         style="fill:#ff0000"
         id="polygon909" />
    </g>
    <g
       id="g917"
       transform="matrix(0.26458333,0,0,0.26458333,15.10956,4.4637855)">
      <title
         id="title913">Down Vertical Mark, DV</title>
      <polygon
         points="8,35 4,35 4,4 0,0 12,0 8,4 "
         style="fill:#ff0000"
         id="polygon915" />
    </g>
    <g
       id="g923"
       transform="matrix(0.26458333,0,0,0.26458333,18.60206,2.2942021)">
      <title
         id="title919">Down Vertical Mark, DV</title>
      <polygon
         points="12,0 8,4 8,40 4,40 4,4 0,0 "
         style="fill:#ff0000"
         id="polygon921" />
    </g>
    <g
       id="g929"
       transform="matrix(0.26458333,0,0,0.26458333,28.418102,2.2942021)">
      <title
         id="title925">Down Vertical Mark, DV</title>
      <polygon
         points="4,40 4,4 0,0 12,0 8,4 8,40 "
         style="fill:#ff0000"
         id="polygon927" />
    </g>
    <g
       id="g935"
       transform="matrix(0,-0.26458333,0.26458333,0,6.7752234,11.528162)">
      <title
         id="title931">Right Horizontal Mark, RH</title>
      <polygon
         points="0,0 12,0 8,4 8,85 4,85 4,4 "
         style="fill:#ff0000"
         id="polygon933"
         transform="translate(0,3.5998563)" />
    </g>
    <g
       id="g941"
       transform="matrix(0,-0.26458333,0.26458333,0,7.701227,8.5912853)">
      <title
         id="title937">Right Horizontal Mark, RH</title>
      <polygon
         points="8,4 8,85 4,85 4,4 0,0 12,0 "
         style="fill:#ff0000"
         id="polygon939" />
    </g>
    <circle
       style="fill:#008000;fill-rule:evenodd;stroke-width:0.264583"
       id="path839"
       cx="30.096354"
       cy="13.323661"
       r="0.79374999">
      <title
         id="title1035">Southeast Corner Connector, SEC</title>
    </circle>
    <circle
       style="fill:#008000;fill-rule:evenodd;stroke-width:0.264583"
       id="circle959"
       cx="20.221725"
       cy="13.040178"
       r="0.79374999">
      <title
         id="title961">Bottom 2 Touch Connector, B2T</title>
    </circle>
    <circle
       style="fill:#008000;fill-rule:evenodd;stroke-width:0.264583"
       id="circle965"
       cx="10.110864"
       cy="12.898438"
       r="0.79374999">
      <title
         id="title963">Bottom 2 Touch Connector, B2T</title>
    </circle>
    <circle
       style="fill:#008000;fill-rule:evenodd;stroke-width:0.264583"
       id="circle969"
       cx="13.418155"
       cy="12.945684"
       r="0.79374999">
      <title
         id="title967">Bottom 2 Touch Connector, B2T</title>
    </circle>
    <circle
       style="fill:#008000;fill-rule:evenodd;stroke-width:0.264583"
       id="circle973"
       cx="16.772694"
       cy="12.992931"
       r="0.79374999">
      <title
         id="title971">Bottom 2 Touch Connector, B2T</title>
    </circle>
    <circle
       style="fill:#008000;fill-rule:evenodd;stroke-width:0.264583"
       id="circle975"
       cx="10.110863"
       cy="4.2994795"
       r="0.79374999">
      <title
         id="title977">Top 2 Touch Connector, T2T</title>
    </circle>
    <circle
       style="fill:#008000;fill-rule:evenodd;stroke-width:0.264583"
       id="circle981"
       cx="16.772694"
       cy="4.3467269"
       r="0.79374999">
      <title
         id="title979">Top 2 Touch Connector, T2T</title>
    </circle>
    <circle
       style="fill:#008000;fill-rule:evenodd;stroke-width:0.264583"
       id="circle985"
       cx="13.465401"
       cy="4.3939738"
       r="0.79374999">
      <title
         id="title983">Top 2 Touch Connector, T2T</title>
    </circle>
    <circle
       style="fill:#008000;fill-rule:evenodd;stroke-width:0.264583"
       id="circle987"
       cx="29.765625"
       cy="9.921876"
       r="0.79374999">
      <title
         id="title989">Right 2 Touch Connector, R2T</title>
    </circle>
    <circle
       style="fill:#008000;fill-rule:evenodd;stroke-width:0.264583"
       id="circle993"
       cx="29.741018"
       cy="6.945313"
       r="0.79374999">
      <title
         id="title991">Right 2 Touch Connector, R2T</title>
    </circle>
    <circle
       style="fill:#008000;fill-rule:evenodd;stroke-width:0.264583"
       id="circle995"
       cx="10.110864"
       cy="9.921876"
       r="0.79374999">
      <title
         id="title997">2 Cross Connector, 2C</title>
    </circle>
    <circle
       style="fill:#008000;fill-rule:evenodd;stroke-width:0.264583"
       id="circle1001"
       cx="20.127232"
       cy="4.0159979"
       r="0.79374999">
      <title
         id="title999">2 Cross Connector, 2C</title>
    </circle>
    <circle
       style="fill:#008000;fill-rule:evenodd;stroke-width:0.264583"
       id="circle1005"
       cx="20.268974"
       cy="6.9453135"
       r="0.79374999">
      <title
         id="title1003">2 Cross Connector, 2C</title>
    </circle>
    <circle
       style="fill:#008000;fill-rule:evenodd;stroke-width:0.264583"
       id="circle1009"
       cx="20.316221"
       cy="9.8273821"
       r="0.79374999">
      <title
         id="title1007">2 Cross Connector, 2C</title>
    </circle>
    <circle
       style="fill:#008000;fill-rule:evenodd;stroke-width:0.264583"
       id="circle1013"
       cx="16.725447"
       cy="6.9925604"
       r="0.79374999">
      <title
         id="title1011">2 Cross Connector, 2C</title>
    </circle>
    <circle
       style="fill:#008000;fill-rule:evenodd;stroke-width:0.264583"
       id="circle1017"
       cx="16.725447"
       cy="9.874629"
       r="0.79374999">
      <title
         id="title1015">2 Cross Connector, 2C</title>
    </circle>
    <circle
       style="fill:#008000;fill-rule:evenodd;stroke-width:0.264583"
       id="circle1021"
       cx="13.512649"
       cy="6.9925604"
       r="0.79374999">
      <title
         id="title1019">2 Cross Connector, 2C</title>
    </circle>
    <circle
       style="fill:#008000;fill-rule:evenodd;stroke-width:0.264583"
       id="circle1025"
       cx="13.559896"
       cy="9.874629"
       r="0.79374999">
      <title
         id="title1023">2 Cross Connector, 2C</title>
    </circle>
    <circle
       style="fill:#008000;fill-rule:evenodd;stroke-width:0.264583"
       id="circle1029"
       cx="10.110864"
       cy="6.9453135"
       r="0.79374999">
      <title
         id="title1027">2 Cross Connector, 2C</title>
    </circle>
    <circle
       style="fill:#008000;fill-rule:evenodd;stroke-width:0.264583"
       id="circle1031"
       cx="29.860117"
       cy="3.7797625"
       r="0.79374999">
      <desc
         id="desc1037">This could also be written as a NEC.</desc>
      <title
         id="title1033">Right 2 Touch Connector, R2T</title>
    </circle>
  </g>
</svg>
