<?xml version="1.0" encoding="UTF-8" standalone="no"?>
<svg
   xmlns:dc="http://purl.org/dc/elements/1.1/"
   xmlns:cc="http://creativecommons.org/ns#"
   xmlns:rdf="http://www.w3.org/1999/02/22-rdf-syntax-ns#"
   xmlns:svg="http://www.w3.org/2000/svg"
   xmlns="http://www.w3.org/2000/svg"
   width="160"
   height="80"
   viewBox="0 0 42.333332 21.166667"
   version="1.1"
   id="svg8">
  <defs
     id="defs2" />
  <metadata
     id="metadata5">
    <rdf:RDF>
      <cc:Work
         rdf:about="">
        <dc:format>image/svg+xml</dc:format>
        <dc:type
           rdf:resource="http://purl.org/dc/dcmitype/StillImage" />
        <dc:title></dc:title>
      </cc:Work>
    </rdf:RDF>
  </metadata>
  <g
     id="layer1">
    <polygon
       points="8,90 4,90 4,4 0,0 12,0 8,4 "
       style="fill:#ff0000"
       id="polygon855"
       transform="matrix(0,-0.26458333,0.26458333,0,9.7990328,16.6593)">
      <title
         id="title925">Right Horizontal Mark, RH</title>
    </polygon>
    <polygon
       points="4,4 0,0 12,0 8,4 8,90 4,90 "
       style="fill:#ff0000"
       id="polygon870"
       transform="matrix(0,-0.26458333,0.26458333,0,9.7990328,11.790893)">
      <title
         id="title923">Right Horizontal Mark, RH</title>
    </polygon>
    <g
       id="g890"
       transform="matrix(0.26458333,0,0,0.26458333,32.553199,4.9646416)">
      <title
         id="title886">Down Vertical Mark, DV</title>
      <polygon
         points="8,40 4,40 4,4 0,0 12,0 8,4 "
         style="fill:#ff0000"
         id="polygon888" />
    </g>
    <g
       id="g909"
       transform="matrix(0.26458333,0,0,0.26458333,28.558068,4.9646416)">
      <title
         id="title905">Down Vertical Mark, DV</title>
      <polygon
         points="8,40 4,40 4,4 0,0 12,0 8,4 "
         style="fill:#ff0000"
         id="polygon907" />
    </g>
    <g
       id="g915"
       transform="matrix(0.26458333,0,0,0.26458333,24.457026,4.9646416)">
      <title
         id="title911">Down Vertical Mark, DV</title>
      <polygon
         points="8,40 4,40 4,4 0,0 12,0 8,4 "
         style="fill:#ff0000"
         id="polygon913" />
    </g>
    <g
       id="g921"
       transform="matrix(0.26458333,0,0,0.26458333,20.541192,4.9646416)">
      <title
         id="title917">Down Vertical Mark, DV</title>
      <polygon
         points="12,0 8,4 8,40 4,40 4,4 0,0 "
         style="fill:#ff0000"
         id="polygon919" />
    </g>
    <circle
       style="fill:#008000;fill-rule:evenodd;stroke-width:0.264583"
       id="path839"
       cx="34.017857"
       cy="10.063616"
       r="0.79374999">
      <title
         id="title987">Right 2 Touch Connector, R2T</title>
    </circle>
    <circle
       style="fill:#008000;fill-rule:evenodd;stroke-width:0.264583"
       id="circle959"
       cx="33.970612"
       cy="15.024552"
       r="0.79374999">
      <title
         id="title961">Southeast Corner Connector, SEC</title>
    </circle>
    <circle
       style="fill:#008000;fill-rule:evenodd;stroke-width:0.264583"
       id="circle963"
       cx="30.33259"
       cy="14.977305"
       r="0.79374999">
      <title
         id="title965">Bottom 2 Touch Connector, B2T</title>
    </circle>
    <circle
       style="fill:#008000;fill-rule:evenodd;stroke-width:0.264583"
       id="circle969"
       cx="30.238096"
       cy="10.15811"
       r="0.79374999">
      <title
         id="title967">2 Cross Connector, 2C</title>
    </circle>
    <circle
       style="fill:#008000;fill-rule:evenodd;stroke-width:0.264583"
       id="circle973"
       cx="26.080359"
       cy="10.29985"
       r="0.79374999">
      <title
         id="title971">2 Cross Connector, 2C</title>
    </circle>
    <circle
       style="fill:#008000;fill-rule:evenodd;stroke-width:0.264583"
       id="circle977"
       cx="22.111609"
       cy="10.252604"
       r="0.79374999">
      <title
         id="title975">2 Cross Connector, 2C</title>
    </circle>
    <circle
       style="fill:#008000;fill-rule:evenodd;stroke-width:0.264583"
       id="circle981"
       cx="22.253349"
       cy="15.024553"
       r="0.79374999">
      <title
         id="title979">Bottom 2 Touch Connector, B2T</title>
    </circle>
    <circle
       style="fill:#008000;fill-rule:evenodd;stroke-width:0.264583"
       id="circle985"
       cx="26.127605"
       cy="15.024553"
       r="0.79374999">
      <title
         id="title983">Bottom 2 Touch Connector, B2T</title>
    </circle>
  </g>
</svg>
