<?xml version="1.0" encoding="UTF-8" standalone="no"?>
<svg
   xmlns:dc="http://purl.org/dc/elements/1.1/"
   xmlns:cc="http://creativecommons.org/ns#"
   xmlns:rdf="http://www.w3.org/1999/02/22-rdf-syntax-ns#"
   xmlns:svg="http://www.w3.org/2000/svg"
   xmlns="http://www.w3.org/2000/svg"
   width="160"
   height="80"
   viewBox="0 0 42.333332 21.166667"
   version="1.1"
   id="svg8">
  <defs
     id="defs2" />
  <metadata
     id="metadata5">
    <rdf:RDF>
      <cc:Work
         rdf:about="">
        <dc:format>image/svg+xml</dc:format>
        <dc:type
           rdf:resource="http://purl.org/dc/dcmitype/StillImage" />
        <dc:title></dc:title>
      </cc:Work>
    </rdf:RDF>
  </metadata>
  <g
     id="layer1">
    <g
       id="g857"
       transform="matrix(0,-0.26458333,0.26458333,0,10.560655,5.7452381)">
      <title
         id="title853">Right Horizontal Mark, RH</title>
      <polygon
         points="12,0 8,4 8,90 4,90 4,4 0,0 "
         style="fill:#ff0000"
         id="polygon855"
         transform="translate(0,-18.600286)" />
    </g>
    <g
       id="g874"
       transform="matrix(0,-0.26458333,0.26458333,0,10.428363,24.001413)">
      <title
         id="title870">Right Horizontal Mark, RH</title>
      <polygon
         points="12,0 8,4 8,90 4,90 4,4 0,0 "
         style="fill:#ff0000"
         id="polygon872"
         transform="translate(28.200001,-17.800286)" />
    </g>
    <g
       id="g894"
       transform="matrix(0.26458333,0,0,0.26458333,13.83956,4.6774552)">
      <title
         id="title890">Down Vertical Mark, DV</title>
      <polygon
         points="8,40 4,40 4,4 0,0 12,0 8,4 "
         style="fill:#ff0000"
         id="polygon892" />
    </g>
    <g
       id="g911"
       transform="matrix(0.26458333,0,0,0.26458333,17.226228,4.6774552)">
      <title
         id="title907">Down Vertical Mark, DV</title>
      <polygon
         points="12,0 8,4 8,40 4,40 4,4 0,0 "
         style="fill:#ff0000"
         id="polygon909" />
    </g>
    <g
       id="g917"
       transform="matrix(0.26458333,0,0,0.26458333,20.37477,4.6774552)">
      <title
         id="title913">Down Vertical Mark, DV</title>
      <polygon
         points="12,0 8,4 8,40 4,40 4,4 0,0 "
         style="fill:#ff0000"
         id="polygon915" />
    </g>
    <g
       id="g937"
       transform="matrix(0.26458333,0,0,0.26458333,28.499404,2.4114125)">
      <title
         id="title933">Down Vertical Mark, DV</title>
      <polygon
         points="12,0 8,4 8,50 4,50 4,4 0,0 "
         style="fill:#ff0000"
         id="polygon935"
         transform="translate(0,-0.39999995)" />
    </g>
    <g
       id="g954"
       transform="matrix(0,-0.26458333,0.26458333,0,10.534196,9.608079)">
      <title
         id="title950">Right Horizontal Mark, RH</title>
      <polygon
         points="4,86 4,4 0,0 12,0 8,4 8,86 "
         style="fill:#ff0000"
         id="polygon952"
         transform="translate(0,-13.300284)" />
    </g>
    <circle
       style="fill:#008000;fill-rule:evenodd;stroke-width:0.264583"
       id="path839"
       cx="30.190849"
       cy="14.977308"
       r="0.79374999">
      <title
         id="title1038">Southeast Corner Connector, SEC</title>
    </circle>
    <circle
       style="fill:#008000;fill-rule:evenodd;stroke-width:0.264583"
       id="circle984"
       cx="21.881041"
       cy="7.9375014"
       r="0.79374999">
      <title
         id="title982">2 Cross Connector, 2C</title>
    </circle>
    <circle
       style="fill:#008000;fill-rule:evenodd;stroke-width:0.264583"
       id="circle988"
       cx="18.77404"
       cy="7.9847484"
       r="0.79374999">
      <title
         id="title986">2 Cross Connector, 2C</title>
    </circle>
    <circle
       style="fill:#008000;fill-rule:evenodd;stroke-width:0.264583"
       id="circle992"
       cx="15.491354"
       cy="8.0792427"
       r="0.79374999">
      <title
         id="title990">2 Cross Connector, 2C</title>
    </circle>
    <circle
       style="fill:#008000;fill-rule:evenodd;stroke-width:0.264583"
       id="circle1002"
       cx="15.374144"
       cy="4.7247043"
       r="0.79374999">
      <title
         id="title1004">Top 2 Touch Connector, T2T</title>
    </circle>
    <circle
       style="fill:#008000;fill-rule:evenodd;stroke-width:0.264583"
       id="circle1008"
       cx="21.998251"
       cy="4.6302104"
       r="0.79374999">
      <title
         id="title1006">Top 2 Touch Connector, T2T</title>
    </circle>
    <circle
       style="fill:#008000;fill-rule:evenodd;stroke-width:0.264583"
       id="circle1012"
       cx="18.874313"
       cy="4.6774573"
       r="0.79374999">
      <title
         id="title1010">Top 2 Touch Connector, T2T</title>
    </circle>
    <circle
       style="fill:#008000;fill-rule:evenodd;stroke-width:0.264583"
       id="circle1014"
       cx="15.37414"
       cy="14.569018"
       r="0.79374999">
      <title
         id="title1016">Bottom 2 Touch Connector, B2T</title>
    </circle>
    <circle
       style="fill:#008000;fill-rule:evenodd;stroke-width:0.264583"
       id="circle1020"
       cx="21.907499"
       cy="14.45759"
       r="0.79374999">
      <title
         id="title1018">Bottom 2 Touch Connector, B2T</title>
    </circle>
    <circle
       style="fill:#008000;fill-rule:evenodd;stroke-width:0.264583"
       id="circle1024"
       cx="18.879873"
       cy="14.510544"
       r="0.79374999">
      <title
         id="title1022">Bottom 2 Touch Connector, B2T</title>
    </circle>
    <circle
       style="fill:#008000;fill-rule:evenodd;stroke-width:0.264583"
       id="circle1032"
       cx="29.718378"
       cy="4.2049875"
       r="0.79374999">
      <title
         id="title1030">Right 2 Touch Connector, R2T</title>
    </circle>
    <circle
       style="fill:#008000;fill-rule:evenodd;stroke-width:0.264583"
       id="circle1036"
       cx="29.718378"
       cy="7.9847493"
       r="0.79374999">
      <title
         id="title1034">Right 2 Touch Connector, R2T</title>
    </circle>
    <g
       id="g1044"
       transform="matrix(0,-0.26458333,0.26458333,0,10.534196,12.677246)">
      <title
         id="title1040">Right Horizontal Mark, RH</title>
      <polygon
         points="8,86 4,86 4,4 0,0 12,0 8,4 "
         style="fill:#ff0000"
         id="polygon1042"
         transform="translate(0,-13.300284)" />
    </g>
    <circle
       style="fill:#008000;fill-rule:evenodd;stroke-width:0.264583"
       id="circle996"
       cx="21.998251"
       cy="11.150299"
       r="0.79374999">
      <title
         id="title994">2 Cross Connector, 2C</title>
    </circle>
    <circle
       style="fill:#008000;fill-rule:evenodd;stroke-width:0.264583"
       id="circle1000"
       cx="18.815577"
       cy="11.055805"
       r="0.79374999">
      <title
         id="title998">2 Cross Connector, 2C</title>
    </circle>
    <circle
       style="fill:#008000;fill-rule:evenodd;stroke-width:0.264583"
       id="circle978"
       cx="15.37414"
       cy="11.055805"
       r="0.79374999">
      <title
         id="title980">2 Cross Connector, 2C</title>
    </circle>
    <circle
       style="fill:#008000;fill-rule:evenodd;stroke-width:0.264583"
       id="circle1026"
       cx="29.718378"
       cy="11.008559"
       r="0.79374999">
      <title
         id="title1028">Right 2 Touch Connector, R2T</title>
    </circle>
  </g>
</svg>
