<?xml version="1.0" encoding="UTF-8" standalone="no"?>
<svg
   xmlns:dc="http://purl.org/dc/elements/1.1/"
   xmlns:cc="http://creativecommons.org/ns#"
   xmlns:rdf="http://www.w3.org/1999/02/22-rdf-syntax-ns#"
   xmlns:svg="http://www.w3.org/2000/svg"
   xmlns="http://www.w3.org/2000/svg"
   width="160"
   height="80"
   viewBox="0 0 42.333332 21.166667"
   version="1.1"
   id="svg8">
  <defs
     id="defs2" />
  <metadata
     id="metadata5">
    <rdf:RDF>
      <cc:Work
         rdf:about="">
        <dc:format>image/svg+xml</dc:format>
        <dc:type
           rdf:resource="http://purl.org/dc/dcmitype/StillImage" />
        <dc:title></dc:title>
      </cc:Work>
    </rdf:RDF>
  </metadata>
  <g
     id="layer1">
    <g
       id="g857"
       transform="matrix(0.0684792,-0.25556787,0.25556787,0.0684792,17.594809,7.3491705)">
      <title
         id="title853">Right Down Diagonal Mark, RDD</title>
      <polygon
         points="8,40 4,40 4,4 0,0 12,0 8,4 "
         style="fill:#ff0000"
         id="polygon855" />
    </g>
    <g
       id="g874"
       transform="matrix(-0.0684792,-0.25556787,0.25556787,-0.0684792,18.26157,12.870171)">
      <title
         id="title870">Right Up Diagonal Mark, RUD</title>
      <polygon
         points="0,0 12,0 8,4 8,40 4,40 4,4 "
         style="fill:#ff0000"
         id="polygon872" />
    </g>
    <polygon
       points="6,12 0,6 6,0 "
       style="fill:#ff0000"
       id="polygon888"
       transform="matrix(0.26458333,0,0,0.26458333,15.531042,7.0315668)">
      <title
         id="title920">Heel Mark, HE</title>
    </polygon>
    <circle
       style="fill:#008000;fill-rule:evenodd;stroke-width:0.264583"
       id="path839"
       cx="27.970238"
       cy="8.5044651"
       r="0.79374999">
      <title
         id="title918">Right Middle Corner Connector, RMC</title>
    </circle>
    <polygon
       points="6,12 0,6 6,0 "
       style="fill:#ff0000"
       id="polygon924"
       transform="matrix(0.26458333,0,0,0.26458333,29.104166,7.0315668)">
      <title
         id="title922">Heel Mark, HE</title>
    </polygon>
    <g
       id="g944"
       transform="matrix(0.26458333,0,0,0.26458333,30.445982,5.2444192)">
      <title
         id="title940" />
      <polygon
         points="0,0 12,0 8,4 8,25 4,25 4,4 "
         style="fill:#ff0000"
         id="polygon942" />
    </g>
  </g>
</svg>
