<?xml version="1.0" encoding="UTF-8" standalone="no"?>
<svg
   xmlns:dc="http://purl.org/dc/elements/1.1/"
   xmlns:cc="http://creativecommons.org/ns#"
   xmlns:rdf="http://www.w3.org/1999/02/22-rdf-syntax-ns#"
   xmlns:svg="http://www.w3.org/2000/svg"
   xmlns="http://www.w3.org/2000/svg"
   width="160"
   height="80"
   viewBox="0 0 42.333332 21.166667"
   version="1.1"
   id="svg8">
  <defs
     id="defs2" />
  <metadata
     id="metadata5">
    <rdf:RDF>
      <cc:Work
         rdf:about="">
        <dc:format>image/svg+xml</dc:format>
        <dc:type
           rdf:resource="http://purl.org/dc/dcmitype/StillImage" />
        <dc:title></dc:title>
      </cc:Work>
    </rdf:RDF>
  </metadata>
  <g
     id="layer1">
    <polygon
       points="8,22 8,40 4,40 4,22 0,18 4,18 4,4 0,0 12,0 8,4 8,18 12,18 "
       style="fill:#ff0000"
       id="polygon851"
       transform="matrix(0,-0.26458333,0.26458333,0,6.9925592,7.257143)">
      <title
         id="title865">Right Horizontal Head-to-Tail Mark, RHHT</title>
    </polygon>
    <polygon
       points="4,18 4,4 0,0 12,0 8,4 8,18 12,18 8,22 8,40 4,40 4,22 0,18 "
       style="fill:#ff0000"
       id="polygon869"
       transform="matrix(0,-0.26458333,0.26458333,0,6.9925592,10.141214)">
      <title
         id="title867">Right Horizontal Head-to-Tail Mark, RHHT</title>
    </polygon>
    <polygon
       points="4,4 0,0 12,0 8,4 8,18 12,18 8,22 8,40 4,40 4,22 0,18 4,18 "
       style="fill:#ff0000"
       id="polygon873"
       transform="matrix(0,-0.26458333,0.26458333,0,6.9925592,12.972256)">
      <title
         id="title871">Right Horizontal Head-to-Tail Mark, RHHT</title>
    </polygon>
    <polygon
       points="6,0 6,12 0,6 "
       style="fill:#ff0000"
       id="polygon887"
       transform="matrix(0.26458333,0,0,0.26458333,4.4506695,7.1003583)">
      <title
         id="title901">Heel Mark, HE</title>
    </polygon>
    <polygon
       points="8,4 8,18 12,18 8,22 8,40 4,40 4,22 0,18 4,18 4,4 0,0 12,0 "
       style="fill:#ff0000"
       id="polygon905"
       transform="matrix(0,-0.26458333,0.26458333,0,20.671631,10.141214)">
      <title
         id="title903">Right Horizontal Head-to-Tail Mark, RHHT</title>
    </polygon>
    <polygon
       points="6,0 6,12 0,6 "
       style="fill:#ff0000"
       id="polygon909"
       transform="matrix(0.26458333,0,0,0.26458333,18.023681,6.9945249)">
      <title
         id="title907">Heel Mark, HE</title>
    </polygon>
    <polygon
       points="6,12 0,6 6,0 "
       style="fill:#ff0000"
       id="polygon913"
       transform="matrix(0.26458333,0,0,0.26458333,21.436806,4.6132749)">
      <title
         id="title911">Heel Mark, HE</title>
    </polygon>
    <polygon
       points="0,6 6,0 6,12 "
       style="fill:#ff0000"
       id="polygon917"
       transform="matrix(0.26458333,0,0,0.26458333,21.436806,9.2170249)">
      <title
         id="title915">Heel Mark, HE</title>
    </polygon>
  </g>
</svg>
