<?xml version="1.0" encoding="UTF-8" standalone="no"?>
<svg
   xmlns:dc="http://purl.org/dc/elements/1.1/"
   xmlns:cc="http://creativecommons.org/ns#"
   xmlns:rdf="http://www.w3.org/1999/02/22-rdf-syntax-ns#"
   xmlns:svg="http://www.w3.org/2000/svg"
   xmlns="http://www.w3.org/2000/svg"
   width="160"
   height="80"
   viewBox="0 0 42.333332 21.166667"
   version="1.1"
   id="svg8">
  <defs
     id="defs2" />
  <metadata
     id="metadata5">
    <rdf:RDF>
      <cc:Work
         rdf:about="">
        <dc:format>image/svg+xml</dc:format>
        <dc:type
           rdf:resource="http://purl.org/dc/dcmitype/StillImage" />
        <dc:title></dc:title>
      </cc:Work>
    </rdf:RDF>
  </metadata>
  <g
     id="layer1">
    <g
       id="g857"
       transform="matrix(0,-0.26458333,0.26458333,0,14.315848,12.596056)">
      <title
         id="title853">Right Horizontal Mark, RH</title>
      <polygon
         points="8,40 4,40 4,4 0,0 12,0 8,4 "
         style="fill:#ff0000"
         id="polygon855" />
    </g>
    <polygon
       points="0,6 6,0 6,12 "
       style="fill:#ff0000"
       id="polygon906"
       transform="matrix(0.26458333,0,0,0.26458333,18.067337,7.2022229)">
      <title
         id="title904">Heel Mark, HE</title>
    </polygon>
    <polygon
       points="6,12 0,6 6,0 "
       style="fill:#ff0000"
       id="polygon918"
       transform="matrix(0.26458333,0,0,0.26458333,22.589859,7.3421877)">
      <title
         id="title916">Heel Mark, HE</title>
    </polygon>
    <polygon
       points="0,6 6,0 6,12 "
       style="fill:#ff0000"
       id="polygon922"
       transform="matrix(0.26458333,0,0,0.26458333,16.451413,7.2476937)">
      <title
         id="title920">Heel Mark, HE</title>
    </polygon>
    <g
       id="g942"
       transform="matrix(0.18708867,-0.18708867,0.18708867,0.18708867,22.124987,13.888583)">
      <title
         id="title938">Right Down Diagonal Mark, RDD</title>
      <polygon
         points="12,0 8,4 8,10 4,10 4,4 0,0 "
         style="fill:#ff0000"
         id="polygon940" />
    </g>
    <g
       id="g959"
       transform="matrix(0.18708867,-0.18708867,0.18708867,0.18708867,18.613437,13.898108)">
      <title
         id="title955">Right Down Diagonal Mark, RDD</title>
      <polygon
         points="4,4 0,0 12,0 8,4 8,10 4,10 "
         style="fill:#ff0000"
         id="polygon957" />
    </g>
    <g
       id="g965"
       transform="matrix(0.18708867,-0.18708867,0.18708867,0.18708867,15.627614,13.985156)">
      <title
         id="title961">Right Down Diagonal Mark, RDD</title>
      <polygon
         points="0,0 12,0 8,4 8,10 4,10 4,4 "
         style="fill:#ff0000"
         id="polygon963" />
    </g>
  </g>
</svg>
