<?xml version="1.0" encoding="UTF-8" standalone="no"?>
<svg
   xmlns:dc="http://purl.org/dc/elements/1.1/"
   xmlns:cc="http://creativecommons.org/ns#"
   xmlns:rdf="http://www.w3.org/1999/02/22-rdf-syntax-ns#"
   xmlns:svg="http://www.w3.org/2000/svg"
   xmlns="http://www.w3.org/2000/svg"
   width="160"
   height="80"
   viewBox="0 0 42.333332 21.166667"
   version="1.1"
   id="svg8">
  <defs
     id="defs2" />
  <metadata
     id="metadata5">
    <rdf:RDF>
      <cc:Work
         rdf:about="">
        <dc:format>image/svg+xml</dc:format>
        <dc:type
           rdf:resource="http://purl.org/dc/dcmitype/StillImage" />
        <dc:title></dc:title>
      </cc:Work>
    </rdf:RDF>
  </metadata>
  <g
     id="layer1">
    <polygon
       points="0,6 6,0 6,12 "
       style="fill:#ff0000"
       id="polygon851"
       transform="matrix(0.26458333,0,0,0.26458333,23.236087,10.252604)">
      <title
         id="title865">Heel Mark, HE</title>
    </polygon>
    <polygon
       points="6,0 6,12 0,6 "
       style="fill:#ff0000"
       id="polygon869"
       transform="matrix(0.26458333,0,0,0.26458333,20.061087,10.252604)">
      <title
         id="title867">Heel Mark, HE</title>
    </polygon>
    <polygon
       points="6,0 6,12 0,6 "
       style="fill:#ff0000"
       id="polygon873"
       transform="matrix(0.26458333,0,0,0.26458333,21.648587,8.665104)">
      <title
         id="title871">Heel Mark, HE</title>
    </polygon>
    <polygon
       points="6,12 0,6 6,0 "
       style="fill:#ff0000"
       id="polygon877"
       transform="matrix(0.26458333,0,0,0.26458333,23.236087,7.077604)">
      <title
         id="title875">Heel Mark, HE</title>
    </polygon>
    <g
       id="g960"
       transform="matrix(0.26458333,0,0,0.26458333,27.582828,5.0700077)">
      <title
         id="title956">Down Vertical Mark, DV</title>
      <polygon
         points="8,40 4,40 4,4 0,0 12,0 8,4 "
         style="fill:#ff0000"
         id="polygon958" />
    </g>
    <g
       id="g977"
       transform="matrix(0.26458333,0,0,0.26458333,31.154664,5.0700077)">
      <title
         id="title973">Down Vertical Mark, DV</title>
      <polygon
         points="8,4 8,40 4,40 4,4 0,0 12,0 "
         style="fill:#ff0000"
         id="polygon975" />
    </g>
    <g
       id="g997"
       transform="matrix(0,-0.26458333,0.26458333,0,25.626801,11.665692)">
      <title
         id="title993">Right Horizontal Mark, RH</title>
      <polygon
         points="4,40 4,4 0,0 12,0 8,4 8,40 "
         style="fill:#ff0000"
         id="polygon995" />
    </g>
    <circle
       style="fill:#008000;fill-rule:evenodd;stroke-width:0.264583"
       id="path839"
       cx="32.808346"
       cy="9.9364519"
       r="0.79374999">
      <title
         id="title1026">2 Cross Connector, 2C</title>
    </circle>
    <circle
       style="fill:#008000;fill-rule:evenodd;stroke-width:0.264583"
       id="circle1030"
       cx="29.123081"
       cy="10.078193"
       r="0.79374999">
      <title
         id="title1028">2 Cross Connector, 2C</title>
    </circle>
  </g>
</svg>
