<?xml version="1.0" encoding="UTF-8" standalone="no"?>
<svg
   xmlns:dc="http://purl.org/dc/elements/1.1/"
   xmlns:cc="http://creativecommons.org/ns#"
   xmlns:rdf="http://www.w3.org/1999/02/22-rdf-syntax-ns#"
   xmlns:svg="http://www.w3.org/2000/svg"
   xmlns="http://www.w3.org/2000/svg"
   width="160"
   height="80"
   viewBox="0 0 42.333332 21.166667"
   version="1.1"
   id="svg8">
  <defs
     id="defs2" />
  <metadata
     id="metadata5">
    <rdf:RDF>
      <cc:Work
         rdf:about="">
        <dc:format>image/svg+xml</dc:format>
        <dc:type
           rdf:resource="http://purl.org/dc/dcmitype/StillImage" />
        <dc:title></dc:title>
      </cc:Work>
    </rdf:RDF>
  </metadata>
  <g
     id="layer1">
    <g
       id="g1287"
       transform="matrix(0.18708867,-0.18708867,0.18708867,0.18708867,-0.7561522,6.232912)">
      <title
         id="title1283">Right Down Diagonal Mark, RDD</title>
      <polygon
         points="0,0 12,0 8,4 8,15 4,15 4,4 "
         style="fill:#ff0000"
         id="polygon1285"
         transform="rotate(-15,109.97652,-71.749461)" />
    </g>
    <g
       id="g1382"
       transform="matrix(0.18708867,-0.18708867,0.18708867,0.18708867,1.1293829,10.807998)">
      <title
         id="title1378">Right Down Diagonal Mark, RDD</title>
      <polygon
         points="4,8 -8,0 20,0 8,8 8,26 4,26 "
         style="fill:#ff0000"
         id="polygon1380"
         transform="rotate(-15,111.14366,-70.228414)" />
    </g>
    <g
       id="g1016"
       transform="matrix(0.18708867,-0.18708867,0.18708867,0.18708867,-2.3436522,8.9825427)">
      <title
         id="title1012">Right Down Diagonal Mark, RDD</title>
      <polygon
         points="8,15 4,15 4,4 0,0 12,0 8,4 "
         style="fill:#ff0000"
         id="polygon1014"
         transform="rotate(-15,109.97652,-71.749461)" />
    </g>
    <circle
       style="fill:#008000;fill-rule:evenodd;stroke-width:0.264583"
       id="circle1319"
       cx="11.02818"
       cy="10.227635"
       r="0.79374999">
      <title
         id="title1317">Other 2 Touch Connector, O2T</title>
    </circle>
    <g
       id="g1022"
       transform="matrix(0.18708867,-0.18708867,0.18708867,0.18708867,-3.9311522,11.732173)">
      <title
         id="title1018">Right Down Diagonal Mark, RDD</title>
      <polygon
         points="8,15 4,15 4,4 0,0 12,0 8,4 "
         style="fill:#ff0000"
         id="polygon1020"
         transform="rotate(-15,109.97652,-71.749461)" />
    </g>
    <g
       id="g960"
       transform="matrix(0.26458333,0,0,0.26458333,18.350744,4.6774556)">
      <title
         id="title956">Down Vertical Mark, DV</title>
      <polygon
         points="12,0 8,4 8,40 4,40 4,4 0,0 "
         style="fill:#ff0000"
         id="polygon958" />
    </g>
    <g
       id="g977"
       transform="matrix(0.26458333,0,0,0.26458333,21.92258,4.6774556)">
      <title
         id="title973">Down Vertical Mark, DV</title>
      <polygon
         points="0,0 12,0 8,4 8,40 4,40 4,4 "
         style="fill:#ff0000"
         id="polygon975" />
    </g>
    <g
       id="g997"
       transform="matrix(0,-0.26458333,0.26458333,0,16.394717,11.27314)">
      <title
         id="title993">Right Horizontal Mark, RH</title>
      <polygon
         points="8,4 8,40 4,40 4,4 0,0 12,0 "
         style="fill:#ff0000"
         id="polygon995" />
    </g>
    <circle
       style="fill:#008000;fill-rule:evenodd;stroke-width:0.264583"
       id="path839"
       cx="23.576263"
       cy="9.5438995"
       r="0.79374999">
      <title
         id="title1026">2 Cross Connector, 2C</title>
    </circle>
    <circle
       style="fill:#008000;fill-rule:evenodd;stroke-width:0.264583"
       id="circle1030"
       cx="19.890997"
       cy="9.6856403"
       r="0.79374999">
      <title
         id="title1028">2 Cross Connector, 2C</title>
    </circle>
  </g>
</svg>
