<?xml version="1.0" encoding="UTF-8" standalone="no"?>
<svg
   xmlns:dc="http://purl.org/dc/elements/1.1/"
   xmlns:cc="http://creativecommons.org/ns#"
   xmlns:rdf="http://www.w3.org/1999/02/22-rdf-syntax-ns#"
   xmlns:svg="http://www.w3.org/2000/svg"
   xmlns="http://www.w3.org/2000/svg"
   width="160"
   height="80"
   viewBox="0 0 42.333332 21.166667"
   version="1.1"
   id="svg8">
  <defs
     id="defs2" />
  <metadata
     id="metadata5">
    <rdf:RDF>
      <cc:Work
         rdf:about="">
        <dc:format>image/svg+xml</dc:format>
        <dc:type
           rdf:resource="http://purl.org/dc/dcmitype/StillImage" />
        <dc:title></dc:title>
      </cc:Work>
    </rdf:RDF>
  </metadata>
  <g
     id="layer1">
    <polygon
       points="6,12 0,6 6,0 "
       style="fill:#ff0000"
       id="polygon1203"
       transform="matrix(0.26458333,0,0,0.26458333,7.0359254,8.7489291)">
      <title
         id="title1217">Heel Mark, HE</title>
    </polygon>
    <g
       id="g1386"
       transform="matrix(0.26458333,0,0,0.26458333,8.1064293,5.4144614)">
      <title
         id="title1382">Down Vertical Mark, DV</title>
      <polygon
         points="8,4 8,40 4,40 4,4 0,0 12,0 "
         style="fill:#ff0000"
         id="polygon1384" />
    </g>
    <g
       id="g1516"
       transform="matrix(0.26458333,0,0,0.26458333,26.721757,5.4030562)">
      <title
         id="title1512">Down Vertical Mark, DV</title>
      <polygon
         points="0,0 12,0 8,4 8,40 4,40 4,4 "
         style="fill:#ff0000"
         id="polygon1514" />
    </g>
    <g
       id="g1522"
       transform="matrix(0.26458333,0,0,0.26458333,19.101717,5.4144614)">
      <title
         id="title1518">Down Vertical Mark, DV</title>
      <polygon
         points="0,0 12,0 8,4 8,40 4,40 4,4 "
         style="fill:#ff0000"
         id="polygon1520" />
    </g>
    <g
       id="g1542"
       transform="matrix(0,-0.26458333,0.26458333,0,11.683936,3.9309048)">
      <title
         id="title1538">Right Horizontal Mark, RH</title>
      <polygon
         points="8,4 8,20 4,20 4,4 0,0 12,0 "
         style="fill:#ff0000"
         id="polygon1540"
         transform="translate(-30.200037,-1.6997585)" />
    </g>
    <polygon
       points="8,35 12,40 0,40 4,35 4,4 0,0 12,0 8,4 "
       style="fill:#ff0000"
       id="polygon988"
       transform="matrix(0,-0.26458333,0.26458333,0,16.511852,11.936412)">
      <title
         id="title1008">Right Horizontal Barbell Mark, RHBB</title>
    </polygon>
    <circle
       style="fill:#008000;fill-rule:evenodd;stroke-width:0.264583"
       id="circle1577"
       cx="20.741228"
       cy="10.372452"
       r="0.79374999">
      <title
         id="title1585">2 Cross Connector, 2C</title>
    </circle>
    <g
       id="g1006"
       transform="matrix(0.26458333,0,0,0.26458333,22.700191,5.4030562)">
      <title
         id="title1002">Down Vertical Mark, DV</title>
      <polygon
         points="4,40 4,4 0,0 12,0 8,4 8,40 "
         style="fill:#ff0000"
         id="polygon1004" />
    </g>
    <circle
       style="fill:#008000;fill-rule:evenodd;stroke-width:0.264583"
       id="circle1579"
       cx="24.284754"
       cy="10.372452"
       r="0.79374999">
      <title
         id="title1587">2 Cross Connector, 2C</title>
    </circle>
    <circle
       style="fill:#008000;fill-rule:evenodd;stroke-width:0.264583"
       id="circle1012"
       cx="16.725231"
       cy="10.372452"
       r="0.79374999">
      <title
         id="title1010">Horizontal 2 Touch Connector, H2T</title>
    </circle>
  </g>
</svg>
