<?xml version="1.0" encoding="UTF-8" standalone="no"?>
<svg
   xmlns:dc="http://purl.org/dc/elements/1.1/"
   xmlns:cc="http://creativecommons.org/ns#"
   xmlns:rdf="http://www.w3.org/1999/02/22-rdf-syntax-ns#"
   xmlns:svg="http://www.w3.org/2000/svg"
   xmlns="http://www.w3.org/2000/svg"
   width="160"
   height="80"
   viewBox="0 0 42.333332 21.166667"
   version="1.1"
   id="svg8">
  <defs
     id="defs2" />
  <metadata
     id="metadata5">
    <rdf:RDF>
      <cc:Work
         rdf:about="">
        <dc:format>image/svg+xml</dc:format>
        <dc:type
           rdf:resource="http://purl.org/dc/dcmitype/StillImage" />
        <dc:title></dc:title>
      </cc:Work>
    </rdf:RDF>
  </metadata>
  <g
     id="layer1">
    <g
       id="g857"
       transform="matrix(0.26458333,0,0,0.26458333,6.5219791,3.96875)">
      <title
         id="title853">Down Vertical Mark, DV</title>
      <polygon
         points="12,0 8,4 8,45 4,45 4,4 0,0 "
         style="fill:#ff0000"
         id="polygon855" />
    </g>
    <g
       id="g888"
       transform="matrix(0,-0.26458333,0.26458333,0,8.6349416,11.736121)">
      <title
         id="title884">Right Horizontal Mark, RH</title>
      <polygon
         points="8,25 4,25 4,4 0,0 12,0 8,4 "
         style="fill:#ff0000"
         id="polygon886" />
    </g>
    <polygon
       points="6,12 0,6 6,0 "
       style="fill:#ff0000"
       id="polygon913"
       transform="matrix(0.26458333,0,0,0.26458333,5.565699,8.4383562)">
      <title
         id="title927">Heel Mark, HE</title>
    </polygon>
    <circle
       style="fill:#008000;fill-rule:evenodd;stroke-width:0.264583"
       id="path839"
       cx="8.9352436"
       cy="10.175081"
       r="0.79374999">
      <title
         id="title945">Left 2 Touch Connector, L2T</title>
    </circle>
    <g
       id="g896"
       transform="matrix(0.26458333,0,0,0.26458333,25.704271,3.96875)">
      <title
         id="title892">Down Vertical Mark, DV</title>
      <polygon
         points="8,45 4,45 4,4 0,0 12,0 8,4 "
         style="fill:#ff0000"
         id="polygon894" />
    </g>
    <g
       id="g902"
       transform="matrix(0.26458333,0,0,0.26458333,20.042189,3.96875)">
      <title
         id="title898">Down Vertical Mark, DV</title>
      <polygon
         points="0,0 12,0 8,4 8,45 4,45 4,4 "
         style="fill:#ff0000"
         id="polygon900" />
    </g>
    <g
       id="g908"
       transform="matrix(0.26458333,0,0,0.26458333,14.194896,3.96875)">
      <title
         id="title904">Down Vertical Mark, DV</title>
      <polygon
         points="12,0 8,4 8,45 4,45 4,4 0,0 "
         style="fill:#ff0000"
         id="polygon906" />
    </g>
    <g
       id="g914"
       transform="matrix(0,-0.26458333,0.26458333,0,16.311562,8.5195833)">
      <title
         id="title910">Right Horizontal Mark, RH</title>
      <polygon
         points="0,0 12,0 8,4 8,40 4,40 4,4 "
         style="fill:#ff0000"
         id="polygon912" />
    </g>
    <g
       id="g920"
       transform="matrix(0,-0.26458333,0.26458333,0,16.311562,11.773958)">
      <title
         id="title916">Right Horizontal Mark, RH</title>
      <polygon
         points="4,4 0,0 12,0 8,4 8,40 4,40 "
         style="fill:#ff0000"
         id="polygon918" />
    </g>
    <g
       id="g926"
       transform="matrix(0,-0.26458333,0.26458333,0,16.311562,15.028333)">
      <title
         id="title922">Right Horizontal Mark, RH</title>
      <polygon
         points="8,40 4,40 4,4 0,0 12,0 8,4 "
         style="fill:#ff0000"
         id="polygon924" />
    </g>
    <g
       id="g932"
       transform="matrix(0,-0.26458333,0.26458333,0,15.200312,18.838333)">
      <title
         id="title928">Right Horizontal Mark, RH</title>
      <polygon
         points="4,48 4,4 0,0 12,0 8,4 8,48 "
         style="fill:#ff0000"
         id="polygon930"
         transform="translate(3.4999994,-0.19999856)" />
    </g>
    <circle
       style="fill:#008000;fill-rule:evenodd;stroke-width:0.264583"
       id="circle936"
       cx="16.721666"
       cy="13.476704"
       r="0.79374999">
      <title
         id="title934">Left 2 Touch Connector, L2T</title>
    </circle>
    <circle
       style="fill:#008000;fill-rule:evenodd;stroke-width:0.264583"
       id="circle940"
       cx="16.889685"
       cy="6.9566145"
       r="0.79374999">
      <title
         id="title938">Left 2 Touch Connector, L2T</title>
    </circle>
    <circle
       style="fill:#008000;fill-rule:evenodd;stroke-width:0.264583"
       id="circle944"
       cx="16.9181"
       cy="10.169412"
       r="0.79374999">
      <title
         id="title942">Left 2 Touch Connector, L2T</title>
    </circle>
    <circle
       style="fill:#008000;fill-rule:evenodd;stroke-width:0.264583"
       id="circle948"
       cx="26.927025"
       cy="13.382211"
       r="0.79374999">
      <title
         id="title946">Right 2 Touch Connector, R2T</title>
    </circle>
    <circle
       style="fill:#008000;fill-rule:evenodd;stroke-width:0.264583"
       id="circle952"
       cx="15.020774"
       cy="10.263906"
       r="0.79374999">
      <title
         id="title950">Right 2 Touch Connector, R2T</title>
    </circle>
    <circle
       style="fill:#008000;fill-rule:evenodd;stroke-width:0.264583"
       id="circle956"
       cx="26.738035"
       cy="6.8621206"
       r="0.79374999">
      <title
         id="title954">Right 2 Touch Connector, R2T</title>
    </circle>
    <circle
       style="fill:#008000;fill-rule:evenodd;stroke-width:0.264583"
       id="circle960"
       cx="26.738035"
       cy="6.8621206"
       r="0.79374999">
      <title
         id="title958">Right 2 Touch Connector, R2T</title>
    </circle>
    <circle
       style="fill:#008000;fill-rule:evenodd;stroke-width:0.264583"
       id="circle964"
       cx="26.927025"
       cy="10.21666"
       r="0.79374999">
      <title
         id="title962">Right 2 Touch Connector, R2T</title>
    </circle>
    <circle
       style="fill:#008000;fill-rule:evenodd;stroke-width:0.264583"
       id="circle968"
       cx="21.635359"
       cy="13.382212"
       r="0.79374999">
      <title
         id="title966">2 Cross Connector, 2C</title>
    </circle>
    <circle
       style="fill:#008000;fill-rule:evenodd;stroke-width:0.264583"
       id="circle972"
       cx="21.588112"
       cy="6.8148751"
       r="0.79374999">
      <title
         id="title970">2 Cross Connector, 2C</title>
    </circle>
    <circle
       style="fill:#008000;fill-rule:evenodd;stroke-width:0.264583"
       id="circle976"
       cx="21.635359"
       cy="10.169414"
       r="0.79374999">
      <title
         id="title974">2 Cross Connector, 2C</title>
    </circle>
    <circle
       style="fill:#008000;fill-rule:evenodd;stroke-width:0.264583"
       id="circle980"
       cx="21.540865"
       cy="16.217033"
       r="0.79374999">
      <title
         id="title978">Bottom 2 Touch Connector, B2T</title>
    </circle>
    <circle
       style="fill:#008000;fill-rule:evenodd;stroke-width:0.264583"
       id="circle988"
       cx="27.257755"
       cy="16.311529"
       r="0.79374999">
      <title
         id="title986">Southeast Corner Connector, SEC</title>
    </circle>
    <circle
       style="fill:#008000;fill-rule:evenodd;stroke-width:0.264583"
       id="circle992"
       cx="16.296446"
       cy="16.217035"
       r="0.79374999">
      <title
         id="title990">Southwest Corner Connector, SWC</title>
    </circle>
  </g>
</svg>
