<?xml version="1.0" encoding="UTF-8" standalone="no"?>
<svg
   xmlns:dc="http://purl.org/dc/elements/1.1/"
   xmlns:cc="http://creativecommons.org/ns#"
   xmlns:rdf="http://www.w3.org/1999/02/22-rdf-syntax-ns#"
   xmlns:svg="http://www.w3.org/2000/svg"
   xmlns="http://www.w3.org/2000/svg"
   width="160"
   height="80"
   viewBox="0 0 42.333332 21.166667"
   version="1.1"
   id="svg8">
  <defs
     id="defs2" />
  <metadata
     id="metadata5">
    <rdf:RDF>
      <cc:Work
         rdf:about="">
        <dc:format>image/svg+xml</dc:format>
        <dc:type
           rdf:resource="http://purl.org/dc/dcmitype/StillImage" />
        <dc:title></dc:title>
      </cc:Work>
    </rdf:RDF>
  </metadata>
  <g
     id="layer1">
    <g
       id="g952"
       transform="matrix(0,-0.26458333,0.26458333,0,14.49191,15.408219)">
      <title
         id="title948">Right Horizontal Mark, RH</title>
      <polygon
         points="4,40 4,4 0,0 12,0 8,4 8,40 "
         style="fill:#ff0000"
         id="polygon950" />
    </g>
    <g
       id="g930"
       transform="matrix(0.26458333,0,0,0.26458333,26.757238,16.256018)">
      <title
         id="title926">Right Down Diagonal, RDD</title>
      <polygon
         points="12,0 8,4 8,15 4,15 4,4 0,0 "
         style="fill:#ff0000"
         id="polygon928"
         transform="rotate(-60,-10.881767,7.3674096)" />
    </g>
    <circle
       style="fill:#008000;fill-rule:evenodd;stroke-width:0.264583"
       id="path839"
       cx="24.375988"
       cy="13.657432"
       r="0.79374999">
      <title
         id="title977">Other 2 Touch Connector, O2T</title>
    </circle>
    <polygon
       points="6,12 0,6 6,0 "
       style="fill:#ff0000"
       id="polygon1009"
       transform="matrix(0.26458333,0,0,0.26458333,25.500515,10.016388)">
      <title
         id="title1007">Heel Mark, HE</title>
    </polygon>
    <polygon
       points="0,6 6,0 6,12 "
       style="fill:#ff0000"
       id="polygon1013"
       transform="matrix(0.26458333,0,0,0.26458333,15.786478,10.564283)">
      <title
         id="title1011">Heel Mark, HE</title>
    </polygon>
    <polygon
       points="6,0 6,12 0,6 "
       style="fill:#ff0000"
       id="polygon1017"
       transform="matrix(0.26458333,0,0,0.26458333,19.762258,6.8696416)">
      <title
         id="title1015">Heel Mark, HE</title>
    </polygon>
    <polygon
       points="6,0 6,12 0,6 "
       style="fill:#ff0000"
       id="polygon922"
       transform="matrix(0.26458333,0,0,0.26458333,18.148188,10.467975)">
      <title
         id="title920">Heel Mark, HE</title>
    </polygon>
    <polygon
       points="0,6 6,0 6,12 "
       style="fill:#ff0000"
       id="polygon926"
       transform="matrix(0.26458333,0,0,0.26458333,20.274304,10.503959)">
      <title
         id="title924">Heel Mark, HE</title>
    </polygon>
  </g>
</svg>
