<?xml version="1.0" encoding="UTF-8" standalone="no"?>
<svg
   xmlns:dc="http://purl.org/dc/elements/1.1/"
   xmlns:cc="http://creativecommons.org/ns#"
   xmlns:rdf="http://www.w3.org/1999/02/22-rdf-syntax-ns#"
   xmlns:svg="http://www.w3.org/2000/svg"
   xmlns="http://www.w3.org/2000/svg"
   width="160"
   height="80"
   viewBox="0 0 42.333332 21.166667"
   version="1.1"
   id="svg8">
  <defs
     id="defs2" />
  <metadata
     id="metadata5">
    <rdf:RDF>
      <cc:Work
         rdf:about="">
        <dc:format>image/svg+xml</dc:format>
        <dc:type
           rdf:resource="http://purl.org/dc/dcmitype/StillImage" />
        <dc:title></dc:title>
      </cc:Work>
    </rdf:RDF>
  </metadata>
  <g
     id="layer1">
    <polygon
       points="6,0 6,12 0,6 "
       style="fill:#ff0000"
       id="polygon851"
       transform="matrix(0.26458333,0,0,0.26458333,15.789012,9.9265621)">
      <title
         id="title865">Heel Mark, HE</title>
    </polygon>
    <polygon
       points="0,6 6,0 6,12 "
       style="fill:#ff0000"
       id="polygon869"
       transform="matrix(0.26458333,0,0,0.26458333,14.449182,6.3773281)">
      <title
         id="title867">Heel Mark, HE</title>
    </polygon>
    <polygon
       points="6,0 6,12 0,6 "
       style="fill:#ff0000"
       id="polygon873"
       transform="matrix(0.26458333,0,0,0.26458333,12.837056,9.9096289)">
      <title
         id="title871">Heel Mark, HE</title>
    </polygon>
    <polygon
       points="6,12 0,6 6,0 "
       style="fill:#ff0000"
       id="polygon878"
       transform="matrix(0.26458333,0,0,0.26458333,17.208254,6.3642123)">
      <title
         id="title876">Heel Mark, HE</title>
    </polygon>
    <polygon
       points="6,0 6,12 0,6 "
       style="fill:#ff0000"
       id="polygon886"
       transform="matrix(0.26458333,0,0,0.26458333,11.5652,6.3773281)">
      <title
         id="title884">Heel Mark, HE</title>
    </polygon>
  </g>
</svg>
