<?xml version="1.0" encoding="UTF-8" standalone="no"?>
<svg
   xmlns:dc="http://purl.org/dc/elements/1.1/"
   xmlns:cc="http://creativecommons.org/ns#"
   xmlns:rdf="http://www.w3.org/1999/02/22-rdf-syntax-ns#"
   xmlns:svg="http://www.w3.org/2000/svg"
   xmlns="http://www.w3.org/2000/svg"
   width="160"
   height="80"
   viewBox="0 0 42.333332 21.166667"
   version="1.1"
   id="svg8">
  <defs
     id="defs2" />
  <metadata
     id="metadata5">
    <rdf:RDF>
      <cc:Work
         rdf:about="">
        <dc:format>image/svg+xml</dc:format>
        <dc:type
           rdf:resource="http://purl.org/dc/dcmitype/StillImage" />
        <dc:title></dc:title>
      </cc:Work>
    </rdf:RDF>
  </metadata>
  <g
     id="layer1">
    <polygon
       points="6,0 6,12 0,6 "
       style="fill:#ff0000"
       id="polygon851"
       transform="matrix(0.26458333,0,0,0.26458333,8.1137124,10.559785)">
      <title
         id="title865">Heel Mark, HE</title>
    </polygon>
    <polygon
       points="0,6 6,0 6,12 "
       style="fill:#ff0000"
       id="polygon878"
       transform="matrix(0.26458333,0,0,0.26458333,8.0777291,5.6745187)">
      <title
         id="title876">Heel Mark, HE</title>
    </polygon>
    <g
       id="g894"
       transform="matrix(0,-0.26458333,0.26458333,0,12.410283,8.1057749)">
      <title
         id="title890">Right Horizontal Mark, RH</title>
      <polygon
         points="4,25 4,4 0,0 12,0 8,4 8,25 "
         style="fill:#ff0000"
         id="polygon892" />
    </g>
    <g
       id="g911"
       transform="matrix(0,-0.26458333,0.26458333,0,12.463198,14.53515)">
      <title
         id="title907">Right Horizontal Mark, RH</title>
      <polygon
         points="12,0 8,4 8,25 4,25 4,4 0,0 "
         style="fill:#ff0000"
         id="polygon909" />
    </g>
    <g
       id="g948"
       transform="matrix(0.26458333,0,0,0.26458333,21.525177,3.6531023)">
      <title
         id="title944">Down Vertical Mark, DV</title>
      <polygon
         points="8,50 4,50 4,4 0,0 12,0 8,4 "
         style="fill:#ff0000"
         id="polygon946"
         transform="translate(0,-2.1000009)" />
    </g>
    <g
       id="g1024"
       transform="matrix(0,-0.26458333,0.26458333,0,12.436739,11.280775)">
      <title
         id="title1020">Right Horizontal Mark, RH</title>
      <polygon
         points="12,0 8,4 8,25 4,25 4,4 0,0 "
         style="fill:#ff0000"
         id="polygon1022" />
    </g>
    <polygon
       points="8,4 8,35 12,40 0,40 4,35 4,4 0,0 12,0 "
       style="fill:#ff0000"
       id="polygon1052"
       transform="matrix(0,-0.26458333,0.26458333,0,10.148623,5.669756)">
      <title
         id="title1082">Right Horizontal Barbell Mark, RHBB</title>
    </polygon>
    <polygon
       points="12,40 0,40 4,35 4,4 0,0 12,0 8,4 8,35 "
       style="fill:#ff0000"
       id="polygon1054"
       transform="matrix(0,-0.26458333,0.26458333,0,10.148623,16.941006)">
      <title
         id="title1080">Right Horizontal Barbell Mark, RHBB</title>
    </polygon>
    <polygon
       points="6,12 0,6 6,0 "
       style="fill:#ff0000"
       id="polygon1058"
       transform="matrix(0.26458333,0,0,0.26458333,6.0404375,5.6745187)">
      <title
         id="title1056">Heel Mark, HE</title>
    </polygon>
    <polygon
       points="6,0 6,12 0,6 "
       style="fill:#ff0000"
       id="polygon1062"
       transform="matrix(0.26458333,0,0,0.26458333,6.1028791,10.559785)">
      <title
         id="title1060">Heel Mark, HE</title>
    </polygon>
    <polygon
       points="0,6 6,0 6,12 "
       style="fill:#ff0000"
       id="polygon1066"
       transform="matrix(0.26458333,0,0,0.26458333,3.9766875,5.6745187)">
      <title
         id="title1064">Heel Mark, HE</title>
    </polygon>
    <polygon
       points="6,12 0,6 6,0 "
       style="fill:#ff0000"
       id="polygon1070"
       transform="matrix(0.26458333,0,0,0.26458333,4.0126708,10.559785)">
      <title
         id="title1068">Heel Mark, HE</title>
    </polygon>
    <polygon
       points="6,12 0,6 6,0 "
       style="fill:#ff0000"
       id="polygon1074"
       transform="matrix(0.26458333,0,0,0.26458333,1.9393959,5.6745187)">
      <title
         id="title1072">Heel Mark, HE</title>
    </polygon>
    <polygon
       points="6,12 0,6 6,0 "
       style="fill:#ff0000"
       id="polygon1078"
       transform="matrix(0.26458333,0,0,0.26458333,1.9753792,10.559785)">
      <title
         id="title1076">Heel Mark, HE</title>
    </polygon>
  </g>
</svg>
