<?xml version="1.0" encoding="UTF-8" standalone="no"?>
<svg
   xmlns:dc="http://purl.org/dc/elements/1.1/"
   xmlns:cc="http://creativecommons.org/ns#"
   xmlns:rdf="http://www.w3.org/1999/02/22-rdf-syntax-ns#"
   xmlns:svg="http://www.w3.org/2000/svg"
   xmlns="http://www.w3.org/2000/svg"
   width="160"
   height="80"
   viewBox="0 0 42.333332 21.166667"
   version="1.1"
   id="svg8">
  <defs
     id="defs2" />
  <metadata
     id="metadata5">
    <rdf:RDF>
      <cc:Work
         rdf:about="">
        <dc:format>image/svg+xml</dc:format>
        <dc:type
           rdf:resource="http://purl.org/dc/dcmitype/StillImage" />
        <dc:title></dc:title>
      </cc:Work>
    </rdf:RDF>
  </metadata>
  <g
     id="layer1">
    <polygon
       points="6,12 0,6 6,0 "
       style="fill:#ff0000"
       id="polygon851"
       transform="matrix(0.26458333,0,0,0.26458333,6.6263506,10.085388)">
      <title
         id="title865">Heel Mark, HE</title>
    </polygon>
    <polygon
       points="6,0 6,12 0,6 "
       style="fill:#ff0000"
       id="polygon869"
       transform="matrix(0.26458333,0,0,0.26458333,6.2654278,4.8955854)">
      <title
         id="title867">Heel Mark, HE</title>
    </polygon>
    <polygon
       points="0,6 6,0 6,12 "
       style="fill:#ff0000"
       id="polygon873"
       transform="matrix(0.26458333,0,0,0.26458333,3.6743946,10.174287)">
      <title
         id="title871">Heel Mark, HE</title>
    </polygon>
    <polygon
       points="0,6 6,0 6,12 "
       style="fill:#ff0000"
       id="polygon878"
       transform="matrix(0.26458333,0,0,0.26458333,8.0455926,4.8561625)">
      <title
         id="title876">Heel Mark, HE</title>
    </polygon>
    <polygon
       points="6,0 6,12 0,6 "
       style="fill:#ff0000"
       id="polygon886"
       transform="matrix(0.26458333,0,0,0.26458333,4.3604278,4.9220437)">
      <title
         id="title884">Heel Mark, HE</title>
    </polygon>
    <polygon
       points="6,0 6,12 0,6 "
       style="fill:#ff0000"
       id="polygon1027"
       transform="matrix(0.26458333,0,0,0.26458333,2.5348029,4.9220437)">
      <title
         id="title1025">Heel Mark, HE</title>
    </polygon>
    <polygon
       points="0,0 12,0 8,4 8,40 4,40 4,4 "
       style="fill:#ff0000"
       id="polygon964"
       transform="matrix(0.26458333,0,0,0.26458333,19.274896,3.5124003)">
      <title
         id="title989">Down Vertical Mark, DV</title>
    </polygon>
    <polygon
       points="4,4 0,0 12,0 8,4 8,40 4,40 "
       style="fill:#ff0000"
       id="polygon971"
       transform="matrix(0,-0.26458333,0.26458333,0,10.517189,15.418594)">
      <title
         id="title985">Right Horizontal Mark, RH</title>
    </polygon>
    <circle
       style="fill:#008000;fill-rule:evenodd;stroke-width:0.264583"
       id="circle1873"
       cx="21.070358"
       cy="13.692973"
       r="0.79374999">
      <title
         id="title1871">Southeast Corner Connector, SEC</title>
    </circle>
    <polygon
       points="8,40 4,40 4,4 0,0 12,0 8,4 "
       style="fill:#ff0000"
       id="polygon1509"
       transform="matrix(0.26458333,0,0,0.26458333,9.6969793,3.5124003)">
      <title
         id="title1507">Down Vertical Mark, DV</title>
    </polygon>
    <polygon
       points="12,0 8,4 8,40 4,40 4,4 0,0 "
       style="fill:#ff0000"
       id="polygon1513"
       transform="matrix(0,-0.26458333,0.26458333,0,10.517189,5.8142188)">
      <title
         id="title1511">Right Horizontal Mark, RH</title>
    </polygon>
    <circle
       style="fill:#008000;fill-rule:evenodd;stroke-width:0.264583"
       id="circle1849"
       cx="11.214629"
       cy="4.2473564"
       r="0.79374999">
      <title
         id="title1851">Northwest Corner Connector, NWC</title>
    </circle>
    <circle
       style="fill:#008000;fill-rule:evenodd;stroke-width:0.264583"
       id="circle938"
       cx="20.767931"
       cy="4.4138322"
       r="0.79374999">
      <title
         id="title936">Northeast Corner Connector, NEC</title>
    </circle>
    <circle
       style="fill:#008000;fill-rule:evenodd;stroke-width:0.264583"
       id="circle975"
       cx="11.178646"
       cy="13.748014"
       r="0.79374999">
      <title
         id="title973">Southwest Corner Connector, SWC</title>
    </circle>
  </g>
</svg>
