<?xml version="1.0" encoding="UTF-8" standalone="no"?>
<svg
   xmlns:dc="http://purl.org/dc/elements/1.1/"
   xmlns:cc="http://creativecommons.org/ns#"
   xmlns:rdf="http://www.w3.org/1999/02/22-rdf-syntax-ns#"
   xmlns:svg="http://www.w3.org/2000/svg"
   xmlns="http://www.w3.org/2000/svg"
   width="160"
   height="80"
   viewBox="0 0 42.333332 21.166667"
   version="1.1"
   id="svg8">
  <defs
     id="defs2" />
  <metadata
     id="metadata5">
    <rdf:RDF>
      <cc:Work
         rdf:about="">
        <dc:format>image/svg+xml</dc:format>
        <dc:type
           rdf:resource="http://purl.org/dc/dcmitype/StillImage" />
        <dc:title></dc:title>
      </cc:Work>
    </rdf:RDF>
  </metadata>
  <g
     id="layer1">
    <polygon
       points="6,0 6,12 0,6 "
       style="fill:#ff0000"
       id="polygon1092"
       transform="matrix(0.26458333,0,0,0.26458333,11.356293,6.2271575)">
      <title
         id="title1145">Heel Mark, HE</title>
    </polygon>
    <polygon
       points="0,6 6,0 6,12 "
       style="fill:#ff0000"
       id="polygon1096"
       transform="matrix(0.26458333,0,0,0.26458333,11.329837,10.725074)">
      <title
         id="title1135">Heel Mark, HE</title>
    </polygon>
    <g
       id="g1165"
       transform="matrix(0.26458333,0,0,0.26458333,12.520461,4.7719494)">
      <title
         id="title1161">Down Vertical Mark, DV</title>
      <polygon
         points="0,0 12,0 8,4 8,40 4,40 4,4 "
         style="fill:#ff0000"
         id="polygon1163" />
    </g>
    <g
       id="g891"
       transform="matrix(0,-0.26458333,0.26458333,0,14.599329,11.556622)">
      <title
         id="title887">Right Horizontal Mark, RH</title>
      <polygon
         points="8,4 8,25 4,25 4,4 0,0 12,0 "
         style="fill:#ff0000"
         id="polygon889" />
    </g>
    <circle
       style="fill:#008000;fill-rule:evenodd;stroke-width:0.264583"
       id="path839"
       cx="14.741071"
       cy="9.921876"
       r="0.79374999">
      <title
         id="title927">Left 2 Touch Connector, L2T</title>
    </circle>
  </g>
</svg>
