<?xml version="1.0" encoding="UTF-8" standalone="no"?>
<svg
   xmlns:dc="http://purl.org/dc/elements/1.1/"
   xmlns:cc="http://creativecommons.org/ns#"
   xmlns:rdf="http://www.w3.org/1999/02/22-rdf-syntax-ns#"
   xmlns:svg="http://www.w3.org/2000/svg"
   xmlns="http://www.w3.org/2000/svg"
   width="160"
   height="80"
   viewBox="0 0 42.333332 21.166667"
   version="1.1"
   id="svg8">
  <defs
     id="defs2" />
  <metadata
     id="metadata5">
    <rdf:RDF>
      <cc:Work
         rdf:about="">
        <dc:format>image/svg+xml</dc:format>
        <dc:type
           rdf:resource="http://purl.org/dc/dcmitype/StillImage" />
        <dc:title></dc:title>
      </cc:Work>
    </rdf:RDF>
  </metadata>
  <g
     id="layer1">
    <polygon
       points="6,0 6,12 0,6 "
       style="fill:#ff0000"
       id="polygon1092"
       transform="matrix(0.26458333,0,0,0.26458333,5.1935062,6.1799105)">
      <title
         id="title1145">Heel Mark, HE</title>
    </polygon>
    <polygon
       points="6,12 0,6 6,0 "
       style="fill:#ff0000"
       id="polygon1096"
       transform="matrix(0.26458333,0,0,0.26458333,5.2199645,10.677827)">
      <title
         id="title1135">Heel Mark, HE</title>
    </polygon>
    <g
       id="g1165"
       transform="matrix(0.26458333,0,0,0.26458333,6.542881,4.7247024)">
      <title
         id="title1161">Down Vertical Mark, DV</title>
      <polygon
         points="0,0 12,0 8,4 8,40 4,40 4,4 "
         style="fill:#ff0000"
         id="polygon1163" />
    </g>
    <g
       id="g898"
       transform="matrix(0.26458333,0,0,0.26458333,24.974814,4.7492708)">
      <title
         id="title894">Down Vertical Mark, DV</title>
      <polygon
         points="8,4 8,40 4,40 4,4 0,0 12,0 "
         style="fill:#ff0000"
         id="polygon896" />
    </g>
    <g
       id="g915"
       transform="matrix(0.26458333,0,0,0.26458333,16.385381,4.7247024)">
      <title
         id="title911">Down Vertical Mark, DV</title>
      <polygon
         points="0,0 12,0 8,4 8,40 4,40 4,4 "
         style="fill:#ff0000"
         id="polygon913" />
    </g>
    <g
       id="g935"
       transform="matrix(0,-0.26458333,0.26458333,0,10.829131,7.4234146)">
      <title
         id="title931">Right Horizontal Mark, RH</title>
      <polygon
         points="12,0 8,4 8,25 4,25 4,4 0,0 "
         style="fill:#ff0000"
         id="polygon933" />
    </g>
    <g
       id="g952"
       transform="matrix(0,-0.26458333,0.26458333,0,11.861006,9.5929978)">
      <title
         id="title948">Right Horizontal Mark, RH</title>
      <polygon
         points="8,4 8,25 4,25 4,4 0,0 12,0 "
         style="fill:#ff0000"
         id="polygon950" />
    </g>
    <g
       id="g958"
       transform="matrix(0,-0.26458333,0.26458333,0,11.834548,12.609248)">
      <title
         id="title954">Right Horizontal Mark, RH</title>
      <polygon
         points="12,0 8,4 8,25 4,25 4,4 0,0 "
         style="fill:#ff0000"
         id="polygon956" />
    </g>
    <g
       id="g964"
       transform="matrix(0.04594441,-0.26056371,0.26056371,0.04594441,10.709539,15.159485)">
      <title
         id="title960">Right Horizontal Mark, RH</title>
      <polygon
         points="4,4 0,0 12,0 8,4 8,25 4,25 "
         style="fill:#ff0000"
         id="polygon962" />
    </g>
    <g
       id="g984"
       transform="matrix(0,-0.26458333,0.26458333,0,19.586839,9.2225818)">
      <title
         id="title980">Right Horizontal Mark, RH</title>
      <polygon
         points="12,0 8,4 8,25 4,25 4,4 0,0 "
         style="fill:#ff0000"
         id="polygon982" />
    </g>
    <g
       id="g1001"
       transform="matrix(0,-0.26458333,0.26458333,0,19.586839,14.434873)">
      <title
         id="title997">Right Horizontal Mark, RH</title>
      <polygon
         points="8,4 8,25 4,25 4,4 0,0 12,0 "
         style="fill:#ff0000"
         id="polygon999" />
    </g>
    <g
       id="g1007"
       transform="matrix(0,-0.26458333,0.26458333,0,28.900174,14.434873)">
      <title
         id="title1003">Right Horizontal Mark, RH</title>
      <polygon
         points="8,4 8,25 4,25 4,4 0,0 12,0 "
         style="fill:#ff0000"
         id="polygon1005" />
    </g>
    <g
       id="g1013"
       transform="matrix(0.26458333,0,0,0.26458333,30.67288,6.3386229)">
      <title
         id="title1009">Down Vertical Mark, DV</title>
      <polygon
         points="4,4 0,0 12,0 8,4 8,25 4,25 "
         style="fill:#ff0000"
         id="polygon1011" />
    </g>
    <circle
       style="fill:#008000;fill-rule:evenodd;stroke-width:0.264583"
       id="path839"
       cx="17.812126"
       cy="14.788319"
       r="0.79374999">
      <title
         id="title1055">Other 2 Touch Connector, O2T</title>
    </circle>
    <circle
       style="fill:#008000;fill-rule:evenodd;stroke-width:0.264583"
       id="circle1031"
       cx="26.316591"
       cy="7.7012663"
       r="0.79374999">
      <title
         id="title1033">Right 2 Touch Connector, R2T</title>
    </circle>
    <circle
       style="fill:#008000;fill-rule:evenodd;stroke-width:0.264583"
       id="circle1037"
       cx="17.717632"
       cy="7.9847484"
       r="0.79374999">
      <title
         id="title1035">Right 2 Touch Connector, R2T</title>
    </circle>
    <circle
       style="fill:#008000;fill-rule:evenodd;stroke-width:0.264583"
       id="circle1041"
       cx="17.764879"
       cy="10.96131"
       r="0.79374999">
      <title
         id="title1039">Right 2 Touch Connector, R2T</title>
    </circle>
    <circle
       style="fill:#008000;fill-rule:evenodd;stroke-width:0.264583"
       id="circle1045"
       cx="17.764879"
       cy="10.96131"
       r="0.79374999">
      <title
         id="title1043">Right 2 Touch Connector, R2T</title>
    </circle>
    <circle
       style="fill:#008000;fill-rule:evenodd;stroke-width:0.264583"
       id="circle1049"
       cx="26.363838"
       cy="12.945686"
       r="0.79374999">
      <title
         id="title1047">Right 2 Touch Connector, R2T</title>
    </circle>
    <circle
       style="fill:#008000;fill-rule:evenodd;stroke-width:0.264583"
       id="circle1051"
       cx="32.269714"
       cy="12.662203"
       r="0.79374999">
      <title
         id="title1053">Bottom 2 Touch Connector, B2T</title>
    </circle>
    <circle
       style="fill:#008000;fill-rule:evenodd;stroke-width:0.264583"
       id="circle1059"
       cx="17.953867"
       cy="5.7641373"
       r="0.79374999">
      <title
         id="title1057">Northeast Corner Connector, NEC</title>
    </circle>
  </g>
</svg>
