<?xml version="1.0" encoding="UTF-8" standalone="no"?>
<svg
   xmlns:dc="http://purl.org/dc/elements/1.1/"
   xmlns:cc="http://creativecommons.org/ns#"
   xmlns:rdf="http://www.w3.org/1999/02/22-rdf-syntax-ns#"
   xmlns:svg="http://www.w3.org/2000/svg"
   xmlns="http://www.w3.org/2000/svg"
   width="160"
   height="80"
   viewBox="0 0 42.333332 21.166667"
   version="1.1"
   id="svg8">
  <defs
     id="defs2" />
  <metadata
     id="metadata5">
    <rdf:RDF>
      <cc:Work
         rdf:about="">
        <dc:format>image/svg+xml</dc:format>
        <dc:type
           rdf:resource="http://purl.org/dc/dcmitype/StillImage" />
        <dc:title></dc:title>
      </cc:Work>
    </rdf:RDF>
  </metadata>
  <g
     id="layer1">
    <g
       id="g857"
       transform="matrix(0,-0.26458333,0.26458333,0,17.575893,7.5878727)">
      <title
         id="title853">Right Horizontal Mark, RH</title>
      <polygon
         points="4,40 4,4 0,0 12,0 8,4 8,40 "
         style="fill:#ff0000"
         id="polygon855" />
    </g>
    <g
       id="g874"
       transform="matrix(0,-0.26458333,0.26458333,0,16.411839,10.127985)">
      <title
         id="title870">Right Horizontal Mark, RH</title>
      <polygon
         points="0,0 12,0 8,4 8,40 4,40 4,4 "
         style="fill:#ff0000"
         id="polygon872" />
    </g>
    <g
       id="g880"
       transform="matrix(0,-0.26458333,0.26458333,0,15.168298,12.58861)">
      <title
         id="title876">Right Horizontal Mark, RH</title>
      <polygon
         points="8,40 4,40 4,4 0,0 12,0 8,4 "
         style="fill:#ff0000"
         id="polygon878" />
    </g>
    <g
       id="g886"
       transform="matrix(0,-0.26458333,0.26458333,0,14.057048,15.022777)">
      <title
         id="title882">Right Horizontal Mark, RH</title>
      <polygon
         points="4,4 0,0 12,0 8,4 8,40 4,40 "
         style="fill:#ff0000"
         id="polygon884" />
    </g>
    <polygon
       points="4,4 0,0 12,0 8,4 8,10 4,10 "
       style="fill:#ff0000"
       id="polygon960"
       transform="matrix(0.18708867,-0.18708867,0.18708867,0.18708867,23.687881,13.964444)">
      <title
         id="title975">Right Down Diagonal Mark, RDD</title>
    </polygon>
    <polygon
       points="12,0 8,4 8,10 4,10 4,4 0,0 "
       style="fill:#ff0000"
       id="polygon979"
       transform="matrix(0.18708867,-0.18708867,0.18708867,0.18708867,27.04809,6.5295394)">
      <title
         id="title977">Right Down Diagonal Mark, RDD</title>
    </polygon>
    <polygon
       points="12,0 8,4 8,10 4,10 4,4 0,0 "
       style="fill:#ff0000"
       id="polygon987"
       transform="matrix(0.18708867,-0.18708867,0.18708867,0.18708867,26.016214,9.0696517)">
      <title
         id="title985">Right Down Diagonal Mark, RDD</title>
    </polygon>
    <polygon
       points="4,4 0,0 12,0 8,4 8,10 4,10 "
       style="fill:#ff0000"
       id="polygon991"
       transform="matrix(0.18708867,-0.18708867,0.18708867,0.18708867,24.746215,11.530277)">
      <title
         id="title989">Right Down Diagonal Mark, RDD</title>
    </polygon>
    <polygon
       points="8,4 8,10 4,10 4,4 0,0 12,0 "
       style="fill:#ff0000"
       id="polygon995"
       transform="matrix(0.18708867,-0.18708867,0.18708867,0.18708867,15.036006,4.9043911)">
      <title
         id="title993">Right Down Diagonal Mark, RDD</title>
    </polygon>
    <polygon
       points="4,4 0,0 12,0 8,4 8,10 4,10 "
       style="fill:#ff0000"
       id="polygon999"
       transform="matrix(0.18708867,-0.18708867,0.18708867,0.18708867,11.796712,12.70755)">
      <title
         id="title997">Right Down Diagonal Mark, RDD</title>
    </polygon>
    <polygon
       points="0,0 12,0 8,4 8,10 4,10 4,4 "
       style="fill:#ff0000"
       id="polygon1003"
       transform="matrix(0.18708867,-0.18708867,0.18708867,0.18708867,12.726723,9.9391473)">
      <title
         id="title1001">Right Down Diagonal Mark, RDD</title>
    </polygon>
    <polygon
       points="8,4 8,10 4,10 4,4 0,0 12,0 "
       style="fill:#ff0000"
       id="polygon1007"
       transform="matrix(0.18708867,-0.18708867,0.18708867,0.18708867,13.917348,7.4785223)">
      <title
         id="title1005">Right Down Diagonal Mark, RDD</title>
    </polygon>
    <circle
       style="fill:#008000;fill-rule:evenodd;stroke-width:0.264583"
       id="path839"
       cx="27.686756"
       cy="8.3627234"
       r="0.79374999">
      <title
         id="title1025">Other 2 Touch Connector, O2T</title>
    </circle>
    <circle
       style="fill:#008000;fill-rule:evenodd;stroke-width:0.264583"
       id="circle1029"
       cx="18.284597"
       cy="5.9058781"
       r="0.79374999">
      <title
         id="title1027">Other 2 Touch Connector, O2T</title>
    </circle>
    <circle
       style="fill:#008000;fill-rule:evenodd;stroke-width:0.264583"
       id="circle1033"
       cx="17.150669"
       cy="8.4099703"
       r="0.79374999">
      <title
         id="title1031">Other 2 Touch Connector, O2T</title>
    </circle>
    <circle
       style="fill:#008000;fill-rule:evenodd;stroke-width:0.264583"
       id="circle1037"
       cx="15.922247"
       cy="10.819569"
       r="0.79374999">
      <title
         id="title1035">Other 2 Touch Connector, O2T</title>
    </circle>
    <circle
       style="fill:#008000;fill-rule:evenodd;stroke-width:0.264583"
       id="circle1041"
       cx="14.693825"
       cy="13.229167"
       r="0.79374999">
      <title
         id="title1039">Other 2 Touch Connector, O2T</title>
    </circle>
    <circle
       style="fill:#008000;fill-rule:evenodd;stroke-width:0.264583"
       id="circle1045"
       cx="28.58445"
       cy="6.0003719"
       r="0.79374999">
      <title
         id="title1043">Other 2 Touch Connector, O2T</title>
    </circle>
    <circle
       style="fill:#008000;fill-rule:evenodd;stroke-width:0.264583"
       id="circle1049"
       cx="26.411087"
       cy="10.914062"
       r="0.79374999">
      <title
         id="title1047">Other 2 Touch Connector, O2T</title>
    </circle>
    <circle
       style="fill:#008000;fill-rule:evenodd;stroke-width:0.264583"
       id="circle1053"
       cx="25.371653"
       cy="13.276413"
       r="0.79374999">
      <title
         id="title1051">Other 2 Touch Connector, O2T</title>
    </circle>
  </g>
</svg>
