<?xml version="1.0" encoding="UTF-8" standalone="no"?>
<svg
   xmlns:dc="http://purl.org/dc/elements/1.1/"
   xmlns:cc="http://creativecommons.org/ns#"
   xmlns:rdf="http://www.w3.org/1999/02/22-rdf-syntax-ns#"
   xmlns:svg="http://www.w3.org/2000/svg"
   xmlns="http://www.w3.org/2000/svg"
   width="160"
   height="80"
   viewBox="0 0 42.333332 21.166667"
   version="1.1"
   id="svg8">
  <defs
     id="defs2" />
  <metadata
     id="metadata5">
    <rdf:RDF>
      <cc:Work
         rdf:about="">
        <dc:format>image/svg+xml</dc:format>
        <dc:type
           rdf:resource="http://purl.org/dc/dcmitype/StillImage" />
        <dc:title></dc:title>
      </cc:Work>
    </rdf:RDF>
  </metadata>
  <g
     id="layer1">
    <g
       id="g857"
       transform="matrix(-0.0684792,-0.25556787,0.25556787,-0.0684792,15.754569,8.0187713)">
      <title
         id="title853">Right Horizontal Mark, RH</title>
      <polygon
         points="12,0 8,4 8,40 4,40 4,4 0,0 "
         style="fill:#ff0000"
         id="polygon855" />
    </g>
    <g
       id="g874"
       transform="matrix(-0.0684792,-0.25556787,0.25556787,-0.0684792,14.511292,10.770703)">
      <title
         id="title870">Right Horizontal Mark, RH</title>
      <polygon
         points="12,0 8,4 8,40 4,40 4,4 0,0 "
         style="fill:#ff0000"
         id="polygon872" />
    </g>
    <g
       id="g880"
       transform="matrix(0,-0.26458333,0.26458333,0,12.570619,13.556134)">
      <title
         id="title876">Right Horizontal Mark, RH</title>
      <polygon
         points="4,40 4,4 0,0 12,0 8,4 8,40 "
         style="fill:#ff0000"
         id="polygon878" />
    </g>
    <g
       id="g886"
       transform="matrix(0,-0.26458333,0.26458333,0,11.459369,15.990301)">
      <title
         id="title882">Right Horizontal Mark, RH</title>
      <polygon
         points="0,0 12,0 8,4 8,40 4,40 4,4 "
         style="fill:#ff0000"
         id="polygon884" />
    </g>
    <polygon
       points="0,6 6,0 6,12 "
       style="fill:#ff0000"
       id="polygon918"
       transform="matrix(0.26458333,0,0,0.26458333,13.205619,3.660718)">
      <title
         id="title916">Heel Mark, HE</title>
    </polygon>
    <polygon
       points="6,0 6,12 0,6 "
       style="fill:#ff0000"
       id="polygon922"
       transform="matrix(0.26458333,0,0,0.26458333,11.988534,6.200718)">
      <title
         id="title920">Heel Mark, HE</title>
    </polygon>
    <polygon
       points="0,6 6,0 6,12 "
       style="fill:#ff0000"
       id="polygon926"
       transform="matrix(0.26458333,0,0,0.26458333,10.79791,8.7142597)">
      <title
         id="title924">Heel Mark, HE</title>
    </polygon>
    <polygon
       points="6,12 0,6 6,0 "
       style="fill:#ff0000"
       id="polygon930"
       transform="matrix(0.26458333,0,0,0.26458333,9.6543813,11.119852)">
      <title
         id="title928">Heel Mark, HE</title>
    </polygon>
  </g>
</svg>
