<?xml version="1.0" encoding="UTF-8" standalone="no"?>
<svg
   xmlns:dc="http://purl.org/dc/elements/1.1/"
   xmlns:cc="http://creativecommons.org/ns#"
   xmlns:rdf="http://www.w3.org/1999/02/22-rdf-syntax-ns#"
   xmlns:svg="http://www.w3.org/2000/svg"
   xmlns="http://www.w3.org/2000/svg"
   width="160"
   height="80"
   viewBox="0 0 42.333332 21.166667"
   version="1.1"
   id="svg8">
  <defs
     id="defs2" />
  <metadata
     id="metadata5">
    <rdf:RDF>
      <cc:Work
         rdf:about="">
        <dc:format>image/svg+xml</dc:format>
        <dc:type
           rdf:resource="http://purl.org/dc/dcmitype/StillImage" />
        <dc:title></dc:title>
      </cc:Work>
    </rdf:RDF>
  </metadata>
  <g
     id="layer1">
    <g
       id="g857"
       transform="matrix(-0.0684792,-0.25556787,0.25556787,-0.0684792,13.124866,8.1359818)">
      <title
         id="title853">Right Up Diagonal Mark, RUD</title>
      <polygon
         points="4,4 0,0 12,0 8,4 8,40 4,40 "
         style="fill:#ff0000"
         id="polygon855" />
    </g>
    <g
       id="g874"
       transform="matrix(-0.0684792,-0.25556787,0.25556787,-0.0684792,11.960812,10.781815)">
      <title
         id="title870">Right Up Diagonal Mark, RUD</title>
      <polygon
         points="8,4 8,40 4,40 4,4 0,0 12,0 "
         style="fill:#ff0000"
         id="polygon872" />
    </g>
    <g
       id="g880"
       transform="matrix(0,-0.26458333,0.26458333,0,10.126087,13.117616)">
      <title
         id="title876">Right Horizontal Mark, RH</title>
      <polygon
         points="4,4 0,0 12,0 8,4 8,40 4,40 "
         style="fill:#ff0000"
         id="polygon878" />
    </g>
    <g
       id="g886"
       transform="matrix(0,-0.26458333,0.26458333,0,9.0148369,15.551783)">
      <title
         id="title882">Right Horizontal Mark, RH</title>
      <polygon
         points="12,0 8,4 8,40 4,40 4,4 0,0 "
         style="fill:#ff0000"
         id="polygon884" />
    </g>
    <polygon
       points="12,0 8,4 8,10 4,10 4,4 0,0 "
       style="fill:#ff0000"
       id="polygon995"
       transform="matrix(0.18708867,-0.18708867,0.18708867,0.18708867,9.9937949,5.433397)">
      <title
         id="title993">Right Down Diagonal Mark, RDD</title>
    </polygon>
    <polygon
       points="4,10 4,4 0,0 12,0 8,4 8,10 "
       style="fill:#ff0000"
       id="polygon999"
       transform="matrix(0.18708867,-0.18708867,0.18708867,0.18708867,6.7545009,13.236556)">
      <title
         id="title997">Right Down Diagonal Mark, RDD</title>
    </polygon>
    <polygon
       points="4,4 0,0 12,0 8,4 8,10 4,10 "
       style="fill:#ff0000"
       id="polygon1003"
       transform="matrix(0.18708867,-0.18708867,0.18708867,0.18708867,7.6845119,10.468153)">
      <title
         id="title1001">Right Down Diagonal Mark, RDD</title>
    </polygon>
    <polygon
       points="12,0 8,4 8,10 4,10 4,4 0,0 "
       style="fill:#ff0000"
       id="polygon1007"
       transform="matrix(0.18708867,-0.18708867,0.18708867,0.18708867,8.8751369,8.0075282)">
      <title
         id="title1005">Right Down Diagonal Mark, RDD</title>
    </polygon>
    <circle
       style="fill:#008000;fill-rule:evenodd;stroke-width:0.264583"
       id="circle1029"
       cx="13.242386"
       cy="6.4348841"
       r="0.79374999">
      <title
         id="title1027">Other 2 Touch Connector, O2T</title>
    </circle>
    <circle
       style="fill:#008000;fill-rule:evenodd;stroke-width:0.264583"
       id="circle1033"
       cx="12.108458"
       cy="8.9389763"
       r="0.79374999">
      <title
         id="title1031">Other 2 Touch Connector, O2T</title>
    </circle>
    <circle
       style="fill:#008000;fill-rule:evenodd;stroke-width:0.264583"
       id="circle1037"
       cx="10.880035"
       cy="11.348575"
       r="0.79374999">
      <title
         id="title1035">Other 2 Touch Connector, O2T</title>
    </circle>
    <circle
       style="fill:#008000;fill-rule:evenodd;stroke-width:0.264583"
       id="circle1041"
       cx="9.6516132"
       cy="13.758173"
       r="0.79374999">
      <title
         id="title1039">Other 2 Touch Connector, O2T</title>
    </circle>
  </g>
</svg>
