<?xml version="1.0" encoding="UTF-8" standalone="no"?>
<svg
   xmlns:dc="http://purl.org/dc/elements/1.1/"
   xmlns:cc="http://creativecommons.org/ns#"
   xmlns:rdf="http://www.w3.org/1999/02/22-rdf-syntax-ns#"
   xmlns:svg="http://www.w3.org/2000/svg"
   xmlns="http://www.w3.org/2000/svg"
   width="160"
   height="80"
   viewBox="0 0 42.333332 21.166667"
   version="1.1"
   id="svg8">
  <defs
     id="defs2" />
  <metadata
     id="metadata5">
    <rdf:RDF>
      <cc:Work
         rdf:about="">
        <dc:format>image/svg+xml</dc:format>
        <dc:type
           rdf:resource="http://purl.org/dc/dcmitype/StillImage" />
        <dc:title></dc:title>
      </cc:Work>
    </rdf:RDF>
  </metadata>
  <g
     id="layer1">
    <polygon
       points="4,40 4,4 0,0 12,0 8,4 8,40 "
       style="fill:#ff0000"
       id="polygon855"
       transform="matrix(0.26458333,0,0,0.26458333,14.570982,4.7719491)">
      <title
         id="title871">Down Vertical Mark, DV</title>
    </polygon>
    <polygon
       points="8,4 8,40 4,40 4,4 0,0 12,0 "
       style="fill:#ff0000"
       id="polygon875"
       transform="matrix(0,-0.26458333,0.26458333,0,16.559212,6.9945249)">
      <title
         id="title873">Right Horizontal Mark, RH</title>
    </polygon>
    <circle
       style="fill:#008000;fill-rule:evenodd;stroke-width:0.264583"
       id="path839"
       cx="16.583706"
       cy="5.3085999"
       r="0.79374999">
      <title
         id="title893">Northwest Corner Connector, NWC</title>
    </circle>
    <g
       id="g913"
       transform="matrix(0.26458333,0,0,0.26458333,19.305134,8.8050688)">
      <title
         id="title909" />
      <polygon
         points="8,25 4,25 4,4 0,0 12,0 8,4 "
         style="fill:#ff0000"
         id="polygon911" />
    </g>
    <g
       id="g930"
       transform="matrix(0,-0.26458333,0.26458333,0,20.363467,10.895163)">
      <title
         id="title926" />
      <polygon
         points="0,0 12,0 8,4 8,25 4,25 4,4 "
         style="fill:#ff0000"
         id="polygon928" />
    </g>
    <circle
       style="fill:#008000;fill-rule:evenodd;stroke-width:0.264583"
       id="circle934"
       cx="21.024925"
       cy="9.4663382"
       r="0.79374999">
      <title
         id="title932">Northwest Corner Connector, NWC</title>
    </circle>
  </g>
</svg>
