<?xml version="1.0" encoding="UTF-8" standalone="no"?>
<svg
   xmlns:dc="http://purl.org/dc/elements/1.1/"
   xmlns:cc="http://creativecommons.org/ns#"
   xmlns:rdf="http://www.w3.org/1999/02/22-rdf-syntax-ns#"
   xmlns:svg="http://www.w3.org/2000/svg"
   xmlns="http://www.w3.org/2000/svg"
   width="160"
   height="80"
   viewBox="0 0 42.333332 21.166667"
   version="1.1"
   id="svg8">
  <defs
     id="defs2" />
  <metadata
     id="metadata5">
    <rdf:RDF>
      <cc:Work
         rdf:about="">
        <dc:format>image/svg+xml</dc:format>
        <dc:type
           rdf:resource="http://purl.org/dc/dcmitype/StillImage" />
        <dc:title></dc:title>
      </cc:Work>
    </rdf:RDF>
  </metadata>
  <g
     id="layer1">
    <g
       id="g857"
       transform="matrix(0,-0.26458333,0.26458333,0,6.5579626,17.179018)">
      <title
         id="title853">Right Horizontal Mark, RH</title>
      <polygon
         points="8,72 4,72 4,4 0,0 12,0 8,4 "
         style="fill:#ff0000"
         id="polygon855" />
    </g>
    <g
       id="g888"
       transform="matrix(0,-0.26458333,0.26458333,0,11.764509,6.1023501)">
      <title
         id="title884">Right Horizontal Mark, RH</title>
      <polygon
         points="8,4 8,40 4,40 4,4 0,0 12,0 "
         style="fill:#ff0000"
         id="polygon886" />
    </g>
    <g
       id="g911"
       transform="matrix(0,-0.26458333,0.26458333,0,11.764509,9.0656832)">
      <title
         id="title907">Right Horizontal Mark, RH</title>
      <polygon
         points="0,0 12,0 8,4 8,40 4,40 4,4 "
         style="fill:#ff0000"
         id="polygon909" />
    </g>
    <g
       id="g917"
       transform="matrix(0,-0.26458333,0.26458333,0,11.764509,12.029017)">
      <title
         id="title913">Right Horizontal Mark, RH</title>
      <polygon
         points="8,4 8,40 4,40 4,4 0,0 12,0 "
         style="fill:#ff0000"
         id="polygon915" />
    </g>
    <g
       id="g923"
       transform="matrix(0,-0.26458333,0.26458333,0,11.764509,15.018808)">
      <title
         id="title919">Right Horizontal Mark, RH</title>
      <polygon
         points="0,0 12,0 8,4 8,40 4,40 4,4 "
         style="fill:#ff0000"
         id="polygon921" />
    </g>
    <g
       id="g943"
       transform="matrix(0.26458333,0,0,0.26458333,21.289509,2.3717251)">
      <title
         id="title939">Down Vertical Mark, DV</title>
      <polygon
         points="8,4 8,50 4,50 4,4 0,0 12,0 "
         style="fill:#ff0000"
         id="polygon941"
         transform="translate(0,-1.1000005)" />
    </g>
    <g
       id="g960"
       transform="matrix(0.26458333,0,0,0.26458333,9.6477666,2.3981834)">
      <title
         id="title956">Down Vertical Mark, DV</title>
      <polygon
         points="8,50 4,50 4,4 0,0 12,0 8,4 "
         style="fill:#ff0000"
         id="polygon958"
         transform="translate(0,-1.1000005)" />
    </g>
    <g
       id="g966"
       transform="matrix(0.26458333,0,0,0.26458333,15.839017,3.0596417)">
      <title
         id="title962">Down Vertical Mark, DV</title>
      <polygon
         points="4,50 4,4 0,0 12,0 8,4 8,50 "
         style="fill:#ff0000"
         id="polygon964"
         transform="translate(0,-1.1000005)" />
    </g>
    <polygon
       points="0,6 6,0 6,12 "
       style="fill:#ff0000"
       id="polygon980"
       transform="matrix(0.26458333,0,0,0.26458333,25.607962,13.474851)">
      <title
         id="title998">Heel Mark, HE</title>
    </polygon>
    <polygon
       points="6,0 6,12 0,6 "
       style="fill:#ff0000"
       id="polygon994"
       transform="matrix(0.26458333,0,0,0.26458333,27.195462,11.887351)">
      <title
         id="title996">Heel Mark, HE</title>
    </polygon>
    <circle
       style="fill:#008000;fill-rule:evenodd;stroke-width:0.264583"
       id="path839"
       cx="11.953496"
       cy="13.370906"
       r="0.79374999">
      <title
         id="title1066">Left 2 Touch Connector, L2T</title>
    </circle>
    <circle
       style="fill:#008000;fill-rule:evenodd;stroke-width:0.264583"
       id="circle1016"
       cx="23.0093"
       cy="15.402528"
       r="0.79374999">
      <title
         id="title1018">Bottom 2 Touch Connector, B2T</title>
    </circle>
    <circle
       style="fill:#008000;fill-rule:evenodd;stroke-width:0.264583"
       id="circle1022"
       cx="17.386904"
       cy="4.5357122"
       r="0.79374999">
      <title
         id="title1020">2 Cross Connector, 2C</title>
    </circle>
    <circle
       style="fill:#008000;fill-rule:evenodd;stroke-width:0.264583"
       id="circle1026"
       cx="17.434151"
       cy="7.4650278"
       r="0.79374999">
      <title
         id="title1024">2 Cross Connector, 2C</title>
    </circle>
    <circle
       style="fill:#008000;fill-rule:evenodd;stroke-width:0.264583"
       id="circle1030"
       cx="17.434151"
       cy="10.394343"
       r="0.79374999">
      <title
         id="title1028">2 Cross Connector, 2C</title>
    </circle>
    <circle
       style="fill:#008000;fill-rule:evenodd;stroke-width:0.264583"
       id="circle1034"
       cx="17.434151"
       cy="13.323659"
       r="0.79374999">
      <title
         id="title1032">2 Cross Connector, 2C</title>
    </circle>
    <circle
       style="fill:#008000;fill-rule:evenodd;stroke-width:0.264583"
       id="circle1038"
       cx="11.244791"
       cy="15.355281"
       r="0.79374999">
      <title
         id="title1036">Bottom 2 Touch Connector, B2T</title>
    </circle>
    <circle
       style="fill:#008000;fill-rule:evenodd;stroke-width:0.264583"
       id="circle1042"
       cx="17.481398"
       cy="15.449775"
       r="0.79374999">
      <title
         id="title1040">Bottom 2 Touch Connector, B2T</title>
    </circle>
    <circle
       style="fill:#008000;fill-rule:evenodd;stroke-width:0.264583"
       id="circle1044"
       cx="22.725817"
       cy="4.5357127"
       r="0.79374999">
      <title
         id="title1046">Right 2 Touch Connector, R2T</title>
    </circle>
    <circle
       style="fill:#008000;fill-rule:evenodd;stroke-width:0.264583"
       id="circle1050"
       cx="22.773064"
       cy="13.465401"
       r="0.79374999">
      <title
         id="title1048">Right 2 Touch Connector, R2T</title>
    </circle>
    <circle
       style="fill:#008000;fill-rule:evenodd;stroke-width:0.264583"
       id="circle1054"
       cx="22.820311"
       cy="10.488838"
       r="0.79374999">
      <title
         id="title1052">Right 2 Touch Connector, R2T</title>
    </circle>
    <circle
       style="fill:#008000;fill-rule:evenodd;stroke-width:0.264583"
       id="circle1058"
       cx="22.67857"
       cy="7.5595226"
       r="0.79374999">
      <title
         id="title1056">Right 2 Touch Connector, R2T</title>
    </circle>
    <circle
       style="fill:#008000;fill-rule:evenodd;stroke-width:0.264583"
       id="circle1070"
       cx="11.953496"
       cy="4.5829597"
       r="0.79374999">
      <title
         id="title1068">Left 2 Touch Connector, L2T</title>
    </circle>
    <circle
       style="fill:#008000;fill-rule:evenodd;stroke-width:0.264583"
       id="circle1074"
       cx="11.859002"
       cy="7.5122747"
       r="0.79374999">
      <title
         id="title1072">Left 2 Touch Connector, L2T</title>
    </circle>
    <circle
       style="fill:#008000;fill-rule:evenodd;stroke-width:0.264583"
       id="circle1078"
       cx="12.04799"
       cy="10.536084"
       r="0.79374999">
      <title
         id="title1076">Left 2 Touch Connector, L2T</title>
    </circle>
  </g>
</svg>
