<?xml version="1.0" encoding="UTF-8" standalone="no"?>
<svg
   xmlns:dc="http://purl.org/dc/elements/1.1/"
   xmlns:cc="http://creativecommons.org/ns#"
   xmlns:rdf="http://www.w3.org/1999/02/22-rdf-syntax-ns#"
   xmlns:svg="http://www.w3.org/2000/svg"
   xmlns="http://www.w3.org/2000/svg"
   width="160"
   height="80"
   viewBox="0 0 42.333332 21.166667"
   version="1.1"
   id="svg8">
  <defs
     id="defs2" />
  <metadata
     id="metadata5">
    <rdf:RDF>
      <cc:Work
         rdf:about="">
        <dc:format>image/svg+xml</dc:format>
        <dc:type
           rdf:resource="http://purl.org/dc/dcmitype/StillImage" />
        <dc:title></dc:title>
      </cc:Work>
    </rdf:RDF>
  </metadata>
  <g
     id="layer1">
    <g
       id="g857"
       transform="matrix(0,-0.26458333,0.26458333,0,15.497024,6.0287203)">
      <title
         id="title853">Right Horizontal Mark, RH</title>
      <polygon
         points="8,4 8,40 4,40 4,4 0,0 12,0 "
         style="fill:#ff0000"
         id="polygon855" />
    </g>
    <g
       id="g874"
       transform="matrix(0,-0.26458333,0.26458333,0,15.497024,9.0979624)">
      <title
         id="title870">Right Horizontal Mark, RH</title>
      <polygon
         points="0,0 12,0 8,4 8,40 4,40 4,4 "
         style="fill:#ff0000"
         id="polygon872" />
    </g>
    <g
       id="g880"
       transform="matrix(0,-0.26458333,0.26458333,0,15.497024,12.220046)">
      <title
         id="title876">Right Horizontal Mark, RH</title>
      <polygon
         points="8,4 8,40 4,40 4,4 0,0 12,0 "
         style="fill:#ff0000"
         id="polygon878" />
    </g>
    <polygon
       points="12,0 8,4 8,60 4,60 4,4 0,0 "
       style="fill:#ff0000"
       id="polygon898"
       transform="matrix(0,-0.26458333,0.26458333,0,12.917336,15.721806)">
      <title
         id="title963">Right Horizontal Mark, RH</title>
    </polygon>
    <polygon
       points="4,4 0,0 12,0 8,4 8,50 4,50 "
       style="fill:#ff0000"
       id="polygon913"
       transform="matrix(0.26458333,0,0,0.26458333,12.278519,1.4078479)">
      <title
         id="title959">Down Vertical Mark, DV</title>
    </polygon>
    <polygon
       points="0,0 12,0 8,4 8,50 4,50 4,4 "
       style="fill:#ff0000"
       id="polygon917"
       transform="matrix(0.26458333,0,0,0.26458333,25.004977,1.4078479)">
      <title
         id="title961">Down Vertical Mark, DV</title>
    </polygon>
    <circle
       style="fill:#008000;fill-rule:evenodd;stroke-width:0.264583"
       id="path839"
       cx="26.552828"
       cy="13.98512"
       r="0.79374999">
      <title
         id="title993">Bottom 2 Touch Connector, B2T</title>
    </circle>
    <circle
       style="fill:#008000;fill-rule:evenodd;stroke-width:0.264583"
       id="circle981"
       cx="26.458332"
       cy="10.583334"
       r="0.79374999">
      <title
         id="title983">Right 2 Touch Connector, R2T</title>
    </circle>
    <circle
       style="fill:#008000;fill-rule:evenodd;stroke-width:0.264583"
       id="circle987"
       cx="26.505579"
       cy="4.3939738"
       r="0.79374999">
      <title
         id="title985">Right 2 Touch Connector, R2T</title>
    </circle>
    <circle
       style="fill:#008000;fill-rule:evenodd;stroke-width:0.264583"
       id="circle991"
       cx="26.458332"
       cy="7.5595245"
       r="0.79374999">
      <title
         id="title989">Right 2 Touch Connector, R2T</title>
    </circle>
    <circle
       style="fill:#008000;fill-rule:evenodd;stroke-width:0.264583"
       id="circle997"
       cx="13.985119"
       cy="13.84338"
       r="0.79374999">
      <title
         id="title995">Southwest Corner Connector, SWC</title>
    </circle>
    <polygon
       points="0,0 12,0 8,4 8,10 4,10 4,4 "
       style="fill:#ff0000"
       id="polygon1015"
       transform="matrix(0.18708867,-0.18708867,0.18708867,0.18708867,22.291146,13.620295)">
      <title
         id="title1030">Right Down Diagonal Mark, RDD</title>
    </polygon>
    <polygon
       points="4,10 4,4 0,0 12,0 8,4 8,10 "
       style="fill:#ff0000"
       id="polygon1034"
       transform="matrix(0.18708867,-0.18708867,0.18708867,0.18708867,18.93276,13.62982)">
      <title
         id="title1032">Right Down Diagonal Mark, RDD</title>
    </polygon>
    <polygon
       points="8,10 4,10 4,4 0,0 12,0 8,4 "
       style="fill:#ff0000"
       id="polygon1038"
       transform="matrix(0.18708867,-0.18708867,0.18708867,0.18708867,15.565164,13.626116)">
      <title
         id="title1036">Right Down Diagonal Mark, RDD</title>
    </polygon>
    <polygon
       points="4,4 0,0 12,0 8,4 8,10 4,10 "
       style="fill:#ff0000"
       id="polygon1048"
       transform="matrix(0.18708867,-0.18708867,0.18708867,0.18708867,27.112383,9.2414411)">
      <title
         id="title1046">Right Down Diagonal Mark, RDD</title>
    </polygon>
    <circle
       style="fill:#008000;fill-rule:evenodd;stroke-width:0.264583"
       id="circle1052"
       cx="24.804689"
       cy="13.890625"
       r="0.79374999">
      <title
         id="title1050">Other 2 Touch Connector, O2T</title>
    </circle>
    <circle
       style="fill:#008000;fill-rule:evenodd;stroke-width:0.264583"
       id="circle1056"
       cx="27.403275"
       cy="9.0714293"
       r="0.79374999">
      <title
         id="title1054">Other 2 Touch Connector, O2T</title>
    </circle>
    <circle
       style="fill:#008000;fill-rule:evenodd;stroke-width:0.264583"
       id="circle1060"
       cx="17.764883"
       cy="13.937872"
       r="0.79374999">
      <title
         id="title1058">Other 2 Touch Connector, O2T</title>
    </circle>
    <circle
       style="fill:#008000;fill-rule:evenodd;stroke-width:0.264583"
       id="circle1064"
       cx="21.308411"
       cy="13.937872"
       r="0.79374999">
      <title
         id="title1062">Other 2 Touch Connector, O2T</title>
    </circle>
  </g>
</svg>
