<?xml version="1.0" encoding="UTF-8" standalone="no"?>
<svg
   xmlns:dc="http://purl.org/dc/elements/1.1/"
   xmlns:cc="http://creativecommons.org/ns#"
   xmlns:rdf="http://www.w3.org/1999/02/22-rdf-syntax-ns#"
   xmlns:svg="http://www.w3.org/2000/svg"
   xmlns="http://www.w3.org/2000/svg"
   width="160"
   height="80"
   viewBox="0 0 42.333332 21.166667"
   version="1.1"
   id="svg8">
  <defs
     id="defs2" />
  <metadata
     id="metadata5">
    <rdf:RDF>
      <cc:Work
         rdf:about="">
        <dc:format>image/svg+xml</dc:format>
        <dc:type
           rdf:resource="http://purl.org/dc/dcmitype/StillImage" />
        <dc:title></dc:title>
      </cc:Work>
    </rdf:RDF>
  </metadata>
  <g
     id="layer1">
    <g
       id="g857"
       transform="matrix(0,-0.26458333,0.26458333,0,15.497024,6.0287203)">
      <title
         id="title853">Right Horizontal Mark, RH</title>
      <polygon
         points="8,4 8,40 4,40 4,4 0,0 12,0 "
         style="fill:#ff0000"
         id="polygon855" />
    </g>
    <g
       id="g874"
       transform="matrix(0,-0.26458333,0.26458333,0,15.497024,9.0979624)">
      <title
         id="title870">Right Horizontal Mark, RH</title>
      <polygon
         points="4,40 4,4 0,0 12,0 8,4 8,40 "
         style="fill:#ff0000"
         id="polygon872" />
    </g>
    <g
       id="g880"
       transform="matrix(0,-0.26458333,0.26458333,0,15.497024,12.220046)">
      <title
         id="title876">Right Horizontal Mark, RH</title>
      <polygon
         points="0,0 12,0 8,4 8,40 4,40 4,4 "
         style="fill:#ff0000"
         id="polygon878" />
    </g>
    <polygon
       points="4,4 0,0 12,0 8,4 8,60 4,60 "
       style="fill:#ff0000"
       id="polygon898"
       transform="matrix(0,-0.26458333,0.26458333,0,12.917336,15.721806)">
      <title
         id="title963">Right Horizontal Mark, RH</title>
    </polygon>
    <polygon
       points="8,50 4,50 4,4 0,0 12,0 8,4 "
       style="fill:#ff0000"
       id="polygon913"
       transform="matrix(0.26458333,0,0,0.26458333,12.278519,1.4078479)">
      <title
         id="title959">Down Vertical Mark, DV</title>
    </polygon>
    <polygon
       points="4,50 4,4 0,0 12,0 8,4 8,50 "
       style="fill:#ff0000"
       id="polygon917"
       transform="matrix(0.26458333,0,0,0.26458333,25.004977,1.4078479)">
      <title
         id="title961">Down Vertical Mark, DV</title>
    </polygon>
    <polygon
       points="6,12 0,6 6,0 "
       style="fill:#ff0000"
       id="polygon931"
       transform="matrix(0.26458333,0,0,0.26458333,27.176488,7.7674109)">
      <title
         id="title945">Heel Mark, HE</title>
    </polygon>
    <polygon
       points="0,6 6,0 6,12 "
       style="fill:#ff0000"
       id="polygon949"
       transform="matrix(0.26458333,0,0,0.26458333,16.740452,10.632546)">
      <title
         id="title947">Heel Mark, HE</title>
    </polygon>
    <polygon
       points="6,12 0,6 6,0 "
       style="fill:#ff0000"
       id="polygon953"
       transform="matrix(0.26458333,0,0,0.26458333,19.968368,10.632546)">
      <title
         id="title951">Heel Mark, HE</title>
    </polygon>
    <polygon
       points="6,0 6,12 0,6 "
       style="fill:#ff0000"
       id="polygon957"
       transform="matrix(0.26458333,0,0,0.26458333,23.063992,10.632546)">
      <title
         id="title955">Heel Mark, HE</title>
    </polygon>
    <circle
       style="fill:#008000;fill-rule:evenodd;stroke-width:0.264583"
       id="path839"
       cx="26.552828"
       cy="13.98512"
       r="0.79374999">
      <title
         id="title993">Bottom 2 Touch Connector, B2T</title>
    </circle>
    <circle
       style="fill:#008000;fill-rule:evenodd;stroke-width:0.264583"
       id="circle981"
       cx="26.458332"
       cy="10.583334"
       r="0.79374999">
      <title
         id="title983">Right 2 Touch Connector, R2T</title>
    </circle>
    <circle
       style="fill:#008000;fill-rule:evenodd;stroke-width:0.264583"
       id="circle987"
       cx="26.505579"
       cy="4.3939738"
       r="0.79374999">
      <title
         id="title985">Right 2 Touch Connector, R2T</title>
    </circle>
    <circle
       style="fill:#008000;fill-rule:evenodd;stroke-width:0.264583"
       id="circle991"
       cx="26.458332"
       cy="7.5595245"
       r="0.79374999">
      <title
         id="title989">Right 2 Touch Connector, R2T</title>
    </circle>
    <circle
       style="fill:#008000;fill-rule:evenodd;stroke-width:0.264583"
       id="circle997"
       cx="13.985119"
       cy="13.84338"
       r="0.79374999">
      <title
         id="title995">Southwest Corner Connector, SWC</title>
    </circle>
  </g>
</svg>
