<?xml version="1.0" encoding="UTF-8" standalone="no"?>
<svg
   xmlns:dc="http://purl.org/dc/elements/1.1/"
   xmlns:cc="http://creativecommons.org/ns#"
   xmlns:rdf="http://www.w3.org/1999/02/22-rdf-syntax-ns#"
   xmlns:svg="http://www.w3.org/2000/svg"
   xmlns="http://www.w3.org/2000/svg"
   width="160"
   height="80"
   viewBox="0 0 42.333332 21.166667"
   version="1.1"
   id="svg8">
  <defs
     id="defs2" />
  <metadata
     id="metadata5">
    <rdf:RDF>
      <cc:Work
         rdf:about="">
        <dc:format>image/svg+xml</dc:format>
        <dc:type
           rdf:resource="http://purl.org/dc/dcmitype/StillImage" />
        <dc:title></dc:title>
      </cc:Work>
    </rdf:RDF>
  </metadata>
  <g
     id="layer1">
    <polygon
       points="12,0 8,4 8,40 4,40 4,4 0,0 "
       style="fill:#ff0000"
       id="polygon855"
       transform="matrix(0,-0.26458333,0.26458333,0,14.646577,5.6034974)">
      <title
         id="title948">Right Horizontal Mark, RH</title>
    </polygon>
    <polygon
       points="8,4 8,40 4,40 4,4 0,0 12,0 "
       style="fill:#ff0000"
       id="polygon871"
       transform="matrix(0,-0.26458333,0.26458333,0,14.646577,8.5669437)">
      <title
         id="title950">Right Horizontal Mark, RH</title>
    </polygon>
    <polygon
       points="8,40 4,40 4,4 0,0 12,0 8,4 "
       style="fill:#ff0000"
       id="polygon873"
       transform="matrix(0,-0.26458333,0.26458333,0,14.646577,11.583195)">
      <title
         id="title952">Right Horizontal Mark, RH</title>
    </polygon>
    <polygon
       points="8,40 4,40 4,4 0,0 12,0 8,4 "
       style="fill:#ff0000"
       id="polygon875"
       transform="matrix(0,-0.26458333,0.26458333,0,14.646577,14.546527)">
      <title
         id="title954">Right Horizontal Mark, RH</title>
    </polygon>
    <g
       id="g895"
       transform="matrix(0,-0.26458333,0.26458333,0,10.36029,16.954236)">
      <title
         id="title891">Right Horizontal Mark, RH</title>
      <polygon
         points="4,4 0,0 12,0 8,4 8,72 4,72 "
         style="fill:#ff0000"
         id="polygon893" />
    </g>
    <polygon
       points="8,45 4,45 4,4 0,0 12,0 8,4 "
       style="fill:#ff0000"
       id="polygon910"
       transform="matrix(0.26458333,0,0,0.26458333,12.582789,3.4869437)">
      <title
         id="title958">Down Vertical Mark, DV</title>
    </polygon>
    <polygon
       points="8,4 8,45 4,45 4,4 0,0 12,0 "
       style="fill:#ff0000"
       id="polygon914"
       transform="matrix(0.26458333,0,0,0.26458333,24.171539,3.4869437)">
      <title
         id="title956">Down Vertical Mark, DV</title>
    </polygon>
    <polygon
       points="8,4 8,40 4,40 4,4 0,0 12,0 "
       style="fill:#ff0000"
       id="polygon918"
       transform="matrix(0.26458333,0,0,0.26458333,18.509456,4.5188187)">
      <title
         id="title960">Down Vertical Mark, DV</title>
    </polygon>
    <polygon
       points="0,6 6,0 6,12 "
       style="fill:#ff0000"
       id="polygon932"
       transform="matrix(0.26458333,0,0,0.26458333,17.490849,6.8224704)">
      <title
         id="title946">Heel Mark, HE</title>
    </polygon>
    <circle
       style="fill:#008000;fill-rule:evenodd;stroke-width:0.264583"
       id="path839"
       cx="14.504837"
       cy="4.1577368"
       r="0.79374999">
      <title
         id="title1034">Northwest Corner Connector, NWC</title>
    </circle>
    <circle
       style="fill:#008000;fill-rule:evenodd;stroke-width:0.264583"
       id="circle978"
       cx="25.513391"
       cy="12.898437"
       r="0.79374999">
      <title
         id="title980">Right 2 Touch Connector, R2T</title>
    </circle>
    <circle
       style="fill:#008000;fill-rule:evenodd;stroke-width:0.264583"
       id="circle984"
       cx="25.503981"
       cy="6.9925585"
       r="0.79374999">
      <title
         id="title982">Right 2 Touch Connector, R2T</title>
    </circle>
    <circle
       style="fill:#008000;fill-rule:evenodd;stroke-width:0.264583"
       id="circle988"
       cx="25.560638"
       cy="10.016368"
       r="0.79374999">
      <title
         id="title986">Right 2 Touch Connector, R2T</title>
    </circle>
    <circle
       style="fill:#008000;fill-rule:evenodd;stroke-width:0.264583"
       id="circle990"
       cx="20.032736"
       cy="12.898437"
       r="0.79374999">
      <title
         id="title992">2 Cross Connector, 2C</title>
    </circle>
    <circle
       style="fill:#008000;fill-rule:evenodd;stroke-width:0.264583"
       id="circle996"
       cx="20.174477"
       cy="6.9453115"
       r="0.79374999">
      <title
         id="title994">2 Cross Connector, 2C</title>
    </circle>
    <circle
       style="fill:#008000;fill-rule:evenodd;stroke-width:0.264583"
       id="circle1000"
       cx="20.12723"
       cy="9.8273802"
       r="0.79374999">
      <title
         id="title998">2 Cross Connector, 2C</title>
    </circle>
    <circle
       style="fill:#008000;fill-rule:evenodd;stroke-width:0.264583"
       id="circle1002"
       cx="14.930058"
       cy="13.040177"
       r="0.79374999">
      <title
         id="title1004">Left 2 Touch Connector, L2T</title>
    </circle>
    <circle
       style="fill:#008000;fill-rule:evenodd;stroke-width:0.264583"
       id="circle1008"
       cx="14.788318"
       cy="7.0870523"
       r="0.79374999">
      <title
         id="title1006">Left 2 Touch Connector, L2T</title>
    </circle>
    <circle
       style="fill:#008000;fill-rule:evenodd;stroke-width:0.264583"
       id="circle1012"
       cx="14.835565"
       cy="10.063615"
       r="0.79374999">
      <title
         id="title1010">Left 2 Touch Connector, L2T</title>
    </circle>
    <circle
       style="fill:#008000;fill-rule:evenodd;stroke-width:0.264583"
       id="circle1014"
       cx="20.174479"
       cy="15.024552"
       r="0.79374999">
      <title
         id="title1016">Bottom 2 Touch Connector, B2T</title>
    </circle>
    <circle
       style="fill:#008000;fill-rule:evenodd;stroke-width:0.264583"
       id="circle1020"
       cx="14.2686"
       cy="14.930058"
       r="0.79374999">
      <title
         id="title1018">Bottom 2 Touch Connector, B2T</title>
    </circle>
    <circle
       style="fill:#008000;fill-rule:evenodd;stroke-width:0.264583"
       id="circle1024"
       cx="25.796875"
       cy="15.024551"
       r="0.79374999">
      <title
         id="title1022">Bottom 2 Touch Connector, B2T</title>
    </circle>
    <circle
       style="fill:#008000;fill-rule:evenodd;stroke-width:0.264583"
       id="circle1026"
       cx="20.079985"
       cy="4.3467264"
       r="0.79374999">
      <title
         id="title1028">Top 2 Touch Connector, T2T</title>
    </circle>
    <circle
       style="fill:#008000;fill-rule:evenodd;stroke-width:0.264583"
       id="circle1030"
       cx="25.749626"
       cy="4.1577368"
       r="0.79374999">
      <title
         id="title1032">Northeast Corner Connector, NEC</title>
    </circle>
  </g>
</svg>
