<?xml version="1.0" encoding="UTF-8" standalone="no"?>
<svg
   xmlns:dc="http://purl.org/dc/elements/1.1/"
   xmlns:cc="http://creativecommons.org/ns#"
   xmlns:rdf="http://www.w3.org/1999/02/22-rdf-syntax-ns#"
   xmlns:svg="http://www.w3.org/2000/svg"
   xmlns="http://www.w3.org/2000/svg"
   width="160"
   height="80"
   viewBox="0 0 42.333332 21.166667"
   version="1.1"
   id="svg8">
  <defs
     id="defs2" />
  <metadata
     id="metadata5">
    <rdf:RDF>
      <cc:Work
         rdf:about="">
        <dc:format>image/svg+xml</dc:format>
        <dc:type
           rdf:resource="http://purl.org/dc/dcmitype/StillImage" />
        <dc:title></dc:title>
      </cc:Work>
    </rdf:RDF>
  </metadata>
  <g
     id="layer1">
    <polygon
       points="4,4 0,0 12,0 8,4 8,45 4,45 "
       style="fill:#ff0000"
       id="polygon493"
       transform="matrix(0.26458333,0,0,0.26458333,10.857422,1.4761104)">
      <title
         id="title956">Down Vertical Mark, DV</title>
    </polygon>
    <polygon
       points="0,0 12,0 8,4 8,45 4,45 4,4 "
       style="fill:#ff0000"
       id="polygon948"
       transform="matrix(0.26458333,0,0,0.26458333,22.763672,1.4496521)">
      <title
         id="title958">Down Vertical Mark, DV</title>
    </polygon>
    <polygon
       points="0,0 12,0 8,4 8,45 4,45 4,4 "
       style="fill:#ff0000"
       id="polygon522"
       transform="matrix(0,-0.26458333,0.26458333,0,12.339108,14.484085)">
      <title
         id="title962">Right Horizontal Mark, RH</title>
    </polygon>
    <polygon
       points="0,0 12,0 8,4 8,45 4,45 4,4 "
       style="fill:#ff0000"
       id="polygon950"
       transform="matrix(0,-0.26458333,0.26458333,0,11.915755,3.5134021)">
      <title
         id="title960">Right Horizontal Mark, RH</title>
    </polygon>
    <g
       id="g376"
       transform="matrix(0.26458333,0,0,0.26458333,23.557422,1.1055806)">
      <title
         id="title372">Northeast Corner Connector, NEC</title>
      <circle
         cx="3"
         cy="3"
         r="3"
         style="fill:#008000"
         id="circle374" />
    </g>
    <g
       id="g423"
       transform="matrix(0.26458333,0,0,0.26458333,11.84016,1.2000743)">
      <title
         id="title419">Northwest Corner Connector, NWC</title>
      <circle
         cx="3"
         cy="3"
         r="3"
         style="fill:#008000"
         id="circle421" />
    </g>
    <g
       id="g417"
       transform="matrix(0.26458333,0,0,0.26458333,11.745666,12.208632)">
      <title
         id="title413">Southwest Corner Connector, SWC</title>
      <circle
         cx="3"
         cy="3"
         r="3"
         style="fill:#008000"
         id="circle415" />
    </g>
    <g
       id="g393"
       transform="matrix(0.26458333,0,0,0.26458333,23.462928,12.066891)">
      <title
         id="title389">Southeast Corner Connector, SEC</title>
      <circle
         cx="3"
         cy="3"
         r="3"
         style="fill:#008000"
         id="circle391" />
    </g>
  </g>
</svg>
