<?xml version="1.0" encoding="UTF-8" standalone="no"?>
<svg
   xmlns:dc="http://purl.org/dc/elements/1.1/"
   xmlns:cc="http://creativecommons.org/ns#"
   xmlns:rdf="http://www.w3.org/1999/02/22-rdf-syntax-ns#"
   xmlns:svg="http://www.w3.org/2000/svg"
   xmlns="http://www.w3.org/2000/svg"
   width="160"
   height="80"
   viewBox="0 0 42.333332 21.166667"
   version="1.1"
   id="svg8">
  <defs
     id="defs2" />
  <metadata
     id="metadata5">
    <rdf:RDF>
      <cc:Work
         rdf:about="">
        <dc:format>image/svg+xml</dc:format>
        <dc:type
           rdf:resource="http://purl.org/dc/dcmitype/StillImage" />
        <dc:title></dc:title>
      </cc:Work>
    </rdf:RDF>
  </metadata>
  <g
     id="layer1">
    <polygon
       points="0,0 12,0 8,4 8,45 4,45 4,4 "
       style="fill:#ff0000"
       id="polygon493"
       transform="matrix(0.26458333,0,0,0.26458333,13.713089,4.7426938)">
      <title
         id="title956">Down Vertical Mark, DV</title>
    </polygon>
    <polygon
       points="4,4 0,0 12,0 8,4 8,45 4,45 "
       style="fill:#ff0000"
       id="polygon948"
       transform="matrix(0.26458333,0,0,0.26458333,23.264434,4.7162355)">
      <title
         id="title958">Down Vertical Mark, DV</title>
    </polygon>
    <polygon
       points="4,40 4,4 0,0 12,0 8,4 8,40 "
       style="fill:#ff0000"
       id="polygon522"
       transform="matrix(0,-0.26458333,0.26458333,0,14.744964,17.750668)">
      <title
         id="title962">Right Horizontal Mark, RH</title>
    </polygon>
    <g
       id="g1034"
       transform="matrix(0,-0.26458333,0.26458333,0,17.812128,12.596057)">
      <title
         id="title1030">Right Horizontal Mark, RH</title>
      <polygon
         points="12,0 8,4 8,25 4,25 4,4 0,0 "
         style="fill:#ff0000"
         id="polygon1032" />
    </g>
    <circle
       style="fill:#008000;fill-rule:evenodd;stroke-width:0.264583"
       id="path839"
       cx="24.6157"
       cy="10.910359"
       r="0.79374999">
      <title
         id="title979">Right 2 Touch Connector, R2T</title>
    </circle>
    <polygon
       points="8,4 8,40 4,40 4,4 0,0 12,0 "
       style="fill:#ff0000"
       id="polygon1049"
       transform="matrix(0,-0.26458333,0.26458333,0,14.771423,7.2731312)">
      <title
         id="title1047">Right Horizontal Mark, RH</title>
    </polygon>
    <g
       id="g376"
       transform="matrix(0.26458333,0,0,0.26458333,24.058184,4.372164)">
      <title
         id="title372">Northeast Corner Connector, NEC</title>
      <circle
         cx="3"
         cy="3"
         r="3"
         style="fill:#008000"
         id="circle374" />
    </g>
    <g
       id="g393"
       transform="matrix(0.26458333,0,0,0.26458333,24.016494,15.333474)">
      <title
         id="title389">Southeast Corner Connector, SEC</title>
      <circle
         cx="3"
         cy="3"
         r="3"
         style="fill:#008000"
         id="circle391" />
    </g>
    <g
       id="g423"
       transform="matrix(0.26458333,0,0,0.26458333,14.659767,4.8918809)">
      <title
         id="title419">Northwest Corner Connector, NWC</title>
      <circle
         cx="3"
         cy="3"
         r="3"
         style="fill:#008000"
         id="circle421" />
    </g>
    <g
       id="g417"
       transform="matrix(0.26458333,0,0,0.26458333,14.469004,15.475215)">
      <title
         id="title413">Southwest Corner Connector, SWC</title>
      <circle
         cx="3"
         cy="3"
         r="3"
         style="fill:#008000"
         id="circle415" />
    </g>
  </g>
</svg>
