<?xml version="1.0" encoding="UTF-8" standalone="no"?>
<svg
   xmlns:dc="http://purl.org/dc/elements/1.1/"
   xmlns:cc="http://creativecommons.org/ns#"
   xmlns:rdf="http://www.w3.org/1999/02/22-rdf-syntax-ns#"
   xmlns:svg="http://www.w3.org/2000/svg"
   xmlns="http://www.w3.org/2000/svg"
   width="160"
   height="80"
   viewBox="0 0 42.333332 21.166667"
   version="1.1"
   id="svg8">
  <defs
     id="defs2" />
  <metadata
     id="metadata5">
    <rdf:RDF>
      <cc:Work
         rdf:about="">
        <dc:format>image/svg+xml</dc:format>
        <dc:type
           rdf:resource="http://purl.org/dc/dcmitype/StillImage" />
        <dc:title></dc:title>
      </cc:Work>
    </rdf:RDF>
  </metadata>
  <g
     id="layer1">
    <polygon
       points="12,0 8,4 8,45 4,45 4,4 0,0 "
       style="fill:#ff0000"
       id="polygon493"
       transform="matrix(0.26458333,0,0,0.26458333,8.5914561,4.6586514)">
      <title
         id="title956">Down Vertical Mark, DV</title>
    </polygon>
    <polygon
       points="8,45 4,45 4,4 0,0 12,0 8,4 "
       style="fill:#ff0000"
       id="polygon948"
       transform="matrix(0.26458333,0,0,0.26458333,22.534883,4.6321931)">
      <title
         id="title958">Down Vertical Mark, DV</title>
    </polygon>
    <polygon
       points="12,0 8,4 8,55 4,55 4,4 0,0 "
       style="fill:#ff0000"
       id="polygon522"
       transform="matrix(0,-0.26458333,0.26458333,0,9.0677053,17.666626)">
      <title
         id="title962">Right Horizontal Mark, RH</title>
    </polygon>
    <g
       id="g417"
       transform="matrix(0.26458333,0,0,0.26458333,9.3473711,15.391173)">
      <title
         id="title413">Southwest Corner Connector, SWC</title>
      <circle
         cx="3"
         cy="3"
         r="3"
         style="fill:#008000"
         id="circle415" />
    </g>
    <g
       id="g393"
       transform="matrix(0.26458333,0,0,0.26458333,23.234139,15.249432)">
      <title
         id="title389">Southeast Corner Connector, SEC</title>
      <circle
         cx="3"
         cy="3"
         r="3"
         style="fill:#008000"
         id="circle391" />
    </g>
    <polygon
       points="12,0 8,4 8,55 4,55 4,4 0,0 "
       style="fill:#ff0000"
       id="polygon983"
       transform="matrix(0,-0.26458333,0.26458333,0,9.0677053,7.2420053)">
      <title
         id="title981">Right Horizontal Mark, RH</title>
    </polygon>
    <g
       id="g423"
       transform="matrix(0.26458333,0,0,0.26458333,9.4852551,4.8078385)">
      <title
         id="title419">Northwest Corner Connector, NWC</title>
      <circle
         cx="3"
         cy="3"
         r="3"
         style="fill:#008000"
         id="circle421" />
    </g>
    <g
       id="g376"
       transform="matrix(0.26458333,0,0,0.26458333,23.328633,4.2881216)">
      <title
         id="title372">Northeast Corner Connector, NEC</title>
      <circle
         cx="3"
         cy="3"
         r="3"
         style="fill:#008000"
         id="circle374" />
    </g>
    <g
       id="g1014"
       transform="matrix(0,-0.26458333,0.26458333,0,12.992931,10.728854)">
      <title
         id="title1010">Right Horizontal Mark, RH</title>
      <polygon
         points="12,0 8,4 8,40 4,40 4,4 0,0 "
         style="fill:#ff0000"
         id="polygon1012" />
    </g>
    <g
       id="g1031"
       transform="matrix(0,-0.26458333,0.26458333,0,12.992931,13.903854)">
      <title
         id="title1027">Right Horizontal Mark, RH</title>
      <polygon
         points="12,0 8,4 8,40 4,40 4,4 0,0 "
         style="fill:#ff0000"
         id="polygon1029" />
    </g>
    <circle
       style="fill:#008000;fill-rule:evenodd;stroke-width:0.264583"
       id="circle1037"
       cx="24.001488"
       cy="9.1659231"
       r="0.79374999">
      <title
         id="title1035">Right 2 Touch Connector, R2T</title>
    </circle>
    <circle
       style="fill:#008000;fill-rule:evenodd;stroke-width:0.264583"
       id="path839"
       cx="24.001488"
       cy="12.331473"
       r="0.79374999">
      <title
         id="title1033">Right 2 Touch Connector, R2T</title>
    </circle>
  </g>
</svg>
