<?xml version="1.0" encoding="UTF-8" standalone="no"?>
<svg
   xmlns:dc="http://purl.org/dc/elements/1.1/"
   xmlns:cc="http://creativecommons.org/ns#"
   xmlns:rdf="http://www.w3.org/1999/02/22-rdf-syntax-ns#"
   xmlns:svg="http://www.w3.org/2000/svg"
   xmlns="http://www.w3.org/2000/svg"
   width="160"
   height="80"
   viewBox="0 0 42.333332 21.166667"
   version="1.1"
   id="svg8">
  <defs
     id="defs2" />
  <metadata
     id="metadata5">
    <rdf:RDF>
      <cc:Work
         rdf:about="">
        <dc:format>image/svg+xml</dc:format>
        <dc:type
           rdf:resource="http://purl.org/dc/dcmitype/StillImage" />
        <dc:title></dc:title>
      </cc:Work>
    </rdf:RDF>
  </metadata>
  <g
     id="layer1">
    <polygon
       points="8,4 8,45 4,45 4,4 0,0 12,0 "
       style="fill:#ff0000"
       id="polygon493"
       transform="matrix(0.26458333,0,0,0.26458333,8.5914561,4.6586514)">
      <title
         id="title956">Down Vertical Mark, DV</title>
    </polygon>
    <polygon
       points="4,45 4,4 0,0 12,0 8,4 8,45 "
       style="fill:#ff0000"
       id="polygon948"
       transform="matrix(0.26458333,0,0,0.26458333,22.534883,4.6321931)">
      <title
         id="title958">Down Vertical Mark, DV</title>
    </polygon>
    <polygon
       points="8,4 8,55 4,55 4,4 0,0 12,0 "
       style="fill:#ff0000"
       id="polygon522"
       transform="matrix(0,-0.26458333,0.26458333,0,9.0677053,17.666626)">
      <title
         id="title962">Right Horizontal Mark, RH</title>
    </polygon>
    <g
       id="g417"
       transform="matrix(0.26458333,0,0,0.26458333,9.3473711,15.391173)">
      <title
         id="title413">Southwest Corner Connector, SWC</title>
      <circle
         cx="3"
         cy="3"
         r="3"
         style="fill:#008000"
         id="circle415" />
    </g>
    <g
       id="g393"
       transform="matrix(0.26458333,0,0,0.26458333,23.234139,15.249432)">
      <title
         id="title389">Southeast Corner Connector, SEC</title>
      <circle
         cx="3"
         cy="3"
         r="3"
         style="fill:#008000"
         id="circle391" />
    </g>
    <polygon
       points="8,4 8,55 4,55 4,4 0,0 12,0 "
       style="fill:#ff0000"
       id="polygon983"
       transform="matrix(0,-0.26458333,0.26458333,0,9.0677053,7.2420053)">
      <title
         id="title981">Right Horizontal Mark, RH</title>
    </polygon>
    <g
       id="g423"
       transform="matrix(0.26458333,0,0,0.26458333,9.4852551,4.8078385)">
      <title
         id="title419">Northwest Corner Connector, NWC</title>
      <circle
         cx="3"
         cy="3"
         r="3"
         style="fill:#008000"
         id="circle421" />
    </g>
    <g
       id="g376"
       transform="matrix(0.26458333,0,0,0.26458333,23.328633,4.8966437)">
      <title
         id="title372">Northeast Corner Connector, NEC</title>
      <circle
         cx="3"
         cy="3"
         r="3"
         style="fill:#008000"
         id="circle374" />
    </g>
    <polygon
       points="4,40 4,4 0,0 12,0 8,4 8,40 "
       style="fill:#ff0000"
       id="polygon1041"
       transform="matrix(0,-0.26458333,0.26458333,0,11.806235,12.514792)">
      <title
         id="title1039">Right Horizontal Mark, RH</title>
    </polygon>
    <polygon
       points="4,4 0,0 12,0 8,4 8,30 4,30 "
       style="fill:#ff0000"
       id="polygon1045"
       transform="matrix(0.26458333,0,0,0.26458333,15.600892,6.8791666)">
      <title
         id="title1043">Down Vertical Mark, DV</title>
    </polygon>
    <circle
       style="fill:#008000;fill-rule:evenodd;stroke-width:0.264583"
       id="circle1057"
       cx="17.150669"
       cy="10.961309"
       r="0.79374999">
      <title
         id="title1055">2 Cross Connector, 2C</title>
    </circle>
  </g>
</svg>
