<?xml version="1.0" encoding="UTF-8" standalone="no"?>
<svg
   xmlns:dc="http://purl.org/dc/elements/1.1/"
   xmlns:cc="http://creativecommons.org/ns#"
   xmlns:rdf="http://www.w3.org/1999/02/22-rdf-syntax-ns#"
   xmlns:svg="http://www.w3.org/2000/svg"
   xmlns="http://www.w3.org/2000/svg"
   width="160"
   height="80"
   viewBox="0 0 42.333332 21.166667"
   version="1.1"
   id="svg8">
  <defs
     id="defs2" />
  <metadata
     id="metadata5">
    <rdf:RDF>
      <cc:Work
         rdf:about="">
        <dc:format>image/svg+xml</dc:format>
        <dc:type
           rdf:resource="http://purl.org/dc/dcmitype/StillImage" />
        <dc:title></dc:title>
      </cc:Work>
    </rdf:RDF>
  </metadata>
  <g
     id="layer1">
    <g
       id="g334"
       transform="matrix(0.26458333,0,0,0.26458333,2.9595721,4.7816306)">
      <title
         id="title330">Down Vertical Mark, DV</title>
      <polygon
         points="0,0 12,0 8,4 8,40 4,40 4,4 "
         style="fill:#ff0000"
         id="polygon332" />
    </g>
    <polygon
       points="6,0 6,12 0,6 "
       style="fill:#ff0000"
       id="polygon422"
       transform="matrix(0.26458333,0,0,0.26458333,5.8699891,3.1941306)">
      <title
         id="title436">Heel Mark, HE</title>
    </polygon>
    <polygon
       points="6,0 6,12 0,6 "
       style="fill:#ff0000"
       id="polygon970"
       transform="matrix(0.26458333,0,0,0.26458333,4.5471291,14.280092)">
      <title
         id="title968">Heel Mark, HE</title>
    </polygon>
    <polygon
       points="0,0 12,0 8,4 8,45 4,45 4,4 "
       style="fill:#ff0000"
       id="polygon493"
       transform="matrix(0.26458333,0,0,0.26458333,11.605945,4.280675)">
      <title
         id="title956">Down Vertical Mark, DV</title>
    </polygon>
    <polygon
       points="0,0 12,0 8,4 8,45 4,45 4,4 "
       style="fill:#ff0000"
       id="polygon948"
       transform="matrix(0.26458333,0,0,0.26458333,26.157766,4.2542167)">
      <title
         id="title958">Down Vertical Mark, DV</title>
    </polygon>
    <polygon
       points="8,4 8,55 4,55 4,4 0,0 12,0 "
       style="fill:#ff0000"
       id="polygon522"
       transform="matrix(0,-0.26458333,0.26458333,0,12.690475,17.235752)">
      <title
         id="title962">Right Horizontal Mark, RH</title>
    </polygon>
    <g
       id="g417"
       transform="matrix(0.26458333,0,0,0.26458333,12.626446,14.933877)">
      <title
         id="title413">Southwest Corner Connector, SWC</title>
      <circle
         cx="3"
         cy="3"
         r="3"
         style="fill:#008000"
         id="circle415" />
    </g>
    <g
       id="g393"
       transform="matrix(0.26458333,0,0,0.26458333,26.962894,14.871456)">
      <title
         id="title389">Southeast Corner Connector, SEC</title>
      <circle
         cx="3"
         cy="3"
         r="3"
         style="fill:#008000"
         id="circle391" />
    </g>
    <polygon
       points="4,4 0,0 12,0 8,4 8,55 4,55 "
       style="fill:#ff0000"
       id="polygon983"
       transform="matrix(0,-0.26458333,0.26458333,0,12.875683,6.8640289)">
      <title
         id="title981">Right Horizontal Mark, RH</title>
    </polygon>
    <g
       id="g423"
       transform="matrix(0.26458333,0,0,0.26458333,12.526169,4.4298621)">
      <title
         id="title419">Northwest Corner Connector, NWC</title>
      <circle
         cx="3"
         cy="3"
         r="3"
         style="fill:#008000"
         id="circle421" />
    </g>
    <g
       id="g376"
       transform="matrix(0.26458333,0,0,0.26458333,27.004433,4.3336102)">
      <title
         id="title372">Northeast Corner Connector, NEC</title>
      <circle
         cx="3"
         cy="3"
         r="3"
         style="fill:#008000"
         id="circle374" />
    </g>
    <g
       id="g1014"
       transform="matrix(0,-0.26458333,0.26458333,0,16.774582,10.350878)">
      <title
         id="title1010">Right Horizontal Mark, RH</title>
      <polygon
         points="8,4 8,40 4,40 4,4 0,0 12,0 "
         style="fill:#ff0000"
         id="polygon1012" />
    </g>
    <g
       id="g1031"
       transform="matrix(0,-0.26458333,0.26458333,0,16.801041,13.525878)">
      <title
         id="title1027">Right Horizontal Mark, RH</title>
      <polygon
         points="0,0 12,0 8,4 8,40 4,40 4,4 "
         style="fill:#ff0000"
         id="polygon1029" />
    </g>
    <circle
       style="fill:#008000;fill-rule:evenodd;stroke-width:0.264583"
       id="circle1037"
       cx="27.809561"
       cy="8.7879467"
       r="0.79374999">
      <title
         id="title1035">Right 2 Touch Connector, R2T</title>
    </circle>
    <circle
       style="fill:#008000;fill-rule:evenodd;stroke-width:0.264583"
       id="path839"
       cx="27.730185"
       cy="11.953497"
       r="0.79374999">
      <title
         id="title1033">Right 2 Touch Connector, R2T</title>
    </circle>
    <g
       id="g1143"
       transform="matrix(0,-0.26458333,0.26458333,0,6.1421126,11.934599)">
      <title
         id="title1139">Right Horizontal Mark, RH</title>
      <polygon
         points="8,25 4,25 4,4 0,0 12,0 8,4 "
         style="fill:#ff0000"
         id="polygon1141" />
    </g>
    <g
       id="g651"
       transform="matrix(0.26458333,0,0,0.26458333,12.131126,9.5630283)">
      <title
         id="title647">Right 2 Touch Connector, R2T</title>
      <circle
         cx="3"
         cy="3"
         r="3"
         style="fill:#008000"
         id="circle649" />
    </g>
  </g>
</svg>
