<?xml version="1.0" encoding="UTF-8" standalone="no"?>
<svg
   xmlns:dc="http://purl.org/dc/elements/1.1/"
   xmlns:cc="http://creativecommons.org/ns#"
   xmlns:rdf="http://www.w3.org/1999/02/22-rdf-syntax-ns#"
   xmlns:svg="http://www.w3.org/2000/svg"
   xmlns="http://www.w3.org/2000/svg"
   width="160"
   height="80"
   viewBox="0 0 42.333332 21.166667"
   version="1.1"
   id="svg8">
  <defs
     id="defs2" />
  <metadata
     id="metadata5">
    <rdf:RDF>
      <cc:Work
         rdf:about="">
        <dc:format>image/svg+xml</dc:format>
        <dc:type
           rdf:resource="http://purl.org/dc/dcmitype/StillImage" />
        <dc:title></dc:title>
      </cc:Work>
    </rdf:RDF>
  </metadata>
  <g
     id="layer1">
    <g
       id="g857"
       transform="matrix(0.26458333,0,0,0.26458333,6.5389876,4.9609379)">
      <title
         id="title853">Down Vertical Mark, DV</title>
      <polygon
         points="4,4 0,0 12,0 8,4 8,40 4,40 "
         style="fill:#ff0000"
         id="polygon855" />
    </g>
    <polygon
       points="6,0 6,12 0,6 "
       style="fill:#ff0000"
       id="polygon931"
       transform="matrix(0.26458333,0,0,0.26458333,8.7349541,13.110104)">
      <title
         id="title945">Heel Mark, HE</title>
    </polygon>
    <polygon
       points="0,6 6,0 6,12 "
       style="fill:#ff0000"
       id="polygon949"
       transform="matrix(0.26458333,0,0,0.26458333,9.8197458,3.3734379)">
      <title
         id="title947">Heel Mark, HE</title>
    </polygon>
    <polygon
       points="4,4 0,0 12,0 8,4 8,45 4,45 "
       style="fill:#ff0000"
       id="polygon493"
       transform="matrix(0.26458333,0,0,0.26458333,12.677378,4.2126394)">
      <title
         id="title956">Down Vertical Mark, DV</title>
    </polygon>
    <polygon
       points="4,45 4,4 0,0 12,0 8,4 8,45 "
       style="fill:#ff0000"
       id="polygon948"
       transform="matrix(0.26458333,0,0,0.26458333,22.228723,4.1861811)">
      <title
         id="title958">Down Vertical Mark, DV</title>
    </polygon>
    <polygon
       points="8,40 4,40 4,4 0,0 12,0 8,4 "
       style="fill:#ff0000"
       id="polygon522"
       transform="matrix(0,-0.26458333,0.26458333,0,13.709253,17.220614)">
      <title
         id="title962">Right Horizontal Mark, RH</title>
    </polygon>
    <g
       id="g1034"
       transform="matrix(0,-0.26458333,0.26458333,0,16.776417,12.066003)">
      <title
         id="title1030">Right Horizontal Mark, RH</title>
      <polygon
         points="12,0 8,4 8,25 4,25 4,4 0,0 "
         style="fill:#ff0000"
         id="polygon1032" />
    </g>
    <circle
       style="fill:#008000;fill-rule:evenodd;stroke-width:0.264583"
       id="path839"
       cx="23.579988"
       cy="10.380305"
       r="0.79374999">
      <title
         id="title979">Right 2 Touch Connector, R2T</title>
    </circle>
    <polygon
       points="12,0 8,4 8,40 4,40 4,4 0,0 "
       style="fill:#ff0000"
       id="polygon1049"
       transform="matrix(0,-0.26458333,0.26458333,0,13.735712,6.7430768)">
      <title
         id="title1047">Right Horizontal Mark, RH</title>
    </polygon>
    <g
       id="g376"
       transform="matrix(0.26458333,0,0,0.26458333,23.022473,3.8421096)">
      <title
         id="title372">Northeast Corner Connector, NEC</title>
      <circle
         cx="3"
         cy="3"
         r="3"
         style="fill:#008000"
         id="circle374" />
    </g>
    <g
       id="g393"
       transform="matrix(0.26458333,0,0,0.26458333,22.980783,14.80342)">
      <title
         id="title389">Southeast Corner Connector, SEC</title>
      <circle
         cx="3"
         cy="3"
         r="3"
         style="fill:#008000"
         id="circle391" />
    </g>
    <g
       id="g423"
       transform="matrix(0.26458333,0,0,0.26458333,13.624056,4.3618265)">
      <title
         id="title419">Northwest Corner Connector, NWC</title>
      <circle
         cx="3"
         cy="3"
         r="3"
         style="fill:#008000"
         id="circle421" />
    </g>
    <g
       id="g417"
       transform="matrix(0.26458333,0,0,0.26458333,13.433293,14.945161)">
      <title
         id="title413">Southwest Corner Connector, SWC</title>
      <circle
         cx="3"
         cy="3"
         r="3"
         style="fill:#008000"
         id="circle415" />
    </g>
    <polygon
       points="6,0 6,12 0,6 "
       style="fill:#ff0000"
       id="polygon1106"
       transform="matrix(0.26458333,0,0,0.26458333,24.672396,8.8068448)">
      <title
         id="title1120">Heel Mark, HE</title>
    </polygon>
  </g>
</svg>
