<?xml version="1.0" encoding="UTF-8" standalone="no"?>
<svg
   xmlns:dc="http://purl.org/dc/elements/1.1/"
   xmlns:cc="http://creativecommons.org/ns#"
   xmlns:rdf="http://www.w3.org/1999/02/22-rdf-syntax-ns#"
   xmlns:svg="http://www.w3.org/2000/svg"
   xmlns="http://www.w3.org/2000/svg"
   width="160"
   height="80"
   viewBox="0 0 42.333332 21.166667"
   version="1.1"
   id="svg8">
  <defs
     id="defs2" />
  <metadata
     id="metadata5">
    <rdf:RDF>
      <cc:Work
         rdf:about="">
        <dc:format>image/svg+xml</dc:format>
        <dc:type
           rdf:resource="http://purl.org/dc/dcmitype/StillImage" />
        <dc:title></dc:title>
      </cc:Work>
    </rdf:RDF>
  </metadata>
  <g
     id="layer1">
    <polygon
       points="8,4 8,40 4,40 4,4 0,0 12,0 "
       style="fill:#ff0000"
       id="polygon855"
       transform="matrix(0.26458333,0,0,0.26458333,14.448104,4.7719499)">
      <title
         id="title871">Down Vertical Mark, DV</title>
    </polygon>
    <polygon
       points="12,0 8,4 8,40 4,40 4,4 0,0 "
       style="fill:#ff0000"
       id="polygon875"
       transform="matrix(0.26458333,0,0,0.26458333,19.766225,4.7719499)">
      <title
         id="title873">Down Vertical Mark, DV</title>
    </polygon>
    <g
       id="g926"
       transform="matrix(0,-0.26458333,0.26458333,0,13.134672,17.426517)">
      <title
         id="title922">Right Horizontal Mark, RH</title>
      <polygon
         points="8,40 4,40 4,4 0,0 12,0 8,4 "
         style="fill:#ff0000"
         id="polygon924" />
    </g>
    <circle
       style="fill:#008000;fill-rule:evenodd;stroke-width:0.264583"
       id="path839"
       cx="21.314039"
       cy="15.67471"
       r="0.79374999">
      <title
         id="title955">Bottom 2 Touch Connector, B2T</title>
    </circle>
    <circle
       style="fill:#008000;fill-rule:evenodd;stroke-width:0.264583"
       id="circle959"
       cx="16.063988"
       cy="15.686012"
       r="0.79374999">
      <title
         id="title957">Bottom 2 Touch Connector, B2T</title>
    </circle>
  </g>
</svg>
