<?xml version="1.0" encoding="UTF-8" standalone="no"?>
<svg
   xmlns:dc="http://purl.org/dc/elements/1.1/"
   xmlns:cc="http://creativecommons.org/ns#"
   xmlns:rdf="http://www.w3.org/1999/02/22-rdf-syntax-ns#"
   xmlns:svg="http://www.w3.org/2000/svg"
   xmlns="http://www.w3.org/2000/svg"
   width="160"
   height="80"
   viewBox="0 0 42.333332 21.166667"
   version="1.1"
   id="svg8">
  <defs
     id="defs2" />
  <metadata
     id="metadata5">
    <rdf:RDF>
      <cc:Work
         rdf:about="">
        <dc:format>image/svg+xml</dc:format>
        <dc:type
           rdf:resource="http://purl.org/dc/dcmitype/StillImage" />
        <dc:title></dc:title>
      </cc:Work>
    </rdf:RDF>
  </metadata>
  <g
     id="layer1">
    <g
       id="g82"
       transform="matrix(0.26458333,0,0,0.26458333,11.98759,5.4816753)">
      <title
         id="title78">Down Vertical Mark, DV</title>
      <polygon
         points="4,4 0,0 12,0 8,4 8,40 4,40 "
         style="fill:#ff0000"
         id="polygon80"
         transform="translate(0.17857143,5.1785715)" />
    </g>
    <g
       id="g88"
       transform="matrix(0.26458333,0,0,0.26458333,31.164137,6.7941232)">
      <title
         id="title84">Down Vertical Mark, DV</title>
      <polygon
         points="0,0 12,0 8,4 8,40 4,40 4,4 "
         style="fill:#ff0000"
         id="polygon86" />
    </g>
    <g
       id="g962"
       transform="matrix(0.26458333,0,0,0.26458333,8.6802987,5.4769883)">
      <title
         id="title958">Down Vertical Mark, DV</title>
      <polygon
         points="8,4 8,40 4,40 4,4 0,0 12,0 "
         style="fill:#ff0000"
         id="polygon960"
         transform="translate(0.17857143,5.1785715)" />
    </g>
    <g
       id="g1013"
       transform="matrix(0,-0.26458333,0.26458333,0,9.4683035,19.494123)">
      <title
         id="title1009">Right Horizontal Mark, RH</title>
      <polygon
         points="0,0 12,0 8,4 8,90 4,90 4,4 "
         style="fill:#ff0000"
         id="polygon1011" />
    </g>
    <g
       id="g1030"
       transform="matrix(0.26458333,0,0,0.26458333,27.883227,6.4681175)">
      <title
         id="title1026">Down Vertical Mark, DV</title>
      <polygon
         points="8,40 4,40 4,4 0,0 12,0 8,4 "
         style="fill:#ff0000"
         id="polygon1028"
         transform="translate(0.17857143,5.1785715)" />
    </g>
    <g
       id="g1036"
       transform="matrix(0.26458333,0,0,0.26458333,24.787602,6.4945758)">
      <title
         id="title1032">Down Vertical Mark, DV</title>
      <polygon
         points="0,0 12,0 8,4 8,40 4,40 4,4 "
         style="fill:#ff0000"
         id="polygon1034"
         transform="translate(0.17857143,5.1785715)" />
    </g>
    <g
       id="g1042"
       transform="matrix(0.26458333,0,0,0.26458333,21.586144,6.4945758)">
      <title
         id="title1038">Down Vertical Mark, DV</title>
      <polygon
         points="4,40 4,4 0,0 12,0 8,4 8,40 "
         style="fill:#ff0000"
         id="polygon1040"
         transform="translate(0.17857143,5.1785715)" />
    </g>
    <g
       id="g1048"
       transform="matrix(0.26458333,0,0,0.26458333,18.411144,6.4681175)">
      <title
         id="title1044">Down Vertical Mark, DV</title>
      <polygon
         points="12,0 8,4 8,40 4,40 4,4 0,0 "
         style="fill:#ff0000"
         id="polygon1046"
         transform="translate(0.17857143,5.1785715)" />
    </g>
    <g
       id="g1054"
       transform="matrix(0,-0.26458333,0.26458333,0,9.5211444,25.738402)">
      <title
         id="title1050">Right Horizontal Mark, RH</title>
      <polygon
         points="0,0 12,0 8,4 8,60 4,60 4,4 "
         style="fill:#ff0000"
         id="polygon1052"
         transform="translate(48.035715,26.428572)" />
    </g>
    <g
       id="g1060"
       transform="matrix(0,-0.26458333,0.26458333,0,9.5211444,28.83395)">
      <title
         id="title1056">Right Horizontal Mark, RH</title>
      <polygon
         points="4,60 4,4 0,0 12,0 8,4 8,60 "
         style="fill:#ff0000"
         id="polygon1058"
         transform="translate(48.035715,26.428572)" />
    </g>
    <g
       id="g139"
       transform="matrix(0.26458333,0,0,0.26458333,9.4795673,16.985304)">
      <title
         id="title135">Southwest Corner Connector, SWC</title>
      <circle
         cx="3"
         cy="3"
         r="3"
         style="fill:#008000"
         id="circle137" />
    </g>
    <g
       id="g156"
       transform="matrix(0.26458333,0,0,0.26458333,12.917335,16.941801)">
      <title
         id="title152">Bottom 2 Touch Connector, B2T</title>
      <circle
         cx="3"
         cy="3"
         r="3"
         style="fill:#008000"
         id="circle154" />
    </g>
    <g
       id="g1066"
       transform="matrix(0.26458333,0,0,0.26458333,19.295683,16.989048)">
      <title
         id="title1062">Bottom 2 Touch Connector, B2T</title>
      <circle
         cx="3"
         cy="3"
         r="3"
         style="fill:#008000"
         id="circle1064" />
    </g>
    <g
       id="g1072"
       transform="matrix(0.26458333,0,0,0.26458333,22.461234,16.989048)">
      <title
         id="title1068">Bottom 2 Touch Connector, B2T</title>
      <circle
         cx="3"
         cy="3"
         r="3"
         style="fill:#008000"
         id="circle1070" />
    </g>
    <g
       id="g1078"
       transform="matrix(0.26458333,0,0,0.26458333,25.626785,16.989048)">
      <title
         id="title1074">Bottom 2 Touch Connector, B2T</title>
      <circle
         cx="3"
         cy="3"
         r="3"
         style="fill:#008000"
         id="circle1076" />
    </g>
    <g
       id="g1084"
       transform="matrix(0.26458333,0,0,0.26458333,28.792336,17.036295)">
      <title
         id="title1080">Bottom 2 Touch Connector, B2T</title>
      <circle
         cx="3"
         cy="3"
         r="3"
         style="fill:#008000"
         id="circle1082" />
    </g>
    <g
       id="g162"
       transform="matrix(0.26458333,0,0,0.26458333,32.109116,16.949321)">
      <title
         id="title158">Southeast Corner Connector, SEC</title>
      <circle
         cx="3"
         cy="3"
         r="3"
         style="fill:#008000"
         id="circle160" />
    </g>
    <g
       id="g1090"
       transform="matrix(0.26458333,0,0,0.26458333,31.83701,13.77829)">
      <title
         id="title1086">Right 2 Touch Connector, R2T</title>
      <circle
         cx="3"
         cy="3"
         r="3"
         style="fill:#008000"
         id="circle1088" />
    </g>
    <g
       id="g168"
       transform="matrix(0.26458333,0,0,0.26458333,31.789763,10.659987)">
      <title
         id="title164">Right 2 Touch Connector, R2T</title>
      <circle
         cx="3"
         cy="3"
         r="3"
         style="fill:#008000"
         id="circle166" />
    </g>
    <g
       id="g1096"
       transform="matrix(0.26458333,0,0,0.26458333,28.860448,10.659987)">
      <title
         id="title1092">2 Cross Connector, 2C</title>
      <circle
         cx="3"
         cy="3"
         r="3"
         style="fill:#008000"
         id="circle1094" />
    </g>
    <g
       id="g1102"
       transform="matrix(0.26458333,0,0,0.26458333,28.718707,13.731044)">
      <title
         id="title1098">2 Cross Connector, 2C</title>
      <circle
         cx="3"
         cy="3"
         r="3"
         style="fill:#008000"
         id="circle1100" />
    </g>
    <g
       id="g1108"
       transform="matrix(0.26458333,0,0,0.26458333,25.64765,13.683797)">
      <title
         id="title1104">2 Cross Connector, 2C</title>
      <circle
         cx="3"
         cy="3"
         r="3"
         style="fill:#008000"
         id="circle1106" />
    </g>
    <g
       id="g1114"
       transform="matrix(0.26458333,0,0,0.26458333,22.529346,13.731044)">
      <title
         id="title1110">2 Cross Connector, 2C</title>
      <circle
         cx="3"
         cy="3"
         r="3"
         style="fill:#008000"
         id="circle1112" />
    </g>
    <g
       id="g1120"
       transform="matrix(0.26458333,0,0,0.26458333,19.269301,13.825538)">
      <title
         id="title1116">2 Cross Connector, 2C</title>
      <circle
         cx="3"
         cy="3"
         r="3"
         style="fill:#008000"
         id="circle1118" />
    </g>
    <g
       id="g1126"
       transform="matrix(0.26458333,0,0,0.26458333,19.269301,10.659987)">
      <title
         id="title1122">2 Cross Connector, 2C</title>
      <circle
         cx="3"
         cy="3"
         r="3"
         style="fill:#008000"
         id="circle1124" />
    </g>
    <g
       id="g1132"
       transform="matrix(0.26458333,0,0,0.26458333,22.434852,10.659987)">
      <title
         id="title1128">2 Cross Connector, 2C</title>
      <circle
         cx="3"
         cy="3"
         r="3"
         style="fill:#008000"
         id="circle1130" />
    </g>
    <g
       id="g1138"
       transform="matrix(0.26458333,0,0,0.26458333,25.742144,10.707234)">
      <title
         id="title1134">2 Cross Connector, 2C</title>
      <circle
         cx="3"
         cy="3"
         r="3"
         style="fill:#008000"
         id="circle1136" />
    </g>
  </g>
</svg>
