<?xml version="1.0" encoding="UTF-8" standalone="no"?>
<svg
   xmlns:dc="http://purl.org/dc/elements/1.1/"
   xmlns:cc="http://creativecommons.org/ns#"
   xmlns:rdf="http://www.w3.org/1999/02/22-rdf-syntax-ns#"
   xmlns:svg="http://www.w3.org/2000/svg"
   xmlns="http://www.w3.org/2000/svg"
   width="160"
   height="80"
   viewBox="0 0 42.333332 21.166667"
   version="1.1"
   id="svg8">
  <defs
     id="defs2" />
  <metadata
     id="metadata5">
    <rdf:RDF>
      <cc:Work
         rdf:about="">
        <dc:format>image/svg+xml</dc:format>
        <dc:type
           rdf:resource="http://purl.org/dc/dcmitype/StillImage" />
        <dc:title></dc:title>
      </cc:Work>
    </rdf:RDF>
  </metadata>
  <g
     id="layer1">
    <polygon
       points="8,40 4,40 4,22 0,18 4,18 4,4 0,0 12,0 8,4 8,18 12,18 8,22 "
       style="fill:#ff0000"
       id="polygon851"
       transform="matrix(0.26458333,0,0,0.26458333,20.429613,6.3311011)">
      <title
         id="title865">Down Vertical Head-to-Tail Mark, DVHT</title>
    </polygon>
    <polygon
       points="4,4 0,0 12,0 8,4 8,18 12,18 8,22 8,40 4,40 4,22 0,18 4,18 "
       style="fill:#ff0000"
       id="polygon869"
       transform="matrix(0.26458333,0,0,0.26458333,13.470996,6.3311011)">
      <title
         id="title867">Down Vertical Head-to-Tail Mark, DVHT</title>
    </polygon>
    <g
       id="g889"
       transform="matrix(0.0684792,-0.25556787,0.25556787,0.0684792,15.136283,8.048654)">
      <title
         id="title885">Right Down Diagonal Mark, RDD</title>
      <polygon
         points="8,4 8,25 4,25 4,4 0,0 12,0 "
         style="fill:#ff0000"
         id="polygon887" />
    </g>
    <g
       id="g906"
       transform="matrix(0.0684792,-0.25556787,0.25556787,0.0684792,15.083367,11.726362)">
      <title
         id="title902">Right Down Diagonal Mark, RDD</title>
      <polygon
         points="0,0 12,0 8,4 8,25 4,25 4,4 "
         style="fill:#ff0000"
         id="polygon904" />
    </g>
    <g
       id="g912"
       transform="matrix(0.0684792,-0.25556787,0.25556787,0.0684792,15.056908,13.843029)">
      <title
         id="title908">Right Down Diagonal Mark, RDD</title>
      <polygon
         points="8,25 4,25 4,4 0,0 12,0 8,4 "
         style="fill:#ff0000"
         id="polygon910" />
    </g>
    <circle
       style="fill:#008000;fill-rule:evenodd;stroke-width:0.264583"
       id="path839"
       cx="21.780878"
       cy="13.937872"
       r="0.79374999">
      <title
         id="title930">Other 2 Touch Connector, O2T</title>
    </circle>
    <circle
       style="fill:#008000;fill-rule:evenodd;stroke-width:0.264583"
       id="circle934"
       cx="15.497025"
       cy="6.5200896"
       r="0.79374999">
      <title
         id="title932">Other 2 Touch Connector, O2T</title>
    </circle>
    <circle
       style="fill:#008000;fill-rule:evenodd;stroke-width:0.264583"
       id="circle938"
       cx="21.875372"
       cy="8.1737356"
       r="0.79374999">
      <title
         id="title936">Other 2 Touch Connector, O2T</title>
    </circle>
    <circle
       style="fill:#008000;fill-rule:evenodd;stroke-width:0.264583"
       id="circle942"
       cx="15.733259"
       cy="10.063617"
       r="0.79374999">
      <title
         id="title940">Other 2 Touch Connector, O2T</title>
    </circle>
    <circle
       style="fill:#008000;fill-rule:evenodd;stroke-width:0.264583"
       id="circle946"
       cx="15.780506"
       cy="12.284226"
       r="0.79374999">
      <title
         id="title944">Other 2 Touch Connector, O2T</title>
    </circle>
    <circle
       style="fill:#008000;fill-rule:evenodd;stroke-width:0.264583"
       id="circle950"
       cx="21.8186"
       cy="11.717262"
       r="0.79374999">
      <title
         id="title948">Other 2 Touch Connector, O2T</title>
    </circle>
  </g>
</svg>
