<?xml version="1.0" encoding="UTF-8" standalone="no"?>
<svg
   xmlns:dc="http://purl.org/dc/elements/1.1/"
   xmlns:cc="http://creativecommons.org/ns#"
   xmlns:rdf="http://www.w3.org/1999/02/22-rdf-syntax-ns#"
   xmlns:svg="http://www.w3.org/2000/svg"
   xmlns="http://www.w3.org/2000/svg"
   width="160"
   height="80"
   viewBox="0 0 42.333332 21.166667"
   version="1.1"
   id="svg8">
  <defs
     id="defs2" />
  <metadata
     id="metadata5">
    <rdf:RDF>
      <cc:Work
         rdf:about="">
        <dc:format>image/svg+xml</dc:format>
        <dc:type
           rdf:resource="http://purl.org/dc/dcmitype/StillImage" />
        <dc:title></dc:title>
      </cc:Work>
    </rdf:RDF>
  </metadata>
  <g
     id="layer1">
    <g
       id="g888"
       transform="matrix(0.26458333,0,0,0.26458333,13.306765,12.343323)">
      <title
         id="title884">Down Vertical Mark, DV</title>
      <polygon
         points="16,25 12,25 12,4 0,0 28,0 16,4 "
         style="fill:#ff0000"
         id="polygon886">
        <title
           id="title901">Down Vertical Mark, DV</title>
      </polygon>
    </g>
    <polygon
       points="0,18 4,18 4,4 0,0 12,0 8,4 8,18 12,18 8,22 8,40 4,40 4,22 "
       style="fill:#ff0000"
       id="polygon1014"
       transform="matrix(0.26458333,0,0,0.26458333,15.447887,1.7362898)">
      <title
         id="title890">Down Vertical Head-to-Tail Mark, DVHT</title>
    </polygon>
    <circle
       style="fill:#008000;fill-rule:evenodd;stroke-width:0.264583"
       id="path839"
       cx="17.052433"
       cy="12.48128"
       r="0.79374999">
      <title
         id="title949">Vertical 2 Touch Connector, V2T</title>
    </circle>
    <polygon
       points="0,18 4,18 4,4 0,0 12,0 8,4 8,18 12,18 8,22 8,40 4,40 4,22 "
       style="fill:#ff0000"
       id="polygon1028"
       transform="matrix(0.26458333,0,0,0.26458333,12.37872,1.7362898)">
      <title
         id="title892">Down Vertical Head-to-Tail Mark, DVHT</title>
    </polygon>
    <polygon
       points="4,40 4,22 0,18 4,18 4,4 0,0 12,0 8,4 8,18 12,18 8,22 8,40 "
       style="fill:#ff0000"
       id="polygon1030"
       transform="matrix(0.26458333,0,0,0.26458333,18.464137,1.7362898)">
      <title
         id="title888">Down Vertical Head-to-Tail Mark, DVHT</title>
    </polygon>
  </g>
</svg>
