<?xml version="1.0" encoding="UTF-8" standalone="no"?>
<svg
   xmlns:dc="http://purl.org/dc/elements/1.1/"
   xmlns:cc="http://creativecommons.org/ns#"
   xmlns:rdf="http://www.w3.org/1999/02/22-rdf-syntax-ns#"
   xmlns:svg="http://www.w3.org/2000/svg"
   xmlns="http://www.w3.org/2000/svg"
   width="160"
   height="80"
   viewBox="0 0 42.333332 21.166667"
   version="1.1"
   id="svg8">
  <defs
     id="defs2" />
  <metadata
     id="metadata5">
    <rdf:RDF>
      <cc:Work
         rdf:about="">
        <dc:format>image/svg+xml</dc:format>
        <dc:type
           rdf:resource="http://purl.org/dc/dcmitype/StillImage" />
        <dc:title></dc:title>
      </cc:Work>
    </rdf:RDF>
  </metadata>
  <g
     id="layer1">
    <g
       id="g857"
       transform="matrix(0.26458333,0,0,0.26458333,12.303125,0.23623462)">
      <title
         id="title853">Down Vertical Mark, DV</title>
      <polygon
         points="12,0 8,4 8,25 4,25 4,4 0,0 "
         style="fill:#ff0000"
         id="polygon855" />
    </g>
    <g
       id="g888"
       transform="matrix(0.26458333,0,0,0.26458333,13.357754,13.437129)">
      <title
         id="title884" />
      <polygon
         points="16,25 12,25 12,4 0,0 28,0 16,4 "
         style="fill:#ff0000"
         id="polygon886">
        <title
           id="title901">Down Vertical Mark, DV</title>
      </polygon>
    </g>
    <g
       id="g907"
       transform="matrix(0.26458333,0,0,0.26458333,15.478125,0.23623462)">
      <title
         id="title903">Down Vertical Mark, DV</title>
      <polygon
         points="12,0 8,4 8,25 4,25 4,4 0,0 "
         style="fill:#ff0000"
         id="polygon905" />
    </g>
    <g
       id="g913"
       transform="matrix(0.26458333,0,0,0.26458333,18.653125,0.23627291)">
      <title
         id="title909">Down Vertical Mark, DV</title>
      <polygon
         points="4,4 0,0 12,0 8,4 8,25 4,25 "
         style="fill:#ff0000"
         id="polygon911" />
    </g>
    <g
       id="g919"
       transform="matrix(0.26458333,0,0,0.26458333,12.303125,6.8508562)">
      <title
         id="title915">Down Vertical Mark, DV</title>
      <polygon
         points="4,25 4,4 0,0 12,0 8,4 8,25 "
         style="fill:#ff0000"
         id="polygon917" />
    </g>
    <g
       id="g925"
       transform="matrix(0.26458333,0,0,0.26458333,15.478125,6.8508562)">
      <title
         id="title921">Down Vertical Mark, DV</title>
      <polygon
         points="0,0 12,0 8,4 8,25 4,25 4,4 "
         style="fill:#ff0000"
         id="polygon923" />
    </g>
    <g
       id="g931"
       transform="matrix(0.26458333,0,0,0.26458333,18.653125,6.8773145)">
      <title
         id="title927">Down Vertical Mark, DV</title>
      <polygon
         points="12,0 8,4 8,25 4,25 4,4 0,0 "
         style="fill:#ff0000"
         id="polygon929" />
    </g>
    <circle
       style="fill:#008000;fill-rule:evenodd;stroke-width:0.264583"
       id="path839"
       cx="17.103422"
       cy="13.654389"
       r="0.79374999">
      <title
         id="title949">Vertical 2 Touch Connector, V2T</title>
    </circle>
    <circle
       style="fill:#008000;fill-rule:evenodd;stroke-width:0.264583"
       id="circle953"
       cx="20.221725"
       cy="6.945312"
       r="0.79374999">
      <title
         id="title951">Vertical 2 Touch Connector, V2T</title>
    </circle>
    <circle
       style="fill:#008000;fill-rule:evenodd;stroke-width:0.264583"
       id="circle957"
       cx="17.056175"
       cy="7.0398059"
       r="0.79374999">
      <title
         id="title955">Vertical 2 Touch Connector, V2T</title>
    </circle>
    <circle
       style="fill:#008000;fill-rule:evenodd;stroke-width:0.264583"
       id="circle961"
       cx="13.937872"
       cy="6.992559"
       r="0.79374999">
      <title
         id="title959">Vertical 2 Touch Connector, V2T</title>
    </circle>
  </g>
</svg>
