<?xml version="1.0" encoding="UTF-8" standalone="no"?>
<svg
   xmlns:dc="http://purl.org/dc/elements/1.1/"
   xmlns:cc="http://creativecommons.org/ns#"
   xmlns:rdf="http://www.w3.org/1999/02/22-rdf-syntax-ns#"
   xmlns:svg="http://www.w3.org/2000/svg"
   xmlns="http://www.w3.org/2000/svg"
   width="160"
   height="80"
   viewBox="0 0 42.333332 21.166667"
   version="1.1"
   id="svg8">
  <defs
     id="defs2" />
  <metadata
     id="metadata5">
    <rdf:RDF>
      <cc:Work
         rdf:about="">
        <dc:format>image/svg+xml</dc:format>
        <dc:type
           rdf:resource="http://purl.org/dc/dcmitype/StillImage" />
        <dc:title></dc:title>
      </cc:Work>
    </rdf:RDF>
  </metadata>
  <g
     id="layer1">
    <g
       id="g967"
       transform="matrix(0.26458333,0,0,0.26458333,16.859706,12.567708)">
      <title
         id="title963">Down Vertical Mark, DV</title>
      <polygon
         points="12,0 8,4 8,25 4,25 4,4 0,0 "
         style="fill:#ff0000"
         id="polygon965" />
    </g>
    <g
       id="g973"
       transform="matrix(0.26458333,0,0,0.26458333,13.658248,12.567708)">
      <title
         id="title969">Down Vertical Mark, DV</title>
      <polygon
         points="0,0 12,0 8,4 8,25 4,25 4,4 "
         style="fill:#ff0000"
         id="polygon971" />
    </g>
    <circle
       style="fill:#008000;fill-rule:evenodd;stroke-width:0.264583"
       id="path839"
       cx="15.283582"
       cy="13.179957"
       r="0.79374999">
      <title
         id="title949">Vertical 2 Touch Connector, V2T</title>
    </circle>
    <circle
       style="fill:#008000;fill-rule:evenodd;stroke-width:0.264583"
       id="circle977"
       cx="18.537956"
       cy="13.179955"
       r="0.79374999">
      <title
         id="title975">Vertical 2 Touch Connector, V2T</title>
    </circle>
    <polygon
       points="8,40 4,40 4,22 0,18 4,18 4,4 0,0 12,0 8,4 8,18 12,18 8,22 "
       style="fill:#ff0000"
       id="polygon1193"
       transform="matrix(0.26458333,0,0,0.26458333,15.219211,1.9843751)">
      <title
         id="title906">Down Vertical Head-to-Tail Mark, DVHT</title>
    </polygon>
    <polygon
       points="0,18 4,18 4,4 0,0 12,0 8,4 8,18 12,18 8,22 8,40 4,40 4,22 "
       style="fill:#ff0000"
       id="polygon1207"
       transform="matrix(0.26458333,0,0,0.26458333,12.599835,1.9843751)">
      <title
         id="title908">Down Vertical Head-to-Tail Mark, DVHT</title>
    </polygon>
    <polygon
       points="12,18 8,22 8,40 4,40 4,22 0,18 4,18 4,4 0,0 12,0 8,4 8,18 "
       style="fill:#ff0000"
       id="polygon1209"
       transform="matrix(0.26458333,0,0,0.26458333,17.865046,1.9843751)">
      <title
         id="title904">Down Vertical Head-to-Tail Mark, DVHT</title>
    </polygon>
  </g>
</svg>
