<?xml version="1.0" encoding="UTF-8" standalone="no"?>
<svg
   xmlns:dc="http://purl.org/dc/elements/1.1/"
   xmlns:cc="http://creativecommons.org/ns#"
   xmlns:rdf="http://www.w3.org/1999/02/22-rdf-syntax-ns#"
   xmlns:svg="http://www.w3.org/2000/svg"
   xmlns="http://www.w3.org/2000/svg"
   width="160"
   height="80"
   viewBox="0 0 42.333332 21.166667"
   version="1.1"
   id="svg8">
  <defs
     id="defs2" />
  <metadata
     id="metadata5">
    <rdf:RDF>
      <cc:Work
         rdf:about="">
        <dc:format>image/svg+xml</dc:format>
        <dc:type
           rdf:resource="http://purl.org/dc/dcmitype/StillImage" />
        <dc:title></dc:title>
      </cc:Work>
    </rdf:RDF>
  </metadata>
  <g
     id="layer1">
    <g
       id="g857"
       transform="matrix(0.26458333,0,0,0.26458333,17.401078,5.1971726)">
      <title
         id="title853">Down Vertical Mark, DV</title>
      <polygon
         points="12,0 8,4 8,40 4,40 4,4 0,0 "
         style="fill:#ff0000"
         id="polygon855" />
    </g>
    <g
       id="g874"
       transform="matrix(0.26458333,0,0,0.26458333,12.383444,5.1971726)">
      <title
         id="title870">Down Vertical Mark, DV</title>
      <polygon
         points="8,40 4,40 4,4 0,0 12,0 8,4 "
         style="fill:#ff0000"
         id="polygon872" />
    </g>
    <g
       id="g1088"
       transform="matrix(0,-0.26458333,0.26458333,0,7.9705721,11.887351)">
      <title
         id="title1084">Right Horizontal  Mark, RH</title>
      <polygon
         points="0,0 12,0 8,4 8,40 4,40 4,4 "
         style="fill:#ff0000"
         id="polygon1086" />
    </g>
    <circle
       style="fill:#008000;fill-rule:evenodd;stroke-width:0.264583"
       id="circle983"
       cx="13.829206"
       cy="10.252605"
       r="0.79374999">
      <title
         id="title981"> 2 Cross Connector, 2C</title>
    </circle>
    <circle
       style="fill:#008000;fill-rule:evenodd;stroke-width:0.264583"
       id="circle1036"
       cx="18.695648"
       cy="10.347098"
       r="0.79374999">
      <title
         id="title1034">Right 2 Touch Connector, R2T</title>
    </circle>
    <g
       id="g976"
       transform="matrix(0.18708867,-0.18708867,0.18708867,0.18708867,21.287052,7.6938932)">
      <title
         id="title972">Right Down Diagonal Mark, RDD</title>
      <polygon
         points="4,4 0,0 12,0 8,4 8,40 4,40 "
         style="fill:#ff0000"
         id="polygon974" />
    </g>
    <g
       id="g982"
       transform="matrix(0.18708867,-0.18708867,0.18708867,0.18708867,23.070873,5.9362661)">
      <title
         id="title978">Right Down Diagonal Mark, RDD</title>
      <polygon
         points="12,0 8,4 8,40 4,40 4,4 0,0 "
         style="fill:#ff0000"
         id="polygon980" />
    </g>
    <g
       id="g994"
       transform="matrix(0.18708867,-0.18708867,0.18708867,0.18708867,24.73378,4.3791932)">
      <title
         id="title990">Right Down Diagonal Mark , RDD</title>
      <polygon
         points="8,40 4,40 4,4 0,0 12,0 8,4 "
         style="fill:#ff0000"
         id="polygon992" />
    </g>
    <g
       id="g1000"
       transform="matrix(0.18708867,-0.18708867,0.18708867,0.18708867,19.533227,9.5004507)">
      <title
         id="title996">Right Down Diagonal Mark, RDD</title>
      <polygon
         points="4,40 4,4 0,0 12,0 8,4 8,40 "
         style="fill:#ff0000"
         id="polygon998" />
    </g>
    <g
       id="g1006"
       transform="matrix(-0.18708867,-0.18708867,0.18708867,-0.18708867,24.707607,15.385196)">
      <title
         id="title1002">Right Up Diagonal Mark, RUD</title>
      <polygon
         points="4,4 0,0 12,0 8,4 8,40 4,40 "
         style="fill:#ff0000"
         id="polygon1004" />
    </g>
    <g
       id="g1012"
       transform="matrix(-0.18708867,-0.18708867,0.18708867,-0.18708867,26.219511,16.849853)">
      <title
         id="title1008">Right Up Diagonal Mark, RUD</title>
      <polygon
         points="8,4 8,40 4,40 4,4 0,0 12,0 "
         style="fill:#ff0000"
         id="polygon1010" />
    </g>
    <circle
       style="fill:#008000;fill-rule:evenodd;stroke-width:0.264583"
       id="circle1016"
       cx="24.979504"
       cy="12.756698"
       r="0.79374999">
      <title
         id="title1014"> 2 Cross Connector, 2C</title>
    </circle>
    <circle
       style="fill:#008000;fill-rule:evenodd;stroke-width:0.264583"
       id="circle1020"
       cx="26.727644"
       cy="14.363096"
       r="0.79374999">
      <title
         id="title1018"> 2 Cross Connector, 2C</title>
    </circle>
    <circle
       style="fill:#008000;fill-rule:evenodd;stroke-width:0.264583"
       id="circle1024"
       cx="26.869385"
       cy="11.055806"
       r="0.79374999">
      <title
         id="title1022"> 2 Cross Connector, 2C</title>
    </circle>
    <circle
       style="fill:#008000;fill-rule:evenodd;stroke-width:0.264583"
       id="circle1028"
       cx="28.38129"
       cy="12.56771"
       r="0.79374999">
      <title
         id="title1026"> 2 Cross Connector, 2C</title>
    </circle>
    <circle
       style="fill:#008000;fill-rule:evenodd;stroke-width:0.264583"
       id="circle1032"
       cx="30.034935"
       cy="10.677829"
       r="0.79374999">
      <title
         id="title1030"> 2 Cross Connector, 2C</title>
    </circle>
    <circle
       style="fill:#008000;fill-rule:evenodd;stroke-width:0.264583"
       id="circle1037"
       cx="28.570278"
       cy="9.1186771"
       r="0.79374999">
      <title
         id="title1035"> 2 Cross Connector, 2C</title>
    </circle>
    <circle
       style="fill:#008000;fill-rule:evenodd;stroke-width:0.264583"
       id="circle1041"
       cx="31.877569"
       cy="8.9769373"
       r="0.79374999">
      <title
         id="title1039"> 2 Cross Connector, 2C</title>
    </circle>
    <circle
       style="fill:#008000;fill-rule:evenodd;stroke-width:0.264583"
       id="circle1045"
       cx="30.271172"
       cy="7.4177847"
       r="0.79374999">
      <title
         id="title1043"> 2 Cross Connector, 2C</title>
    </circle>
  </g>
</svg>
