<?xml version="1.0" encoding="UTF-8" standalone="no"?>
<svg
   xmlns:dc="http://purl.org/dc/elements/1.1/"
   xmlns:cc="http://creativecommons.org/ns#"
   xmlns:rdf="http://www.w3.org/1999/02/22-rdf-syntax-ns#"
   xmlns:svg="http://www.w3.org/2000/svg"
   xmlns="http://www.w3.org/2000/svg"
   width="160"
   height="80"
   viewBox="0 0 42.333332 21.166667"
   version="1.1"
   id="svg8">
  <defs
     id="defs2" />
  <metadata
     id="metadata5">
    <rdf:RDF>
      <cc:Work
         rdf:about="">
        <dc:format>image/svg+xml</dc:format>
        <dc:type
           rdf:resource="http://purl.org/dc/dcmitype/StillImage" />
        <dc:title></dc:title>
      </cc:Work>
    </rdf:RDF>
  </metadata>
  <g
     id="layer1">
    <g
       id="g857"
       transform="matrix(0.26458333,0,0,0.26458333,17.297135,6.1988098)">
      <title
         id="title853">Down Vertical Mark, DV</title>
      <polygon
         points="0,0 12,0 8,4 8,40 4,40 4,4 "
         style="fill:#ff0000"
         id="polygon855" />
    </g>
    <g
       id="g874"
       transform="matrix(0.26458333,0,0,0.26458333,13.725261,6.1988098)">
      <title
         id="title870">Down Vertical Mark, DV</title>
      <polygon
         points="8,4 8,40 4,40 4,4 0,0 12,0 "
         style="fill:#ff0000"
         id="polygon872" />
    </g>
    <polygon
       points="6,12 0,6 6,0 "
       style="fill:#ff0000"
       id="polygon908"
       transform="matrix(0.26458333,0,0,0.26458333,17.306586,15.856101)">
      <title
         id="title940">Heel Mark, HE</title>
    </polygon>
    <polygon
       points="6,12 0,6 6,0 "
       style="fill:#ff0000"
       id="polygon910"
       transform="matrix(0.26458333,0,0,0.26458333,24.341666,6.9736609)">
      <title
         id="title942">Heel Mark, HE</title>
    </polygon>
    <polygon
       points="6,12 0,6 6,0 "
       style="fill:#ff0000"
       id="polygon912"
       transform="matrix(0.26458333,0,0,0.26458333,26.472507,6.9357874)">
      <title
         id="title944">Heel Mark, HE</title>
    </polygon>
    <polygon
       points="6,0 6,12 0,6 "
       style="fill:#ff0000"
       id="polygon914"
       transform="matrix(0.26458333,0,0,0.26458333,26.472507,10.084329)">
      <title
         id="title946">Heel Mark, HE</title>
    </polygon>
    <polygon
       points="6,0 6,12 0,6 "
       style="fill:#ff0000"
       id="polygon918"
       transform="matrix(0.26458333,0,0,0.26458333,24.341666,13.323661)">
      <title
         id="title950">Heel Mark, HE</title>
    </polygon>
    <polygon
       points="6,12 0,6 6,0 "
       style="fill:#ff0000"
       id="polygon920"
       transform="matrix(0.26458333,0,0,0.26458333,26.472507,13.232871)">
      <title
         id="title952">Heel Mark, HE</title>
    </polygon>
    <polygon
       points="6,12 0,6 6,0 "
       style="fill:#ff0000"
       id="polygon955"
       transform="matrix(0.26458333,0,0,0.26458333,24.341666,10.148661)">
      <title
         id="title953">Heel Mark, HE</title>
    </polygon>
    <polygon
       points="8,35 12,40 0,40 4,35 4,4 0,0 12,0 8,4 "
       style="fill:#ff0000"
       id="polygon969"
       transform="matrix(0,-0.26458333,0.26458333,0,10.806375,13.123335)">
      <title
         id="title997">Right Horizontal Barbell, RHBB</title>
    </polygon>
    <g
       id="g987"
       transform="matrix(0.26458333,0,0,0.26458333,21.398176,6.1988098)">
      <title
         id="title983">Down Vertical Mark, DV</title>
      <polygon
         points="8,4 8,40 4,40 4,4 0,0 12,0 "
         style="fill:#ff0000"
         id="polygon985" />
    </g>
    <polygon
       points="6,12 0,6 6,0 "
       style="fill:#ff0000"
       id="polygon991"
       transform="matrix(0.26458333,0,0,0.26458333,13.668565,15.903348)">
      <title
         id="title989">Heel Mark, HE</title>
    </polygon>
    <circle
       style="fill:#008000;fill-rule:evenodd;stroke-width:0.264583"
       id="circle995"
       cx="18.950781"
       cy="11.58497"
       r="0.79374999">
      <title
         id="title993">2 Cross Connector, 2C</title>
    </circle>
    <circle
       style="fill:#008000;fill-rule:evenodd;stroke-width:0.264583"
       id="path839"
       cx="15.312761"
       cy="11.58497"
       r="0.79374999">
      <title
         id="title938">2 Cross Connector, 2C</title>
    </circle>
  </g>
</svg>
