<?xml version="1.0" encoding="UTF-8" standalone="no"?>
<svg
   xmlns:dc="http://purl.org/dc/elements/1.1/"
   xmlns:cc="http://creativecommons.org/ns#"
   xmlns:rdf="http://www.w3.org/1999/02/22-rdf-syntax-ns#"
   xmlns:svg="http://www.w3.org/2000/svg"
   xmlns="http://www.w3.org/2000/svg"
   width="160"
   height="80"
   viewBox="0 0 42.333332 21.166667"
   version="1.1"
   id="svg8">
  <defs
     id="defs2" />
  <metadata
     id="metadata5">
    <rdf:RDF>
      <cc:Work
         rdf:about="">
        <dc:format>image/svg+xml</dc:format>
        <dc:type
           rdf:resource="http://purl.org/dc/dcmitype/StillImage" />
        <dc:title></dc:title>
      </cc:Work>
    </rdf:RDF>
  </metadata>
  <g
     id="layer1">
    <g
       id="g935"
       transform="matrix(0,-0.26458333,0.26458333,0,13.745104,18.08616)">
      <title
         id="title931">Right Horizontal Mark, RH</title>
      <polygon
         points="0,0 12,0 8,4 8,72 4,72 4,4 "
         style="fill:#ff0000"
         id="polygon933" />
    </g>
    <g
       id="g900"
       transform="matrix(0.26458333,0,0,0.26458333,11.641667,1.0583334)">
      <title
         id="title896">Down Vertical Mark, DV</title>
      <polygon
         points="12,0 8,4 8,72 4,72 4,4 0,0 "
         style="fill:#ff0000"
         id="polygon898" />
    </g>
    <g
       id="g917"
       transform="matrix(0.26458333,0,0,0.26458333,20.6375,1.1055804)">
      <title
         id="title913">Down Vertical Mark, DV</title>
      <polygon
         points="4,72 4,4 0,0 12,0 8,4 8,72 "
         style="fill:#ff0000"
         id="polygon915" />
    </g>
    <g
       id="g923"
       transform="matrix(0.26458333,0,0,0.26458333,29.434893,1.1528274)">
      <title
         id="title919">Down Vertical Mark, DV</title>
      <polygon
         points="8,72 4,72 4,4 0,0 12,0 8,4 "
         style="fill:#ff0000"
         id="polygon921" />
    </g>
    <g
       id="g929"
       transform="matrix(0,-0.26458333,0.26458333,0,11.099271,21.26116)">
      <title
         id="title925">Right Horizontal Mark, RH</title>
      <polygon
         points="4,4 0,0 12,0 8,4 8,82 4,82 "
         style="fill:#ff0000"
         id="polygon927" />
    </g>
    <g
       id="g941"
       transform="matrix(0,-0.26458333,0.26458333,0,13.718646,14.064456)">
      <title
         id="title937">Right Horizontal Mark, RH</title>
      <polygon
         points="8,4 8,72 4,72 4,4 0,0 12,0 "
         style="fill:#ff0000"
         id="polygon939" />
    </g>
    <g
       id="g947"
       transform="matrix(0,-0.26458333,0.26458333,0,13.718646,9.8840409)">
      <title
         id="title943">Right Horizontal Mark, RH</title>
      <polygon
         points="0,0 12,0 8,4 8,72 4,72 4,4 "
         style="fill:#ff0000"
         id="polygon945" />
    </g>
    <g
       id="g953"
       transform="matrix(0,-0.26458333,0.26458333,0,13.745104,5.7300812)">
      <title
         id="title949">Right Horizontal Mark, RH</title>
      <polygon
         points="4,4 0,0 12,0 8,4 8,72 4,72 "
         style="fill:#ff0000"
         id="polygon951" />
    </g>
    <g
       id="g973"
       transform="matrix(0,-0.26458333,0.26458333,0,32.768646,12.000708)">
      <title
         id="title969">Right Horizontal Mark, RH</title>
      <polygon
         points="8,25 4,25 4,4 0,0 12,0 8,4 "
         style="fill:#ff0000"
         id="polygon971" />
    </g>
    <g
       id="g990"
       transform="matrix(0,-0.26458333,0.26458333,0,6.1213247,11.858967)">
      <title
         id="title986">Right Horizontal Mark, RH</title>
      <polygon
         points="0,0 12,0 8,4 8,25 4,25 4,4 "
         style="fill:#ff0000"
         id="polygon988" />
    </g>
    <circle
       style="fill:#008000;fill-rule:evenodd;stroke-width:0.264583"
       id="path839"
       cx="22.206102"
       cy="16.394716"
       r="0.79374999">
      <title
         id="title1014">2 Cross Connector, 2C</title>
    </circle>
    <circle
       style="fill:#008000;fill-rule:evenodd;stroke-width:0.264583"
       id="circle1008"
       cx="32.600445"
       cy="10.394344"
       r="0.79374999">
      <title
         id="title1052">Horizontal 2 Touch Connector, H2T</title>
    </circle>
    <circle
       style="fill:#008000;fill-rule:evenodd;stroke-width:0.264583"
       id="circle1010"
       cx="30.9468"
       cy="19.513018"
       r="0.79374999">
      <title
         id="title1044">Bottom 2 Touch Connector, B2T</title>
    </circle>
    <circle
       style="fill:#008000;fill-rule:evenodd;stroke-width:0.264583"
       id="circle1012"
       cx="22.2061"
       cy="19.702007"
       r="0.79374999">
      <title
         id="title1046">Bottom 2 Touch Connector, B2T</title>
    </circle>
    <circle
       style="fill:#008000;fill-rule:evenodd;stroke-width:0.264583"
       id="circle1018"
       cx="22.111607"
       cy="4.1104903"
       r="0.79374999">
      <title
         id="title1016">2 Cross Connector, 2C</title>
    </circle>
    <circle
       style="fill:#008000;fill-rule:evenodd;stroke-width:0.264583"
       id="circle1022"
       cx="31.088541"
       cy="4.1104903"
       r="0.79374999">
      <title
         id="title1020">2 Cross Connector, 2C</title>
    </circle>
    <circle
       style="fill:#008000;fill-rule:evenodd;stroke-width:0.264583"
       id="circle1026"
       cx="31.041294"
       cy="8.1264877"
       r="0.79374999">
      <title
         id="title1024">2 Cross Connector, 2C</title>
    </circle>
    <circle
       style="fill:#008000;fill-rule:evenodd;stroke-width:0.264583"
       id="circle1030"
       cx="22.158854"
       cy="8.2209816"
       r="0.79374999">
      <title
         id="title1028">2 Cross Connector, 2C</title>
    </circle>
    <circle
       style="fill:#008000;fill-rule:evenodd;stroke-width:0.264583"
       id="circle1034"
       cx="22.253347"
       cy="12.520461"
       r="0.79374999">
      <title
         id="title1032">2 Cross Connector, 2C</title>
    </circle>
    <circle
       style="fill:#008000;fill-rule:evenodd;stroke-width:0.264583"
       id="circle1038"
       cx="31.230282"
       cy="12.520461"
       r="0.79374999">
      <title
         id="title1036">2 Cross Connector, 2C</title>
    </circle>
    <circle
       style="fill:#008000;fill-rule:evenodd;stroke-width:0.264583"
       id="circle1042"
       cx="31.183035"
       cy="16.48921"
       r="0.79374999">
      <title
         id="title1040">2 Cross Connector, 2C</title>
    </circle>
    <circle
       style="fill:#008000;fill-rule:evenodd;stroke-width:0.264583"
       id="circle1050"
       cx="13.229166"
       cy="19.65476"
       r="0.79374999">
      <title
         id="title1048">Bottom 2 Touch Connector, B2T</title>
    </circle>
    <circle
       style="fill:#008000;fill-rule:evenodd;stroke-width:0.264583"
       id="circle1056"
       cx="13.843378"
       cy="4.1577368"
       r="0.79374999">
      <title
         id="title1054">Left 2 Touch Connector, L2T</title>
    </circle>
    <circle
       style="fill:#008000;fill-rule:evenodd;stroke-width:0.264583"
       id="circle1060"
       cx="14.079613"
       cy="8.3154745"
       r="0.79374999">
      <title
         id="title1058">Left 2 Touch Connector, L2T</title>
    </circle>
    <circle
       style="fill:#008000;fill-rule:evenodd;stroke-width:0.264583"
       id="circle1064"
       cx="14.079613"
       cy="12.425965"
       r="0.79374999">
      <title
         id="title1062">Left 2 Touch Connector, L2T</title>
    </circle>
    <circle
       style="fill:#008000;fill-rule:evenodd;stroke-width:0.264583"
       id="circle1068"
       cx="14.079613"
       cy="16.536457"
       r="0.79374999">
      <title
         id="title1066">Left 2 Touch Connector, L2T</title>
    </circle>
    <circle
       style="fill:#008000;fill-rule:evenodd;stroke-width:0.264583"
       id="circle1072"
       cx="13.276413"
       cy="10.347095"
       r="0.79374999">
      <title
         id="title1070">Right 2 Touch Connector, R2T</title>
    </circle>
  </g>
</svg>
