<?xml version="1.0" encoding="UTF-8" standalone="no"?>
<svg
   xmlns:dc="http://purl.org/dc/elements/1.1/"
   xmlns:cc="http://creativecommons.org/ns#"
   xmlns:rdf="http://www.w3.org/1999/02/22-rdf-syntax-ns#"
   xmlns:svg="http://www.w3.org/2000/svg"
   xmlns="http://www.w3.org/2000/svg"
   xmlns:sodipodi="http://sodipodi.sourceforge.net/DTD/sodipodi-0.dtd"
   xmlns:inkscape="http://www.inkscape.org/namespaces/inkscape"
   width="160"
   height="80"
   viewBox="0 0 42.333332 21.166667"
   version="1.1"
   id="svg8"
   inkscape:version="1.0.2-2 (e86c870879, 2021-01-15)"
   sodipodi:docname="m25x.svg">
  <defs
     id="defs2" />
  <sodipodi:namedview
     id="base"
     pagecolor="#ffffff"
     bordercolor="#666666"
     borderopacity="1.0"
     inkscape:pageopacity="0.0"
     inkscape:pageshadow="2"
     inkscape:zoom="5.6"
     inkscape:cx="93.197305"
     inkscape:cy="49.003659"
     inkscape:document-units="px"
     inkscape:current-layer="layer1"
     inkscape:document-rotation="0"
     showgrid="false"
     units="px"
     inkscape:window-width="1755"
     inkscape:window-height="1020"
     inkscape:window-x="114"
     inkscape:window-y="0"
     inkscape:window-maximized="0" />
  <metadata
     id="metadata5">
    <rdf:RDF>
      <cc:Work
         rdf:about="">
        <dc:format>image/svg+xml</dc:format>
        <dc:type
           rdf:resource="http://purl.org/dc/dcmitype/StillImage" />
        <dc:title></dc:title>
      </cc:Work>
    </rdf:RDF>
  </metadata>
  <g
     inkscape:label="Layer 1"
     inkscape:groupmode="layer"
     id="layer1">
    <g
       id="g935"
       transform="matrix(0,-0.26458333,0.26458333,0,13.034548,17.755376)">
      <title
         id="title931">Horizontal Line Mark, HL</title>
      <polygon
         points="4,72 4,4 4,0 8,0 8,4 8,72 "
         style="fill:#ff0000"
         id="polygon933" />
    </g>
    <g
       id="g900"
       transform="matrix(0.26458333,0,0,0.26458333,10.931111,1.0980778)">
      <title
         id="title896">Down Vertical Mark, DV</title>
      <polygon
         points="8,4 8,72 4,72 4,4 0,0 12,0 "
         style="fill:#ff0000"
         id="polygon898" />
    </g>
    <g
       id="g917"
       transform="matrix(0.26458333,0,0,0.26458333,20.932285,1.1453248)">
      <title
         id="title913">Down Vertical Mark, DV</title>
      <polygon
         points="8,72 4,72 4,4 0,0 12,0 8,4 "
         style="fill:#ff0000"
         id="polygon915" />
    </g>
    <g
       id="g923"
       transform="matrix(0.26458333,0,0,0.26458333,30.629262,1.1925718)">
      <title
         id="title919">Down Vertical Mark, DV</title>
      <polygon
         points="4,72 4,4 0,0 12,0 8,4 8,72 "
         style="fill:#ff0000"
         id="polygon921" />
    </g>
    <g
       id="g929"
       transform="matrix(0,-0.26458333,0.26458333,0,10.944264,21.300905)">
      <title
         id="title925">Right Horizontal Mark, RH</title>
      <polygon
         points="12,0 8,4 8,82 4,82 4,4 0,0 "
         style="fill:#ff0000"
         id="polygon927" />
    </g>
    <g
       id="g941"
       transform="matrix(0,-0.26458333,0.26458333,0,13.00809,14.104201)">
      <title
         id="title937">Horizontal Line Mark, HL</title>
      <polygon
         points="8,72 4,72 4,4 4,0 8,0 8,4 "
         style="fill:#ff0000"
         id="polygon939" />
    </g>
    <g
       id="g947"
       transform="matrix(0,-0.26458333,0.26458333,0,13.00809,10.347041)">
      <title
         id="title943">Horizontal Line Mark, HL</title>
      <polygon
         points="8,0 8,4 8,72 4,72 4,4 4,0 "
         style="fill:#ff0000"
         id="polygon945" />
    </g>
    <g
       id="g953"
       transform="matrix(0,-0.26458333,0.26458333,0,13.034548,3.2297498)">
      <title
         id="title949">Right Horizontal Mark, RH</title>
      <polygon
         points="8,4 8,72 4,72 4,4 0,0 12,0 "
         style="fill:#ff0000"
         id="polygon951" />
    </g>
    <g
       id="g990"
       transform="matrix(0,-0.26458333,0.26458333,0,5.4107679,11.898712)">
      <title
         id="title986">Right Horizontal Mark, RH</title>
      <polygon
         points="12,0 8,4 8,25 4,25 4,4 0,0 "
         style="fill:#ff0000"
         id="polygon988" />
    </g>
    <circle
       style="fill:#008000;fill-rule:evenodd;stroke-width:0.264583"
       id="path839"
       cx="22.659752"
       cy="16.222908"
       r="0.79374999">
      <title
         id="title1014">2 Cross Connector, 2C</title>
    </circle>
    <circle
       style="fill:#008000;fill-rule:evenodd;stroke-width:0.264583"
       id="circle1010"
       cx="32.353027"
       cy="19.552763"
       r="0.79374999">
      <title
         id="title1044">Southeast Corner Connector, SEC</title>
    </circle>
    <circle
       style="fill:#008000;fill-rule:evenodd;stroke-width:0.264583"
       id="circle1012"
       cx="22.395166"
       cy="19.741753"
       r="0.79374999">
      <title
         id="title1046">Bottom 2 Touch Connector, B2T</title>
    </circle>
    <circle
       style="fill:#008000;fill-rule:evenodd;stroke-width:0.264583"
       id="circle1026"
       cx="32.209354"
       cy="8.6425953"
       r="0.79374999">
      <title
         id="title1024">Right 2 Touch Connector, R2T</title>
    </circle>
    <circle
       style="fill:#008000;fill-rule:evenodd;stroke-width:0.264583"
       id="circle1030"
       cx="22.427179"
       cy="8.6047602"
       r="0.79374999">
      <title
         id="title1028">2 Cross Connector, 2C</title>
    </circle>
    <circle
       style="fill:#008000;fill-rule:evenodd;stroke-width:0.264583"
       id="circle1034"
       cx="22.468719"
       cy="12.560205"
       r="0.79374999">
      <title
         id="title1032">2 Cross Connector, 2C</title>
    </circle>
    <circle
       style="fill:#008000;fill-rule:evenodd;stroke-width:0.264583"
       id="circle1038"
       cx="32.186604"
       cy="12.560205"
       r="0.79374999">
      <title
         id="title1036">Right 2 Touch Connector, R2T</title>
    </circle>
    <circle
       style="fill:#008000;fill-rule:evenodd;stroke-width:0.264583"
       id="circle1042"
       cx="32.086327"
       cy="16.158613"
       r="0.79374999">
      <title
         id="title1040">Right 2 Touch Connector, R2T</title>
    </circle>
    <circle
       style="fill:#008000;fill-rule:evenodd;stroke-width:0.264583"
       id="circle1050"
       cx="12.51861"
       cy="19.694506"
       r="0.79374999">
      <title
         id="title1048">Southwest Corner Connector, SWC</title>
    </circle>
    <circle
       style="fill:#008000;fill-rule:evenodd;stroke-width:0.264583"
       id="circle1060"
       cx="13.369056"
       cy="8.9108849"
       r="0.79374999">
      <title
         id="title1058">Left 2 Touch Connector, L2T</title>
    </circle>
    <circle
       style="fill:#008000;fill-rule:evenodd;stroke-width:0.264583"
       id="circle1064"
       cx="13.369056"
       cy="12.46571"
       r="0.79374999">
      <title
         id="title1062">Left 2 Touch Connector, L2T</title>
    </circle>
    <circle
       style="fill:#008000;fill-rule:evenodd;stroke-width:0.264583"
       id="circle1068"
       cx="13.369056"
       cy="16.046959"
       r="0.79374999">
      <title
         id="title1066">Left 2 Touch Connector, L2T</title>
    </circle>
    <circle
       style="fill:#008000;fill-rule:evenodd;stroke-width:0.264583"
       id="circle1072"
       cx="12.565856"
       cy="10.386839"
       r="0.79374999">
      <title
         id="title1070">Right 2 Touch Connector, R2T</title>
    </circle>
    <g
       id="g1292"
       transform="matrix(0,-0.26458333,0.26458333,0,13.034472,6.6164165)">
      <title
         id="title1288">Horizontal Line Mark, HL</title>
      <polygon
         points="8,4 8,72 4,72 4,4 4,0 8,0 "
         style="fill:#ff0000"
         id="polygon1290" />
    </g>
    <circle
       style="fill:#008000;fill-rule:evenodd;stroke-width:0.264583"
       id="circle1018"
       cx="22.538837"
       cy="4.8910685"
       r="0.79374999">
      <title
         id="title1016">2 Cross Connector, 2C</title>
    </circle>
    <circle
       style="fill:#008000;fill-rule:evenodd;stroke-width:0.264583"
       id="circle1022"
       cx="32.071243"
       cy="4.8116937"
       r="0.79374999">
      <title
         id="title1020">Right 2 Touch Connector, R2T</title>
    </circle>
    <circle
       style="fill:#008000;fill-rule:evenodd;stroke-width:0.264583"
       id="circle1056"
       cx="13.23873"
       cy="4.9913459"
       r="0.79374999">
      <title
         id="title1054">Left 2 Touch Connector, L2T</title>
    </circle>
    <circle
       style="fill:#008000;fill-rule:evenodd;stroke-width:0.264583"
       id="circle1296"
       cx="13.285977"
       cy="1.8730422"
       r="0.79374999">
      <title
         id="title1294">Northwest Corner Connector, NWC</title>
    </circle>
    <circle
       style="fill:#008000;fill-rule:evenodd;stroke-width:0.264583"
       id="circle1300"
       cx="22.546394"
       cy="1.6368072"
       r="0.79374999">
      <title
         id="title1298">Top 2 Touch Connector, T2T</title>
    </circle>
    <circle
       style="fill:#008000;fill-rule:evenodd;stroke-width:0.264583"
       id="circle1304"
       cx="32.279282"
       cy="1.6840543"
       r="0.79374999">
      <title
         id="title1302">Northeast Corner Connector, NEC</title>
    </circle>
    <polygon
       points="6,12 0,6 6,0 "
       style="fill:#ff0000"
       id="polygon1172"
       transform="matrix(0.26458333,0,0,0.26458333,19.805952,8.5706103)">
      <title
         id="title1186">Heel Mark, HE</title>
    </polygon>
  </g>
</svg>
