<?xml version="1.0" encoding="UTF-8" standalone="no"?>
<svg
   xmlns:dc="http://purl.org/dc/elements/1.1/"
   xmlns:cc="http://creativecommons.org/ns#"
   xmlns:rdf="http://www.w3.org/1999/02/22-rdf-syntax-ns#"
   xmlns:svg="http://www.w3.org/2000/svg"
   xmlns="http://www.w3.org/2000/svg"
   width="160"
   height="80"
   viewBox="0 0 42.333332 21.166667"
   version="1.1"
   id="svg8">
  <defs
     id="defs2" />
  <metadata
     id="metadata5">
    <rdf:RDF>
      <cc:Work
         rdf:about="">
        <dc:format>image/svg+xml</dc:format>
        <dc:type
           rdf:resource="http://purl.org/dc/dcmitype/StillImage" />
        <dc:title></dc:title>
      </cc:Work>
    </rdf:RDF>
  </metadata>
  <g
     id="layer1">
    <g
       id="g857"
       transform="matrix(0.26458333,0,0,0.26458333,12.596057,9.9218746)">
      <title
         id="title853">Down Vertical Mark, DV</title>
      <polygon
         points="28,0 16,4 16,25 12,25 12,4 0,0 "
         style="fill:#ff0000"
         id="polygon855" />
    </g>
    <g
       id="g888"
       transform="matrix(0.26458333,0,0,0.26458333,17.861227,3.3072914)">
      <title
         id="title884">Down Vertical Mark, DV</title>
      <polygon
         points="4,25 4,4 0,0 12,0 8,4 8,25 "
         style="fill:#ff0000"
         id="polygon886" />
    </g>
    <g
       id="g905"
       transform="matrix(0.26458333,0,0,0.26458333,14.712724,3.3072914)">
      <title
         id="title901">Down Vertical Mark, DV</title>
      <polygon
         points="4,25 4,4 0,0 12,0 8,4 8,25 "
         style="fill:#ff0000"
         id="polygon903" />
    </g>
    <g
       id="g911"
       transform="matrix(0.26458333,0,0,0.26458333,11.590602,3.3072914)">
      <title
         id="title907">Down Vertical Mark, DV</title>
      <polygon
         points="8,4 8,25 4,25 4,4 0,0 12,0 "
         style="fill:#ff0000"
         id="polygon909" />
    </g>
    <g
       id="g931"
       transform="matrix(0,-0.26458333,0.26458333,0,9.1564737,13.096875)">
      <title
         id="title927">Right Horizontal Mark, RH</title>
      <polygon
         points="8,25 4,25 4,4 0,0 12,0 8,4 "
         style="fill:#ff0000"
         id="polygon929" />
    </g>
    <circle
       style="fill:#008000;fill-rule:evenodd;stroke-width:0.264583"
       id="path839"
       cx="16.241713"
       cy="11.622768"
       r="0.79374999">
      <title
         id="title962">Right 2 Touch Connector, R2Y</title>
    </circle>
    <circle
       style="fill:#008000;fill-rule:evenodd;stroke-width:0.264583"
       id="circle960"
       cx="16.252975"
       cy="9.921876"
       r="0.79374999">
      <title
         id="title964">Vertical 2 Touch Connector, V2T</title>
    </circle>
  </g>
</svg>
