<?xml version="1.0" encoding="UTF-8" standalone="no"?>
<svg
   xmlns:dc="http://purl.org/dc/elements/1.1/"
   xmlns:cc="http://creativecommons.org/ns#"
   xmlns:rdf="http://www.w3.org/1999/02/22-rdf-syntax-ns#"
   xmlns:svg="http://www.w3.org/2000/svg"
   xmlns="http://www.w3.org/2000/svg"
   width="160"
   height="80"
   viewBox="0 0 42.333332 21.166667"
   version="1.1"
   id="svg8">
  <defs
     id="defs2" />
  <metadata
     id="metadata5">
    <rdf:RDF>
      <cc:Work
         rdf:about="">
        <dc:format>image/svg+xml</dc:format>
        <dc:type
           rdf:resource="http://purl.org/dc/dcmitype/StillImage" />
        <dc:title></dc:title>
      </cc:Work>
    </rdf:RDF>
  </metadata>
  <g
     id="layer1">
    <g
       id="g857"
       transform="matrix(0.26458333,0,0,0.26458333,26.434685,6.8082718)">
      <title
         id="title853" />
    </g>
    <g
       id="g919"
       transform="matrix(0.22913589,-0.13229166,0.13229166,0.22913589,15.917595,7.9459207)">
      <title
         id="title915">Right Down Diagonal Mark, RDD</title>
      <polygon
         points="4,4 0,0 12,0 8,4 8,30 4,30 "
         style="fill:#ff0000"
         id="polygon917" />
    </g>
    <polygon
       points="4,24 4,4 0,0 12,0 8,4 8,24 "
       style="fill:#ff0000"
       id="polygon934"
       transform="matrix(0.22913589,-0.13229166,0.13229166,0.22913589,18.667226,6.3584207)">
      <title
         id="title1006">Right Down Diagonal Mark, RDD</title>
    </polygon>
    <polygon
       points="0,0 12,0 8,4 8,15 4,15 4,4 "
       style="fill:#ff0000"
       id="polygon938"
       transform="matrix(0.22913589,-0.13229166,0.13229166,0.22913589,21.416856,4.7709207)">
      <title
         id="title1004">Right Down Diagonal Mark, RDD</title>
    </polygon>
    <g
       id="g958"
       transform="matrix(0.22913589,0.13229166,-0.13229166,0.22913589,25.68828,3.0525966)">
      <title
         id="title954">Left Down Diagonal Mark, LDD</title>
      <polygon
         points="0,0 12,0 8,4 8,60 4,60 4,4 "
         style="fill:#ff0000"
         id="polygon956" />
    </g>
    <g
       id="g991"
       transform="matrix(0,-0.26458333,0.26458333,0,12.236978,11.74561)">
      <title
         id="title987">Right Horizontal Mark, RH</title>
      <polygon
         points="8,4 8,25 4,25 4,4 0,0 12,0 "
         style="fill:#ff0000"
         id="polygon989" />
    </g>
    <circle
       style="fill:#008000;fill-rule:evenodd;stroke-width:0.264583"
       id="path839"
       cx="18.709822"
       cy="10.158111"
       r="0.79374999">
      <title
         id="title1024">Other 2 Touch Connector, O2T</title>
    </circle>
    <circle
       style="fill:#008000;fill-rule:evenodd;stroke-width:0.264583"
       id="circle1028"
       cx="24.851934"
       cy="7.2287955"
       r="0.79374999">
      <title
         id="title1026">Other 2 Touch Connector, O2T</title>
    </circle>
    <circle
       style="fill:#008000;fill-rule:evenodd;stroke-width:0.264583"
       id="circle1032"
       cx="23.151041"
       cy="10.536087"
       r="0.79374999">
      <title
         id="title1030">Other 2 Touch Connector, O2T</title>
    </circle>
    <circle
       style="fill:#008000;fill-rule:evenodd;stroke-width:0.264583"
       id="circle1036"
       cx="21.213913"
       cy="13.559896"
       r="0.79374999">
      <title
         id="title1034">Other 2 Touch Connector, O2T</title>
    </circle>
  </g>
</svg>
