<?xml version="1.0" encoding="UTF-8" standalone="no"?>
<svg
   xmlns:dc="http://purl.org/dc/elements/1.1/"
   xmlns:cc="http://creativecommons.org/ns#"
   xmlns:rdf="http://www.w3.org/1999/02/22-rdf-syntax-ns#"
   xmlns:svg="http://www.w3.org/2000/svg"
   xmlns="http://www.w3.org/2000/svg"
   width="160"
   height="80"
   viewBox="0 0 42.333332 21.166667"
   version="1.1"
   id="svg8">
  <defs
     id="defs2" />
  <metadata
     id="metadata5">
    <rdf:RDF>
      <cc:Work
         rdf:about="">
        <dc:format>image/svg+xml</dc:format>
        <dc:type
           rdf:resource="http://purl.org/dc/dcmitype/StillImage" />
        <dc:title></dc:title>
      </cc:Work>
    </rdf:RDF>
  </metadata>
  <g
     id="layer1">
    <g
       id="g888"
       transform="matrix(0.26458333,0,0,0.26458333,24.729093,7.4083333)">
      <title
         id="title884">Down Vertical Mark, dv</title>
      <polygon
         points="12,0 8,4 8,25 4,25 4,4 0,0 "
         style="fill:#ff0000"
         id="polygon886" />
    </g>
    <g
       id="g905"
       transform="matrix(0.26458333,0,0,0.26458333,21.616458,7.4083333)">
      <title
         id="title901">Down Vertical Mark, DV</title>
      <polygon
         points="0,0 12,0 8,4 8,25 4,25 4,4 "
         style="fill:#ff0000"
         id="polygon903" />
    </g>
    <g
       id="g911"
       transform="matrix(0.26458333,0,0,0.26458333,15.443991,7.4083333)">
      <title
         id="title907">Down Vertical Mark, DV</title>
      <polygon
         points="8,4 8,25 4,25 4,4 0,0 12,0 "
         style="fill:#ff0000"
         id="polygon909" />
    </g>
    <g
       id="g917"
       transform="matrix(0.26458333,0,0,0.26458333,12.216077,7.4083333)">
      <title
         id="title913">Down Vertical Mark, DV</title>
      <polygon
         points="4,25 4,4 0,0 12,0 8,4 8,25 "
         style="fill:#ff0000"
         id="polygon915" />
    </g>
    <g
       id="g999"
       transform="matrix(0.13229167,-0.22913589,0.22913589,0.13229167,21.695833,4.7293543)">
      <title
         id="title995">Right Down Diagonal Mark, RDD</title>
      <polygon
         points="4,4 0,0 12,0 8,4 8,40 4,40 "
         style="fill:#ff0000"
         id="polygon997" />
    </g>
    <g
       id="g1016"
       transform="matrix(0.13229167,-0.22913589,0.22913589,0.13229167,13.034697,5.0261057)">
      <title
         id="title1012">Right Down Diagonal Mark, RDD</title>
      <polygon
         points="4,40 4,4 0,0 12,0 8,4 8,40 "
         style="fill:#ff0000"
         id="polygon1014" />
    </g>
    <g
       id="g1022"
       transform="matrix(-0.13229167,-0.22913589,0.22913589,-0.13229167,23.283333,18.775918)">
      <title
         id="title1018">Right Up Diagonal Mark, RUD</title>
      <polygon
         points="8,40 4,40 4,4 0,0 12,0 8,4 "
         style="fill:#ff0000"
         id="polygon1020" />
    </g>
    <g
       id="g1028"
       transform="matrix(-0.13229167,-0.22913589,0.22913589,-0.13229167,14.599443,18.52274)">
      <title
         id="title1024">Right Up Diagonal Mark, RUD</title>
      <polygon
         points="4,40 4,4 0,0 12,0 8,4 8,40 "
         style="fill:#ff0000"
         id="polygon1026" />
    </g>
    <g
       id="g1034"
       transform="matrix(0,-0.26458333,0.26458333,0,6.6561229,12.255878)">
      <title
         id="title1030">Right Horizontal  Mark, RH</title>
      <polygon
         points="4,4 0,0 12,0 8,4 8,25 4,25 "
         style="fill:#ff0000"
         id="polygon1032" />
    </g>
    <circle
       style="fill:#008000;fill-rule:evenodd;stroke-width:0.264583"
       id="path839"
       cx="22.962053"
       cy="11.953498"
       r="0.79374999">
      <title
         id="title1052">Other 2 Touch Connector, O2T</title>
    </circle>
    <circle
       style="fill:#008000;fill-rule:evenodd;stroke-width:0.264583"
       id="circle1056"
       cx="23.0093"
       cy="8.7406998"
       r="0.79374999">
      <title
         id="title1054">Other 2 Touch Connector, O2T</title>
    </circle>
    <circle
       style="fill:#008000;fill-rule:evenodd;stroke-width:0.264583"
       id="circle1060"
       cx="13.512649"
       cy="10.772323"
       r="0.79374999">
      <title
         id="title1058">Right 2 Touch Connector, R2T</title>
    </circle>
  </g>
</svg>
