<?xml version="1.0" encoding="UTF-8" standalone="no"?>
<svg
   xmlns:dc="http://purl.org/dc/elements/1.1/"
   xmlns:cc="http://creativecommons.org/ns#"
   xmlns:rdf="http://www.w3.org/1999/02/22-rdf-syntax-ns#"
   xmlns:svg="http://www.w3.org/2000/svg"
   xmlns="http://www.w3.org/2000/svg"
   width="160"
   height="80"
   viewBox="0 0 42.333332 21.166667"
   version="1.1"
   id="svg8">
  <defs
     id="defs2" />
  <metadata
     id="metadata5">
    <rdf:RDF>
      <cc:Work
         rdf:about="">
        <dc:format>image/svg+xml</dc:format>
        <dc:type
           rdf:resource="http://purl.org/dc/dcmitype/StillImage" />
        <dc:title></dc:title>
      </cc:Work>
    </rdf:RDF>
  </metadata>
  <g
     id="layer1">
    <g
       id="g1080"
       transform="matrix(0.26458333,0,0,0.26458333,11.783407,5.55625)">
      <title
         id="title1076">Down Vertical Mark, DV</title>
      <polygon
         points="8,40 4,40 4,4 0,0 12,0 8,4 "
         style="fill:#ff0000"
         id="polygon1078" />
    </g>
    <g
       id="g1097"
       transform="matrix(0.26458333,0,0,0.26458333,14.958407,5.55625)">
      <title
         id="title1093">Down Vertical Mark, DV</title>
      <polygon
         points="4,40 4,4 0,0 12,0 8,4 8,40 "
         style="fill:#ff0000"
         id="polygon1095" />
    </g>
    <g
       id="g1103"
       transform="matrix(0.26458333,0,0,0.26458333,21.195014,5.55625)">
      <title
         id="title1099">Down Vertical Mark, DV</title>
      <polygon
         points="12,0 8,4 8,40 4,40 4,4 0,0 "
         style="fill:#ff0000"
         id="polygon1101" />
    </g>
    <g
       id="g1109"
       transform="matrix(0.26458333,0,0,0.26458333,24.370014,5.55625)">
      <title
         id="title1105">Down Vertical Mark, DV</title>
      <polygon
         points="8,4 8,40 4,40 4,4 0,0 12,0 "
         style="fill:#ff0000"
         id="polygon1107" />
    </g>
    <g
       id="g1115"
       transform="matrix(0,-0.26458333,0.26458333,0,7.4177821,12.340923)">
      <title
         id="title1111">Right Horizontal Mark, RH</title>
      <polygon
         points="8,4 8,40 4,40 4,4 0,0 12,0 "
         style="fill:#ff0000"
         id="polygon1113" />
    </g>
    <polygon
       points="6,0 6,12 0,6 "
       style="fill:#ff0000"
       id="polygon1129"
       transform="matrix(0.26458333,0,0,0.26458333,27.412723,13.059078)">
      <title
         id="title1143">Heel Mark, HE</title>
    </polygon>
    <polygon
       points="6,12 0,6 6,0 "
       style="fill:#ff0000"
       id="polygon1147"
       transform="matrix(0.26458333,0,0,0.26458333,18.473585,5.509003)">
      <title
         id="title1145">Heel Mark, HE</title>
    </polygon>
    <polygon
       points="0,6 6,0 6,12 "
       style="fill:#ff0000"
       id="polygon1151"
       transform="matrix(0.26458333,0,0,0.26458333,18.426338,12.832292)">
      <title
         id="title1149">Heel Mark, HE</title>
    </polygon>
    <polygon
       points="6,0 6,12 0,6 "
       style="fill:#ff0000"
       id="polygon1155"
       transform="matrix(0.26458333,0,0,0.26458333,27.412723,5.5468009)">
      <title
         id="title1153">Heel Mark, HE</title>
    </polygon>
    <circle
       style="fill:#008000;fill-rule:evenodd;stroke-width:0.264583"
       id="path839"
       cx="16.536459"
       cy="10.677827"
       r="0.79374999">
      <title
         id="title1173">2 Cross Connector, 2C</title>
    </circle>
    <circle
       style="fill:#008000;fill-rule:evenodd;stroke-width:0.264583"
       id="circle1177"
       cx="13.323662"
       cy="10.677827"
       r="0.79374999">
      <title
         id="title1175">2 Cross Connector, 2C</title>
    </circle>
  </g>
</svg>
