<?xml version="1.0" encoding="UTF-8" standalone="no"?>
<svg
   xmlns:dc="http://purl.org/dc/elements/1.1/"
   xmlns:cc="http://creativecommons.org/ns#"
   xmlns:rdf="http://www.w3.org/1999/02/22-rdf-syntax-ns#"
   xmlns:svg="http://www.w3.org/2000/svg"
   xmlns="http://www.w3.org/2000/svg"
   width="160"
   height="80"
   viewBox="0 0 42.333332 21.166667"
   version="1.1"
   id="svg8">
  <defs
     id="defs2" />
  <metadata
     id="metadata5">
    <rdf:RDF>
      <cc:Work
         rdf:about="">
        <dc:format>image/svg+xml</dc:format>
        <dc:type
           rdf:resource="http://purl.org/dc/dcmitype/StillImage" />
        <dc:title></dc:title>
      </cc:Work>
    </rdf:RDF>
  </metadata>
  <g
     id="layer1">
    <g
       id="g894"
       transform="matrix(0,-0.26458333,0.26458333,0,13.956771,10.942411)">
      <title
         id="title890">Right Horizontal Mark, RH</title>
      <polygon
         points="8,25 4,25 4,4 0,0 12,0 8,4 "
         style="fill:#ff0000"
         id="polygon892" />
    </g>
    <g
       id="g911"
       transform="matrix(0,-0.26458333,0.26458333,0,7.3421871,10.942411)">
      <title
         id="title907">Right Horizontal Mark, RH</title>
      <polygon
         points="4,25 4,4 0,0 12,0 8,4 8,25 "
         style="fill:#ff0000"
         id="polygon909" />
    </g>
    <g
       id="g917"
       transform="matrix(0,-0.26458333,0.26458333,0,7.3421871,14.117411)">
      <title
         id="title913">Right Horizontal Mark, RH</title>
      <polygon
         points="12,0 8,4 8,25 4,25 4,4 0,0 "
         style="fill:#ff0000"
         id="polygon915" />
    </g>
    <g
       id="g923"
       transform="matrix(0,-0.26458333,0.26458333,0,13.956771,14.117411)">
      <title
         id="title919">Right Horizontal Mark, RH</title>
      <polygon
         points="4,25 4,4 0,0 12,0 8,4 8,25 "
         style="fill:#ff0000"
         id="polygon921" />
    </g>
    <circle
       style="fill:#008000;fill-rule:evenodd;stroke-width:0.264583"
       id="path839"
       cx="14.157059"
       cy="12.520461"
       r="0.79374999">
      <title
         id="title941">Horizontal 2 Touch Connector, H2T</title>
    </circle>
    <circle
       style="fill:#008000;fill-rule:evenodd;stroke-width:0.264583"
       id="circle945"
       cx="13.890625"
       cy="9.4021568"
       r="0.79374999">
      <title
         id="title943">Horizontal 2 Touch Connector, H2T</title>
    </circle>
  </g>
</svg>
