<?xml version="1.0" encoding="UTF-8" standalone="no"?>
<svg
   xmlns:dc="http://purl.org/dc/elements/1.1/"
   xmlns:cc="http://creativecommons.org/ns#"
   xmlns:rdf="http://www.w3.org/1999/02/22-rdf-syntax-ns#"
   xmlns:svg="http://www.w3.org/2000/svg"
   xmlns="http://www.w3.org/2000/svg"
   width="160"
   height="80"
   viewBox="0 0 42.333332 21.166667"
   version="1.1"
   id="svg8">
  <defs
     id="defs2" />
  <metadata
     id="metadata5">
    <rdf:RDF>
      <cc:Work
         rdf:about="">
        <dc:format>image/svg+xml</dc:format>
        <dc:type
           rdf:resource="http://purl.org/dc/dcmitype/StillImage" />
        <dc:title></dc:title>
      </cc:Work>
    </rdf:RDF>
  </metadata>
  <g
     id="layer1">
    <polygon
       points="8,40 4,40 4,22 0,18 4,18 4,4 0,0 12,0 8,4 8,18 12,18 8,22 "
       style="fill:#ff0000"
       id="polygon937"
       transform="matrix(0,-0.26458333,0.26458333,0,8.8351936,10.318618)">
      <title
         id="title983">Right Horizontal Head-to-Tail Mark, RHHT</title>
    </polygon>
    <polygon
       points="4,22 0,18 4,18 4,4 0,0 12,0 8,4 8,18 12,18 8,22 8,40 4,40 "
       style="fill:#ff0000"
       id="polygon951"
       transform="matrix(0,-0.26458333,0.26458333,0,8.8351936,13.361591)">
      <title
         id="title981">Right Horizontal Head-to-Tail Mark, RHHT</title>
    </polygon>
    <g
       id="g886"
       transform="matrix(0,-0.26458333,0.26458333,0,19.422269,10.214769)">
      <title
         id="title882">Right Horizontal Mark, RH</title>
      <polygon
         points="4,25 4,4 0,0 12,0 8,4 8,25 "
         style="fill:#ff0000"
         id="polygon884" />
    </g>
    <circle
       style="fill:#008000;fill-rule:evenodd;stroke-width:0.264583"
       id="path839"
       cx="19.560268"
       cy="8.6613979"
       r="0.79374999">
      <title
         id="title915">Horizontal 2 Touch Connector, H2T</title>
    </circle>
    <g
       id="g892"
       transform="matrix(0,-0.26458333,0.26458333,0,19.422269,13.389769)">
      <title
         id="title888">Right Horizontal Mark, RH</title>
      <polygon
         points="12,0 8,4 8,25 4,25 4,4 0,0 "
         style="fill:#ff0000"
         id="polygon890" />
    </g>
    <circle
       style="fill:#008000;fill-rule:evenodd;stroke-width:0.264583"
       id="circle896"
       cx="19.890997"
       cy="11.732454"
       r="0.79374999">
      <title
         id="title894">Horizontal 2 Touch Connector, H2T</title>
    </circle>
  </g>
</svg>
