<?xml version="1.0" encoding="UTF-8" standalone="no"?>
<svg
   xmlns:dc="http://purl.org/dc/elements/1.1/"
   xmlns:cc="http://creativecommons.org/ns#"
   xmlns:rdf="http://www.w3.org/1999/02/22-rdf-syntax-ns#"
   xmlns:svg="http://www.w3.org/2000/svg"
   xmlns="http://www.w3.org/2000/svg"
   width="160"
   height="80"
   viewBox="0 0 42.333332 21.166667"
   version="1.1"
   id="svg8">
  <defs
     id="defs2" />
  <metadata
     id="metadata5">
    <rdf:RDF>
      <cc:Work
         rdf:about="">
        <dc:format>image/svg+xml</dc:format>
        <dc:type
           rdf:resource="http://purl.org/dc/dcmitype/StillImage" />
        <dc:title></dc:title>
      </cc:Work>
    </rdf:RDF>
  </metadata>
  <g
     id="layer1">
    <g
       id="g886"
       transform="matrix(0,-0.26458333,0.26458333,0,24.733816,11.122895)">
      <title
         id="title882">Right Horizontal Mark, RH</title>
      <polygon
         points="8,4 8,25 4,25 4,4 0,0 12,0 "
         style="fill:#ff0000"
         id="polygon884" />
    </g>
    <g
       id="g921"
       transform="matrix(0,-0.26458333,0.26458333,0,18.166481,14.352701)">
      <title
         id="title917">Right Horizontal Mark, RH</title>
      <polygon
         points="8,4 8,25 4,25 4,4 0,0 12,0 "
         style="fill:#ff0000"
         id="polygon919" />
    </g>
    <g
       id="g927"
       transform="matrix(0,-0.26458333,0.26458333,0,11.635166,14.352701)">
      <title
         id="title923">Right Horizontal Mark, RH</title>
      <polygon
         points="4,4 0,0 12,0 8,4 8,25 4,25 "
         style="fill:#ff0000"
         id="polygon925" />
    </g>
    <g
       id="g933"
       transform="matrix(0,-0.26458333,0.26458333,0,18.166481,11.230618)">
      <title
         id="title929">Right Horizontal Mark, RH</title>
      <polygon
         points="8,4 8,25 4,25 4,4 0,0 12,0 "
         style="fill:#ff0000"
         id="polygon931" />
    </g>
    <g
       id="g940"
       transform="matrix(0,-0.26458333,0.26458333,0,11.551897,11.230618)">
      <title
         id="title935">Right Horizontal Mark, RH</title>
      <polygon
         points="12,0 8,4 8,25 4,25 4,4 0,0 "
         style="fill:#ff0000"
         id="polygon938" />
    </g>
    <circle
       style="fill:#008000;fill-rule:evenodd;stroke-width:0.264583"
       id="path839"
       cx="25.0173"
       cy="9.6073608"
       r="0.79374999">
      <title
         id="title915">Horizontal 2 Touch Connector, H2T</title>
    </circle>
    <circle
       style="fill:#008000;fill-rule:evenodd;stroke-width:0.264583"
       id="circle944"
       cx="18.449963"
       cy="9.7018547"
       r="0.79374999">
      <title
         id="title942">Horizontal 2 Touch Connector, H2T</title>
    </circle>
    <circle
       style="fill:#008000;fill-rule:evenodd;stroke-width:0.264583"
       id="circle948"
       cx="18.63895"
       cy="12.725665"
       r="0.79374999">
      <title
         id="title946">Horizontal 2 Touch Connector, H2T</title>
    </circle>
    <g
       id="g941"
       transform="matrix(0,-0.26458333,0.26458333,0,24.733816,14.297895)">
      <title
         id="title936">Right Horizontal Mark, RH</title>
      <polygon
         points="4,4 0,0 12,0 8,4 8,25 4,25 "
         style="fill:#ff0000"
         id="polygon939" />
    </g>
    <circle
       style="fill:#008000;fill-rule:evenodd;stroke-width:0.264583"
       id="circle945"
       cx="25.064547"
       cy="12.678416"
       r="0.79374999">
      <title
         id="title943">Horizontal 2 Touch Connector, H2T</title>
    </circle>
    <g
       id="g960"
       transform="matrix(0,-0.26458333,0.26458333,0,31.348399,12.604485)">
      <title
         id="title956">Right Horizontal Mark, RH</title>
      <polygon
         points="0,0 12,0 8,4 8,25 4,25 4,4 "
         style="fill:#ff0000"
         id="polygon958" />
    </g>
    <circle
       style="fill:#008000;fill-rule:evenodd;stroke-width:0.264583"
       id="circle964"
       cx="31.631884"
       cy="11.024772"
       r="0.79374999">
      <title
         id="title962">Horizontal 2 Touch Connector, H2T</title>
    </circle>
  </g>
</svg>
