<?xml version="1.0" encoding="UTF-8" standalone="no"?>
<svg
   xmlns:dc="http://purl.org/dc/elements/1.1/"
   xmlns:cc="http://creativecommons.org/ns#"
   xmlns:rdf="http://www.w3.org/1999/02/22-rdf-syntax-ns#"
   xmlns:svg="http://www.w3.org/2000/svg"
   xmlns="http://www.w3.org/2000/svg"
   width="160"
   height="80"
   viewBox="0 0 42.333332 21.166667"
   version="1.1"
   id="svg8">
  <defs
     id="defs2" />
  <metadata
     id="metadata5">
    <rdf:RDF>
      <cc:Work
         rdf:about="">
        <dc:format>image/svg+xml</dc:format>
        <dc:type
           rdf:resource="http://purl.org/dc/dcmitype/StillImage" />
        <dc:title></dc:title>
      </cc:Work>
    </rdf:RDF>
  </metadata>
  <g
     id="layer1">
    <polygon
       points="0,0 12,0 8,4 8,18 12,18 8,22 8,40 4,40 4,22 0,18 4,18 4,4 "
       style="fill:#ff0000"
       id="polygon937"
       transform="matrix(0,-0.26458333,0.26458333,0,7.8883822,11.159653)">
      <title
         id="title983">Right Horizontal Head-to-Tail Mark, RHHT</title>
    </polygon>
    <polygon
       points="8,4 8,18 12,18 8,22 8,40 4,40 4,22 0,18 4,18 4,4 0,0 12,0 "
       style="fill:#ff0000"
       id="polygon951"
       transform="matrix(0,-0.26458333,0.26458333,0,7.8883822,14.202626)">
      <title
         id="title981">Right Horizontal Head-to-Tail Mark, RHHT</title>
    </polygon>
    <polygon
       points="8,4 8,18 12,18 8,22 8,40 4,40 4,22 0,18 4,18 4,4 0,0 12,0 "
       style="fill:#ff0000"
       id="polygon930"
       transform="matrix(0,-0.26458333,0.26458333,0,19.085927,10.923418)">
      <title
         id="title928">Right Horizontal Head-to-Tail Mark, RHHT</title>
    </polygon>
    <polygon
       points="8,18 12,18 8,22 8,40 4,40 4,22 0,18 4,18 4,4 0,0 12,0 8,4 "
       style="fill:#ff0000"
       id="polygon934"
       transform="matrix(0,-0.26458333,0.26458333,0,19.085927,14.098418)">
      <title
         id="title932">Right Horizontal Head-to-Tail Mark, RHHT</title>
    </polygon>
    <circle
       style="fill:#008000;fill-rule:evenodd;stroke-width:0.264583"
       id="circle896"
       cx="19.076458"
       cy="12.573489"
       r="0.79374999">
      <title
         id="title894">Horizontal 2 Touch Connector, H2T</title>
    </circle>
    <circle
       style="fill:#008000;fill-rule:evenodd;stroke-width:0.264583"
       id="path839"
       cx="19.063229"
       cy="9.5024328"
       r="0.79374999">
      <title
         id="title915">Horizontal 2 Touch Connector, H2T</title>
    </circle>
  </g>
</svg>
