<?xml version="1.0" encoding="UTF-8" standalone="no"?>
<svg
   xmlns:dc="http://purl.org/dc/elements/1.1/"
   xmlns:cc="http://creativecommons.org/ns#"
   xmlns:rdf="http://www.w3.org/1999/02/22-rdf-syntax-ns#"
   xmlns:svg="http://www.w3.org/2000/svg"
   xmlns="http://www.w3.org/2000/svg"
   width="160"
   height="80"
   viewBox="0 0 42.333332 21.166667"
   version="1.1"
   id="svg8">
  <defs
     id="defs2" />
  <metadata
     id="metadata5">
    <rdf:RDF>
      <cc:Work
         rdf:about="">
        <dc:format>image/svg+xml</dc:format>
        <dc:type
           rdf:resource="http://purl.org/dc/dcmitype/StillImage" />
        <dc:title></dc:title>
      </cc:Work>
    </rdf:RDF>
  </metadata>
  <g
     id="layer1">
    <polygon
       points="4,4 0,0 12,0 8,4 8,18 12,18 8,22 8,40 4,40 4,22 0,18 4,18 "
       style="fill:#ff0000"
       id="polygon937"
       transform="matrix(0,-0.26458333,0.26458333,0,7.110677,11.381676)">
      <title
         id="title983">Right Horizontal Head-to-Tail Mark, RHHT</title>
    </polygon>
    <polygon
       points="12,0 8,4 8,18 12,18 8,22 8,40 4,40 4,22 0,18 4,18 4,4 0,0 "
       style="fill:#ff0000"
       id="polygon951"
       transform="matrix(0,-0.26458333,0.26458333,0,7.110677,14.424649)">
      <title
         id="title981">Right Horizontal Head-to-Tail Mark, RHHT</title>
    </polygon>
    <polygon
       points="12,0 8,4 8,18 12,18 8,22 8,40 4,40 4,22 0,18 4,18 4,4 0,0 "
       style="fill:#ff0000"
       id="polygon930"
       transform="matrix(0,-0.26458333,0.26458333,0,18.308222,11.145441)">
      <title
         id="title928">Right Horizontal Head-to-Tail Mark, RHHT</title>
    </polygon>
    <polygon
       points="8,4 8,18 12,18 8,22 8,40 4,40 4,22 0,18 4,18 4,4 0,0 12,0 "
       style="fill:#ff0000"
       id="polygon934"
       transform="matrix(0,-0.26458333,0.26458333,0,18.308222,14.320441)">
      <title
         id="title932">Right Horizontal Head-to-Tail Mark, RHHT</title>
    </polygon>
    <circle
       style="fill:#008000;fill-rule:evenodd;stroke-width:0.264583"
       id="circle896"
       cx="18.298752"
       cy="12.795511"
       r="0.79374999">
      <title
         id="title894">Horizontal 2 Touch Connector, H2T</title>
    </circle>
    <circle
       style="fill:#008000;fill-rule:evenodd;stroke-width:0.264583"
       id="path839"
       cx="18.285522"
       cy="9.7244549"
       r="0.79374999">
      <title
         id="title915">Horizontal 2 Touch Connector, H2T</title>
    </circle>
    <polygon
       points="4,4 0,0 12,0 8,4 8,25 4,25 "
       style="fill:#ff0000"
       id="polygon904"
       transform="matrix(0,-0.26458333,0.26458333,0,28.891555,12.732808)">
      <title
         id="title920">Right Horizontal Mark, RH</title>
    </polygon>
    <circle
       style="fill:#008000;fill-rule:evenodd;stroke-width:0.264583"
       id="circle936"
       cx="29.294079"
       cy="11.141866"
       r="0.79374999">
      <title
         id="title934">Horizontal 2 Touch Connector, H2T</title>
    </circle>
  </g>
</svg>
