<?xml version="1.0" encoding="UTF-8" standalone="no"?>
<svg
   xmlns:dc="http://purl.org/dc/elements/1.1/"
   xmlns:cc="http://creativecommons.org/ns#"
   xmlns:rdf="http://www.w3.org/1999/02/22-rdf-syntax-ns#"
   xmlns:svg="http://www.w3.org/2000/svg"
   xmlns="http://www.w3.org/2000/svg"
   width="160"
   height="80"
   viewBox="0 0 42.333332 21.166667"
   version="1.1"
   id="svg8">
  <defs
     id="defs2" />
  <metadata
     id="metadata5">
    <rdf:RDF>
      <cc:Work
         rdf:about="">
        <dc:format>image/svg+xml</dc:format>
        <dc:type
           rdf:resource="http://purl.org/dc/dcmitype/StillImage" />
        <dc:title></dc:title>
      </cc:Work>
    </rdf:RDF>
  </metadata>
  <g
     id="layer1">
    <g
       id="g886"
       transform="matrix(0,-0.26458333,0.26458333,0,18.119233,10.663691)">
      <title
         id="title882">Right Horizontal Mark, RH</title>
      <polygon
         points="8,25 4,25 4,4 0,0 12,0 8,4 "
         style="fill:#ff0000"
         id="polygon884" />
    </g>
    <g
       id="g921"
       transform="matrix(0,-0.26458333,0.26458333,0,11.551898,13.893497)">
      <title
         id="title917">Right Horizontal Mark, RH</title>
      <polygon
         points="12,0 8,4 8,25 4,25 4,4 0,0 "
         style="fill:#ff0000"
         id="polygon919" />
    </g>
    <g
       id="g927"
       transform="matrix(0,-0.26458333,0.26458333,0,5.0205834,13.893497)">
      <title
         id="title923">Right Horizontal Mark, RH</title>
      <polygon
         points="4,25 4,4 0,0 12,0 8,4 8,25 "
         style="fill:#ff0000"
         id="polygon925" />
    </g>
    <g
       id="g933"
       transform="matrix(0,-0.26458333,0.26458333,0,11.551898,10.771414)">
      <title
         id="title929">Right Horizontal Mark, RH</title>
      <polygon
         points="12,0 8,4 8,25 4,25 4,4 0,0 "
         style="fill:#ff0000"
         id="polygon931" />
    </g>
    <g
       id="g940"
       transform="matrix(0,-0.26458333,0.26458333,0,4.9373144,10.771414)">
      <title
         id="title935">Right Horizontal Mark, RH</title>
      <polygon
         points="0,0 12,0 8,4 8,25 4,25 4,4 "
         style="fill:#ff0000"
         id="polygon938" />
    </g>
    <circle
       style="fill:#008000;fill-rule:evenodd;stroke-width:0.264583"
       id="path839"
       cx="18.402716"
       cy="9.1481571"
       r="0.79374999">
      <title
         id="title915">Horizontal 2 Touch Connector, H2T</title>
    </circle>
    <circle
       style="fill:#008000;fill-rule:evenodd;stroke-width:0.264583"
       id="circle944"
       cx="11.83538"
       cy="9.242651"
       r="0.79374999">
      <title
         id="title942">Horizontal 2 Touch Connector, H2T</title>
    </circle>
    <circle
       style="fill:#008000;fill-rule:evenodd;stroke-width:0.264583"
       id="circle948"
       cx="12.024367"
       cy="12.266461"
       r="0.79374999">
      <title
         id="title946">Horizontal 2 Touch Connector, H2T</title>
    </circle>
    <g
       id="g941"
       transform="matrix(0,-0.26458333,0.26458333,0,18.119233,13.838691)">
      <title
         id="title936">Right Horizontal Mark, RH</title>
      <polygon
         points="4,25 4,4 0,0 12,0 8,4 8,25 "
         style="fill:#ff0000"
         id="polygon939" />
    </g>
    <circle
       style="fill:#008000;fill-rule:evenodd;stroke-width:0.264583"
       id="circle945"
       cx="18.449963"
       cy="12.219213"
       r="0.79374999">
      <title
         id="title943">Horizontal 2 Touch Connector, H2T</title>
    </circle>
    <g
       id="g960"
       transform="matrix(0,-0.26458333,0.26458333,0,24.733816,13.75924)">
      <title
         id="title956">Right Horizontal Mark, RH</title>
      <polygon
         points="4,25 4,4 0,0 12,0 8,4 8,25 "
         style="fill:#ff0000"
         id="polygon958" />
    </g>
    <g
       id="g980"
       transform="matrix(0,-0.26458333,0.26458333,0,24.733816,10.637157)">
      <title
         id="title976">Right Horizontal Mark, RH</title>
      <polygon
         points="0,0 12,0 8,4 8,25 4,25 4,4 "
         style="fill:#ff0000"
         id="polygon978" />
    </g>
    <circle
       style="fill:#008000;fill-rule:evenodd;stroke-width:0.264583"
       id="circle964"
       cx="25.159042"
       cy="9.1481571"
       r="0.79374999">
      <title
         id="title962">Horizontal 2 Touch Connector, H2T</title>
    </circle>
    <circle
       style="fill:#008000;fill-rule:evenodd;stroke-width:0.264583"
       id="circle984"
       cx="25.442524"
       cy="12.171968"
       r="0.79374999">
      <title
         id="title982">Horizontal 2 Touch Connector, H2T</title>
    </circle>
    <g
       id="g1000"
       transform="matrix(0,-0.26458333,0.26458333,0,31.348399,12.092252)">
      <title
         id="title996">Right Horizontal Mark, RH</title>
      <polygon
         points="4,25 4,4 0,0 12,0 8,4 8,25 "
         style="fill:#ff0000"
         id="polygon998" />
    </g>
    <circle
       style="fill:#008000;fill-rule:evenodd;stroke-width:0.264583"
       id="circle1004"
       cx="31.962612"
       cy="10.612817"
       r="0.79374999">
      <title
         id="title1002">Horizontal 2 Touch Connector, H2T</title>
    </circle>
  </g>
</svg>
