<?xml version="1.0" encoding="UTF-8" standalone="no"?>
<svg
   xmlns:dc="http://purl.org/dc/elements/1.1/"
   xmlns:cc="http://creativecommons.org/ns#"
   xmlns:rdf="http://www.w3.org/1999/02/22-rdf-syntax-ns#"
   xmlns:svg="http://www.w3.org/2000/svg"
   xmlns="http://www.w3.org/2000/svg"
   width="160"
   height="80"
   viewBox="0 0 42.333332 21.166667"
   version="1.1"
   id="svg8">
  <defs
     id="defs2" />
  <metadata
     id="metadata5">
    <rdf:RDF>
      <cc:Work
         rdf:about="">
        <dc:format>image/svg+xml</dc:format>
        <dc:type
           rdf:resource="http://purl.org/dc/dcmitype/StillImage" />
        <dc:title></dc:title>
      </cc:Work>
    </rdf:RDF>
  </metadata>
  <g
     id="layer1">
    <polygon
       points="4,4 0,0 12,0 8,4 8,65 12,70 0,70 4,65 "
       style="fill:#ff0000"
       id="polygon851"
       transform="matrix(0,-0.26458333,0.26458333,0,10.583333,7.3516366)">
      <title
         id="title865">Right Horizontal Barbell Mark, RHBB</title>
    </polygon>
    <polygon
       points="4,65 4,4 0,0 12,0 8,4 8,65 12,70 0,70 "
       style="fill:#ff0000"
       id="polygon869"
       transform="matrix(0,-0.26458333,0.26458333,0,10.583333,13.304838)">
      <title
         id="title867">Right Horizontal Barbell Mark, RHBB</title>
    </polygon>
    <g
       id="g889"
       transform="matrix(0.26458333,0,0,0.26458333,22.935669,6.2838538)">
      <title
         id="title885">Down Vertical Mark, DV</title>
      <polygon
         points="4,4 0,0 12,0 8,4 8,25 4,25 "
         style="fill:#ff0000"
         id="polygon887" />
    </g>
    <g
       id="g906"
       transform="matrix(0.26458333,0,0,0.26458333,19.654835,6.2838538)">
      <title
         id="title902">Down Vertical Mark, DV</title>
      <polygon
         points="0,0 12,0 8,4 8,25 4,25 4,4 "
         style="fill:#ff0000"
         id="polygon904" />
    </g>
    <g
       id="g912"
       transform="matrix(0.26458333,0,0,0.26458333,16.294628,6.2838538)">
      <title
         id="title908">Down Vertical Mark, DV</title>
      <polygon
         points="8,25 4,25 4,4 0,0 12,0 8,4 "
         style="fill:#ff0000"
         id="polygon910" />
    </g>
    <g
       id="g918"
       transform="matrix(0.26458333,0,0,0.26458333,13.093171,6.2838538)">
      <title
         id="title914">Down Vertical Mark, DV</title>
      <polygon
         points="8,25 4,25 4,4 0,0 12,0 8,4 "
         style="fill:#ff0000"
         id="polygon916" />
    </g>
    <circle
       style="fill:#008000;fill-rule:evenodd;stroke-width:0.264583"
       id="path839"
       cx="24.521204"
       cy="11.717262"
       r="0.79374999">
      <title
         id="title936">2 Cross Connector, 2C</title>
    </circle>
    <circle
       style="fill:#008000;fill-rule:evenodd;stroke-width:0.264583"
       id="circle940"
       cx="21.26116"
       cy="11.622769"
       r="0.79374999">
      <title
         id="title938">2 Cross Connector, 2C</title>
    </circle>
    <circle
       style="fill:#008000;fill-rule:evenodd;stroke-width:0.264583"
       id="circle944"
       cx="18.001116"
       cy="11.670016"
       r="0.79374999">
      <title
         id="title942">2 Cross Connector, 2C</title>
    </circle>
    <circle
       style="fill:#008000;fill-rule:evenodd;stroke-width:0.264583"
       id="circle948"
       cx="14.693823"
       cy="11.62277"
       r="0.79374999">
      <title
         id="title946">2 Cross Connector, 2C</title>
    </circle>
    <circle
       style="fill:#008000;fill-rule:evenodd;stroke-width:0.264583"
       id="circle952"
       cx="24.662945"
       cy="6.2838545"
       r="0.79374999">
      <title
         id="title950">Top 2 Touch Connector, T2T</title>
    </circle>
    <circle
       style="fill:#008000;fill-rule:evenodd;stroke-width:0.264583"
       id="circle956"
       cx="21.308405"
       cy="6.2838545"
       r="0.79374999">
      <title
         id="title954">Top 2 Touch Connector, T2T</title>
    </circle>
    <circle
       style="fill:#008000;fill-rule:evenodd;stroke-width:0.264583"
       id="circle960"
       cx="17.953865"
       cy="6.2366076"
       r="0.79374999">
      <title
         id="title958">Top 2 Touch Connector, T2T</title>
    </circle>
    <circle
       style="fill:#008000;fill-rule:evenodd;stroke-width:0.264583"
       id="circle964"
       cx="14.741069"
       cy="6.1893606"
       r="0.79374999">
      <title
         id="title962">Top 2 Touch Connector, T2T</title>
    </circle>
  </g>
</svg>
