<?xml version="1.0" encoding="UTF-8" standalone="no"?>
<svg
   xmlns:dc="http://purl.org/dc/elements/1.1/"
   xmlns:cc="http://creativecommons.org/ns#"
   xmlns:rdf="http://www.w3.org/1999/02/22-rdf-syntax-ns#"
   xmlns:svg="http://www.w3.org/2000/svg"
   xmlns="http://www.w3.org/2000/svg"
   width="160"
   height="80"
   viewBox="0 0 42.333332 21.166667"
   version="1.1"
   id="svg8">
  <defs
     id="defs2" />
  <metadata
     id="metadata5">
    <rdf:RDF>
      <cc:Work
         rdf:about="">
        <dc:format>image/svg+xml</dc:format>
        <dc:type
           rdf:resource="http://purl.org/dc/dcmitype/StillImage" />
        <dc:title></dc:title>
      </cc:Work>
    </rdf:RDF>
  </metadata>
  <g
     id="layer1">
    <polygon
       points="12,70 0,70 4,65 4,4 0,0 12,0 8,4 8,65 "
       style="fill:#ff0000"
       id="polygon851"
       transform="matrix(0,-0.26458333,0.26458333,0,13.512649,9.3832202)">
      <title
         id="title865">Right Horizontal Barbell Mark, RHBB</title>
    </polygon>
    <polygon
       points="8,65 12,70 0,70 4,65 4,4 0,0 12,0 8,4 "
       style="fill:#ff0000"
       id="polygon869"
       transform="matrix(0,-0.26458333,0.26458333,0,13.512649,15.336422)">
      <title
         id="title867">Right Horizontal Barbell Mark, RHBB</title>
    </polygon>
    <g
       id="g889"
       transform="matrix(0.26458333,0,0,0.26458333,25.864985,9.0032416)">
      <title
         id="title885">Down Vertical Mark, DV</title>
      <polygon
         points="12,0 8,4 8,25 4,25 4,4 0,0 "
         style="fill:#ff0000"
         id="polygon887" />
    </g>
    <g
       id="g906"
       transform="matrix(0.26458333,0,0,0.26458333,22.584151,9.0032416)">
      <title
         id="title902">Down Vertical Mark, DV</title>
      <polygon
         points="12,0 8,4 8,25 4,25 4,4 0,0 "
         style="fill:#ff0000"
         id="polygon904" />
    </g>
    <g
       id="g912"
       transform="matrix(0.26458333,0,0,0.26458333,19.223944,9.0032416)">
      <title
         id="title908">Down Vertical Mark, DV</title>
      <polygon
         points="8,25 4,25 4,4 0,0 12,0 8,4 "
         style="fill:#ff0000"
         id="polygon910" />
    </g>
    <g
       id="g918"
       transform="matrix(0.26458333,0,0,0.26458333,16.022487,9.0032416)">
      <title
         id="title914">Down Vertical Mark, DV</title>
      <polygon
         points="4,4 0,0 12,0 8,4 8,25 4,25 "
         style="fill:#ff0000"
         id="polygon916" />
    </g>
    <circle
       style="fill:#008000;fill-rule:evenodd;stroke-width:0.264583"
       id="path839"
       cx="27.45052"
       cy="13.748846"
       r="0.79374999">
      <title
         id="title936">2 Cross Connector, 2C</title>
    </circle>
    <circle
       style="fill:#008000;fill-rule:evenodd;stroke-width:0.264583"
       id="circle940"
       cx="24.190475"
       cy="13.654353"
       r="0.79374999">
      <title
         id="title938">2 Cross Connector, 2C</title>
    </circle>
    <circle
       style="fill:#008000;fill-rule:evenodd;stroke-width:0.264583"
       id="circle944"
       cx="20.930431"
       cy="13.7016"
       r="0.79374999">
      <title
         id="title942">2 Cross Connector, 2C</title>
    </circle>
    <circle
       style="fill:#008000;fill-rule:evenodd;stroke-width:0.264583"
       id="circle948"
       cx="17.623138"
       cy="13.654354"
       r="0.79374999">
      <title
         id="title946">2 Cross Connector, 2C</title>
    </circle>
  </g>
</svg>
