<?xml version="1.0" encoding="UTF-8" standalone="no"?>
<svg
   xmlns:dc="http://purl.org/dc/elements/1.1/"
   xmlns:cc="http://creativecommons.org/ns#"
   xmlns:rdf="http://www.w3.org/1999/02/22-rdf-syntax-ns#"
   xmlns:svg="http://www.w3.org/2000/svg"
   xmlns="http://www.w3.org/2000/svg"
   width="160"
   height="80"
   viewBox="0 0 42.333332 21.166667"
   version="1.1"
   id="svg8">
  <defs
     id="defs2" />
  <metadata
     id="metadata5">
    <rdf:RDF>
      <cc:Work
         rdf:about="">
        <dc:format>image/svg+xml</dc:format>
        <dc:type
           rdf:resource="http://purl.org/dc/dcmitype/StillImage" />
        <dc:title></dc:title>
      </cc:Work>
    </rdf:RDF>
  </metadata>
  <g
     id="layer1">
    <polygon
       points="4,4 0,0 12,0 8,4 8,35 12,40 0,40 4,35 "
       style="fill:#ff0000"
       id="polygon873"
       transform="matrix(0,-0.26458333,0.26458333,0,9.8897473,7.3345145)">
      <title
         id="title871">Right Horizontal Barbell Mark, RHBB</title>
    </polygon>
    <polygon
       points="0,40 4,35 4,4 0,0 12,0 8,4 8,35 12,40 "
       style="fill:#ff0000"
       id="polygon881"
       transform="matrix(0,-0.26458333,0.26458333,0,10.220476,13.314211)">
      <title
         id="title879">Right Horizontal Barbell Mark, RHBB</title>
    </polygon>
    <g
       id="g901"
       transform="matrix(0.26458333,0,0,0.26458333,15.510328,9.2982136)">
      <title
         id="title897">Down Vertical Mark, DV</title>
      <polygon
         points="8,4 8,25 4,25 4,4 0,0 12,0 "
         style="fill:#ff0000"
         id="polygon899" />
    </g>
    <g
       id="g918"
       transform="matrix(0.26458333,0,0,0.26458333,12.335328,9.2982136)">
      <title
         id="title914">Down Vertical Mark, DV</title>
      <polygon
         points="8,4 8,25 4,25 4,4 0,0 12,0 "
         style="fill:#ff0000"
         id="polygon916" />
    </g>
    <circle
       style="fill:#008000;fill-rule:evenodd;stroke-width:0.264583"
       id="path839"
       cx="17.165789"
       cy="11.755059"
       r="0.79374999">
      <title
         id="title936">2 Cross Connector, 2C</title>
    </circle>
    <circle
       style="fill:#008000;fill-rule:evenodd;stroke-width:0.264583"
       id="circle940"
       cx="13.811249"
       cy="11.755059"
       r="0.79374999">
      <title
         id="title938">2 Cross Connector, 2C</title>
    </circle>
    <g
       id="g950"
       transform="matrix(0,-0.26458333,0.26458333,0,21.399235,7.281598)">
      <title
         id="title946">Right Horizontal Mark, RH</title>
      <polygon
         points="0,0 12,0 8,4 8,40 4,40 4,4 "
         style="fill:#ff0000"
         id="polygon948" />
    </g>
    <g
       id="g967"
       transform="matrix(0,-0.26458333,0.26458333,0,21.399235,13.287639)">
      <title
         id="title963">Right Horizontal Mark, RH</title>
      <polygon
         points="4,40 4,4 0,0 12,0 8,4 8,40 "
         style="fill:#ff0000"
         id="polygon965" />
    </g>
    <g
       id="g987"
       transform="matrix(0.26458333,0,0,0.26458333,30.933496,3.6380212)">
      <title
         id="title983">Down Vertical Mark, DV</title>
      <polygon
         points="12,0 8,4 8,40 4,40 4,4 0,0 "
         style="fill:#ff0000"
         id="polygon985" />
    </g>
    <circle
       style="fill:#008000;fill-rule:evenodd;stroke-width:0.264583"
       id="circle1002"
       cx="32.284836"
       cy="11.613317"
       r="0.79374999">
      <title
         id="title1000">Right 2 Touch Connector, R2T</title>
    </circle>
    <circle
       style="fill:#008000;fill-rule:evenodd;stroke-width:0.264583"
       id="circle1006"
       cx="32.243183"
       cy="5.6129456"
       r="0.79374999">
      <title
         id="title1004">Right 2 Touch Connector, R2T</title>
    </circle>
  </g>
</svg>
