<?xml version="1.0" encoding="UTF-8" standalone="no"?>
<svg
   xmlns:dc="http://purl.org/dc/elements/1.1/"
   xmlns:cc="http://creativecommons.org/ns#"
   xmlns:rdf="http://www.w3.org/1999/02/22-rdf-syntax-ns#"
   xmlns:svg="http://www.w3.org/2000/svg"
   xmlns="http://www.w3.org/2000/svg"
   width="160"
   height="80"
   viewBox="0 0 42.333332 21.166667"
   version="1.1"
   id="svg8">
  <defs
     id="defs2" />
  <metadata
     id="metadata5">
    <rdf:RDF>
      <cc:Work
         rdf:about="">
        <dc:format>image/svg+xml</dc:format>
        <dc:type
           rdf:resource="http://purl.org/dc/dcmitype/StillImage" />
        <dc:title></dc:title>
      </cc:Work>
    </rdf:RDF>
  </metadata>
  <g
     id="layer1">
    <polygon
       points="12,50 0,50 4,45 4,4 0,0 12,0 8,4 8,45 "
       style="fill:#ff0000"
       id="polygon869"
       transform="matrix(0,-0.26458333,0.26458333,0,8.9580534,13.620901)">
      <title
         id="title867">Right Horizontal Barbell Mark, RHBB</title>
    </polygon>
    <g
       id="g889"
       transform="matrix(0.09049283,-0.24862701,0.24862701,0.09049283,22.388378,7.2712482)">
      <title
         id="title885">Right Down Diagonal Mark, RDD</title>
      <polygon
         points="4,4 0,0 12,0 8,4 8,40 4,40 "
         style="fill:#ff0000"
         id="polygon887" />
    </g>
    <g
       id="g906"
       transform="matrix(-0.09049283,-0.24862701,0.24862701,-0.09049283,23.569806,14.468718)">
      <title
         id="title902">Right Up Diagonal Mark, RUD</title>
      <polygon
         points="8,4 8,40 4,40 4,4 0,0 12,0 "
         style="fill:#ff0000"
         id="polygon904" />
    </g>
    <g
       id="g926"
       transform="matrix(0.26458333,0,0,0.26458333,17.329999,8.7312499)">
      <title
         id="title922">Down Vertical Mark, DV</title>
      <polygon
         points="12,0 8,4 8,25 4,25 4,4 0,0 "
         style="fill:#ff0000"
         id="polygon924" />
    </g>
    <g
       id="g943"
       transform="matrix(0.26458333,0,0,0.26458333,13.969791,8.7312499)">
      <title
         id="title939">Down Vertical Mark, DV</title>
      <polygon
         points="8,4 8,25 4,25 4,4 0,0 12,0 "
         style="fill:#ff0000"
         id="polygon941" />
    </g>
    <g
       id="g949"
       transform="matrix(0.26458333,0,0,0.26458333,10.477291,8.7312499)">
      <title
         id="title945">Down Vertical Mark, DV</title>
      <polygon
         points="12,0 8,4 8,25 4,25 4,4 0,0 "
         style="fill:#ff0000"
         id="polygon947" />
    </g>
    <g
       id="g955"
       transform="matrix(0.26458333,0,0,0.26458333,26.683094,9.035936)">
      <title
         id="title951">Down Vertical Mark, DV</title>
      <polygon
         points="4,4 0,0 12,0 8,4 8,25 4,25 "
         style="fill:#ff0000"
         id="polygon953" />
    </g>
    <g
       id="g961"
       transform="matrix(0.26458333,0,0,0.26458333,23.772678,9.035936)">
      <title
         id="title957">Down Vertical Mark, DV</title>
      <polygon
         points="0,0 12,0 8,4 8,25 4,25 4,4 "
         style="fill:#ff0000"
         id="polygon959" />
    </g>
    <circle
       style="fill:#008000;fill-rule:evenodd;stroke-width:0.264583"
       id="path839"
       cx="32.959503"
       cy="9.5084085"
       r="0.79374999">
      <title
         id="title979">Right Middle Corner Connector, RMC</title>
    </circle>
    <circle
       style="fill:#008000;fill-rule:evenodd;stroke-width:0.264583"
       id="circle983"
       cx="28.093061"
       cy="11.067561"
       r="0.79374999">
      <title
         id="title981">2 Cross Connector, 2C</title>
    </circle>
    <circle
       style="fill:#008000;fill-rule:evenodd;stroke-width:0.264583"
       id="circle987"
       cx="25.210993"
       cy="12.012502"
       r="0.79374999">
      <title
         id="title985">2 Cross Connector, 2C</title>
    </circle>
    <circle
       style="fill:#008000;fill-rule:evenodd;stroke-width:0.264583"
       id="circle991"
       cx="18.849766"
       cy="12.059749"
       r="0.79374999">
      <title
         id="title989">2 Cross Connector, 2C</title>
    </circle>
    <circle
       style="fill:#008000;fill-rule:evenodd;stroke-width:0.264583"
       id="circle995"
       cx="15.504638"
       cy="12.059749"
       r="0.79374999">
      <title
         id="title993">2 Cross Connector, 2C</title>
    </circle>
    <circle
       style="fill:#008000;fill-rule:evenodd;stroke-width:0.264583"
       id="circle999"
       cx="12.047857"
       cy="12.012501"
       r="0.79374999">
      <title
         id="title997">2 Cross Connector, 2C</title>
    </circle>
    <polygon
       points="0,50 4,45 4,4 0,0 12,0 8,4 8,45 12,50 "
       style="fill:#ff0000"
       id="polygon1002"
       transform="matrix(0,-0.26458333,0.26458333,0,8.9580534,8.3555794)">
      <title
         id="title1000">Right Horizontal Barbell Mark, RHBB</title>
    </polygon>
  </g>
</svg>
