<?xml version="1.0" encoding="UTF-8" standalone="no"?>
<svg
   xmlns:dc="http://purl.org/dc/elements/1.1/"
   xmlns:cc="http://creativecommons.org/ns#"
   xmlns:rdf="http://www.w3.org/1999/02/22-rdf-syntax-ns#"
   xmlns:svg="http://www.w3.org/2000/svg"
   xmlns="http://www.w3.org/2000/svg"
   width="160"
   height="80"
   viewBox="0 0 42.333332 21.166667"
   version="1.1"
   id="svg8">
  <defs
     id="defs2" />
  <metadata
     id="metadata5">
    <rdf:RDF>
      <cc:Work
         rdf:about="">
        <dc:format>image/svg+xml</dc:format>
        <dc:type
           rdf:resource="http://purl.org/dc/dcmitype/StillImage" />
        <dc:title></dc:title>
      </cc:Work>
    </rdf:RDF>
  </metadata>
  <g
     id="layer1">
    <g
       id="g857"
       transform="matrix(0.26458333,0,0,0.26458333,12.910684,5.4118254)">
      <title
         id="title853">Down Vertical Mark, DV</title>
      <polygon
         points="12,0 8,4 8,40 4,40 4,4 0,0 "
         style="fill:#ff0000"
         id="polygon855" />
    </g>
    <g
       id="g874"
       transform="matrix(0,-0.26458333,0.26458333,0,15.821099,7.2372991)">
      <title
         id="title870">Right Horizontal Mark, RH</title>
      <polygon
         points="0,0 12,0 8,4 8,40 4,40 4,4 "
         style="fill:#ff0000"
         id="polygon872" />
    </g>
    <g
       id="g880"
       transform="matrix(0,-0.26458333,0.26458333,0,13.377409,17.86032)">
      <title
         id="title876">Right Horizontal Mark, RH</title>
      <polygon
         points="4,47 4,4 0,0 12,0 8,4 8,47 "
         style="fill:#ff0000"
         id="polygon878" />
    </g>
    <polygon
       points="6,12 0,6 6,0 "
       style="fill:#ff0000"
       id="polygon894"
       transform="matrix(0.26458333,0,0,0.26458333,27.551667,14.639925)">
      <title
         id="title908">Heel Mark, HE</title>
    </polygon>
    <polygon
       points="6,12 0,6 6,0 "
       style="fill:#ff0000"
       id="polygon912"
       transform="matrix(0.26458333,0,0,0.26458333,27.337882,4.2476208)">
      <title
         id="title910">Heel Mark, HE</title>
    </polygon>
    <polygon
       points="0,6 6,0 6,12 "
       style="fill:#ff0000"
       id="polygon916"
       transform="matrix(0.26458333,0,0,0.26458333,21.630557,9.3522269)">
      <title
         id="title914">Heel Mark, HE</title>
    </polygon>
    <polygon
       points="0,18 4,18 4,4 0,0 12,0 8,4 8,18 12,18 8,22 8,47 4,47 4,22 "
       style="fill:#ff0000"
       id="polygon952"
       transform="matrix(0.26458333,0,0,0.26458333,24.154807,5.3103385)">
      <title
         id="title966">Down Vertical Head-to-Tail Mark, DVHT</title>
    </polygon>
    <circle
       style="fill:#008000;fill-rule:evenodd;stroke-width:0.264583"
       id="path839"
       cx="25.625765"
       cy="16.231394"
       r="0.79374999">
      <title
         id="title958">Right 2 Touch Connector, R2T</title>
    </circle>
    <circle
       style="fill:#008000;fill-rule:evenodd;stroke-width:0.264583"
       id="circle962"
       cx="25.767506"
       cy="5.6953068"
       r="0.79374999">
      <title
         id="title960">Northeast Corner Connector, NEC</title>
    </circle>
    <circle
       style="fill:#008000;fill-rule:evenodd;stroke-width:0.264583"
       id="circle970"
       cx="14.475469"
       cy="16.089653"
       r="0.79374999">
      <title
         id="title968">Southwest Corner Connector, SWC</title>
    </circle>
    <circle
       style="fill:#008000;fill-rule:evenodd;stroke-width:0.264583"
       id="circle974"
       cx="15.609397"
       cy="5.6008139"
       r="0.79374999">
      <title
         id="title972">Northwest Corner Connector, NWC</title>
    </circle>
  </g>
</svg>
