<?xml version="1.0" encoding="UTF-8" standalone="no"?>
<svg
   xmlns:dc="http://purl.org/dc/elements/1.1/"
   xmlns:cc="http://creativecommons.org/ns#"
   xmlns:rdf="http://www.w3.org/1999/02/22-rdf-syntax-ns#"
   xmlns:svg="http://www.w3.org/2000/svg"
   xmlns="http://www.w3.org/2000/svg"
   width="160"
   height="80"
   viewBox="0 0 42.333332 21.166667"
   version="1.1"
   id="svg8">
  <defs
     id="defs2" />
  <metadata
     id="metadata5">
    <rdf:RDF>
      <cc:Work
         rdf:about="">
        <dc:format>image/svg+xml</dc:format>
        <dc:type
           rdf:resource="http://purl.org/dc/dcmitype/StillImage" />
        <dc:title></dc:title>
      </cc:Work>
    </rdf:RDF>
  </metadata>
  <g
     id="layer1">
    <polygon
       points="4,4 0,0 12,0 8,4 8,35 12,40 0,40 4,35 "
       style="fill:#ff0000"
       id="polygon851"
       transform="matrix(0,-0.26458333,0.26458333,0,7.2619244,7.5784231)">
      <title
         id="title865">Right Horizontal Barbell Mark, RHBB</title>
    </polygon>
    <polygon
       points="0,0 12,0 8,4 8,35 12,40 0,40 4,35 4,4 "
       style="fill:#ff0000"
       id="polygon869"
       transform="matrix(0,-0.26458333,0.26458333,0,7.2619244,13.637344)">
      <title
         id="title867">Right Horizontal Barbell Mark, RHBB</title>
    </polygon>
    <g
       id="g889"
       transform="matrix(0.26458333,0,0,0.26458333,29.81754,4.2427827)">
      <title
         id="title885">Down Vertical Mark, DV</title>
      <polygon
         points="8,40 4,40 4,4 0,0 12,0 8,4 "
         style="fill:#ff0000"
         id="polygon887" />
    </g>
    <g
       id="g920"
       transform="matrix(0.26458333,0,0,0.26458333,12.315353,7.9374999)">
      <title
         id="title916">Down Vertical Mark, DV</title>
      <polygon
         points="0,0 12,0 8,4 8,25 4,25 4,4 "
         style="fill:#ff0000"
         id="polygon918" />
    </g>
    <g
       id="g937"
       transform="matrix(0.26458333,0,0,0.26458333,8.9551439,7.9374999)">
      <title
         id="title933">Down Vertical Mark, DV</title>
      <polygon
         points="4,4 0,0 12,0 8,4 8,25 4,25 "
         style="fill:#ff0000"
         id="polygon935" />
    </g>
    <g
       id="g943"
       transform="matrix(0,-0.26458333,0.26458333,0,24.284044,13.779159)">
      <title
         id="title939">Right Horizontal Mark, RH</title>
      <polygon
         points="4,4 0,0 12,0 8,4 8,25 4,25 "
         style="fill:#ff0000"
         id="polygon941" />
    </g>
    <g
       id="g949"
       transform="matrix(0,-0.26458333,0.26458333,0,24.310503,10.683534)">
      <title
         id="title945">Right Horizontal Mark, RH</title>
      <polygon
         points="8,25 4,25 4,4 0,0 12,0 8,4 "
         style="fill:#ff0000"
         id="polygon947" />
    </g>
    <g
       id="g955"
       transform="matrix(0,-0.26458333,0.26458333,0,24.310503,7.5349931)">
      <title
         id="title951">Right Horizontal Mark, RH</title>
      <polygon
         points="4,25 4,4 0,0 12,0 8,4 8,25 "
         style="fill:#ff0000"
         id="polygon953" />
    </g>
    <g
       id="g961"
       transform="matrix(0,-0.26458333,0.26458333,0,20.29254,15.884449)">
      <title
         id="title957">Right Horizontal Mark, RH</title>
      <polygon
         points="12,0 8,4 8,40 4,40 4,4 0,0 "
         style="fill:#ff0000"
         id="polygon959" />
    </g>
    <polygon
       points="6,0 6,12 0,6 "
       style="fill:#ff0000"
       id="polygon975"
       transform="matrix(0.26458333,0,0,0.26458333,18.440569,10.592782)">
      <title
         id="title989">Heel Mark, HE</title>
    </polygon>
    <polygon
       points="6,0 6,12 0,6 "
       style="fill:#ff0000"
       id="polygon993"
       transform="matrix(0.26458333,0,0,0.26458333,18.610659,4.4979163)">
      <title
         id="title991">Heel Mark, HE</title>
    </polygon>
    <circle
       style="fill:#008000;fill-rule:evenodd;stroke-width:0.264583"
       id="path839"
       cx="31.499647"
       cy="14.259152"
       r="0.79374999">
      <title
         id="title1011">Southeast Corner Connector, SEC</title>
    </circle>
    <circle
       style="fill:#008000;fill-rule:evenodd;stroke-width:0.264583"
       id="circle1015"
       cx="31.357904"
       cy="12.133036"
       r="0.79374999">
      <title
         id="title1013">Right 2 Touch Connector, R2T</title>
    </circle>
    <circle
       style="fill:#008000;fill-rule:evenodd;stroke-width:0.264583"
       id="circle1019"
       cx="31.310658"
       cy="9.1092262"
       r="0.79374999">
      <title
         id="title1017">Right 2 Touch Connector, R2T</title>
    </circle>
    <circle
       style="fill:#008000;fill-rule:evenodd;stroke-width:0.264583"
       id="circle1023"
       cx="31.405151"
       cy="5.943676"
       r="0.79374999">
      <title
         id="title1021">Right 2 Touch Connector, R2T</title>
    </circle>
    <circle
       style="fill:#008000;fill-rule:evenodd;stroke-width:0.264583"
       id="circle1027"
       cx="10.569216"
       cy="12.038542"
       r="0.79374999">
      <title
         id="title1025">2 Cross Connector, 2C</title>
    </circle>
    <circle
       style="fill:#008000;fill-rule:evenodd;stroke-width:0.264583"
       id="circle1031"
       cx="13.876508"
       cy="11.991295"
       r="0.79374999">
      <title
         id="title1029">2 Cross Connector, 2C</title>
    </circle>
  </g>
</svg>
