<?xml version="1.0" encoding="UTF-8" standalone="no"?>
<svg
   xmlns:dc="http://purl.org/dc/elements/1.1/"
   xmlns:cc="http://creativecommons.org/ns#"
   xmlns:rdf="http://www.w3.org/1999/02/22-rdf-syntax-ns#"
   xmlns:svg="http://www.w3.org/2000/svg"
   xmlns="http://www.w3.org/2000/svg"
   width="160"
   height="80"
   viewBox="0 0 42.333332 21.166667"
   version="1.1"
   id="svg8">
  <defs
     id="defs2" />
  <metadata
     id="metadata5">
    <rdf:RDF>
      <cc:Work
         rdf:about="">
        <dc:format>image/svg+xml</dc:format>
        <dc:type
           rdf:resource="http://purl.org/dc/dcmitype/StillImage" />
        <dc:title></dc:title>
      </cc:Work>
    </rdf:RDF>
  </metadata>
  <g
     id="layer1">
    <polygon
       points="12,0 8,4 8,35 12,40 0,40 4,35 4,4 0,0 "
       style="fill:#ff0000"
       id="polygon851"
       transform="matrix(0,-0.26458333,0.26458333,0,7.2760418,8.8162952)">
      <title
         id="title865">Right Horizontal Barbell Mark, RHBB</title>
    </polygon>
    <polygon
       points="8,4 8,35 12,40 0,40 4,35 4,4 0,0 12,0 "
       style="fill:#ff0000"
       id="polygon869"
       transform="matrix(0,-0.26458333,0.26458333,0,7.2760418,14.372431)">
      <title
         id="title867">Right Horizontal Barbell Mark, RHBB</title>
    </polygon>
    <g
       id="g889"
       transform="matrix(0.26458333,0,0,0.26458333,17.422812,4.5357144)">
      <title
         id="title885">Down Vertical Mark, DV</title>
      <polygon
         points="12,0 8,4 8,40 4,40 4,4 0,0 "
         style="fill:#ff0000"
         id="polygon887" />
    </g>
    <g
       id="g920"
       transform="matrix(0.26458333,0,0,0.26458333,12.250208,7.7579619)">
      <title
         id="title916">Down Vertical Mark, DV</title>
      <polygon
         points="4,25 4,4 0,0 12,0 8,4 8,25 "
         style="fill:#ff0000"
         id="polygon918" />
    </g>
    <g
       id="g937"
       transform="matrix(0.26458333,0,0,0.26458333,9.0752081,7.7579619)">
      <title
         id="title933">Down Vertical Mark, DV</title>
      <polygon
         points="8,4 8,25 4,25 4,4 0,0 12,0 "
         style="fill:#ff0000"
         id="polygon935" />
    </g>
    <circle
       style="fill:#008000;fill-rule:evenodd;stroke-width:0.264583"
       id="path839"
       cx="13.796132"
       cy="12.803944"
       r="0.79374999">
      <title
         id="title955">2 Cross Connector, 2C</title>
    </circle>
    <circle
       style="fill:#008000;fill-rule:evenodd;stroke-width:0.264583"
       id="circle959"
       cx="10.630581"
       cy="7.7485118"
       r="0.79374999">
      <title
         id="title957">Top 2 Touch Connector, T2T</title>
    </circle>
    <circle
       style="fill:#008000;fill-rule:evenodd;stroke-width:0.264583"
       id="circle963"
       cx="13.843378"
       cy="7.7012644"
       r="0.79374999">
      <title
         id="title961">Top 2 Touch Connector, T2T</title>
    </circle>
    <circle
       style="fill:#008000;fill-rule:evenodd;stroke-width:0.264583"
       id="circle967"
       cx="10.630581"
       cy="12.803944"
       r="0.79374999">
      <title
         id="title965">2 Cross Connector, 2C</title>
    </circle>
  </g>
</svg>
