<?xml version="1.0" encoding="UTF-8" standalone="no"?>
<svg
   xmlns:dc="http://purl.org/dc/elements/1.1/"
   xmlns:cc="http://creativecommons.org/ns#"
   xmlns:rdf="http://www.w3.org/1999/02/22-rdf-syntax-ns#"
   xmlns:svg="http://www.w3.org/2000/svg"
   xmlns="http://www.w3.org/2000/svg"
   width="160"
   height="80"
   viewBox="0 0 42.333332 21.166667"
   version="1.1"
   id="svg8">
  <defs
     id="defs2" />
  <metadata
     id="metadata5">
    <rdf:RDF>
      <cc:Work
         rdf:about="">
        <dc:format>image/svg+xml</dc:format>
        <dc:type
           rdf:resource="http://purl.org/dc/dcmitype/StillImage" />
        <dc:title></dc:title>
      </cc:Work>
    </rdf:RDF>
  </metadata>
  <g
     id="layer1">
    <g
       id="g880"
       transform="matrix(0.26458333,0,0,0.26458333,16.08111,5.2046187)">
      <title
         id="title876">Down Vertical Mark, DV</title>
      <polygon
         points="4,40 4,4 0,0 12,0 8,4 8,40 "
         style="fill:#ff0000"
         id="polygon878" />
    </g>
    <g
       id="g904"
       transform="matrix(0.26458333,0,0,0.26458333,11.10683,5.1782736)">
      <title
         id="title900">Down Vertical Mark, DV</title>
      <polygon
         points="12,0 8,4 8,40 4,40 4,4 0,0 "
         style="fill:#ff0000"
         id="polygon902" />
    </g>
    <g
       id="g910"
       transform="matrix(0,-0.26458333,0.26458333,0,7.5859815,10.107085)">
      <title
         id="title906">Right Horizontal Mark, RH</title>
      <polygon
         points="4,40 4,4 0,0 12,0 8,4 8,40 "
         style="fill:#ff0000"
         id="polygon908" />
    </g>
    <g
       id="g916"
       transform="matrix(0,-0.26458333,0.26458333,0,6.6598271,13.943542)">
      <title
         id="title912">Right Horizontal Mark, RH</title>
      <polygon
         points="12,0 8,4 8,40 4,40 4,4 0,0 "
         style="fill:#ff0000"
         id="polygon914" />
    </g>
    <circle
       style="fill:#008000;fill-rule:evenodd;stroke-width:0.264583"
       id="circle934"
       cx="12.647083"
       cy="12.284225"
       r="0.79374999">
      <title
         id="title940">2 Cross Connector, 2C</title>
    </circle>
    <circle
       style="fill:#008000;fill-rule:evenodd;stroke-width:0.264583"
       id="circle944"
       cx="12.69433"
       cy="8.4629602"
       r="0.79374999">
      <title
         id="title942">2 Cross Connector, 2C</title>
    </circle>
    <circle
       style="fill:#008000;fill-rule:evenodd;stroke-width:0.264583"
       id="circle956"
       cx="17.324537"
       cy="12.425964"
       r="0.79374999">
      <title
         id="title954">Right 2 Touch Connector, R2T</title>
    </circle>
    <circle
       style="fill:#008000;fill-rule:evenodd;stroke-width:0.264583"
       id="circle1050"
       cx="17.324537"
       cy="8.646203"
       r="0.79374999">
      <title
         id="title1048">Right 2 Touch Connector, R2T</title>
    </circle>
  </g>
</svg>
