<?xml version="1.0" encoding="UTF-8" standalone="no"?>
<svg
   xmlns:dc="http://purl.org/dc/elements/1.1/"
   xmlns:cc="http://creativecommons.org/ns#"
   xmlns:rdf="http://www.w3.org/1999/02/22-rdf-syntax-ns#"
   xmlns:svg="http://www.w3.org/2000/svg"
   xmlns="http://www.w3.org/2000/svg"
   width="160"
   height="80"
   viewBox="0 0 42.333332 21.166667"
   version="1.1"
   id="svg8">
  <defs
     id="defs2" />
  <metadata
     id="metadata5">
    <rdf:RDF>
      <cc:Work
         rdf:about="">
        <dc:format>image/svg+xml</dc:format>
        <dc:type
           rdf:resource="http://purl.org/dc/dcmitype/StillImage" />
        <dc:title></dc:title>
      </cc:Work>
    </rdf:RDF>
  </metadata>
  <g
     id="layer1">
    <g
       id="g857"
       transform="matrix(0.26458333,0,0,0.26458333,27.556355,5.4145085)">
      <title
         id="title853">Down Vertical Mark, DV</title>
      <polygon
         points="8,4 8,40 4,40 4,4 0,0 12,0 "
         style="fill:#ff0000"
         id="polygon855" />
    </g>
    <g
       id="g880"
       transform="matrix(0.26458333,0,0,0.26458333,17.957648,5.4145085)">
      <title
         id="title876">Down Vertical Mark, DV</title>
      <polygon
         points="12,0 8,4 8,40 4,40 4,4 0,0 "
         style="fill:#ff0000"
         id="polygon878" />
    </g>
    <g
       id="g886"
       transform="matrix(0,-0.26458333,0.26458333,0,19.010312,7.4782585)">
      <title
         id="title882">Right Horizontal Mark, RH</title>
      <polygon
         points="8,4 8,40 4,40 4,4 0,0 12,0 "
         style="fill:#ff0000"
         id="polygon884" />
    </g>
    <g
       id="g898"
       transform="matrix(0,-0.26458333,0.26458333,0,18.87802,17.902842)">
      <title
         id="title894">Right Horizontal Mark, RH</title>
      <polygon
         points="8,40 4,40 4,4 0,0 12,0 8,4 "
         style="fill:#ff0000"
         id="polygon896" />
    </g>
    <g
       id="g904"
       transform="matrix(0.26458333,0,0,0.26458333,8.9807134,5.6034966)">
      <title
         id="title900">Down Vertical Mark, DV</title>
      <polygon
         points="4,40 4,4 0,0 12,0 8,4 8,40 "
         style="fill:#ff0000"
         id="polygon902" />
    </g>
    <g
       id="g910"
       transform="matrix(0,-0.26458333,0.26458333,0,5.4598652,11.193765)">
      <title
         id="title906">Right Horizontal Mark, RH</title>
      <polygon
         points="0,0 12,0 8,4 8,40 4,40 4,4 "
         style="fill:#ff0000"
         id="polygon908" />
    </g>
    <g
       id="g916"
       transform="matrix(0,-0.26458333,0.26458333,0,5.4598652,14.368765)">
      <title
         id="title912">Right Horizontal Mark, RH</title>
      <polygon
         points="8,40 4,40 4,4 0,0 12,0 8,4 "
         style="fill:#ff0000"
         id="polygon914" />
    </g>
    <circle
       style="fill:#008000;fill-rule:evenodd;stroke-width:0.264583"
       id="path839"
       cx="19.970373"
       cy="16.205727"
       r="0.79374999">
      <title
         id="title978">Southwest Corner Connector, SWC</title>
    </circle>
    <circle
       style="fill:#008000;fill-rule:evenodd;stroke-width:0.264583"
       id="circle934"
       cx="10.520967"
       cy="12.709449"
       r="0.79374999">
      <title
         id="title940">2 Cross Connector, 2C</title>
    </circle>
    <circle
       style="fill:#008000;fill-rule:evenodd;stroke-width:0.264583"
       id="circle944"
       cx="10.568213"
       cy="9.4966507"
       r="0.79374999">
      <title
         id="title942">2 Cross Connector, 2C</title>
    </circle>
    <circle
       style="fill:#008000;fill-rule:evenodd;stroke-width:0.264583"
       id="circle966"
       cx="29.325283"
       cy="16.111233"
       r="0.79374999">
      <title
         id="title972">Southeast Corner Connector, SEC</title>
    </circle>
    <circle
       style="fill:#008000;fill-rule:evenodd;stroke-width:0.264583"
       id="circle968"
       cx="29.183542"
       cy="5.8113818"
       r="0.79374999">
      <title
         id="title974">Northeast Corner Connector, NEC</title>
    </circle>
    <circle
       style="fill:#008000;fill-rule:evenodd;stroke-width:0.264583"
       id="circle970"
       cx="19.828632"
       cy="6.0948639"
       r="0.79374999">
      <title
         id="title976">Northwext Corner Connector, NWC</title>
    </circle>
    <polygon
       points="4,25 4,4 0,0 12,0 8,4 8,25 12,30 0,30 "
       style="fill:#ff0000"
       id="polygon1060"
       transform="matrix(0,-0.26458333,0.26458333,0,20.369212,12.820914)">
      <title
         id="title1074">Right Horizontal Barbell Mark, RHBB</title>
    </polygon>
  </g>
</svg>
