<?xml version="1.0" encoding="UTF-8" standalone="no"?>
<svg
   xmlns:dc="http://purl.org/dc/elements/1.1/"
   xmlns:cc="http://creativecommons.org/ns#"
   xmlns:rdf="http://www.w3.org/1999/02/22-rdf-syntax-ns#"
   xmlns:svg="http://www.w3.org/2000/svg"
   xmlns="http://www.w3.org/2000/svg"
   width="160"
   height="80"
   viewBox="0 0 42.333332 21.166667"
   version="1.1"
   id="svg8">
  <defs
     id="defs2" />
  <metadata
     id="metadata5">
    <rdf:RDF>
      <cc:Work
         rdf:about="">
        <dc:format>image/svg+xml</dc:format>
        <dc:type
           rdf:resource="http://purl.org/dc/dcmitype/StillImage" />
        <dc:title></dc:title>
      </cc:Work>
    </rdf:RDF>
  </metadata>
  <g
     id="layer1">
    <g
       id="g874"
       transform="matrix(0.26458333,0,0,0.26458333,16.063502,5.2859683)">
      <title
         id="title870">Dingir Mark, DNGR</title>
      <polygon
         points="0,0 12,0 8,4 8,40 4,40 4,4 "
         style="fill:#ff0000"
         id="polygon872" />
    </g>
    <g
       id="g880"
       transform="matrix(0,-0.26458333,0.26458333,0,12.145665,12.023394)">
      <title
         id="title876">Dingir Mark, DNGR</title>
      <polygon
         points="8,4 8,40 4,40 4,4 0,0 12,0 "
         style="fill:#ff0000"
         id="polygon878" />
    </g>
    <g
       id="g886"
       transform="matrix(0.18708867,-0.18708867,0.18708867,0.18708867,12.139304,7.4944703)">
      <title
         id="title882">Dingir Mark, DNGR</title>
      <polygon
         points="8,4 8,45 4,45 4,4 0,0 12,0 "
         style="fill:#ff0000"
         id="polygon884" />
    </g>
    <g
       id="g892"
       transform="matrix(-0.18708867,-0.18708867,0.18708867,-0.18708867,14.397617,15.91726)">
      <title
         id="title888">Dingir Mark, DNGR</title>
      <polygon
         points="4,45 4,4 0,0 12,0 8,4 8,45 "
         style="fill:#ff0000"
         id="polygon890" />
    </g>
  </g>
</svg>
