<?xml version="1.0" encoding="UTF-8" standalone="no"?>
<svg
   xmlns:dc="http://purl.org/dc/elements/1.1/"
   xmlns:cc="http://creativecommons.org/ns#"
   xmlns:rdf="http://www.w3.org/1999/02/22-rdf-syntax-ns#"
   xmlns:svg="http://www.w3.org/2000/svg"
   xmlns="http://www.w3.org/2000/svg"
   width="160"
   height="80"
   viewBox="0 0 42.333332 21.166667"
   version="1.1"
   id="svg8">
  <defs
     id="defs2" />
  <metadata
     id="metadata5">
    <rdf:RDF>
      <cc:Work
         rdf:about="">
        <dc:format>image/svg+xml</dc:format>
        <dc:type
           rdf:resource="http://purl.org/dc/dcmitype/StillImage" />
        <dc:title></dc:title>
      </cc:Work>
    </rdf:RDF>
  </metadata>
  <g
     id="layer1">
    <g
       id="g34"
       transform="matrix(0.26458333,0,0,0.26458333,24.176302,4.4317708)">
      <title
         id="title30">Down Vertical Mark, DV</title>
      <polygon
         points="8,4 8,40 4,40 4,4 0,0 12,0 "
         style="fill:#ff0000"
         id="polygon32" />
    </g>
    <g
       id="g51"
       transform="matrix(0,-0.26458333,0.26458333,0,14.651302,7.6067708)">
      <title
         id="title47">Right Horizontal Mark, RH</title>
      <polygon
         points="4,40 4,4 0,0 12,0 8,4 8,40 "
         style="fill:#ff0000"
         id="polygon49" />
    </g>
    <g
       id="g57"
       transform="matrix(0,-0.26458333,0.26458333,0,14.651302,16.073437)">
      <title
         id="title53">Right Horizontal Mark, RH</title>
      <polygon
         points="4,4 0,0 12,0 8,4 8,40 4,40 "
         style="fill:#ff0000"
         id="polygon55" />
    </g>
    <polygon
       points="8,4 8,40 4,40 4,4 0,0 12,0 "
       style="fill:#ff0000"
       id="polygon61"
       transform="matrix(0,-0.26458333,0.26458333,0,15.363825,13.168842)">
      <title
         id="title83">Right Horizontal Mark, RH</title>
    </polygon>
    <polygon
       points="4,4 0,0 12,0 8,4 8,40 4,40 "
       style="fill:#ff0000"
       id="polygon77"
       transform="matrix(0,-0.26458333,0.26458333,0,15.363825,10.311303)">
      <title
         id="title81">Right Horizontal Mark, RH</title>
    </polygon>
    <g
       id="g120"
       transform="matrix(0.26458333,0,0,0.26458333,24.922805,13.654389)">
      <title
         id="title116">Southeast Corner Connector, SEC</title>
      <circle
         cx="3"
         cy="3"
         r="3"
         style="fill:#008000"
         id="circle118" />
    </g>
    <g
       id="g126"
       transform="matrix(0.26458333,0,0,0.26458333,24.922805,10.923587)">
      <title
         id="title122">Right 2 Touch Connector, R2T</title>
      <circle
         cx="3"
         cy="3"
         r="3"
         style="fill:#008000"
         id="circle124" />
    </g>
    <g
       id="g132"
       transform="matrix(0.26458333,0,0,0.26458333,24.970052,7.984746)">
      <title
         id="title128">Right 2 Touch Connector, R2T</title>
      <circle
         cx="3"
         cy="3"
         r="3"
         style="fill:#008000"
         id="circle130" />
    </g>
    <g
       id="g138"
       transform="matrix(0.26458333,0,0,0.26458333,24.828311,5.2916661)">
      <title
         id="title134">Northeast Corner Connector, NEC</title>
      <circle
         cx="3"
         cy="3"
         r="3"
         style="fill:#008000"
         id="circle136" />
    </g>
    <polygon
       points="4,4 0,0 12,0 8,4 8,40 4,40 "
       style="fill:#ff0000"
       id="polygon978"
       transform="matrix(0,-0.26458333,0.26458333,0,4.7823437,9.1942707)">
      <title
         id="title976">Right Horizontal Mark, RH</title>
    </polygon>
    <polygon
       points="12,0 8,4 8,40 4,40 4,4 0,0 "
       style="fill:#ff0000"
       id="polygon982"
       transform="matrix(0,-0.26458333,0.26458333,0,4.7558854,14.433021)">
      <title
         id="title980">Right Horizontal Mark, RH</title>
    </polygon>
    <g
       id="g988"
       transform="matrix(0.26458333,0,0,0.26458333,14.386718,12.000744)">
      <title
         id="title984">Horizontal 2 Touch Connector, H2T</title>
      <circle
         cx="3"
         cy="3"
         r="3"
         style="fill:#008000"
         id="circle986" />
    </g>
    <g
       id="g103"
       transform="matrix(0.26458333,0,0,0.26458333,14.244977,6.8035712)">
      <title
         id="title99">Horizontal 2 Touch Connector, H2T</title>
      <circle
         cx="3"
         cy="3"
         r="3"
         style="fill:#008000"
         id="circle101" />
    </g>
    <g
       id="g1008"
       transform="matrix(0.26458333,0,0,0.26458333,9.4305062,10.016369)">
      <title
         id="title1004">Down Vertical Mark, DV</title>
      <polygon
         points="12,0 8,4 8,25 4,25 4,4 0,0 "
         style="fill:#ff0000"
         id="polygon1006" />
    </g>
    <g
       id="g1025"
       transform="matrix(0.26458333,0,0,0.26458333,6.2555062,10.016369)">
      <title
         id="title1021">Down Vertical Mark, DV</title>
      <polygon
         points="12,0 8,4 8,25 4,25 4,4 0,0 "
         style="fill:#ff0000"
         id="polygon1023" />
    </g>
    <g
       id="g1031"
       transform="matrix(0.26458333,0,0,0.26458333,10.181733,11.90625)">
      <title
         id="title1027">2 Cross Connector, 2C</title>
      <circle
         cx="3"
         cy="3"
         r="3"
         style="fill:#008000"
         id="circle1029" />
    </g>
    <g
       id="g1037"
       transform="matrix(0.26458333,0,0,0.26458333,7.0634293,12.000744)">
      <title
         id="title1033">2 Cross Connector, 2C</title>
      <circle
         cx="3"
         cy="3"
         r="3"
         style="fill:#008000"
         id="circle1035" />
    </g>
  </g>
</svg>
