<?xml version="1.0" encoding="UTF-8" standalone="no"?>
<svg
   xmlns:dc="http://purl.org/dc/elements/1.1/"
   xmlns:cc="http://creativecommons.org/ns#"
   xmlns:rdf="http://www.w3.org/1999/02/22-rdf-syntax-ns#"
   xmlns:svg="http://www.w3.org/2000/svg"
   xmlns="http://www.w3.org/2000/svg"
   width="160"
   height="80"
   viewBox="0 0 42.333332 21.166667"
   version="1.1"
   id="svg8">
  <defs
     id="defs2" />
  <metadata
     id="metadata5">
    <rdf:RDF>
      <cc:Work
         rdf:about="">
        <dc:format>image/svg+xml</dc:format>
        <dc:type
           rdf:resource="http://purl.org/dc/dcmitype/StillImage" />
        <dc:title></dc:title>
      </cc:Work>
    </rdf:RDF>
  </metadata>
  <g
     id="layer1">
    <g
       id="g1140"
       transform="matrix(0,-0.26458333,0.26458333,0,13.365161,10.208154)">
      <title
         id="title1136">Right Horizontal Mark, RH</title>
      <polygon
         points="8,4 8,60 4,60 4,4 0,0 12,0 "
         style="fill:#ff0000"
         id="polygon1138"
         transform="translate(0,-12.999994)" />
    </g>
    <polygon
       points="8,30 4,30 4,4 0,0 12,0 8,4 "
       style="fill:#ff0000"
       id="polygon1210"
       transform="matrix(0.26458333,0,0,0.26458333,15.013251,10.583333)">
      <title
         id="title1327">Down Vertical Mark, DV</title>
    </polygon>
    <polygon
       points="4,4 0,0 12,0 8,4 8,30 4,30 "
       style="fill:#ff0000"
       id="polygon1321"
       transform="matrix(0.26458333,0,0,0.26458333,18.080301,10.583333)">
      <title
         id="title1325">Down Vertical Mark, DV</title>
    </polygon>
    <g
       id="g1290"
       transform="matrix(0,-0.26458333,0.26458333,0,14.079536,16.928571)">
      <title
         id="title1286">Right Horizontal Mark, RH</title>
      <polygon
         points="8,55 4,55 4,4 0,0 12,0 8,4 "
         style="fill:#ff0000"
         id="polygon1288"
         transform="translate(0,-14.199995)" />
    </g>
    <circle
       style="fill:#008000;fill-rule:evenodd;stroke-width:0.264583"
       id="path839"
       cx="16.604418"
       cy="15.235237"
       r="0.79374999">
      <title
         id="title1319">2 Cross Connector, 2C</title>
    </circle>
    <polygon
       points="12,0 8,4 8,30 4,30 4,4 0,0 "
       style="fill:#ff0000"
       id="polygon1359"
       transform="matrix(0.26458333,0,0,0.26458333,21.090995,10.583333)">
      <title
         id="title1357">Down Vertical Mark, DV</title>
    </polygon>
    <circle
       style="fill:#008000;fill-rule:evenodd;stroke-width:0.264583"
       id="circle1078"
       cx="19.690634"
       cy="15.282333"
       r="0.79374999">
      <title
         id="title1092">2 Cross Connector, 2C</title>
    </circle>
    <circle
       style="fill:#008000;fill-rule:evenodd;stroke-width:0.264583"
       id="circle1363"
       cx="22.667196"
       cy="15.218306"
       r="0.79374999">
      <title
         id="title1361">2 Cross Connector, 2C</title>
    </circle>
    <polygon
       points="0,0 12,0 8,4 8,30 4,30 4,4 "
       style="fill:#ff0000"
       id="polygon1367"
       transform="matrix(0.26458333,0,0,0.26458333,23.604536,7.9592903)">
      <title
         id="title1365">Down Vertical Mark, DV</title>
    </polygon>
    <circle
       style="fill:#008000;fill-rule:evenodd;stroke-width:0.264583"
       id="circle1144"
       cx="25.19404"
       cy="15.403515"
       r="0.79374999">
      <title
         id="title1142">Southeast Corner Connector, SEC</title>
    </circle>
    <circle
       style="fill:#008000;fill-rule:evenodd;stroke-width:0.264583"
       id="circle1134"
       cx="25.176956"
       cy="8.091486"
       r="0.79374999">
      <title
         id="title1132">Northeast Corner Connector, NEC</title>
    </circle>
    <polygon
       points="4,4 0,0 12,0 8,4 8,30 4,30 "
       style="fill:#ff0000"
       id="polygon950"
       transform="matrix(0.26458333,0,0,0.26458333,11.997002,10.583333)">
      <title
         id="title948">Down Vertical Mark, DV</title>
    </polygon>
    <circle
       style="fill:#008000;fill-rule:evenodd;stroke-width:0.264583"
       id="circle954"
       cx="13.508831"
       cy="15.235237"
       r="0.79374999">
      <title
         id="title952">2 Cross Connector, 2C</title>
    </circle>
  </g>
</svg>
