<?xml version="1.0" encoding="UTF-8" standalone="no"?>
<svg
   xmlns:dc="http://purl.org/dc/elements/1.1/"
   xmlns:cc="http://creativecommons.org/ns#"
   xmlns:rdf="http://www.w3.org/1999/02/22-rdf-syntax-ns#"
   xmlns:svg="http://www.w3.org/2000/svg"
   xmlns="http://www.w3.org/2000/svg"
   width="160"
   height="80"
   viewBox="0 0 42.333332 21.166667"
   version="1.1"
   id="svg8">
  <defs
     id="defs2" />
  <metadata
     id="metadata5">
    <rdf:RDF>
      <cc:Work
         rdf:about="">
        <dc:format>image/svg+xml</dc:format>
        <dc:type
           rdf:resource="http://purl.org/dc/dcmitype/StillImage" />
        <dc:title></dc:title>
      </cc:Work>
    </rdf:RDF>
  </metadata>
  <g
     id="layer1">
    <g
       id="g1140"
       transform="matrix(0,-0.26458333,0.26458333,0,16.132023,7.9672468)">
      <title
         id="title1136">Right Horizontal Mark, RH</title>
      <polygon
         points="4,4 0,0 12,0 8,4 8,60 4,60 "
         style="fill:#ff0000"
         id="polygon1138"
         transform="translate(0,-12.999994)" />
    </g>
    <polygon
       points="4,4 0,0 12,0 8,4 8,30 4,30 "
       style="fill:#ff0000"
       id="polygon1210"
       transform="matrix(0.26458333,0,0,0.26458333,17.780113,6.8341874)">
      <title
         id="title1327">Down Vertical Mark, DV</title>
    </polygon>
    <polygon
       points="0,0 12,0 8,4 8,30 4,30 4,4 "
       style="fill:#ff0000"
       id="polygon1321"
       transform="matrix(0.26458333,0,0,0.26458333,20.847163,6.8606458)">
      <title
         id="title1325">Down Vertical Mark, DV</title>
    </polygon>
    <g
       id="g1290"
       transform="matrix(0,-0.26458333,0.26458333,0,16.846398,14.687664)">
      <title
         id="title1286">Right Horizontal Mark, RH</title>
      <polygon
         points="8,4 8,55 4,55 4,4 0,0 12,0 "
         style="fill:#ff0000"
         id="polygon1288"
         transform="translate(0,-14.199995)" />
    </g>
    <circle
       style="fill:#008000;fill-rule:evenodd;stroke-width:0.264583"
       id="path839"
       cx="19.371281"
       cy="12.994329"
       r="0.79374999">
      <title
         id="title1319">2 Cross Connector, 2C</title>
    </circle>
    <polygon
       points="0,0 12,0 8,4 8,30 4,30 4,4 "
       style="fill:#ff0000"
       id="polygon1359"
       transform="matrix(0.26458333,0,0,0.26458333,23.857857,6.8871041)">
      <title
         id="title1357">Down Vertical Mark, DV</title>
    </polygon>
    <circle
       style="fill:#008000;fill-rule:evenodd;stroke-width:0.264583"
       id="circle1078"
       cx="22.457497"
       cy="13.041426"
       r="0.79374999">
      <title
         id="title1092">2 Cross Connector, 2C</title>
    </circle>
    <circle
       style="fill:#008000;fill-rule:evenodd;stroke-width:0.264583"
       id="circle1363"
       cx="25.434059"
       cy="12.977398"
       r="0.79374999">
      <title
         id="title1361">2 Cross Connector, 2C</title>
    </circle>
    <polygon
       points="8,4 8,30 4,30 4,4 0,0 12,0 "
       style="fill:#ff0000"
       id="polygon1367"
       transform="matrix(0.26458333,0,0,0.26458333,26.371398,5.7183831)">
      <title
         id="title1365">Down Vertical Mark, DV</title>
    </polygon>
    <circle
       style="fill:#008000;fill-rule:evenodd;stroke-width:0.264583"
       id="circle1144"
       cx="27.960903"
       cy="13.162607"
       r="0.79374999">
      <title
         id="title1142">Southeast Corner Connector, SEC</title>
    </circle>
    <circle
       style="fill:#008000;fill-rule:evenodd;stroke-width:0.264583"
       id="circle1134"
       cx="27.943819"
       cy="5.8505788"
       r="0.79374999">
      <title
         id="title1132">Northeast Corner Connector, NEC</title>
    </circle>
    <polygon
       points="4,4 0,0 12,0 8,4 8,30 4,30 "
       style="fill:#ff0000"
       id="polygon950"
       transform="matrix(0.26458333,0,0,0.26458333,14.763864,6.8606458)">
      <title
         id="title948">Down Vertical Mark, DV</title>
    </polygon>
    <circle
       style="fill:#008000;fill-rule:evenodd;stroke-width:0.264583"
       id="circle954"
       cx="16.275694"
       cy="12.994329"
       r="0.79374999">
      <title
         id="title952">2 Cross Connector, 2C</title>
    </circle>
    <circle
       style="fill:#008000;fill-rule:evenodd;stroke-width:0.264583"
       id="circle966"
       cx="16.417435"
       cy="6.8522158"
       r="0.79374999">
      <title
         id="title964">Top 2 Touch Connector, T2T</title>
    </circle>
    <circle
       style="fill:#008000;fill-rule:evenodd;stroke-width:0.264583"
       id="circle970"
       cx="25.441616"
       cy="6.9467101"
       r="0.79374999">
      <title
         id="title968">Top 2 Touch Connector, T2T</title>
    </circle>
    <circle
       style="fill:#008000;fill-rule:evenodd;stroke-width:0.264583"
       id="circle974"
       cx="22.5123"
       cy="6.8049688"
       r="0.79374999">
      <title
         id="title972">Top 2 Touch Connector, T2T</title>
    </circle>
    <circle
       style="fill:#008000;fill-rule:evenodd;stroke-width:0.264583"
       id="circle978"
       cx="19.34675"
       cy="6.710475"
       r="0.79374999">
      <title
         id="title976">Top 2 Touch Connector, T2T</title>
    </circle>
  </g>
</svg>
