<?xml version="1.0" encoding="UTF-8" standalone="no"?>
<svg
   xmlns:dc="http://purl.org/dc/elements/1.1/"
   xmlns:cc="http://creativecommons.org/ns#"
   xmlns:rdf="http://www.w3.org/1999/02/22-rdf-syntax-ns#"
   xmlns:svg="http://www.w3.org/2000/svg"
   xmlns="http://www.w3.org/2000/svg"
   width="160"
   height="80"
   viewBox="0 0 42.333332 21.166667"
   version="1.1"
   id="svg8">
  <defs
     id="defs2" />
  <metadata
     id="metadata5">
    <rdf:RDF>
      <cc:Work
         rdf:about="">
        <dc:format>image/svg+xml</dc:format>
        <dc:type
           rdf:resource="http://purl.org/dc/dcmitype/StillImage" />
        <dc:title></dc:title>
      </cc:Work>
    </rdf:RDF>
  </metadata>
  <g
     id="layer1">
    <g
       id="g1140"
       transform="matrix(0,-0.26458333,0.26458333,0,16.273764,9.2146249)">
      <title
         id="title1136">Right Horizontal Mark, RH</title>
      <polygon
         points="4,60 4,4 0,0 12,0 8,4 8,60 "
         style="fill:#ff0000"
         id="polygon1138"
         transform="translate(0,-12.999994)" />
    </g>
    <polygon
       points="12,0 8,4 8,30 4,30 4,4 0,0 "
       style="fill:#ff0000"
       id="polygon1210"
       transform="matrix(0.26458333,0,0,0.26458333,17.921854,8.0815655)">
      <title
         id="title1327">Down Vertical Mark, DV</title>
    </polygon>
    <polygon
       points="8,4 8,30 4,30 4,4 0,0 12,0 "
       style="fill:#ff0000"
       id="polygon1321"
       transform="matrix(0.26458333,0,0,0.26458333,20.988904,8.1080239)">
      <title
         id="title1325">Down Vertical Mark, DV</title>
    </polygon>
    <g
       id="g1290"
       transform="matrix(0,-0.26458333,0.26458333,0,16.988139,15.935042)">
      <title
         id="title1286">Right Horizontal Mark, RH</title>
      <polygon
         points="12,0 8,4 8,55 4,55 4,4 0,0 "
         style="fill:#ff0000"
         id="polygon1288"
         transform="translate(0,-14.199995)" />
    </g>
    <circle
       style="fill:#008000;fill-rule:evenodd;stroke-width:0.264583"
       id="path839"
       cx="19.513021"
       cy="14.241708"
       r="0.79374999">
      <title
         id="title1319">2 Cross Connector, 2C</title>
    </circle>
    <polygon
       points="8,4 8,30 4,30 4,4 0,0 12,0 "
       style="fill:#ff0000"
       id="polygon1359"
       transform="matrix(0.26458333,0,0,0.26458333,23.999598,8.1344822)">
      <title
         id="title1357">Down Vertical Mark, DV</title>
    </polygon>
    <circle
       style="fill:#008000;fill-rule:evenodd;stroke-width:0.264583"
       id="circle1078"
       cx="22.599237"
       cy="14.288804"
       r="0.79374999">
      <title
         id="title1092">2 Cross Connector, 2C</title>
    </circle>
    <circle
       style="fill:#008000;fill-rule:evenodd;stroke-width:0.264583"
       id="circle1363"
       cx="25.5758"
       cy="14.224776"
       r="0.79374999">
      <title
         id="title1361">2 Cross Connector, 2C</title>
    </circle>
    <polygon
       points="12,0 8,4 8,30 4,30 4,4 0,0 "
       style="fill:#ff0000"
       id="polygon950"
       transform="matrix(0.26458333,0,0,0.26458333,14.905605,8.1080239)">
      <title
         id="title948">Down Vertical Mark, DV</title>
    </polygon>
    <circle
       style="fill:#008000;fill-rule:evenodd;stroke-width:0.264583"
       id="circle954"
       cx="16.417435"
       cy="14.241708"
       r="0.79374999">
      <title
         id="title952">2 Cross Connector, 2C</title>
    </circle>
    <circle
       style="fill:#008000;fill-rule:evenodd;stroke-width:0.264583"
       id="circle966"
       cx="16.559175"
       cy="8.0995941"
       r="0.79374999">
      <title
         id="title964">Top 2 Touch Connector, T2T</title>
    </circle>
    <circle
       style="fill:#008000;fill-rule:evenodd;stroke-width:0.264583"
       id="circle970"
       cx="25.583357"
       cy="8.1147709"
       r="0.79374999">
      <title
         id="title968">Top 2 Touch Connector, T2T</title>
    </circle>
    <circle
       style="fill:#008000;fill-rule:evenodd;stroke-width:0.264583"
       id="circle974"
       cx="22.654041"
       cy="8.1052456"
       r="0.79374999">
      <title
         id="title972">Top 2 Touch Connector, T2T</title>
    </circle>
    <circle
       style="fill:#008000;fill-rule:evenodd;stroke-width:0.264583"
       id="circle978"
       cx="19.514874"
       cy="8.0372477"
       r="0.79374999">
      <title
         id="title976">Top 2 Touch Connector, T2T</title>
    </circle>
    <polygon
       points="8,4 8,18 12,18 8,22 8,40 4,40 4,22 0,18 4,18 4,4 0,0 12,0 "
       style="fill:#ff0000"
       id="polygon1008"
       transform="matrix(0.26458333,0,0,0.26458333,26.991203,7.0870535)">
      <title
         id="title1022">Down Vertical Head-to-Tail Mark, DVHT</title>
    </polygon>
    <circle
       style="fill:#008000;fill-rule:evenodd;stroke-width:0.264583"
       id="circle1134"
       cx="28.614687"
       cy="7.7858939"
       r="0.79374999">
      <title
         id="title1132">Northeast Corner Connector, NEC</title>
    </circle>
    <circle
       style="fill:#008000;fill-rule:evenodd;stroke-width:0.264583"
       id="circle1144"
       cx="28.261469"
       cy="14.304169"
       r="0.79374999">
      <title
         id="title1142">Right 2 Touch Connector, R2T</title>
    </circle>
  </g>
</svg>
