<?xml version="1.0" encoding="UTF-8" standalone="no"?>
<svg
   xmlns:dc="http://purl.org/dc/elements/1.1/"
   xmlns:cc="http://creativecommons.org/ns#"
   xmlns:rdf="http://www.w3.org/1999/02/22-rdf-syntax-ns#"
   xmlns:svg="http://www.w3.org/2000/svg"
   xmlns="http://www.w3.org/2000/svg"
   width="160"
   height="80"
   viewBox="0 0 42.333332 21.166667"
   version="1.1"
   id="svg8">
  <defs
     id="defs2" />
  <metadata
     id="metadata5">
    <rdf:RDF>
      <cc:Work
         rdf:about="">
        <dc:format>image/svg+xml</dc:format>
        <dc:type
           rdf:resource="http://purl.org/dc/dcmitype/StillImage" />
        <dc:title></dc:title>
      </cc:Work>
    </rdf:RDF>
  </metadata>
  <g
     id="layer1">
    <g
       id="g857"
       transform="matrix(0,-0.26458333,0.26458333,0,13.867947,17.037276)">
      <title
         id="title853">Right Horizontal Mark, RH</title>
      <polygon
         points="0,0 12,0 8,4 8,50 4,50 4,4 "
         style="fill:#ff0000"
         id="polygon855"
         transform="translate(0,21.699713)" />
    </g>
    <g
       id="g888"
       transform="matrix(0.26458333,0,0,0.26458333,30.718125,4.3222333)">
      <title
         id="title884">Down Vertical Mark, DV</title>
      <polygon
         points="8,40 4,40 4,4 0,0 12,0 8,4 "
         style="fill:#ff0000"
         id="polygon886" />
    </g>
    <g
       id="g905"
       transform="matrix(0.26458333,0,0,0.26458333,27.675416,4.3222333)">
      <title
         id="title901">Down Vertical Mark, DV</title>
      <polygon
         points="0,0 12,0 8,4 8,40 4,40 4,4 "
         style="fill:#ff0000"
         id="polygon903" />
    </g>
    <g
       id="g911"
       transform="matrix(0.26458333,0,0,0.26458333,24.526875,4.3222333)">
      <title
         id="title907">Down Vertical Mark, DV</title>
      <polygon
         points="12,0 8,4 8,40 4,40 4,4 0,0 "
         style="fill:#ff0000"
         id="polygon909" />
    </g>
    <g
       id="g917"
       transform="matrix(0.26458333,0,0,0.26458333,21.510625,4.3222333)">
      <title
         id="title913">Down Vertical Mark, DV</title>
      <polygon
         points="4,40 4,4 0,0 12,0 8,4 8,40 "
         style="fill:#ff0000"
         id="polygon915" />
    </g>
    <g
       id="g937"
       transform="matrix(0,-0.26458333,0.26458333,0,15.971308,14.502871)">
      <title
         id="title933">Right Horizontal Mark, RH</title>
      <polygon
         points="12,0 8,4 8,25 4,25 4,4 0,0 "
         style="fill:#ff0000"
         id="polygon935" />
    </g>
    <g
       id="g954"
       transform="matrix(0,-0.26458333,0.26458333,0,15.971308,11.248496)">
      <title
         id="title950">Right Horizontal Mark, RH</title>
      <polygon
         points="0,0 12,0 8,4 8,25 4,25 4,4 "
         style="fill:#ff0000"
         id="polygon952" />
    </g>
    <circle
       style="fill:#008000;fill-rule:evenodd;stroke-width:0.264583"
       id="path839"
       cx="32.364212"
       cy="15.213543"
       r="0.79374999">
      <title
         id="title992">Southeast Corner Connector, SEC</title>
    </circle>
    <circle
       style="fill:#008000;fill-rule:evenodd;stroke-width:0.264583"
       id="circle972"
       cx="23.151041"
       cy="15.213544"
       r="0.79374999">
      <title
         id="title974">Bottom 2 Touch Connector, B2T</title>
    </circle>
    <circle
       style="fill:#008000;fill-rule:evenodd;stroke-width:0.264583"
       id="circle978"
       cx="26.127605"
       cy="15.213544"
       r="0.79374999">
      <title
         id="title976">Bottom 2 Touch Connector, B2T</title>
    </circle>
    <ellipse
       style="fill:#008000;fill-rule:evenodd;stroke-width:0.276142"
       id="circle982"
       cx="29.222284"
       cy="15.119049"
       rx="0.86462051"
       ry="0.79374999">
      <title
         id="title980">Bottom 2 Touch Connector, B2T</title>
    </ellipse>
    <circle
       style="fill:#008000;fill-rule:evenodd;stroke-width:0.264583"
       id="circle984"
       cx="22.914808"
       cy="12.709451"
       r="0.79374999">
      <title
         id="title986">Right 2 Touch Connector, R2T</title>
    </circle>
    <circle
       style="fill:#008000;fill-rule:evenodd;stroke-width:0.264583"
       id="circle990"
       cx="22.867561"
       cy="9.6856413"
       r="0.79374999">
      <title
         id="title988">Right 2 Touch Connector, R2T</title>
    </circle>
  </g>
</svg>
