<?xml version="1.0" encoding="UTF-8" standalone="no"?>
<svg
   xmlns:dc="http://purl.org/dc/elements/1.1/"
   xmlns:cc="http://creativecommons.org/ns#"
   xmlns:rdf="http://www.w3.org/1999/02/22-rdf-syntax-ns#"
   xmlns:svg="http://www.w3.org/2000/svg"
   xmlns="http://www.w3.org/2000/svg"
   width="160"
   height="80"
   viewBox="0 0 42.333332 21.166667"
   version="1.1"
   id="svg8">
  <defs
     id="defs2" />
  <metadata
     id="metadata5">
    <rdf:RDF>
      <cc:Work
         rdf:about="">
        <dc:format>image/svg+xml</dc:format>
        <dc:type
           rdf:resource="http://purl.org/dc/dcmitype/StillImage" />
        <dc:title></dc:title>
      </cc:Work>
    </rdf:RDF>
  </metadata>
  <g
     id="layer1">
    <g
       id="g857"
       transform="matrix(0,-0.26458333,0.26458333,0,11.472561,16.515632)">
      <title
         id="title853">Right Horizontal Mark, RH</title>
      <polygon
         points="12,0 8,4 8,40 4,40 4,4 0,0 "
         style="fill:#ff0000"
         id="polygon855"
         transform="translate(0,30.100139)" />
    </g>
    <g
       id="g888"
       transform="matrix(0.26458333,0,0,0.26458333,28.322739,3.800589)">
      <title
         id="title884">Down Vertical Mark, DV</title>
      <polygon
         points="12,0 8,4 8,40 4,40 4,4 0,0 "
         style="fill:#ff0000"
         id="polygon886" />
    </g>
    <g
       id="g905"
       transform="matrix(0.26458333,0,0,0.26458333,25.28003,3.800589)">
      <title
         id="title901">Down Vertical Mark, DV</title>
      <polygon
         points="4,40 4,4 0,0 12,0 8,4 8,40 "
         style="fill:#ff0000"
         id="polygon903" />
    </g>
    <g
       id="g911"
       transform="matrix(0.26458333,0,0,0.26458333,22.131489,3.800589)">
      <title
         id="title907">Down Vertical Mark, DV</title>
      <polygon
         points="4,4 0,0 12,0 8,4 8,40 4,40 "
         style="fill:#ff0000"
         id="polygon909" />
    </g>
    <g
       id="g917"
       transform="matrix(0.26458333,0,0,0.26458333,19.115239,3.800589)">
      <title
         id="title913">Down Vertical Mark, DV</title>
      <polygon
         points="8,4 8,40 4,40 4,4 0,0 12,0 "
         style="fill:#ff0000"
         id="polygon915" />
    </g>
    <g
       id="g937"
       transform="matrix(0,-0.26458333,0.26458333,0,13.575922,14.298612)">
      <title
         id="title933">Right Horizontal Mark, RH</title>
      <polygon
         points="0,0 12,0 8,4 8,40 4,40 4,4 "
         style="fill:#ff0000"
         id="polygon935"
         transform="translate(0,-12.199572)" />
    </g>
    <g
       id="g954"
       transform="matrix(0,-0.26458333,0.26458333,0,13.575922,10.276947)">
      <title
         id="title950">Right Horizontal Mark, RH</title>
      <polygon
         points="8,40 4,40 4,4 0,0 12,0 8,4 "
         style="fill:#ff0000"
         id="polygon952"
         transform="translate(0,-12.299572)" />
    </g>
    <circle
       style="fill:#008000;fill-rule:evenodd;stroke-width:0.264583"
       id="path839"
       cx="29.968826"
       cy="14.691898"
       r="0.79374999">
      <title
         id="title992">Southeast Corner Connector, SEC</title>
    </circle>
    <circle
       style="fill:#008000;fill-rule:evenodd;stroke-width:0.264583"
       id="circle972"
       cx="20.755655"
       cy="14.691899"
       r="0.79374999">
      <title
         id="title974">Southwest Corner Connector, SWC</title>
    </circle>
    <circle
       style="fill:#008000;fill-rule:evenodd;stroke-width:0.264583"
       id="circle978"
       cx="23.73222"
       cy="14.691899"
       r="0.79374999">
      <title
         id="title976">Bottom 2 Touch Connector, B2T</title>
    </circle>
    <ellipse
       style="fill:#008000;fill-rule:evenodd;stroke-width:0.276142"
       id="circle982"
       cx="26.826899"
       cy="14.597404"
       rx="0.86462051"
       ry="0.79374999">
      <title
         id="title980">Bottom 2 Touch Connector, B2T</title>
    </ellipse>
    <circle
       style="fill:#008000;fill-rule:evenodd;stroke-width:0.264583"
       id="circle984"
       cx="20.519423"
       cy="12.637558"
       r="0.79374999">
      <title
         id="title986">Right 2 Touch Connector, R2T</title>
    </circle>
    <circle
       style="fill:#008000;fill-rule:evenodd;stroke-width:0.264583"
       id="circle990"
       cx="20.472176"
       cy="8.7143164"
       r="0.79374999">
      <title
         id="title988">Right 2 Touch Connector, R2T</title>
    </circle>
    <g
       id="g1002"
       transform="matrix(0.26458333,0,0,0.26458333,15.194643,10.299851)">
      <title
         id="title998" />
      <polygon
         points="12,0 8,4 8,25 4,25 4,4 0,0 "
         style="fill:#ff0000"
         id="polygon1000" />
    </g>
    <g
       id="g1019"
       transform="matrix(0.26458333,0,0,0.26458333,12.019643,10.299851)">
      <title
         id="title1015" />
      <polygon
         points="8,25 4,25 4,4 0,0 12,0 8,4 "
         style="fill:#ff0000"
         id="polygon1017" />
    </g>
    <ellipse
       style="fill:#008000;fill-rule:evenodd;stroke-width:0.276142"
       id="ellipse1023"
       cx="16.716036"
       cy="12.707523"
       rx="0.86462051"
       ry="0.79374999">
      <title
         id="title1021">2 Cross Connector, 2C</title>
    </ellipse>
    <ellipse
       style="fill:#008000;fill-rule:evenodd;stroke-width:0.276142"
       id="ellipse1027"
       cx="13.503239"
       cy="12.707523"
       rx="0.86462051"
       ry="0.79374999">
      <title
         id="title1025">2 Cross Connector, 2C</title>
    </ellipse>
  </g>
</svg>
