<?xml version="1.0" encoding="UTF-8" standalone="no"?>
<svg
   xmlns:dc="http://purl.org/dc/elements/1.1/"
   xmlns:cc="http://creativecommons.org/ns#"
   xmlns:rdf="http://www.w3.org/1999/02/22-rdf-syntax-ns#"
   xmlns:svg="http://www.w3.org/2000/svg"
   xmlns="http://www.w3.org/2000/svg"
   width="160"
   height="80"
   viewBox="0 0 42.333332 21.166667"
   version="1.1"
   id="svg8">
  <defs
     id="defs2" />
  <metadata
     id="metadata5">
    <rdf:RDF>
      <cc:Work
         rdf:about="">
        <dc:format>image/svg+xml</dc:format>
        <dc:type
           rdf:resource="http://purl.org/dc/dcmitype/StillImage" />
        <dc:title></dc:title>
      </cc:Work>
    </rdf:RDF>
  </metadata>
  <g
     id="layer1">
    <g
       id="g857"
       transform="matrix(0,-0.26458333,0.26458333,0,10.602232,18.785417)">
      <title
         id="title853">Right Horizontal Mark, RH</title>
      <polygon
         points="8,72 4,72 4,4 0,0 12,0 8,4 "
         style="fill:#ff0000"
         id="polygon855" />
    </g>
    <g
       id="g888"
       transform="matrix(0,-0.26458333,0.26458333,0,18.757068,15.453519)">
      <title
         id="title884">Right Horizontal Mark, RH</title>
      <polygon
         points="12,0 8,4 8,40 4,40 4,4 0,0 "
         style="fill:#ff0000"
         id="polygon886" />
    </g>
    <g
       id="g905"
       transform="matrix(0,-0.26458333,0.26458333,0,18.757068,12.781227)">
      <title
         id="title901">Right Horizontal Mark, RH</title>
      <polygon
         points="8,4 8,40 4,40 4,4 0,0 12,0 "
         style="fill:#ff0000"
         id="polygon903" />
    </g>
    <g
       id="g911"
       transform="matrix(0,-0.26458333,0.26458333,0,18.757068,10.108935)">
      <title
         id="title907">Right Horizontal Mark, RH</title>
      <polygon
         points="8,40 4,40 4,4 0,0 12,0 8,4 "
         style="fill:#ff0000"
         id="polygon909" />
    </g>
    <g
       id="g917"
       transform="matrix(0,-0.26458333,0.26458333,0,18.757068,7.1456021)">
      <title
         id="title913">Right Horizontal Mark, RH</title>
      <polygon
         points="4,40 4,4 0,0 12,0 8,4 8,40 "
         style="fill:#ff0000"
         id="polygon915" />
    </g>
    <g
       id="g923"
       transform="matrix(0.26458333,0,0,0.26458333,15.449814,3.9706021)">
      <title
         id="title919">Down Vertical Mark, DV</title>
      <polygon
         points="4,4 0,0 12,0 8,4 8,60 4,60 "
         style="fill:#ff0000"
         id="polygon921" />
    </g>
    <g
       id="g929"
       transform="matrix(0.26458333,0,0,0.26458333,19.101064,6.0872688)">
      <title
         id="title925">Down Vertical Mark, DV</title>
      <polygon
         points="8,52 4,52 4,4 0,0 12,0 8,4 "
         style="fill:#ff0000"
         id="polygon927" />
    </g>
    <g
       id="g935"
       transform="matrix(0.26458333,0,0,0.26458333,22.355439,9.0241437)">
      <title
         id="title931">Down Vertical Mark, DV</title>
      <polygon
         points="4,4 0,0 12,0 8,4 8,41 4,41 "
         style="fill:#ff0000"
         id="polygon933" />
    </g>
    <circle
       style="fill:#008000;fill-rule:evenodd;stroke-width:0.264583"
       id="path839"
       cx="24.001488"
       cy="8.8351936"
       r="0.79374999">
      <title
         id="title953">Top 2 Touch Connector, T2T</title>
    </circle>
    <circle
       style="fill:#008000;fill-rule:evenodd;stroke-width:0.264583"
       id="circle957"
       cx="20.646948"
       cy="8.4572182"
       r="0.79374999">
      <title
         id="title955">2 Cross Connector, 2C</title>
    </circle>
    <circle
       style="fill:#008000;fill-rule:evenodd;stroke-width:0.264583"
       id="circle961"
       cx="23.954239"
       cy="11.150298"
       r="0.79374999">
      <title
         id="title959">2 Cross Connector, 2C</title>
    </circle>
    <circle
       style="fill:#008000;fill-rule:evenodd;stroke-width:0.264583"
       id="circle965"
       cx="20.788689"
       cy="11.103051"
       r="0.79374999">
      <title
         id="title963">2 Cross Connector, 2C</title>
    </circle>
    <circle
       style="fill:#008000;fill-rule:evenodd;stroke-width:0.264583"
       id="circle969"
       cx="23.906992"
       cy="13.701637"
       r="0.79374999">
      <title
         id="title967">2 Cross Connector, 2C</title>
    </circle>
    <circle
       style="fill:#008000;fill-rule:evenodd;stroke-width:0.264583"
       id="circle973"
       cx="20.741442"
       cy="13.843378"
       r="0.79374999">
      <title
         id="title971">2 Cross Connector, 2C</title>
    </circle>
    <circle
       style="fill:#008000;fill-rule:evenodd;stroke-width:0.264583"
       id="circle977"
       cx="24.001486"
       cy="17.056175"
       r="0.79374999">
      <title
         id="title975">2 Cross Connector, 2C</title>
    </circle>
    <circle
       style="fill:#008000;fill-rule:evenodd;stroke-width:0.264583"
       id="circle981"
       cx="20.646948"
       cy="17.103422"
       r="0.79374999">
      <title
         id="title979">2 Cross Connector, 2C</title>
    </circle>
    <circle
       style="fill:#008000;fill-rule:evenodd;stroke-width:0.264583"
       id="circle985"
       cx="17.008926"
       cy="17.197916"
       r="0.79374999">
      <title
         id="title983">2 Cross Connector, 2C</title>
    </circle>
    <circle
       style="fill:#008000;fill-rule:evenodd;stroke-width:0.264583"
       id="circle989"
       cx="20.741442"
       cy="6.1421137"
       r="0.79374999">
      <title
         id="title987">Top 2 Touch Connector, T2T</title>
    </circle>
  </g>
</svg>
