<?xml version="1.0" encoding="UTF-8" standalone="no"?>
<svg
   xmlns:dc="http://purl.org/dc/elements/1.1/"
   xmlns:cc="http://creativecommons.org/ns#"
   xmlns:rdf="http://www.w3.org/1999/02/22-rdf-syntax-ns#"
   xmlns:svg="http://www.w3.org/2000/svg"
   xmlns="http://www.w3.org/2000/svg"
   width="160"
   height="80"
   viewBox="0 0 42.333332 21.166667"
   version="1.1"
   id="svg8">
  <defs
     id="defs2" />
  <metadata
     id="metadata5">
    <rdf:RDF>
      <cc:Work
         rdf:about="">
        <dc:format>image/svg+xml</dc:format>
        <dc:type
           rdf:resource="http://purl.org/dc/dcmitype/StillImage" />
        <dc:title></dc:title>
      </cc:Work>
    </rdf:RDF>
  </metadata>
  <g
     id="layer1">
    <g
       id="g857"
       transform="matrix(0,-0.26458333,0.26458333,0,10.602232,18.785417)">
      <title
         id="title853">Right Horizontal Mark, RH</title>
      <polygon
         points="0,0 12,0 8,4 8,72 4,72 4,4 "
         style="fill:#ff0000"
         id="polygon855" />
    </g>
    <g
       id="g888"
       transform="matrix(0,-0.26458333,0.26458333,0,18.757068,8.2568526)">
      <title
         id="title884">Right Horizontal Mark, RH</title>
      <polygon
         points="4,4 0,0 12,0 8,4 8,55 4,55 "
         style="fill:#ff0000"
         id="polygon886"
         transform="translate(-6.8499978,-14.107143)" />
    </g>
    <g
       id="g935"
       transform="matrix(0.26458333,0,0,0.26458333,10.740231,9.0241437)">
      <title
         id="title931">Down Vertical Mark, DV</title>
      <polygon
         points="8,41 4,41 4,4 0,0 12,0 8,4 "
         style="fill:#ff0000"
         id="polygon933" />
    </g>
    <circle
       style="fill:#008000;fill-rule:evenodd;stroke-width:0.264583"
       id="circle985"
       cx="12.331471"
       cy="17.103422"
       r="0.79374999">
      <title
         id="title983">2 Cross Connector, 2C</title>
    </circle>
    <g
       id="g995"
       transform="matrix(0.26458333,0,0,0.26458333,13.677106,9.0241437)">
      <title
         id="title991">Down Vertical Mark, DV</title>
      <polygon
         points="12,0 8,4 8,41 4,41 4,4 0,0 "
         style="fill:#ff0000"
         id="polygon993" />
    </g>
    <g
       id="g1001"
       transform="matrix(0.26458333,0,0,0.26458333,16.719813,9.0241437)">
      <title
         id="title997">Down Vertical Mark, DV</title>
      <polygon
         points="12,0 8,4 8,41 4,41 4,4 0,0 "
         style="fill:#ff0000"
         id="polygon999" />
    </g>
    <circle
       style="fill:#008000;fill-rule:evenodd;stroke-width:0.264583"
       id="circle981"
       cx="15.308035"
       cy="17.103422"
       r="0.79374999">
      <title
         id="title979">2 Cross Connector, 2C</title>
    </circle>
    <circle
       style="fill:#008000;fill-rule:evenodd;stroke-width:0.264583"
       id="circle977"
       cx="18.190102"
       cy="17.150669"
       r="0.79374999">
      <title
         id="title975">2 Cross Connector, 2C</title>
    </circle>
    <g
       id="g1007"
       transform="matrix(0.26458333,0,0,0.26458333,27.541273,7.9658104)">
      <title
         id="title1003">Down Vertical Mark, DV</title>
      <polygon
         points="12,0 8,4 8,36 4,36 4,4 0,0 "
         style="fill:#ff0000"
         id="polygon1005" />
    </g>
    <circle
       style="fill:#008000;fill-rule:evenodd;stroke-width:0.264583"
       id="path839"
       cx="29.151413"
       cy="8.4572172"
       r="0.79374999">
      <title
         id="title953">Northeast Corner Connector, NEC</title>
    </circle>
    <circle
       style="fill:#008000;fill-rule:evenodd;stroke-width:0.264583"
       id="circle961"
       cx="29.293152"
       cy="17.056175"
       r="0.79374999">
      <title
         id="title959">Southeast Corner Connector, SEC</title>
    </circle>
    <circle
       style="fill:#008000;fill-rule:evenodd;stroke-width:0.264583"
       id="circle973"
       cx="15.323079"
       cy="8.9769344"
       r="0.79374999">
      <title
         id="title971">Northwest Corner Connector, NWC</title>
    </circle>
    <circle
       style="fill:#008000;fill-rule:evenodd;stroke-width:0.264583"
       id="circle989"
       cx="18.379089"
       cy="8.9769354"
       r="0.79374999">
      <title
         id="title987">Top 2 Touch Connector, T2T</title>
    </circle>
  </g>
</svg>
