<?xml version="1.0" encoding="UTF-8" standalone="no"?>
<svg
   xmlns:dc="http://purl.org/dc/elements/1.1/"
   xmlns:cc="http://creativecommons.org/ns#"
   xmlns:rdf="http://www.w3.org/1999/02/22-rdf-syntax-ns#"
   xmlns:svg="http://www.w3.org/2000/svg"
   xmlns="http://www.w3.org/2000/svg"
   width="160"
   height="80"
   viewBox="0 0 42.333332 21.166667"
   version="1.1"
   id="svg8">
  <defs
     id="defs2" />
  <metadata
     id="metadata5">
    <rdf:RDF>
      <cc:Work
         rdf:about="">
        <dc:format>image/svg+xml</dc:format>
        <dc:type
           rdf:resource="http://purl.org/dc/dcmitype/StillImage" />
        <dc:title></dc:title>
      </cc:Work>
    </rdf:RDF>
  </metadata>
  <g
     id="layer1">
    <g
       id="g1188"
       transform="matrix(0.13229167,-0.22913589,0.22913589,0.13229167,13.397852,7.5727015)">
      <title
         id="title1184">Right Down Diagonal Mark, RDD</title>
      <polygon
         points="8,4 8,40 4,40 4,4 0,0 12,0 "
         style="fill:#ff0000"
         id="polygon1186" />
    </g>
    <g
       id="g1338"
       transform="matrix(-0.0684792,-0.25556787,0.25556787,-0.0684792,13.100305,15.750369)">
      <title
         id="title1334">Right Up Diagonal  Mark, RUD</title>
      <polygon
         points="4,4 0,0 12,0 8,4 8,40 4,40 "
         style="fill:#ff0000"
         id="polygon1336" />
    </g>
    <g
       id="g1344"
       transform="matrix(0.26458333,0,0,0.26458333,16.23967,10.201483)">
      <title
         id="title1340">Down Vertical Mark, DV</title>
      <polygon
         points="8,25 4,25 4,4 0,0 12,0 8,4 "
         style="fill:#ff0000"
         id="polygon1342" />
    </g>
    <circle
       style="fill:#008000;fill-rule:evenodd;stroke-width:0.264583"
       id="circle1229"
       cx="17.874496"
       cy="12.798102"
       r="0.79374999">
      <title
         id="title1227">2 Cross Connector, 2C</title>
    </circle>
    <g
       id="g900"
       transform="matrix(0.26458333,0,0,0.26458333,13.22342,10.201483)">
      <title
         id="title896">Down Vertical Mark, DV</title>
      <polygon
         points="12,0 8,4 8,25 4,25 4,4 0,0 "
         style="fill:#ff0000"
         id="polygon898" />
    </g>
    <circle
       style="fill:#008000;fill-rule:evenodd;stroke-width:0.264583"
       id="circle904"
       cx="14.803437"
       cy="13.601301"
       r="0.79374999">
      <title
         id="title902">2 Cross Connector, 2C</title>
    </circle>
    <circle
       style="fill:#008000;fill-rule:evenodd;stroke-width:0.264583"
       id="circle908"
       cx="23.213409"
       cy="11.333445"
       r="0.79374999">
      <title
         id="title906">Right Middle Corner Connector, RMC</title>
    </circle>
    <g
       id="g942"
       transform="matrix(0.26458333,0,0,0.26458333,25.768526,5.8113837)">
      <title
         id="title938">Down Vertical Mark, DV</title>
      <polygon
         points="4,4 0,0 12,0 8,4 8,40 4,40 "
         style="fill:#ff0000"
         id="polygon940" />
    </g>
    <polygon
       points="6,12 0,6 6,0 "
       style="fill:#ff0000"
       id="polygon967"
       transform="matrix(0.26458333,0,0,0.26458333,24.105432,11.877902)">
      <title
         id="title981">Heel Mark, HE</title>
    </polygon>
    <polygon
       points="6,12 0,6 6,0 "
       style="fill:#ff0000"
       id="polygon985"
       transform="matrix(0.26458333,0,0,0.26458333,24.199926,7.5311759)">
      <title
         id="title983">Heel Mark, HE</title>
    </polygon>
  </g>
</svg>
