<?xml version="1.0" encoding="UTF-8" standalone="no"?>
<svg
   xmlns:dc="http://purl.org/dc/elements/1.1/"
   xmlns:cc="http://creativecommons.org/ns#"
   xmlns:rdf="http://www.w3.org/1999/02/22-rdf-syntax-ns#"
   xmlns:svg="http://www.w3.org/2000/svg"
   xmlns="http://www.w3.org/2000/svg"
   width="160"
   height="80"
   viewBox="0 0 42.333332 21.166667"
   version="1.1"
   id="svg8">
  <defs
     id="defs2" />
  <metadata
     id="metadata5">
    <rdf:RDF>
      <cc:Work
         rdf:about="">
        <dc:format>image/svg+xml</dc:format>
        <dc:type
           rdf:resource="http://purl.org/dc/dcmitype/StillImage" />
        <dc:title></dc:title>
      </cc:Work>
    </rdf:RDF>
  </metadata>
  <g
     id="layer1">
    <g
       id="g857"
       transform="matrix(0.13229166,-0.22913589,0.22913589,0.13229166,12.218519,3.0208286)">
      <title
         id="title853">Right Down Diagonal Mark, RDD</title>
      <polygon
         points="12,0 8,4 8,72 4,72 4,4 0,0 "
         style="fill:#ff0000"
         id="polygon855" />
    </g>
    <g
       id="g874"
       transform="matrix(0.13229166,-0.22913589,0.22913589,0.13229166,12.218519,6.6191617)">
      <title
         id="title870">Right Down Diagonal Mark, RDD</title>
      <polygon
         points="8,72 4,72 4,4 0,0 12,0 8,4 "
         style="fill:#ff0000"
         id="polygon872" />
    </g>
    <g
       id="g894"
       transform="matrix(-0.13229166,-0.22913589,0.22913589,-0.13229166,13.770239,18.143855)">
      <title
         id="title890">Right Up Diagonal Mark, RUD</title>
      <polygon
         points="8,72 4,72 4,4 0,0 12,0 8,4 "
         style="fill:#ff0000"
         id="polygon892" />
    </g>
    <g
       id="g911"
       transform="matrix(-0.13229166,-0.22913589,0.22913589,-0.13229166,13.770239,14.333855)">
      <title
         id="title907">Right Up Diagonal Mark, RUD</title>
      <polygon
         points="8,72 4,72 4,4 0,0 12,0 8,4 "
         style="fill:#ff0000"
         id="polygon909" />
    </g>
    <circle
       style="fill:#008000;fill-rule:evenodd;stroke-width:0.264583"
       id="path839"
       cx="23.056547"
       cy="11.055804"
       r="0.79374999">
      <title
         id="title929">2 Cross Connector, 2 C</title>
    </circle>
    <circle
       style="fill:#008000;fill-rule:evenodd;stroke-width:0.264583"
       id="circle933"
       cx="22.678572"
       cy="7.2760425"
       r="0.79374999">
      <title
         id="title931">2 Cross Connector, 2 C</title>
    </circle>
    <circle
       style="fill:#008000;fill-rule:evenodd;stroke-width:0.264583"
       id="circle937"
       cx="26.080359"
       cy="9.1659231"
       r="0.79374999">
      <title
         id="title935">2 Cross Connector, 2 C</title>
    </circle>
    <circle
       style="fill:#008000;fill-rule:evenodd;stroke-width:0.264583"
       id="circle941"
       cx="19.749256"
       cy="9.1186762"
       r="0.79374999">
      <title
         id="title939">2 Cross Connector, 2 C</title>
    </circle>
  </g>
</svg>
