<?xml version="1.0" encoding="UTF-8" standalone="no"?>
<svg
   xmlns:dc="http://purl.org/dc/elements/1.1/"
   xmlns:cc="http://creativecommons.org/ns#"
   xmlns:rdf="http://www.w3.org/1999/02/22-rdf-syntax-ns#"
   xmlns:svg="http://www.w3.org/2000/svg"
   xmlns="http://www.w3.org/2000/svg"
   width="160"
   height="80"
   viewBox="0 0 42.333332 21.166667"
   version="1.1"
   id="svg8">
  <defs
     id="defs2" />
  <metadata
     id="metadata5">
    <rdf:RDF>
      <cc:Work
         rdf:about="">
        <dc:format>image/svg+xml</dc:format>
        <dc:type
           rdf:resource="http://purl.org/dc/dcmitype/StillImage" />
        <dc:title></dc:title>
      </cc:Work>
    </rdf:RDF>
  </metadata>
  <g
     id="layer1">
    <g
       id="g857"
       transform="matrix(0.13229166,-0.22913589,0.22913589,0.13229166,6.5478669,4.1604003)">
      <title
         id="title853">Right Down Diagonal Mark, RDD</title>
      <polygon
         points="4,4 0,0 12,0 8,4 8,72 4,72 "
         style="fill:#ff0000"
         id="polygon855" />
    </g>
    <g
       id="g874"
       transform="matrix(0.13229166,-0.22913589,0.22913589,0.13229166,6.5478669,7.7587334)">
      <title
         id="title870">Right Down Diagonal Mark, RDD</title>
      <polygon
         points="12,0 8,4 8,72 4,72 4,4 0,0 "
         style="fill:#ff0000"
         id="polygon872" />
    </g>
    <g
       id="g894"
       transform="matrix(-0.13229166,-0.22913589,0.22913589,-0.13229166,8.0995869,19.283427)">
      <title
         id="title890">Right Up Diagonal Mark, RUD</title>
      <polygon
         points="12,0 8,4 8,72 4,72 4,4 0,0 "
         style="fill:#ff0000"
         id="polygon892" />
    </g>
    <g
       id="g911"
       transform="matrix(-0.13229166,-0.22913589,0.22913589,-0.13229166,8.0995869,15.473427)">
      <title
         id="title907">Right Up Diagonal Mark, RUD</title>
      <polygon
         points="12,0 8,4 8,72 4,72 4,4 0,0 "
         style="fill:#ff0000"
         id="polygon909" />
    </g>
    <circle
       style="fill:#008000;fill-rule:evenodd;stroke-width:0.264583"
       id="path839"
       cx="17.385895"
       cy="12.195376"
       r="0.79374999">
      <title
         id="title929">2 Cross Connector, 2 C</title>
    </circle>
    <circle
       style="fill:#008000;fill-rule:evenodd;stroke-width:0.264583"
       id="circle933"
       cx="17.007919"
       cy="8.4156141"
       r="0.79374999">
      <title
         id="title931">2 Cross Connector, 2 C</title>
    </circle>
    <circle
       style="fill:#008000;fill-rule:evenodd;stroke-width:0.264583"
       id="circle937"
       cx="20.409706"
       cy="10.305495"
       r="0.79374999">
      <title
         id="title935">2 Cross Connector, 2 C</title>
    </circle>
    <circle
       style="fill:#008000;fill-rule:evenodd;stroke-width:0.264583"
       id="circle941"
       cx="14.078604"
       cy="10.258248"
       r="0.79374999">
      <title
         id="title939">2 Cross Connector, 2 C</title>
    </circle>
    <g
       id="g1013"
       transform="matrix(0.25556787,-0.0684792,0.0684792,0.25556787,22.479529,4.4317252)">
      <title
         id="title1009">Right Down Diagonal Mark, RDD</title>
      <polygon
         points="4,4 0,0 12,0 8,4 8,25 4,25 "
         style="fill:#ff0000"
         id="polygon1011" />
    </g>
    <g
       id="g1044"
       transform="matrix(0.25556787,0.0684792,-0.0684792,0.25556787,24.061148,9.5575437)">
      <title
         id="title1040">Left Down Diagonal Mark, LDD</title>
      <polygon
         points="4,4 0,0 12,0 8,4 8,25 4,25 "
         style="fill:#ff0000"
         id="polygon1042" />
    </g>
    <circle
       style="fill:#008000;fill-rule:evenodd;stroke-width:0.264583"
       id="path839-3"
       cx="23.859747"
       cy="4.630208"
       r="0.79374999">
      <title
         id="title1073">Other 2 Touch Connector, O2T</title>
    </circle>
    <circle
       style="fill:#008000;fill-rule:evenodd;stroke-width:0.264583"
       id="circle1077"
       cx="23.954241"
       cy="15.686011"
       r="0.79374999">
      <title
         id="title1075">Other 2 Touch Connector, O2T</title>
    </circle>
    <circle
       style="fill:#008000;fill-rule:evenodd;stroke-width:0.264583"
       id="circle1081"
       cx="25.56064"
       cy="9.921874"
       r="0.79374999">
      <title
         id="title1079">Other 2 Touch Connector, O2T</title>
    </circle>
  </g>
</svg>
