<?xml version="1.0" encoding="UTF-8" standalone="no"?>
<svg
   xmlns:dc="http://purl.org/dc/elements/1.1/"
   xmlns:cc="http://creativecommons.org/ns#"
   xmlns:rdf="http://www.w3.org/1999/02/22-rdf-syntax-ns#"
   xmlns:svg="http://www.w3.org/2000/svg"
   xmlns="http://www.w3.org/2000/svg"
   width="160"
   height="80"
   viewBox="0 0 42.333332 21.166667"
   version="1.1"
   id="svg8">
  <defs
     id="defs2" />
  <metadata
     id="metadata5">
    <rdf:RDF>
      <cc:Work
         rdf:about="">
        <dc:format>image/svg+xml</dc:format>
        <dc:type
           rdf:resource="http://purl.org/dc/dcmitype/StillImage" />
        <dc:title></dc:title>
      </cc:Work>
    </rdf:RDF>
  </metadata>
  <g
     id="layer1">
    <g
       id="g857"
       transform="matrix(0.26458333,0,0,0.26458333,24.870833,5.7641366)">
      <title
         id="title853">Down Vertical Mark, DV</title>
      <polygon
         points="12,0 8,4 8,40 4,40 4,4 0,0 "
         style="fill:#ff0000"
         id="polygon855" />
    </g>
    <g
       id="g888"
       transform="matrix(0,-0.26458333,0.26458333,0,7.9374999,18.464136)">
      <title
         id="title884">Right Horizontal Mark, RH</title>
      <polygon
         points="8,72 4,72 4,4 0,0 12,0 8,4 "
         style="fill:#ff0000"
         id="polygon886" />
    </g>
    <g
       id="g919"
       transform="matrix(0.26458333,0,0,0.26458333,21.799777,9.7801342)">
      <title
         id="title915">Down Vertical Mark, DV</title>
      <polygon
         points="12,0 8,4 8,25 4,25 4,4 0,0 "
         style="fill:#ff0000"
         id="polygon917" />
    </g>
    <g
       id="g936"
       transform="matrix(0.26458333,0,0,0.26458333,18.836482,9.7801342)">
      <title
         id="title932">Down Vertical Mark, DV</title>
      <polygon
         points="8,4 8,25 4,25 4,4 0,0 12,0 "
         style="fill:#ff0000"
         id="polygon934" />
    </g>
    <g
       id="g942"
       transform="matrix(0.26458333,0,0,0.26458333,15.820231,9.7801342)">
      <title
         id="title938">Down Vertical Mark, DV</title>
      <polygon
         points="8,4 8,25 4,25 4,4 0,0 12,0 "
         style="fill:#ff0000"
         id="polygon940" />
    </g>
    <g
       id="g948"
       transform="matrix(0.26458333,0,0,0.26458333,12.618773,9.7801342)">
      <title
         id="title944">Down Vertical Mark, DV</title>
      <polygon
         points="12,0 8,4 8,25 4,25 4,4 0,0 "
         style="fill:#ff0000"
         id="polygon946" />
    </g>
    <g
       id="g954"
       transform="matrix(0,-0.26458333,0.26458333,0,7.9374999,9.6800474)">
      <title
         id="title950">Right Horizontal Mark, RH</title>
      <polygon
         points="8,72 4,72 4,4 0,0 12,0 8,4 "
         style="fill:#ff0000"
         id="polygon952" />
    </g>
    <g
       id="g960"
       transform="matrix(0,-0.26458333,0.26458333,0,6.2838541,5.4278153)">
      <title
         id="title956">Right Horizontal Mark, RH</title>
      <polygon
         points="0,0 12,0 8,4 8,62 4,62 4,4 "
         style="fill:#ff0000"
         id="polygon958"
         transform="translate(-32.285422,12.271)" />
    </g>
    <circle
       style="fill:#008000;fill-rule:evenodd;stroke-width:0.264583"
       id="path839"
       cx="23.434521"
       cy="16.725447"
       r="0.79374999">
      <title
         id="title992">Bottom 2 Touch Connector, B2T</title>
    </circle>
    <circle
       style="fill:#008000;fill-rule:evenodd;stroke-width:0.264583"
       id="circle980"
       cx="26.369432"
       cy="12.393877"
       r="0.79374999">
      <title
         id="title982">Right 2 Touch Connector, R2T</title>
    </circle>
    <circle
       style="fill:#008000;fill-rule:evenodd;stroke-width:0.264583"
       id="circle986"
       cx="26.458332"
       cy="8.1264887"
       r="0.79374999">
      <title
         id="title984">Right 2 Touch Connector, R2T</title>
    </circle>
    <circle
       style="fill:#008000;fill-rule:evenodd;stroke-width:0.264583"
       id="circle988"
       cx="26.494316"
       cy="16.772692"
       r="0.79374999">
      <title
         id="title990">Southeast Corner Connector, SEC</title>
    </circle>
    <circle
       style="fill:#008000;fill-rule:evenodd;stroke-width:0.264583"
       id="circle996"
       cx="20.363466"
       cy="12.378719"
       r="0.79374999">
      <title
         id="title994">2 Cross Connector, 2C</title>
    </circle>
    <circle
       style="fill:#008000;fill-rule:evenodd;stroke-width:0.264583"
       id="circle1000"
       cx="17.386902"
       cy="12.284225"
       r="0.79374999">
      <title
         id="title998">2 Cross Connector, 2C</title>
    </circle>
    <circle
       style="fill:#008000;fill-rule:evenodd;stroke-width:0.264583"
       id="circle1004"
       cx="14.174105"
       cy="12.425966"
       r="0.79374999">
      <title
         id="title1002">2 Cross Connector, 2C</title>
    </circle>
    <circle
       style="fill:#008000;fill-rule:evenodd;stroke-width:0.264583"
       id="circle1008"
       cx="23.48177"
       cy="12.331472"
       r="0.79374999">
      <title
         id="title1006">2 Cross Connector, 2C</title>
    </circle>
    <circle
       style="fill:#008000;fill-rule:evenodd;stroke-width:0.264583"
       id="circle1012"
       cx="14.174105"
       cy="16.725447"
       r="0.79374999">
      <title
         id="title1010">Bottom 2 Touch Connector, B2T</title>
    </circle>
    <circle
       style="fill:#008000;fill-rule:evenodd;stroke-width:0.264583"
       id="circle1016"
       cx="17.481396"
       cy="16.725447"
       r="0.79374999">
      <title
         id="title1014">Bottom 2 Touch Connector, B2T</title>
    </circle>
    <circle
       style="fill:#008000;fill-rule:evenodd;stroke-width:0.264583"
       id="circle1020"
       cx="20.457958"
       cy="16.6782"
       r="0.79374999">
      <title
         id="title1018">Bottom 2 Touch Connector, B2T</title>
    </circle>
  </g>
</svg>
