<?xml version="1.0" encoding="UTF-8" standalone="no"?>
<svg
   xmlns:dc="http://purl.org/dc/elements/1.1/"
   xmlns:cc="http://creativecommons.org/ns#"
   xmlns:rdf="http://www.w3.org/1999/02/22-rdf-syntax-ns#"
   xmlns:svg="http://www.w3.org/2000/svg"
   xmlns="http://www.w3.org/2000/svg"
   width="160"
   height="80"
   viewBox="0 0 42.333332 21.166667"
   version="1.1"
   id="svg8">
  <defs
     id="defs2" />
  <metadata
     id="metadata5">
    <rdf:RDF>
      <cc:Work
         rdf:about="">
        <dc:format>image/svg+xml</dc:format>
        <dc:type
           rdf:resource="http://purl.org/dc/dcmitype/StillImage" />
        <dc:title></dc:title>
      </cc:Work>
    </rdf:RDF>
  </metadata>
  <g
     id="layer1">
    <g
       id="g857"
       transform="matrix(0.26458333,0,0,0.26458333,28.329315,4.8002979)">
      <title
         id="title853">Down Vertical Mark, DV</title>
      <polygon
         points="4,4 0,0 12,0 8,4 8,40 4,40 "
         style="fill:#ff0000"
         id="polygon855" />
    </g>
    <g
       id="g888"
       transform="matrix(0,-0.26458333,0.26458333,0,11.395982,17.500297)">
      <title
         id="title884">Right Horizontal Mark, RH</title>
      <polygon
         points="4,4 0,0 12,0 8,4 8,72 4,72 "
         style="fill:#ff0000"
         id="polygon886" />
    </g>
    <g
       id="g936"
       transform="matrix(0.26458333,0,0,0.26458333,24.332139,7.6255946)">
      <title
         id="title932">Down Vertical Mark, DV</title>
      <polygon
         points="0,0 12,0 8,4 8,30 4,30 4,4 "
         style="fill:#ff0000"
         id="polygon934" />
    </g>
    <g
       id="g942"
       transform="matrix(0.26458333,0,0,0.26458333,20.284016,7.6255946)">
      <title
         id="title938">Down Vertical Mark, DV</title>
      <polygon
         points="4,30 4,4 0,0 12,0 8,4 8,30 "
         style="fill:#ff0000"
         id="polygon940" />
    </g>
    <g
       id="g948"
       transform="matrix(0.26458333,0,0,0.26458333,16.077255,7.6255946)">
      <title
         id="title944">Down Vertical Mark, DV</title>
      <polygon
         points="8,4 8,30 4,30 4,4 0,0 12,0 "
         style="fill:#ff0000"
         id="polygon946" />
    </g>
    <g
       id="g954"
       transform="matrix(0,-0.26458333,0.26458333,0,11.395982,8.7162087)">
      <title
         id="title950">Right Horizontal Mark, RH</title>
      <polygon
         points="4,4 0,0 12,0 8,4 8,72 4,72 "
         style="fill:#ff0000"
         id="polygon952" />
    </g>
    <g
       id="g960"
       transform="matrix(0,-0.26458333,0.26458333,0,9.7423362,2.8765519)">
      <title
         id="title956">Right Horizontal Mark, RH</title>
      <polygon
         points="8,4 8,62 4,62 4,4 0,0 12,0 "
         style="fill:#ff0000"
         id="polygon958"
         transform="translate(-32.285422,12.271)" />
    </g>
    <circle
       style="fill:#008000;fill-rule:evenodd;stroke-width:0.264583"
       id="circle980"
       cx="29.827915"
       cy="9.8236399"
       r="0.79374999">
      <title
         id="title982">Right 2 Touch Connector, R2T</title>
    </circle>
    <circle
       style="fill:#008000;fill-rule:evenodd;stroke-width:0.264583"
       id="circle986"
       cx="29.916813"
       cy="7.1626496"
       r="0.79374999">
      <title
         id="title984">Right 2 Touch Connector, R2T</title>
    </circle>
    <circle
       style="fill:#008000;fill-rule:evenodd;stroke-width:0.264583"
       id="circle988"
       cx="29.952797"
       cy="15.808853"
       r="0.79374999">
      <title
         id="title990">Southeast Corner Connector, SEC</title>
    </circle>
    <circle
       style="fill:#008000;fill-rule:evenodd;stroke-width:0.264583"
       id="circle996"
       cx="25.906412"
       cy="9.8557291"
       r="0.79374999">
      <title
         id="title994">2 Cross Connector, 2C</title>
    </circle>
    <circle
       style="fill:#008000;fill-rule:evenodd;stroke-width:0.264583"
       id="circle1000"
       cx="21.983171"
       cy="9.8557291"
       r="0.79374999">
      <title
         id="title998">2 Cross Connector, 2C</title>
    </circle>
    <circle
       style="fill:#008000;fill-rule:evenodd;stroke-width:0.264583"
       id="circle1004"
       cx="17.632586"
       cy="9.902976"
       r="0.79374999">
      <title
         id="title1002">2 Cross Connector, 2C</title>
    </circle>
    <circle
       style="fill:#008000;fill-rule:evenodd;stroke-width:0.264583"
       id="circle1012"
       cx="17.632586"
       cy="15.761608"
       r="0.79374999">
      <title
         id="title1010">Bottom 2 Touch Connector, B2T</title>
    </circle>
    <circle
       style="fill:#008000;fill-rule:evenodd;stroke-width:0.264583"
       id="circle1016"
       cx="21.945339"
       cy="15.761608"
       r="0.79374999">
      <title
         id="title1014">Bottom 2 Touch Connector, B2T</title>
    </circle>
    <circle
       style="fill:#008000;fill-rule:evenodd;stroke-width:0.264583"
       id="circle1020"
       cx="25.953775"
       cy="15.714361"
       r="0.79374999">
      <title
         id="title1018">Bottom 2 Touch Connector, B2T</title>
    </circle>
    <circle
       style="fill:#008000;fill-rule:evenodd;stroke-width:0.264583"
       id="circle1028"
       cx="17.685431"
       cy="7.6975226"
       r="0.79374999">
      <title
         id="title1026">Top 2 Touch Connector, T2T</title>
    </circle>
    <circle
       style="fill:#008000;fill-rule:evenodd;stroke-width:0.264583"
       id="circle1032"
       cx="21.850615"
       cy="7.6502757"
       r="0.79374999">
      <title
         id="title1030">Top 2 Touch Connector, T2T</title>
    </circle>
    <circle
       style="fill:#008000;fill-rule:evenodd;stroke-width:0.264583"
       id="circle1036"
       cx="25.911968"
       cy="7.6030288"
       r="0.79374999">
      <title
         id="title1034">Top 2 Touch Connector, T2T</title>
    </circle>
    <g
       id="g1072"
       transform="matrix(0,-0.26458333,0.26458333,0,9.7423362,6.0250932)">
      <title
         id="title1068">Right Horizontal Mark, RH</title>
      <polygon
         points="4,62 4,4 0,0 12,0 8,4 8,62 "
         style="fill:#ff0000"
         id="polygon1070"
         transform="translate(-32.285422,12.271)" />
    </g>
    <circle
       style="fill:#008000;fill-rule:evenodd;stroke-width:0.264583"
       id="circle1076"
       cx="17.632586"
       cy="12.89273"
       r="0.79374999">
      <title
         id="title1074">2 Cross Connector, 2C</title>
    </circle>
    <circle
       style="fill:#008000;fill-rule:evenodd;stroke-width:0.264583"
       id="circle1080"
       cx="21.956717"
       cy="12.819176"
       r="0.79374999">
      <title
         id="title1078">2 Cross Connector, 2C</title>
    </circle>
    <circle
       style="fill:#008000;fill-rule:evenodd;stroke-width:0.264583"
       id="circle1084"
       cx="25.906412"
       cy="12.845634"
       r="0.79374999">
      <title
         id="title1082">2 Cross Connector, 2C</title>
    </circle>
    <circle
       style="fill:#008000;fill-rule:evenodd;stroke-width:0.264583"
       id="circle1092"
       cx="29.827915"
       cy="12.892731"
       r="0.79374999">
      <title
         id="title1090">Right 2 Touch Connector, R2T</title>
    </circle>
  </g>
</svg>
