<?xml version="1.0" encoding="UTF-8" standalone="no"?>
<svg
   xmlns:dc="http://purl.org/dc/elements/1.1/"
   xmlns:cc="http://creativecommons.org/ns#"
   xmlns:rdf="http://www.w3.org/1999/02/22-rdf-syntax-ns#"
   xmlns:svg="http://www.w3.org/2000/svg"
   xmlns="http://www.w3.org/2000/svg"
   width="160"
   height="80"
   viewBox="0 0 42.333332 21.166667"
   version="1.1"
   id="svg8">
  <defs
     id="defs2" />
  <metadata
     id="metadata5">
    <rdf:RDF>
      <cc:Work
         rdf:about="">
        <dc:format>image/svg+xml</dc:format>
        <dc:type
           rdf:resource="http://purl.org/dc/dcmitype/StillImage" />
        <dc:title></dc:title>
      </cc:Work>
    </rdf:RDF>
  </metadata>
  <g
     id="layer1">
    <polygon
       points="4,35 4,4 0,0 12,0 8,4 8,35 12,40 0,40 "
       style="fill:#ff0000"
       id="polygon851"
       transform="matrix(0,-0.26458333,0.26458333,0,8.9060641,12.359822)">
      <title
         id="title919">Right Horizontal Barbell Mark, RHBB</title>
    </polygon>
    <polygon
       points="8,40 4,40 4,22 0,18 4,18 4,4 0,0 12,0 8,4 8,18 12,18 8,22 "
       style="fill:#ff0000"
       id="polygon877"
       transform="matrix(0,-0.26458333,0.26458333,0,20.576079,12.359821)">
      <title
         id="title921">Right Horizontal Head-to-Tail Mark, RHHT</title>
    </polygon>
    <g
       id="g902"
       transform="matrix(0.13229166,-0.22913589,0.22913589,0.13229166,21.46481,6.9263648)">
      <title
         id="title898">Right Down Diagonal Mark, RDD</title>
      <polygon
         points="8,40 4,40 4,4 0,0 12,0 8,4 "
         style="fill:#ff0000"
         id="polygon900" />
    </g>
    <g
       id="g919"
       transform="matrix(-0.13229166,-0.22913589,0.22913589,-0.13229166,23.05231,17.367908)">
      <title
         id="title915">Right Up Diagonal Mark, RUD</title>
      <polygon
         points="8,40 4,40 4,4 0,0 12,0 8,4 "
         style="fill:#ff0000"
         id="polygon917" />
    </g>
    <circle
       style="fill:#008000;fill-rule:evenodd;stroke-width:0.264583"
       id="path839"
       cx="31.277531"
       cy="10.677828"
       r="0.79374999">
      <title
         id="title937">3 Touch Connector, 3T</title>
    </circle>
  </g>
</svg>
