<?xml version="1.0" encoding="UTF-8" standalone="no"?>
<svg
   xmlns:dc="http://purl.org/dc/elements/1.1/"
   xmlns:cc="http://creativecommons.org/ns#"
   xmlns:rdf="http://www.w3.org/1999/02/22-rdf-syntax-ns#"
   xmlns:svg="http://www.w3.org/2000/svg"
   xmlns="http://www.w3.org/2000/svg"
   width="160"
   height="80"
   viewBox="0 0 42.333332 21.166667"
   version="1.1"
   id="svg8">
  <defs
     id="defs2" />
  <metadata
     id="metadata5">
    <rdf:RDF>
      <cc:Work
         rdf:about="">
        <dc:format>image/svg+xml</dc:format>
        <dc:type
           rdf:resource="http://purl.org/dc/dcmitype/StillImage" />
        <dc:title></dc:title>
      </cc:Work>
    </rdf:RDF>
  </metadata>
  <g
     id="layer1">
    <g
       id="g1318"
       transform="matrix(0.26458333,0,0,0.26458333,22.12287,6.0996476)">
      <title
         id="title1314">Down Vertical Mark, DV</title>
      <polygon
         points="8,40 4,40 4,4 0,0 12,0 8,4 "
         style="fill:#ff0000"
         id="polygon1316" />
    </g>
    <g
       id="g1493"
       transform="matrix(0,-0.26458333,0.26458333,0,25.052337,11.158802)">
      <title
         id="title1489">Right Horizontal Mark, RH</title>
      <polygon
         points="8,4 8,25 4,25 4,4 0,0 12,0 "
         style="fill:#ff0000"
         id="polygon1491" />
    </g>
    <g
       id="g1510"
       transform="matrix(0.26458333,0,0,0.26458333,30.430786,6.3378291)">
      <title
         id="title1506">Down Vertical Mark, DV</title>
      <polygon
         points="0,0 12,0 8,4 8,40 4,40 4,4 "
         style="fill:#ff0000"
         id="polygon1508" />
    </g>
    <g
       id="g938"
       transform="matrix(0,-0.26458333,0.26458333,0,25.052336,15.286302)">
      <title
         id="title934">Right Horizontal Mark, RH</title>
      <polygon
         points="8,25 4,25 4,4 0,0 12,0 8,4 "
         style="fill:#ff0000"
         id="polygon936" />
    </g>
    <circle
       style="fill:#008000;fill-rule:evenodd;stroke-width:0.264583"
       id="circle1532"
       cx="31.863508"
       cy="13.680017"
       r="0.79374999">
      <title
         id="title1540">Right 2 Touch Connector, R2T</title>
    </circle>
    <circle
       style="fill:#008000;fill-rule:evenodd;stroke-width:0.264583"
       id="circle942"
       cx="31.910755"
       cy="9.4202251"
       r="0.79374999">
      <title
         id="title940">Right 2 Touch Connector, R2T</title>
    </circle>
    <g
       id="g948"
       transform="matrix(0,-0.26458333,0.26458333,0,12.75662,9.2747041)">
      <title
         id="title944">Right Horizontal Mark, RH</title>
      <polygon
         points="0,0 12,0 8,4 8,40 4,40 4,4 "
         style="fill:#ff0000"
         id="polygon946" />
    </g>
    <g
       id="g954"
       transform="matrix(0,-0.26458332,0.26458332,0,13.030938,17.832915)">
      <title
         id="title950">Right Horizontal Mark, RH</title>
      <polygon
         points="12,0 8,4 8,40 4,40 4,4 0,0 "
         style="fill:#ff0000"
         id="polygon952" />
    </g>
    <g
       id="g960"
       transform="matrix(0,-0.26458333,0.26458333,0,16.717962,11.635052)">
      <title
         id="title956">Right Horizontal Mark, RH</title>
      <polygon
         points="4,25 4,4 0,0 12,0 8,4 8,25 "
         style="fill:#ff0000"
         id="polygon958" />
    </g>
    <g
       id="g966"
       transform="matrix(0,-0.26458333,0.26458333,0,16.717962,15.101094)">
      <title
         id="title962">Right Horizontal Mark, RH</title>
      <polygon
         points="4,25 4,4 0,0 12,0 8,4 8,25 "
         style="fill:#ff0000"
         id="polygon964" />
    </g>
    <circle
       style="fill:#008000;fill-rule:evenodd;stroke-width:0.264583"
       id="circle1528"
       cx="23.689774"
       cy="13.402205"
       r="0.79374999">
      <title
         id="title1538">Right 2 Touch Connector, R2T</title>
    </circle>
    <circle
       style="fill:#008000;fill-rule:evenodd;stroke-width:0.264583"
       id="circle1530"
       cx="23.73702"
       cy="9.920989"
       r="0.79374999">
      <title
         id="title1536">Right 2 Touch Connector, R2T</title>
    </circle>
    <circle
       style="fill:#008000;fill-rule:evenodd;stroke-width:0.264583"
       id="path839"
       cx="23.784267"
       cy="16.204842"
       r="0.79374999">
      <title
         id="title1542">Southeast Corner Connector, SEC</title>
    </circle>
    <circle
       style="fill:#008000;fill-rule:evenodd;stroke-width:0.264583"
       id="circle970"
       cx="23.73702"
       cy="7.7250395"
       r="0.79374999">
      <desc
         id="desc1010">Or a northeast corner connector.</desc>
      <title
         id="title968">Right 2 Touch Connector, R2T</title>
    </circle>
    <g
       id="g978"
       transform="matrix(0.26458333,0,0,0.26458333,11.962871,7.2638708)">
      <title
         id="title974">Down Vertical Mark, DV</title>
      <polygon
         points="8,4 8,35 4,35 4,4 0,0 12,0 "
         style="fill:#ff0000"
         id="polygon976" />
    </g>
    <circle
       style="fill:#008000;fill-rule:evenodd;stroke-width:0.264583"
       id="circle982"
       cx="13.531663"
       cy="7.7722864"
       r="0.79374999">
      <title
         id="title980">Northwest Corner Connector, NWC</title>
    </circle>
    <circle
       style="fill:#008000;fill-rule:evenodd;stroke-width:0.264583"
       id="circle986"
       cx="13.720652"
       cy="16.276751"
       r="0.79374999">
      <title
         id="title984">Southwest Corner Connector, SWC</title>
    </circle>
    <g
       id="g992"
       transform="matrix(0,-0.26458333,0.26458333,0,6.4256708,11.158802)">
      <title
         id="title988">Right Horizontal Mark, RH</title>
      <polygon
         points="0,0 12,0 8,4 8,25 4,25 4,4 "
         style="fill:#ff0000"
         id="polygon990" />
    </g>
    <g
       id="g998"
       transform="matrix(0.02305996,-0.26357651,0.26357651,0.02305996,6.2998963,15.124201)">
      <desc
         id="desc1012">Or a right horizontal mark.</desc>
      <title
         id="title994">Right Down Diagonal Mark, RDD</title>
      <polygon
         points="8,25 4,25 4,4 0,0 12,0 8,4 "
         style="fill:#ff0000"
         id="polygon996" />
    </g>
    <circle
       style="fill:#008000;fill-rule:evenodd;stroke-width:0.264583"
       id="circle1002"
       cx="13.389922"
       cy="9.5902596"
       r="0.79374999">
      <title
         id="title1000">Right 2 Touch Connector, R2T</title>
    </circle>
    <circle
       style="fill:#008000;fill-rule:evenodd;stroke-width:0.264583"
       id="circle1006"
       cx="13.437169"
       cy="14.173221"
       r="0.79374999">
      <desc
         id="desc1008">Not at a right angle; therefore, other 2 touch connector.</desc>
      <title
         id="title1004">Other 2 Touch Connector, O2T</title>
    </circle>
  </g>
</svg>
