<?xml version="1.0" encoding="UTF-8" standalone="no"?>
<svg
   xmlns:dc="http://purl.org/dc/elements/1.1/"
   xmlns:cc="http://creativecommons.org/ns#"
   xmlns:rdf="http://www.w3.org/1999/02/22-rdf-syntax-ns#"
   xmlns:svg="http://www.w3.org/2000/svg"
   xmlns="http://www.w3.org/2000/svg"
   width="160"
   height="80"
   viewBox="0 0 42.333332 21.166667"
   version="1.1"
   id="svg8">
  <defs
     id="defs2" />
  <metadata
     id="metadata5">
    <rdf:RDF>
      <cc:Work
         rdf:about="">
        <dc:format>image/svg+xml</dc:format>
        <dc:type
           rdf:resource="http://purl.org/dc/dcmitype/StillImage" />
        <dc:title></dc:title>
      </cc:Work>
    </rdf:RDF>
  </metadata>
  <g
     id="layer1">
    <g
       id="g857"
       transform="matrix(0,-0.26458333,0.26458333,0,11.010333,6.4728418)">
      <title
         id="title853">Right Horizontal Mark, RH</title>
      <polygon
         points="12,0 8,4 8,40 4,40 4,4 0,0 "
         style="fill:#ff0000"
         id="polygon855" />
    </g>
    <g
       id="g888"
       transform="matrix(0,-0.26458333,0.26458333,0,15.02633,8.7406997)">
      <title
         id="title884">Right Horizontal Mark, RH</title>
      <polygon
         points="8,25 4,25 4,4 0,0 12,0 8,4 "
         style="fill:#ff0000"
         id="polygon886" />
    </g>
    <g
       id="g905"
       transform="matrix(0,-0.26458333,0.26458333,0,15.02633,11.756987)">
      <title
         id="title901">Right Horizontal Mark, RH</title>
      <polygon
         points="4,4 0,0 12,0 8,4 8,25 4,25 "
         style="fill:#ff0000"
         id="polygon903" />
    </g>
    <g
       id="g911"
       transform="matrix(0,-0.26458333,0.26458333,0,15.052751,14.561571)">
      <title
         id="title907">Right Horizontal Mark, RH</title>
      <polygon
         points="4,25 4,4 0,0 12,0 8,4 8,25 "
         style="fill:#ff0000"
         id="polygon909" />
    </g>
    <g
       id="g917"
       transform="matrix(0.04594441,-0.26056371,0.26056371,0.04594441,11.053309,16.245297)">
      <title
         id="title913">Right Down Diagonal Mark, RDD</title>
      <polygon
         points="8,4 8,40 4,40 4,4 0,0 12,0 "
         style="fill:#ff0000"
         id="polygon915" />
    </g>
    <g
       id="g937"
       transform="matrix(0.26458333,0,0,0.26458333,21.593666,4.3561752)">
      <title
         id="title933">Down Vertical Mark, DV</title>
      <polygon
         points="4,4 0,0 12,0 8,4 8,48 4,48 "
         style="fill:#ff0000"
         id="polygon935"
         transform="translate(-3.6995705)" />
    </g>
    <g
       id="g954"
       transform="matrix(0.26458333,0,0,0.26458333,30.483666,4.3561752)">
      <title
         id="title950">Down Vertical Mark, DV</title>
      <polygon
         points="8,4 8,48 4,48 4,4 0,0 12,0 "
         style="fill:#ff0000"
         id="polygon952"
         transform="translate(-3.6995705)" />
    </g>
    <polygon
       points="8,30 4,30 4,4 0,0 12,0 8,4 "
       style="fill:#ff0000"
       id="polygon958"
       transform="matrix(0,-0.26458333,0.26458333,0,22.752125,8.7406997)">
      <title
         id="title1044">Right Horizontal Mark, RH</title>
    </polygon>
    <polygon
       points="8,4 8,30 4,30 4,4 0,0 12,0 "
       style="fill:#ff0000"
       id="polygon962"
       transform="matrix(0,-0.26458333,0.26458333,0,22.752125,14.402821)">
      <title
         id="title1046">Right Horizontal Mark, RH</title>
    </polygon>
    <polygon
       points="6,0 6,12 0,6 "
       style="fill:#ff0000"
       id="polygon978"
       transform="matrix(0.26458333,0,0,0.26458333,25.161686,10.441479)">
      <title
         id="title1058">Heel Mark, HE</title>
    </polygon>
    <polygon
       points="6,0 6,12 0,6 "
       style="fill:#ff0000"
       id="polygon992"
       transform="matrix(0.26458333,0,0,0.26458333,23.776478,6.7373119)">
      <title
         id="title1056">Heel Mark, HE</title>
    </polygon>
    <polygon
       points="6,12 0,6 6,0 "
       style="fill:#ff0000"
       id="polygon994"
       transform="matrix(0.26458333,0,0,0.26458333,25.813882,6.8431453)">
      <title
         id="title1054">Heel Mark, HE</title>
    </polygon>
    <polygon
       points="6,12 0,6 6,0 "
       style="fill:#ff0000"
       id="polygon996"
       transform="matrix(0.26458333,0,0,0.26458333,27.824717,6.8166869)">
      <title
         id="title1052">Heel Mark, HE</title>
    </polygon>
    <g
       id="g1018"
       transform="matrix(0.26458333,0,0,0.26458333,10.031488,4.938145)">
      <title
         id="title1014">Down Vertical Mark, DV</title>
      <polygon
         points="8,40 4,40 4,4 0,0 12,0 8,4 "
         style="fill:#ff0000"
         id="polygon1016" />
    </g>
    <circle
       style="fill:#008000;fill-rule:evenodd;stroke-width:0.264583"
       id="circle1082"
       cx="22.160631"
       cy="5.0270824"
       r="0.79374999">
      <title
         id="title1080">Northeast Corner Connector, NEC</title>
    </circle>
    <circle
       style="fill:#008000;fill-rule:evenodd;stroke-width:0.264583"
       id="circle1088"
       cx="11.719039"
       cy="5.0743289"
       r="0.79374999">
      <title
         id="title1090">Northwest Corner Connector, NWC</title>
    </circle>
    <circle
       style="fill:#008000;fill-rule:evenodd;stroke-width:0.264583"
       id="circle1092"
       cx="11.86078"
       cy="14.75997"
       r="0.79374999">
      <desc
         id="desc1096">Not a right angle; therefore, other 2 touch connector.</desc>
      <title
         id="title1094">Other 2 Touch Connector, O2T</title>
    </circle>
    <circle
       style="fill:#008000;fill-rule:evenodd;stroke-width:0.264583"
       id="circle1102"
       cx="21.971643"
       cy="16.50811"
       r="0.79374999">
      <desc
         id="desc1098">Not a right angle; therefore, other 2 touch connector.</desc>
      <title
         id="title1100">Other 2 Touch Connector, O2T</title>
    </circle>
    <circle
       style="fill:#008000;fill-rule:evenodd;stroke-width:0.264583"
       id="circle1104"
       cx="22.20595"
       cy="12.855007"
       r="0.79374999">
      <title
         id="title1106">3 Touch Connector, 3T</title>
    </circle>
    <circle
       style="fill:#008000;fill-rule:evenodd;stroke-width:0.264583"
       id="circle1114"
       cx="21.580479"
       cy="10.129761"
       r="0.79374999">
      <title
         id="title1112">Right 2 Touch Connector, R2T</title>
    </circle>
    <circle
       style="fill:#008000;fill-rule:evenodd;stroke-width:0.264583"
       id="circle1122"
       cx="30.570604"
       cy="7.1059532"
       r="0.79374999">
      <title
         id="title1120">Right 2 Touch Connector, R2T</title>
    </circle>
    <circle
       style="fill:#008000;fill-rule:evenodd;stroke-width:0.264583"
       id="circle1126"
       cx="30.570604"
       cy="12.681102"
       r="0.79374999">
      <title
         id="title1124">Right 2 Touch Connector, R2T</title>
    </circle>
    <circle
       style="fill:#008000;fill-rule:evenodd;stroke-width:0.264583"
       id="circle1138"
       cx="22.226852"
       cy="7.2004457"
       r="0.79374999">
      <title
         id="title1136">3 Touch Connector, 3T</title>
    </circle>
  </g>
</svg>
