<?xml version="1.0" encoding="UTF-8" standalone="no"?>
<svg
   xmlns:dc="http://purl.org/dc/elements/1.1/"
   xmlns:cc="http://creativecommons.org/ns#"
   xmlns:rdf="http://www.w3.org/1999/02/22-rdf-syntax-ns#"
   xmlns:svg="http://www.w3.org/2000/svg"
   xmlns="http://www.w3.org/2000/svg"
   width="160"
   height="80"
   viewBox="0 0 42.333332 21.166667"
   version="1.1"
   id="svg8">
  <defs
     id="defs2" />
  <metadata
     id="metadata5">
    <rdf:RDF>
      <cc:Work
         rdf:about="">
        <dc:format>image/svg+xml</dc:format>
        <dc:type
           rdf:resource="http://purl.org/dc/dcmitype/StillImage" />
        <dc:title></dc:title>
      </cc:Work>
    </rdf:RDF>
  </metadata>
  <g
     id="layer1">
    <g
       id="g1445"
       transform="matrix(0,-0.26458333,0.26458333,0,12.236979,18.40177)">
      <title
         id="title1441">Right Horizontal Mark, RH</title>
      <polygon
         points="4,4 0,0 12,0 8,4 8,40 4,40 "
         style="fill:#ff0000"
         id="polygon1443" />
    </g>
    <polygon
       points="8,22 8,40 4,40 4,22 0,18 4,18 4,4 0,0 12,0 8,4 8,18 12,18 "
       style="fill:#ff0000"
       id="polygon1638"
       transform="matrix(0,-0.26458333,0.26458333,0,12.236979,13.850937)">
      <title
         id="title1652">Right Horizontal Head-to-Tail Mark, RHHT</title>
    </polygon>
    <polygon
       points="4,18 4,4 0,0 12,0 8,4 8,18 12,18 8,22 8,40 4,40 4,22 0,18 "
       style="fill:#ff0000"
       id="polygon1656"
       transform="matrix(0,-0.26458333,0.26458333,0,12.236979,9.5912023)">
      <title
         id="title1654">Right Horizontal Head-to-Tail Mark, RHHT</title>
    </polygon>
    <g
       id="g1680"
       transform="matrix(0.26458333,0,0,0.26458333,21.761979,6.8129643)">
      <title
         id="title1676">Down Vertical Mark, DV</title>
      <polygon
         points="8,40 4,40 4,4 0,0 12,0 8,4 "
         style="fill:#ff0000"
         id="polygon1678" />
    </g>
    <polygon
       points="4,40 4,22 0,18 4,18 4,4 0,0 12,0 8,4 8,18 12,18 8,22 8,40 "
       style="fill:#ff0000"
       id="polygon1705"
       transform="matrix(0.26458333,0,0,0.26458333,24.936979,6.786506)">
      <title
         id="title1719">Down Vertical Head-to-Tail Mark, DVHT</title>
    </polygon>
    <circle
       style="fill:#008000;fill-rule:evenodd;stroke-width:0.264583"
       id="path839"
       cx="23.304235"
       cy="16.685947"
       r="0.79374999">
      <title
         id="title1745">Southeast Corner Connector, SEC</title>
    </circle>
    <circle
       style="fill:#008000;fill-rule:evenodd;stroke-width:0.264583"
       id="circle1737"
       cx="23.292784"
       cy="7.9659042"
       r="0.79374999">
      <title
         id="title1741">Northeast Corner Connector, NEC</title>
    </circle>
    <circle
       style="fill:#008000;fill-rule:evenodd;stroke-width:0.264583"
       id="circle1739"
       cx="23.103796"
       cy="12.11236"
       r="0.79374999">
      <title
         id="title1743">Right 2 Touch Connector, R2T</title>
    </circle>
  </g>
</svg>
