<?xml version="1.0" encoding="UTF-8" standalone="no"?>
<svg
   xmlns:dc="http://purl.org/dc/elements/1.1/"
   xmlns:cc="http://creativecommons.org/ns#"
   xmlns:rdf="http://www.w3.org/1999/02/22-rdf-syntax-ns#"
   xmlns:svg="http://www.w3.org/2000/svg"
   xmlns="http://www.w3.org/2000/svg"
   width="160"
   height="80"
   viewBox="0 0 42.333332 21.166667"
   version="1.1"
   id="svg8">
  <defs
     id="defs2" />
  <metadata
     id="metadata5">
    <rdf:RDF>
      <cc:Work
         rdf:about="">
        <dc:format>image/svg+xml</dc:format>
        <dc:type
           rdf:resource="http://purl.org/dc/dcmitype/StillImage" />
        <dc:title></dc:title>
      </cc:Work>
    </rdf:RDF>
  </metadata>
  <g
     id="layer1">
    <g
       id="g857"
       transform="matrix(0,-0.26458333,0.26458333,0,9.2604164,6.3594502)">
      <title
         id="title853">Right Horizontal Mark, RH</title>
      <polygon
         points="12,0 8,4 8,40 4,40 4,4 0,0 "
         style="fill:#ff0000"
         id="polygon855" />
    </g>
    <g
       id="g874"
       transform="matrix(0,-0.26458333,0.26458333,0,9.2604164,9.2434832)">
      <title
         id="title870">Right Horizontal Mark, RH</title>
      <polygon
         points="4,4 0,0 12,0 8,4 8,35 4,35 "
         style="fill:#ff0000"
         id="polygon872" />
    </g>
    <g
       id="g880"
       transform="matrix(0,-0.26458333,0.26458333,0,9.2604164,12.206817)">
      <title
         id="title876">Right Horizontal Mark, RH</title>
      <polygon
         points="4,30 4,4 0,0 12,0 8,4 8,30 "
         style="fill:#ff0000"
         id="polygon878" />
    </g>
    <g
       id="g886"
       transform="matrix(0,-0.26458333,0.26458333,0,9.2604164,15.196608)">
      <title
         id="title882">Right Horizontal Mark, RH</title>
      <polygon
         points="8,4 8,25 4,25 4,4 0,0 12,0 "
         style="fill:#ff0000"
         id="polygon884" />
    </g>
    <polygon
       points="6,0 6,12 0,6 "
       style="fill:#ff0000"
       id="polygon900"
       transform="matrix(0.26458333,0,0,0.26458333,19.947694,11.121949)">
      <title
         id="title914">Heel Mark, HE</title>
    </polygon>
    <polygon
       points="0,6 6,0 6,12 "
       style="fill:#ff0000"
       id="polygon918"
       transform="matrix(0.26458333,0,0,0.26458333,20.045891,4.3844104)">
      <title
         id="title916">Heel Mark, HE</title>
    </polygon>
    <polygon
       points="6,12 0,6 6,0 "
       style="fill:#ff0000"
       id="polygon922"
       transform="matrix(0.26458333,0,0,0.26458333,18.176874,7.5766083)">
      <title
         id="title920">Heel Mark, HE</title>
    </polygon>
    <polygon
       points="6,12 0,6 6,0 "
       style="fill:#ff0000"
       id="polygon926"
       transform="matrix(0.26458333,0,0,0.26458333,16.774584,10.989735)">
      <title
         id="title924">Heel Mark, HE</title>
    </polygon>
    <g
       id="g932"
       transform="matrix(0,-0.26458333,0.26458333,0,24.209372,8.3968166)">
      <title
         id="title928">Right Horizontal Mark, RH</title>
      <polygon
         points="4,4 0,0 12,0 8,4 8,40 4,40 "
         style="fill:#ff0000"
         id="polygon930" />
    </g>
    <g
       id="g938"
       transform="matrix(0,-0.26458333,0.26458333,0,24.209372,12.894732)">
      <title
         id="title934">Right Horizontal Mark, RH</title>
      <polygon
         points="12,0 8,4 8,40 4,40 4,4 0,0 "
         style="fill:#ff0000"
         id="polygon936" />
    </g>
    <g
       id="g944"
       transform="matrix(0.26458333,0,0,0.26458333,33.738079,3.7797627)">
      <title
         id="title940">Down Vertical Mark, DV</title>
      <polygon
         points="12,0 8,4 8,40 4,40 4,4 0,0 "
         style="fill:#ff0000"
         id="polygon942" />
    </g>
    <circle
       style="fill:#008000;fill-rule:evenodd;stroke-width:0.264583"
       id="path839"
       cx="35.199032"
       cy="11.244793"
       r="0.79374999">
      <title
         id="title962">Right 2 Touch Connector, R2T</title>
    </circle>
    <circle
       style="fill:#008000;fill-rule:evenodd;stroke-width:0.264583"
       id="circle966"
       cx="35.057293"
       cy="6.7563252"
       r="0.79374999">
      <title
         id="title964">Right 2 Touch Connector, R2T</title>
    </circle>
  </g>
</svg>
