<?xml version="1.0" encoding="UTF-8" standalone="no"?>
<svg
   xmlns:dc="http://purl.org/dc/elements/1.1/"
   xmlns:cc="http://creativecommons.org/ns#"
   xmlns:rdf="http://www.w3.org/1999/02/22-rdf-syntax-ns#"
   xmlns:svg="http://www.w3.org/2000/svg"
   xmlns="http://www.w3.org/2000/svg"
   width="160"
   height="80"
   viewBox="0 0 42.333332 21.166667"
   version="1.1"
   id="svg8">
  <defs
     id="defs2" />
  <metadata
     id="metadata5">
    <rdf:RDF>
      <cc:Work
         rdf:about="">
        <dc:format>image/svg+xml</dc:format>
        <dc:type
           rdf:resource="http://purl.org/dc/dcmitype/StillImage" />
        <dc:title></dc:title>
      </cc:Work>
    </rdf:RDF>
  </metadata>
  <g
     id="layer1">
    <polygon
       points="12,0 8,4 8,18 12,18 8,22 8,40 4,40 4,22 0,18 4,18 4,4 0,0 "
       style="fill:#000000"
       id="polygon862"
       transform="matrix(0.26458333,0,0,0.26458333,11.972396,4.7719493)">
      <title
         id="title841">Down Vertical Head-to-Tail Mark, DVHT</title>
    </polygon>
    <g
       id="g857"
       transform="matrix(-0.18708867,-0.18708867,0.18708867,-0.18708867,14.905376,17.309338)">
      <title
         id="title853">Right Up Diagonal Mark, RUD</title>
      <polygon
         points="0,0 12,0 8,4 8,40 4,40 4,4 "
         style="fill:#000000"
         id="polygon855" />
    </g>
    <g
       id="g894"
       transform="matrix(0.17007089,-0.2026826,0.2026826,0.17007089,14.213948,5.6804281)">
      <title
         id="title890">Right Down Diagonal Mark, RDD</title>
      <polygon
         points="4,28 4,4 0,0 12,0 8,4 8,28 "
         style="fill:#000000"
         id="polygon892"
         transform="translate(0.45947419,-0.38554463)" />
    </g>
    <circle
       style="fill:#000000;fill-rule:evenodd;stroke-width:0.264583"
       id="path839"
       cx="14.079613"
       cy="15.591517"
       r="0.79374999">
      <title
         id="title927">Other 2 Touch Connector, O2T</title>
    </circle>
    <circle
       style="fill:#000000;fill-rule:evenodd;stroke-width:0.264583"
       id="circle923"
       cx="20.788691"
       cy="9.1186752"
       r="0.79374999">
      <title
         id="title925">Right Middle Corner Connector, RMC</title>
    </circle>
    <circle
       style="fill:#000000;fill-rule:evenodd;stroke-width:0.264583"
       id="circle931"
       cx="14.741071"
       cy="4.9136901"
       r="0.79374999">
      <title
         id="title929">Other 2 Touch Connector, O2T</title>
    </circle>
  </g>
</svg>
