<?xml version="1.0" encoding="UTF-8" standalone="no"?>
<svg
   xmlns:dc="http://purl.org/dc/elements/1.1/"
   xmlns:cc="http://creativecommons.org/ns#"
   xmlns:rdf="http://www.w3.org/1999/02/22-rdf-syntax-ns#"
   xmlns:svg="http://www.w3.org/2000/svg"
   xmlns="http://www.w3.org/2000/svg"
   width="160"
   height="80"
   viewBox="0 0 42.333332 21.166667"
   version="1.1"
   id="svg8">
  <defs
     id="defs2" />
  <metadata
     id="metadata5">
    <rdf:RDF>
      <cc:Work
         rdf:about="">
        <dc:format>image/svg+xml</dc:format>
        <dc:type
           rdf:resource="http://purl.org/dc/dcmitype/StillImage" />
        <dc:title></dc:title>
      </cc:Work>
    </rdf:RDF>
  </metadata>
  <g
     id="layer1">
    <g
       id="g848"
       transform="matrix(-0.06847921,-0.25556787,0.25556787,-0.06847921,11.756251,18.377197)">
      <title
         id="title844">Right Up Diagonal Mark, RUD</title>
      <polygon
         points="8,90 4,90 4,4 0,0 12,0 8,4 "
         style="fill:#000000"
         id="polygon846" />
    </g>
    <g
       id="g879"
       transform="matrix(0.06847921,-0.25556787,0.25556787,0.06847921,15.472254,7.3017352)">
      <title
         id="title875">Right Down Diagonal Mark, RDD</title>
      <polygon
         points="4,72 4,4 0,0 12,0 8,4 8,72 "
         style="fill:#000000"
         id="polygon877" />
    </g>
    <g
       id="g857"
       transform="matrix(0.16536457,0,0,0.16536457,12.898438,12.142485)">
      <title
         id="title853">Down Vertical Mark, DV</title>
      <polygon
         points="12,0 8,4 8,40 4,40 4,4 0,0 "
         style="fill:#000000"
         id="polygon855" />
    </g>
    <g
       id="g920"
       transform="matrix(0.16536457,0,0,0.16536457,14.803437,12.142485)">
      <title
         id="title916">Down Vertical Mark, DV</title>
      <polygon
         points="8,40 4,40 4,4 0,0 12,0 8,4 "
         style="fill:#000000"
         id="polygon918" />
    </g>
    <g
       id="g926"
       transform="matrix(0.16536457,0,0,0.16536457,16.734896,12.142485)">
      <title
         id="title922">Down Vertical Mark, DV</title>
      <polygon
         points="8,40 4,40 4,4 0,0 12,0 8,4 "
         style="fill:#000000"
         id="polygon924" />
    </g>
    <circle
       style="fill:#000000;fill-rule:evenodd;stroke-width:0.132291"
       id="path839"
       cx="17.764881"
       cy="15.213542"
       r="0.39687499">
      <title
         id="title946">2 Cross Connector, 2C</title>
    </circle>
    <circle
       style="fill:#000000;fill-rule:evenodd;stroke-width:0.264583"
       id="circle944"
       cx="33.923363"
       cy="10.725075"
       r="0.79374999">
      <title
         id="title956">Right Middle Corner Connector, RMC</title>
    </circle>
    <circle
       style="fill:#000000;fill-rule:evenodd;stroke-width:0.132291"
       id="circle950"
       cx="13.862314"
       cy="16.167894"
       r="0.39687499">
      <title
         id="title948">2 Cross Connector, 2C</title>
    </circle>
    <circle
       style="fill:#000000;fill-rule:evenodd;stroke-width:0.132291"
       id="circle954"
       cx="15.846689"
       cy="15.691644"
       r="0.39687499">
      <title
         id="title952">2 Cross Connector, 2C</title>
    </circle>
  </g>
</svg>
