<?xml version="1.0" encoding="UTF-8" standalone="no"?>
<svg
   xmlns:dc="http://purl.org/dc/elements/1.1/"
   xmlns:cc="http://creativecommons.org/ns#"
   xmlns:rdf="http://www.w3.org/1999/02/22-rdf-syntax-ns#"
   xmlns:svg="http://www.w3.org/2000/svg"
   xmlns="http://www.w3.org/2000/svg"
   width="160"
   height="80"
   viewBox="0 0 42.333332 21.166667"
   version="1.1"
   id="svg8">
  <defs
     id="defs2" />
  <metadata
     id="metadata5">
    <rdf:RDF>
      <cc:Work
         rdf:about="">
        <dc:format>image/svg+xml</dc:format>
        <dc:type
           rdf:resource="http://purl.org/dc/dcmitype/StillImage" />
        <dc:title></dc:title>
      </cc:Work>
    </rdf:RDF>
  </metadata>
  <g
     id="layer1">
    <polygon
       points="6,0 6,12 0,6 "
       style="fill:#000000"
       id="polygon898"
       transform="matrix(0.33072916,0,0,0.33072916,25.324405,3.2505948)">
      <title
         id="title902">Heel Mark, HE</title>
    </polygon>
    <g
       id="g857"
       transform="matrix(0,-0.26458333,0.26458333,0,16.725447,9.3360114)">
      <title
         id="title853">Right Horizontal Mark, RH</title>
      <polygon
         points="8,4 8,40 4,40 4,4 0,0 12,0 "
         style="fill:#000000"
         id="polygon855" />
    </g>
    <g
       id="g956"
       transform="matrix(0,-0.26458333,0.26458333,0,16.725447,12.564004)">
      <title
         id="title952">Right Horizontal Mark, RH</title>
      <polygon
         points="0,0 12,0 8,4 8,40 4,40 4,4 "
         style="fill:#000000"
         id="polygon954" />
    </g>
    <polygon
       points="6,12 0,6 6,0 "
       style="fill:#000000"
       id="polygon960"
       transform="matrix(0.33072916,0,0,0.33072916,25.324405,11.505671)">
      <title
         id="title958">Heel Mark, HE</title>
    </polygon>
  </g>
</svg>
