<?xml version="1.0" encoding="UTF-8" standalone="no"?>
<svg
   xmlns:dc="http://purl.org/dc/elements/1.1/"
   xmlns:cc="http://creativecommons.org/ns#"
   xmlns:rdf="http://www.w3.org/1999/02/22-rdf-syntax-ns#"
   xmlns:svg="http://www.w3.org/2000/svg"
   xmlns="http://www.w3.org/2000/svg"
   width="160"
   height="80"
   viewBox="0 0 42.333332 21.166667"
   version="1.1"
   id="svg8">
  <defs
     id="defs2" />
  <metadata
     id="metadata5">
    <rdf:RDF>
      <cc:Work
         rdf:about="">
        <dc:format>image/svg+xml</dc:format>
        <dc:type
           rdf:resource="http://purl.org/dc/dcmitype/StillImage" />
        <dc:title></dc:title>
      </cc:Work>
    </rdf:RDF>
  </metadata>
  <g
     id="layer1">
    <g
       id="g857"
       transform="matrix(0.26458333,0,0,0.26458333,29.74684,5.2444196)">
      <title
         id="title853">Down Vertical Mark, DV</title>
      <polygon
         points="4,40 4,4 0,0 12,0 8,4 8,40 "
         style="fill:#000000"
         id="polygon855" />
    </g>
    <polygon
       points="4,4 0,0 12,0 8,4 8,70 4,70 "
       style="fill:#000000"
       id="polygon855-5"
       transform="matrix(0,-0.26458333,0.26458333,0,12.469548,7.7843061)">
      <title
         id="title924">Right Horizontal Mark, RH</title>
    </polygon>
    <polygon
       points="4,70 4,4 0,0 12,0 8,4 8,70 "
       style="fill:#000000"
       id="polygon878"
       transform="matrix(0,-0.26458333,0.26458333,0,12.469549,10.668262)">
      <title
         id="title926">Right Horizontal Mark, RH</title>
    </polygon>
    <g
       id="g922"
       transform="matrix(0.2204861,0,0,0.2204861,14.552083,9.52815)">
      <title
         id="title918">Down Vertical Mark, DV</title>
      <polygon
         points="8,27 4,27 4,4 0,0 12,0 8,4 "
         style="fill:#000000"
         id="polygon920" />
    </g>
    <polygon
       points="8,70 4,70 4,4 0,0 12,0 8,4 "
       style="fill:#000000"
       id="polygon968"
       transform="matrix(0,-0.26458333,0.26458333,0,12.469549,13.658056)">
      <title
         id="title966">Right Horizontal Mark, RH</title>
    </polygon>
    <polygon
       points="4,4 0,0 12,0 8,4 8,70 4,70 "
       style="fill:#000000"
       id="polygon972"
       transform="matrix(0,-0.26458333,0.26458333,0,12.469549,16.806598)">
      <title
         id="title970">Right Horizontal Mark, RH</title>
    </polygon>
    <g
       id="g978"
       transform="matrix(0.2204861,0,0,0.2204861,17.250833,9.52815)">
      <title
         id="title974">Down Vertical Mark, DV</title>
      <polygon
         points="8,27 4,27 4,4 0,0 12,0 8,4 "
         style="fill:#000000"
         id="polygon976" />
    </g>
    <g
       id="g984"
       transform="matrix(0.2204861,0,0,0.2204861,19.896666,9.52815)">
      <title
         id="title980">Down Vertical Mark, DV</title>
      <polygon
         points="4,27 4,4 0,0 12,0 8,4 8,27 "
         style="fill:#000000"
         id="polygon982" />
    </g>
    <g
       id="g990"
       transform="matrix(0.26458333,0,0,0.26458333,26.598298,5.2444196)">
      <title
         id="title986">Down Vertical Mark, DV</title>
      <polygon
         points="4,4 0,0 12,0 8,4 8,40 4,40 "
         style="fill:#000000"
         id="polygon988" />
    </g>
    <circle
       style="fill:#000000;fill-rule:evenodd;stroke-width:0.264583"
       id="circle944"
       cx="31.324776"
       cy="6.0476179"
       r="0.79374999">
      <title
         id="title946">Northest Corner Connector, NEC</title>
    </circle>
    <circle
       style="fill:#000000;fill-rule:evenodd;stroke-width:0.264583"
       id="circle948"
       cx="31.230282"
       cy="12.04799"
       r="0.79374999">
      <title
         id="title950">Right 2 Touch Connector, R2T</title>
    </circle>
    <circle
       style="fill:#000000;fill-rule:evenodd;stroke-width:0.264583"
       id="circle994"
       cx="31.230282"
       cy="9.1186743"
       r="0.79374999">
      <title
         id="title992">Right 2 Touch Connector, R2T</title>
    </circle>
    <circle
       style="fill:#000000;fill-rule:evenodd;stroke-width:0.264583"
       id="circle998"
       cx="31.466516"
       cy="15.21354"
       r="0.79374999">
      <title
         id="title996">Southeast Corner Connector, SEC</title>
    </circle>
    <circle
       style="fill:#000000;fill-rule:evenodd;stroke-width:0.264583"
       id="path839-8"
       cx="28.253719"
       cy="12.142486"
       r="0.79374999">
      <title
         id="title1016">2 Cross Connector, 2C</title>
    </circle>
    <circle
       style="fill:#000000;fill-rule:evenodd;stroke-width:0.264583"
       id="circle1020"
       cx="28.159225"
       cy="6.2838545"
       r="0.79374999">
      <title
         id="title1018">2 Cross Connector, 2C</title>
    </circle>
    <circle
       style="fill:#000000;fill-rule:evenodd;stroke-width:0.264583"
       id="circle1024"
       cx="28.206472"
       cy="9.1186762"
       r="0.79374999">
      <title
         id="title1022">2 Cross Connector, 2C</title>
    </circle>
    <circle
       style="fill:#000000;fill-rule:evenodd;stroke-width:0.264583"
       id="circle1028"
       cx="28.253719"
       cy="15.213542"
       r="0.79374999">
      <title
         id="title1026">Bottom 2 Touch Connector, B2T</title>
    </circle>
    <circle
       style="fill:#000000;fill-rule:evenodd;stroke-width:0.132291"
       id="path839"
       cx="21.166668"
       cy="12.047991"
       r="0.39687499">
      <title
         id="title952">2 Cross Connector, 2C</title>
    </circle>
    <circle
       style="fill:#000000;fill-rule:evenodd;stroke-width:0.132291"
       id="circle964"
       cx="18.61533"
       cy="12.095236"
       r="0.39687499">
      <title
         id="title962">2 Cross Connector, 2C</title>
    </circle>
    <circle
       style="fill:#000000;fill-rule:evenodd;stroke-width:0.132291"
       id="circle960"
       cx="15.875001"
       cy="12.04799"
       r="0.39687499">
      <title
         id="title958">2 Cross Connector, 2C</title>
    </circle>
    <circle
       style="fill:#000000;fill-rule:evenodd;stroke-width:0.132291"
       id="circle1032"
       cx="21.261162"
       cy="9.6383924"
       r="0.39687499">
      <title
         id="title1030">Top 2 Touch Connector, T2T</title>
    </circle>
    <circle
       style="fill:#000000;fill-rule:evenodd;stroke-width:0.132291"
       id="circle1036"
       cx="18.615328"
       cy="9.5911455"
       r="0.39687499">
      <title
         id="title1034">Top 2 Touch Connector, T2T</title>
    </circle>
    <circle
       style="fill:#000000;fill-rule:evenodd;stroke-width:0.132291"
       id="circle1040"
       cx="15.875"
       cy="9.5438986"
       r="0.39687499">
      <title
         id="title1038">Top 2 Touch Connector, T2T</title>
    </circle>
    <circle
       style="fill:#000000;fill-rule:evenodd;stroke-width:0.132291"
       id="circle956"
       cx="21.308407"
       cy="15.166293"
       r="0.39687499">
      <title
         id="title954">Bottom 2 Touch Connector, B2T</title>
    </circle>
    <circle
       style="fill:#000000;fill-rule:evenodd;stroke-width:0.132291"
       id="circle1044"
       cx="18.615326"
       cy="15.21354"
       r="0.39687499">
      <title
         id="title1042">Bottom 2 Touch Connector, B2T</title>
    </circle>
    <circle
       style="fill:#000000;fill-rule:evenodd;stroke-width:0.132291"
       id="circle1048"
       cx="15.969493"
       cy="15.21354"
       r="0.39687499">
      <title
         id="title1046">Bottom 2 Touch Connector, B2T</title>
    </circle>
  </g>
</svg>
