<?xml version="1.0" encoding="UTF-8" standalone="no"?>
<svg
   xmlns:dc="http://purl.org/dc/elements/1.1/"
   xmlns:cc="http://creativecommons.org/ns#"
   xmlns:rdf="http://www.w3.org/1999/02/22-rdf-syntax-ns#"
   xmlns:svg="http://www.w3.org/2000/svg"
   xmlns="http://www.w3.org/2000/svg"
   width="160"
   height="80"
   viewBox="0 0 42.333332 21.166667"
   version="1.1"
   id="svg8">
  <defs
     id="defs2" />
  <metadata
     id="metadata5">
    <rdf:RDF>
      <cc:Work
         rdf:about="">
        <dc:format>image/svg+xml</dc:format>
        <dc:type
           rdf:resource="http://purl.org/dc/dcmitype/StillImage" />
        <dc:title></dc:title>
      </cc:Work>
    </rdf:RDF>
  </metadata>
  <g
     id="layer1">
    <polygon
       points="8,18 12,18 8,22 8,40 4,40 4,22 0,18 4,18 4,4 0,0 12,0 8,4 "
       style="fill:#000000"
       id="polygon908"
       transform="matrix(0.26458333,0,0,0.26458333,14.848841,4.6774554)">
      <title
         id="title909">Down Vertical Head-to-Tail Mark, DVHT</title>
    </polygon>
    <g
       id="g890"
       transform="matrix(-0.0684792,-0.25556787,0.25556787,-0.0684792,9.7918944,8.628825)">
      <title
         id="title886">Right Up Diagonal Mark, RUD</title>
      <polygon
         points="12,0 8,4 8,25 4,25 4,4 0,0 "
         style="fill:#000000"
         id="polygon888" />
    </g>
    <g
       id="g907"
       transform="matrix(0.0684792,-0.25556787,0.25556787,0.0684792,9.266502,12.224573)">
      <title
         id="title903">Right Down Diagonal Mark, RDD</title>
      <polygon
         points="8,25 4,25 4,4 0,0 12,0 8,4 "
         style="fill:#000000"
         id="polygon905" />
    </g>
    <circle
       style="fill:#000000;fill-rule:evenodd;stroke-width:0.264583"
       id="circle927"
       cx="16.300222"
       cy="5.5279021"
       r="0.79374999">
      <title
         id="title929">Other 2 Touch Connector, O2T</title>
    </circle>
    <circle
       style="fill:#000000;fill-rule:evenodd;stroke-width:0.264583"
       id="circle933"
       cx="16.394716"
       cy="12.473214"
       r="0.79374999">
      <title
         id="title931">Other 2 Touch Connector, O2T</title>
    </circle>
  </g>
</svg>
