<?xml version="1.0" encoding="UTF-8" standalone="no"?>
<svg
   xmlns:dc="http://purl.org/dc/elements/1.1/"
   xmlns:cc="http://creativecommons.org/ns#"
   xmlns:rdf="http://www.w3.org/1999/02/22-rdf-syntax-ns#"
   xmlns:svg="http://www.w3.org/2000/svg"
   xmlns="http://www.w3.org/2000/svg"
   width="160"
   height="80"
   viewBox="0 0 42.333332 21.166667"
   version="1.1"
   id="svg8">
  <defs
     id="defs2" />
  <metadata
     id="metadata5">
    <rdf:RDF>
      <cc:Work
         rdf:about="">
        <dc:format>image/svg+xml</dc:format>
        <dc:type
           rdf:resource="http://purl.org/dc/dcmitype/StillImage" />
        <dc:title></dc:title>
      </cc:Work>
    </rdf:RDF>
  </metadata>
  <g
     id="layer1">
    <polygon
       points="6,12 0,6 6,0 "
       style="fill:#000000"
       id="polygon923"
       transform="matrix(0.26458333,0,0,0.26458333,9.1715823,11.83999)">
      <title
         id="title921">Heel Mark, HE</title>
    </polygon>
    <polygon
       points="6,12 0,6 6,0 "
       style="fill:#000000"
       id="polygon927"
       transform="matrix(0.26458333,0,0,0.26458333,9.1451243,5.8868659)">
      <title
         id="title925">Heel Mark, HE</title>
    </polygon>
    <g
       id="g857"
       transform="matrix(0.26458333,0,0,0.26458333,10.203571,4.9609378)">
      <title
         id="title853">Down Vertical Mark, DV</title>
      <polygon
         points="0,0 12,0 8,4 8,40 4,40 4,4 "
         style="fill:#000000"
         id="polygon855" />
    </g>
    <g
       id="g922"
       transform="matrix(0,-0.26458333,0.26458333,0,12.305024,12.029093)">
      <title
         id="title918">Right Horizontal Mark, RH</title>
      <polygon
         points="0,0 12,0 8,4 8,25 4,25 4,4 "
         style="fill:#000000"
         id="polygon920" />
    </g>
    <circle
       style="fill:#000000;fill-rule:evenodd;stroke-width:0.264583"
       id="path839"
       cx="12.443025"
       cy="10.488839"
       r="0.79374999">
      <title
         id="title951">Left 2 Touch Connector, L2T</title>
    </circle>
    <g
       id="g904"
       transform="matrix(0.26458333,0,0,0.26458333,20.654698,4.9609378)">
      <title
         id="title900">Down Vertical Mark, DV</title>
      <polygon
         points="12,0 8,4 8,40 4,40 4,4 0,0 "
         style="fill:#000000"
         id="polygon902" />
    </g>
    <polygon
       points="6,0 6,12 0,6 "
       style="fill:#000000"
       id="polygon908"
       transform="matrix(0.26458333,0,0,0.26458333,18.0086,5.8868659)">
      <title
         id="title906">Heel Mark, HE</title>
    </polygon>
    <polygon
       points="6,0 6,12 0,6 "
       style="fill:#000000"
       id="polygon912"
       transform="matrix(0.26458333,0,0,0.26458333,18.114433,11.83999)">
      <title
         id="title910">Heel Mark, HE</title>
    </polygon>
    <polygon
       points="6,12 0,6 6,0 "
       style="fill:#000000"
       id="polygon916"
       transform="matrix(0.26458333,0,0,0.26458333,19.622558,8.8238539)">
      <title
         id="title914">Heel Mark, HE</title>
    </polygon>
  </g>
</svg>
