<?xml version="1.0" encoding="UTF-8" standalone="no"?>
<svg
   xmlns:dc="http://purl.org/dc/elements/1.1/"
   xmlns:cc="http://creativecommons.org/ns#"
   xmlns:rdf="http://www.w3.org/1999/02/22-rdf-syntax-ns#"
   xmlns:svg="http://www.w3.org/2000/svg"
   xmlns="http://www.w3.org/2000/svg"
   width="160"
   height="80"
   viewBox="0 0 42.333332 21.166667"
   version="1.1"
   id="svg8">
  <defs
     id="defs2" />
  <metadata
     id="metadata5">
    <rdf:RDF>
      <cc:Work
         rdf:about="">
        <dc:format>image/svg+xml</dc:format>
        <dc:type
           rdf:resource="http://purl.org/dc/dcmitype/StillImage" />
        <dc:title></dc:title>
      </cc:Work>
    </rdf:RDF>
  </metadata>
  <g
     id="layer1">
    <polygon
       points="12,0 8,4 8,18 12,18 8,22 8,40 4,40 4,22 0,18 4,18 4,4 0,0 "
       style="fill:#000000"
       id="polygon862"
       transform="matrix(0.26458333,0,0,0.26458333,19.768155,5.1026783)">
      <title
         id="title841">Down Vertical Head-to-Tail Mark, DVHT</title>
    </polygon>
    <g
       id="g857"
       transform="matrix(0,-0.26458333,0.26458333,0,10.534121,7.5898375)">
      <title
         id="title853">Right Horizontal Mark, RH</title>
      <polygon
         points="4,4 0,0 12,0 8,4 8,40 4,40 "
         style="fill:#000000"
         id="polygon855" />
    </g>
    <g
       id="g880"
       transform="matrix(0.04594441,-0.26056371,0.26056371,0.04594441,10.233025,14.848864)">
      <title
         id="title876">Right Down Diagonal Mark, RDD</title>
      <polygon
         points="4,40 4,4 0,0 12,0 8,4 8,40 "
         style="fill:#000000"
         id="polygon878" />
    </g>
    <polygon
       points="6,0 6,12 0,6 "
       style="fill:#000000"
       id="polygon894"
       transform="matrix(0.26458333,0,0,0.26458333,12.624328,8.1453864)">
      <title
         id="title938">Heel Mark, HE</title>
    </polygon>
    <polygon
       points="0,6 6,0 6,12 "
       style="fill:#000000"
       id="polygon908"
       transform="matrix(0.26458333,0,0,0.26458333,14.688077,8.1453864)">
      <title
         id="title936">Heel Mark, HE</title>
    </polygon>
    <polygon
       points="0,6 6,0 6,12 "
       style="fill:#000000"
       id="polygon910"
       transform="matrix(0.26458333,0,0,0.26458333,16.672453,8.1453864)">
      <title
         id="title934">Heel Mark, HE</title>
    </polygon>
    <circle
       style="fill:#000000;fill-rule:evenodd;stroke-width:0.264583"
       id="path839"
       cx="21.308407"
       cy="15.213541"
       r="0.79374999">
      <title
         id="title930">Other 2 Touch Connector, O2T</title>
    </circle>
    <circle
       style="fill:#000000;fill-rule:evenodd;stroke-width:0.264583"
       id="circle928"
       cx="21.26116"
       cy="5.9531245"
       r="0.79374999">
      <title
         id="title932">Northeast Corner Connector, NEC</title>
    </circle>
  </g>
</svg>
