<?xml version="1.0" encoding="UTF-8" standalone="no"?>
<svg
   xmlns:dc="http://purl.org/dc/elements/1.1/"
   xmlns:cc="http://creativecommons.org/ns#"
   xmlns:rdf="http://www.w3.org/1999/02/22-rdf-syntax-ns#"
   xmlns:svg="http://www.w3.org/2000/svg"
   xmlns="http://www.w3.org/2000/svg"
   width="160"
   height="80"
   viewBox="0 0 42.333332 21.166667"
   version="1.1"
   id="svg8">
  <defs
     id="defs2" />
  <metadata
     id="metadata5">
    <rdf:RDF>
      <cc:Work
         rdf:about="">
        <dc:format>image/svg+xml</dc:format>
        <dc:type
           rdf:resource="http://purl.org/dc/dcmitype/StillImage" />
        <dc:title></dc:title>
      </cc:Work>
    </rdf:RDF>
  </metadata>
  <g
     id="layer1">
    <g
       id="g896"
       transform="matrix(0,-0.26458333,0.26458333,0,11.206994,14.44625)">
      <title
         id="title892">Right Horizontal Mark, RH</title>
      <polygon
         points="12,0 8,4 8,60 4,60 4,4 0,0 "
         style="fill:#000000"
         id="polygon894"
         transform="translate(0,12.799857)" />
    </g>
    <g
       id="g913"
       transform="matrix(0.26458333,0,0,0.26458333,25.407408,8.0432954)">
      <title
         id="title909">Down Vertical Mark, DV</title>
      <polygon
         points="3" />
    </g>
    <g
       id="g919"
       transform="matrix(0.26458333,0,0,0.26458333,21.147617,6.0589583)">
      <title
         id="title915">Down Vertical Mark, DV</title>
      <polygon
         points="4,40 4,4 0,0 12,0 8,4 8,40 "
         style="fill:#000000"
         id="polygon917" />
    </g>
    <g
       id="g925"
       transform="matrix(0.26458333,0,0,0.26458333,17.469908,6.0589583)">
      <title
         id="title921">Down Vertical Mark, DV</title>
      <polygon
         points="8,4 8,40 4,40 4,4 0,0 12,0 "
         style="fill:#000000"
         id="polygon923" />
    </g>
    <circle
       style="fill:#000000;fill-rule:evenodd;stroke-width:0.264583"
       id="circle967"
       cx="19.000788"
       cy="12.90029"
       r="0.79374999">
      <title
         id="title965">2 Cross Connector, 2C</title>
    </circle>
    <circle
       style="fill:#000000;fill-rule:evenodd;stroke-width:0.264583"
       id="circle971"
       cx="22.784328"
       cy="12.894733"
       r="0.79374999">
      <title
         id="title969">2 Cross Connector, 2C</title>
    </circle>
    <g
       id="g857"
       transform="matrix(0,-0.26458333,0.26458333,0,16.3322,7.0908333)">
      <title
         id="title853">Right Horizontal Mark, RH</title>
      <polygon
         points="8,45 4,45 4,4 0,0 12,0 8,4 "
         style="fill:#000000"
         id="polygon855" />
    </g>
    <g
       id="g1007"
       transform="matrix(0.26458333,0,0,0.26458333,24.74595,6.0589583)">
      <title
         id="title1003">Down Vertical Mark, DV</title>
      <polygon
         points="8,4 8,40 4,40 4,4 0,0 12,0 "
         style="fill:#000000"
         id="polygon1005" />
    </g>
    <circle
       style="fill:#000000;fill-rule:evenodd;stroke-width:0.264583"
       id="path839"
       cx="26.410973"
       cy="12.868275"
       r="0.79374999">
      <title
         id="title963">2 Cross Connector, 2C</title>
    </circle>
    <circle
       style="fill:#000000;fill-rule:evenodd;stroke-width:0.264583"
       id="circle1017"
       cx="26.410973"
       cy="6.1213999"
       r="0.79374999">
      <title
         id="title1015">Top 2 Touch Connector, T2T</title>
    </circle>
    <circle
       style="fill:#000000;fill-rule:evenodd;stroke-width:0.264583"
       id="circle1021"
       cx="22.733265"
       cy="6.1213999"
       r="0.79374999">
      <title
         id="title1019">Top 2 Touch Connector, T2T</title>
    </circle>
    <circle
       style="fill:#000000;fill-rule:evenodd;stroke-width:0.264583"
       id="circle1025"
       cx="19.082014"
       cy="6.1213999"
       r="0.79374999">
      <title
         id="title1023">Top 2 Touch Connector, T2T</title>
    </circle>
  </g>
</svg>
