<?xml version="1.0" encoding="UTF-8" standalone="no"?>
<svg
   xmlns:dc="http://purl.org/dc/elements/1.1/"
   xmlns:cc="http://creativecommons.org/ns#"
   xmlns:rdf="http://www.w3.org/1999/02/22-rdf-syntax-ns#"
   xmlns:svg="http://www.w3.org/2000/svg"
   xmlns="http://www.w3.org/2000/svg"
   width="160"
   height="80"
   viewBox="0 0 42.333332 21.166667"
   version="1.1"
   id="svg8">
  <defs
     id="defs2" />
  <metadata
     id="metadata5">
    <rdf:RDF>
      <cc:Work
         rdf:about="">
        <dc:format>image/svg+xml</dc:format>
        <dc:type
           rdf:resource="http://purl.org/dc/dcmitype/StillImage" />
        <dc:title></dc:title>
      </cc:Work>
    </rdf:RDF>
  </metadata>
  <g
     id="layer1">
    <polygon
       points="4,4 0,0 12,0 8,4 8,35 12,40 0,40 4,35 "
       style="fill:#000000"
       id="polygon866"
       transform="matrix(0,-0.26458333,0.26458333,0,9.3076636,9.4305057)">
      <title
         id="title880">Right Horizontal Barbell Mark, RHBB</title>
    </polygon>
    <polygon
       points="8,4 8,35 12,40 0,40 4,35 4,4 0,0 12,0 "
       style="fill:#000000"
       id="polygon852"
       transform="matrix(0,-0.26458333,0.26458333,0,9.3076636,12.579086)">
      <title
         id="title850">Right Horizontal Barbell Mark, RHBB</title>
    </polygon>
    <polygon
       points="4,40 4,14 0,10 4,10 4,4 0,0 12,0 8,4 8,10 12,10 8,14 8,40 "
       style="fill:#000000"
       id="polygon851"
       transform="matrix(0.14882813,0,0,0.12402344,11.67474,8.2918537)">
      <title
         id="title940">Down Vertical Head-to-Tail Mark, DVHT</title>
    </polygon>
    <polygon
       points="6,12 0,6 6,0 "
       style="fill:#000000"
       id="polygon908"
       transform="matrix(0.26458333,0,0,0.26458333,19.890997,7.8430057)">
      <title
         id="title942">Heel Mark, HE</title>
    </polygon>
    <circle
       style="fill:#000000;fill-rule:evenodd;stroke-width:0.132291"
       id="path839"
       cx="12.614955"
       cy="11.008557"
       r="0.39687499">
      <title
         id="title938">2 Cross Connector, 2C</title>
    </circle>
    <circle
       style="fill:#000000;fill-rule:evenodd;stroke-width:0.132291"
       id="circle946"
       cx="12.614955"
       cy="8.2209826"
       r="0.39687499">
      <title
         id="title944">Top 2 Touch Connector, T2T</title>
    </circle>
  </g>
</svg>
