<?xml version="1.0" encoding="UTF-8" standalone="no"?>
<svg
   xmlns:dc="http://purl.org/dc/elements/1.1/"
   xmlns:cc="http://creativecommons.org/ns#"
   xmlns:rdf="http://www.w3.org/1999/02/22-rdf-syntax-ns#"
   xmlns:svg="http://www.w3.org/2000/svg"
   xmlns="http://www.w3.org/2000/svg"
   width="160"
   height="80"
   viewBox="0 0 42.333332 21.166667"
   version="1.1"
   id="svg8">
  <defs
     id="defs2" />
  <metadata
     id="metadata5">
    <rdf:RDF>
      <cc:Work
         rdf:about="">
        <dc:format>image/svg+xml</dc:format>
        <dc:type
           rdf:resource="http://purl.org/dc/dcmitype/StillImage" />
        <dc:title></dc:title>
      </cc:Work>
    </rdf:RDF>
  </metadata>
  <g
     id="layer1">
    <polygon
       points="0,0 12,0 8,4 8,35 12,40 0,40 4,35 4,4 "
       style="fill:#000000"
       id="polygon866"
       transform="matrix(0,-0.26458333,0.26458333,0,7.4138895,8.0470374)">
      <title
         id="title880">Right Horizontal Barbell Mark, RHBB</title>
    </polygon>
    <polygon
       points="4,35 4,4 0,0 12,0 8,4 8,35 12,40 0,40 "
       style="fill:#000000"
       id="polygon852"
       transform="matrix(0,-0.26458333,0.26458333,0,7.4138895,12.571412)">
      <title
         id="title850">Right Horizontal Barbell Mark, RHBB</title>
    </polygon>
    <g
       id="g857"
       transform="matrix(0,-0.26458333,0.26458333,0,18.261805,7.9941206)">
      <title
         id="title853">Right Horizontal Mark, RH</title>
      <polygon
         points="4,40 4,4 0,0 12,0 8,4 8,40 "
         style="fill:#000000"
         id="polygon855" />
    </g>
    <g
       id="g882"
       transform="matrix(0.09049283,-0.248627,0.248627,0.09049283,18.037975,8.6549855)">
      <title
         id="title878">Right Down Diagonal Mark, RDD</title>
      <polygon
         points="0,0 12,0 8,4 8,40 4,40 4,4 "
         style="fill:#000000"
         id="polygon880" />
    </g>
    <g
       id="g888"
       transform="matrix(0,-0.26458333,0.26458333,0,18.261805,12.518494)">
      <title
         id="title884">Right Horizontal Mark, RH</title>
      <polygon
         points="8,4 8,40 4,40 4,4 0,0 12,0 "
         style="fill:#000000"
         id="polygon886" />
    </g>
    <circle
       style="fill:#000000;fill-rule:evenodd;stroke-width:0.264583"
       id="path839"
       cx="28.253719"
       cy="10.772322"
       r="0.79374999">
      <title
         id="title906">Other 2 Touch Connector, O2T</title>
    </circle>
    <circle
       style="fill:#000000;fill-rule:evenodd;stroke-width:0.264583"
       id="circle910"
       cx="19.229538"
       cy="6.6618304"
       r="0.79374999">
      <title
         id="title908">Other 2 Touch Connector, O2T</title>
    </circle>
  </g>
</svg>
