<?xml version="1.0" encoding="UTF-8" standalone="no"?>
<svg
   xmlns:dc="http://purl.org/dc/elements/1.1/"
   xmlns:cc="http://creativecommons.org/ns#"
   xmlns:rdf="http://www.w3.org/1999/02/22-rdf-syntax-ns#"
   xmlns:svg="http://www.w3.org/2000/svg"
   xmlns="http://www.w3.org/2000/svg"
   width="160"
   height="80"
   viewBox="0 0 42.333332 21.166667"
   version="1.1"
   id="svg8">
  <defs
     id="defs2" />
  <metadata
     id="metadata5">
    <rdf:RDF>
      <cc:Work
         rdf:about="">
        <dc:format>image/svg+xml</dc:format>
        <dc:type
           rdf:resource="http://purl.org/dc/dcmitype/StillImage" />
        <dc:title></dc:title>
      </cc:Work>
    </rdf:RDF>
  </metadata>
  <g
     id="layer1">
    <g
       id="g66"
       transform="matrix(0.26458333,0,0,0.26458333,16.256796,5.9663541)">
      <title
         id="title62">Down Vertical Mark, DV</title>
      <polygon
         points="8,35 4,35 4,4 0,0 12,0 8,4 "
         style="fill:#000000"
         transform="translate(0,0.90000008)" />
    </g>
    <g
       id="g78"
       transform="matrix(0.26458333,0,0,0.26458333,13.108252,5.9663541)">
      <title
         id="title74">Down Vertical Mark, DV</title>
      <polygon
         points="0,0 12,0 8,4 8,35 4,35 4,4 "
         style="fill:#000000"
         transform="translate(0,0.90000008)"
         id="polygon76" />
    </g>
    <g
       id="g84"
       transform="matrix(0.26458333,0,0,0.26458333,9.9861687,5.9663541)">
      <title
         id="title80">Down Vertical Mark, DV</title>
      <polygon
         points="4,4 0,0 12,0 8,4 8,35 4,35 "
         style="fill:#000000"
         transform="translate(0,0.90000008)"
         id="polygon82" />
    </g>
    <g
       id="g120"
       transform="matrix(0.26458333,0,0,0.26458333,6.8905437,5.9663541)">
      <title
         id="title116">Down Vertical Mark, DV</title>
      <polygon
         points="0,0 12,0 8,4 8,35 4,35 4,4 "
         style="fill:#000000"
         transform="translate(0,0.90000008)"
         id="polygon118" />
    </g>
    <polygon
       points="8,75 12,80 0,80 4,75 4,4 0,0 12,0 8,4 "
       style="fill:#000000"
       id="polygon1013"
       transform="matrix(0,-0.26458333,0.26458333,0,2.402152,12.501563)">
      <title
         id="title1088">Right Horizontal Barbell Mark, RHBB</title>
    </polygon>
    <circle
       style="fill:#000000;fill-rule:evenodd;stroke-width:0.264583"
       id="circle124"
       cx="8.485528"
       cy="10.772323"
       r="0.79374999">
      <title
         id="title122">2 Cross Connector, 2C</title>
    </circle>
    <circle
       style="fill:#000000;fill-rule:evenodd;stroke-width:0.264583"
       id="circle106"
       cx="11.528235"
       cy="10.914063"
       r="0.79374999">
      <title
         id="title104">2 Cross Connector, 2C</title>
    </circle>
    <circle
       style="fill:#000000;fill-rule:evenodd;stroke-width:0.264583"
       id="circle110"
       cx="14.740995"
       cy="10.866817"
       r="0.79374999">
      <title
         id="title108">2 Cross Connector, 2C</title>
    </circle>
    <circle
       style="fill:#000000;fill-rule:evenodd;stroke-width:0.264583"
       id="circle114"
       cx="17.881943"
       cy="10.866817"
       r="0.79374999">
      <title
         id="title112">2 Cross Connector, 2C</title>
    </circle>
    <g
       id="g857"
       transform="matrix(0.09049282,-0.24862701,0.24862701,0.09049282,23.278805,8.7667864)">
      <title
         id="title853">Right Down Diagonal Mark, RDD</title>
      <polygon
         points="0,0 12,0 8,4 8,40 4,40 4,4 "
         style="fill:#000000"
         id="polygon855" />
    </g>
    <g
       id="g1055"
       transform="matrix(-0.09049312,-0.24862701,0.24862783,-0.09049282,24.602907,15.941238)">
      <title
         id="title1051">Right Up Diagonal Mark, RUD</title>
      <polygon
         points="12,0 8,4 8,40 4,40 4,4 0,0 "
         style="fill:#000000"
         id="polygon1053" />
    </g>
    <g
       id="g1075"
       transform="matrix(0,-0.26458333,0.26458333,0,26.422295,12.506325)">
      <title
         id="title1071">Right Horizontal Mark, RH</title>
      <polygon
         points="0,0 12,0 8,4 8,25 4,25 4,4 "
         style="fill:#000000"
         id="polygon1073" />
    </g>
    <circle
       style="fill:#000000;fill-rule:evenodd;stroke-width:0.264583"
       id="path839"
       cx="33.496254"
       cy="10.866815"
       r="0.79374999">
      <title
         id="title102">3 Touch Connector, 3T</title>
    </circle>
  </g>
</svg>
