<?xml version="1.0" encoding="UTF-8" standalone="no"?>
<svg
   xmlns:dc="http://purl.org/dc/elements/1.1/"
   xmlns:cc="http://creativecommons.org/ns#"
   xmlns:rdf="http://www.w3.org/1999/02/22-rdf-syntax-ns#"
   xmlns:svg="http://www.w3.org/2000/svg"
   xmlns="http://www.w3.org/2000/svg"
   width="160"
   height="80"
   viewBox="0 0 42.333332 21.166667"
   version="1.1"
   id="svg8">
  <defs
     id="defs2" />
  <metadata
     id="metadata5">
    <rdf:RDF>
      <cc:Work
         rdf:about="">
        <dc:format>image/svg+xml</dc:format>
        <dc:type
           rdf:resource="http://purl.org/dc/dcmitype/StillImage" />
        <dc:title></dc:title>
      </cc:Work>
    </rdf:RDF>
  </metadata>
  <g
     id="layer1">
    <polygon
       points="0,0 12,0 8,4 8,18 12,18 8,22 8,40 4,40 4,22 0,18 4,18 4,4 "
       style="fill:#000000"
       id="polygon851"
       transform="matrix(0.26458333,0,0,0.26458333,25.39055,4.5829613)">
      <title
         id="title962">Down Vertical Head-to-Tail Mark, DVHT</title>
    </polygon>
    <g
       id="g883"
       transform="matrix(0,-0.26458333,0.26458333,0,7.3988836,7.7579613)">
      <title
         id="title879">Right Horizontal Mark, RH</title>
      <polygon
         points="4,55 4,4 0,0 12,0 8,4 8,55 "
         style="fill:#000000"
         id="polygon881"
         transform="translate(0,17.199715)" />
    </g>
    <polygon
       points="0,18 4,18 4,4 0,0 12,0 8,4 8,18 12,18 8,22 8,40 4,40 4,22 "
       style="fill:#000000"
       id="polygon896"
       transform="matrix(0.26458333,0,0,0.26458333,20.680893,4.5829613)">
      <title
         id="title964">Down Vertical Head-to-Tail Mark, DVHT</title>
    </polygon>
    <polygon
       points="12,18 8,22 8,40 4,40 4,22 0,18 4,18 4,4 0,0 12,0 8,4 8,18 "
       style="fill:#000000"
       id="polygon898"
       transform="matrix(0.26458333,0,0,0.26458333,17.6911,4.5829613)">
      <title
         id="title966">Down Vertical Head-to-Tail Mark, DVHT</title>
    </polygon>
    <polygon
       points="4,22 0,18 4,18 4,4 0,0 12,0 8,4 8,18 12,18 8,22 8,40 4,40 "
       style="fill:#000000"
       id="polygon900"
       transform="matrix(0.26458333,0,0,0.26458333,14.516101,4.5829613)">
      <title
         id="title968">Down Vertical Head-to-Tail Mark, DVHT</title>
    </polygon>
    <g
       id="g912"
       transform="matrix(0,-0.26458333,0.26458333,0,7.3988836,14.848679)">
      <title
         id="title908">Right Horizontal Mark, RH</title>
      <polygon
         points="8,4 8,55 4,55 4,4 0,0 12,0 "
         style="fill:#000000"
         id="polygon910"
         transform="translate(0,17.199715)" />
    </g>
    <polygon
       points="6,12 0,6 6,0 "
       style="fill:#000000"
       id="polygon926"
       transform="matrix(0.26458333,0,0,0.26458333,9.411607,11.739827)">
      <title
         id="title940">Heel Mark, HE</title>
    </polygon>
    <polygon
       points="6,0 6,12 0,6 "
       style="fill:#000000"
       id="polygon944"
       transform="matrix(0.26458333,0,0,0.26458333,9.411607,4.6491074)">
      <title
         id="title942">Heel Mark, HE</title>
    </polygon>
    <polygon
       points="6,0 6,12 0,6 "
       style="fill:#000000"
       id="polygon948"
       transform="matrix(0.26458333,0,0,0.26458333,7.2419104,4.6491074)">
      <title
         id="title946">Heel Mark, HE</title>
    </polygon>
    <polygon
       points="6,12 0,6 6,0 "
       style="fill:#000000"
       id="polygon952"
       transform="matrix(0.26458333,0,0,0.26458333,5.151702,4.6491074)">
      <title
         id="title950">Heel Mark, HE</title>
    </polygon>
    <polygon
       points="6,0 6,12 0,6 "
       style="fill:#000000"
       id="polygon956"
       transform="matrix(0.26458333,0,0,0.26458333,7.3742021,11.739827)">
      <title
         id="title954">Heel Mark, HE</title>
    </polygon>
    <polygon
       points="0,6 6,0 6,12 "
       style="fill:#000000"
       id="polygon960"
       transform="matrix(0.26458333,0,0,0.26458333,5.2575354,11.739827)">
      <title
         id="title958">Heel Mark, HE</title>
    </polygon>
    <circle
       style="fill:#000000;fill-rule:evenodd;stroke-width:0.264583"
       id="circle986"
       cx="16.111233"
       cy="13.181919"
       r="0.79374999">
      <title
         id="title988">2 Cross Connector, 2C</title>
    </circle>
    <circle
       style="fill:#000000;fill-rule:evenodd;stroke-width:0.264583"
       id="circle992"
       cx="16.063986"
       cy="6.1893597"
       r="0.79374999">
      <title
         id="title990">2 Cross Connector, 2C</title>
    </circle>
    <circle
       style="fill:#000000;fill-rule:evenodd;stroke-width:0.264583"
       id="circle996"
       cx="19.229536"
       cy="6.0948658"
       r="0.79374999">
      <title
         id="title994">2 Cross Connector, 2C</title>
    </circle>
    <circle
       style="fill:#000000;fill-rule:evenodd;stroke-width:0.264583"
       id="circle1000"
       cx="22.253345"
       cy="6.1893597"
       r="0.79374999">
      <title
         id="title998">2 Cross Connector, 2C</title>
    </circle>
    <circle
       style="fill:#000000;fill-rule:evenodd;stroke-width:0.264583"
       id="circle1004"
       cx="19.182289"
       cy="13.229166"
       r="0.79374999">
      <title
         id="title1002">2 Cross Connector, 2C</title>
    </circle>
    <circle
       style="fill:#000000;fill-rule:evenodd;stroke-width:0.264583"
       id="circle1008"
       cx="22.253345"
       cy="13.276413"
       r="0.79374999">
      <title
         id="title1006">2 Cross Connector, 2C</title>
    </circle>
    <circle
       style="fill:#000000;fill-rule:evenodd;stroke-width:0.264583"
       id="circle1010"
       cx="26.883556"
       cy="6.1421132"
       r="0.79374999">
      <title
         id="title1012">Right 2 Touch Connector, R2T</title>
    </circle>
    <circle
       style="fill:#000000;fill-rule:evenodd;stroke-width:0.264583"
       id="circle1016"
       cx="26.836309"
       cy="13.276414"
       r="0.79374999">
      <title
         id="title1014">Right 2 Touch Connector, R2T</title>
    </circle>
  </g>
</svg>
