<?xml version="1.0" encoding="UTF-8" standalone="no"?>
<svg
   xmlns:dc="http://purl.org/dc/elements/1.1/"
   xmlns:cc="http://creativecommons.org/ns#"
   xmlns:rdf="http://www.w3.org/1999/02/22-rdf-syntax-ns#"
   xmlns:svg="http://www.w3.org/2000/svg"
   xmlns="http://www.w3.org/2000/svg"
   width="160"
   height="80"
   viewBox="0 0 42.333332 21.166667"
   version="1.1"
   id="svg8">
  <defs
     id="defs2" />
  <metadata
     id="metadata5">
    <rdf:RDF>
      <cc:Work
         rdf:about="">
        <dc:format>image/svg+xml</dc:format>
        <dc:type
           rdf:resource="http://purl.org/dc/dcmitype/StillImage" />
        <dc:title></dc:title>
      </cc:Work>
    </rdf:RDF>
  </metadata>
  <g
     id="layer1">
    <polygon
       points="4,35 4,4 0,0 12,0 8,4 8,35 12,40 0,40 "
       style="fill:#000000"
       id="polygon19"
       transform="matrix(0,-0.26458333,0.26458333,0,11.008556,11.887351)">
      <title
         id="title63">Right Horizontal Barbell Mark, RHBB</title>
    </polygon>
    <g
       id="g857"
       transform="matrix(0.26458333,0,0,0.26458333,14.996206,5.3861608)">
      <title
         id="title853">Down Vertical Mark, DV</title>
      <polygon
         points="4,4 0,0 12,0 8,4 8,40 4,40 "
         style="fill:#000000"
         id="polygon855" />
    </g>
    <g
       id="g61"
       transform="matrix(0.26458333,0,0,0.26458333,22.457568,5.3861608)">
      <title
         id="title57">Down Vertical Mark, DV</title>
      <polygon
         points="8,4 8,40 4,40 4,4 0,0 12,0 "
         style="fill:#000000"
         id="polygon59" />
    </g>
    <circle
       style="fill:#000000;fill-rule:evenodd;stroke-width:0.264583"
       id="path839"
       cx="16.536457"
       cy="10.299851"
       r="0.79374999">
      <desc
         id="desc81">2 Cross Connector, 2C</desc>
    </circle>
  </g>
</svg>
