<?xml version="1.0" encoding="UTF-8" standalone="no"?>
<svg
   xmlns:dc="http://purl.org/dc/elements/1.1/"
   xmlns:cc="http://creativecommons.org/ns#"
   xmlns:rdf="http://www.w3.org/1999/02/22-rdf-syntax-ns#"
   xmlns:svg="http://www.w3.org/2000/svg"
   xmlns="http://www.w3.org/2000/svg"
   width="160"
   height="80"
   viewBox="0 0 42.333332 21.166667"
   version="1.1"
   id="svg8">
  <defs
     id="defs2" />
  <metadata
     id="metadata5">
    <rdf:RDF>
      <cc:Work
         rdf:about="">
        <dc:format>image/svg+xml</dc:format>
        <dc:type
           rdf:resource="http://purl.org/dc/dcmitype/StillImage" />
        <dc:title></dc:title>
      </cc:Work>
    </rdf:RDF>
  </metadata>
  <g
     id="layer1">
    <polygon
       points="0,15 4,15 4,4 0,0 12,0 8,4 8,15 12,15 8,19 8,40 4,40 4,19 "
       style="fill:#000000"
       id="polygon842"
       transform="matrix(0,-0.26458333,0.26458333,0,12.000744,16.092336)">
      <title
         id="title971">Right Horizontal Head-to-Tail Mark, RHHT</title>
    </polygon>
    <polygon
       points="8,40 4,40 4,22 0,18 4,18 4,4 0,0 12,0 8,4 8,18 12,18 8,22 "
       style="fill:#000000"
       id="polygon868"
       transform="matrix(0,-0.26458333,0.26458333,0,12.000744,12.917336)">
      <title
         id="title969">Right Horizontal Head-to-Tail Mark, RHHT</title>
    </polygon>
    <g
       id="g900"
       transform="matrix(-0.09049283,-0.248627,0.248627,-0.09049283,23.11486,16.494666)">
      <title
         id="title896">Right Up Diagonal Mark, RUD</title>
      <polygon
         points="8,4 8,25 4,25 4,4 0,0 12,0 "
         style="fill:#000000"
         id="polygon898" />
    </g>
    <g
       id="g917"
       transform="matrix(0.09049283,-0.248627,0.248627,0.09049283,21.976028,12.274632)">
      <title
         id="title913">Right Down Diagonal Mark, RDD</title>
      <polygon
         points="8,25 4,25 4,4 0,0 12,0 8,4 "
         style="fill:#000000"
         id="polygon915" />
    </g>
    <g
       id="g857"
       transform="matrix(0,-0.26458333,0.26458333,0,15.360914,18.615289)">
      <title
         id="title853">Right Horizontal Mark, RH</title>
      <polygon
         points="4,4 0,0 12,0 8,4 8,40 4,40 "
         style="fill:#000000"
         id="polygon855" />
    </g>
    <circle
       style="fill:#000000;fill-rule:evenodd;stroke-width:0.264583"
       id="path839"
       cx="22.962053"
       cy="11.150296"
       r="0.79374999">
      <title
         id="title963">Other 2 Touch Connector, O2T</title>
    </circle>
    <circle
       style="fill:#000000;fill-rule:evenodd;stroke-width:0.264583"
       id="circle959"
       cx="28.348213"
       cy="12.898437"
       r="0.79374999">
      <title
         id="title961">Right Middle Corner Connector, RMC</title>
    </circle>
    <circle
       style="fill:#000000;fill-rule:evenodd;stroke-width:0.264583"
       id="circle967"
       cx="23.151041"
       cy="14.599329"
       r="0.79374999">
      <title
         id="title965">Other 2 Touch Connector, O2T</title>
    </circle>
  </g>
</svg>
