<?xml version="1.0" encoding="UTF-8" standalone="no"?>
<svg
   xmlns:dc="http://purl.org/dc/elements/1.1/"
   xmlns:cc="http://creativecommons.org/ns#"
   xmlns:rdf="http://www.w3.org/1999/02/22-rdf-syntax-ns#"
   xmlns:svg="http://www.w3.org/2000/svg"
   xmlns="http://www.w3.org/2000/svg"
   width="160"
   height="80"
   viewBox="0 0 42.333332 21.166667"
   version="1.1"
   id="svg8">
  <defs
     id="defs2" />
  <metadata
     id="metadata5">
    <rdf:RDF>
      <cc:Work
         rdf:about="">
        <dc:format>image/svg+xml</dc:format>
        <dc:type
           rdf:resource="http://purl.org/dc/dcmitype/StillImage" />
        <dc:title></dc:title>
      </cc:Work>
    </rdf:RDF>
  </metadata>
  <g
     id="layer1">
    <g
       id="g857"
       transform="matrix(0,-0.26458333,0.26458333,0,12.284226,11.651116)">
      <title
         id="title853">Right Horizontal Mark, RH</title>
      <polygon
         points="8,4 8,40 4,40 4,4 0,0 12,0 "
         style="fill:#000000"
         id="polygon855" />
    </g>
    <polygon
       points="6,0 6,12 0,6 "
       style="fill:#000000"
       id="polygon891"
       transform="matrix(0.26458333,0,0,0.26458333,20.618715,6.1214001)">
      <title
         id="title965">Heel Mark, HE</title>
    </polygon>
    <polygon
       points="6,12 0,6 6,0 "
       style="fill:#000000"
       id="polygon893"
       transform="matrix(0.26458333,0,0,0.26458333,21.888714,10.40765)">
      <title
         id="title963">Heel Mark, HE</title>
    </polygon>
    <g
       id="g913"
       transform="matrix(-0.13229166,-0.22913589,0.22913589,-0.13229166,7.6406372,14.737345)">
      <title
         id="title909">Right Up Diagonal, RUD</title>
      <polygon
         points="4,4 0,0 12,0 8,4 8,25 4,25 "
         style="fill:#000000"
         id="polygon911" />
    </g>
    <g
       id="g930"
       transform="matrix(0.13229166,-0.22913589,0.22913589,0.13229166,6.0531375,8.113264)">
      <title
         id="title926">Right Down Diagonal, RDD</title>
      <polygon
         points="0,0 12,0 8,4 8,25 4,25 4,4 "
         style="fill:#000000"
         id="polygon928" />
    </g>
    <g
       id="g950"
       transform="matrix(0.26458333,0,0,0.26458333,5.3821811,6.6675538)">
      <title
         id="title946">Down Vertical Mark, DV</title>
      <polygon
         points="8,25 4,25 4,4 0,0 12,0 8,4 "
         style="fill:#000000"
         id="polygon948" />
    </g>
    <circle
       style="fill:#000000;fill-rule:evenodd;stroke-width:0.264583"
       id="path839"
       cx="7.2287955"
       cy="7.1815476"
       r="0.79374999">
      <title
         id="title987">Other 2 Touch Connector, O2T</title>
    </circle>
    <circle
       style="fill:#000000;fill-rule:evenodd;stroke-width:0.264583"
       id="circle983"
       cx="12.520462"
       cy="10.110864"
       r="0.79374999">
      <title
         id="title985">3 Touch Connector, 3T</title>
    </circle>
    <circle
       style="fill:#000000;fill-rule:evenodd;stroke-width:0.264583"
       id="circle991"
       cx="7.3232894"
       cy="12.992931"
       r="0.79374999">
      <title
         id="title989">Other 2 Touch Connector, O2T</title>
    </circle>
  </g>
</svg>
