<?xml version="1.0" encoding="UTF-8" standalone="no"?>
<svg
   xmlns:dc="http://purl.org/dc/elements/1.1/"
   xmlns:cc="http://creativecommons.org/ns#"
   xmlns:rdf="http://www.w3.org/1999/02/22-rdf-syntax-ns#"
   xmlns:svg="http://www.w3.org/2000/svg"
   xmlns="http://www.w3.org/2000/svg"
   width="160"
   height="80"
   viewBox="0 0 42.333332 21.166667"
   version="1.1"
   id="svg8">
  <defs
     id="defs2" />
  <metadata
     id="metadata5">
    <rdf:RDF>
      <cc:Work
         rdf:about="">
        <dc:format>image/svg+xml</dc:format>
        <dc:type
           rdf:resource="http://purl.org/dc/dcmitype/StillImage" />
        <dc:title></dc:title>
      </cc:Work>
    </rdf:RDF>
  </metadata>
  <g
     id="layer1">
    <polygon
       points="8,4 8,35 12,40 0,40 4,35 4,4 0,0 12,0 "
       style="fill:#000000"
       id="polygon866"
       transform="matrix(0,-0.26458333,0.26458333,0,12.473214,8.8162954)">
      <title
         id="title880">Right Horizontal Barbell Mark, RHBB</title>
    </polygon>
    <polygon
       points="0,18 4,18 4,4 0,0 12,0 8,4 8,18 12,18 8,22 8,45 4,45 4,22 "
       style="fill:#000000"
       id="polygon862"
       transform="matrix(0,-0.26458333,0.26458333,0,12.614956,13.285785)">
      <title
         id="title861">Right Horizontal Head-to-Tail Mark, RHHT</title>
    </polygon>
    <g
       id="g890"
       transform="matrix(0.26458333,0,0,0.26458333,23.056547,5.6412954)">
      <title
         id="title886">Down Vertical Mark, DV</title>
      <polygon
         points="8,25 4,25 4,4 0,0 12,0 8,4 "
         style="fill:#000000"
         id="polygon888" />
    </g>
    <circle
       style="fill:#000000;fill-rule:evenodd;stroke-width:0.264583"
       id="path839"
       cx="24.6157"
       cy="11.670014"
       r="0.79374999">
      <title
         id="title919">Southeast Corner Connector, SEC</title>
    </circle>
  </g>
</svg>
