<?xml version="1.0" encoding="UTF-8" standalone="no"?>
<svg
   xmlns:dc="http://purl.org/dc/elements/1.1/"
   xmlns:cc="http://creativecommons.org/ns#"
   xmlns:rdf="http://www.w3.org/1999/02/22-rdf-syntax-ns#"
   xmlns:svg="http://www.w3.org/2000/svg"
   xmlns="http://www.w3.org/2000/svg"
   width="160"
   height="80"
   viewBox="0 0 42.333332 21.166667"
   version="1.1"
   id="svg8">
  <defs
     id="defs2" />
  <metadata
     id="metadata5">
    <rdf:RDF>
      <cc:Work
         rdf:about="">
        <dc:format>image/svg+xml</dc:format>
        <dc:type
           rdf:resource="http://purl.org/dc/dcmitype/StillImage" />
        <dc:title></dc:title>
      </cc:Work>
    </rdf:RDF>
  </metadata>
  <g
     id="layer1">
    <g
       id="g874"
       transform="matrix(0.26458333,0,0,0.26458333,19.09739,6.3010521)">
      <title
         id="title870">Down Vertical Mark, DV</title>
      <polygon
         points="8,4 8,25 4,25 4,4 0,0 12,0 "
         style="fill:#000000"
         id="polygon872" />
    </g>
    <g
       id="g891"
       transform="matrix(0.26458333,0,0,0.26458333,22.325277,6.3275104)">
      <title
         id="title887">Down Vertical Mark, DV</title>
      <polygon
         points="4,25 4,4 0,0 12,0 8,4 8,25 "
         style="fill:#000000"
         id="polygon889" />
    </g>
    <g
       id="g897"
       transform="matrix(0.26458333,0,0,0.26458333,25.60611,6.3010521)">
      <title
         id="title893">Down Vertical Mark, DV</title>
      <polygon
         points="12,0 8,4 8,25 4,25 4,4 0,0 "
         style="fill:#000000"
         id="polygon895" />
    </g>
    <polygon
       points="0,6 6,0 6,12 "
       style="fill:#000000"
       id="polygon911"
       transform="matrix(0.6394223,0.6394223,-0.6394223,0.6394223,23.978469,9.0928598)">
      <title
         id="title931">Heel Mark, HE</title>
    </polygon>
    <g
       id="g929"
       transform="matrix(0,-0.26458333,0.26458333,0,13.567569,14.10626)">
      <title
         id="title925">Right Horizontal Mark, RH</title>
      <polygon
         points="12,0 8,4 8,25 4,25 4,4 0,0 "
         style="fill:#000000"
         id="polygon927" />
    </g>
    <circle
       style="fill:#000000;fill-rule:evenodd;stroke-width:0.264583"
       id="path839"
       cx="20.505209"
       cy="12.520461"
       r="0.79374999">
      <title
         id="title949">Southeast Corner Connector, SEC</title>
    </circle>
  </g>
</svg>
