<?xml version="1.0" encoding="UTF-8" standalone="no"?>
<svg
   xmlns:dc="http://purl.org/dc/elements/1.1/"
   xmlns:cc="http://creativecommons.org/ns#"
   xmlns:rdf="http://www.w3.org/1999/02/22-rdf-syntax-ns#"
   xmlns:svg="http://www.w3.org/2000/svg"
   xmlns="http://www.w3.org/2000/svg"
   width="160"
   height="80"
   viewBox="0 0 42.333332 21.166667"
   version="1.1"
   id="svg8">
  <defs
     id="defs2" />
  <metadata
     id="metadata5">
    <rdf:RDF>
      <cc:Work
         rdf:about="">
        <dc:format>image/svg+xml</dc:format>
        <dc:type
           rdf:resource="http://purl.org/dc/dcmitype/StillImage" />
        <dc:title></dc:title>
      </cc:Work>
    </rdf:RDF>
  </metadata>
  <g
     id="layer1">
    <polygon
       points="6,0 6,12 0,6 "
       style="fill:#000000"
       id="polygon842"
       transform="matrix(0.26458333,0,0,0.26458333,27.885193,10.932961)">
      <title
         id="title856">Heel Mark, HE</title>
    </polygon>
    <polygon
       points="6,12 0,6 6,0 "
       style="fill:#000000"
       id="polygon860"
       transform="matrix(0.26458333,0,0,0.26458333,29.472693,9.345461)">
      <title
         id="title858">Heel Mark, HE</title>
    </polygon>
    <polygon
       points="0,6 6,0 6,12 "
       style="fill:#000000"
       id="polygon864"
       transform="matrix(0.26458333,0,0,0.26458333,31.060193,7.757961)">
      <title
         id="title862">Heel Mark, HE</title>
    </polygon>
    <polygon
       points="6,0 6,12 0,6 "
       style="fill:#000000"
       id="polygon868"
       transform="matrix(0.26458333,0,0,0.26458333,31.060193,10.932961)">
      <title
         id="title866">Heel Mark, HE</title>
    </polygon>
    <g
       id="g857"
       transform="matrix(0,-0.13229167,0.13229167,0,22.487731,13.922642)">
      <title
         id="title853">Right Horizontal Mark, RH</title>
      <polygon
         points="4,48 4,4 0,0 12,0 8,4 8,48 "
         style="fill:#000000"
         id="polygon855" />
    </g>
    <g
       id="g898"
       transform="matrix(0,-0.13229167,0.13229167,0,22.470798,12.393877)">
      <title
         id="title894">Right Horizontal Mark, RH</title>
      <polygon
         points="0,0 12,0 8,4 8,50 4,50 4,4 "
         style="fill:#000000"
         id="polygon896" />
    </g>
    <g
       id="g904"
       transform="matrix(0,-0.13229166,0.13229167,0,22.444337,10.806377)">
      <title
         id="title900">Right Horizontal Mark, RH</title>
      <polygon
         points="0,0 12,0 8,4 8,63 4,63 4,4 "
         style="fill:#000000"
         id="polygon902" />
    </g>
    <g
       id="g910"
       transform="matrix(0,-0.13229166,0.13229167,0,22.391423,9.1659603)">
      <title
         id="title906">Right Horizontal Mark, RH</title>
      <polygon
         points="4,74 4,4 0,0 12,0 8,4 8,74 "
         style="fill:#000000"
         id="polygon908" />
    </g>
    <polygon
       points="0,6 6,0 6,12 "
       style="fill:#000000"
       id="polygon914"
       transform="matrix(0.26458333,0,0,0.26458333,20.106483,9.345461)">
      <title
         id="title912">Heel Mark, HE</title>
    </polygon>
    <polygon
       points="6,0 6,12 0,6 "
       style="fill:#000000"
       id="polygon918"
       transform="matrix(0.26458333,0,0,0.26458333,18.201483,9.345461)">
      <title
         id="title916">Heel Mark, HE</title>
    </polygon>
    <polygon
       points="6,12 0,6 6,0 "
       style="fill:#000000"
       id="polygon922"
       transform="matrix(0.26458333,0,0,0.26458333,16.296483,9.345461)">
      <title
         id="title920">Heel Mark, HE</title>
    </polygon>
  </g>
</svg>
