<?xml version="1.0" encoding="UTF-8" standalone="no"?>
<svg
   xmlns:dc="http://purl.org/dc/elements/1.1/"
   xmlns:cc="http://creativecommons.org/ns#"
   xmlns:rdf="http://www.w3.org/1999/02/22-rdf-syntax-ns#"
   xmlns:svg="http://www.w3.org/2000/svg"
   xmlns="http://www.w3.org/2000/svg"
   width="160"
   height="80"
   viewBox="0 0 42.333332 21.166667"
   version="1.1"
   id="svg8">
  <defs
     id="defs2" />
  <metadata
     id="metadata5">
    <rdf:RDF>
      <cc:Work
         rdf:about="">
        <dc:format>image/svg+xml</dc:format>
        <dc:type
           rdf:resource="http://purl.org/dc/dcmitype/StillImage" />
        <dc:title></dc:title>
      </cc:Work>
    </rdf:RDF>
  </metadata>
  <g
     id="layer1">
    <polygon
       points="4,4 0,0 12,0 8,4 8,60 4,60 "
       style="fill:#000000"
       id="polygon855"
       transform="matrix(0,-0.26458333,0.26458333,0,15.166294,7.9186009)">
      <title
         id="title944">Right Horizontal Mark, RH</title>
    </polygon>
    <polygon
       points="4,4 0,0 12,0 8,4 8,60 4,60 "
       style="fill:#000000"
       id="polygon854"
       transform="matrix(0,-0.26458333,0.26458333,0,15.166294,17.390798)">
      <title
         id="title946">Right Horizontal Mark, RH</title>
    </polygon>
    <polygon
       points="12,18 8,22 8,40 4,40 4,22 0,18 4,18 4,4 0,0 12,0 8,4 8,18 "
       style="fill:#000000"
       id="polygon862"
       transform="matrix(0,-0.26458333,0.26458333,0,20.741443,12.615069)">
      <title
         id="title867">Right Horizontal Head-to-Tail Mark, RHHT</title>
    </polygon>
    <polygon
       points="0,6 6,0 6,12 "
       style="fill:#000000"
       id="polygon890"
       transform="matrix(0.26458333,0,0,0.26458333,18.322395,7.568973)">
      <title
         id="title904">Heel Mark, HE</title>
    </polygon>
    <polygon
       points="6,12 0,6 6,0 "
       style="fill:#000000"
       id="polygon908"
       transform="matrix(0.26458333,0,0,0.26458333,18.322395,11.511226)">
      <title
         id="title906">Heel Mark, HE</title>
    </polygon>
    <polygon
       points="6,0 6,12 0,6 "
       style="fill:#000000"
       id="polygon912"
       transform="matrix(0.26458333,0,0,0.26458333,15.782395,11.511226)">
      <title
         id="title910">Heel Mark, HE</title>
    </polygon>
    <polygon
       points="6,0 6,12 0,6 "
       style="fill:#000000"
       id="polygon916"
       transform="matrix(0.26458333,0,0,0.26458333,15.782395,7.542477)">
      <title
         id="title914">Heel Mark, HE</title>
    </polygon>
    <polygon
       points="8,35 12,40 0,40 4,35 4,4 0,0 12,0 8,4 "
       style="fill:#000000"
       id="polygon866"
       transform="matrix(0,-0.26458333,0.26458333,0,4.2124312,9.6385062)">
      <title
         id="title880">Right Horizontal Barbell Mark, RHBB</title>
    </polygon>
    <polygon
       points="8,35 12,40 0,40 4,35 4,4 0,0 12,0 8,4 "
       style="fill:#000000"
       id="polygon940"
       transform="matrix(0,-0.26458333,0.26458333,0,4.2124312,15.776838)">
      <title
         id="title938">Right Horizontal Barbell Mark, RHBB</title>
    </polygon>
  </g>
</svg>
