<?xml version="1.0" encoding="UTF-8" standalone="no"?>
<svg
   xmlns:dc="http://purl.org/dc/elements/1.1/"
   xmlns:cc="http://creativecommons.org/ns#"
   xmlns:rdf="http://www.w3.org/1999/02/22-rdf-syntax-ns#"
   xmlns:svg="http://www.w3.org/2000/svg"
   xmlns="http://www.w3.org/2000/svg"
   width="160"
   height="80"
   viewBox="0 0 42.333332 21.166667"
   version="1.1"
   id="svg8">
  <defs
     id="defs2" />
  <metadata
     id="metadata5">
    <rdf:RDF>
      <cc:Work
         rdf:about="">
        <dc:format>image/svg+xml</dc:format>
        <dc:type
           rdf:resource="http://purl.org/dc/dcmitype/StillImage" />
        <dc:title></dc:title>
      </cc:Work>
    </rdf:RDF>
  </metadata>
  <g
     id="layer1">
    <polygon
       points="8,4 8,18 12,18 8,22 8,40 4,40 4,22 0,18 4,18 4,4 0,0 12,0 "
       style="fill:#000000"
       id="polygon862"
       transform="matrix(0.26458333,0,0,0.26458333,19.390179,4.3467259)">
      <title
         id="title841">Down Vertical Head-to-Tail Mark, DVHT</title>
    </polygon>
    <polygon
       points="4,18 4,4 0,0 12,0 8,4 8,18 12,18 8,22 8,40 4,40 4,22 0,18 "
       style="fill:#000000"
       id="polygon854"
       transform="matrix(0.26458333,0,0,0.26458333,23.570671,4.3467259)">
      <title
         id="title852">Down Vertical Head-to-Tail Mark, DVHT</title>
    </polygon>
    <g
       id="g857"
       transform="matrix(0,-0.26458333,0.26458333,0,9.8651791,6.7545479)">
      <title
         id="title853">Right Horizontal Mark, RH</title>
      <polygon
         points="12,0 8,4 8,40 4,40 4,4 0,0 "
         style="fill:#000000"
         id="polygon855" />
    </g>
    <g
       id="g893"
       transform="matrix(0,-0.26458333,0.26458333,0,9.8651791,13.55434)">
      <title
         id="title889">Right Horizontal Mark, RH</title>
      <polygon
         points="8,40 4,40 4,4 0,0 12,0 8,4 "
         style="fill:#000000"
         id="polygon891" />
    </g>
    <g
       id="g923"
       transform="matrix(0.18708867,-0.18708867,0.18708867,0.18708867,21.06847,10.590816)">
      <title
         id="title919">Right Down Diagonal Mark, RDD</title>
      <polygon
         points="12,0 8,4 8,25 4,25 4,4 0,0 "
         style="fill:#000000"
         id="polygon921" />
    </g>
    <circle
       style="fill:#000000;fill-rule:evenodd;stroke-width:0.264583"
       id="path839"
       cx="25.182665"
       cy="12.331472"
       r="0.79374999">
      <title
         id="title976">2 Cross Connector, 2C</title>
    </circle>
    <circle
       style="fill:#000000;fill-rule:evenodd;stroke-width:0.264583"
       id="circle956"
       cx="20.936214"
       cy="11.915775"
       r="0.79374999">
      <title
         id="title958">Right 2 Touch Connector, R2T</title>
    </circle>
    <circle
       style="fill:#000000;fill-rule:evenodd;stroke-width:0.264583"
       id="circle968"
       cx="20.97768"
       cy="5.1499248"
       r="0.79374999">
      <title
         id="title970">Northeast Corner Connector, NEC</title>
    </circle>
    <circle
       style="fill:#000000;fill-rule:evenodd;stroke-width:0.264583"
       id="circle972"
       cx="21.686386"
       cy="9.8652544"
       r="0.79374999">
      <title
         id="title974">Other 2 Touch Connector, O2T</title>
    </circle>
    <g
       id="g982"
       transform="matrix(0,-0.26458333,0.26458333,0,9.8651791,10.061839)">
      <title
         id="title978">Right Horizontal Mark, RH</title>
      <polygon
         points="0,0 12,0 8,4 8,40 4,40 4,4 "
         style="fill:#000000"
         id="polygon980" />
    </g>
    <circle
       style="fill:#000000;fill-rule:evenodd;stroke-width:0.264583"
       id="circle986"
       cx="20.936214"
       cy="8.3703585"
       r="0.79374999">
      <title
         id="title984">Right 2 Touch Connector, R2T</title>
    </circle>
  </g>
</svg>
