<?xml version="1.0" encoding="UTF-8" standalone="no"?>
<svg
   xmlns:dc="http://purl.org/dc/elements/1.1/"
   xmlns:cc="http://creativecommons.org/ns#"
   xmlns:rdf="http://www.w3.org/1999/02/22-rdf-syntax-ns#"
   xmlns:svg="http://www.w3.org/2000/svg"
   xmlns="http://www.w3.org/2000/svg"
   width="160"
   height="80"
   viewBox="0 0 42.333332 21.166667"
   version="1.1"
   id="svg8">
  <defs
     id="defs2" />
  <metadata
     id="metadata5">
    <rdf:RDF>
      <cc:Work
         rdf:about="">
        <dc:format>image/svg+xml</dc:format>
        <dc:type
           rdf:resource="http://purl.org/dc/dcmitype/StillImage" />
        <dc:title></dc:title>
      </cc:Work>
    </rdf:RDF>
  </metadata>
  <g
     id="layer1">
    <g
       id="g857"
       transform="matrix(0.26458333,0,0,0.26458333,9.421057,4.6774554)">
      <title
         id="title853">Down Vertical Mark, DV</title>
      <polygon
         points="4,4 0,0 12,0 8,4 8,40 4,40 "
         style="fill:#000000"
         id="polygon855" />
    </g>
    <g
       id="g49"
       transform="matrix(0,-0.26458333,0.26458333,0,6.8508182,11.414881)">
      <title
         id="title45">Right Horizontal Mark, RH</title>
      <polygon
         points="4,25 4,4 0,0 12,0 8,4 8,25 "
         style="fill:#000000"
         id="polygon47" />
    </g>
    <polygon
       points="6,0 6,12 0,6 "
       style="fill:#000000"
       id="polygon74"
       transform="matrix(0.26458333,0,0,0.26458333,17.107162,4.6491071)">
      <title
         id="title88">Heel Mark, HE</title>
    </polygon>
    <polygon
       points="6,12 0,6 6,0 "
       style="fill:#000000"
       id="polygon92"
       transform="matrix(0.26458333,0,0,0.26458333,10.426436,14.281944)">
      <title
         id="title90">Heel Mark, HE</title>
    </polygon>
    <polygon
       points="6,12 0,6 6,0 "
       style="fill:#000000"
       id="polygon96"
       transform="matrix(0.26458333,0,0,0.26458333,14.230803,4.6963541)">
      <title
         id="title94">Heel Mark, HE</title>
    </polygon>
    <polygon
       points="6,0 6,12 0,6 "
       style="fill:#000000"
       id="polygon100"
       transform="matrix(0.26458333,0,0,0.26458333,14.230803,8.6915624)">
      <title
         id="title98">Heel Mark, HE</title>
    </polygon>
    <polygon
       points="0,6 6,0 6,12 "
       style="fill:#000000"
       id="polygon104"
       transform="matrix(0.26458333,0,0,0.26458333,14.230803,12.792604)">
      <title
         id="title102">Heel Mark, HE</title>
    </polygon>
    <polygon
       points="6,0 6,12 0,6 "
       style="fill:#000000"
       id="polygon108"
       transform="matrix(0.26458333,0,0,0.26458333,17.107162,8.5912853)">
      <title
         id="title106">Heel Mark, HE</title>
    </polygon>
    <polygon
       points="6,0 6,12 0,6 "
       style="fill:#000000"
       id="polygon112"
       transform="matrix(0.26458333,0,0,0.26458333,17.107162,12.771702)">
      <title
         id="title110">Heel Mark, HE</title>
    </polygon>
    <circle
       style="fill:#000000;fill-rule:evenodd;stroke-width:0.264583"
       id="path839"
       cx="11.008557"
       cy="9.7801342"
       r="0.79374999">
      <title
         id="title130">2 Cross Connector, 2C</title>
    </circle>
  </g>
</svg>
