<?xml version="1.0" encoding="UTF-8" standalone="no"?>
<svg
   xmlns:dc="http://purl.org/dc/elements/1.1/"
   xmlns:cc="http://creativecommons.org/ns#"
   xmlns:rdf="http://www.w3.org/1999/02/22-rdf-syntax-ns#"
   xmlns:svg="http://www.w3.org/2000/svg"
   xmlns="http://www.w3.org/2000/svg"
   width="160"
   height="80"
   viewBox="0 0 42.333332 21.166667"
   version="1.1"
   id="svg8">
  <defs
     id="defs2" />
  <metadata
     id="metadata5">
    <rdf:RDF>
      <cc:Work
         rdf:about="">
        <dc:format>image/svg+xml</dc:format>
        <dc:type
           rdf:resource="http://purl.org/dc/dcmitype/StillImage" />
        <dc:title></dc:title>
      </cc:Work>
    </rdf:RDF>
  </metadata>
  <g
     id="layer1">
    <g
       id="g857"
       transform="matrix(0.26458333,0,0,0.26458333,29.465058,5.3861604)">
      <title
         id="title853">Down Vertical Mark, DV</title>
      <polygon
         points="8,4 8,40 4,40 4,4 0,0 12,0 "
         style="fill:#000000"
         id="polygon855" />
    </g>
    <g
       id="g878"
       transform="matrix(0.26458333,0,0,0.26458333,26.131308,5.3861604)">
      <title
         id="title874">Down Vertical Mark, DV</title>
      <polygon
         points="0,0 12,0 8,4 8,40 4,40 4,4 "
         style="fill:#000000"
         id="polygon876" />
    </g>
    <g
       id="g885"
       transform="matrix(0.26458333,0,0,0.26458333,33.539643,5.3861604)">
      <title
         id="title881">Down Vertical Mark, DV</title>
      <polygon
         points="12,0 8,4 8,40 4,40 4,4 0,0 "
         style="fill:#000000"
         id="polygon883" />
    </g>
    <g
       id="g922"
       transform="matrix(0.26458333,0,0,0.26458333,15.997767,5.3861604)">
      <title
         id="title918">Down Vertical Mark, DV</title>
      <polygon
         points="4,40 4,4 0,0 12,0 8,4 8,40 "
         style="fill:#000000"
         id="polygon920" />
    </g>
    <polygon
       points="6,0 6,12 0,6 "
       style="fill:#000000"
       id="polygon936"
       transform="matrix(0.26458333,0,0,0.26458333,14.901595,8.901339)">
      <title
         id="title950">Heel Mark, HE</title>
    </polygon>
    <polygon
       points="6,12 0,6 6,0 "
       style="fill:#000000"
       id="polygon980"
       transform="matrix(0.26458333,0,0,0.26458333,32.258264,8.901339)">
      <title
         id="title978">Heel Mark, HE</title>
    </polygon>
    <polygon
       points="12,0 8,4 8,25 12,30 0,30 4,25 4,4 0,0 "
       style="fill:#000000"
       id="polygon866-5"
       transform="matrix(0,-0.26458333,0.26458333,0,18.658679,12.076339)">
      <title
         id="title880-2">Right Horizontal Barbell Mark, RHBB</title>
    </polygon>
  </g>
</svg>
