<?xml version="1.0" encoding="UTF-8" standalone="no"?>
<svg
   xmlns:dc="http://purl.org/dc/elements/1.1/"
   xmlns:cc="http://creativecommons.org/ns#"
   xmlns:rdf="http://www.w3.org/1999/02/22-rdf-syntax-ns#"
   xmlns:svg="http://www.w3.org/2000/svg"
   xmlns="http://www.w3.org/2000/svg"
   width="160"
   height="80"
   viewBox="0 0 42.333332 21.166667"
   version="1.1"
   id="svg8">
  <defs
     id="defs2" />
  <metadata
     id="metadata5">
    <rdf:RDF>
      <cc:Work
         rdf:about="">
        <dc:format>image/svg+xml</dc:format>
        <dc:type
           rdf:resource="http://purl.org/dc/dcmitype/StillImage" />
        <dc:title></dc:title>
      </cc:Work>
    </rdf:RDF>
  </metadata>
  <g
     id="layer1">
    <g
       id="g857"
       transform="matrix(0.18708867,0.18708867,-0.18708867,0.18708867,17.467959,2.7748835)">
      <title
         id="title853">Left Down Diagonal Mark, LDD</title>
      <polygon
         points="12,0 8,4 8,35 4,35 4,4 0,0 "
         style="fill:#000000"
         id="polygon855" />
    </g>
    <g
       id="g904"
       transform="matrix(0.18708867,-0.18708867,0.18708867,0.18708867,10.919856,12.142611)">
      <title
         id="title900">Right Down Diagonal Mark, RDD</title>
      <polygon
         points="8,35 4,35 4,4 0,0 12,0 8,4 "
         style="fill:#000000"
         id="polygon902"
         transform="translate(3.5355286,-3.5355286)" />
    </g>
    <g
       id="g910"
       transform="matrix(0.18708867,-0.18708867,0.18708867,0.18708867,17.190385,4.5226137)">
      <title
         id="title906">Right Down Diagonal Mark, RDD</title>
      <polygon
         points="0,0 12,0 8,4 8,35 4,35 4,4 "
         style="fill:#000000"
         id="polygon908" />
    </g>
    <g
       id="g916"
       transform="matrix(0.18708867,0.18708867,-0.18708867,0.18708867,23.267708,8.5746323)">
      <title
         id="title912">Left Down Diagonal Mark, LDD</title>
      <polygon
         points="4,4 0,0 12,0 8,4 8,35 4,35 "
         style="fill:#000000"
         id="polygon914" />
    </g>
    <circle
       style="fill:#000000;fill-rule:evenodd;stroke-width:0.264583"
       id="path839"
       cx="18.382748"
       cy="15.70867"
       r="0.79374999">
      <title
         id="title1016">Bottom Middle Corner Connector, BMC</title>
    </circle>
    <circle
       style="fill:#000000;fill-rule:evenodd;stroke-width:0.264583"
       id="circle1006"
       cx="18.760723"
       cy="3.9914079"
       r="0.79374999">
      <title
         id="title1008">Top Middle Corner Connector, TMC</title>
    </circle>
    <circle
       style="fill:#000000;fill-rule:evenodd;stroke-width:0.264583"
       id="circle1010"
       cx="12.902095"
       cy="9.8500395"
       r="0.79374999">
      <title
         id="title1018">Left Middle Corner Connector, LMC</title>
    </circle>
    <circle
       style="fill:#000000;fill-rule:evenodd;stroke-width:0.264583"
       id="circle1012"
       cx="24.507824"
       cy="9.6138048"
       r="0.79374999">
      <title
         id="title1014">Right Middle Corner Connector, RMC</title>
    </circle>
    <g
       id="g956"
       transform="matrix(0.18708867,-0.18708867,0.18708867,0.18708867,14.78847,8.474338)">
      <title
         id="title952">Right Down Diagonal Mark, RDD</title>
      <polygon
         points="4,4 0,0 12,0 8,4 8,30 4,30 "
         style="fill:#000000"
         id="polygon954" />
    </g>
    <g
       id="g962"
       transform="matrix(0.18708867,0.18708867,-0.18708867,0.18708867,20.077998,5.9457918)">
      <title
         id="title958">Left Down Diagonal Mark, LDD</title>
      <polygon
         points="4,4 0,0 12,0 8,4 8,30 4,30 "
         style="fill:#000000"
         id="polygon960" />
    </g>
    <circle
       style="fill:#000000;fill-rule:evenodd;stroke-width:0.264583"
       id="circle966"
       cx="18.429995"
       cy="9.8027925"
       r="0.79374999">
      <title
         id="title964">2 Cross Connector, 2C</title>
    </circle>
    <circle
       style="fill:#000000;fill-rule:evenodd;stroke-width:0.264583"
       id="circle970"
       cx="15.389149"
       cy="12.732108"
       r="0.79374999">
      <title
         id="title968">Other 2 Touch Connector, O2T</title>
    </circle>
    <circle
       style="fill:#000000;fill-rule:evenodd;stroke-width:0.264583"
       id="circle974"
       cx="15.908866"
       cy="7.2514534"
       r="0.79374999">
      <title
         id="title972">Other 2 Touch Connector, O2T</title>
    </circle>
    <circle
       style="fill:#000000;fill-rule:evenodd;stroke-width:0.264583"
       id="circle978"
       cx="21.200533"
       cy="7.0152183"
       r="0.79374999">
      <title
         id="title976">Other 2 Touch Connector, O2T</title>
    </circle>
    <circle
       style="fill:#000000;fill-rule:evenodd;stroke-width:0.264583"
       id="circle982"
       cx="21.24778"
       cy="12.448626"
       r="0.79374999">
      <title
         id="title980">Other 2 Touch Connector, O2T</title>
    </circle>
  </g>
</svg>
