<?xml version="1.0" encoding="UTF-8" standalone="no"?>
<svg
   xmlns:dc="http://purl.org/dc/elements/1.1/"
   xmlns:cc="http://creativecommons.org/ns#"
   xmlns:rdf="http://www.w3.org/1999/02/22-rdf-syntax-ns#"
   xmlns:svg="http://www.w3.org/2000/svg"
   xmlns="http://www.w3.org/2000/svg"
   width="160"
   height="80"
   viewBox="0 0 42.333332 21.166667"
   version="1.1"
   id="svg8">
  <defs
     id="defs2" />
  <metadata
     id="metadata5">
    <rdf:RDF>
      <cc:Work
         rdf:about="">
        <dc:format>image/svg+xml</dc:format>
        <dc:type
           rdf:resource="http://purl.org/dc/dcmitype/StillImage" />
        <dc:title></dc:title>
      </cc:Work>
    </rdf:RDF>
  </metadata>
  <g
     id="layer1">
    <g
       id="g857"
       transform="matrix(0.26458333,0,0,0.26458333,7.1135118,4.2994799)">
      <title
         id="title853">Down Vertical Mark, DV</title>
      <polygon
         points="8,40 4,40 4,4 0,0 12,0 8,4 "
         style="fill:#000000"
         id="polygon855" />
    </g>
    <polygon
       points="6,0 6,12 0,6 "
       style="fill:#000000"
       id="polygon896"
       transform="matrix(0.26458333,0,0,0.26458333,10.288512,2.7119799)">
      <title
         id="title892">Heel Mark, HE</title>
    </polygon>
    <polygon
       points="0,6 6,0 6,12 "
       style="fill:#000000"
       id="polygon910"
       transform="matrix(0.26458333,0,0,0.26458333,8.1718448,13.295312)">
      <title
         id="title894">Heel Mark, HE</title>
    </polygon>
    <polygon
       points="6,0 6,12 0,6 "
       style="fill:#000000"
       id="polygon902"
       transform="matrix(0.26458333,0,0,0.26458333,15.816414,5.9342264)">
      <title
         id="title900">Heel Mark, HE</title>
    </polygon>
    <polygon
       points="6,0 6,12 0,6 "
       style="fill:#000000"
       id="polygon906"
       transform="matrix(0.26458333,0,0,0.26458333,15.774723,10.15811)">
      <title
         id="title904">Heel Mark, HE</title>
    </polygon>
    <polygon
       points="8,4 8,35 12,40 0,40 4,35 4,4 0,0 12,0 "
       style="fill:#000000"
       id="polygon956"
       transform="matrix(0,-0.26458333,0.26458333,0,9.107337,11.216443)">
      <title
         id="title970">Right Horizontal Barbell Mark, RHBB</title>
    </polygon>
    <circle
       style="fill:#000000;fill-rule:evenodd;stroke-width:0.264583"
       id="path839"
       cx="9.3624697"
       cy="9.5911455"
       r="0.79374999">
      <title
         id="title903">Left 2 Touch Connector, L2T</title>
    </circle>
  </g>
</svg>
