<?xml version="1.0" encoding="UTF-8" standalone="no"?>
<svg
   xmlns:dc="http://purl.org/dc/elements/1.1/"
   xmlns:cc="http://creativecommons.org/ns#"
   xmlns:rdf="http://www.w3.org/1999/02/22-rdf-syntax-ns#"
   xmlns:svg="http://www.w3.org/2000/svg"
   xmlns="http://www.w3.org/2000/svg"
   width="160"
   height="80"
   viewBox="0 0 42.333332 21.166667"
   version="1.1"
   id="svg8">
  <defs
     id="defs2" />
  <metadata
     id="metadata5">
    <rdf:RDF>
      <cc:Work
         rdf:about="">
        <dc:format>image/svg+xml</dc:format>
        <dc:type
           rdf:resource="http://purl.org/dc/dcmitype/StillImage" />
        <dc:title></dc:title>
      </cc:Work>
    </rdf:RDF>
  </metadata>
  <g
     id="layer1">
    <polygon
       points="4,4 0,0 12,0 8,4 8,28 12,28 8,32 8,60 4,60 4,32 0,28 4,28 "
       style="fill:#000000"
       id="polygon851"
       transform="matrix(0,-0.26458333,0.26458333,0,14.393333,8.474339)">
      <title
         id="title968">Right Horizontal Head-to-Tail, RHHT</title>
    </polygon>
    <polygon
       points="0,35 4,35 4,4 0,0 12,0 8,4 8,35 12,35 8,39 8,74 4,74 4,39 "
       style="fill:#000000"
       id="polygon877"
       transform="matrix(0,-0.26458333,0.26458333,0,10.621131,15.194643)">
      <title
         id="title972">Right Horizontal Head-to-Tail, RHHT</title>
    </polygon>
    <g
       id="g857"
       transform="matrix(0.26458333,0,0,0.26458333,29.115544,3.5530896)">
      <title
         id="title853">Down Vertical Mark, DV</title>
      <polygon
         points="4,4 0,0 12,0 8,4 8,40 4,40 "
         style="fill:#000000"
         id="polygon855" />
    </g>
    <g
       id="g921"
       transform="matrix(0.26458333,0,0,0.26458333,19.749294,3.5530896)">
      <title
         id="title917">Down Vertical Mark, DV</title>
      <polygon
         points="12,0 8,4 8,40 4,40 4,4 0,0 "
         style="fill:#000000"
         id="polygon919" />
    </g>
    <g
       id="g927"
       transform="matrix(0.26458333,0,0,0.26458333,9.615752,3.5530896)">
      <title
         id="title923">Down Vertical Mark, DV</title>
      <polygon
         points="4,40 4,4 0,0 12,0 8,4 8,40 "
         style="fill:#000000"
         id="polygon925" />
    </g>
    <polygon
       points="4,28 4,4 0,0 12,0 8,4 8,28 12,28 8,32 8,60 4,60 4,32 0,28 "
       style="fill:#000000"
       id="polygon929"
       transform="matrix(0,-0.26458333,0.26458333,0,14.393333,11.913921)">
      <title
         id="title970">Right Horizontal Head-to-Tail, RHHT</title>
    </polygon>
    <g
       id="g949"
       transform="matrix(0,-0.26458333,0.26458333,0,31.16236,10.233706)">
      <title
         id="title945">Right Horizontal Mark, RH</title>
      <polygon
         points="0,0 12,0 8,4 8,25 4,25 4,4 "
         style="fill:#000000"
         id="polygon947" />
    </g>
    <g
       id="g966"
       transform="matrix(0,-0.26458333,0.26458333,0,4.0745833,10.247048)">
      <title
         id="title962">Right Horizontal Mark, RH</title>
      <polygon
         points="0,0 12,0 8,4 8,25 4,25 4,4 "
         style="fill:#000000"
         id="polygon964" />
    </g>
    <circle
       style="fill:#000000;fill-rule:evenodd;stroke-width:0.264583"
       id="path839"
       cx="30.621817"
       cy="13.565452"
       r="0.79374999">
      <title
         id="title1022">Southeast Corner Connector, SEC</title>
    </circle>
    <circle
       style="fill:#000000;fill-rule:evenodd;stroke-width:0.264583"
       id="circle990"
       cx="30.568825"
       cy="6.8035707"
       r="0.79374999">
      <title
         id="title992">Right 2 Touch Connector, R2T</title>
    </circle>
    <circle
       style="fill:#000000;fill-rule:evenodd;stroke-width:0.264583"
       id="circle996"
       cx="30.616072"
       cy="10.347097"
       r="0.79374999">
      <title
         id="title994">Right 2 Touch Connector, R2T</title>
    </circle>
    <circle
       style="fill:#000000;fill-rule:evenodd;stroke-width:0.264583"
       id="circle1000"
       cx="11.103051"
       cy="8.5989571"
       r="0.79374999">
      <title
         id="title998">Right 2 Touch Connector, R2T</title>
    </circle>
    <circle
       style="fill:#000000;fill-rule:evenodd;stroke-width:0.264583"
       id="circle1002"
       cx="21.213915"
       cy="10.252604"
       r="0.79374999">
      <title
         id="title1004">2 Cross Connector, 2C</title>
    </circle>
    <circle
       style="fill:#000000;fill-rule:evenodd;stroke-width:0.264583"
       id="circle1008"
       cx="21.213915"
       cy="6.8980656"
       r="0.79374999">
      <title
         id="title1006">2 Cross Connector, 2C</title>
    </circle>
    <circle
       style="fill:#000000;fill-rule:evenodd;stroke-width:0.264583"
       id="circle1010"
       cx="21.355656"
       cy="13.465401"
       r="0.79374999">
      <title
         id="title1012">Bottom 2 Touch Connector, B2T</title>
    </circle>
    <circle
       style="fill:#000000;fill-rule:evenodd;stroke-width:0.264583"
       id="circle1014"
       cx="31.277529"
       cy="8.5517101"
       r="0.79374999">
      <title
         id="title1016">Left 2 Touch Connector, L2T</title>
    </circle>
    <circle
       style="fill:#000000;fill-rule:evenodd;stroke-width:0.264583"
       id="circle1018"
       cx="11.481028"
       cy="13.465402"
       r="0.79374999">
      <title
         id="title1020">Southwest Corner Connector, SWC</title>
    </circle>
  </g>
</svg>
