<?xml version="1.0" encoding="UTF-8" standalone="no"?>
<svg
   xmlns:dc="http://purl.org/dc/elements/1.1/"
   xmlns:cc="http://creativecommons.org/ns#"
   xmlns:rdf="http://www.w3.org/1999/02/22-rdf-syntax-ns#"
   xmlns:svg="http://www.w3.org/2000/svg"
   xmlns="http://www.w3.org/2000/svg"
   width="160"
   height="80"
   viewBox="0 0 42.333332 21.166667"
   version="1.1"
   id="svg8">
  <defs
     id="defs2" />
  <metadata
     id="metadata5">
    <rdf:RDF>
      <cc:Work
         rdf:about="">
        <dc:format>image/svg+xml</dc:format>
        <dc:type
           rdf:resource="http://purl.org/dc/dcmitype/StillImage" />
        <dc:title></dc:title>
      </cc:Work>
    </rdf:RDF>
  </metadata>
  <g
     id="layer1">
    <polygon
       points="6,12 0,6 6,0 "
       style="fill:#000000"
       id="polygon842"
       transform="matrix(0.396875,0,0,0.396875,26.779613,10.091964)">
      <title
         id="title900">Heel Mark, HE</title>
    </polygon>
    <polygon
       points="6,0 6,12 0,6 "
       style="fill:#000000"
       id="polygon856"
       transform="matrix(0.396875,0,0,0.396875,29.160863,7.0228354)">
      <title
         id="title902">Heel Mark, HE</title>
    </polygon>
    <polygon
       points="0,6 6,0 6,12 "
       style="fill:#000000"
       id="polygon858"
       transform="matrix(0.396875,0,0,0.396875,31.542113,4.2711689)">
      <title
         id="title904">Heel Mark, HE</title>
    </polygon>
    <polygon
       points="0,6 6,0 6,12 "
       style="fill:#000000"
       id="polygon860"
       transform="matrix(0.396875,0,0,0.396875,31.594954,10.039085)">
      <title
         id="title898">Heel Mark, HE</title>
    </polygon>
    <g
       id="g857"
       transform="matrix(0,-0.26458333,0.26458333,0,20.95878,8.1605437)">
      <title
         id="title853">Right Horizontal Mark, RH</title>
      <polygon
         points="4,4 0,0 12,0 8,4 8,45 4,45 "
         style="fill:#000000"
         id="polygon855" />
    </g>
    <g
       id="g890"
       transform="matrix(0,-0.26458333,0.26458333,0,20.95878,10.938669)">
      <title
         id="title886">Right Horizontal Mark, RH</title>
      <polygon
         points="4,40 4,4 0,0 12,0 8,4 8,40 "
         style="fill:#000000"
         id="polygon888" />
    </g>
    <g
       id="g896"
       transform="matrix(0,-0.26458333,0.26458333,0,20.95878,14.007835)">
      <title
         id="title892">Right Horizontal Mark, RH</title>
      <polygon
         points="8,30 4,30 4,4 0,0 12,0 8,4 "
         style="fill:#000000"
         id="polygon894" />
    </g>
  </g>
</svg>
