<?xml version="1.0" encoding="UTF-8" standalone="no"?>
<svg
   xmlns:dc="http://purl.org/dc/elements/1.1/"
   xmlns:cc="http://creativecommons.org/ns#"
   xmlns:rdf="http://www.w3.org/1999/02/22-rdf-syntax-ns#"
   xmlns:svg="http://www.w3.org/2000/svg"
   xmlns="http://www.w3.org/2000/svg"
   width="160"
   height="80"
   viewBox="0 0 42.333332 21.166667"
   version="1.1"
   id="svg8">
  <defs
     id="defs2" />
  <metadata
     id="metadata5">
    <rdf:RDF>
      <cc:Work
         rdf:about="">
        <dc:format>image/svg+xml</dc:format>
        <dc:type
           rdf:resource="http://purl.org/dc/dcmitype/StillImage" />
        <dc:title></dc:title>
      </cc:Work>
    </rdf:RDF>
  </metadata>
  <g
     id="layer1">
    <polygon
       points="12,0 8,4 8,18 12,18 8,22 8,40 4,40 4,22 0,18 4,18 4,4 0,0 "
       style="fill:#000000"
       id="polygon862"
       transform="matrix(0.26458333,0,0,0.26458333,19.768155,5.1026783)">
      <title
         id="title841">Down Vertical Head-to-Tail Mark, DVHT</title>
    </polygon>
    <g
       id="g857"
       transform="matrix(0,-0.26458333,0.26458333,0,10.534121,7.5898375)">
      <title
         id="title853">Right Horizontal Mark, RH</title>
      <polygon
         points="4,4 0,0 12,0 8,4 8,40 4,40 "
         style="fill:#000000"
         id="polygon855" />
    </g>
    <g
       id="g880"
       transform="matrix(0.04594441,-0.26056371,0.26056371,0.04594441,10.233025,14.848864)">
      <title
         id="title876">Right Down Diagonal Mark, RDD</title>
      <polygon
         points="4,40 4,4 0,0 12,0 8,4 8,40 "
         style="fill:#000000"
         id="polygon878" />
    </g>
    <circle
       style="fill:#000000;fill-rule:evenodd;stroke-width:0.264583"
       id="path839"
       cx="21.308407"
       cy="15.213541"
       r="0.79374999">
      <title
         id="title930">Other 2 Touch Connector, O2T</title>
    </circle>
    <circle
       style="fill:#000000;fill-rule:evenodd;stroke-width:0.264583"
       id="circle928"
       cx="21.26116"
       cy="5.9531245"
       r="0.79374999">
      <title
         id="title932">Northeast Corner Connector, NEC</title>
    </circle>
    <polygon
       points="0,0 12,0 8,4 8,25 4,25 4,4 "
       style="fill:#000000"
       id="polygon855-4"
       transform="matrix(0,-0.16536457,0.33072915,0,12.690475,8.6045144)">
      <title
         id="title1085">Right Horizontal Mark, RH</title>
    </polygon>
    <polygon
       points="12,0 8,4 8,25 4,25 4,4 0,0 "
       style="fill:#000000"
       id="polygon1052"
       transform="matrix(0,-0.16536457,0.33072915,0,12.690475,10.747639)">
      <title
         id="title1087">Right Horizontal Mark, RH</title>
    </polygon>
    <polygon
       points="12,0 8,4 8,25 4,25 4,4 0,0 "
       style="fill:#000000"
       id="polygon1054"
       transform="matrix(0,-0.16536457,0.33072915,0,12.690475,13.023056)">
      <title
         id="title1089">Right Horizontal Mark, RH</title>
    </polygon>
    <circle
       style="fill:#000000;fill-rule:evenodd;stroke-width:0.176388"
       id="path839-2"
       cx="21.402901"
       cy="7.6067715"
       r="0.52916664">
      <title
         id="title1075">Right 2 Touch Connector, R2T</title>
    </circle>
    <circle
       style="fill:#000000;fill-rule:evenodd;stroke-width:0.176388"
       id="circle1079"
       cx="21.402901"
       cy="9.749898"
       r="0.52916664">
      <title
         id="title1077">Right 2 Touch Connector, R2T</title>
    </circle>
    <circle
       style="fill:#000000;fill-rule:evenodd;stroke-width:0.176388"
       id="circle1083"
       cx="21.402901"
       cy="11.998854"
       r="0.52916664">
      <title
         id="title1081">Right 2 Touch Connector, R2T</title>
    </circle>
  </g>
</svg>
