<?xml version="1.0" encoding="UTF-8" standalone="no"?>
<svg
   xmlns:dc="http://purl.org/dc/elements/1.1/"
   xmlns:cc="http://creativecommons.org/ns#"
   xmlns:rdf="http://www.w3.org/1999/02/22-rdf-syntax-ns#"
   xmlns:svg="http://www.w3.org/2000/svg"
   xmlns="http://www.w3.org/2000/svg"
   width="160"
   height="80"
   viewBox="0 0 42.333332 21.166667"
   version="1.1"
   id="svg8">
  <defs
     id="defs2" />
  <metadata
     id="metadata5">
    <rdf:RDF>
      <cc:Work
         rdf:about="">
        <dc:format>image/svg+xml</dc:format>
        <dc:type
           rdf:resource="http://purl.org/dc/dcmitype/StillImage" />
        <dc:title></dc:title>
      </cc:Work>
    </rdf:RDF>
  </metadata>
  <g
     id="layer1">
    <g
       id="g857"
       transform="matrix(0.26458333,0,0,0.26458333,25.910267,6.331101)">
      <title
         id="title853">Down Vertical Mark, DV</title>
    </g>
    <g
       id="g872"
       transform="matrix(0,-0.26458333,0.26458333,0,10.696726,17.179018)">
      <title
         id="title868">Right Up Diagonal Mark, RUD</title>
      <polygon
         points="0,0 12,0 8,4 8,80 4,80 4,4 "
         style="fill:#000000"
         id="polygon870"
         transform="rotate(-20,28.368085,34.546154)" />
    </g>
    <polygon
       points="4,30 4,4 0,0 12,0 8,4 8,30 "
       style="fill:#000000"
       id="polygon855"
       transform="matrix(0.09049283,-0.248627,0.248627,0.09049283,25.059216,10.011916)">
      <title
         id="title939">Right Down Diagonal Mark, RDD</title>
    </polygon>
    <polygon
       points="8,4 8,30 4,30 4,4 0,0 12,0 "
       style="fill:#000000"
       id="polygon909"
       transform="matrix(0.09049283,-0.248627,0.248627,0.09049283,18.476645,12.275955)">
      <title
         id="title941">Right Down Diagonal Mark, RDD</title>
    </polygon>
    <polygon
       points="6,12 0,6 6,0 "
       style="fill:#000000"
       id="polygon925"
       transform="matrix(0.26458333,0,0,0.26458333,21.648586,7.1531995)">
      <title
         id="title943">Heel Mark, HE</title>
    </polygon>
    <circle
       style="fill:#000000;fill-rule:evenodd;stroke-width:0.264583"
       id="path839"
       cx="25.891369"
       cy="13.607143"
       r="0.79374999">
      <title
         id="title965">Other 2 Touch Connector, O2T</title>
    </circle>
    <circle
       style="fill:#000000;fill-rule:evenodd;stroke-width:0.264583"
       id="circle961"
       cx="32.619415"
       cy="11.212777"
       r="0.79374999">
      <title
         id="title963">Right Middle Corner Connector, RMC</title>
    </circle>
  </g>
</svg>
