<?xml version="1.0" encoding="UTF-8" standalone="no"?>
<svg
   xmlns:dc="http://purl.org/dc/elements/1.1/"
   xmlns:cc="http://creativecommons.org/ns#"
   xmlns:rdf="http://www.w3.org/1999/02/22-rdf-syntax-ns#"
   xmlns:svg="http://www.w3.org/2000/svg"
   xmlns="http://www.w3.org/2000/svg"
   width="160"
   height="80"
   viewBox="0 0 42.333332 21.166667"
   version="1.1"
   id="svg8">
  <defs
     id="defs2" />
  <metadata
     id="metadata5">
    <rdf:RDF>
      <cc:Work
         rdf:about="">
        <dc:format>image/svg+xml</dc:format>
        <dc:type
           rdf:resource="http://purl.org/dc/dcmitype/StillImage" />
        <dc:title></dc:title>
      </cc:Work>
    </rdf:RDF>
  </metadata>
  <g
     id="layer1">
    <polygon
       points="8,60 4,60 4,32 0,28 4,28 4,4 0,0 12,0 8,4 8,28 12,28 8,32 "
       style="fill:#000000"
       id="polygon842"
       transform="matrix(0,-0.26458333,0.26458333,0,15.260789,14.958407)">
      <title
         id="title955">Right Horizontal Head-to-Tail Mark, RHHT</title>
    </polygon>
    <polygon
       points="4,4 0,0 12,0 8,4 8,30 12,35 0,35 4,30 "
       style="fill:#000000"
       id="polygon866"
       transform="matrix(0,-0.26458333,0.26458333,0,15.260789,9.9314006)">
      <title
         id="title880">Right Horizontal Barbell Mark, RHBB</title>
    </polygon>
    <g
       id="g857"
       transform="matrix(0,-0.26458333,0.26458333,0,24.891734,9.9314006)">
      <title
         id="title853">Right Horizontal Mark, RH</title>
      <polygon
         points="12,0 8,4 8,20 4,20 4,4 0,0 "
         style="fill:#000000"
         id="polygon855"
         transform="translate(0,2.2000046)" />
    </g>
    <g
       id="g942"
       transform="matrix(0.26458333,0,0,0.26458333,29.680694,7.2591083)">
      <title
         id="title938">Down Vertical Mark, DV</title>
      <polygon
         points="12,0 8,4 8,30 4,30 4,4 0,0 "
         style="fill:#000000"
         id="polygon940" />
    </g>
    <circle
       style="fill:#000000;fill-rule:evenodd;stroke-width:0.264583"
       id="path839"
       cx="31.183035"
       cy="13.418156"
       r="0.79374999">
      <title
         id="title977">Right 2 Touch Connector, R2T</title>
    </circle>
    <circle
       style="fill:#000000;fill-rule:evenodd;stroke-width:0.264583"
       id="circle973"
       cx="31.230282"
       cy="8.2209835"
       r="0.79374999">
      <title
         id="title975">Northeast Corner Connector, NEC</title>
    </circle>
  </g>
</svg>
