<?xml version="1.0" encoding="UTF-8" standalone="no"?>
<svg
   xmlns:dc="http://purl.org/dc/elements/1.1/"
   xmlns:cc="http://creativecommons.org/ns#"
   xmlns:rdf="http://www.w3.org/1999/02/22-rdf-syntax-ns#"
   xmlns:svg="http://www.w3.org/2000/svg"
   xmlns="http://www.w3.org/2000/svg"
   width="160"
   height="80"
   viewBox="0 0 42.333332 21.166667"
   version="1.1"
   id="svg8">
  <defs
     id="defs2" />
  <metadata
     id="metadata5">
    <rdf:RDF>
      <cc:Work
         rdf:about="">
        <dc:format>image/svg+xml</dc:format>
        <dc:type
           rdf:resource="http://purl.org/dc/dcmitype/StillImage" />
        <dc:title></dc:title>
      </cc:Work>
    </rdf:RDF>
  </metadata>
  <g
     id="layer1">
    <polygon
       points="4,60 4,32 0,28 4,28 4,4 0,0 12,0 8,4 8,28 12,28 8,32 8,60 "
       style="fill:#000000"
       id="polygon842"
       transform="matrix(0,-0.26458333,0.26458333,0,11.906251,7.6823663)">
      <title
         id="title919">Right Horizontal Head-to-Tail Mark, RHHT</title>
    </polygon>
    <polygon
       points="0,28 4,28 4,4 0,0 12,0 8,4 8,28 12,28 8,32 8,60 4,60 4,32 "
       style="fill:#000000"
       id="polygon856"
       transform="matrix(0,-0.26458333,0.26458333,0,11.906251,10.672233)">
      <title
         id="title921">Right Horizontal Head-to-Tail Mark, RHHT</title>
    </polygon>
    <g
       id="g857"
       transform="matrix(0,-0.26458333,0.26458333,0,8.731251,5.4599416)">
      <title
         id="title853">Right Horizontal Mark, RH</title>
      <polygon
         points="0,0 12,0 8,4 8,40 4,40 4,4 "
         style="fill:#000000"
         id="polygon855" />
    </g>
    <g
       id="g886"
       transform="matrix(0,-0.26458333,0.26458333,0,8.731251,13.000567)">
      <title
         id="title882">Right Horizontal Mark, RH</title>
      <polygon
         points="8,40 4,40 4,4 0,0 12,0 8,4 "
         style="fill:#000000"
         id="polygon884" />
    </g>
    <g
       id="g906"
       transform="matrix(0.26458333,0,0,0.26458333,22.791964,6.5200892)">
      <title
         id="title902">Down Vertical Mark, DV</title>
      <polygon
         points="8,25 4,25 4,4 0,0 12,0 8,4 "
         style="fill:#000000"
         id="polygon904" />
    </g>
    <circle
       style="fill:#000000;fill-rule:evenodd;stroke-width:0.264583"
       id="path839"
       cx="24.332216"
       cy="9.1186752"
       r="0.79374999">
      <title
         id="title943">2 Cross Connector, 2C</title>
    </circle>
    <circle
       style="fill:#000000;fill-rule:evenodd;stroke-width:0.264583"
       id="circle939"
       cx="24.379465"
       cy="6.6145825"
       r="0.79374999">
      <title
         id="title941">Top 2 Touch Connector, T2T</title>
    </circle>
  </g>
</svg>
