<?xml version="1.0" encoding="UTF-8" standalone="no"?>
<svg
   xmlns:dc="http://purl.org/dc/elements/1.1/"
   xmlns:cc="http://creativecommons.org/ns#"
   xmlns:rdf="http://www.w3.org/1999/02/22-rdf-syntax-ns#"
   xmlns:svg="http://www.w3.org/2000/svg"
   xmlns="http://www.w3.org/2000/svg"
   width="160"
   height="80"
   viewBox="0 0 42.333332 21.166667"
   version="1.1"
   id="svg8">
  <defs
     id="defs2" />
  <metadata
     id="metadata5">
    <rdf:RDF>
      <cc:Work
         rdf:about="">
        <dc:format>image/svg+xml</dc:format>
        <dc:type
           rdf:resource="http://purl.org/dc/dcmitype/StillImage" />
        <dc:title></dc:title>
      </cc:Work>
    </rdf:RDF>
  </metadata>
  <g
     id="layer1">
    <g
       id="g857"
       transform="matrix(0.26458333,0,0,0.26458333,20.588287,4.7719494)">
      <title
         id="title853">Down Vertical Mark, DV</title>
      <polygon
         points="0,0 12,0 8,4 8,40 4,40 4,4 "
         style="fill:#000000"
         id="polygon855" />
    </g>
    <g
       id="g858"
       transform="matrix(0.26458333,0,0,0.26458333,17.624954,4.7719494)">
      <title
         id="title854">Down Vertical Mark, DV</title>
      <polygon
         points="0,0 12,0 8,4 8,40 4,40 4,4 "
         style="fill:#000000"
         id="polygon856" />
    </g>
    <g
       id="g864"
       transform="matrix(0.26458333,0,0,0.26458333,14.740993,4.7719494)">
      <title
         id="title860">Down Vertical Mark, DV</title>
      <polygon
         points="0,0 12,0 8,4 8,40 4,40 4,4 "
         style="fill:#000000"
         id="polygon862" />
    </g>
    <polygon
       points="4,60 4,4 0,0 12,0 8,4 8,60 "
       style="fill:#000000"
       id="polygon855-3"
       transform="matrix(0,-0.26458333,0.26458333,0,9.9351041,7.4800356)">
      <title
         id="title894">Right Horizontal Mark, RH</title>
    </polygon>
    <polygon
       points="4,4 0,0 12,0 8,4 8,60 4,60 "
       style="fill:#000000"
       id="polygon890"
       transform="matrix(0,-0.26458333,0.26458333,0,9.9351041,15.999618)">
      <title
         id="title896">Right Horizontal Mark, RH</title>
    </polygon>
    <circle
       style="fill:#000000;fill-rule:evenodd;stroke-width:0.264583"
       id="path839"
       cx="22.217333"
       cy="5.8869791"
       r="0.79374999">
      <title
         id="title914">2 Cross Connector, 2C</title>
    </circle>
    <circle
       style="fill:#000000;fill-rule:evenodd;stroke-width:0.264583"
       id="circle918"
       cx="19.225683"
       cy="5.8660769"
       r="0.79374999">
      <title
         id="title916">2 Cross Connector, 2C</title>
    </circle>
    <circle
       style="fill:#000000;fill-rule:evenodd;stroke-width:0.264583"
       id="circle922"
       cx="16.275579"
       cy="5.898356"
       r="0.79374999">
      <title
         id="title920">2 Cross Connector, 2C</title>
    </circle>
    <circle
       style="fill:#000000;fill-rule:evenodd;stroke-width:0.264583"
       id="circle926"
       cx="16.281401"
       cy="14.374548"
       r="0.79374999">
      <title
         id="title924">2 Cross Connector, 2C</title>
    </circle>
    <circle
       style="fill:#000000;fill-rule:evenodd;stroke-width:0.264583"
       id="circle930"
       cx="19.172766"
       cy="14.421641"
       r="0.79374999">
      <title
         id="title928">2 Cross Connector, 2C</title>
    </circle>
    <circle
       style="fill:#000000;fill-rule:evenodd;stroke-width:0.264583"
       id="circle934"
       cx="22.187164"
       cy="14.374545"
       r="0.79374999">
      <title
         id="title932">2 Cross Connector, 2C</title>
    </circle>
    <g
       id="g940"
       transform="matrix(0.26458333,0,0,0.26458333,11.857039,4.772025)">
      <title
         id="title936">Down Vertical Mark, DV</title>
      <polygon
         points="8,40 4,40 4,4 0,0 12,0 8,4 "
         style="fill:#000000"
         id="polygon938" />
    </g>
    <circle
       style="fill:#000000;fill-rule:evenodd;stroke-width:0.264583"
       id="circle944"
       cx="13.418079"
       cy="5.8718991"
       r="0.79374999">
      <title
         id="title942">2 Cross Connector, 2C</title>
    </circle>
    <circle
       style="fill:#000000;fill-rule:evenodd;stroke-width:0.264583"
       id="circle948"
       cx="13.503275"
       cy="14.374548"
       r="0.79374999">
      <title
         id="title946">2 Cross Connector, 2C</title>
    </circle>
    <polygon
       points="0,0 12,0 8,4 8,55 4,55 4,4 "
       style="fill:#000000"
       id="polygon952"
       transform="matrix(0,-0.26458333,0.26458333,0,11.231564,9.3850355)">
      <title
         id="title950">Right Horizontal Mark, RH</title>
    </polygon>
    <polygon
       points="4,4 0,0 12,0 8,4 8,55 4,55 "
       style="fill:#000000"
       id="polygon956"
       transform="matrix(0,-0.26458333,0.26458333,0,11.231564,11.713369)">
      <title
         id="title954">Right Horizontal Mark, RH</title>
    </polygon>
    <polygon
       points="0,0 12,0 8,4 8,55 4,55 4,4 "
       style="fill:#000000"
       id="polygon960"
       transform="matrix(0,-0.26458333,0.26458333,0,11.231564,14.0417)">
      <title
         id="title958">Right Horizontal Mark, RH</title>
    </polygon>
    <circle
       style="fill:#000000;fill-rule:evenodd;stroke-width:0.264583"
       id="circle964"
       cx="13.503275"
       cy="7.8072119"
       r="0.79374999">
      <title
         id="title962">2 Cross Connector, 2C</title>
    </circle>
    <circle
       style="fill:#000000;fill-rule:evenodd;stroke-width:0.264583"
       id="circle968"
       cx="13.503275"
       cy="10.169563"
       r="0.79374999">
      <title
         id="title966">2 Cross Connector, 2C</title>
    </circle>
    <circle
       style="fill:#000000;fill-rule:evenodd;stroke-width:0.264583"
       id="circle972"
       cx="13.503275"
       cy="12.437421"
       r="0.79374999">
      <title
         id="title970">2 Cross Connector, 2C</title>
    </circle>
    <circle
       style="fill:#000000;fill-rule:evenodd;stroke-width:0.264583"
       id="circle976"
       cx="16.41732"
       cy="7.6937428"
       r="0.79374999">
      <title
         id="title974">2 Cross Connector, 2C</title>
    </circle>
    <circle
       style="fill:#000000;fill-rule:evenodd;stroke-width:0.264583"
       id="circle980"
       cx="16.41732"
       cy="10.150588"
       r="0.79374999">
      <title
         id="title978">2 Cross Connector, 2C</title>
    </circle>
    <circle
       style="fill:#000000;fill-rule:evenodd;stroke-width:0.264583"
       id="circle984"
       cx="16.370073"
       cy="12.371198"
       r="0.79374999">
      <title
         id="title982">2 Cross Connector, 2C</title>
    </circle>
    <circle
       style="fill:#000000;fill-rule:evenodd;stroke-width:0.264583"
       id="circle988"
       cx="19.320177"
       cy="7.7559581"
       r="0.79374999">
      <title
         id="title986">2 Cross Connector, 2C</title>
    </circle>
    <circle
       style="fill:#000000;fill-rule:evenodd;stroke-width:0.264583"
       id="circle992"
       cx="19.27293"
       cy="10.023815"
       r="0.79374999">
      <title
         id="title990">2 Cross Connector, 2C</title>
    </circle>
    <circle
       style="fill:#000000;fill-rule:evenodd;stroke-width:0.264583"
       id="circle996"
       cx="19.27293"
       cy="12.527907"
       r="0.79374999">
      <title
         id="title994">2 Cross Connector, 2C</title>
    </circle>
    <circle
       style="fill:#000000;fill-rule:evenodd;stroke-width:0.264583"
       id="circle1000"
       cx="22.217333"
       cy="7.8241072"
       r="0.79374999">
      <title
         id="title998">2 Cross Connector, 2C</title>
    </circle>
    <circle
       style="fill:#000000;fill-rule:evenodd;stroke-width:0.264583"
       id="circle1004"
       cx="22.217333"
       cy="10.139212"
       r="0.79374999">
      <title
         id="title1002">2 Cross Connector, 2C</title>
    </circle>
    <circle
       style="fill:#000000;fill-rule:evenodd;stroke-width:0.264583"
       id="circle1008"
       cx="22.122839"
       cy="12.312574"
       r="0.79374999">
      <title
         id="title1006">2 Cross Connector, 2C</title>
    </circle>
  </g>
</svg>
