<?xml version="1.0" encoding="UTF-8" standalone="no"?>
<svg
   xmlns:dc="http://purl.org/dc/elements/1.1/"
   xmlns:cc="http://creativecommons.org/ns#"
   xmlns:rdf="http://www.w3.org/1999/02/22-rdf-syntax-ns#"
   xmlns:svg="http://www.w3.org/2000/svg"
   xmlns="http://www.w3.org/2000/svg"
   width="160"
   height="80"
   viewBox="0 0 42.333332 21.166667"
   version="1.1"
   id="svg8">
  <defs
     id="defs2" />
  <metadata
     id="metadata5">
    <rdf:RDF>
      <cc:Work
         rdf:about="">
        <dc:format>image/svg+xml</dc:format>
        <dc:type
           rdf:resource="http://purl.org/dc/dcmitype/StillImage" />
        <dc:title></dc:title>
      </cc:Work>
    </rdf:RDF>
  </metadata>
  <g
     id="layer1">
    <g
       id="g857"
       transform="matrix(0,-0.26458333,0.26458333,0,10.826204,13.470107)">
      <title
         id="title853">Right Horizontal Mark, RH</title>
      <polygon
         points="8,60 4,60 4,4 0,0 12,0 8,4 "
         style="fill:#000000"
         id="polygon41" />
    </g>
    <g
       id="g59"
       transform="matrix(0.26458333,0,0,0.26458333,25.497309,5.5742228)">
      <title
         id="title55">Down Vertical Mark, DV</title>
      <polygon
         points="8,40 4,40 4,4 0,0 12,0 8,4 "
         style="fill:#000000"
         id="polygon57" />
    </g>
    <circle
       style="fill:#000000;fill-rule:evenodd;stroke-width:0.264583"
       id="path839"
       cx="26.820227"
       cy="11.907177"
       r="0.79374999">
      <title
         id="title109">Right 2 Touch Connector, R2T</title>
    </circle>
    <g
       id="g270"
       transform="matrix(0.26458333,0,0,0.26458333,14.331894,5.6535978)">
      <title
         id="title266">Down Vertical Mark, DV</title>
      <polygon
         points="0,0 12,0 8,4 8,40 4,40 4,4 "
         style="fill:#000000"
         id="polygon268" />
    </g>
    <g
       id="g276"
       transform="matrix(0.26458333,0,0,0.26458333,17.427518,5.6535978)">
      <title
         id="title272">Down Vertical Mark, DV</title>
      <polygon
         points="8,4 8,40 4,40 4,4 0,0 12,0 "
         style="fill:#000000"
         id="polygon274" />
    </g>
    <circle
       style="fill:#000000;fill-rule:evenodd;stroke-width:0.264583"
       id="circle113"
       cx="18.977219"
       cy="11.954422"
       r="0.79374999">
      <title
         id="title111">2 Cross Connector, 2C</title>
    </circle>
    <circle
       style="fill:#000000;fill-rule:evenodd;stroke-width:0.264583"
       id="circle280"
       cx="15.95341"
       cy="11.907175"
       r="0.79374999">
      <title
         id="title278">2 Cross Connector, 2C</title>
    </circle>
    <polygon
       points="6,12 0,6 6,0 "
       style="fill:#000000"
       id="polygon128"
       transform="matrix(0.26458333,0,0,0.26458333,20.231175,12.492113)">
      <title
         id="title142">Heel Mark, HE</title>
    </polygon>
  </g>
</svg>
