<?xml version="1.0" encoding="UTF-8" standalone="no"?>
<svg
   xmlns:dc="http://purl.org/dc/elements/1.1/"
   xmlns:cc="http://creativecommons.org/ns#"
   xmlns:rdf="http://www.w3.org/1999/02/22-rdf-syntax-ns#"
   xmlns:svg="http://www.w3.org/2000/svg"
   xmlns="http://www.w3.org/2000/svg"
   width="160"
   height="80"
   viewBox="0 0 42.333332 21.166667"
   version="1.1"
   id="svg8">
  <defs
     id="defs2" />
  <metadata
     id="metadata5">
    <rdf:RDF>
      <cc:Work
         rdf:about="">
        <dc:format>image/svg+xml</dc:format>
        <dc:type
           rdf:resource="http://purl.org/dc/dcmitype/StillImage" />
        <dc:title></dc:title>
      </cc:Work>
    </rdf:RDF>
  </metadata>
  <g
     id="layer1">
    <g
       id="g66"
       transform="matrix(0.26458333,0,0,0.26458333,18.717418,5.9663541)">
      <title
         id="title62">Down Vertical Mark, DV</title>
      <polygon
         points="4,35 4,4 0,0 12,0 8,4 8,35 "
         style="fill:#000000"
         transform="translate(0,0.90000008)" />
    </g>
    <g
       id="g857"
       transform="matrix(0.09049282,-0.24862701,0.24862701,0.09049282,23.278805,8.7667864)">
      <title
         id="title853">Right Down Diagonal Mark, RDD</title>
      <polygon
         points="0,0 12,0 8,4 8,40 4,40 4,4 "
         style="fill:#000000"
         id="polygon855" />
    </g>
    <g
       id="g1055"
       transform="matrix(-0.09049312,-0.24862701,0.24862783,-0.09049282,24.602907,15.941238)">
      <title
         id="title1051">Right Up Diagonal Mark, RUD</title>
      <polygon
         points="12,0 8,4 8,40 4,40 4,4 0,0 "
         style="fill:#000000"
         id="polygon1053" />
    </g>
    <circle
       style="fill:#000000;fill-rule:evenodd;stroke-width:0.264583"
       id="path839"
       cx="33.496254"
       cy="10.866815"
       r="0.79374999">
      <title
         id="title102">Right Middle Corner Connector, RMC</title>
    </circle>
    <polygon
       points="4,4 0,0 12,0 8,4 8,35 12,40 0,40 4,35 "
       style="fill:#000000"
       id="polygon1136"
       transform="matrix(0,-0.26458333,0.26458333,0,12.695472,12.417954)">
      <title
         id="title1150">Right Horizontal Barbell Mark, RHBB</title>
    </polygon>
    <circle
       style="fill:#000000;fill-rule:evenodd;stroke-width:0.264583"
       id="circle114"
       cx="20.263115"
       cy="10.866817"
       r="0.79374999">
      <title
         id="title112">2 Cross Connector, 2C</title>
    </circle>
    <g
       id="g1170"
       transform="matrix(0.26458333,0,0,0.26458333,29.075818,13.229166)">
      <title
         id="title1166">Down Vertical Mark, DV</title>
      <polygon
         points="4,15 4,4 0,0 12,0 8,4 8,15 "
         style="fill:#000000"
         id="polygon1168"
         transform="translate(-19.882878,-13.635271)" />
    </g>
    <circle
       style="fill:#000000;fill-rule:evenodd;stroke-width:0.264583"
       id="circle1185"
       cx="25.511507"
       cy="13.701636"
       r="0.79374999">
      <title
         id="title1183">Other 2 Touch Connector, O2T</title>
    </circle>
  </g>
</svg>
