<?xml version="1.0" encoding="UTF-8" standalone="no"?>
<svg
   xmlns:dc="http://purl.org/dc/elements/1.1/"
   xmlns:cc="http://creativecommons.org/ns#"
   xmlns:rdf="http://www.w3.org/1999/02/22-rdf-syntax-ns#"
   xmlns:svg="http://www.w3.org/2000/svg"
   xmlns="http://www.w3.org/2000/svg"
   width="160"
   height="80"
   viewBox="0 0 42.333332 21.166667"
   version="1.1"
   id="svg8">
  <defs
     id="defs2" />
  <metadata
     id="metadata5">
    <rdf:RDF>
      <cc:Work
         rdf:about="">
        <dc:format>image/svg+xml</dc:format>
        <dc:type
           rdf:resource="http://purl.org/dc/dcmitype/StillImage" />
        <dc:title></dc:title>
      </cc:Work>
    </rdf:RDF>
  </metadata>
  <g
     id="layer1">
    <polygon
       points="12,0 8,4 8,18 12,18 8,22 8,40 4,40 4,22 0,18 4,18 4,4 0,0 "
       style="fill:#000000"
       id="polygon862"
       transform="matrix(0.26458333,0,0,0.26458333,15.610416,5.0554315)">
      <title
         id="title841">Down Vertical Head-to-Tail Mark, DVHT</title>
    </polygon>
    <polygon
       points="8,22 8,40 4,40 4,22 0,18 4,18 4,4 0,0 12,0 8,4 8,18 12,18 "
       style="fill:#000000"
       id="polygon854"
       transform="matrix(0.26458333,0,0,0.26458333,18.864792,5.0554315)">
      <title
         id="title852">Down Vertical Head-to-Tail Mark, DVHT</title>
    </polygon>
    <g
       id="g874"
       transform="matrix(0,-0.26458333,0.26458333,0,10.110863,9.8215978)">
      <title
         id="title870">Right Horizontal Mark, RH</title>
      <polygon
         points="4,4 0,0 12,0 8,4 8,25 4,25 "
         style="fill:#000000"
         id="polygon872" />
    </g>
    <g
       id="g891"
       transform="matrix(0,-0.26458333,0.26458333,0,10.110863,13.763888)">
      <title
         id="title887">Right Horizontal Mark, RH</title>
      <polygon
         points="4,25 4,4 0,0 12,0 8,4 8,25 "
         style="fill:#000000"
         id="polygon889" />
    </g>
    <circle
       style="fill:#000000;fill-rule:evenodd;stroke-width:0.264583"
       id="path839"
       cx="17.245165"
       cy="12.284226"
       r="0.79374999">
      <title
         id="title909">Right 2 Touch Connector, R2T</title>
    </circle>
    <circle
       style="fill:#000000;fill-rule:evenodd;stroke-width:0.264583"
       id="circle913"
       cx="17.103424"
       cy="8.2682295"
       r="0.79374999">
      <title
         id="title911">Right 2 Touch Connector, R2T</title>
    </circle>
  </g>
</svg>
