<?xml version="1.0" encoding="UTF-8" standalone="no"?>
<svg
   xmlns:dc="http://purl.org/dc/elements/1.1/"
   xmlns:cc="http://creativecommons.org/ns#"
   xmlns:rdf="http://www.w3.org/1999/02/22-rdf-syntax-ns#"
   xmlns:svg="http://www.w3.org/2000/svg"
   xmlns="http://www.w3.org/2000/svg"
   width="160"
   height="80"
   viewBox="0 0 42.333332 21.166667"
   version="1.1"
   id="svg8">
  <defs
     id="defs2" />
  <metadata
     id="metadata5">
    <rdf:RDF>
      <cc:Work
         rdf:about="">
        <dc:format>image/svg+xml</dc:format>
        <dc:type
           rdf:resource="http://purl.org/dc/dcmitype/StillImage" />
        <dc:title></dc:title>
      </cc:Work>
    </rdf:RDF>
  </metadata>
  <g
     id="layer1">
    <polygon
       points="4,4 0,0 12,0 8,4 8,35 12,40 0,40 4,35 "
       style="fill:#000000"
       id="polygon866"
       transform="matrix(0,-0.26458333,0.26458333,0,10.819569,8.8162949)">
      <title
         id="title880">Right Horizontal Barbell Mark, RHBB</title>
    </polygon>
    <polygon
       points="0,0 12,0 8,4 8,35 12,40 0,40 4,35 4,4 "
       style="fill:#000000"
       id="polygon852"
       transform="matrix(0,-0.26458333,0.26458333,0,10.740231,12.943681)">
      <title
         id="title850">Right Horizontal Barbell Mark, RHBB</title>
    </polygon>
    <g
       id="g872"
       transform="matrix(0.26458333,0,0,0.26458333,21.824421,5.9909605)">
      <title
         id="title868">Down Vertical Mark, DV</title>
      <polygon
         points="12,0 8,4 8,30 4,30 4,4 0,0 "
         style="fill:#000000"
         id="polygon870"
         transform="translate(0,-1.8000005)" />
    </g>
  </g>
</svg>
