<?xml version="1.0" encoding="UTF-8" standalone="no"?>
<svg
   xmlns:dc="http://purl.org/dc/elements/1.1/"
   xmlns:cc="http://creativecommons.org/ns#"
   xmlns:rdf="http://www.w3.org/1999/02/22-rdf-syntax-ns#"
   xmlns:svg="http://www.w3.org/2000/svg"
   xmlns="http://www.w3.org/2000/svg"
   width="160"
   height="80"
   viewBox="0 0 42.333332 21.166667"
   version="1.1"
   id="svg8">
  <defs
     id="defs2" />
  <metadata
     id="metadata5">
    <rdf:RDF>
      <cc:Work
         rdf:about="">
        <dc:format>image/svg+xml</dc:format>
        <dc:type
           rdf:resource="http://purl.org/dc/dcmitype/StillImage" />
        <dc:title></dc:title>
      </cc:Work>
    </rdf:RDF>
  </metadata>
  <g
     id="layer1">
    <g
       id="g25"
       transform="matrix(0,-0.26458333,0.26458333,0,9.3265626,14.533184)">
      <title
         id="title21">Right Horizontal Mark, RH</title>
      <polygon
         points="4,72 4,4 0,0 12,0 8,4 8,72 "
         style="fill:#000000"
         id="polygon23" />
    </g>
    <g
       id="g857"
       transform="matrix(0.26458333,0,0,0.26458333,24.114881,4.9609374)">
      <title
         id="title853">Down Vertical Mark, DV</title>
      <polygon
         points="4,4 0,0 12,0 8,4 8,40 4,40 "
         style="fill:#000000"
         id="polygon855" />
    </g>
    <g
       id="g66"
       transform="matrix(0.26458333,0,0,0.26458333,20.75471,5.9663541)">
      <title
         id="title62">Down Vertical Mark, DV</title>
      <polygon
         points="12,0 8,4 8,35 4,35 4,4 0,0 "
         style="fill:#000000"
         transform="translate(0,0.90000008)" />
    </g>
    <g
       id="g78"
       transform="matrix(0.26458333,0,0,0.26458333,17.473877,5.9663541)">
      <title
         id="title74">Down Vertical Mark, DV</title>
      <polygon
         points="4,4 0,0 12,0 8,4 8,35 4,35 "
         style="fill:#000000"
         transform="translate(0,0.90000008)"
         id="polygon76" />
    </g>
    <g
       id="g84"
       transform="matrix(0.26458333,0,0,0.26458333,14.378252,5.9663541)">
      <title
         id="title80">Down Vertical Mark, DV</title>
      <polygon
         points="12,0 8,4 8,35 4,35 4,4 0,0 "
         style="fill:#000000"
         transform="translate(0,0.90000008)"
         id="polygon82" />
    </g>
    <circle
       style="fill:#000000;fill-rule:evenodd;stroke-width:0.264583"
       id="path839"
       cx="25.796875"
       cy="12.945684"
       r="0.79374999">
      <title
         id="title102">2 Cross Connector, 2C</title>
    </circle>
    <circle
       style="fill:#000000;fill-rule:evenodd;stroke-width:0.264583"
       id="circle106"
       cx="15.969456"
       cy="12.898438"
       r="0.79374999">
      <title
         id="title104">2 Cross Connector, 2C</title>
    </circle>
    <circle
       style="fill:#000000;fill-rule:evenodd;stroke-width:0.264583"
       id="circle110"
       cx="19.040474"
       cy="12.898438"
       r="0.79374999">
      <title
         id="title108">2 Cross Connector, 2C</title>
    </circle>
    <circle
       style="fill:#000000;fill-rule:evenodd;stroke-width:0.264583"
       id="circle114"
       cx="22.323164"
       cy="12.898438"
       r="0.79374999">
      <title
         id="title112">2 Cross Connector, 2C</title>
    </circle>
    <g
       id="g120"
       transform="matrix(0.26458333,0,0,0.26458333,11.335543,5.9663541)">
      <title
         id="title116">Down Vertical Mark, DV</title>
      <polygon
         points="0,0 12,0 8,4 8,35 4,35 4,4 "
         style="fill:#000000"
         transform="translate(0,0.90000008)"
         id="polygon118" />
    </g>
    <circle
       style="fill:#000000;fill-rule:evenodd;stroke-width:0.264583"
       id="circle124"
       cx="12.926748"
       cy="12.898438"
       r="0.79374999">
      <title
         id="title122">2 Cross Connector, 2C</title>
    </circle>
  </g>
</svg>
