<?xml version="1.0" encoding="UTF-8" standalone="no"?>
<svg
   xmlns:dc="http://purl.org/dc/elements/1.1/"
   xmlns:cc="http://creativecommons.org/ns#"
   xmlns:rdf="http://www.w3.org/1999/02/22-rdf-syntax-ns#"
   xmlns:svg="http://www.w3.org/2000/svg"
   xmlns="http://www.w3.org/2000/svg"
   width="160"
   height="80"
   viewBox="0 0 42.333332 21.166667"
   version="1.1"
   id="svg8">
  <defs
     id="defs2" />
  <metadata
     id="metadata5">
    <rdf:RDF>
      <cc:Work
         rdf:about="">
        <dc:format>image/svg+xml</dc:format>
        <dc:type
           rdf:resource="http://purl.org/dc/dcmitype/StillImage" />
        <dc:title></dc:title>
      </cc:Work>
    </rdf:RDF>
  </metadata>
  <g
     id="layer1">
    <polygon
       points="0,0 12,0 8,4 8,35 12,40 0,40 4,35 4,4 "
       style="fill:#000000"
       id="polygon866"
       transform="matrix(0,-0.26458333,0.26458333,0,20.410714,12.076339)">
      <title
         id="title880">Right Horizontal Barbell Mark, RHBB</title>
    </polygon>
    <g
       id="g857"
       transform="matrix(0.26458333,0,0,0.26458333,25.919641,5.3861604)">
      <title
         id="title853">Down Vertical Mark, DV</title>
      <polygon
         points="4,40 4,4 0,0 12,0 8,4 8,40 "
         style="fill:#000000"
         id="polygon855" />
    </g>
    <g
       id="g878"
       transform="matrix(0.26458333,0,0,0.26458333,22.744641,5.3861604)">
      <title
         id="title874">Down Vertical Mark, DV</title>
      <polygon
         points="4,40 4,4 0,0 12,0 8,4 8,40 "
         style="fill:#000000"
         id="polygon876" />
    </g>
    <g
       id="g885"
       transform="matrix(0.26458333,0,0,0.26458333,30.946726,5.3861604)">
      <title
         id="title881">Down Vertical Mark, DV</title>
      <polygon
         points="8,4 8,40 4,40 4,4 0,0 12,0 "
         style="fill:#000000"
         id="polygon883" />
    </g>
    <g
       id="g905"
       transform="matrix(0,-0.26458333,0.26458333,0,13.843378,12.076339)">
      <title
         id="title901">Right Horizontal Mark, RH</title>
      <polygon
         points="0,0 12,0 8,4 8,15 4,15 4,4 "
         style="fill:#000000"
         id="polygon903"
         transform="translate(0,9.799571)" />
    </g>
    <g
       id="g922"
       transform="matrix(0.26458333,0,0,0.26458333,13.351935,5.3861604)">
      <title
         id="title918">Down Vertical Mark, DV</title>
      <polygon
         points="4,4 0,0 12,0 8,4 8,40 4,40 "
         style="fill:#000000"
         id="polygon920" />
    </g>
    <polygon
       points="6,0 6,12 0,6 "
       style="fill:#000000"
       id="polygon936"
       transform="matrix(0.26458333,0,0,0.26458333,11.938265,8.901339)">
      <title
         id="title950">Heel Mark, HE</title>
    </polygon>
    <circle
       style="fill:#000000;fill-rule:evenodd;stroke-width:0.264583"
       id="path839"
       cx="24.237724"
       cy="10.441591"
       r="0.79374999">
      <title
         id="title972">2 Cross Connector, 2C</title>
    </circle>
    <circle
       style="fill:#000000;fill-rule:evenodd;stroke-width:0.264583"
       id="circle968"
       cx="20.930431"
       cy="10.536085"
       r="0.79374999">
      <title
         id="title970">Horizontal 2 Touch Connector, H2T</title>
    </circle>
    <circle
       style="fill:#000000;fill-rule:evenodd;stroke-width:0.264583"
       id="circle976"
       cx="27.545015"
       cy="10.488838"
       r="0.79374999">
      <title
         id="title974">2 Cross Connector, 2C</title>
    </circle>
  </g>
</svg>
