<?xml version="1.0" encoding="UTF-8" standalone="no"?>
<svg
   xmlns:dc="http://purl.org/dc/elements/1.1/"
   xmlns:cc="http://creativecommons.org/ns#"
   xmlns:rdf="http://www.w3.org/1999/02/22-rdf-syntax-ns#"
   xmlns:svg="http://www.w3.org/2000/svg"
   xmlns="http://www.w3.org/2000/svg"
   width="160"
   height="80"
   viewBox="0 0 42.333332 21.166667"
   version="1.1"
   id="svg8">
  <defs
     id="defs2" />
  <metadata
     id="metadata5">
    <rdf:RDF>
      <cc:Work
         rdf:about="">
        <dc:format>image/svg+xml</dc:format>
        <dc:type
           rdf:resource="http://purl.org/dc/dcmitype/StillImage" />
        <dc:title></dc:title>
      </cc:Work>
    </rdf:RDF>
  </metadata>
  <g
     id="layer1">
    <polygon
       points="0,0 12,0 8,4 8,40 12,45 0,45 4,40 4,4 "
       style="fill:#000000"
       id="polygon866"
       transform="matrix(0,-0.26458333,0.26458333,0,12.588612,9.9314006)">
      <title
         id="title880">Right Horizontal Barbell Mark, RHBB</title>
    </polygon>
    <g
       id="g857"
       transform="matrix(0,-0.26458333,0.26458333,0,24.891734,9.9314006)">
      <title
         id="title853">Right Horizontal Mark, RH</title>
      <polygon
         points="12,0 8,4 8,20 4,20 4,4 0,0 "
         style="fill:#000000"
         id="polygon855"
         transform="translate(0,2.2000046)" />
    </g>
    <g
       id="g942"
       transform="matrix(0.26458333,0,0,0.26458333,29.680694,7.2591083)">
      <title
         id="title938">Down Vertical Mark, DV</title>
      <polygon
         points="12,0 8,4 8,30 4,30 4,4 0,0 "
         style="fill:#000000"
         id="polygon940" />
    </g>
    <circle
       style="fill:#000000;fill-rule:evenodd;stroke-width:0.264583"
       id="circle973"
       cx="31.230282"
       cy="8.2209835"
       r="0.79374999">
      <title
         id="title975">Northeast Corner Connector, NEC</title>
    </circle>
    <polygon
       points="8,45 12,50 0,50 4,45 4,4 0,0 12,0 8,4 "
       style="fill:#000000"
       id="polygon981"
       transform="matrix(0,-0.26458333,0.26458333,0,11.239236,14.984942)">
      <title
         id="title979">Right Horizontal Barbell Mark, RHBB</title>
    </polygon>
    <g
       id="g987"
       transform="matrix(0,-0.26458333,0.26458333,0,24.891734,14.984942)">
      <title
         id="title983">Right Horizontal Mark, RH</title>
      <polygon
         points="4,20 4,4 0,0 12,0 8,4 8,20 "
         style="fill:#000000"
         id="polygon985"
         transform="translate(0,2.2000046)" />
    </g>
    <circle
       style="fill:#000000;fill-rule:evenodd;stroke-width:0.264583"
       id="path839"
       cx="31.183035"
       cy="13.418156"
       r="0.79374999">
      <title
         id="title977">Right 2 Touch Connector, R2T</title>
    </circle>
    <g
       id="g1007"
       transform="matrix(0.26458333,0,0,0.26458333,14.193006,10.158111)">
      <title
         id="title1003">Down Vertical Mark, DV</title>
      <polygon
         points="4,25 4,4 0,0 12,0 8,4 8,25 "
         style="fill:#000000"
         id="polygon1005" />
    </g>
    <g
       id="g1024"
       transform="matrix(0.26458333,0,0,0.26458333,17.42096,10.158111)">
      <title
         id="title1020">Down Vertical Mark, DV</title>
      <polygon
         points="4,4 0,0 12,0 8,4 8,25 4,25 "
         style="fill:#000000"
         id="polygon1022" />
    </g>
    <circle
       style="fill:#000000;fill-rule:evenodd;stroke-width:0.264583"
       id="circle1028"
       cx="19.087797"
       cy="13.418156"
       r="0.79374999">
      <title
         id="title1026">2 Cross Connector, 2C</title>
    </circle>
    <circle
       style="fill:#000000;fill-rule:evenodd;stroke-width:0.264583"
       id="circle1032"
       cx="15.780506"
       cy="13.370908"
       r="0.79374999">
      <title
         id="title1030">2 Cross Connector, 2C</title>
    </circle>
  </g>
</svg>
