<?xml version="1.0" encoding="UTF-8" standalone="no"?>
<svg
   xmlns:dc="http://purl.org/dc/elements/1.1/"
   xmlns:cc="http://creativecommons.org/ns#"
   xmlns:rdf="http://www.w3.org/1999/02/22-rdf-syntax-ns#"
   xmlns:svg="http://www.w3.org/2000/svg"
   xmlns="http://www.w3.org/2000/svg"
   width="160"
   height="80"
   viewBox="0 0 42.333332 21.166667"
   version="1.1"
   id="svg8">
  <defs
     id="defs2" />
  <metadata
     id="metadata5">
    <rdf:RDF>
      <cc:Work
         rdf:about="">
        <dc:format>image/svg+xml</dc:format>
        <dc:type
           rdf:resource="http://purl.org/dc/dcmitype/StillImage" />
        <dc:title></dc:title>
      </cc:Work>
    </rdf:RDF>
  </metadata>
  <g
     id="layer1">
    <polygon
       points="6,0 6,12 0,6 "
       style="fill:#000000"
       id="polygon923"
       transform="matrix(0.26458333,0,0,0.26458333,11.327889,11.981731)">
      <title
         id="title921">Heel Mark, HE</title>
    </polygon>
    <polygon
       points="6,0 6,12 0,6 "
       style="fill:#000000"
       id="polygon927"
       transform="matrix(0.26458333,0,0,0.26458333,11.301431,6.0286068)">
      <title
         id="title925">Heel Mark, HE</title>
    </polygon>
    <g
       id="g857"
       transform="matrix(0.26458333,0,0,0.26458333,12.359878,5.1026787)">
      <title
         id="title853">Down Vertical Mark, DV</title>
      <polygon
         points="0,0 12,0 8,4 8,40 4,40 4,4 "
         style="fill:#000000"
         id="polygon855" />
    </g>
    <g
       id="g922"
       transform="matrix(0,-0.26458333,0.26458333,0,14.461331,12.170834)">
      <title
         id="title918">Right Horizontal Mark, RH</title>
      <polygon
         points="8,4 8,25 4,25 4,4 0,0 12,0 "
         style="fill:#000000"
         id="polygon920" />
    </g>
    <circle
       style="fill:#000000;fill-rule:evenodd;stroke-width:0.264583"
       id="path839"
       cx="14.599331"
       cy="10.63058"
       r="0.79374999">
      <title
         id="title951">Left 2 Touch Connector, L2T</title>
    </circle>
  </g>
</svg>
