<?xml version="1.0" encoding="UTF-8" standalone="no"?>
<svg
   xmlns:dc="http://purl.org/dc/elements/1.1/"
   xmlns:cc="http://creativecommons.org/ns#"
   xmlns:rdf="http://www.w3.org/1999/02/22-rdf-syntax-ns#"
   xmlns:svg="http://www.w3.org/2000/svg"
   xmlns="http://www.w3.org/2000/svg"
   width="160"
   height="80"
   viewBox="0 0 42.333332 21.166667"
   version="1.1"
   id="svg8">
  <defs
     id="defs2" />
  <metadata
     id="metadata5">
    <rdf:RDF>
      <cc:Work
         rdf:about="">
        <dc:format>image/svg+xml</dc:format>
        <dc:type
           rdf:resource="http://purl.org/dc/dcmitype/StillImage" />
        <dc:title></dc:title>
      </cc:Work>
    </rdf:RDF>
  </metadata>
  <g
     id="layer1">
    <g
       id="g857"
       transform="matrix(0.09049283,-0.248627,0.248627,0.09049283,19.608468,8.2487321)">
      <title
         id="title853">Right Down Diagonal Mark, RDD</title>
      <polygon
         points="12,0 8,4 8,40 4,40 4,4 0,0 "
         style="fill:#000000"
         id="polygon855" />
    </g>
    <g
       id="g890"
       transform="matrix(-0.09049283,-0.248627,0.248627,-0.09049283,20.606609,13.583162)">
      <title
         id="title886">Right Up Diagonal Mark, RUD</title>
      <polygon
         points="12,0 8,4 8,40 4,40 4,4 0,0 "
         style="fill:#000000"
         id="polygon888" />
    </g>
    <circle
       style="fill:#000000;fill-rule:evenodd;stroke-width:0.264583"
       id="path839"
       cx="27.261532"
       cy="9.3549109"
       r="0.79374999">
      <title
         id="title936">2 Cross Connector, 2C</title>
    </circle>
    <polygon
       points="4,4 0,0 12,0 8,4 8,28 12,28 8,32 8,60 4,60 4,32 0,28 4,28 "
       style="fill:#000000"
       id="polygon950"
       transform="matrix(0,-0.26458333,0.26458333,0,4.8455789,8.769047)">
      <title
         id="title968">Right Horizontal Head-to-Tail Mark, RHHT</title>
    </polygon>
    <polygon
       points="8,32 8,60 4,60 4,32 0,28 4,28 4,4 0,0 12,0 8,4 8,28 12,28 "
       style="fill:#000000"
       id="polygon964"
       transform="matrix(0,-0.26458333,0.26458333,0,4.8455789,13.425752)">
      <title
         id="title966">Right Horizontal Head-to-Tail Mark, RHHT</title>
    </polygon>
    <circle
       style="fill:#000000;fill-rule:evenodd;stroke-width:0.264583"
       id="circle972"
       cx="20.599701"
       cy="7.1815476"
       r="0.79374999">
      <title
         id="title970">Other 2 Touch Connector, O2T</title>
    </circle>
    <circle
       style="fill:#000000;fill-rule:evenodd;stroke-width:0.264583"
       id="circle976"
       cx="20.694195"
       cy="11.90625"
       r="0.79374999">
      <title
         id="title974">Other 2 Touch Connector, O2T</title>
    </circle>
  </g>
</svg>
