<?xml version="1.0" encoding="UTF-8" standalone="no"?>
<svg
   xmlns:dc="http://purl.org/dc/elements/1.1/"
   xmlns:cc="http://creativecommons.org/ns#"
   xmlns:rdf="http://www.w3.org/1999/02/22-rdf-syntax-ns#"
   xmlns:svg="http://www.w3.org/2000/svg"
   xmlns="http://www.w3.org/2000/svg"
   width="160"
   height="80"
   viewBox="0 0 42.333332 21.166667"
   version="1.1"
   id="svg8">
  <defs
     id="defs2" />
  <metadata
     id="metadata5">
    <rdf:RDF>
      <cc:Work
         rdf:about="">
        <dc:format>image/svg+xml</dc:format>
        <dc:type
           rdf:resource="http://purl.org/dc/dcmitype/StillImage" />
        <dc:title></dc:title>
      </cc:Work>
    </rdf:RDF>
  </metadata>
  <g
     id="layer1">
    <g
       id="g857"
       transform="matrix(-0.0684792,-0.25556787,0.25556787,-0.0684792,21.190886,15.754181)">
      <title
         id="title853">Right Up Diagonal Mark, RUD</title>
      <polygon
         points="8,4 8,45 4,45 4,4 0,0 12,0 "
         style="fill:#000000"
         id="polygon855"
         transform="translate(-0.27733926,-5.1468648)" />
    </g>
    <g
       id="g858"
       transform="matrix(0.0684792,-0.25556787,0.25556787,0.0684792,20.369136,10.316134)">
      <title
         id="title854">Right Down Diagonal Mark, RDD</title>
      <polygon
         points="4,40 4,4 0,0 12,0 8,4 8,40 "
         style="fill:#000000"
         id="polygon856" />
    </g>
    <g
       id="g878"
       transform="matrix(0.26458333,0,0,0.26458333,19.161126,8.5312249)">
      <title
         id="title874">Down Vertical Mark, DV</title>
      <polygon
         points="12,0 8,4 8,22 4,22 4,4 0,0 "
         style="fill:#000000"
         id="polygon876" />
    </g>
    <circle
       style="fill:#000000;fill-rule:evenodd;stroke-width:0.264583"
       id="path839"
       cx="20.835938"
       cy="14.032367"
       r="0.79374999">
      <title
         id="title911">Other 2 Touch Connector, O2T</title>
    </circle>
    <circle
       style="fill:#000000;fill-rule:evenodd;stroke-width:0.264583"
       id="circle907"
       cx="30.427084"
       cy="11.528275"
       r="0.79374999">
      <title
         id="title909">Right Middle Corner Connector, RMC</title>
    </circle>
    <circle
       style="fill:#000000;fill-rule:evenodd;stroke-width:0.264583"
       id="circle915"
       cx="21.072172"
       cy="9.1659231"
       r="0.79374999">
      <title
         id="title913">Other 2 Touch Connector, O2T</title>
    </circle>
  </g>
</svg>
