<?xml version="1.0" encoding="UTF-8" standalone="no"?>
<svg
   xmlns:dc="http://purl.org/dc/elements/1.1/"
   xmlns:cc="http://creativecommons.org/ns#"
   xmlns:rdf="http://www.w3.org/1999/02/22-rdf-syntax-ns#"
   xmlns:svg="http://www.w3.org/2000/svg"
   xmlns="http://www.w3.org/2000/svg"
   width="160"
   height="80"
   viewBox="0 0 42.333332 21.166667"
   version="1.1"
   id="svg8">
  <defs
     id="defs2" />
  <metadata
     id="metadata5">
    <rdf:RDF>
      <cc:Work
         rdf:about="">
        <dc:format>image/svg+xml</dc:format>
        <dc:type
           rdf:resource="http://purl.org/dc/dcmitype/StillImage" />
        <dc:title></dc:title>
      </cc:Work>
    </rdf:RDF>
  </metadata>
  <g
     id="layer1">
    <polygon
       points="6,12 0,6 6,0 "
       style="fill:#000000"
       id="polygon931"
       transform="matrix(0.26458333,0,0,0.26458333,9.0619223,5.4680298)">
      <title
         id="title929">Heel Mark, HE</title>
    </polygon>
    <polygon
       points="0,6 6,0 6,12 "
       style="fill:#000000"
       id="polygon935"
       transform="matrix(0.26458333,0,0,0.26458333,9.1412963,11.526988)">
      <title
         id="title933">Heel Mark, HE</title>
    </polygon>
    <g
       id="g857"
       transform="matrix(0.26458333,0,0,0.26458333,16.205786,4.5421017)">
      <title
         id="title853">Down Vertical Mark, DV</title>
      <polygon
         points="4,40 4,4 0,0 12,0 8,4 8,40 "
         style="fill:#000000"
         id="polygon855" />
    </g>
    <g
       id="g926"
       transform="matrix(0.18708867,-0.18708867,0.18708867,0.18708867,11.391491,6.7900633)">
      <title
         id="title922">Right Down Diagonal Mark, RDD</title>
      <polygon
         points="12,0 8,4 8,25 4,25 4,4 0,0 "
         style="fill:#000000"
         id="polygon924" />
    </g>
    <g
       id="g943"
       transform="matrix(-0.18708867,-0.18708867,0.18708867,-0.18708867,13.636555,15.396142)">
      <title
         id="title939">Right Up Diagonal Mark, RUD</title>
      <polygon
         points="4,4 0,0 12,0 8,4 8,25 4,25 "
         style="fill:#000000"
         id="polygon941" />
    </g>
    <g
       id="g963"
       transform="matrix(0.26458333,0,0,0.26458333,10.771534,6.536495)">
      <title
         id="title959">Down Vertical Mark, DV</title>
      <polygon
         points="0,0 12,0 8,4 8,25 4,25 4,4 "
         style="fill:#000000"
         id="polygon961" />
    </g>
    <circle
       style="fill:#000000;fill-rule:evenodd;stroke-width:0.264583"
       id="path839"
       cx="12.773762"
       cy="13.723029"
       r="0.79374999">
      <title
         id="title996">Other 2 Touch Connector, O2T</title>
    </circle>
    <circle
       style="fill:#000000;fill-rule:evenodd;stroke-width:0.264583"
       id="circle992"
       cx="17.356724"
       cy="9.9905148"
       r="0.79374999">
      <title
         id="title994">3 Touch Connector, 3T</title>
    </circle>
    <circle
       style="fill:#000000;fill-rule:evenodd;stroke-width:0.264583"
       id="circle1000"
       cx="12.584774"
       cy="6.5887289"
       r="0.79374999">
      <title
         id="title998">Other 2 Touch Connector, O2T</title>
    </circle>
    <g
       id="g944"
       transform="matrix(0.26458333,0,0,0.26458333,19.433645,4.5421017)">
      <title
         id="title940">Down Vertical Mark, DV</title>
      <polygon
         points="12,0 8,4 8,40 4,40 4,4 0,0 "
         style="fill:#000000"
         id="polygon942" />
    </g>
    <polygon
       points="4,4 0,0 12,0 8,4 8,18 12,18 8,22 8,40 4,40 4,22 0,18 4,18 "
       style="fill:#000000"
       id="polygon958"
       transform="matrix(0.26458333,0,0,0.26458333,22.714479,4.5421017)">
      <title
         id="title972">Down Vertical Head-to-Tail Mark, DVHT</title>
    </polygon>
  </g>
</svg>
