<?xml version="1.0" encoding="UTF-8" standalone="no"?>
<svg
   xmlns:dc="http://purl.org/dc/elements/1.1/"
   xmlns:cc="http://creativecommons.org/ns#"
   xmlns:rdf="http://www.w3.org/1999/02/22-rdf-syntax-ns#"
   xmlns:svg="http://www.w3.org/2000/svg"
   xmlns="http://www.w3.org/2000/svg"
   width="160"
   height="80"
   viewBox="0 0 42.333332 21.166667"
   version="1.1"
   id="svg8">
  <defs
     id="defs2" />
  <metadata
     id="metadata5">
    <rdf:RDF>
      <cc:Work
         rdf:about="">
        <dc:format>image/svg+xml</dc:format>
        <dc:type
           rdf:resource="http://purl.org/dc/dcmitype/StillImage" />
        <dc:title></dc:title>
      </cc:Work>
    </rdf:RDF>
  </metadata>
  <g
     id="layer1">
    <g
       id="g983"
       transform="matrix(0,-0.26458333,0.26458333,0,12.63015,14.381957)">
      <title
         id="title979">Right Horizontal Mark, RH</title>
      <polygon
         points="8,25 4,25 4,4 0,0 12,0 8,4 "
         style="fill:#000000"
         id="polygon981" />
    </g>
    <g
       id="g1025"
       transform="matrix(0.26458333,0,0,0.26458333,18.377203,11.348772)">
      <title
         id="title1021">Down Vertical Mark, DV</title>
      <polygon
         points="12,0 8,4 8,30 4,30 4,4 0,0 "
         style="fill:#000000"
         id="polygon1023"
         transform="translate(-2.1001434,-1.1999981)" />
    </g>
    <circle
       style="fill:#000000;fill-rule:evenodd;stroke-width:0.264583"
       id="circle1017"
       cx="19.460104"
       cy="12.779375"
       r="0.79374999">
      <title
         id="title1015">Right 2 Touch Connector, R2T</title>
    </circle>
    <g
       id="g857"
       transform="matrix(0,-0.26458333,0.26458333,0,6.9416083,16.078994)">
      <title
         id="title853">Right Horizontal Mark, RH</title>
      <polygon
         points="8,4 8,40 4,40 4,4 0,0 12,0 "
         style="fill:#000000"
         id="polygon855" />
    </g>
    <circle
       style="fill:#000000;fill-rule:evenodd;stroke-width:0.264583"
       id="circle1007"
       cx="12.824618"
       cy="14.007833"
       r="0.79374999">
      <title
         id="title1009">Horizontal 2 Touch Connector, H2T</title>
    </circle>
    <g
       id="g1061"
       transform="matrix(0,-0.26458333,0.26458333,0,8.3438999,19.412744)">
      <title
         id="title1057">Right Horizontal Mark, RH</title>
      <polygon
         points="12,0 8,4 8,40 4,40 4,4 0,0 "
         style="fill:#000000"
         id="polygon1059" />
    </g>
    <g
       id="g1081"
       transform="matrix(0.26458333,0,0,0.26458333,8.4761915,15.020661)">
      <title
         id="title1077">Down Vertical Mark, DV</title>
      <polygon
         points="4,4 0,0 12,0 8,4 8,15 4,15 "
         style="fill:#000000"
         id="polygon1079" />
    </g>
    <circle
       style="fill:#000000;fill-rule:evenodd;stroke-width:0.264583"
       id="path839"
       cx="19.348715"
       cy="17.84059"
       r="0.79374999">
      <title
         id="title1019">Right 2 Touch Connector, R2T</title>
    </circle>
    <circle
       style="fill:#000000;fill-rule:evenodd;stroke-width:0.264583"
       id="circle1096"
       cx="10.09941"
       cy="15.119089"
       r="0.79374999">
      <title
         id="title1094">Top 2 Touch Connector, T2T</title>
    </circle>
    <circle
       style="fill:#000000;fill-rule:evenodd;stroke-width:0.264583"
       id="circle1100"
       cx="10.046494"
       cy="17.976589"
       r="0.79374999">
      <title
         id="title1098">2 Cross Connector, 2C</title>
    </circle>
  </g>
</svg>
