<?xml version="1.0" encoding="UTF-8" standalone="no"?>
<svg
   xmlns:dc="http://purl.org/dc/elements/1.1/"
   xmlns:cc="http://creativecommons.org/ns#"
   xmlns:rdf="http://www.w3.org/1999/02/22-rdf-syntax-ns#"
   xmlns:svg="http://www.w3.org/2000/svg"
   xmlns="http://www.w3.org/2000/svg"
   width="160"
   height="80"
   viewBox="0 0 42.333332 21.166667"
   version="1.1"
   id="svg8">
  <defs
     id="defs2" />
  <metadata
     id="metadata5">
    <rdf:RDF>
      <cc:Work
         rdf:about="">
        <dc:format>image/svg+xml</dc:format>
        <dc:type
           rdf:resource="http://purl.org/dc/dcmitype/StillImage" />
        <dc:title></dc:title>
      </cc:Work>
    </rdf:RDF>
  </metadata>
  <g
     id="layer1">
    <g
       id="g944"
       transform="matrix(0,-0.26458333,0.26458333,0,17.294225,17.970764)">
      <title
         id="title940">Right Horizontal Mark, RH</title>
      <polygon
         points="12,0 8,4 8,40 4,40 4,4 0,0 "
         style="fill:#000000"
         id="polygon942" />
    </g>
    <g
       id="g988"
       transform="matrix(0,-0.26458333,0.26458333,0,17.294225,12.493887)">
      <title
         id="title984">Right Horizontal Mark, RH</title>
      <polygon
         points="12,0 8,4 8,40 4,40 4,4 0,0 "
         style="fill:#000000"
         id="polygon986" />
    </g>
    <g
       id="g1008"
       transform="matrix(0.26458333,0,0,0.26458333,25.760892,9.2395141)">
      <title
         id="title1004">Down Vertical Mark, DV</title>
      <polygon
         points="8,25 4,25 4,4 0,0 12,0 8,4 "
         style="fill:#000000"
         id="polygon1006" />
    </g>
    <g
       id="g1025"
       transform="matrix(0.26458333,0,0,0.26458333,20.945477,9.2395141)">
      <title
         id="title1021">Down Vertical Mark, DV</title>
      <polygon
         points="8,25 4,25 4,4 0,0 12,0 8,4 "
         style="fill:#000000"
         id="polygon1023" />
    </g>
    <circle
       style="fill:#000000;fill-rule:evenodd;stroke-width:0.264583"
       id="path839"
       cx="22.536833"
       cy="16.158482"
       r="0.79374999">
      <title
         id="title976">Bottom 2 Touch Connector, B2T</title>
    </circle>
    <circle
       style="fill:#000000;fill-rule:evenodd;stroke-width:0.264583"
       id="circle972"
       cx="27.16704"
       cy="10.961309"
       r="0.79374999">
      <title
         id="title974">Right 2 Touch Connector, R2T</title>
    </circle>
    <circle
       style="fill:#000000;fill-rule:evenodd;stroke-width:0.264583"
       id="circle968"
       cx="27.214287"
       cy="16.300222"
       r="0.79374999">
      <title
         id="title970">Southeast Corner Connector, SEC</title>
    </circle>
    <circle
       style="fill:#000000;fill-rule:evenodd;stroke-width:0.264583"
       id="circle1029"
       cx="22.584078"
       cy="11.008556"
       r="0.79374999">
      <title
         id="title1027">2 Cross Connector, 2C</title>
    </circle>
  </g>
</svg>
