<?xml version="1.0" encoding="UTF-8" standalone="no"?>
<svg
   xmlns:dc="http://purl.org/dc/elements/1.1/"
   xmlns:cc="http://creativecommons.org/ns#"
   xmlns:rdf="http://www.w3.org/1999/02/22-rdf-syntax-ns#"
   xmlns:svg="http://www.w3.org/2000/svg"
   xmlns="http://www.w3.org/2000/svg"
   width="160"
   height="80"
   viewBox="0 0 42.333332 21.166667"
   version="1.1"
   id="svg8">
  <defs
     id="defs2" />
  <metadata
     id="metadata5">
    <rdf:RDF>
      <cc:Work
         rdf:about="">
        <dc:format>image/svg+xml</dc:format>
        <dc:type
           rdf:resource="http://purl.org/dc/dcmitype/StillImage" />
        <dc:title></dc:title>
      </cc:Work>
    </rdf:RDF>
  </metadata>
  <g
     id="layer1">
    <polygon
       points="12,0 8,4 8,18 12,18 8,22 8,40 4,40 4,22 0,18 4,18 4,4 0,0 "
       style="fill:#ff0000"
       id="polygon862"
       transform="matrix(0,-0.26458333,0.26458333,0,13.134672,9.0997765)">
      <title
         id="title841">Right Horizontal Head-to-Tail Mark, RHHT</title>
    </polygon>
    <polygon
       points="4,40 4,22 0,18 4,18 4,4 0,0 12,0 8,4 8,18 12,18 8,22 8,40 "
       style="fill:#ff0000"
       id="polygon854"
       transform="matrix(0,-0.26458333,0.26458333,0,13.134672,12.063149)">
      <title
         id="title852">Right Horizontal Head-to-Tail Mark, RHHT</title>
    </polygon>
    <polygon
       points="0,6 6,0 6,12 "
       style="fill:#ff0000"
       id="polygon868"
       transform="matrix(0.396875,0,0,0.396875,9.9597103,6.6921062)">
      <title
         id="title882">Heel Mark, HE</title>
    </polygon>
  </g>
</svg>
