<?xml version="1.0" encoding="UTF-8" standalone="no"?>
<svg
   xmlns:dc="http://purl.org/dc/elements/1.1/"
   xmlns:cc="http://creativecommons.org/ns#"
   xmlns:rdf="http://www.w3.org/1999/02/22-rdf-syntax-ns#"
   xmlns:svg="http://www.w3.org/2000/svg"
   xmlns="http://www.w3.org/2000/svg"
   width="160"
   height="80"
   viewBox="0 0 42.333332 21.166667"
   version="1.1"
   id="svg8">
  <defs
     id="defs2" />
  <metadata
     id="metadata5">
    <rdf:RDF>
      <cc:Work
         rdf:about="">
        <dc:format>image/svg+xml</dc:format>
        <dc:type
           rdf:resource="http://purl.org/dc/dcmitype/StillImage" />
        <dc:title></dc:title>
      </cc:Work>
    </rdf:RDF>
  </metadata>
  <g
     id="layer1">
    <polygon
       points="0,0 12,0 8,4 8,35 12,40 0,40 4,35 4,4 "
       style="fill:#ff0000"
       id="polygon866"
       transform="matrix(0,-0.26458333,0.26458333,0,15.166295,7.8713545)">
      <title
         id="title880">Right Horizontal Barbell Mark, RHBB</title>
    </polygon>
    <polygon
       points="0,6 6,0 6,12 "
       style="fill:#ff0000"
       id="polygon897"
       transform="matrix(0.396875,0,0,0.396875,11.944047,6.7374257)">
      <title
         id="title933">Heel Mark, HE</title>
    </polygon>
    <g
       id="g953"
       transform="matrix(0.26458333,0,0,0.26458333,28.225372,12.142485)">
      <title
         id="title949">Right Horizontal Mark, RH</title>
      <polygon
         points="4,4 0,0 12,0 8,4 8,30 4,30 "
         style="fill:#ff0000"
         id="polygon951"
         transform="rotate(-90,-22.55,26.807142)" />
    </g>
    <g
       id="g857"
       transform="matrix(-0.22913588,-0.13229167,0.13229167,-0.22913588,24.620353,13.018299)">
      <title
         id="title853">Right Up Diagonal Mark, RUD</title>
      <polygon
         points="4,30 4,4 0,0 12,0 8,4 8,30 "
         style="fill:#ff0000"
         id="polygon855" />
    </g>
    <circle
       style="fill:#008000;fill-rule:evenodd;stroke-width:0.264583"
       id="path839"
       cx="23.60639"
       cy="11.660452"
       r="0.79374999">
      <title
         id="title1006">Other 2 Touch Connector, O2T</title>
    </circle>
    <circle
       style="fill:#008000;fill-rule:evenodd;stroke-width:0.264583"
       id="circle1010"
       cx="25.513391"
       cy="7.2287941"
       r="0.79374999">
      <title
         id="title1008">Other 2 Touch Connector, O2T</title>
    </circle>
    <g
       id="g1030"
       transform="matrix(0.26458333,0,0,0.26458333,19.957143,6.7090772)">
      <title
         id="title1026">Down Vertical Mark, DV</title>
      <polygon
         points="8,20 4,20 4,4 0,0 12,0 8,4 "
         style="fill:#ff0000"
         id="polygon1028" />
    </g>
    <circle
       style="fill:#008000;fill-rule:evenodd;stroke-width:0.264583"
       id="circle1045"
       cx="21.433027"
       cy="11.518711"
       r="0.79374999">
      <title
         id="title1043">Bottom 2 Touch Connector, B2T</title>
    </circle>
    <circle
       style="fill:#008000;fill-rule:evenodd;stroke-width:0.264583"
       id="circle1049"
       cx="21.591888"
       cy="6.7563238"
       r="0.79374999">
      <title
         id="title1047">Top 2 Touch Connector, T2T</title>
    </circle>
  </g>
</svg>
