<?xml version="1.0" encoding="UTF-8" standalone="no"?>
<svg
   xmlns:dc="http://purl.org/dc/elements/1.1/"
   xmlns:cc="http://creativecommons.org/ns#"
   xmlns:rdf="http://www.w3.org/1999/02/22-rdf-syntax-ns#"
   xmlns:svg="http://www.w3.org/2000/svg"
   xmlns="http://www.w3.org/2000/svg"
   width="160"
   height="80"
   viewBox="0 0 42.333332 21.166667"
   version="1.1"
   id="svg8">
  <defs
     id="defs2" />
  <metadata
     id="metadata5">
    <rdf:RDF>
      <cc:Work
         rdf:about="">
        <dc:format>image/svg+xml</dc:format>
        <dc:type
           rdf:resource="http://purl.org/dc/dcmitype/StillImage" />
        <dc:title></dc:title>
      </cc:Work>
    </rdf:RDF>
  </metadata>
  <g
     id="layer1">
    <polygon
       points="12,25 0,25 4,20 4,4 0,0 12,0 8,4 8,20 "
       style="fill:#ff0000"
       id="polygon851"
       transform="matrix(0,-0.26458333,0.26458333,0,10.730706,11.320387)">
      <title
         id="title915">Right Horizontal Barbell Mark, RHBB</title>
    </polygon>
    <polygon
       points="8,4 8,20 12,25 0,25 4,20 4,4 0,0 12,0 "
       style="fill:#ff0000"
       id="polygon939"
       transform="matrix(0,-0.26458333,0.26458333,0,19.832373,11.320387)">
      <title
         id="title937">Right Horizontal Barbell Mark, RHBB</title>
    </polygon>
    <g
       id="g959"
       transform="matrix(0.26458333,0,0,0.26458333,17.029642,6.2232645)">
      <title
         id="title955" />
      <polygon
         points="4,4 0,0 12,0 8,4 8,25 4,25 "
         style="fill:#ff0000"
         id="polygon957" />
    </g>
  </g>
</svg>
