<?xml version="1.0" encoding="UTF-8" standalone="no"?>
<svg
   xmlns:dc="http://purl.org/dc/elements/1.1/"
   xmlns:cc="http://creativecommons.org/ns#"
   xmlns:rdf="http://www.w3.org/1999/02/22-rdf-syntax-ns#"
   xmlns:svg="http://www.w3.org/2000/svg"
   xmlns="http://www.w3.org/2000/svg"
   width="160"
   height="80"
   viewBox="0 0 42.333332 21.166667"
   version="1.1"
   id="svg8">
  <defs
     id="defs2" />
  <metadata
     id="metadata5">
    <rdf:RDF>
      <cc:Work
         rdf:about="">
        <dc:format>image/svg+xml</dc:format>
        <dc:type
           rdf:resource="http://purl.org/dc/dcmitype/StillImage" />
        <dc:title></dc:title>
      </cc:Work>
    </rdf:RDF>
  </metadata>
  <g
     id="layer1">
    <g
       id="g857"
       transform="matrix(0.26458333,0,0,0.26458333,23.736904,4.4412203)">
      <title
         id="title853">Down Vertical Mark, DV</title>
      <polygon
         points="0,0 12,0 8,4 8,40 4,40 4,4 "
         style="fill:#ff0000"
         id="polygon855" />
    </g>
    <polygon
       points="0,40 4,35 4,4 0,0 12,0 8,4 8,35 12,40 "
       style="fill:#ff0000"
       id="polygon875"
       transform="matrix(0,-0.26458333,0.26458333,0,11.497999,11.698363)">
      <title
         id="title915">Right Horizontal Barbell Mark, RHBB</title>
    </polygon>
    <polygon
       points="0,6 6,0 6,12 "
       style="fill:#ff0000"
       id="polygon901"
       transform="matrix(0.26458333,0,0,0.26458333,22.636956,5.3483631)">
      <title
         id="title917">Heel Mark, HE</title>
    </polygon>
    <polygon
       points="8,4 8,20 4,20 4,4 0,0 12,0 "
       style="fill:#ff0000"
       id="polygon855-0"
       transform="matrix(0,-0.11024305,0.11024305,0,22.636956,10.110786)">
      <title
         id="title971">Right Horizontal Mark, RH</title>
    </polygon>
    <polygon
       points="8,20 4,20 4,4 0,0 12,0 8,4 "
       style="fill:#ff0000"
       id="polygon943"
       transform="matrix(0,-0.11024305,0.11024305,0,22.636956,11.327872)">
      <title
         id="title969">Right Horizontal Mark, RH</title>
    </polygon>
    <circle
       style="fill:#008000;fill-rule:evenodd;stroke-width:0.132291"
       id="path839"
       cx="25.315069"
       cy="10.628577"
       r="0.39687499">
      <title
         id="title963">Right 2 Touch Connector, R2T</title>
    </circle>
    <circle
       style="fill:#008000;fill-rule:evenodd;stroke-width:0.132291"
       id="circle967"
       cx="25.28861"
       cy="9.437952"
       r="0.39687499">
      <title
         id="title965">Right 2 Touch Connector, R2T</title>
    </circle>
  </g>
</svg>
