<?xml version="1.0" encoding="UTF-8" standalone="no"?>
<svg
   xmlns:dc="http://purl.org/dc/elements/1.1/"
   xmlns:cc="http://creativecommons.org/ns#"
   xmlns:rdf="http://www.w3.org/1999/02/22-rdf-syntax-ns#"
   xmlns:svg="http://www.w3.org/2000/svg"
   xmlns="http://www.w3.org/2000/svg"
   width="160"
   height="80"
   viewBox="0 0 42.333332 21.166667"
   version="1.1"
   id="svg8">
  <defs
     id="defs2" />
  <metadata
     id="metadata5">
    <rdf:RDF>
      <cc:Work
         rdf:about="">
        <dc:format>image/svg+xml</dc:format>
        <dc:type
           rdf:resource="http://purl.org/dc/dcmitype/StillImage" />
        <dc:title></dc:title>
      </cc:Work>
    </rdf:RDF>
  </metadata>
  <g
     id="layer1">
    <g
       id="g25"
       transform="matrix(0.13229166,-0.22913589,0.22913589,0.13229166,13.399694,7.3732244)">
      <title
         id="title21">Right Down Diagonal Mark, RDD</title>
      <polygon
         points="4,72 4,4 0,0 12,0 8,4 8,72 "
         style="fill:#ff0000"
         id="polygon23" />
    </g>
    <g
       id="g42"
       transform="matrix(-0.13229167,-0.22913588,0.22913588,-0.13229167,15.157235,17.664697)">
      <title
         id="title38">Right Up Diagonal Mark, RUD</title>
      <polygon
         points="0,0 12,0 8,4 8,72 4,72 4,4 "
         style="fill:#ff0000"
         id="polygon40" />
    </g>
    <polygon
       points="6,0 6,12 0,6 "
       style="fill:#ff0000"
       id="polygon56"
       transform="matrix(0.26458333,0,0,0.26458333,16.528787,9.6100443)">
      <title
         id="title70">Heel Mark, HE</title>
    </polygon>
    <polygon
       points="6,0 6,12 0,6 "
       style="fill:#ff0000"
       id="polygon74"
       transform="matrix(0.26458333,0,0,0.26458333,15.020662,8.0225443)">
      <title
         id="title72">Heel Mark, HE</title>
    </polygon>
    <polygon
       points="6,0 6,12 0,6 "
       style="fill:#ff0000"
       id="polygon78"
       transform="matrix(0.26458333,0,0,0.26458333,15.020662,11.118054)">
      <title
         id="title76">Heel Mark, HE</title>
    </polygon>
    <g
       id="g857"
       transform="matrix(0.26458333,0,0,0.26458333,29.088556,5.5393166)">
      <title
         id="title853">Down Vertical Mark, DV</title>
      <polygon
         points="0,0 12,0 8,4 8,40 4,40 4,4 "
         style="fill:#ff0000"
         id="polygon855" />
    </g>
    <g
       id="g108"
       transform="matrix(0.26458333,0,0,0.26458333,12.657931,5.5393166)">
      <title
         id="title104">Down Vertical Mark, DV</title>
      <polygon
         points="4,4 0,0 12,0 8,4 8,40 4,40 "
         style="fill:#ff0000"
         id="polygon106" />
    </g>
    <g
       id="g128"
       transform="matrix(0,-0.26458333,0.26458333,0,7.1948145,12.703704)">
      <title
         id="title124">Right Horizontal Mark, RH</title>
      <polygon
         points="12,0 8,4 8,25 4,25 4,4 0,0 "
         style="fill:#ff0000"
         id="polygon126" />
    </g>
    <circle
       style="fill:#008000;fill-rule:evenodd;stroke-width:0.264583"
       id="path839"
       cx="23.340031"
       cy="11.244791"
       r="0.79374999">
      <title
         id="title187">2 Cross Connector, 2C</title>
    </circle>
    <circle
       style="fill:#008000;fill-rule:evenodd;stroke-width:0.264583"
       id="circle169"
       cx="30.474329"
       cy="7.0870523"
       r="0.79374999">
      <title
         id="title171">Other 2 Touch Connector, O2T</title>
    </circle>
    <circle
       style="fill:#008000;fill-rule:evenodd;stroke-width:0.264583"
       id="circle175"
       cx="30.663317"
       cy="15.308035"
       r="0.79374999">
      <title
         id="title173">Other 2 Touch Connector, O2T</title>
    </circle>
    <circle
       style="fill:#008000;fill-rule:evenodd;stroke-width:0.264583"
       id="circle179"
       cx="14.457587"
       cy="6.3311005"
       r="0.79374999">
      <title
         id="title177">Other 2 Touch Connector, O2T</title>
    </circle>
    <circle
       style="fill:#008000;fill-rule:evenodd;stroke-width:0.264583"
       id="circle183"
       cx="14.504834"
       cy="16.158482"
       r="0.79374999">
      <title
         id="title181">Other 2 Touch Connector, O2T</title>
    </circle>
    <circle
       style="fill:#008000;fill-rule:evenodd;stroke-width:0.264583"
       id="circle185"
       cx="14.221355"
       cy="11.244791"
       r="0.79374999">
      <title
         id="title189">Right 2 Touch Connector, R2T</title>
    </circle>
  </g>
</svg>
