<?xml version="1.0" encoding="UTF-8" standalone="no"?>
<svg
   xmlns:dc="http://purl.org/dc/elements/1.1/"
   xmlns:cc="http://creativecommons.org/ns#"
   xmlns:rdf="http://www.w3.org/1999/02/22-rdf-syntax-ns#"
   xmlns:svg="http://www.w3.org/2000/svg"
   xmlns="http://www.w3.org/2000/svg"
   width="160"
   height="80"
   viewBox="0 0 42.333332 21.166667"
   version="1.1"
   id="svg8">
  <defs
     id="defs2" />
  <metadata
     id="metadata5">
    <rdf:RDF>
      <cc:Work
         rdf:about="">
        <dc:format>image/svg+xml</dc:format>
        <dc:type
           rdf:resource="http://purl.org/dc/dcmitype/StillImage" />
        <dc:title></dc:title>
      </cc:Work>
    </rdf:RDF>
  </metadata>
  <g
     id="layer1">
    <g
       id="g857"
       transform="matrix(0.26458333,0,0,0.26458333,17.653378,4.0954854)">
      <title
         id="title853">Down Vertical Mark, DV</title>
      <polygon
         points="0,0 12,0 8,4 8,40 4,40 4,4 "
         style="fill:#ff0000"
         id="polygon855" />
    </g>
    <g
       id="g926"
       transform="matrix(0.18708867,-0.18708867,0.18708867,0.18708867,12.839083,6.343447)">
      <title
         id="title922">Right Down Diagonal Mark, RDD</title>
      <polygon
         points="8,25 4,25 4,4 0,0 12,0 8,4 "
         style="fill:#ff0000"
         id="polygon924" />
    </g>
    <g
       id="g943"
       transform="matrix(-0.18708867,-0.18708867,0.18708867,-0.18708867,15.084147,14.949526)">
      <title
         id="title939">Right Up Diagonal Mark, RUD</title>
      <polygon
         points="12,0 8,4 8,25 4,25 4,4 0,0 "
         style="fill:#ff0000"
         id="polygon941" />
    </g>
    <g
       id="g963"
       transform="matrix(0.26458333,0,0,0.26458333,12.483833,6.0898787)">
      <title
         id="title959">Down Vertical Mark, DV</title>
      <polygon
         points="8,25 4,25 4,4 0,0 12,0 8,4 "
         style="fill:#ff0000"
         id="polygon961" />
    </g>
    <circle
       style="fill:#008000;fill-rule:evenodd;stroke-width:0.264583"
       id="circle992"
       cx="18.804316"
       cy="9.5438986"
       r="0.79374999">
      <title
         id="title994">3 Touch Connector, 3T</title>
    </circle>
    <g
       id="g1006"
       transform="matrix(-0.15175877,-0.21673398,0.21673398,-0.15175877,9.7456425,10.337966)">
      <title
         id="title1002">Right Up Diagonal Mark, RUD</title>
      <polygon
         points="8,4 8,25 4,25 4,4 0,0 12,0 "
         style="fill:#ff0000"
         id="polygon1004" />
    </g>
    <g
       id="g1012"
       transform="matrix(0.15175877,-0.21673398,0.21673398,0.15175877,7.8187021,11.205057)">
      <title
         id="title1008">Right Down Diagonal Mark, RDD</title>
      <polygon
         points="0,0 12,0 8,4 8,25 4,25 4,4 "
         style="fill:#ff0000"
         id="polygon1010" />
    </g>
    <circle
       style="fill:#008000;fill-rule:evenodd;stroke-width:0.264583"
       id="path839"
       cx="14.221354"
       cy="13.276413"
       r="0.79374999">
      <title
         id="title996">3 Touch Connector, 3T</title>
    </circle>
    <circle
       style="fill:#008000;fill-rule:evenodd;stroke-width:0.264583"
       id="circle1000"
       cx="14.032366"
       cy="6.1421127"
       r="0.79374999">
      <title
         id="title998">3 Touch Connector, 3T</title>
    </circle>
    <circle
       style="fill:#008000;fill-rule:evenodd;stroke-width:0.264583"
       id="circle1016"
       cx="9.1469078"
       cy="9.5438986"
       r="0.79374999">
      <title
         id="title1014">Left Middle Corner Connector, LMC</title>
    </circle>
  </g>
</svg>
