<?xml version="1.0" encoding="UTF-8" standalone="no"?>
<svg
   xmlns:dc="http://purl.org/dc/elements/1.1/"
   xmlns:cc="http://creativecommons.org/ns#"
   xmlns:rdf="http://www.w3.org/1999/02/22-rdf-syntax-ns#"
   xmlns:svg="http://www.w3.org/2000/svg"
   xmlns="http://www.w3.org/2000/svg"
   width="160"
   height="80"
   viewBox="0 0 42.333332 21.166667"
   version="1.1"
   id="svg8">
  <defs
     id="defs2" />
  <metadata
     id="metadata5">
    <rdf:RDF>
      <cc:Work
         rdf:about="">
        <dc:format>image/svg+xml</dc:format>
        <dc:type
           rdf:resource="http://purl.org/dc/dcmitype/StillImage" />
        <dc:title></dc:title>
      </cc:Work>
    </rdf:RDF>
  </metadata>
  <g
     id="layer1">
    <g
       id="g857"
       transform="matrix(-0.18708867,-0.18708867,0.18708867,-0.18708867,14.597353,10.989416)">
      <title
         id="title853">Right Up Diagonal Mark, RUD</title>
      <polygon
         points="12,0 8,4 8,35 4,35 4,4 0,0 "
         style="fill:#ff0000"
         id="polygon855" />
    </g>
    <g
       id="g904"
       transform="matrix(0.18708867,-0.18708867,0.18708867,0.18708867,11.770302,12.237105)">
      <title
         id="title900">Right Down Diagonal Mark, RDD</title>
      <polygon
         points="12,0 8,4 8,35 4,35 4,4 0,0 "
         style="fill:#ff0000"
         id="polygon902"
         transform="translate(3.5355286,-3.5355286)" />
    </g>
    <g
       id="g910"
       transform="matrix(0.18708867,-0.18708867,0.18708867,0.18708867,18.040831,4.6171075)">
      <title
         id="title906">Right Down Diagonal Mark, RDD</title>
      <polygon
         points="8,4 8,35 4,35 4,4 0,0 12,0 "
         style="fill:#ff0000"
         id="polygon908" />
    </g>
    <g
       id="g916"
       transform="matrix(-0.18708867,-0.18708867,0.18708867,-0.18708867,19.88902,17.471706)">
      <title
         id="title912">Right Up Diagonal Mark, RUD</title>
      <polygon
         points="0,0 12,0 8,4 8,35 4,35 4,4 "
         style="fill:#ff0000"
         id="polygon914" />
    </g>
    <circle
       style="fill:#008000;fill-rule:evenodd;stroke-width:0.264583"
       id="path839"
       cx="19.233194"
       cy="15.803164"
       r="0.79374999">
      <title
         id="title1016">Bottom Middle Corner Connector, BMC</title>
    </circle>
    <circle
       style="fill:#008000;fill-rule:evenodd;stroke-width:0.264583"
       id="circle1006"
       cx="19.61117"
       cy="4.0859017"
       r="0.79374999">
      <title
         id="title1008">Top Middle Corner Connector, TMC</title>
    </circle>
    <circle
       style="fill:#008000;fill-rule:evenodd;stroke-width:0.264583"
       id="circle1010"
       cx="13.752541"
       cy="9.9445333"
       r="0.79374999">
      <title
         id="title1018">Left Middle Corner Connector, LMC</title>
    </circle>
    <circle
       style="fill:#008000;fill-rule:evenodd;stroke-width:0.264583"
       id="circle1012"
       cx="25.517048"
       cy="9.7082987"
       r="0.79374999">
      <title
         id="title1014">Right Middle Corner Connector, RMC</title>
    </circle>
    <polygon
       points="12,40 0,40 4,35 4,4 0,0 12,0 8,4 8,35 "
       style="fill:#ff0000"
       id="polygon1016"
       transform="matrix(0,-0.16867187,0.16867187,0,16.045088,11.075648)" />
  </g>
</svg>
