<?xml version="1.0" encoding="UTF-8" standalone="no"?>
<svg
   xmlns:dc="http://purl.org/dc/elements/1.1/"
   xmlns:cc="http://creativecommons.org/ns#"
   xmlns:rdf="http://www.w3.org/1999/02/22-rdf-syntax-ns#"
   xmlns:svg="http://www.w3.org/2000/svg"
   xmlns="http://www.w3.org/2000/svg"
   width="160"
   height="80"
   viewBox="0 0 42.333332 21.166667"
   version="1.1"
   id="svg8">
  <defs
     id="defs2" />
  <metadata
     id="metadata5">
    <rdf:RDF>
      <cc:Work
         rdf:about="">
        <dc:format>image/svg+xml</dc:format>
        <dc:type
           rdf:resource="http://purl.org/dc/dcmitype/StillImage" />
        <dc:title></dc:title>
      </cc:Work>
    </rdf:RDF>
  </metadata>
  <g
     id="layer1">
    <polygon
       points="0,6 6,0 6,12 "
       style="fill:#ff0000"
       id="polygon923"
       transform="matrix(0.26458333,0,0,0.26458333,17.551664,11.824984)">
      <title
         id="title921">Heel Mark, HE</title>
    </polygon>
    <polygon
       points="6,12 0,6 6,0 "
       style="fill:#ff0000"
       id="polygon927"
       transform="matrix(0.26458333,0,0,0.26458333,17.392914,5.8718601)">
      <title
         id="title925">Heel Mark, HE</title>
    </polygon>
    <polygon
       points="6,0 6,12 0,6 "
       style="fill:#ff0000"
       id="polygon931"
       transform="matrix(0.26458333,0,0,0.26458333,10.275717,5.8718601)">
      <title
         id="title929">Heel Mark, HE</title>
    </polygon>
    <polygon
       points="6,0 6,12 0,6 "
       style="fill:#ff0000"
       id="polygon935"
       transform="matrix(0.26458333,0,0,0.26458333,10.275717,11.930818)">
      <title
         id="title933">Heel Mark, HE</title>
    </polygon>
    <g
       id="g962"
       transform="matrix(0,-0.26458333,0.26458333,0,12.520084,11.972433)">
      <title
         id="title958">Right Horizontal Mark, RH</title>
      <polygon
         points="4,4 0,0 12,0 8,4 8,25 4,25 "
         style="fill:#ff0000"
         id="polygon960" />
    </g>
  </g>
</svg>
