<?xml version="1.0" encoding="UTF-8" standalone="no"?>
<svg
   xmlns:dc="http://purl.org/dc/elements/1.1/"
   xmlns:cc="http://creativecommons.org/ns#"
   xmlns:rdf="http://www.w3.org/1999/02/22-rdf-syntax-ns#"
   xmlns:svg="http://www.w3.org/2000/svg"
   xmlns="http://www.w3.org/2000/svg"
   width="160"
   height="80"
   viewBox="0 0 42.333332 21.166667"
   version="1.1"
   id="svg8">
  <defs
     id="defs2" />
  <metadata
     id="metadata5">
    <rdf:RDF>
      <cc:Work
         rdf:about="">
        <dc:format>image/svg+xml</dc:format>
        <dc:type
           rdf:resource="http://purl.org/dc/dcmitype/StillImage" />
        <dc:title></dc:title>
      </cc:Work>
    </rdf:RDF>
  </metadata>
  <g
     id="layer1">
    <polygon
       points="4,4 0,0 12,0 8,4 8,18 12,18 8,22 8,40 4,40 4,22 0,18 4,18 "
       style="fill:#ff0000"
       id="polygon851"
       transform="matrix(0.26458333,0,0,0.26458333,21.988765,4.8191964)">
      <title
         id="title992">Down Vertical Head-to-Tail Mark, DVHT</title>
    </polygon>
    <g
       id="g857"
       transform="matrix(0,-0.26458333,0.26458333,0,12.463765,7.9941964)">
      <title
         id="title853">Right Horizontal Mark, RH</title>
      <polygon
         points="4,4 0,0 12,0 8,4 8,40 4,40 "
         style="fill:#ff0000"
         id="polygon855" />
    </g>
    <g
       id="g893"
       transform="matrix(0,-0.26458333,0.26458333,0,12.516644,15.719954)">
      <title
         id="title889">Right Horizontal Mark, RH</title>
      <polygon
         points="12,0 8,4 8,40 4,40 4,4 0,0 "
         style="fill:#ff0000"
         id="polygon891" />
    </g>
    <g
       id="g913"
       transform="matrix(0.26458333,0,0,0.26458333,16.776437,9.5816963)">
      <title
         id="title909" />
      <polygon
         points="0,0 12,0 8,4 8,22 4,22 4,4 "
         style="fill:#ff0000"
         id="polygon911" />
    </g>
    <polygon
       points="6,12 0,6 6,0 "
       style="fill:#ff0000"
       id="polygon938"
       transform="matrix(0.26458333,0,0,0.26458333,9.368102,4.8191964)">
      <title
         id="title988">Heel Mark, HE</title>
    </polygon>
    <polygon
       points="6,12 0,6 6,0 "
       style="fill:#ff0000"
       id="polygon952"
       transform="matrix(0.26458333,0,0,0.26458333,9.4474778,12.544954)">
      <title
         id="title984">Heel Mark, HE</title>
    </polygon>
    <polygon
       points="6,0 6,12 0,6 "
       style="fill:#ff0000"
       id="polygon954"
       transform="matrix(0.26458333,0,0,0.26458333,6.9339354,4.8191964)">
      <title
         id="title990">Heel Mark, HE</title>
    </polygon>
    <polygon
       points="6,0 6,12 0,6 "
       style="fill:#ff0000"
       id="polygon956"
       transform="matrix(0.26458333,0,0,0.26458333,6.9339354,12.544954)">
      <title
         id="title986">Heel Mark, HE</title>
    </polygon>
    <circle
       style="fill:#008000;fill-rule:evenodd;stroke-width:0.264583"
       id="path839"
       cx="18.284599"
       cy="14.032366"
       r="0.79374999">
      <title
         id="title982">2 Cross Connector, 2C</title>
    </circle>
    <circle
       style="fill:#008000;fill-rule:evenodd;stroke-width:0.264583"
       id="circle974"
       cx="23.434526"
       cy="14.079613"
       r="0.79374999">
      <title
         id="title976">Right 2 Touch Connector, R2T</title>
    </circle>
    <circle
       style="fill:#008000;fill-rule:evenodd;stroke-width:0.264583"
       id="circle980"
       cx="23.52902"
       cy="6.3783479"
       r="0.79374999">
      <title
         id="title978">Right 2 Touch Connector, R2T</title>
    </circle>
  </g>
</svg>
