<?xml version="1.0" encoding="UTF-8" standalone="no"?>
<svg
   xmlns:dc="http://purl.org/dc/elements/1.1/"
   xmlns:cc="http://creativecommons.org/ns#"
   xmlns:rdf="http://www.w3.org/1999/02/22-rdf-syntax-ns#"
   xmlns:svg="http://www.w3.org/2000/svg"
   xmlns="http://www.w3.org/2000/svg"
   width="160"
   height="80"
   viewBox="0 0 42.333332 21.166667"
   version="1.1"
   id="svg8">
  <defs
     id="defs2" />
  <metadata
     id="metadata5">
    <rdf:RDF>
      <cc:Work
         rdf:about="">
        <dc:format>image/svg+xml</dc:format>
        <dc:type
           rdf:resource="http://purl.org/dc/dcmitype/StillImage" />
        <dc:title></dc:title>
      </cc:Work>
    </rdf:RDF>
  </metadata>
  <g
     id="layer1">
    <polygon
       points="0,6 6,0 6,12 "
       style="fill:#ff0000"
       id="polygon923"
       transform="matrix(0.26458333,0,0,0.26458333,11.758782,11.225779)">
      <title
         id="title921">Heel Mark, HE</title>
    </polygon>
    <polygon
       points="0,6 6,0 6,12 "
       style="fill:#ff0000"
       id="polygon927"
       transform="matrix(0.26458333,0,0,0.26458333,11.732324,5.2726543)">
      <title
         id="title925">Heel Mark, HE</title>
    </polygon>
    <polygon
       points="6,12 0,6 6,0 "
       style="fill:#ff0000"
       id="polygon931"
       transform="matrix(0.26458333,0,0,0.26458333,9.7214892,5.2726543)">
      <title
         id="title929">Heel Mark, HE</title>
    </polygon>
    <polygon
       points="6,0 6,12 0,6 "
       style="fill:#ff0000"
       id="polygon935"
       transform="matrix(0.26458333,0,0,0.26458333,9.6421152,11.331613)">
      <title
         id="title933">Heel Mark, HE</title>
    </polygon>
    <g
       id="g857"
       transform="matrix(0.26458333,0,0,0.26458333,12.790771,4.3467262)">
      <title
         id="title853">Down Vertical Mark, DV</title>
      <polygon
         points="8,4 8,40 4,40 4,4 0,0 12,0 "
         style="fill:#ff0000"
         id="polygon855" />
    </g>
    <g
       id="g900"
       transform="matrix(0.26458333,0,0,0.26458333,15.807002,4.3467262)">
      <title
         id="title896">Down Vertical Mark, DV</title>
      <polygon
         points="4,40 4,4 0,0 12,0 8,4 8,40 "
         style="fill:#ff0000"
         id="polygon898" />
    </g>
    <polygon
       points="4,40 4,22 0,18 4,18 4,4 0,0 12,0 8,4 8,18 12,18 8,22 8,40 "
       style="fill:#ff0000"
       id="polygon914"
       transform="matrix(0.26458333,0,0,0.26458333,18.982002,4.3467262)">
      <title
         id="title928">Down Vertical Head-to-Tail Mark, DVHT</title>
    </polygon>
  </g>
</svg>
