<?xml version="1.0" encoding="UTF-8" standalone="no"?>
<svg
   xmlns:dc="http://purl.org/dc/elements/1.1/"
   xmlns:cc="http://creativecommons.org/ns#"
   xmlns:rdf="http://www.w3.org/1999/02/22-rdf-syntax-ns#"
   xmlns:svg="http://www.w3.org/2000/svg"
   xmlns="http://www.w3.org/2000/svg"
   width="160"
   height="80"
   viewBox="0 0 42.333332 21.166667"
   version="1.1"
   id="svg8">
  <defs
     id="defs2" />
  <metadata
     id="metadata5">
    <rdf:RDF>
      <cc:Work
         rdf:about="">
        <dc:format>image/svg+xml</dc:format>
        <dc:type
           rdf:resource="http://purl.org/dc/dcmitype/StillImage" />
        <dc:title></dc:title>
      </cc:Work>
    </rdf:RDF>
  </metadata>
  <g
     id="layer1">
    <g
       id="g940"
       transform="matrix(0.26458333,0,0,0.26458333,24.632708,4.1055011)">
      <title
         id="title936">Down Vertical Mark, DV</title>
      <polygon
         points="4,4 0,0 12,0 8,4 8,40 4,40 "
         style="fill:#ff0000"
         id="polygon938" />
    </g>
    <polygon
       points="0,6 6,0 6,12 "
       style="fill:#ff0000"
       id="polygon991"
       transform="matrix(0.26458333,0,0,0.26458333,11.033125,4.8728304)">
      <title
         id="title1015">Heel Mark, HE</title>
    </polygon>
    <polygon
       points="6,0 6,12 0,6 "
       style="fill:#ff0000"
       id="polygon1005"
       transform="matrix(0.26458333,0,0,0.26458333,11.006667,10.984668)">
      <title
         id="title1021">Heel Mark, HE</title>
    </polygon>
    <polygon
       points="6,0 6,12 0,6 "
       style="fill:#ff0000"
       id="polygon1007"
       transform="matrix(0.26458333,0,0,0.26458333,8.7312502,4.8728304)">
      <title
         id="title1017">Heel Mark, HE</title>
    </polygon>
    <polygon
       points="0,6 6,0 6,12 "
       style="fill:#ff0000"
       id="polygon1011"
       transform="matrix(0.26458333,0,0,0.26458333,8.7312501,10.984668)">
      <title
         id="title1023">Heel Mark, HE</title>
    </polygon>
    <polygon
       points="12,0 8,4 8,35 12,40 0,40 4,35 4,4 0,0 "
       style="fill:#ff0000"
       id="polygon1072"
       transform="matrix(0,-0.26458333,0.26458333,0,13.890625,8.0603423)">
      <title
         id="title1086">Right Horizontal Barbell, RHBB</title>
    </polygon>
    <polygon
       points="0,40 4,35 4,4 0,0 12,0 8,4 8,35 12,40 "
       style="fill:#ff0000"
       id="polygon1090"
       transform="matrix(0,-0.26458333,0.26458333,0,13.890625,14.172142)">
      <title
         id="title1088">Right Horizontal Barbell, RHBB</title>
    </polygon>
  </g>
</svg>
