<?xml version="1.0" encoding="UTF-8" standalone="no"?>
<svg
   xmlns:dc="http://purl.org/dc/elements/1.1/"
   xmlns:cc="http://creativecommons.org/ns#"
   xmlns:rdf="http://www.w3.org/1999/02/22-rdf-syntax-ns#"
   xmlns:svg="http://www.w3.org/2000/svg"
   xmlns="http://www.w3.org/2000/svg"
   width="160"
   height="80"
   viewBox="0 0 42.333332 21.166667"
   version="1.1"
   id="svg8">
  <defs
     id="defs2" />
  <metadata
     id="metadata5">
    <rdf:RDF>
      <cc:Work
         rdf:about="">
        <dc:format>image/svg+xml</dc:format>
        <dc:type
           rdf:resource="http://purl.org/dc/dcmitype/StillImage" />
        <dc:title></dc:title>
      </cc:Work>
    </rdf:RDF>
  </metadata>
  <g
     id="layer1">
    <g
       id="g904"
       transform="matrix(0.26458333,0,0,0.26458333,20.654698,4.9609378)">
      <title
         id="title900">Down Vertical Mark, DV</title>
      <polygon
         points="0,0 12,0 8,4 8,40 4,40 4,4 "
         style="fill:#ff0000"
         id="polygon902" />
    </g>
    <polygon
       points="6,12 0,6 6,0 "
       style="fill:#ff0000"
       id="polygon908"
       transform="matrix(0.26458333,0,0,0.26458333,18.0086,5.8868659)">
      <title
         id="title906">Heel Mark, HE</title>
    </polygon>
    <polygon
       points="6,12 0,6 6,0 "
       style="fill:#ff0000"
       id="polygon912"
       transform="matrix(0.26458333,0,0,0.26458333,18.114433,11.83999)">
      <title
         id="title910">Heel Mark, HE</title>
    </polygon>
    <polygon
       points="0,6 6,0 6,12 "
       style="fill:#ff0000"
       id="polygon916"
       transform="matrix(0.26458333,0,0,0.26458333,19.622558,8.8238539)">
      <title
         id="title914">Heel Mark, HE</title>
    </polygon>
    <polygon
       points="12,18 8,22 8,40 4,40 4,22 0,18 4,18 4,4 0,0 12,0 8,4 8,18 "
       style="fill:#ff0000"
       id="polygon930"
       transform="matrix(0.26458333,0,0,0.26458333,15.019071,4.9609378)">
      <title
         id="title1003">Down Vertical Head-to-Tail Mark, DVHT</title>
    </polygon>
    <g
       id="g962"
       transform="matrix(0,-0.26458333,0.26458333,0,9.4628211,7.6067708)">
      <title
         id="title958">Right Horizontal Mark, RH</title>
      <polygon
         points="12,0 8,4 8,25 4,25 4,4 0,0 "
         style="fill:#ff0000"
         id="polygon960" />
    </g>
    <g
       id="g979"
       transform="matrix(0.13229166,-0.22913589,0.22913589,0.13229166,9.7207916,12.011106)">
      <title
         id="title975">Right Down Diagonal Mark, RDD</title>
      <polygon
         points="4,4 0,0 12,0 8,4 8,25 4,25 "
         style="fill:#ff0000"
         id="polygon977" />
    </g>
    <circle
       style="fill:#008000;fill-rule:evenodd;stroke-width:0.264583"
       id="path839"
       cx="16.583704"
       cy="13.985119"
       r="0.79374999">
      <title
         id="title1001">Other 2 Touch Connector, O2T</title>
    </circle>
    <circle
       style="fill:#008000;fill-rule:evenodd;stroke-width:0.264583"
       id="circle997"
       cx="16.536457"
       cy="5.9361916"
       r="0.79374999">
      <title
         id="title999">Northeast Corner Connector, NEC</title>
    </circle>
  </g>
</svg>
