<?xml version="1.0" encoding="UTF-8" standalone="no"?>
<svg
   xmlns:dc="http://purl.org/dc/elements/1.1/"
   xmlns:cc="http://creativecommons.org/ns#"
   xmlns:rdf="http://www.w3.org/1999/02/22-rdf-syntax-ns#"
   xmlns:svg="http://www.w3.org/2000/svg"
   xmlns="http://www.w3.org/2000/svg"
   width="160"
   height="80"
   viewBox="0 0 42.333332 21.166667"
   version="1.1"
   id="svg8">
  <defs
     id="defs2" />
  <metadata
     id="metadata5">
    <rdf:RDF>
      <cc:Work
         rdf:about="">
        <dc:format>image/svg+xml</dc:format>
        <dc:type
           rdf:resource="http://purl.org/dc/dcmitype/StillImage" />
        <dc:title></dc:title>
      </cc:Work>
    </rdf:RDF>
  </metadata>
  <g
     id="layer1">
    <polygon
       points="0,6 6,0 6,12 "
       style="fill:#ff0000"
       id="polygon923"
       transform="matrix(0.26458333,0,0,0.26458333,12.529911,4.7436014)">
      <title
         id="title921">Heel Mark, HE</title>
    </polygon>
    <polygon
       points="6,12 0,6 6,0 "
       style="fill:#ff0000"
       id="polygon927"
       transform="matrix(0.26458333,0,0,0.26458333,12.529911,8.5537145)">
      <title
         id="title925">Heel Mark, HE</title>
    </polygon>
    <polygon
       points="0,6 6,0 6,12 "
       style="fill:#ff0000"
       id="polygon931"
       transform="matrix(0.26458333,0,0,0.26458333,12.529911,12.548923)">
      <title
         id="title929">Heel Mark, HE</title>
    </polygon>
    <polygon
       points="0,6 6,0 6,12 "
       style="fill:#ff0000"
       id="polygon935"
       transform="matrix(0.26458333,0,0,0.26458333,10.466123,12.548923)">
      <title
         id="title933">Heel Mark, HE</title>
    </polygon>
    <polygon
       points="0,6 6,0 6,12 "
       style="fill:#ff0000"
       id="polygon939"
       transform="matrix(0.26458333,0,0,0.26458333,10.545496,8.5537145)">
      <title
         id="title937">Heel Mark, HE</title>
    </polygon>
    <polygon
       points="0,6 6,0 6,12 "
       style="fill:#ff0000"
       id="polygon943"
       transform="matrix(0.26458333,0,0,0.26458333,10.466123,4.7436014)">
      <title
         id="title941">Heel Mark, HE</title>
    </polygon>
    <g
       id="g999"
       transform="matrix(0.26458333,0,0,0.26458333,14.807217,7.0398065)">
      <title
         id="title995">Down Vertical Mark, DV</title>
      <polygon
         points="4,4 0,0 12,0 8,4 8,25 4,25 "
         style="fill:#ff0000"
         id="polygon997" />
    </g>
    <g
       id="g1016"
       transform="matrix(0,-0.26458333,0.26458333,0,15.997767,9.129977)">
      <title
         id="title1012">Right Horizontal Mark, RH</title>
      <polygon
         points="8,25 4,25 4,4 0,0 12,0 8,4 "
         style="fill:#ff0000"
         id="polygon1014" />
    </g>
    <g
       id="g1022"
       transform="matrix(0.26458333,0,0,0.26458333,21.104226,7.0398065)">
      <title
         id="title1018">Down Vertical Mark, DV</title>
      <polygon
         points="8,25 4,25 4,4 0,0 12,0 8,4 "
         style="fill:#ff0000"
         id="polygon1020" />
    </g>
    <g
       id="g1028"
       transform="matrix(0,-0.26458333,0.26458333,0,15.918392,14.686227)">
      <title
         id="title1024">Right Horizontal Mark, RH</title>
      <polygon
         points="4,25 4,4 0,0 12,0 8,4 8,25 "
         style="fill:#ff0000"
         id="polygon1026" />
    </g>
    <circle
       style="fill:#008000;fill-rule:evenodd;stroke-width:0.264583"
       id="circle965"
       cx="22.725819"
       cy="7.5595241"
       r="0.79374999">
      <title
         id="title963">Northeast Corner Connector, NEC</title>
    </circle>
    <circle
       style="fill:#008000;fill-rule:evenodd;stroke-width:0.264583"
       id="circle1032"
       cx="16.394718"
       cy="7.5595245"
       r="0.79374999">
      <title
         id="title1030">Northwest Corner Connector, NWC</title>
    </circle>
    <circle
       style="fill:#008000;fill-rule:evenodd;stroke-width:0.264583"
       id="circle1036"
       cx="16.394716"
       cy="13.040179"
       r="0.79374999">
      <title
         id="title1034">Southwest Corner Connector, SWC</title>
    </circle>
    <circle
       style="fill:#008000;fill-rule:evenodd;stroke-width:0.264583"
       id="path839"
       cx="22.536831"
       cy="12.992931"
       r="0.79374999">
      <title
         id="title961">Southeast Corner Connector, SEC</title>
    </circle>
  </g>
</svg>
