<?xml version="1.0" encoding="UTF-8" standalone="no"?>
<svg
   xmlns:dc="http://purl.org/dc/elements/1.1/"
   xmlns:cc="http://creativecommons.org/ns#"
   xmlns:rdf="http://www.w3.org/1999/02/22-rdf-syntax-ns#"
   xmlns:svg="http://www.w3.org/2000/svg"
   xmlns="http://www.w3.org/2000/svg"
   width="160"
   height="80"
   viewBox="0 0 42.333332 21.166667"
   version="1.1"
   id="svg8">
  <defs
     id="defs2" />
  <metadata
     id="metadata5">
    <rdf:RDF>
      <cc:Work
         rdf:about="">
        <dc:format>image/svg+xml</dc:format>
        <dc:type
           rdf:resource="http://purl.org/dc/dcmitype/StillImage" />
        <dc:title></dc:title>
      </cc:Work>
    </rdf:RDF>
  </metadata>
  <g
     id="layer1">
    <g
       id="g857"
       transform="matrix(0.26458333,0,0,0.26458333,12.643304,9.4966519)">
      <title
         id="title853">Down Vertical Mark, DV</title>
      <polygon
         points="0,0 28,0 16,4 16,30 12,30 12,4 "
         style="fill:#ff0000"
         id="polygon855"
         transform="translate(0,5.8001421)" />
    </g>
    <g
       id="g888"
       transform="matrix(0.26458333,0,0,0.26458333,11.584971,4.4166896)">
      <title
         id="title884">Down Vertical Mark, DV</title>
      <polygon
         points="8,4 8,25 4,25 4,4 0,0 12,0 "
         style="fill:#ff0000"
         id="polygon886" />
    </g>
    <g
       id="g905"
       transform="matrix(0.26458333,0,0,0.26458333,14.760046,4.4166896)">
      <title
         id="title901">Down Vertical Mark, DV</title>
      <polygon
         points="8,25 4,25 4,4 0,0 12,0 8,4 "
         style="fill:#ff0000"
         id="polygon903" />
    </g>
    <g
       id="g911"
       transform="matrix(0.26458333,0,0,0.26458333,17.802754,4.4166896)">
      <title
         id="title907">Down Vertical Mark, DV</title>
      <polygon
         points="4,25 4,4 0,0 12,0 8,4 8,25 "
         style="fill:#ff0000"
         id="polygon909" />
    </g>
    <circle
       style="fill:#008000;fill-rule:evenodd;stroke-width:0.264583"
       id="path839"
       cx="16.300224"
       cy="11.386533"
       r="0.79374999">
      <title
         id="title929">Vertical 2 Touch Connector, V2T</title>
    </circle>
  </g>
</svg>
