<?xml version="1.0" encoding="UTF-8" standalone="no"?>
<svg
   xmlns:dc="http://purl.org/dc/elements/1.1/"
   xmlns:cc="http://creativecommons.org/ns#"
   xmlns:rdf="http://www.w3.org/1999/02/22-rdf-syntax-ns#"
   xmlns:svg="http://www.w3.org/2000/svg"
   xmlns="http://www.w3.org/2000/svg"
   width="160"
   height="80"
   viewBox="0 0 42.333332 21.166667"
   version="1.1"
   id="svg8">
  <defs
     id="defs2" />
  <metadata
     id="metadata5">
    <rdf:RDF>
      <cc:Work
         rdf:about="">
        <dc:format>image/svg+xml</dc:format>
        <dc:type
           rdf:resource="http://purl.org/dc/dcmitype/StillImage" />
        <dc:title></dc:title>
      </cc:Work>
    </rdf:RDF>
  </metadata>
  <g
     id="layer1">
    <polygon
       points="4,35 4,4 0,0 12,0 8,4 8,35 12,40 0,40 "
       style="fill:#ff0000"
       id="polygon19"
       transform="matrix(0,-0.26458333,0.26458333,0,12.047991,12.926786)">
      <title
         id="title35">Right Horizontal Barbell Mark, RHBB</title>
    </polygon>
    <g
       id="g857"
       transform="matrix(0.26458333,0,0,0.26458333,13.531548,4.9136905)">
      <title
         id="title853">Down Vertical Mark, DV</title>
      <polygon
         points="4,4 0,0 12,0 8,4 8,40 4,40 "
         style="fill:#ff0000"
         id="polygon855" />
    </g>
    <g
       id="g65"
       transform="matrix(0.26458333,0,0,0.26458333,17.659084,4.9136905)">
      <title
         id="title61">Down Vertical Mark, DV</title>
      <polygon
         points="4,4 0,0 12,0 8,4 8,40 4,40 "
         style="fill:#ff0000"
         id="polygon63" />
    </g>
    <polygon
       points="0,6 6,0 6,12 "
       style="fill:#ff0000"
       id="polygon97"
       transform="matrix(0.26458333,0,0,0.26458333,21.790328,7.3894348)">
      <title
         id="title95">Heel Mark, HE</title>
    </polygon>
    <circle
       style="fill:#008000;fill-rule:evenodd;stroke-width:0.264583"
       id="path839"
       cx="19.22954"
       cy="11.339286"
       r="0.79374999">
      <title
         id="title115">2 Cross Connector, 2C</title>
    </circle>
    <circle
       style="fill:#008000;fill-rule:evenodd;stroke-width:0.264583"
       id="circle119"
       cx="15.071801"
       cy="11.292039"
       r="0.79374999">
      <title
         id="title117">2 Cross Connector, 2C</title>
    </circle>
  </g>
</svg>
