<?xml version="1.0" encoding="UTF-8" standalone="no"?>
<svg
   xmlns:dc="http://purl.org/dc/elements/1.1/"
   xmlns:cc="http://creativecommons.org/ns#"
   xmlns:rdf="http://www.w3.org/1999/02/22-rdf-syntax-ns#"
   xmlns:svg="http://www.w3.org/2000/svg"
   xmlns="http://www.w3.org/2000/svg"
   width="160"
   height="80"
   viewBox="0 0 42.333332 21.166667"
   version="1.1"
   id="svg8">
  <defs
     id="defs2" />
  <metadata
     id="metadata5">
    <rdf:RDF>
      <cc:Work
         rdf:about="">
        <dc:format>image/svg+xml</dc:format>
        <dc:type
           rdf:resource="http://purl.org/dc/dcmitype/StillImage" />
        <dc:title></dc:title>
      </cc:Work>
    </rdf:RDF>
  </metadata>
  <g
     id="layer1">
    <g
       id="g857"
       transform="matrix(0,-0.26458333,0.26458333,0,4.3467267,8.9580357)">
      <title
         id="title853">Right Horizontal Mark, RH</title>
      <polygon
         points="8,4 8,40 4,40 4,4 0,0 12,0 "
         style="fill:#ff0000"
         id="polygon855" />
    </g>
    <g
       id="g858"
       transform="matrix(0,-0.26458333,0.26458333,0,4.3467267,13.985079)">
      <title
         id="title854">Right Horizontal Mark, RH</title>
      <polygon
         points="8,40 4,40 4,4 0,0 12,0 8,4 "
         style="fill:#ff0000"
         id="polygon856" />
    </g>
    <g
       id="g864"
       transform="matrix(0,-0.26458333,0.26458333,0,14.744964,8.0054978)">
      <title
         id="title860">Right Horizontal Mark, RH</title>
      <polygon
         points="8,4 8,40 4,40 4,4 0,0 12,0 "
         style="fill:#ff0000"
         id="polygon862" />
    </g>
    <g
       id="g870"
       transform="matrix(0,-0.26458333,0.26458333,0,14.771423,14.964039)">
      <title
         id="title866">Right Horizontal Mark, RH</title>
      <polygon
         points="4,40 4,4 0,0 12,0 8,4 8,40 "
         style="fill:#ff0000"
         id="polygon868" />
    </g>
    <g
       id="g918"
       transform="matrix(-0.09049283,-0.248627,0.248627,-0.09049283,15.829756,13.535303)">
      <title
         id="title914">Right Up Diagonal Mark, RUD</title>
      <polygon
         points="4,25 4,4 0,0 12,0 8,4 8,25 "
         style="fill:#ff0000"
         id="polygon916" />
    </g>
    <g
       id="g935"
       transform="matrix(0.09049283,-0.248627,0.248627,0.09049283,14.744964,9.0903719)">
      <title
         id="title931">Right Down Diagonal Mark, RDD</title>
      <polygon
         points="4,25 4,4 0,0 12,0 8,4 8,25 "
         style="fill:#ff0000"
         id="polygon933" />
    </g>
    <circle
       style="fill:#008000;fill-rule:evenodd;stroke-width:0.264583"
       id="circle898"
       cx="14.93006"
       cy="7.1343007"
       r="0.79374999">
      <title
         id="title896">3 Touch Connector, 3T</title>
    </circle>
    <circle
       style="fill:#008000;fill-rule:evenodd;stroke-width:0.264583"
       id="path839"
       cx="15.024554"
       cy="12.520461"
       r="0.79374999">
      <title
         id="title894">3 Touch Connector, 3T</title>
    </circle>
    <circle
       style="fill:#008000;fill-rule:evenodd;stroke-width:0.264583"
       id="circle939"
       cx="21.213915"
       cy="9.7801332"
       r="0.79374999">
      <title
         id="title937">Right Middle Connector, RMC</title>
    </circle>
  </g>
</svg>
