<?xml version="1.0" encoding="UTF-8" standalone="no"?>
<svg
   xmlns:dc="http://purl.org/dc/elements/1.1/"
   xmlns:cc="http://creativecommons.org/ns#"
   xmlns:rdf="http://www.w3.org/1999/02/22-rdf-syntax-ns#"
   xmlns:svg="http://www.w3.org/2000/svg"
   xmlns="http://www.w3.org/2000/svg"
   width="160"
   height="80"
   viewBox="0 0 42.333332 21.166667"
   version="1.1"
   id="svg8">
  <defs
     id="defs2" />
  <metadata
     id="metadata5">
    <rdf:RDF>
      <cc:Work
         rdf:about="">
        <dc:format>image/svg+xml</dc:format>
        <dc:type
           rdf:resource="http://purl.org/dc/dcmitype/StillImage" />
        <dc:title></dc:title>
      </cc:Work>
    </rdf:RDF>
  </metadata>
  <g
     id="layer1">
    <polygon
       points="8,4 8,30 4,30 4,4 0,0 12,0 "
       style="fill:#ff0000"
       id="polygon945"
       transform="matrix(-0.0684792,-0.25556787,0.25556787,-0.0684792,16.680079,8.6762111)">
      <title
         id="title951">Right Up Diagonal Mark, RUD</title>
    </polygon>
    <polygon
       points="0,0 12,0 8,4 8,18 12,18 8,22 8,60 4,60 4,22 0,18 4,18 4,4 "
       style="fill:#ff0000"
       id="polygon862"
       transform="matrix(0,-0.26458333,0.26458333,0,8.4875688,13.285785)">
      <title
         id="title861">Right Horizontal Head-to-Tail Mark, RHHT</title>
    </polygon>
    <g
       id="g890"
       transform="matrix(0.26458333,0,0,0.26458333,23.056547,5.6412954)">
      <title
         id="title886">Down Vertical Mark, DV</title>
      <polygon
         points="12,0 8,4 8,30 4,30 4,4 0,0 "
         style="fill:#ff0000"
         id="polygon888"
         transform="translate(-0.29985549,-4.9004316)" />
    </g>
    <circle
       style="fill:#008000;fill-rule:evenodd;stroke-width:0.264583"
       id="path839"
       cx="24.6157"
       cy="11.670014"
       r="0.79374999">
      <title
         id="title919">Southeast Corner Connector, SEC</title>
    </circle>
    <polygon
       points="4,4 0,0 12,0 8,4 8,30 4,30 "
       style="fill:#ff0000"
       id="polygon855"
       transform="matrix(0,-0.26458333,0.26458333,0,8.4875688,8.5762043)">
      <title
         id="title949">Right Horizontal Mark, RH</title>
    </polygon>
    <circle
       style="fill:#008000;fill-rule:evenodd;stroke-width:0.264583"
       id="circle955"
       cx="16.961681"
       cy="7.0870533"
       r="0.79374999">
      <title
         id="title953">Other 2 Touch Connector, O2T</title>
    </circle>
    <circle
       style="fill:#008000;fill-rule:evenodd;stroke-width:0.264583"
       id="circle959"
       cx="24.568451"
       cy="5.2444191"
       r="0.79374999">
      <title
         id="title957">Other 2 Touch Connector, O2T</title>
    </circle>
  </g>
</svg>
