<?xml version="1.0" encoding="UTF-8" standalone="no"?>
<svg
   xmlns:dc="http://purl.org/dc/elements/1.1/"
   xmlns:cc="http://creativecommons.org/ns#"
   xmlns:rdf="http://www.w3.org/1999/02/22-rdf-syntax-ns#"
   xmlns:svg="http://www.w3.org/2000/svg"
   xmlns="http://www.w3.org/2000/svg"
   width="160"
   height="80"
   viewBox="0 0 42.333332 21.166667"
   version="1.1"
   id="svg8">
  <defs
     id="defs2" />
  <metadata
     id="metadata5">
    <rdf:RDF>
      <cc:Work
         rdf:about="">
        <dc:format>image/svg+xml</dc:format>
        <dc:type
           rdf:resource="http://purl.org/dc/dcmitype/StillImage" />
        <dc:title></dc:title>
      </cc:Work>
    </rdf:RDF>
  </metadata>
  <g
     id="layer1">
    <g
       id="g848"
       transform="matrix(0,-0.26458333,0.26458333,0,8.8125147,15.442143)">
      <title
         id="title844">Right Horizontal Mark, RH</title>
      <polygon
         points="4,50 4,4 0,0 12,0 8,4 8,50 "
         style="fill:#ff0000"
         id="polygon846"
         transform="translate(0,6.4998577)" />
    </g>
    <g
       id="g857"
       transform="matrix(0.26458333,0,0,0.26458333,22.703101,6.2082585)">
      <title
         id="title853">Down Vertical Mark, DV</title>
      <polygon
         points="8,40 4,40 4,4 0,0 12,0 8,4 "
         style="fill:#ff0000"
         id="polygon855" />
    </g>
    <circle
       style="fill:#008000;fill-rule:evenodd;stroke-width:0.264583"
       id="circle1000"
       cx="24.237722"
       cy="13.83215"
       r="0.79374999">
      <title
         id="title998">Right 2 Touch Connector, R2T</title>
    </circle>
    <polygon
       points="12,28 8,32 8,50 4,50 4,32 0,28 4,28 4,4 0,0 12,0 8,4 8,28 "
       style="fill:#ff0000"
       id="polygon1014"
       transform="matrix(0,-0.26458333,0.26458333,0,10.532269,9.8329756)">
      <title
         id="title1063">Right Horizontal Head-to-Tail Mark, RHHT</title>
    </polygon>
    <circle
       style="fill:#008000;fill-rule:evenodd;stroke-width:0.264583"
       id="circle996"
       cx="24.284969"
       cy="8.1965265"
       r="0.79374999">
      <title
         id="title994">Right 2 Touch Connector, R2T</title>
    </circle>
    <g
       id="g1046"
       transform="matrix(0.26458333,0,0,0.26458333,11.925149,11.10305)">
      <title
         id="title1042">Down Vertical Mark, DV</title>
      <polygon
         points="8,25 4,25 4,4 0,0 12,0 8,4 "
         style="fill:#ff0000"
         id="polygon1044" />
    </g>
    <circle
       style="fill:#008000;fill-rule:evenodd;stroke-width:0.264583"
       id="circle1061"
       cx="13.607142"
       cy="13.879397"
       r="0.79374999">
      <title
         id="title1059">2 Cross Connector, 2C</title>
    </circle>
  </g>
</svg>
