<?xml version="1.0" encoding="UTF-8" standalone="no"?>
<svg
   xmlns:dc="http://purl.org/dc/elements/1.1/"
   xmlns:cc="http://creativecommons.org/ns#"
   xmlns:rdf="http://www.w3.org/1999/02/22-rdf-syntax-ns#"
   xmlns:svg="http://www.w3.org/2000/svg"
   xmlns="http://www.w3.org/2000/svg"
   width="160"
   height="80"
   viewBox="0 0 42.333332 21.166667"
   version="1.1"
   id="svg8">
  <defs
     id="defs2" />
  <metadata
     id="metadata5">
    <rdf:RDF>
      <cc:Work
         rdf:about="">
        <dc:format>image/svg+xml</dc:format>
        <dc:type
           rdf:resource="http://purl.org/dc/dcmitype/StillImage" />
        <dc:title></dc:title>
      </cc:Work>
    </rdf:RDF>
  </metadata>
  <g
     id="layer1">
    <polygon
       points="4,35 4,4 0,0 12,0 8,4 8,35 12,40 0,40 "
       style="fill:#ff0000"
       id="polygon856"
       transform="matrix(0,-0.26458333,0.26458333,0,8.4513208,7.8713541)">
      <title
         id="title854">Right Horizontal Barbell Mark, RHBB</title>
    </polygon>
    <polygon
       points="8,35 12,40 0,40 4,35 4,4 0,0 12,0 8,4 "
       style="fill:#ff0000"
       id="polygon860"
       transform="matrix(0,-0.26458333,0.26458333,0,8.3454873,12.289896)">
      <title
         id="title858">Right Horizontal Barbell Mark, RHBB</title>
    </polygon>
    <g
       id="g857"
       transform="matrix(0.09049283,-0.248627,0.248627,0.09049283,19.608468,6.3437356)">
      <title
         id="title853">Right Down Diagonal Mark, RDD</title>
      <polygon
         points="8,40 4,40 4,4 0,0 12,0 8,4 "
         style="fill:#ff0000"
         id="polygon855" />
    </g>
    <g
       id="g890"
       transform="matrix(-0.09049283,-0.248627,0.248627,-0.09049283,20.606609,13.583162)">
      <title
         id="title886">Right Up Diagonal Mark, RUD</title>
      <polygon
         points="12,0 8,4 8,40 4,40 4,4 0,0 "
         style="fill:#ff0000"
         id="polygon888" />
    </g>
    <circle
       style="fill:#008000;fill-rule:evenodd;stroke-width:0.264583"
       id="path839"
       cx="29.576635"
       cy="8.4572172"
       r="0.79374999">
      <title
         id="title936">Right Middle Corner Connector, RMC</title>
    </circle>
  </g>
</svg>
