<?xml version="1.0" encoding="UTF-8" standalone="no"?>
<svg
   xmlns:dc="http://purl.org/dc/elements/1.1/"
   xmlns:cc="http://creativecommons.org/ns#"
   xmlns:rdf="http://www.w3.org/1999/02/22-rdf-syntax-ns#"
   xmlns:svg="http://www.w3.org/2000/svg"
   xmlns="http://www.w3.org/2000/svg"
   width="160"
   height="80"
   viewBox="0 0 42.333332 21.166667"
   version="1.1"
   id="svg8">
  <defs
     id="defs2" />
  <metadata
     id="metadata5">
    <rdf:RDF>
      <cc:Work
         rdf:about="">
        <dc:format>image/svg+xml</dc:format>
        <dc:type
           rdf:resource="http://purl.org/dc/dcmitype/StillImage" />
        <dc:title></dc:title>
      </cc:Work>
    </rdf:RDF>
  </metadata>
  <g
     id="layer1">
    <polygon
       points="0,45 4,40 4,4 0,0 12,0 8,4 8,40 12,45 "
       style="fill:#ff0000"
       id="polygon866"
       transform="matrix(0,-0.26458333,0.26458333,0,3.2600444,8.1312121)">
      <title
         id="title880">Right Horizontal Barbell Mark, RHBB</title>
    </polygon>
    <polygon
       points="0,0 12,0 8,4 8,35 12,40 0,40 4,35 4,4 "
       style="fill:#ff0000"
       id="polygon852"
       transform="matrix(0,-0.26458333,0.26458333,0,3.2600444,13.872707)">
      <title
         id="title850">Right Horizontal Barbell Mark, RHBB</title>
    </polygon>
    <g
       id="g872"
       transform="matrix(0,-0.26458333,0.26458333,0,15.752158,15.055737)">
      <title
         id="title868">Right Up Diagonal Mark, RUD</title>
      <polygon
         points="12,0 8,4 8,55 4,55 4,4 0,0 "
         style="fill:#ff0000"
         id="polygon870"
         transform="rotate(-15,-14.967984,23.577251)">
        <title
           id="title943">Right Up Diagonal Mark, RUD</title>
      </polygon>
    </g>
    <polygon
       points="8,18 12,18 8,22 8,40 4,40 4,22 0,18 4,18 4,4 0,0 12,0 8,4 "
       style="fill:#ff0000"
       id="polygon862"
       transform="matrix(0.26458333,0,0,0.26458333,27.443074,4.9562121)">
      <title
         id="title896">Down Vertical Head-to-Tail Mark, DVHT</title>
    </polygon>
    <polygon
       points="6,0 6,12 0,6 "
       style="fill:#ff0000"
       id="polygon919"
       transform="matrix(0.33072916,0,0,0.33072916,18.662575,4.7955728)">
      <title
         id="title941">Heel Mark, HE</title>
    </polygon>
    <polygon
       points="0,6 6,0 6,12 "
       style="fill:#ff0000"
       id="polygon933"
       transform="matrix(0.33072916,0,0,0.33072916,18.662575,8.9496065)">
      <title
         id="title937">Heel Mark, HE</title>
    </polygon>
    <polygon
       points="6,0 6,12 0,6 "
       style="fill:#ff0000"
       id="polygon935"
       transform="matrix(0.33072916,0,0,0.33072916,20.64695,6.9652315)">
      <title
         id="title939">Heel Mark, HE</title>
    </polygon>
    <ellipse
       style="opacity:0;fill:#008000;stroke-width:0.264583"
       id="path961"
       cx="30.527304"
       cy="16.758518"
       rx="2.0258958"
       ry="1.2189735" />
    <circle
       style="fill:#008000;fill-rule:evenodd;stroke-width:0.264583"
       id="path839"
       cx="29.009672"
       cy="11.481027"
       r="0.79374999">
      <title
         id="title927">Other 2 Touch Connector, O2T</title>
    </circle>
  </g>
</svg>
