<?xml version="1.0" encoding="UTF-8" standalone="no"?>
<svg
   xmlns:dc="http://purl.org/dc/elements/1.1/"
   xmlns:cc="http://creativecommons.org/ns#"
   xmlns:rdf="http://www.w3.org/1999/02/22-rdf-syntax-ns#"
   xmlns:svg="http://www.w3.org/2000/svg"
   xmlns="http://www.w3.org/2000/svg"
   width="160"
   height="80"
   viewBox="0 0 42.333332 21.166667"
   version="1.1"
   id="svg8">
  <defs
     id="defs2" />
  <metadata
     id="metadata5">
    <rdf:RDF>
      <cc:Work
         rdf:about="">
        <dc:format>image/svg+xml</dc:format>
        <dc:type
           rdf:resource="http://purl.org/dc/dcmitype/StillImage" />
        <dc:title></dc:title>
      </cc:Work>
    </rdf:RDF>
  </metadata>
  <g
     id="layer1">
    <g
       id="g857"
       transform="matrix(0,-0.26458333,0.26458333,0,7.3232887,6.784673)">
      <title
         id="title853">Right Horizontal Mark, RH</title>
      <polygon
         points="8,40 4,40 4,4 0,0 12,0 8,4 "
         style="fill:#ff0000"
         id="polygon855" />
    </g>
    <polygon
       points="6,12 0,6 6,0 "
       style="fill:#ff0000"
       id="polygon866"
       transform="matrix(0.26458333,0,0,0.26458333,17.906622,4.1388397)">
      <title
         id="title894">Heel Mark, HE</title>
    </polygon>
    <polygon
       points="0,6 6,0 6,12 "
       style="fill:#ff0000"
       id="polygon880"
       transform="matrix(0.26458333,0,0,0.26458333,16.319122,5.7263397)">
      <title
         id="title896">Heel Mark, HE</title>
    </polygon>
    <polygon
       points="6,0 6,12 0,6 "
       style="fill:#ff0000"
       id="polygon882"
       transform="matrix(0.26458333,0,0,0.26458333,14.731622,7.3138397)">
      <title
         id="title898">Heel Mark, HE</title>
    </polygon>
    <polygon
       points="6,0 6,12 0,6 "
       style="fill:#ff0000"
       id="polygon884"
       transform="matrix(0.26458333,0,0,0.26458333,17.906622,7.3138397)">
      <title
         id="title892">Heel Mark, HE</title>
    </polygon>
    <g
       id="g890"
       transform="matrix(0,-0.26458333,0.26458333,0,4.1482888,11.018006)">
      <title
         id="title886">Right Horizontal Mark, RH</title>
      <polygon
         points="8,29 4,29 4,4 0,0 12,0 8,4 "
         style="fill:#ff0000"
         id="polygon888"
         transform="translate(0,11.600428)" />
    </g>
  </g>
</svg>
