<?xml version="1.0" encoding="UTF-8" standalone="no"?>
<svg
   xmlns:dc="http://purl.org/dc/elements/1.1/"
   xmlns:cc="http://creativecommons.org/ns#"
   xmlns:rdf="http://www.w3.org/1999/02/22-rdf-syntax-ns#"
   xmlns:svg="http://www.w3.org/2000/svg"
   xmlns="http://www.w3.org/2000/svg"
   width="160"
   height="80"
   viewBox="0 0 42.333332 21.166667"
   version="1.1"
   id="svg8">
  <defs
     id="defs2" />
  <metadata
     id="metadata5">
    <rdf:RDF>
      <cc:Work
         rdf:about="">
        <dc:format>image/svg+xml</dc:format>
        <dc:type
           rdf:resource="http://purl.org/dc/dcmitype/StillImage" />
        <dc:title></dc:title>
      </cc:Work>
    </rdf:RDF>
  </metadata>
  <g
     id="layer1">
    <g
       id="g857"
       transform="matrix(0,-0.26458333,0.26458333,0,2.0040765,9.3312872)">
      <title
         id="title853">Right Horizontal Mark, RH</title>
      <polygon
         points="12,0 8,4 8,40 4,40 4,4 0,0 "
         style="fill:#ff0000"
         id="polygon855" />
    </g>
    <polygon
       points="0,6 6,0 6,12 "
       style="fill:#ff0000"
       id="polygon866"
       transform="matrix(0.26458333,0,0,0.26458333,12.58741,6.6854539)">
      <title
         id="title894">Heel Mark, HE</title>
    </polygon>
    <polygon
       points="6,0 6,12 0,6 "
       style="fill:#ff0000"
       id="polygon880"
       transform="matrix(0.26458333,0,0,0.26458333,10.99991,8.2729539)">
      <title
         id="title896">Heel Mark, HE</title>
    </polygon>
    <polygon
       points="6,12 0,6 6,0 "
       style="fill:#ff0000"
       id="polygon882"
       transform="matrix(0.26458333,0,0,0.26458333,9.4124095,9.8604539)">
      <title
         id="title898">Heel Mark, HE</title>
    </polygon>
    <polygon
       points="6,12 0,6 6,0 "
       style="fill:#ff0000"
       id="polygon884"
       transform="matrix(0.26458333,0,0,0.26458333,12.58741,9.8604539)">
      <title
         id="title892">Heel Mark, HE</title>
    </polygon>
    <g
       id="g890"
       transform="matrix(0,-0.26458333,0.26458333,0,-1.1709234,13.56462)">
      <title
         id="title886">Right Horizontal Mark, RH</title>
      <polygon
         points="12,0 8,4 8,29 4,29 4,4 0,0 "
         style="fill:#ff0000"
         id="polygon888"
         transform="translate(0,11.600428)" />
    </g>
    <g
       id="g903"
       transform="matrix(0,-0.26458333,0.26458333,0,11.608396,13.56462)">
      <title
         id="title899">Right Horizontal Mark, RH</title>
      <polygon
         points="4,40 4,4 0,0 12,0 8,4 8,40 "
         style="fill:#ff0000"
         id="polygon901"
         transform="translate(0,11.600428)" />
    </g>
    <g
       id="g909"
       transform="matrix(0,-0.26458333,0.26458333,0,11.608396,9.7546204)">
      <title
         id="title905">Right Horizontal Mark, RH</title>
      <polygon
         points="0,0 12,0 8,4 8,40 4,40 4,4 "
         style="fill:#ff0000"
         id="polygon907"
         transform="translate(0,11.600428)" />
    </g>
    <polygon
       points="4,30 4,14 0,10 4,10 4,4 0,0 12,0 8,4 8,10 12,10 8,14 8,30 "
       style="fill:#ff0000"
       id="polygon862"
       transform="matrix(0.26458333,0,0,0.26458333,24.1091,7.3157291)">
      <title
         id="title962">Down Vertical Head-to-Tail Mark, DVHT</title>
    </polygon>
    <polygon
       points="8,4 8,15 4,15 4,4 0,0 12,0 "
       style="fill:#ff0000"
       id="polygon855-6"
       transform="matrix(0.13229166,-0.22913589,0.22913589,0.13229166,18.34171,9.615568)">
      <title
         id="title1013">Right Down Diagonal Mark, RDD</title>
    </polygon>
    <polygon
       points="8,4 8,15 4,15 4,4 0,0 12,0 "
       style="fill:#ff0000"
       id="polygon997"
       transform="matrix(-0.13229166,-0.22913589,0.22913589,-0.13229166,19.849703,13.266793)">
      <title
         id="title1015">Right Up Diagonal Mark, RUD</title>
    </polygon>
    <circle
       style="fill:#008000;fill-rule:evenodd;stroke-width:0.264583"
       id="circle951"
       cx="25.684282"
       cy="8.1123142"
       r="0.79374999">
      <title
         id="title953">Northeast Corner Connector, NEC</title>
    </circle>
    <circle
       style="fill:#008000;fill-rule:evenodd;stroke-width:0.264583"
       id="path839"
       cx="25.637226"
       cy="11.939324"
       r="0.79374999">
      <title
         id="title955">Right 2 Touch Connector, R2T</title>
    </circle>
    <circle
       style="fill:#008000;fill-rule:evenodd;stroke-width:0.264583"
       id="circle1003"
       cx="22.140945"
       cy="10.09669"
       r="0.79374999">
      <title
         id="title1001">Right Middle Corner Connector, RMC</title>
    </circle>
    <circle
       style="fill:#008000;fill-rule:evenodd;stroke-width:0.264583"
       id="circle1007"
       cx="19.731346"
       cy="8.4430447"
       r="0.79374999">
      <title
         id="title1005">Other 2 Touch Connector, O2T</title>
    </circle>
    <circle
       style="fill:#008000;fill-rule:evenodd;stroke-width:0.264583"
       id="circle1011"
       cx="19.731346"
       cy="11.892077"
       r="0.79374999">
      <title
         id="title1009">Other 2 Touch Connector, O2T</title>
    </circle>
  </g>
</svg>
