<?xml version="1.0" encoding="UTF-8" standalone="no"?>
<svg
   xmlns:dc="http://purl.org/dc/elements/1.1/"
   xmlns:cc="http://creativecommons.org/ns#"
   xmlns:rdf="http://www.w3.org/1999/02/22-rdf-syntax-ns#"
   xmlns:svg="http://www.w3.org/2000/svg"
   xmlns="http://www.w3.org/2000/svg"
   width="160"
   height="80"
   viewBox="0 0 42.333332 21.166667"
   version="1.1"
   id="svg8">
  <defs
     id="defs2" />
  <metadata
     id="metadata5">
    <rdf:RDF>
      <cc:Work
         rdf:about="">
        <dc:format>image/svg+xml</dc:format>
        <dc:type
           rdf:resource="http://purl.org/dc/dcmitype/StillImage" />
        <dc:title></dc:title>
      </cc:Work>
    </rdf:RDF>
  </metadata>
  <g
     id="layer1">
    <g
       id="g857"
       transform="matrix(0,-0.26458333,0.26458333,0,8.1264877,9.0052824)">
      <title
         id="title853">Right Horizontal Mark, RH</title>
      <polygon
         points="8,4 8,40 4,40 4,4 0,0 12,0 "
         style="fill:#ff0000"
         id="polygon855" />
    </g>
    <polygon
       points="6,0 6,12 0,6 "
       style="fill:#ff0000"
       id="polygon866"
       transform="matrix(0.33072916,0,0,0.33072916,18.709821,5.5128583)">
      <title
         id="title880">Heel Mark, HE</title>
    </polygon>
    <polygon
       points="0,6 6,0 6,12 "
       style="fill:#ff0000"
       id="polygon884"
       transform="matrix(0.33072916,0,0,0.33072916,20.747036,5.5128583)">
      <title
         id="title882">Heel Mark, HE</title>
    </polygon>
    <polygon
       points="6,12 0,6 6,0 "
       style="fill:#ff0000"
       id="polygon888"
       transform="matrix(0.33072916,0,0,0.33072916,22.784329,5.5128583)">
      <title
         id="title886">Heel Mark, HE</title>
    </polygon>
    <polygon
       points="0,6 6,0 6,12 "
       style="fill:#ff0000"
       id="polygon892"
       transform="matrix(0.33072916,0,0,0.33072916,22.784329,9.2699416)">
      <title
         id="title890">Heel Mark, HE</title>
    </polygon>
    <polygon
       points="0,6 6,0 6,12 "
       style="fill:#ff0000"
       id="polygon896"
       transform="matrix(0.33072916,0,0,0.33072916,20.747036,9.3228583)">
      <title
         id="title894">Heel Mark, HE</title>
    </polygon>
    <polygon
       points="0,6 6,0 6,12 "
       style="fill:#ff0000"
       id="polygon900"
       transform="matrix(0.33072916,0,0,0.33072916,18.709821,9.2963999)">
      <title
         id="title898">Heel Mark, HE</title>
    </polygon>
    <g
       id="g906"
       transform="matrix(0,-0.26458333,0.26458333,0,8.1264877,12.947649)">
      <title
         id="title902">Right Horizontal Mark, RH</title>
      <polygon
         points="4,40 4,4 0,0 12,0 8,4 8,40 "
         style="fill:#ff0000"
         id="polygon904" />
    </g>
    <polygon
       points="0,6 6,0 6,12 "
       style="fill:#ff0000"
       id="polygon910"
       transform="matrix(0.33072916,0,0,0.33072916,24.662872,5.5128583)">
      <title
         id="title908">Heel Mark, HE</title>
    </polygon>
    <polygon
       points="6,12 0,6 6,0 "
       style="fill:#ff0000"
       id="polygon914"
       transform="matrix(0.33072916,0,0,0.33072916,24.662871,9.2699416)">
      <title
         id="title912">Heel Mark, HE</title>
    </polygon>
  </g>
</svg>
