<?xml version="1.0" encoding="UTF-8" standalone="no"?>
<svg
   xmlns:dc="http://purl.org/dc/elements/1.1/"
   xmlns:cc="http://creativecommons.org/ns#"
   xmlns:rdf="http://www.w3.org/1999/02/22-rdf-syntax-ns#"
   xmlns:svg="http://www.w3.org/2000/svg"
   xmlns="http://www.w3.org/2000/svg"
   width="160"
   height="80"
   viewBox="0 0 42.333332 21.166667"
   version="1.1"
   id="svg8">
  <defs
     id="defs2" />
  <metadata
     id="metadata5">
    <rdf:RDF>
      <cc:Work
         rdf:about="">
        <dc:format>image/svg+xml</dc:format>
        <dc:type
           rdf:resource="http://purl.org/dc/dcmitype/StillImage" />
        <dc:title></dc:title>
      </cc:Work>
    </rdf:RDF>
  </metadata>
  <g
     id="layer1">
    <polygon
       points="8,4 8,45 12,50 0,50 4,45 4,4 0,0 12,0 "
       style="fill:#ff0000"
       id="polygon866"
       transform="matrix(0,-0.26458333,0.26458333,0,8.7879462,8.2965769)">
      <title
         id="title880">Right Horizontal Barbell Mark, RHBB</title>
    </polygon>
    <g
       id="g868"
       transform="matrix(0.26458333,0,0,0.26458333,22.017113,5.1215769)">
      <title
         id="title864">Down Vertical Mark, DV</title>
      <polygon
         points="8,30 4,30 4,4 0,0 12,0 8,4 "
         style="fill:#ff0000"
         id="polygon866-9" />
    </g>
    <polygon
       points="12,0 8,4 8,45 12,50 0,50 4,45 4,4 0,0 "
       style="fill:#ff0000"
       id="polygon883"
       transform="matrix(0,-0.26458333,0.26458333,0,8.7879462,13.059038)">
      <title
         id="title881">Right Horizontal Barbell Mark, RHBB</title>
    </polygon>
    <g
       id="g889"
       transform="matrix(0.26458333,0,0,0.26458333,10.851622,7.2382436)">
      <title
         id="title885">Down Vertical Mark, DV</title>
      <polygon
         points="0,0 12,0 8,4 8,25 4,25 4,4 "
         style="fill:#ff0000"
         id="polygon887" />
    </g>
    <g
       id="g895"
       transform="matrix(0.26458333,0,0,0.26458333,14.026619,7.2382436)">
      <title
         id="title891">Down Vertical Mark, DV</title>
      <polygon
         points="8,4 8,25 4,25 4,4 0,0 12,0 "
         style="fill:#ff0000"
         id="polygon893" />
    </g>
    <circle
       style="fill:#008000;fill-rule:evenodd;stroke-width:0.264583"
       id="path839"
       cx="15.686012"
       cy="11.43378"
       r="0.79374999">
      <title
         id="title921">2 Cross Connector, 2C</title>
    </circle>
    <circle
       style="fill:#008000;fill-rule:evenodd;stroke-width:0.264583"
       id="circle913"
       cx="15.733259"
       cy="7.3232889"
       r="0.79374999">
      <title
         id="title915">Top 2 Touch Connector, T2T</title>
    </circle>
    <circle
       style="fill:#008000;fill-rule:evenodd;stroke-width:0.264583"
       id="circle919"
       cx="12.425967"
       cy="7.3232889"
       r="0.79374999">
      <title
         id="title917">Top 2 Touch Connector, T2T</title>
    </circle>
    <circle
       style="fill:#008000;fill-rule:evenodd;stroke-width:0.264583"
       id="circle925"
       cx="12.473215"
       cy="11.481028"
       r="0.79374999">
      <title
         id="title923">2 Cross Connector, 2C</title>
    </circle>
  </g>
</svg>
