<?xml version="1.0" encoding="UTF-8" standalone="no"?>
<svg
   xmlns:dc="http://purl.org/dc/elements/1.1/"
   xmlns:cc="http://creativecommons.org/ns#"
   xmlns:rdf="http://www.w3.org/1999/02/22-rdf-syntax-ns#"
   xmlns:svg="http://www.w3.org/2000/svg"
   xmlns="http://www.w3.org/2000/svg"
   width="160"
   height="80"
   viewBox="0 0 42.333332 21.166667"
   version="1.1"
   id="svg8">
  <defs
     id="defs2" />
  <metadata
     id="metadata5">
    <rdf:RDF>
      <cc:Work
         rdf:about="">
        <dc:format>image/svg+xml</dc:format>
        <dc:type
           rdf:resource="http://purl.org/dc/dcmitype/StillImage" />
        <dc:title></dc:title>
      </cc:Work>
    </rdf:RDF>
  </metadata>
  <g
     id="layer1">
    <polygon
       points="12,0 8,4 8,18 12,18 8,22 8,40 4,40 4,22 0,18 4,18 4,4 0,0 "
       style="fill:#ff0000"
       id="polygon862"
       transform="matrix(0.26458333,0,0,0.26458333,26.902456,5.1026787)">
      <title
         id="title841">Down Vertical Head-to-Tail Mark, DVHT</title>
    </polygon>
    <polygon
       points="8,4 8,55 4,55 4,4 0,0 12,0 "
       style="fill:#ff0000"
       id="polygon855"
       transform="matrix(0,-0.26458333,0.26458333,0,13.51465,7.7485874)">
      <title
         id="title908">Right Horizontal Mark, RH</title>
    </polygon>
    <polygon
       points="0,0 12,0 8,4 8,55 4,55 4,4 "
       style="fill:#ff0000"
       id="polygon876"
       transform="matrix(0,-0.26458333,0.26458333,0,13.408819,13.754629)">
      <title
         id="title910">Right Horizontal Mark, RH</title>
    </polygon>
    <polygon
       points="0,6 6,0 6,12 "
       style="fill:#ff0000"
       id="polygon890"
       transform="matrix(0.33072916,0,0,0.33072916,22.192983,4.7719496)">
      <title
         id="title912">Heel Mark, HE</title>
    </polygon>
    <polygon
       points="6,0 6,12 0,6 "
       style="fill:#ff0000"
       id="polygon904"
       transform="matrix(0.33072916,0,0,0.33072916,22.192983,10.566398)">
      <title
         id="title914">Heel Mark, HE</title>
    </polygon>
    <circle
       style="fill:#008000;fill-rule:evenodd;stroke-width:0.264583"
       id="path839"
       cx="28.39546"
       cy="12.142486"
       r="0.79374999">
      <title
         id="title936">Right 2 Touch Connector, R2T</title>
    </circle>
    <circle
       style="fill:#008000;fill-rule:evenodd;stroke-width:0.264583"
       id="circle932"
       cx="28.537203"
       cy="6.0948668"
       r="0.79374999">
      <title
         id="title934">Northeast Corner Connector, NEC</title>
    </circle>
  </g>
</svg>
