<?xml version="1.0" encoding="UTF-8" standalone="no"?>
<svg
   xmlns:dc="http://purl.org/dc/elements/1.1/"
   xmlns:cc="http://creativecommons.org/ns#"
   xmlns:rdf="http://www.w3.org/1999/02/22-rdf-syntax-ns#"
   xmlns:svg="http://www.w3.org/2000/svg"
   xmlns="http://www.w3.org/2000/svg"
   width="160"
   height="80"
   viewBox="0 0 42.333332 21.166667"
   version="1.1"
   id="svg8">
  <defs
     id="defs2" />
  <metadata
     id="metadata5">
    <rdf:RDF>
      <cc:Work
         rdf:about="">
        <dc:format>image/svg+xml</dc:format>
        <dc:type
           rdf:resource="http://purl.org/dc/dcmitype/StillImage" />
        <dc:title></dc:title>
      </cc:Work>
    </rdf:RDF>
  </metadata>
  <g
     id="layer1">
    <polygon
       points="8,4 8,45 4,45 4,4 0,0 12,0 "
       style="fill:#ff0000"
       id="polygon855"
       transform="matrix(0,-0.26458333,0.26458333,0,13.51465,7.7485874)">
      <title
         id="title908">Right Horizontal Mark, RH</title>
    </polygon>
    <polygon
       points="0,0 12,0 8,4 8,45 4,45 4,4 "
       style="fill:#ff0000"
       id="polygon876"
       transform="matrix(0,-0.26458333,0.26458333,0,13.408819,13.754629)">
      <title
         id="title910">Right Horizontal Mark, RH</title>
    </polygon>
    <polygon
       points="0,6 6,0 6,12 "
       style="fill:#ff0000"
       id="polygon890"
       transform="matrix(0.33072916,0,0,0.33072916,25.420902,4.7058791)">
      <title
         id="title912">Heel Mark, HE</title>
    </polygon>
    <polygon
       points="6,12 0,6 6,0 "
       style="fill:#ff0000"
       id="polygon904"
       transform="matrix(0.33072916,0,0,0.33072916,25.367985,9.6535874)">
      <title
         id="title914">Heel Mark, HE</title>
    </polygon>
    <g
       id="g857"
       transform="matrix(0.16536457,0,0,0.16536457,16.867188,8.6934518)">
      <title
         id="title853">Down Vertical Mark, DV</title>
      <polygon
         points="0,0 12,0 8,4 8,40 4,40 4,4 "
         style="fill:#ff0000"
         id="polygon855-8" />
    </g>
    <g
       id="g966"
       transform="matrix(0.16536457,0,0,0.16536457,18.639894,8.6934518)">
      <title
         id="title962">Down Vertical Mark, DV</title>
      <polygon
         points="8,40 4,40 4,4 0,0 12,0 8,4 "
         style="fill:#ff0000"
         id="polygon964" />
    </g>
    <g
       id="g972"
       transform="matrix(0.16536457,0,0,0.16536457,20.465521,8.6934518)">
      <title
         id="title968">Down Vertical Mark, DV</title>
      <polygon
         points="8,4 8,40 4,40 4,4 0,0 12,0 "
         style="fill:#ff0000"
         id="polygon970" />
    </g>
    <g
       id="g978"
       transform="matrix(0.16536457,0,0,0.16536457,22.344062,8.6934518)">
      <title
         id="title974">Down Vertical Mark, DV</title>
      <polygon
         points="8,40 4,40 4,4 0,0 12,0 8,4 "
         style="fill:#ff0000"
         id="polygon976" />
    </g>
    <polygon
       points="0,6 6,0 6,12 "
       style="fill:#ff0000"
       id="polygon982"
       transform="matrix(0.33072916,0,0,0.33072916,27.431735,4.7058791)">
      <title
         id="title980">Heel Mark, HE</title>
    </polygon>
    <polygon
       points="6,12 0,6 6,0 "
       style="fill:#ff0000"
       id="polygon986"
       transform="matrix(0.33072916,0,0,0.33072916,27.378819,9.6535874)">
      <title
         id="title984">Heel Mark, HE</title>
    </polygon>
    <circle
       style="fill:#008000;fill-rule:evenodd;stroke-width:0.132291"
       id="circle1008"
       cx="17.906622"
       cy="12.236979"
       r="0.39687499">
      <title
         id="title1006">2 Cross Connector, 2C</title>
    </circle>
    <circle
       style="fill:#008000;fill-rule:evenodd;stroke-width:0.132291"
       id="circle1012"
       cx="19.626528"
       cy="12.236979"
       r="0.39687499">
      <title
         id="title1010">2 Cross Connector, 2C</title>
    </circle>
    <circle
       style="fill:#008000;fill-rule:evenodd;stroke-width:0.132291"
       id="circle1016"
       cx="21.505068"
       cy="12.236979"
       r="0.39687499">
      <title
         id="title1014">2 Cross Connector, 2C</title>
    </circle>
    <circle
       style="fill:#008000;fill-rule:evenodd;stroke-width:0.132291"
       id="circle1020"
       cx="23.304235"
       cy="12.236979"
       r="0.39687499">
      <title
         id="title1018">2 Cross Connector, 2C</title>
    </circle>
  </g>
</svg>
