<?xml version="1.0" encoding="UTF-8" standalone="no"?>
<svg
   xmlns:dc="http://purl.org/dc/elements/1.1/"
   xmlns:cc="http://creativecommons.org/ns#"
   xmlns:rdf="http://www.w3.org/1999/02/22-rdf-syntax-ns#"
   xmlns:svg="http://www.w3.org/2000/svg"
   xmlns="http://www.w3.org/2000/svg"
   width="160"
   height="80"
   viewBox="0 0 42.333332 21.166667"
   version="1.1"
   id="svg8">
  <defs
     id="defs2" />
  <metadata
     id="metadata5">
    <rdf:RDF>
      <cc:Work
         rdf:about="">
        <dc:format>image/svg+xml</dc:format>
        <dc:type
           rdf:resource="http://purl.org/dc/dcmitype/StillImage" />
        <dc:title></dc:title>
      </cc:Work>
    </rdf:RDF>
  </metadata>
  <g
     id="layer1">
    <g
       id="g848"
       transform="matrix(0,-0.26458333,0.26458333,0,17.169568,7.3516371)">
      <title
         id="title844">Right Horzontal Mark, RH</title>
      <polygon
         points="4,4 0,0 12,0 8,4 8,72 4,72 "
         style="fill:#ff0000"
         id="polygon846" />
    </g>
    <polygon
       points="4,4 0,0 12,0 8,4 8,64 4,64 "
       style="fill:#ff0000"
       id="polygon863"
       transform="matrix(0,-0.26458333,0.26458333,0,19.180439,9.5477541)">
      <title
         id="title986">Right Horzontal Mark, RH</title>
    </polygon>
    <polygon
       points="8,4 8,56 4,56 4,4 0,0 12,0 "
       style="fill:#ff0000"
       id="polygon867"
       transform="matrix(0,-0.26458333,0.26458333,0,21.614606,11.770254)">
      <title
         id="title988">Right Horzontal Mark, RH</title>
    </polygon>
    <polygon
       points="8,48 4,48 4,4 0,0 12,0 8,4 "
       style="fill:#ff0000"
       id="polygon871"
       transform="matrix(0,-0.26458333,0.26458333,0,23.651896,13.992754)">
      <title
         id="title990">Right Horzontal Mark, RH</title>
    </polygon>
    <g
       id="g857"
       transform="matrix(0.26458333,0,0,0.26458333,15.449813,5.6054625)">
      <title
         id="title853">Down Vertical Mark, DV</title>
      <polygon
         points="0,0 12,0 8,4 8,50 4,50 4,4 "
         style="fill:#ff0000"
         id="polygon855"
         transform="translate(0,0.29999983)" />
    </g>
    <g
       id="g901"
       transform="matrix(0.26458333,0,0,0.26458333,17.672314,7.8279625)">
      <title
         id="title897">Down Vertical Mark, DV</title>
      <polygon
         points="12,0 8,4 8,42 4,42 4,4 0,0 "
         style="fill:#ff0000"
         id="polygon899"
         transform="translate(0,0.29999983)" />
    </g>
    <g
       id="g907"
       transform="matrix(0.26458333,0,0,0.26458333,19.894814,9.9975483)">
      <title
         id="title903">Down Vertical Mark, DV</title>
      <polygon
         points="4,4 0,0 12,0 8,4 8,34 4,34 "
         style="fill:#ff0000"
         id="polygon905"
         transform="translate(0,0.29999983)" />
    </g>
    <g
       id="g913"
       transform="matrix(0.26458333,0,0,0.26458333,22.117314,12.246504)">
      <title
         id="title909">Down Vertical Mark, DV</title>
      <polygon
         points="4,25 4,4 0,0 12,0 8,4 8,25 "
         style="fill:#ff0000"
         id="polygon911"
         transform="translate(0,0.29999983)" />
    </g>
    <g
       id="g933"
       transform="matrix(0.26458333,0,0,0.26458333,34.949608,4.9175458)">
      <title
         id="title929">Down Vertical Mark, DV</title>
      <polygon
         points="8,53 4,53 4,4 0,0 12,0 8,4 "
         style="fill:#ff0000"
         id="polygon931" />
    </g>
    <polygon
       points="6,0 6,12 0,6 "
       style="fill:#ff0000"
       id="polygon958"
       transform="matrix(0.33072916,0,0,0.33072916,28.159226,12.047991)">
      <title
         id="title972">Heel Mark, HE</title>
    </polygon>
    <polygon
       points="6,0 6,12 0,6 "
       style="fill:#ff0000"
       id="polygon976"
       transform="matrix(0.33072916,0,0,0.33072916,30.285342,2.3623513)">
      <title
         id="title974">Heel Mark, HE</title>
    </polygon>
    <polygon
       points="6,12 0,6 6,0 "
       style="fill:#ff0000"
       id="polygon980"
       transform="matrix(0.33072916,0,0,0.33072916,26.930803,2.3151043)">
      <title
         id="title978">Heel Mark, HE</title>
    </polygon>
    <polygon
       points="6,12 0,6 6,0 "
       style="fill:#ff0000"
       id="polygon984"
       transform="matrix(0.33072916,0,0,0.33072916,31.419271,12.047991)">
      <title
         id="title982">Heel Mark, HE</title>
    </polygon>
    <circle
       style="fill:#008000;fill-rule:evenodd;stroke-width:0.264583"
       id="path839"
       cx="36.480484"
       cy="7.9375"
       r="0.79374999">
      <title
         id="title1028">Right 2 Touch Connector, R2T</title>
    </circle>
    <circle
       style="fill:#008000;fill-rule:evenodd;stroke-width:0.264583"
       id="circle1008"
       cx="17.29241"
       cy="5.7641368"
       r="0.79374999">
      <title
         id="title1010">Northwest Corner Connector, NWC</title>
    </circle>
    <circle
       style="fill:#008000;fill-rule:evenodd;stroke-width:0.264583"
       id="circle1014"
       cx="23.954241"
       cy="12.520461"
       r="0.79374999">
      <title
         id="title1012">Northwest Corner Connector, NWC</title>
    </circle>
    <circle
       style="fill:#008000;fill-rule:evenodd;stroke-width:0.264583"
       id="circle1018"
       cx="21.780878"
       cy="10.252604"
       r="0.79374999">
      <title
         id="title1016">Northwest Corner Connector, NWC</title>
    </circle>
    <circle
       style="fill:#008000;fill-rule:evenodd;stroke-width:0.264583"
       id="circle1022"
       cx="19.465775"
       cy="8.0319939"
       r="0.79374999">
      <title
         id="title1020">Northwest Corner Connector, NWC</title>
    </circle>
    <circle
       style="fill:#008000;fill-rule:evenodd;stroke-width:0.264583"
       id="circle1024"
       cx="36.52195"
       cy="5.8113837"
       r="0.79374999">
      <title
         id="title1026">Northeast Corner Connector, NEC</title>
    </circle>
    <circle
       style="fill:#008000;fill-rule:evenodd;stroke-width:0.264583"
       id="circle1032"
       cx="36.569195"
       cy="12.37872"
       r="0.79374999">
      <title
         id="title1030">Right 2 Touch Connector, R2T</title>
    </circle>
    <circle
       style="fill:#008000;fill-rule:evenodd;stroke-width:0.264583"
       id="circle1036"
       cx="36.506943"
       cy="10.15811"
       r="0.79374999">
      <title
         id="title1034">Right 2 Touch Connector, R2T</title>
    </circle>
  </g>
</svg>
