<?xml version="1.0" encoding="UTF-8" standalone="no"?>
<svg
   xmlns:dc="http://purl.org/dc/elements/1.1/"
   xmlns:cc="http://creativecommons.org/ns#"
   xmlns:rdf="http://www.w3.org/1999/02/22-rdf-syntax-ns#"
   xmlns:svg="http://www.w3.org/2000/svg"
   xmlns="http://www.w3.org/2000/svg"
   width="160"
   height="80"
   viewBox="0 0 42.333332 21.166667"
   version="1.1"
   id="svg8">
  <defs
     id="defs2" />
  <metadata
     id="metadata5">
    <rdf:RDF>
      <cc:Work
         rdf:about="">
        <dc:format>image/svg+xml</dc:format>
        <dc:type
           rdf:resource="http://purl.org/dc/dcmitype/StillImage" />
        <dc:title></dc:title>
      </cc:Work>
    </rdf:RDF>
  </metadata>
  <g
     id="layer1">
    <g
       id="g911"
       transform="matrix(0,-0.26458333,0.26458333,0,12.61295,18.715567)">
      <title
         id="title907">Right Horizontal Mark, RH</title>
      <polygon
         points="4,4 0,0 12,0 8,4 8,40 4,40 "
         style="fill:#ff0000"
         id="polygon909"
         transform="translate(0,-0.2999925)" />
    </g>
    <g
       id="g942"
       transform="matrix(0.26458333,0,0,0.26458333,18.054108,11.021748)">
      <title
         id="title938">Down Vertical Mark, DV</title>
      <polygon
         points="4,4 0,0 12,0 8,4 8,25 4,25 "
         style="fill:#ff0000"
         id="polygon940" />
    </g>
    <g
       id="g857"
       transform="matrix(0.26458333,0,0,0.26458333,22.610536,11.348772)">
      <title
         id="title853">Down Vertical Mark, DV</title>
      <polygon
         points="8,30 4,30 4,4 0,0 12,0 8,4 "
         style="fill:#ff0000"
         id="polygon855"
         transform="translate(-2.1001434,-1.1999981)" />
    </g>
    <g
       id="g983"
       transform="matrix(0,-0.26458333,0.26458333,0,12.63015,14.805289)">
      <title
         id="title979">Right Horizontal Mark, RH</title>
      <polygon
         points="4,25 4,4 0,0 12,0 8,4 8,25 "
         style="fill:#ff0000"
         id="polygon981" />
    </g>
    <g
       id="g989"
       transform="matrix(0,-0.26458333,0.26458333,0,8.4497333,16.710289)">
      <title
         id="title985">Right Horizontal Mark, RH</title>
      <polygon
         points="8,4 8,25 4,25 4,4 0,0 12,0 "
         style="fill:#ff0000"
         id="polygon987" />
    </g>
    <circle
       style="fill:#008000;fill-rule:evenodd;stroke-width:0.264583"
       id="path839"
       cx="19.560266"
       cy="16.914434"
       r="0.79374999">
      <title
         id="title1019">Bottom 2 Touch Connector, B2T</title>
    </circle>
    <circle
       style="fill:#008000;fill-rule:evenodd;stroke-width:0.264583"
       id="circle1007"
       cx="12.85119"
       cy="15.119048"
       r="0.79374999">
      <title
         id="title1009">Horizontal 2 Touch Connector, H2T</title>
    </circle>
    <circle
       style="fill:#008000;fill-rule:evenodd;stroke-width:0.264583"
       id="circle1011"
       cx="23.434523"
       cy="17.150669"
       r="0.79374999">
      <title
         id="title1013">Right 2 Touch Connector, R2T</title>
    </circle>
    <circle
       style="fill:#008000;fill-rule:evenodd;stroke-width:0.264583"
       id="circle1017"
       cx="19.51302"
       cy="13.229167"
       r="0.79374999">
      <title
         id="title1015">Right 2 Touch Connector, R2T</title>
    </circle>
  </g>
</svg>
