<?xml version="1.0" encoding="UTF-8" standalone="no"?>
<svg
   xmlns:dc="http://purl.org/dc/elements/1.1/"
   xmlns:cc="http://creativecommons.org/ns#"
   xmlns:rdf="http://www.w3.org/1999/02/22-rdf-syntax-ns#"
   xmlns:svg="http://www.w3.org/2000/svg"
   xmlns="http://www.w3.org/2000/svg"
   width="160"
   height="80"
   viewBox="0 0 42.333332 21.166667"
   version="1.1"
   id="svg8">
  <defs
     id="defs2" />
  <metadata
     id="metadata5">
    <rdf:RDF>
      <cc:Work
         rdf:about="">
        <dc:format>image/svg+xml</dc:format>
        <dc:type
           rdf:resource="http://purl.org/dc/dcmitype/StillImage" />
        <dc:title></dc:title>
      </cc:Work>
    </rdf:RDF>
  </metadata>
  <g
     id="layer1">
    <g
       id="g857"
       transform="matrix(0.26458333,0,0,0.26458333,20.588287,4.7719494)">
      <title
         id="title853">Down Vertical Mark, DV</title>
      <polygon
         points="0,0 12,0 8,4 8,40 4,40 4,4 "
         style="fill:#ff0000"
         id="polygon855" />
    </g>
    <g
       id="g858"
       transform="matrix(0.26458333,0,0,0.26458333,17.624954,4.7719494)">
      <title
         id="title854">Down Vertical Mark, DV</title>
      <polygon
         points="0,0 12,0 8,4 8,40 4,40 4,4 "
         style="fill:#ff0000"
         id="polygon856" />
    </g>
    <g
       id="g864"
       transform="matrix(0.26458333,0,0,0.26458333,14.740993,4.7719494)">
      <title
         id="title860">Down Vertical Mark, DV</title>
      <polygon
         points="0,0 12,0 8,4 8,40 4,40 4,4 "
         style="fill:#ff0000"
         id="polygon862" />
    </g>
    <polygon
       points="8,4 8,60 4,60 4,4 0,0 12,0 "
       style="fill:#ff0000"
       id="polygon855-3"
       transform="matrix(0,-0.26458333,0.26458333,0,9.9351041,9.120452)">
      <title
         id="title894">Right Horizontal Mark, RH</title>
    </polygon>
    <polygon
       points="4,4 0,0 12,0 8,4 8,60 4,60 "
       style="fill:#ff0000"
       id="polygon890"
       transform="matrix(0,-0.26458333,0.26458333,0,9.9351041,13.830035)">
      <title
         id="title896">Right Horizontal Mark, RH</title>
    </polygon>
    <circle
       style="fill:#008000;fill-rule:evenodd;stroke-width:0.264583"
       id="path839"
       cx="22.217333"
       cy="7.6067715"
       r="0.79374999">
      <title
         id="title914">2 Cross Connector, 2C</title>
    </circle>
    <circle
       style="fill:#008000;fill-rule:evenodd;stroke-width:0.264583"
       id="circle918"
       cx="19.225683"
       cy="7.5595245"
       r="0.79374999">
      <title
         id="title916">2 Cross Connector, 2C</title>
    </circle>
    <circle
       style="fill:#008000;fill-rule:evenodd;stroke-width:0.264583"
       id="circle922"
       cx="16.275579"
       cy="7.5122776"
       r="0.79374999">
      <title
         id="title920">2 Cross Connector, 2C</title>
    </circle>
    <circle
       style="fill:#008000;fill-rule:evenodd;stroke-width:0.264583"
       id="circle926"
       cx="16.281401"
       cy="12.284227"
       r="0.79374999">
      <title
         id="title924">2 Cross Connector, 2C</title>
    </circle>
    <circle
       style="fill:#008000;fill-rule:evenodd;stroke-width:0.264583"
       id="circle930"
       cx="19.172766"
       cy="12.331474"
       r="0.79374999">
      <title
         id="title928">2 Cross Connector, 2C</title>
    </circle>
    <circle
       style="fill:#008000;fill-rule:evenodd;stroke-width:0.264583"
       id="circle934"
       cx="22.187164"
       cy="12.284227"
       r="0.79374999">
      <title
         id="title932">2 Cross Connector, 2C</title>
    </circle>
    <g
       id="g940"
       transform="matrix(0.26458333,0,0,0.26458333,11.857039,4.772025)">
      <title
         id="title936">Down Vertical Mark, DV</title>
      <polygon
         points="8,40 4,40 4,4 0,0 12,0 8,4 "
         style="fill:#ff0000"
         id="polygon938" />
    </g>
    <circle
       style="fill:#008000;fill-rule:evenodd;stroke-width:0.264583"
       id="circle944"
       cx="13.418079"
       cy="7.5122776"
       r="0.79374999">
      <title
         id="title942">2 Cross Connector, 2C</title>
    </circle>
    <circle
       style="fill:#008000;fill-rule:evenodd;stroke-width:0.264583"
       id="circle948"
       cx="13.503275"
       cy="12.284227"
       r="0.79374999">
      <title
         id="title946">2 Cross Connector, 2C</title>
    </circle>
  </g>
</svg>
