<?xml version="1.0" encoding="UTF-8" standalone="no"?>
<svg
   xmlns:dc="http://purl.org/dc/elements/1.1/"
   xmlns:cc="http://creativecommons.org/ns#"
   xmlns:rdf="http://www.w3.org/1999/02/22-rdf-syntax-ns#"
   xmlns:svg="http://www.w3.org/2000/svg"
   xmlns="http://www.w3.org/2000/svg"
   width="160"
   height="80"
   viewBox="0 0 42.333332 21.166667"
   version="1.1"
   id="svg8">
  <defs
     id="defs2" />
  <metadata
     id="metadata5">
    <rdf:RDF>
      <cc:Work
         rdf:about="">
        <dc:format>image/svg+xml</dc:format>
        <dc:type
           rdf:resource="http://purl.org/dc/dcmitype/StillImage" />
        <dc:title></dc:title>
      </cc:Work>
    </rdf:RDF>
  </metadata>
  <g
     id="layer1">
    <polygon
       points="12,0 8,4 8,18 12,18 8,22 8,40 4,40 4,22 0,18 4,18 4,4 0,0 "
       style="fill:#ff0000"
       id="polygon862"
       transform="matrix(0.26458333,0,0,0.26458333,15.610416,5.0554315)">
      <title
         id="title841">Down Vertical Head-to-Tail Mark, DVHT</title>
    </polygon>
    <polygon
       points="4,18 4,4 0,0 12,0 8,4 8,18 12,18 8,22 8,40 4,40 4,22 0,18 "
       style="fill:#ff0000"
       id="polygon854"
       transform="matrix(0.26458333,0,0,0.26458333,28.707291,5.0554315)">
      <title
         id="title852">Down Vertical Head-to-Tail Mark, DVHT</title>
    </polygon>
    <g
       id="g874"
       transform="matrix(0,-0.26458333,0.26458333,0,10.110863,8.2870147)">
      <title
         id="title870">Right Horizontal Mark, RH</title>
      <polygon
         points="0,0 12,0 8,4 8,25 4,25 4,4 "
         style="fill:#ff0000"
         id="polygon872" />
    </g>
    <g
       id="g891"
       transform="matrix(0,-0.26458333,0.26458333,0,10.110863,15.880554)">
      <title
         id="title887">Right Horizontal Mark, RH</title>
      <polygon
         points="4,25 4,4 0,0 12,0 8,4 8,25 "
         style="fill:#ff0000"
         id="polygon889" />
    </g>
    <circle
       style="fill:#008000;fill-rule:evenodd;stroke-width:0.264583"
       id="path839"
       cx="17.245165"
       cy="14.242256"
       r="0.79374999">
      <title
         id="title909">Right 2 Touch Connector, R2T</title>
    </circle>
    <circle
       style="fill:#008000;fill-rule:evenodd;stroke-width:0.264583"
       id="circle913"
       cx="17.103424"
       cy="6.6807289"
       r="0.79374999">
      <title
         id="title911">Right 2 Touch Connector, R2T</title>
    </circle>
    <g
       id="g919"
       transform="matrix(0,-0.26458333,0.26458333,0,10.110863,11.938266)">
      <title
         id="title915">Right Horizontal Mark, RH</title>
      <polygon
         points="0,0 12,0 8,4 8,15 4,15 4,4 "
         style="fill:#ff0000"
         id="polygon917"
         transform="translate(0,9.7997144)" />
    </g>
    <circle
       style="fill:#008000;fill-rule:evenodd;stroke-width:0.264583"
       id="circle923"
       cx="17.245165"
       cy="10.379339"
       r="0.79374999">
      <title
         id="title921">Right 2 Touch Connector, R2T</title>
    </circle>
    <g
       id="g857"
       transform="matrix(0,-0.26458333,0.26458333,0,19.129375,11.934598)">
      <title
         id="title853">Right Horizontal Mark, RH</title>
      <polygon
         points="8,4 8,40 4,40 4,4 0,0 12,0 "
         style="fill:#ff0000"
         id="polygon855" />
    </g>
    <g
       id="g967"
       transform="matrix(0.26458333,0,0,0.26458333,24.887766,7.0398064)">
      <title
         id="title963">Down Vertical Mark, DV</title>
      <polygon
         points="8,4 8,25 4,25 4,4 0,0 12,0 "
         style="fill:#ff0000"
         id="polygon965" />
    </g>
    <g
       id="g984"
       transform="matrix(0.26458333,0,0,0.26458333,21.501101,7.0398064)">
      <title
         id="title980">Down Vertical Mark, DV</title>
      <polygon
         points="8,25 4,25 4,4 0,0 12,0 8,4 "
         style="fill:#ff0000"
         id="polygon982" />
    </g>
    <circle
       style="fill:#008000;fill-rule:evenodd;stroke-width:0.264583"
       id="circle988"
       cx="26.411087"
       cy="10.462495"
       r="0.79374999">
      <title
         id="title986">2 Cross Connector, 2C</title>
    </circle>
    <circle
       style="fill:#008000;fill-rule:evenodd;stroke-width:0.264583"
       id="circle992"
       cx="22.962053"
       cy="10.415248"
       r="0.79374999">
      <title
         id="title990">2 Cross Connector, 2C</title>
    </circle>
    <circle
       style="fill:#008000;fill-rule:evenodd;stroke-width:0.264583"
       id="circle996"
       cx="30.285343"
       cy="10.426586"
       r="0.79374999">
      <title
         id="title994">Right 2 Touch Connector, R2T</title>
    </circle>
  </g>
</svg>
