<?xml version="1.0" encoding="UTF-8" standalone="no"?>
<svg
   xmlns:dc="http://purl.org/dc/elements/1.1/"
   xmlns:cc="http://creativecommons.org/ns#"
   xmlns:rdf="http://www.w3.org/1999/02/22-rdf-syntax-ns#"
   xmlns:svg="http://www.w3.org/2000/svg"
   xmlns="http://www.w3.org/2000/svg"
   width="160"
   height="80"
   viewBox="0 0 42.333332 21.166667"
   version="1.1"
   id="svg8">
  <defs
     id="defs2" />
  <metadata
     id="metadata5">
    <rdf:RDF>
      <cc:Work
         rdf:about="">
        <dc:format>image/svg+xml</dc:format>
        <dc:type
           rdf:resource="http://purl.org/dc/dcmitype/StillImage" />
        <dc:title></dc:title>
      </cc:Work>
    </rdf:RDF>
  </metadata>
  <g
     id="layer1">
    <g
       id="g857"
       transform="matrix(0.26458333,0,0,0.26458333,18.161756,5.0081845)">
      <title
         id="title853">Down Vertical Mark, DV</title>
      <polygon
         points="0,0 12,0 8,4 8,40 4,40 4,4 "
         style="fill:#ff0000"
         id="polygon855" />
    </g>
    <g
       id="g872"
       transform="matrix(0,-0.26458333,0.26458333,0,12.605506,8.1831845)">
      <title
         id="title868">Right Horizontal Mark, RH</title>
      <polygon
         points="4,25 4,4 0,0 12,0 8,4 8,25 "
         style="fill:#ff0000"
         id="polygon870" />
    </g>
    <g
       id="g889"
       transform="matrix(0,-0.26458333,0.26458333,0,12.605506,16.226633)">
      <title
         id="title885">Right Horizontal Mark, RH</title>
      <polygon
         points="0,0 12,0 8,4 8,25 4,25 4,4 "
         style="fill:#ff0000"
         id="polygon887" />
    </g>
    <g
       id="g895"
       transform="matrix(0,-0.26458333,0.26458333,0,15.251377,12.204964)">
      <title
         id="title891">Right Horizontal Mark, RH</title>
      <polygon
         points="0,0 12,0 8,4 8,25 4,25 4,4 "
         style="fill:#ff0000"
         id="polygon893" />
    </g>
    <polygon
       points="6,12 0,6 6,0 "
       style="fill:#ff0000"
       id="polygon909"
       transform="matrix(0.33072916,0,0,0.33072916,24.056179,8.6555791)">
      <title
         id="title931">Heel Mark, HE</title>
    </polygon>
    <polygon
       points="6,12 0,6 6,0 "
       style="fill:#ff0000"
       id="polygon923"
       transform="matrix(0.33072916,0,0,0.33072916,22.071804,10.639954)">
      <title
         id="title933">Heel Mark, HE</title>
    </polygon>
    <polygon
       points="0,6 6,0 6,12 "
       style="fill:#ff0000"
       id="polygon925"
       transform="matrix(0.33072916,0,0,0.33072916,26.040554,6.6712041)">
      <title
         id="title929">Heel Mark, HE</title>
    </polygon>
    <polygon
       points="6,0 6,12 0,6 "
       style="fill:#ff0000"
       id="polygon927"
       transform="matrix(0.33072916,0,0,0.33072916,26.040554,10.639954)">
      <title
         id="title935">Heel Mark, HE</title>
    </polygon>
    <circle
       style="fill:#008000;fill-rule:evenodd;stroke-width:0.264583"
       id="path839"
       cx="19.702009"
       cy="14.693825"
       r="0.79374999">
      <title
         id="title957">Right 2 Touch Connector, R2T</title>
    </circle>
    <circle
       style="fill:#008000;fill-rule:evenodd;stroke-width:0.264583"
       id="circle953"
       cx="19.702009"
       cy="10.725075"
       r="0.79374999">
      <title
         id="title955">2 Cross Connector, 2C</title>
    </circle>
    <circle
       style="fill:#008000;fill-rule:evenodd;stroke-width:0.264583"
       id="circle961"
       cx="19.607515"
       cy="6.6618309"
       r="0.79374999">
      <title
         id="title959">Right 2 Touch Connector, R2T</title>
    </circle>
  </g>
</svg>
