<?xml version="1.0" encoding="UTF-8" standalone="no"?>
<svg
   xmlns:dc="http://purl.org/dc/elements/1.1/"
   xmlns:cc="http://creativecommons.org/ns#"
   xmlns:rdf="http://www.w3.org/1999/02/22-rdf-syntax-ns#"
   xmlns:svg="http://www.w3.org/2000/svg"
   xmlns="http://www.w3.org/2000/svg"
   width="160"
   height="80"
   viewBox="0 0 42.333332 21.166667"
   version="1.1"
   id="svg8">
  <defs
     id="defs2" />
  <metadata
     id="metadata5">
    <rdf:RDF>
      <cc:Work
         rdf:about="">
        <dc:format>image/svg+xml</dc:format>
        <dc:type
           rdf:resource="http://purl.org/dc/dcmitype/StillImage" />
        <dc:title></dc:title>
      </cc:Work>
    </rdf:RDF>
  </metadata>
  <g
     id="layer1">
    <polygon
       points="4,60 4,32 0,28 4,28 4,4 0,0 12,0 8,4 8,28 12,28 8,32 8,60 "
       style="fill:#ff0000"
       id="polygon842"
       transform="matrix(0,-0.26458333,0.26458333,0,12.000744,7.5406244)">
      <title
         id="title944">Right Horizontal Head-to-Tail Mark, RHHT</title>
    </polygon>
    <g
       id="g874"
       transform="matrix(-0.13229167,-0.22913588,0.22913588,-0.13229167,15.59269,10.4802)">
      <title
         id="title870">Right Up Diagonal Mark, RUD</title>
      <polygon
         points="0,0 12,0 8,4 8,25 4,25 4,4 "
         style="fill:#ff0000"
         id="polygon872" />
    </g>
    <g
       id="g905"
       transform="matrix(0.13229166,-0.22913589,0.22913589,0.13229166,13.952273,11.449659)">
      <title
         id="title901">Right Down Diagonal Mark, RDD</title>
      <polygon
         points="0,0 12,0 8,4 8,25 4,25 4,4 "
         style="fill:#ff0000"
         id="polygon903" />
    </g>
    <polygon
       points="4,28 4,4 0,0 12,0 8,4 8,28 12,28 8,32 8,60 4,60 4,32 0,28 "
       style="fill:#ff0000"
       id="polygon918"
       transform="matrix(0,-0.26458333,0.26458333,0,12.000744,14.79021)">
      <title
         id="title946">Right Horizontal Head-to-Tail Mark, RHHT</title>
    </polygon>
    <g
       id="g857"
       transform="matrix(0.26458333,0,0,0.26458333,10.439705,5.4239578)">
      <title
         id="title853">Down Vertical Mark, DV</title>
      <polygon
         points="8,4 8,30 4,30 4,4 0,0 12,0 "
         style="fill:#ff0000"
         id="polygon855"
         transform="translate(1.9998568)" />
    </g>
    <circle
       style="fill:#008000;fill-rule:evenodd;stroke-width:0.264583"
       id="path839"
       cx="12.803944"
       cy="13.087426"
       r="0.79374999">
      <title
         id="title980">Southwest Corner Connector, SWC</title>
    </circle>
    <circle
       style="fill:#008000;fill-rule:evenodd;stroke-width:0.264583"
       id="circle964"
       cx="15.308036"
       cy="9.5911455"
       r="0.79374999">
      <title
         id="title966">Left Middle Corner Connector, LMC</title>
    </circle>
    <circle
       style="fill:#008000;fill-rule:evenodd;stroke-width:0.264583"
       id="circle968"
       cx="19.749256"
       cy="6.1421132"
       r="0.79374999">
      <title
         id="title970">Other 2 Touch Connector, O2T</title>
    </circle>
    <circle
       style="fill:#008000;fill-rule:evenodd;stroke-width:0.264583"
       id="circle974"
       cx="19.938244"
       cy="13.229167"
       r="0.79374999">
      <title
         id="title972">Other 2 Touch Connector, O2T</title>
    </circle>
    <circle
       style="fill:#008000;fill-rule:evenodd;stroke-width:0.264583"
       id="circle976"
       cx="12.614956"
       cy="6.0476193"
       r="0.79374999">
      <title
         id="title978">Northwest Corner Connector, NWC</title>
    </circle>
  </g>
</svg>
