<?xml version="1.0" encoding="UTF-8" standalone="no"?>
<svg
   xmlns:dc="http://purl.org/dc/elements/1.1/"
   xmlns:cc="http://creativecommons.org/ns#"
   xmlns:rdf="http://www.w3.org/1999/02/22-rdf-syntax-ns#"
   xmlns:svg="http://www.w3.org/2000/svg"
   xmlns="http://www.w3.org/2000/svg"
   width="160"
   height="80"
   viewBox="0 0 42.333332 21.166667"
   version="1.1"
   id="svg8">
  <defs
     id="defs2" />
  <metadata
     id="metadata5">
    <rdf:RDF>
      <cc:Work
         rdf:about="">
        <dc:format>image/svg+xml</dc:format>
        <dc:type
           rdf:resource="http://purl.org/dc/dcmitype/StillImage" />
        <dc:title></dc:title>
      </cc:Work>
    </rdf:RDF>
  </metadata>
  <g
     id="layer1">
    <polygon
       points="8,90 4,90 4,4 0,0 12,0 8,4 "
       style="fill:#ff0000"
       id="polygon846"
       transform="matrix(0,-0.26458333,0.26458333,0,9.2793157,5.9380437)">
      <title
         id="title907">Right Horizontal Mark, RH</title>
    </polygon>
    <polygon
       points="8,4 8,90 4,90 4,4 0,0 12,0 "
       style="fill:#ff0000"
       id="polygon861"
       transform="matrix(0,-0.26458333,0.26458333,0,9.2793157,8.8484603)">
      <title
         id="title905">Right Horizontal Mark, RH</title>
    </polygon>
    <polygon
       points="8,90 4,90 4,4 0,0 12,0 8,4 "
       style="fill:#ff0000"
       id="polygon863"
       transform="matrix(0,-0.26458333,0.26458333,0,9.2793157,11.70596)">
      <title
         id="title903">Right Horizontal Mark, RH</title>
    </polygon>
    <polygon
       points="12,0 8,4 8,90 4,90 4,4 0,0 "
       style="fill:#ff0000"
       id="polygon865"
       transform="matrix(0,-0.26458333,0.26458333,0,9.2793157,14.589919)">
      <title
         id="title901">Right Horizontal Mark, RH</title>
    </polygon>
    <g
       id="g857"
       transform="matrix(0.26458333,0,0,0.26458333,32.033482,2.9482525)">
      <title
         id="title853">Down Vertical Mark, DV</title>
      <polygon
         points="4,4 0,0 12,0 8,4 8,40 4,40 "
         style="fill:#ff0000"
         id="polygon855" />
    </g>
    <g
       id="g899"
       transform="matrix(0.26458333,0,0,0.26458333,20.338786,2.8424187)">
      <title
         id="title895">Down Vertical Mark, DV</title>
      <polygon
         points="0,0 12,0 8,4 8,40 4,40 4,4 "
         style="fill:#ff0000"
         id="polygon897" />
    </g>
    <polygon
       points="6,0 6,12 0,6 "
       style="fill:#ff0000"
       id="polygon947"
       transform="matrix(0.33072916,0,0,0.396875,17.906622,6.2649545)">
      <title
         id="title961">Heel Mark, HE</title>
    </polygon>
    <circle
       style="fill:#008000;fill-rule:evenodd;stroke-width:0.264583"
       id="path839"
       cx="33.545387"
       cy="13.040178"
       r="0.79374999">
      <title
         id="title1007">Southeast Corner Connector, SEC</title>
    </circle>
    <circle
       style="fill:#008000;fill-rule:evenodd;stroke-width:0.264583"
       id="circle979"
       cx="21.875372"
       cy="10.110863"
       r="0.79374999">
      <title
         id="title981">2 Cross Connector, 2C</title>
    </circle>
    <circle
       style="fill:#008000;fill-rule:evenodd;stroke-width:0.264583"
       id="circle985"
       cx="21.922619"
       cy="4.3939729"
       r="0.79374999">
      <title
         id="title983">2 Cross Connector, 2C</title>
    </circle>
    <circle
       style="fill:#008000;fill-rule:evenodd;stroke-width:0.264583"
       id="circle989"
       cx="21.875372"
       cy="7.1815472"
       r="0.79374999">
      <title
         id="title987">2 Cross Connector, 2C</title>
    </circle>
    <circle
       style="fill:#008000;fill-rule:evenodd;stroke-width:0.264583"
       id="circle991"
       cx="33.639881"
       cy="9.921875"
       r="0.79374999">
      <title
         id="title993">Right 2 Touch Connector, R2T</title>
    </circle>
    <circle
       style="fill:#008000;fill-rule:evenodd;stroke-width:0.264583"
       id="circle997"
       cx="33.545387"
       cy="4.2522316"
       r="0.79374999">
      <title
         id="title995">Right 2 Touch Connector, R2T</title>
    </circle>
    <circle
       style="fill:#008000;fill-rule:evenodd;stroke-width:0.264583"
       id="circle1001"
       cx="33.545387"
       cy="7.0870528"
       r="0.79374999">
      <title
         id="title999">Right 2 Touch Connector, R2T</title>
    </circle>
    <circle
       style="fill:#008000;fill-rule:evenodd;stroke-width:0.264583"
       id="circle1003"
       cx="21.969868"
       cy="12.945683"
       r="0.79374999">
      <title
         id="title1005">Bottom 2 Touch Connector, B2T</title>
    </circle>
  </g>
</svg>
