<?xml version="1.0" encoding="UTF-8" standalone="no"?>
<svg
   xmlns:dc="http://purl.org/dc/elements/1.1/"
   xmlns:cc="http://creativecommons.org/ns#"
   xmlns:rdf="http://www.w3.org/1999/02/22-rdf-syntax-ns#"
   xmlns:svg="http://www.w3.org/2000/svg"
   xmlns="http://www.w3.org/2000/svg"
   width="160"
   height="80"
   viewBox="0 0 42.333332 21.166667"
   version="1.1"
   id="svg8">
  <defs
     id="defs2" />
  <metadata
     id="metadata5">
    <rdf:RDF>
      <cc:Work
         rdf:about="">
        <dc:format>image/svg+xml</dc:format>
        <dc:type
           rdf:resource="http://purl.org/dc/dcmitype/StillImage" />
        <dc:title></dc:title>
      </cc:Work>
    </rdf:RDF>
  </metadata>
  <g
     id="layer1">
    <g
       id="g857"
       transform="matrix(0.26458333,0,0,0.26458333,20.94933,4.1104914)">
      <title
         id="title853">Down Vertical Mark, DV</title>
      <polygon
         points="8,4 8,40 4,40 4,4 0,0 12,0 "
         style="fill:#000000"
         id="polygon855" />
    </g>
    <g
       id="g874"
       transform="matrix(0,-0.26458333,0.26458333,0,12.236979,10.923587)">
      <title
         id="title870">Right Horizontal Mark, RH</title>
      <polygon
         points="4,40 4,4 0,0 12,0 8,4 8,40 "
         style="fill:#000000"
         id="polygon872" />
    </g>
    <polygon
       points="6,12 0,6 6,0 "
       style="fill:#000000"
       id="polygon888"
       transform="matrix(0.26458333,0,0,0.26458333,15.695461,5.2633182)">
      <title
         id="title924">Heel Mark, HE</title>
    </polygon>
    <polygon
       points="0,6 6,0 6,12 "
       style="fill:#000000"
       id="polygon902"
       transform="matrix(0.26458333,0,0,0.26458333,18.152306,4.932589)">
      <title
         id="title922">Heel Mark, HE</title>
    </polygon>
    <circle
       style="fill:#000000;fill-rule:evenodd;stroke-width:0.264583"
       id="path839"
       cx="22.39509"
       cy="9.2131691"
       r="0.79374999">
      <title
         id="title920">Right 2 Touch Connector, R2T</title>
    </circle>
  </g>
</svg>
