<?xml version="1.0" encoding="UTF-8" standalone="no"?>
<svg
   xmlns:dc="http://purl.org/dc/elements/1.1/"
   xmlns:cc="http://creativecommons.org/ns#"
   xmlns:rdf="http://www.w3.org/1999/02/22-rdf-syntax-ns#"
   xmlns:svg="http://www.w3.org/2000/svg"
   xmlns="http://www.w3.org/2000/svg"
   width="160"
   height="80"
   viewBox="0 0 42.333332 21.166667"
   version="1.1"
   id="svg8">
  <defs
     id="defs2" />
  <metadata
     id="metadata5">
    <rdf:RDF>
      <cc:Work
         rdf:about="">
        <dc:format>image/svg+xml</dc:format>
        <dc:type
           rdf:resource="http://purl.org/dc/dcmitype/StillImage" />
        <dc:title></dc:title>
      </cc:Work>
    </rdf:RDF>
  </metadata>
  <g
     id="layer1">
    <polygon
       points="6,0 6,12 0,6 "
       style="fill:#000000"
       id="polygon1203"
       transform="matrix(0.26458333,0,0,0.26458333,11.619102,6.8336958)">
      <title
         id="title1217">Heel Mark, HE</title>
    </polygon>
    <polygon
       points="6,0 6,12 0,6 "
       style="fill:#000000"
       id="polygon1825"
       transform="matrix(0.26458333,0,0,0.26458333,11.539688,11.065026)">
      <title
         id="title1823">Heel Mark, HE</title>
    </polygon>
    <polygon
       points="8,4 8,18 12,18 8,22 8,40 4,40 4,22 0,18 4,18 4,4 0,0 12,0 "
       style="fill:#000000"
       id="polygon1839"
       transform="matrix(0,-0.26458333,0.26458333,0,14.315848,9.9974706)">
      <title
         id="title1855">Right Horizontal Head-to-Tail Mark, RHHT</title>
    </polygon>
    <polygon
       points="8,40 4,40 4,22 0,18 4,18 4,4 0,0 12,0 8,4 8,18 12,18 8,22 "
       style="fill:#000000"
       id="polygon1853"
       transform="matrix(0,-0.26458333,0.26458333,0,14.221354,14.264746)">
      <title
         id="title1857">Right Horizontal Head-to-Tail Mark, RHHT</title>
    </polygon>
    <polygon
       points="6,12 0,6 6,0 "
       style="fill:#000000"
       id="polygon1861"
       transform="matrix(0.26458333,0,0,0.26458333,21.274352,5.6054625)">
      <title
         id="title1859">Heel Mark, HE</title>
    </polygon>
    <polygon
       points="6,0 6,12 0,6 "
       style="fill:#000000"
       id="polygon1865"
       transform="matrix(0.26458333,0,0,0.26458333,22.861852,5.6054625)">
      <title
         id="title1863">Heel Mark, HE</title>
    </polygon>
    <polygon
       points="6,12 0,6 6,0 "
       style="fill:#000000"
       id="polygon1869"
       transform="matrix(0.26458333,0,0,0.26458333,21.210247,12.172609)">
      <title
         id="title1867">Heel Mark, HE</title>
    </polygon>
    <polygon
       points="6,0 6,12 0,6 "
       style="fill:#000000"
       id="polygon1873"
       transform="matrix(0.26458333,0,0,0.26458333,22.820314,12.148079)">
      <title
         id="title1871">Heel Mark, HE</title>
    </polygon>
  </g>
</svg>
