<?xml version="1.0" encoding="UTF-8" standalone="no"?>
<svg
   xmlns:dc="http://purl.org/dc/elements/1.1/"
   xmlns:cc="http://creativecommons.org/ns#"
   xmlns:rdf="http://www.w3.org/1999/02/22-rdf-syntax-ns#"
   xmlns:svg="http://www.w3.org/2000/svg"
   xmlns="http://www.w3.org/2000/svg"
   width="160"
   height="80"
   viewBox="0 0 42.333332 21.166667"
   version="1.1"
   id="svg8">
  <defs
     id="defs2" />
  <metadata
     id="metadata5">
    <rdf:RDF>
      <cc:Work
         rdf:about="">
        <dc:format>image/svg+xml</dc:format>
        <dc:type
           rdf:resource="http://purl.org/dc/dcmitype/StillImage" />
        <dc:title></dc:title>
      </cc:Work>
    </rdf:RDF>
  </metadata>
  <g
     id="layer1">
    <polygon
       points="6,0 6,12 0,6 "
       style="fill:#000000"
       id="polygon1203"
       transform="matrix(0.26458333,0,0,0.26458333,7.8524548,6.2082585)">
      <title
         id="title1217">Heel Mark, HE</title>
    </polygon>
    <polygon
       points="6,0 6,12 0,6 "
       style="fill:#000000"
       id="polygon1319"
       transform="matrix(0.26458333,0,0,0.26458333,13.49375,4.613275)">
      <title
         id="title1317">Heel Mark, HE</title>
    </polygon>
    <polygon
       points="6,12 0,6 6,0 "
       style="fill:#000000"
       id="polygon1323"
       transform="matrix(0.26458333,0,0,0.26458333,15.525485,4.5451634)">
      <title
         id="title1321">Heel Mark, HE</title>
    </polygon>
    <polygon
       points="6,0 6,12 0,6 "
       style="fill:#000000"
       id="polygon1327"
       transform="matrix(0.26458333,0,0,0.26458333,13.387917,7.7618166)">
      <title
         id="title1325">Heel Mark, HE</title>
    </polygon>
    <polygon
       points="6,0 6,12 0,6 "
       style="fill:#000000"
       id="polygon1331"
       transform="matrix(0.26458333,0,0,0.26458333,15.525485,7.7201634)">
      <title
         id="title1329">Heel Mark, HE</title>
    </polygon>
    <polygon
       points="0,40 4,35 4,4 0,0 12,0 8,4 8,35 12,40 "
       style="fill:#000000"
       id="polygon1171"
       transform="matrix(0,-0.26458333,0.26458333,0,10.486005,5.4381327)">
      <title
         id="title1185">Right Horizontal Barbell Mark, RHBB</title>
    </polygon>
    <polygon
       points="4,35 4,4 0,0 12,0 8,4 8,35 12,40 0,40 "
       style="fill:#000000"
       id="polygon1189"
       transform="matrix(0,-0.26458333,0.26458333,0,10.72224,13.281138)">
      <title
         id="title1187">Right Horizontal Barbell Mark, RHBB</title>
    </polygon>
  </g>
</svg>
