<?xml version="1.0" encoding="UTF-8" standalone="no"?>
<svg
   xmlns:dc="http://purl.org/dc/elements/1.1/"
   xmlns:cc="http://creativecommons.org/ns#"
   xmlns:rdf="http://www.w3.org/1999/02/22-rdf-syntax-ns#"
   xmlns:svg="http://www.w3.org/2000/svg"
   xmlns="http://www.w3.org/2000/svg"
   width="160"
   height="80"
   viewBox="0 0 42.333332 21.166667"
   version="1.1"
   id="svg8">
  <defs
     id="defs2" />
  <metadata
     id="metadata5">
    <rdf:RDF>
      <cc:Work
         rdf:about="">
        <dc:format>image/svg+xml</dc:format>
        <dc:type
           rdf:resource="http://purl.org/dc/dcmitype/StillImage" />
        <dc:title></dc:title>
      </cc:Work>
    </rdf:RDF>
  </metadata>
  <g
     id="layer1">
    <g
       id="g267"
       transform="matrix(0.26458333,0,0,0.26458333,13.437054,6.18936)">
      <title
         id="title263">Down Vertical Mark, DV</title>
      <polygon
         points="0,0 12,0 8,4 8,40 4,40 4,4 "
         style="fill:#000000"
         id="polygon265" />
    </g>
    <g
       id="g284"
       transform="matrix(0.26458333,0,0,0.26458333,24.020387,6.18936)">
      <title
         id="title280">Down Vertical Mark, DV</title>
      <polygon
         points="8,4 8,40 4,40 4,4 0,0 12,0 "
         style="fill:#000000"
         id="polygon282" />
    </g>
    <g
       id="g290"
       transform="matrix(0,-0.26458333,0.26458333,0,14.495387,8.3060266)">
      <title
         id="title286">Right Horizontal Mark, RH</title>
      <polygon
         points="4,40 4,4 0,0 12,0 8,4 8,40 "
         style="fill:#000000"
         id="polygon288" />
    </g>
    <g
       id="g296"
       transform="matrix(0,-0.26458333,0.26458333,0,14.495387,17.831027)">
      <title
         id="title292">Right Horizontal Mark, RH</title>
      <polygon
         points="4,4 0,0 12,0 8,4 8,40 4,40 "
         style="fill:#000000"
         id="polygon294" />
    </g>
    <g
       id="g376"
       transform="matrix(0.26458333,0,0,0.26458333,24.766889,5.9625746)">
      <title
         id="title372">Northeast Corner Connector, NEC</title>
      <circle
         cx="3"
         cy="3"
         r="3"
         style="fill:#000000"
         id="circle374" />
    </g>
    <g
       id="g393"
       transform="matrix(0.26458333,0,0,0.26458333,24.861384,15.411979)">
      <title
         id="title389">Southeast Corner Connector, SEC</title>
      <circle
         cx="3"
         cy="3"
         r="3"
         style="fill:#000000"
         id="circle391" />
    </g>
    <g
       id="g417"
       transform="matrix(0.26458333,0,0,0.26458333,14.183556,15.317485)">
      <title
         id="title413">Southwest Corner Connector, SWC</title>
      <circle
         cx="3"
         cy="3"
         r="3"
         style="fill:#000000"
         id="circle415" />
    </g>
    <g
       id="g423"
       transform="matrix(0.26458333,0,0,0.26458333,14.136309,6.0570683)">
      <title
         id="title419">Northwest Corner Connector, NWC</title>
      <circle
         cx="3"
         cy="3"
         r="3"
         style="fill:#000000"
         id="circle421" />
    </g>
    <polygon
       points="0,6 6,0 6,12 "
       style="fill:#000000"
       id="polygon463"
       transform="matrix(0.26458333,0,0,0.26458333,19.43735,9.9406616)">
      <title
         id="title473">Heel Mark, HE</title>
    </polygon>
  </g>
</svg>
