<?xml version="1.0" encoding="UTF-8" standalone="no"?>
<svg
   xmlns:dc="http://purl.org/dc/elements/1.1/"
   xmlns:cc="http://creativecommons.org/ns#"
   xmlns:rdf="http://www.w3.org/1999/02/22-rdf-syntax-ns#"
   xmlns:svg="http://www.w3.org/2000/svg"
   xmlns="http://www.w3.org/2000/svg"
   width="160"
   height="80"
   viewBox="0 0 42.333332 21.166667"
   version="1.1"
   id="svg8">
  <defs
     id="defs2" />
  <metadata
     id="metadata5">
    <rdf:RDF>
      <cc:Work
         rdf:about="">
        <dc:format>image/svg+xml</dc:format>
        <dc:type
           rdf:resource="http://purl.org/dc/dcmitype/StillImage" />
        <dc:title></dc:title>
      </cc:Work>
    </rdf:RDF>
  </metadata>
  <g
     id="layer1">
    <g
       id="g894"
       transform="matrix(0.26458333,0,0,0.26458333,14.816665,3.3771417)">
      <title
         id="title890">Down Vertical Mark, DV</title>
      <polygon
         points="0,0 12,0 8,4 8,40 4,40 4,4 "
         style="fill:#000000"
         id="polygon892" />
    </g>
    <g
       id="g982"
       transform="matrix(0,-0.26458333,0.26458333,0,5.2916651,6.2082586)">
      <title
         id="title978">Right Horizontal Mark, RH</title>
      <polygon
         points="4,4 0,0 12,0 8,4 8,40 4,40 "
         style="fill:#000000"
         id="polygon980" />
    </g>
    <circle
       style="fill:#000000;fill-rule:evenodd;stroke-width:0.264583"
       id="circle956"
       cx="16.319118"
       cy="4.5735116"
       r="0.79374999">
      <title
         id="title976">Northeast Corner Connector, NEC</title>
    </circle>
    <g
       id="g989"
       transform="matrix(0,-0.26458333,0.26458333,0,5.4940729,12.686771)">
      <title
         id="title985">Right Horizontal Mark, RH</title>
      <polygon
         points="4,4 0,0 12,0 8,4 8,40 4,40 "
         style="fill:#000000"
         id="polygon987" />
    </g>
    <g
       id="g1445"
       transform="matrix(0.26458333,0,0,0.26458333,23.925891,3.2184295)">
      <title
         id="title1441">Down Vertical Mark, DV</title>
      <polygon
         points="8,4 8,40 4,40 4,4 0,0 12,0 "
         style="fill:#000000"
         id="polygon1443" />
    </g>
    <g
       id="g1455"
       transform="matrix(0.18708867,-0.18708867,0.18708867,0.18708867,17.34185,5.8908548)">
      <title
         id="title1451">Right Down Diagonal Mark, RDD</title>
      <polygon
         points="12,0 8,4 8,40 4,40 4,4 0,0 "
         style="fill:#000000"
         id="polygon1453" />
    </g>
    <g
       id="g1461"
       transform="matrix(0,-0.26458333,0.26458333,0,16.933332,13.484225)">
      <title
         id="title1457">Right Horizontal Mark, RH</title>
      <polygon
         points="4,40 4,4 0,0 12,0 8,4 8,40 "
         style="fill:#000000"
         id="polygon1459" />
    </g>
    <circle
       style="fill:#000000;fill-rule:evenodd;stroke-width:0.264583"
       id="circle958"
       cx="16.870892"
       cy="11.52457"
       r="0.79374999">
      <title
         id="title966">3 Touch Connector, 3T</title>
    </circle>
    <circle
       style="fill:#000000;fill-rule:evenodd;stroke-width:0.264583"
       id="circle1465"
       cx="25.517096"
       cy="11.808053"
       r="0.79374999">
      <title
         id="title1463">3 Touch Connector, 3T</title>
    </circle>
    <g
       id="g1485"
       transform="matrix(0.26458333,0,0,0.26458333,19.586914,3.6457908)">
      <title
         id="title1481">Down Vertical Mark, DV</title>
      <polygon
         points="8,15 4,15 4,4 0,0 12,0 8,4 "
         style="fill:#000000"
         id="polygon1483"
         transform="translate(1.511811e-7,0.0996331)" />
    </g>
    <circle
       style="fill:#000000;fill-rule:evenodd;stroke-width:0.264583"
       id="circle1449"
       cx="21.136385"
       cy="7.1305218"
       r="0.79374999">
      <title
         id="title1447">Other 2 Touch Connector, O2T</title>
    </circle>
  </g>
</svg>
