<?xml version="1.0" encoding="UTF-8" standalone="no"?>
<svg
   xmlns:dc="http://purl.org/dc/elements/1.1/"
   xmlns:cc="http://creativecommons.org/ns#"
   xmlns:rdf="http://www.w3.org/1999/02/22-rdf-syntax-ns#"
   xmlns:svg="http://www.w3.org/2000/svg"
   xmlns="http://www.w3.org/2000/svg"
   width="160"
   height="80"
   viewBox="0 0 42.333332 21.166667"
   version="1.1"
   id="svg8">
  <defs
     id="defs2" />
  <metadata
     id="metadata5">
    <rdf:RDF>
      <cc:Work
         rdf:about="">
        <dc:format>image/svg+xml</dc:format>
        <dc:type
           rdf:resource="http://purl.org/dc/dcmitype/StillImage" />
        <dc:title></dc:title>
      </cc:Work>
    </rdf:RDF>
  </metadata>
  <g
     id="layer1">
    <g
       id="g1061"
       transform="matrix(0,-0.26458333,0.26458333,0,10.080625,13.805429)">
      <title
         id="title1057">Right Horizontal Mark, RH</title>
      <polygon
         points="12,0 8,4 8,45 4,45 4,4 0,0 "
         style="fill:#000000"
         id="polygon1059" />
    </g>
    <g
       id="g1147"
       transform="matrix(0.26458333,0,0,0.26458333,20.756565,4.5829621)">
      <title
         id="title1143">Down Vertical Mark, DV</title>
      <polygon
         points="12,0 8,4 8,40 4,40 4,4 0,0 "
         style="fill:#000000"
         id="polygon1145" />
    </g>
    <circle
       style="fill:#000000;fill-rule:evenodd;stroke-width:0.264583"
       id="path839"
       cx="22.347841"
       cy="12.331472"
       r="0.79374999">
      <title
         id="title1105">Right 2 Touch Connector, R2T</title>
    </circle>
    <g
       id="g1153"
       transform="matrix(0.18708867,-0.18708867,0.18708867,0.18708867,10.403681,8.4270536)">
      <title
         id="title1149">Right Down Diagonal Mark, RDD</title>
      <polygon
         points="12,0 8,4 8,25 4,25 4,4 0,0 "
         style="fill:#000000"
         id="polygon1151" />
    </g>
    <circle
       style="fill:#000000;fill-rule:evenodd;stroke-width:0.264583"
       id="circle1097"
       cx="16.031746"
       cy="12.142486"
       r="0.79374999">
      <title
         id="title1107">Other 2 Touch Connector, O2T</title>
    </circle>
    <polygon
       points="8,35 12,40 0,40 4,35 4,4 0,0 12,0 8,4 "
       style="fill:#000000"
       id="polygon1171"
       transform="matrix(0,-0.26458333,0.26458333,0,10.067396,7.1493062)">
      <title
         id="title1185">Right Horizontal Barbell Mark, RHBB</title>
    </polygon>
  </g>
</svg>
