<?xml version="1.0" encoding="UTF-8" standalone="no"?>
<svg
   xmlns:dc="http://purl.org/dc/elements/1.1/"
   xmlns:cc="http://creativecommons.org/ns#"
   xmlns:rdf="http://www.w3.org/1999/02/22-rdf-syntax-ns#"
   xmlns:svg="http://www.w3.org/2000/svg"
   xmlns="http://www.w3.org/2000/svg"
   width="160"
   height="80"
   viewBox="0 0 42.333332 21.166667"
   version="1.1"
   id="svg8">
  <defs
     id="defs2" />
  <metadata
     id="metadata5">
    <rdf:RDF>
      <cc:Work
         rdf:about="">
        <dc:format>image/svg+xml</dc:format>
        <dc:type
           rdf:resource="http://purl.org/dc/dcmitype/StillImage" />
        <dc:title></dc:title>
      </cc:Work>
    </rdf:RDF>
  </metadata>
  <g
     id="layer1">
    <polygon
       points="4,4 0,0 12,0 8,4 8,15 4,15 "
       style="fill:#000000"
       id="polygon1056"
       transform="matrix(0.15175875,-0.21673398,0.21673398,0.15175875,6.5640478,10.23536)">
      <title
         id="title1068">Right Down Diagonal  Mark, RDD</title>
    </polygon>
    <polygon
       points="0,0 12,0 8,4 8,15 4,15 4,4 "
       style="fill:#000000"
       id="polygon1060"
       transform="matrix(0.15175875,-0.21673398,0.21673398,0.15175875,6.6931645,13.449518)">
      <title
         id="title1070">Right Down Diagonal  Mark, RDD</title>
    </polygon>
    <polygon
       points="4,28 4,4 0,0 12,0 8,4 8,28 12,28 8,32 8,60 4,60 4,32 0,28 "
       style="fill:#000000"
       id="polygon1084"
       transform="matrix(0,-0.26458333,0.26458333,0,10.772321,11.887351)">
      <title
         id="title1159">Right Horizontal Head-to-Tail Mark, RHHT</title>
    </polygon>
    <g
       id="g1120"
       transform="matrix(0,-0.26458333,0.26458333,0,10.772321,15.062351)">
      <title
         id="title1116">Right Horizontal Mark, RH</title>
      <polygon
         points="8,62 4,62 4,4 0,0 12,0 8,4 "
         style="fill:#000000"
         id="polygon1118" />
    </g>
    <circle
       style="fill:#000000;fill-rule:evenodd;stroke-width:0.264583"
       id="circle1137"
       cx="10.677827"
       cy="10.87067"
       r="0.79374999">
      <title
         id="title1135">Other 2 Touch Connector, O2T</title>
    </circle>
    <circle
       style="fill:#000000;fill-rule:evenodd;stroke-width:0.264583"
       id="circle1141"
       cx="10.725074"
       cy="14.410342"
       r="0.79374999">
      <title
         id="title1139">Other 2 Touch Connector, O2T</title>
    </circle>
    <g
       id="g1179"
       transform="matrix(0.26458333,0,0,0.26458333,12.369271,6.5200896)">
      <title
         id="title1175">Down Vertical Mark, DV</title>
      <polygon
         points="4,40 4,4 0,0 12,0 8,4 8,40 "
         style="fill:#000000"
         id="polygon1177" />
    </g>
    <g
       id="g1196"
       transform="matrix(0.26458333,0,0,0.26458333,19.123819,6.4255956)">
      <title
         id="title1192">Down Vertical Mark, DV</title>
      <polygon
         points="8,40 4,40 4,4 0,0 12,0 8,4 "
         style="fill:#000000"
         id="polygon1194" />
    </g>
    <g
       id="g1202"
       transform="matrix(0.26458333,0,0,0.26458333,28.08363,6.7563248)">
      <title
         id="title1198">Down Vertical Mark, DV</title>
      <polygon
         points="0,0 12,0 8,4 8,40 4,40 4,4 "
         style="fill:#000000"
         id="polygon1200"
         transform="translate(-21.863853,-1.2500001)" />
    </g>
    <circle
       style="fill:#000000;fill-rule:evenodd;stroke-width:0.264583"
       id="circle1066"
       cx="14.032363"
       cy="10.252604"
       r="0.79374999">
      <title
         id="title1064">2 Cross Connector, 2C</title>
    </circle>
    <circle
       style="fill:#000000;fill-rule:evenodd;stroke-width:0.264583"
       id="circle1145"
       cx="20.646948"
       cy="10.205357"
       r="0.79374999">
      <title
         id="title1143">2 Cross Connector, 2C</title>
    </circle>
    <circle
       style="fill:#000000;fill-rule:evenodd;stroke-width:0.264583"
       id="circle1153"
       cx="13.937871"
       cy="13.465401"
       r="0.79374999">
      <title
         id="title1151">2 Cross Connector, 2C</title>
    </circle>
    <circle
       style="fill:#000000;fill-rule:evenodd;stroke-width:0.264583"
       id="circle1149"
       cx="20.646948"
       cy="13.465401"
       r="0.79374999">
      <title
         id="title1147">2 Cross Connector, 2C</title>
    </circle>
    <circle
       style="fill:#000000;fill-rule:evenodd;stroke-width:0.264583"
       id="circle1206"
       cx="23.906992"
       cy="10.15811"
       r="0.79374999">
      <title
         id="title1204">2 Cross Connector, 2C</title>
    </circle>
    <circle
       style="fill:#000000;fill-rule:evenodd;stroke-width:0.264583"
       id="circle1210"
       cx="23.906992"
       cy="13.418155"
       r="0.79374999">
      <title
         id="title1208">2 Cross Connector, 2C</title>
    </circle>
    <polygon
       points="0,0 12,0 8,4 8,15 4,15 4,4 "
       style="fill:#000000"
       id="polygon1214"
       transform="matrix(0.15175875,-0.21673398,0.21673398,0.15175875,16.911146,5.5559389)">
      <title
         id="title1212">Right Down Diagonal  Mark, RDD</title>
    </polygon>
    <circle
       style="fill:#000000;fill-rule:evenodd;stroke-width:0.264583"
       id="circle1218"
       cx="20.694197"
       cy="6.3822031"
       r="0.79374999">
      <title
         id="title1216">Other 2 Touch Connector, O2T</title>
    </circle>
  </g>
</svg>
