<?xml version="1.0" encoding="UTF-8" standalone="no"?>
<svg
   xmlns:dc="http://purl.org/dc/elements/1.1/"
   xmlns:cc="http://creativecommons.org/ns#"
   xmlns:rdf="http://www.w3.org/1999/02/22-rdf-syntax-ns#"
   xmlns:svg="http://www.w3.org/2000/svg"
   xmlns="http://www.w3.org/2000/svg"
   width="160"
   height="80"
   viewBox="0 0 42.333332 21.166667"
   version="1.1"
   id="svg8">
  <defs
     id="defs2" />
  <metadata
     id="metadata5">
    <rdf:RDF>
      <cc:Work
         rdf:about="">
        <dc:format>image/svg+xml</dc:format>
        <dc:type
           rdf:resource="http://purl.org/dc/dcmitype/StillImage" />
        <dc:title></dc:title>
      </cc:Work>
    </rdf:RDF>
  </metadata>
  <g
     id="layer1">
    <polygon
       points="4,4 0,0 12,0 8,4 8,28 12,28 8,32 8,60 4,60 4,32 0,28 4,28 "
       style="fill:#000000"
       id="polygon1550"
       transform="matrix(0,-0.26458333,0.26458333,0,9.6309085,15.967603)">
      <title
         id="title1554">Right Horizontal Head-to-Tail Mark, RHHT</title>
    </polygon>
    <polygon
       points="8,60 4,60 4,32 0,28 4,28 4,4 0,0 12,0 8,4 8,28 12,28 8,32 "
       style="fill:#000000"
       id="polygon1536"
       transform="matrix(0,-0.26458333,0.26458333,0,9.6309085,7.0285431)">
      <title
         id="title1552">Right Horizontal Head-to-Tail Mark, RHHT</title>
    </polygon>
    <polygon
       points="8,28 12,28 8,32 8,60 4,60 4,32 0,28 4,28 4,4 0,0 12,0 8,4 "
       style="fill:#000000"
       id="polygon1558"
       transform="matrix(0.26458333,0,0,0.26458333,24.390879,3.7552312)">
      <title
         id="title1556">Down Vertical Head-to-Tail Mark,  DVHT</title>
    </polygon>
    <circle
       style="fill:#000000;fill-rule:evenodd;stroke-width:0.264583"
       id="circle1425"
       cx="26.036852"
       cy="5.4806533"
       r="0.79374999">
      <title
         id="title1423">Northeast Corner Connector, NEC</title>
    </circle>
    <circle
       style="fill:#000000;fill-rule:evenodd;stroke-width:0.264583"
       id="circle1409"
       cx="25.917789"
       cy="14.415898"
       r="0.79374999">
      <title
         id="title1407">Right 2 Touch Connector, R2T</title>
    </circle>
  </g>
</svg>
