<?xml version="1.0" encoding="UTF-8" standalone="no"?>
<svg
   xmlns:dc="http://purl.org/dc/elements/1.1/"
   xmlns:cc="http://creativecommons.org/ns#"
   xmlns:rdf="http://www.w3.org/1999/02/22-rdf-syntax-ns#"
   xmlns:svg="http://www.w3.org/2000/svg"
   xmlns="http://www.w3.org/2000/svg"
   width="160"
   height="80"
   viewBox="0 0 42.333332 21.166667"
   version="1.1"
   id="svg8">
  <defs
     id="defs2" />
  <metadata
     id="metadata5">
    <rdf:RDF>
      <cc:Work
         rdf:about="">
        <dc:format>image/svg+xml</dc:format>
        <dc:type
           rdf:resource="http://purl.org/dc/dcmitype/StillImage" />
        <dc:title></dc:title>
      </cc:Work>
    </rdf:RDF>
  </metadata>
  <g
     id="layer1">
    <g
       id="g1108"
       transform="matrix(0,-0.26458333,0.26458333,0,19.652985,15.251301)">
      <title
         id="title1104">Right Horizontal Mark, RH</title>
      <polygon
         points="0,0 12,0 8,4 8,25 4,25 4,4 "
         style="fill:#000000"
         id="polygon1106" />
    </g>
    <g
       id="g1114"
       transform="matrix(0.26458333,0,0,0.26458333,17.642152,7.5255437)">
      <title
         id="title1110">Down Vertical Mark, DV</title>
      <polygon
         points="4,4 0,0 12,0 8,4 8,25 4,25 "
         style="fill:#000000"
         id="polygon1112" />
    </g>
    <g
       id="g1120"
       transform="matrix(0,-0.26458333,0.26458333,0,15.874999,8.5800595)">
      <title
         id="title1116">Right Horizontal Mark, RH</title>
      <polygon
         points="12,0 8,4 8,40 4,40 4,4 0,0 "
         style="fill:#000000"
         id="polygon1118" />
    </g>
    <g
       id="g1130"
       transform="matrix(0.26458333,0,0,0.26458333,25.399999,5.4050595)">
      <title
         id="title1126">Down Vertical Mark, DV</title>
      <polygon
         points="0,0 12,0 8,4 8,40 4,40 4,4 "
         style="fill:#000000"
         id="polygon1128" />
    </g>
    <circle
       style="fill:#000000;fill-rule:evenodd;stroke-width:0.264583"
       id="circle1084"
       cx="19.276781"
       cy="7.5992112"
       r="0.79374999">
      <title
         id="title1090">Top 2 Touch Connector, T2T</title>
    </circle>
    <circle
       style="fill:#000000;fill-rule:evenodd;stroke-width:0.264583"
       id="circle1080"
       cx="19.45999"
       cy="13.748883"
       r="0.79374999">
      <title
         id="title1094">Southwest Corner Connector, SWC</title>
    </circle>
    <circle
       style="fill:#000000;fill-rule:evenodd;stroke-width:0.264583"
       id="circle1078"
       cx="26.496244"
       cy="13.701635"
       r="0.79374999">
      <title
         id="title1092">Right 2 Touch Connector, R2T</title>
    </circle>
    <circle
       style="fill:#000000;fill-rule:evenodd;stroke-width:0.264583"
       id="circle1134"
       cx="26.590738"
       cy="7.0870523"
       r="0.79374999">
      <title
         id="title1132">Northeast Corner Connector, NEC</title>
    </circle>
  </g>
</svg>
