<?xml version="1.0" encoding="UTF-8" standalone="no"?>
<svg
   xmlns:dc="http://purl.org/dc/elements/1.1/"
   xmlns:cc="http://creativecommons.org/ns#"
   xmlns:rdf="http://www.w3.org/1999/02/22-rdf-syntax-ns#"
   xmlns:svg="http://www.w3.org/2000/svg"
   xmlns="http://www.w3.org/2000/svg"
   width="160"
   height="80"
   viewBox="0 0 42.333332 21.166667"
   version="1.1"
   id="svg8">
  <defs
     id="defs2" />
  <metadata
     id="metadata5">
    <rdf:RDF>
      <cc:Work
         rdf:about="">
        <dc:format>image/svg+xml</dc:format>
        <dc:type
           rdf:resource="http://purl.org/dc/dcmitype/StillImage" />
        <dc:title></dc:title>
      </cc:Work>
    </rdf:RDF>
  </metadata>
  <g
     id="layer1">
    <polygon
       points="6,12 0,6 6,0 "
       style="fill:#000000"
       id="polygon920"
       transform="matrix(0.26458333,0,0,0.26458333,17.396354,10.054167)">
      <title
         id="title967">Heel Mark, HE</title>
    </polygon>
    <polygon
       points="6,12 0,6 6,0 "
       style="fill:#000000"
       id="polygon922"
       transform="matrix(0.26458333,0,0,0.26458333,19.049999,10.054167)">
      <title
         id="title965">Heel Mark, HE</title>
    </polygon>
    <polygon
       points="6,0 6,12 0,6 "
       style="fill:#000000"
       id="polygon924"
       transform="matrix(0.26458333,0,0,0.26458333,20.609151,10.054167)">
      <title
         id="title963">Heel Mark, HE</title>
    </polygon>
    <g
       id="g944"
       transform="matrix(0.26458333,0,0,0.26458333,15.279687,9.005283)">
      <title
         id="title940">Down Vertical Mark, DV</title>
      <polygon
         points="8,25 4,25 4,4 0,0 12,0 8,4 "
         style="fill:#000000"
         id="polygon942" />
    </g>
    <g
       id="g961"
       transform="matrix(0,-0.26458333,0.26458333,0,17.40191,15.676562)">
      <title
         id="title957">Right Horizontal Mark, RH</title>
      <polygon
         points="4,25 4,4 0,0 12,0 8,4 8,25 "
         style="fill:#000000"
         id="polygon959" />
    </g>
    <circle
       style="fill:#000000;fill-rule:evenodd;stroke-width:0.264583"
       id="path839"
       cx="17.670387"
       cy="13.985118"
       r="0.79374999">
      <title
         id="title892">Southwest Corner Connector, SWC</title>
    </circle>
  </g>
</svg>
