<?xml version="1.0" encoding="UTF-8" standalone="no"?>
<svg
   xmlns:dc="http://purl.org/dc/elements/1.1/"
   xmlns:cc="http://creativecommons.org/ns#"
   xmlns:rdf="http://www.w3.org/1999/02/22-rdf-syntax-ns#"
   xmlns:svg="http://www.w3.org/2000/svg"
   xmlns="http://www.w3.org/2000/svg"
   width="160"
   height="80"
   viewBox="0 0 42.333332 21.166667"
   version="1.1"
   id="svg8">
  <defs
     id="defs2" />
  <metadata
     id="metadata5">
    <rdf:RDF>
      <cc:Work
         rdf:about="">
        <dc:format>image/svg+xml</dc:format>
        <dc:type
           rdf:resource="http://purl.org/dc/dcmitype/StillImage" />
        <dc:title></dc:title>
      </cc:Work>
    </rdf:RDF>
  </metadata>
  <g
     id="layer1">
    <g
       id="g1157"
       transform="matrix(0,-0.26458333,0.26458333,0,11.310938,11.981845)">
      <title
         id="title1153">Right Horizontal Mark, RH</title>
      <polygon
         points="4,4 0,0 12,0 8,4 8,62 4,62 "
         style="fill:#000000"
         id="polygon1155" />
    </g>
    <g
       id="g1188"
       transform="matrix(0.26458333,0,0,0.26458333,23.982589,5.3389137)">
      <title
         id="title1184">Down Vertical Mark, DV</title>
      <polygon
         points="8,40 4,40 4,4 0,0 12,0 8,4 "
         style="fill:#000000"
         id="polygon1186" />
    </g>
    <g
       id="g1205"
       transform="matrix(0.26458333,0,0,0.26458333,20.807589,5.3389137)">
      <title
         id="title1201">Down Vertical Mark, DV</title>
      <polygon
         points="0,0 12,0 8,4 8,40 4,40 4,4 "
         style="fill:#000000"
         id="polygon1203" />
    </g>
    <g
       id="g1211"
       transform="matrix(0.26458333,0,0,0.26458333,17.632589,5.3389137)">
      <title
         id="title1207">Down Vertical Mark, DV</title>
      <polygon
         points="8,40 4,40 4,4 0,0 12,0 8,4 "
         style="fill:#000000"
         id="polygon1209" />
    </g>
    <g
       id="g1217"
       transform="matrix(0.26458333,0,0,0.26458333,14.457589,5.3389137)">
      <title
         id="title1213">Down Vertical Mark, DV</title>
      <polygon
         points="12,0 8,4 8,40 4,40 4,4 0,0 "
         style="fill:#000000"
         id="polygon1215" />
    </g>
    <circle
       style="fill:#000000;fill-rule:evenodd;stroke-width:0.264583"
       id="circle1036"
       cx="16.06399"
       cy="10.29985"
       r="0.79374999">
      <title
         id="title1034">2 Cross Connector, 2C</title>
    </circle>
    <circle
       style="fill:#000000;fill-rule:evenodd;stroke-width:0.264583"
       id="circle1221"
       cx="19.182293"
       cy="10.252603"
       r="0.79374999">
      <title
         id="title1219">2 Cross Connector, 2C</title>
    </circle>
    <circle
       style="fill:#000000;fill-rule:evenodd;stroke-width:0.264583"
       id="circle1225"
       cx="22.395092"
       cy="10.252603"
       r="0.79374999">
      <title
         id="title1223">2 Cross Connector, 2C</title>
    </circle>
    <circle
       style="fill:#000000;fill-rule:evenodd;stroke-width:0.264583"
       id="circle1229"
       cx="25.560642"
       cy="10.347096"
       r="0.79374999">
      <title
         id="title1227">2 Cross Connector, 2C</title>
    </circle>
    <g
       id="g1266"
       transform="matrix(0.13229166,-0.22913589,0.22913589,0.13229166,25.711879,8.1868181)">
      <title
         id="title1262">Right Down Diagonal, RDD</title>
      <polygon
         points="12,0 8,4 8,25 4,25 4,4 0,0 "
         style="fill:#000000"
         id="polygon1264" />
    </g>
    <g
       id="g1338"
       transform="matrix(0,-0.26458333,0.26458333,0,26.101146,14.521921)">
      <title
         id="title1334">Right Horizontal  Mark, RH</title>
      <polygon
         points="4,40 4,4 0,0 12,0 8,4 8,40 "
         style="fill:#000000"
         id="polygon1336" />
    </g>
    <g
       id="g1344"
       transform="matrix(0.13229166,-0.22913589,0.22913589,0.13229166,25.184602,13.074201)">
      <title
         id="title1340">Right Down Diagonal, RDD</title>
      <polygon
         points="8,4 8,25 4,25 4,4 0,0 12,0 "
         style="fill:#000000"
         id="polygon1342" />
    </g>
    <g
       id="g1350"
       transform="matrix(0,-0.26458333,0.26458333,0,26.099294,9.307777)">
      <title
         id="title1346">Right Horizontal  Mark, RH</title>
      <polygon
         points="4,4 0,0 12,0 8,4 8,40 4,40 "
         style="fill:#000000"
         id="polygon1348" />
    </g>
    <circle
       style="fill:#000000;fill-rule:evenodd;stroke-width:0.264583"
       id="circle1322"
       cx="26.17485"
       cy="7.6917019"
       r="0.79374999">
      <title
         id="title1326"> 3 Touch Connector, 3T</title>
    </circle>
    <circle
       style="fill:#000000;fill-rule:evenodd;stroke-width:0.264583"
       id="path839"
       cx="26.222097"
       cy="12.81139"
       r="0.79374999">
      <title
         id="title1324">3 Touch Connector, 3T</title>
    </circle>
    <circle
       style="fill:#000000;fill-rule:evenodd;stroke-width:0.264583"
       id="circle1354"
       cx="28.111979"
       cy="7.644455"
       r="0.79374999">
      <title
         id="title1352">2 Cross Connector, 2C</title>
    </circle>
    <circle
       style="fill:#000000;fill-rule:evenodd;stroke-width:0.264583"
       id="circle1358"
       cx="28.300966"
       cy="12.841626"
       r="0.79374999">
      <title
         id="title1356"> 2Cross Connector, 2C</title>
    </circle>
  </g>
</svg>
