<?xml version="1.0" encoding="UTF-8" standalone="no"?>
<svg
   xmlns:dc="http://purl.org/dc/elements/1.1/"
   xmlns:cc="http://creativecommons.org/ns#"
   xmlns:rdf="http://www.w3.org/1999/02/22-rdf-syntax-ns#"
   xmlns:svg="http://www.w3.org/2000/svg"
   xmlns="http://www.w3.org/2000/svg"
   xmlns:sodipodi="http://sodipodi.sourceforge.net/DTD/sodipodi-0.dtd"
   xmlns:inkscape="http://www.inkscape.org/namespaces/inkscape"
   width="160"
   height="80"
   viewBox="0 0 42.333332 21.166667"
   version="1.1"
   id="svg8"
   inkscape:version="1.0.2-2 (e86c870879, 2021-01-15)"
   sodipodi:docname="cdli82.svg">
  <defs
     id="defs2" />
  <sodipodi:namedview
     id="base"
     pagecolor="#ffffff"
     bordercolor="#666666"
     borderopacity="1.0"
     inkscape:pageopacity="0.0"
     inkscape:pageshadow="2"
     inkscape:zoom="5.6"
     inkscape:cx="79.455267"
     inkscape:cy="41.838126"
     inkscape:document-units="px"
     inkscape:current-layer="layer1"
     inkscape:document-rotation="0"
     showgrid="false"
     units="px"
     inkscape:window-width="1755"
     inkscape:window-height="1020"
     inkscape:window-x="416"
     inkscape:window-y="64"
     inkscape:window-maximized="0" />
  <metadata
     id="metadata5">
    <rdf:RDF>
      <cc:Work
         rdf:about="">
        <dc:format>image/svg+xml</dc:format>
        <dc:type
           rdf:resource="http://purl.org/dc/dcmitype/StillImage" />
        <dc:title></dc:title>
      </cc:Work>
    </rdf:RDF>
  </metadata>
  <g
     inkscape:label="Layer 1"
     inkscape:groupmode="layer"
     id="layer1">
    <g
       id="g1175"
       transform="matrix(0.26458334,0,0,0.26458334,6.7866385,8.0943631)">
      <title
         id="title1171">Down Vertical Mark, DV</title>
      <polygon
         points="8,4 8,25 4,25 4,4 0,0 12,0 "
         style="fill:#000000"
         id="polygon1173" />
    </g>
    <polygon
       points="4,4 0,0 12,0 8,4 8,35 12,40 0,40 4,35 "
       style="fill:#000000"
       id="polygon1210"
       transform="matrix(0,-0.26458333,0.26458333,0,1.3078354,14.321629)">
      <title
         id="title1234">Right Horizontal Barbell Mark, RHBB</title>
    </polygon>
    <g
       id="g1228"
       transform="matrix(0.26458334,0,0,0.26458334,3.6116384,8.0943631)">
      <title
         id="title1224">Down Vertical Mark, DV</title>
      <polygon
         points="12,0 8,4 8,25 4,25 4,4 0,0 "
         style="fill:#000000"
         id="polygon1226" />
    </g>
    <polygon
       points="8,4 8,35 12,40 0,40 4,35 4,4 0,0 12,0 "
       style="fill:#000000"
       id="polygon1230"
       transform="matrix(0,-0.26458333,0.26458333,0,1.0866438,7.2003708)">
      <title
         id="title1232">Right Horizontal Barbell Mark, RHBB</title>
    </polygon>
    <circle
       style="fill:#000000;fill-rule:evenodd;stroke-width:0.264583"
       id="circle1101"
       cx="5.2273726"
       cy="12.607396"
       r="0.79374999">
      <title
         id="title1105">2 Cross Connector, 2C</title>
    </circle>
    <circle
       style="fill:#000000;fill-rule:evenodd;stroke-width:0.264583"
       id="circle1196"
       cx="8.3531599"
       cy="12.580937"
       r="0.79374999">
      <title
         id="title1194">2 Cross Connector, 2C</title>
    </circle>
    <g
       id="g1271"
       transform="matrix(0,-0.26458333,0.26458333,0,12.870089,15.300589)">
      <title
         id="title1267">Right Horizontal Mark, RH</title>
      <polygon
         points="4,72 4,4 0,0 12,0 8,4 8,72 "
         style="fill:#000000"
         id="polygon1269" />
    </g>
    <g
       id="g1291"
       transform="matrix(0.26458333,0,0,0.26458333,13.257477,4.8966437)">
      <title
         id="title1287">Down Vertical Mark, DV</title>
      <polygon
         points="12,0 8,4 8,40 4,40 4,4 0,0 "
         style="fill:#000000"
         id="polygon1289" />
    </g>
    <g
       id="g1308"
       transform="matrix(0.26458333,0,0,0.26458333,16.53831,4.8966437)">
      <title
         id="title1304">Down Vertical Mark, DV</title>
      <polygon
         points="0,0 12,0 8,4 8,40 4,40 4,4 "
         style="fill:#000000"
         id="polygon1306" />
    </g>
    <g
       id="g1314"
       transform="matrix(0.26458333,0,0,0.26458333,30.738915,4.8966437)">
      <title
         id="title1310">Down Vertical Mark, DV</title>
      <polygon
         points="4,4 0,0 12,0 8,4 8,40 4,40 "
         style="fill:#000000"
         id="polygon1312" />
    </g>
    <g
       id="g1320"
       transform="matrix(0.26458333,0,0,0.26458333,27.563915,4.8966437)">
      <title
         id="title1316">Down Vertical Mark, DV</title>
      <polygon
         points="8,4 8,40 4,40 4,4 0,0 12,0 "
         style="fill:#000000"
         id="polygon1318" />
    </g>
    <g
       id="g1326"
       transform="matrix(0,-0.26458334,0.26458334,0,22.217516,13.367131)">
      <title
         id="title1322">Right Horizontal Mark, RH</title>
      <polygon
         points="4,4 0,0 12,0 8,4 8,25 4,25 "
         style="fill:#000000"
         id="polygon1324" />
    </g>
    <g
       id="g1332"
       transform="matrix(0,-0.26458334,0.26458334,0,22.217516,10.192131)">
      <title
         id="title1328">Right Horizontal Mark, RH</title>
      <polygon
         points="8,4 8,25 4,25 4,4 0,0 12,0 "
         style="fill:#000000"
         id="polygon1330" />
    </g>
    <g
       id="g1338"
       transform="matrix(0,-0.26458334,0.26458334,0,22.217516,7.0171309)">
      <title
         id="title1334">Right Horizontal Mark, RH</title>
      <polygon
         points="4,4 0,0 12,0 8,4 8,25 4,25 "
         style="fill:#000000"
         id="polygon1336" />
    </g>
    <circle
       style="fill:#000000;fill-rule:evenodd;stroke-width:0.264583"
       id="path839"
       cx="14.812963"
       cy="13.654389"
       r="0.79374999">
      <title
         id="title1380">2 Cross Connector, 2C</title>
    </circle>
    <circle
       style="fill:#000000;fill-rule:evenodd;stroke-width:0.264583"
       id="circle1356"
       cx="28.820683"
       cy="5.4806547"
       r="0.79374999">
      <title
         id="title1378">Northeast Corner Connector, NEC</title>
    </circle>
    <circle
       style="fill:#000000;fill-rule:evenodd;stroke-width:0.264583"
       id="circle1358"
       cx="28.820684"
       cy="8.6934519"
       r="0.79374999">
      <title
         id="title1376">Right 2 Touch Connector, R2T</title>
    </circle>
    <circle
       style="fill:#000000;fill-rule:evenodd;stroke-width:0.264583"
       id="circle1360"
       cx="28.867931"
       cy="11.764509"
       r="0.79374999">
      <title
         id="title1374">Right 2 Touch Connector, R2T</title>
    </circle>
    <circle
       style="fill:#000000;fill-rule:evenodd;stroke-width:0.264583"
       id="circle1362"
       cx="32.127975"
       cy="13.701637"
       r="0.79374999">
      <title
         id="title1372">Right 2 Touch Connector, R2T</title>
    </circle>
    <circle
       style="fill:#000000;fill-rule:evenodd;stroke-width:0.264583"
       id="circle1364"
       cx="29.056919"
       cy="13.701637"
       r="0.79374999">
      <title
         id="title1370">2 Cross Connector, 2C</title>
    </circle>
    <circle
       style="fill:#000000;fill-rule:evenodd;stroke-width:0.264583"
       id="circle1366"
       cx="18.131632"
       cy="13.65439"
       r="0.79374999">
      <title
         id="title1368">2 Cross Connector, 2C</title>
    </circle>
  </g>
</svg>
