<?xml version="1.0" encoding="UTF-8" standalone="no"?>
<svg
   xmlns:dc="http://purl.org/dc/elements/1.1/"
   xmlns:cc="http://creativecommons.org/ns#"
   xmlns:rdf="http://www.w3.org/1999/02/22-rdf-syntax-ns#"
   xmlns:svg="http://www.w3.org/2000/svg"
   xmlns="http://www.w3.org/2000/svg"
   width="160"
   height="80"
   viewBox="0 0 42.333332 21.166667"
   version="1.1"
   id="svg8">
  <defs
     id="defs2" />
  <metadata
     id="metadata5">
    <rdf:RDF>
      <cc:Work
         rdf:about="">
        <dc:format>image/svg+xml</dc:format>
        <dc:type
           rdf:resource="http://purl.org/dc/dcmitype/StillImage" />
        <dc:title></dc:title>
      </cc:Work>
    </rdf:RDF>
  </metadata>
  <g
     id="layer1">
    <g
       id="g1445"
       transform="matrix(0,-0.26458333,0.26458333,0,22.952604,6.6730562)">
      <title
         id="title1441">Right Horizontal Mark, RH</title>
      <polygon
         points="12,0 8,4 8,40 4,40 4,4 0,0 "
         style="fill:#000000"
         id="polygon1443" />
    </g>
    <g
       id="g1570"
       transform="matrix(0,-0.26458333,0.26458333,0,23.132141,13.911338)">
      <title
         id="title1566">Right Horizontal Mark, RH</title>
      <polygon
         points="4,4 0,0 12,0 8,4 8,40 4,40 "
         style="fill:#000000"
         id="polygon1568" />
    </g>
    <polygon
       points="4,40 4,22 0,18 4,18 4,4 0,0 12,0 8,4 8,18 12,18 8,22 8,40 "
       style="fill:#000000"
       id="polygon1638"
       transform="matrix(0.26458333,0,0,0.26458333,32.477604,3.2600442)">
      <title
         id="title1652">Down Vertical Head-to-Tail Mark, DVHT</title>
    </polygon>
    <circle
       style="fill:#000000;fill-rule:evenodd;stroke-width:0.264583"
       id="circle1612"
       cx="33.847763"
       cy="5.0950813"
       r="0.79374999">
      <title
         id="title1610">Right 2 Touch Connector, R2T</title>
    </circle>
    <circle
       style="fill:#000000;fill-rule:evenodd;stroke-width:0.264583"
       id="circle1600"
       cx="33.738079"
       cy="12.375017"
       r="0.79374999">
      <title
         id="title1598">Right 2 Touch Connector, R2T</title>
    </circle>
  </g>
</svg>
