<?xml version="1.0" encoding="UTF-8" standalone="no"?>
<svg
   xmlns:dc="http://purl.org/dc/elements/1.1/"
   xmlns:cc="http://creativecommons.org/ns#"
   xmlns:rdf="http://www.w3.org/1999/02/22-rdf-syntax-ns#"
   xmlns:svg="http://www.w3.org/2000/svg"
   xmlns="http://www.w3.org/2000/svg"
   width="160"
   height="80"
   viewBox="0 0 42.333332 21.166667"
   version="1.1"
   id="svg8">
  <defs
     id="defs2" />
  <metadata
     id="metadata5">
    <rdf:RDF>
      <cc:Work
         rdf:about="">
        <dc:format>image/svg+xml</dc:format>
        <dc:type
           rdf:resource="http://purl.org/dc/dcmitype/StillImage" />
        <dc:title></dc:title>
      </cc:Work>
    </rdf:RDF>
  </metadata>
  <g
     id="layer1">
    <g
       id="g334"
       transform="matrix(0.26458333,0,0,0.26458333,11.957314,4.8664439)">
      <title
         id="title330">Down Vertical Mark, DV</title>
      <polygon
         points="4,4 0,0 12,0 8,4 8,40 4,40 "
         style="fill:#000000"
         id="polygon332" />
    </g>
    <g
       id="g351"
       transform="matrix(0.26458333,0,0,0.26458333,28.650595,5.149926)">
      <title
         id="title347">Down Vertical Mark, DV</title>
      <polygon
         points="4,4 0,0 12,0 8,4 8,40 4,40 "
         style="fill:#000000"
         id="polygon349" />
    </g>
    <g
       id="g357"
       transform="matrix(0.26458333,0,0,0.26458333,22.602976,4.9609379)">
      <title
         id="title353">Down Vertical Mark, DV</title>
      <polygon
         points="8,4 8,40 4,40 4,4 0,0 12,0 "
         style="fill:#000000"
         id="polygon355" />
    </g>
    <g
       id="g377"
       transform="matrix(0,-0.26458333,0.26458333,0,17.056175,13.333148)">
      <title
         id="title373">Right Horizontal Mark, RH</title>
      <polygon
         points="4,25 4,4 0,0 12,0 8,4 8,25 "
         style="fill:#000000"
         id="polygon375" />
    </g>
    <g
       id="g394"
       transform="matrix(0,-0.26458333,0.26458333,0,17.056175,10.184606)">
      <title
         id="title390">Right Horizontal Mark, RH</title>
      <polygon
         points="12,0 8,4 8,25 4,25 4,4 0,0 "
         style="fill:#000000"
         id="polygon392" />
    </g>
    <polygon
       points="6,0 6,12 0,6 "
       style="fill:#000000"
       id="polygon408"
       transform="matrix(0.26458333,0,0,0.26458333,26.278794,8.7123507)">
      <title
         id="title432">Heel Mark, HE</title>
    </polygon>
    <polygon
       points="0,6 6,0 6,12 "
       style="fill:#000000"
       id="polygon422"
       transform="matrix(0.26458333,0,0,0.26458333,14.867731,3.2789439)">
      <title
         id="title436">Heel Mark, HE</title>
    </polygon>
    <polygon
       points="0,6 6,0 6,12 "
       style="fill:#000000"
       id="polygon424"
       transform="matrix(0.26458333,0,0,0.26458333,12.972256,14.019212)">
      <title
         id="title434">Heel Mark, HE</title>
    </polygon>
    <g
       id="g430"
       transform="matrix(0.26458333,0,0,0.26458333,23.34948,7.8524555)">
      <title
         id="title426">Right 2 Touch Connector, R2T</title>
      <circle
         cx="3"
         cy="3"
         r="3"
         style="fill:#000000"
         id="circle428" />
    </g>
    <g
       id="g262"
       transform="matrix(0.26458333,0,0,0.26458333,23.396727,10.970759)">
      <title
         id="title258">Right 2 Touch Connector, R2T</title>
      <circle
         cx="3"
         cy="3"
         r="3"
         style="fill:#000000"
         id="circle260" />
    </g>
  </g>
</svg>
