<?xml version="1.0" encoding="UTF-8" standalone="no"?>
<svg
   xmlns:dc="http://purl.org/dc/elements/1.1/"
   xmlns:cc="http://creativecommons.org/ns#"
   xmlns:rdf="http://www.w3.org/1999/02/22-rdf-syntax-ns#"
   xmlns:svg="http://www.w3.org/2000/svg"
   xmlns="http://www.w3.org/2000/svg"
   width="160"
   height="80"
   viewBox="0 0 42.333332 21.166667"
   version="1.1"
   id="svg8">
  <defs
     id="defs2" />
  <metadata
     id="metadata5">
    <rdf:RDF>
      <cc:Work
         rdf:about="">
        <dc:format>image/svg+xml</dc:format>
        <dc:type
           rdf:resource="http://purl.org/dc/dcmitype/StillImage" />
        <dc:title></dc:title>
      </cc:Work>
    </rdf:RDF>
  </metadata>
  <g
     id="layer1">
    <g
       id="g1445"
       transform="matrix(0,-0.26458333,0.26458333,0,15.54427,13.64494)">
      <title
         id="title1441">Right Horizontal Mark, RH</title>
      <polygon
         points="4,4 0,0 12,0 8,4 8,40 4,40 "
         style="fill:#000000"
         id="polygon1443" />
    </g>
    <polygon
       points="8,18 12,18 8,22 8,40 4,40 4,22 0,18 4,18 4,4 0,0 12,0 8,4 "
       style="fill:#000000"
       id="polygon1638"
       transform="matrix(0,-0.26458333,0.26458333,0,15.54427,10.46994)">
      <title
         id="title1652">Right Horizontal Head-to-Tail Mark, RHHT</title>
    </polygon>
    <polygon
       points="12,18 8,22 8,40 4,40 4,22 0,18 4,18 4,4 0,0 12,0 8,4 8,18 "
       style="fill:#000000"
       id="polygon1656"
       transform="matrix(0,-0.26458333,0.26458333,0,15.54427,7.29494)">
      <title
         id="title1654">Right Horizontal Head-to-Tail Mark, RHHT</title>
    </polygon>
  </g>
</svg>
