<?xml version="1.0" encoding="UTF-8" standalone="no"?>
<svg
   xmlns:dc="http://purl.org/dc/elements/1.1/"
   xmlns:cc="http://creativecommons.org/ns#"
   xmlns:rdf="http://www.w3.org/1999/02/22-rdf-syntax-ns#"
   xmlns:svg="http://www.w3.org/2000/svg"
   xmlns="http://www.w3.org/2000/svg"
   width="160"
   height="80"
   viewBox="0 0 42.333332 21.166667"
   version="1.1"
   id="svg8">
  <defs
     id="defs2" />
  <metadata
     id="metadata5">
    <rdf:RDF>
      <cc:Work
         rdf:about="">
        <dc:format>image/svg+xml</dc:format>
        <dc:type
           rdf:resource="http://purl.org/dc/dcmitype/StillImage" />
        <dc:title></dc:title>
      </cc:Work>
    </rdf:RDF>
  </metadata>
  <g
     id="layer1">
    <g
       id="g857"
       transform="matrix(0,-0.26458333,0.26458333,0,13.510085,11.411826)">
      <title
         id="title853">Right Horizontal Mark, RH</title>
      <polygon
         points="12,0 8,4 8,25 4,25 4,4 0,0 "
         style="fill:#000000"
         id="polygon855" />
    </g>
    <g
       id="g874"
       transform="matrix(0.18708867,-0.18708867,0.18708867,0.18708867,18.627959,11.226692)">
      <title
         id="title870">Right Down Diagonal Mark, RDD</title>
      <polygon
         points="12,0 8,4 8,10 4,10 4,4 0,0 "
         style="fill:#000000"
         id="polygon872" />
    </g>
    <circle
       style="fill:#000000;fill-rule:evenodd;stroke-width:0.264583"
       id="path839"
       cx="19.604952"
       cy="9.9660664"
       r="0.79374999">
      <title
         id="title932">Other 2 Touch Connector, O2T</title>
    </circle>
    <polygon
       points="0,6 6,0 6,12 "
       style="fill:#000000"
       id="polygon916"
       transform="matrix(0.26458333,0,0,0.26458333,18.650524,5.5685773)">
      <title
         id="title930">Heel Mark, HE</title>
    </polygon>
    <g
       id="g969"
       transform="matrix(0.18708867,-0.18708867,0.18708867,0.18708867,20.873023,8.981628)">
      <title
         id="title965">Right Down Diagonal Mark, RDD</title>
      <polygon
         points="4,10 4,4 0,0 12,0 8,4 8,10 "
         style="fill:#000000"
         id="polygon967" />
    </g>
    <g
       id="g975"
       transform="matrix(0.18708867,-0.18708867,0.18708867,0.18708867,23.118087,6.736564)">
      <title
         id="title971">Right Down Diagonal Mark, RDD</title>
      <polygon
         points="12,0 8,4 8,10 4,10 4,4 0,0 "
         style="fill:#000000"
         id="polygon973" />
    </g>
  </g>
</svg>
