<?xml version="1.0" encoding="UTF-8" standalone="no"?>
<svg
   xmlns:dc="http://purl.org/dc/elements/1.1/"
   xmlns:cc="http://creativecommons.org/ns#"
   xmlns:rdf="http://www.w3.org/1999/02/22-rdf-syntax-ns#"
   xmlns:svg="http://www.w3.org/2000/svg"
   xmlns="http://www.w3.org/2000/svg"
   width="160"
   height="80"
   viewBox="0 0 42.333332 21.166667"
   version="1.1"
   id="svg8">
  <defs
     id="defs2" />
  <metadata
     id="metadata5">
    <rdf:RDF>
      <cc:Work
         rdf:about="">
        <dc:format>image/svg+xml</dc:format>
        <dc:type
           rdf:resource="http://purl.org/dc/dcmitype/StillImage" />
        <dc:title></dc:title>
      </cc:Work>
    </rdf:RDF>
  </metadata>
  <g
     id="layer1">
    <g
       id="g1560"
       transform="matrix(0.26458333,0,0,0.26458333,27.673414,4.2048717)">
      <title
         id="title1556">Down Vertical Mark, DV</title>
      <polygon
         points="8,45 4,45 4,4 0,0 12,0 8,4 "
         style="fill:#000000"
         id="polygon1558"
         transform="translate(-8.5714286,7.6785715)" />
    </g>
    <polygon
       points="0,6 6,0 6,12 "
       style="fill:#000000"
       id="polygon1639"
       transform="matrix(0.26458333,0,0,0.26458333,19.569717,9.7990329)">
      <title
         id="title1645">Heel Mark, HE</title>
    </polygon>
    <g
       id="g1713"
       transform="matrix(0.26458333,0,0,0.26458333,15.470565,4.1556593)">
      <title
         id="title1709">Down Vertical Mark, DV</title>
      <polygon
         points="8,45 4,45 4,4 0,0 12,0 8,4 "
         style="fill:#000000"
         id="polygon1711"
         transform="translate(-8.5714286,7.6785715)" />
    </g>
    <g
       id="g1719"
       transform="matrix(0,-0.26458333,0.26458333,0,13.77334,21.115526)">
      <title
         id="title1715">Right Horizontal Mark, RH</title>
      <polygon
         points="0,0 12,0 8,4 8,50 4,50 4,4 "
         style="fill:#000000"
         id="polygon1717"
         transform="translate(11.25,-1.9642857)" />
    </g>
    <circle
       style="fill:#000000;fill-rule:evenodd;stroke-width:0.264583"
       id="circle1585"
       cx="26.851467"
       cy="16.536457"
       r="0.79374999">
      <title
         id="title1583">Right 2 Touch Connector, R2T</title>
    </circle>
    <circle
       style="fill:#000000;fill-rule:evenodd;stroke-width:0.264583"
       id="circle1499"
       cx="14.756229"
       cy="16.536457"
       r="0.79374999">
      <title
         id="title1497">2 Cross Connector, 2C</title>
    </circle>
  </g>
</svg>
