<?xml version="1.0" encoding="UTF-8" standalone="no"?>
<svg
   xmlns:dc="http://purl.org/dc/elements/1.1/"
   xmlns:cc="http://creativecommons.org/ns#"
   xmlns:rdf="http://www.w3.org/1999/02/22-rdf-syntax-ns#"
   xmlns:svg="http://www.w3.org/2000/svg"
   xmlns="http://www.w3.org/2000/svg"
   width="160"
   height="80"
   viewBox="0 0 42.333332 21.166667"
   version="1.1"
   id="svg8">
  <defs
     id="defs2" />
  <metadata
     id="metadata5">
    <rdf:RDF>
      <cc:Work
         rdf:about="">
        <dc:format>image/svg+xml</dc:format>
        <dc:type
           rdf:resource="http://purl.org/dc/dcmitype/StillImage" />
        <dc:title></dc:title>
      </cc:Work>
    </rdf:RDF>
  </metadata>
  <g
     id="layer1">
    <g
       id="g857"
       transform="matrix(0.0684792,-0.25556787,0.25556787,0.0684792,15.742651,7.4258253)">
      <title
         id="title853">Right Down Diagonal Mark, RDD</title>
      <polygon
         points="4,60 4,4 0,0 12,0 8,4 8,60 "
         style="fill:#000000"
         id="polygon855"
         transform="translate(-4.7880943,-17.869419)" />
    </g>
    <g
       id="g888"
       transform="matrix(-0.0684792,-0.25556787,0.25556787,-0.0684792,16.934878,12.672792)">
      <title
         id="title884">Right Up Diagonal Mark, RUD</title>
      <polygon
         points="8,4 8,60 4,60 4,4 0,0 12,0 "
         style="fill:#000000"
         id="polygon886"
         transform="translate(-5.2818674,-22.017278)" />
    </g>
    <g
       id="g919"
       transform="matrix(0.26458333,0,0,0.26458333,14.759971,10.63058)">
      <title
         id="title915">Down Vertical Mark, DV</title>
      <polygon
         points="12,0 8,4 8,25 4,25 4,4 0,0 "
         style="fill:#000000"
         id="polygon917" />
    </g>
    <g
       id="g936"
       transform="matrix(0.26458333,0,0,0.26458333,11.690879,10.63058)">
      <title
         id="title932">Down Vertical Mark, DV</title>
      <polygon
         points="4,4 0,0 12,0 8,4 8,25 4,25 "
         style="fill:#000000"
         id="polygon934" />
    </g>
    <circle
       style="fill:#000000;fill-rule:evenodd;stroke-width:0.264583"
       id="circle954"
       cx="26.789061"
       cy="9.9691238"
       r="0.79374999">
      <title
         id="title956">Right Middle Corner Connector, RMC</title>
    </circle>
    <circle
       style="fill:#000000;fill-rule:evenodd;stroke-width:0.264583"
       id="circle958"
       cx="13.19688"
       cy="13.403677"
       r="0.79374999">
      <title
         id="title964">2 Cross Connector, 2C</title>
    </circle>
    <circle
       style="fill:#000000;fill-rule:evenodd;stroke-width:0.264583"
       id="circle960"
       cx="16.42416"
       cy="12.515006"
       r="0.79374999">
      <title
         id="title962">2 Cross Connector, 2C</title>
    </circle>
  </g>
</svg>
