<?xml version="1.0" encoding="UTF-8" standalone="no"?>
<svg
   xmlns:dc="http://purl.org/dc/elements/1.1/"
   xmlns:cc="http://creativecommons.org/ns#"
   xmlns:rdf="http://www.w3.org/1999/02/22-rdf-syntax-ns#"
   xmlns:svg="http://www.w3.org/2000/svg"
   xmlns="http://www.w3.org/2000/svg"
   width="160"
   height="80"
   viewBox="0 0 42.333332 21.166667"
   version="1.1"
   id="svg8">
  <defs
     id="defs2" />
  <metadata
     id="metadata5">
    <rdf:RDF>
      <cc:Work
         rdf:about="">
        <dc:format>image/svg+xml</dc:format>
        <dc:type
           rdf:resource="http://purl.org/dc/dcmitype/StillImage" />
        <dc:title></dc:title>
      </cc:Work>
    </rdf:RDF>
  </metadata>
  <g
     id="layer1">
    <g
       id="g1108"
       transform="matrix(0,-0.26458333,0.26458333,0,11.63611,12.265328)">
      <title
         id="title1104">Right Horizontal Mark, RH</title>
      <polygon
         points="8,25 4,25 4,4 0,0 12,0 8,4 "
         style="fill:#000000"
         id="polygon1106" />
    </g>
    <g
       id="g1125"
       transform="matrix(0.26458333,0,0,0.26458333,15.525372,3.5340781)">
      <title
         id="title1121">Down Vertical Mark, DV</title>
      <polygon
         points="8,25 4,25 4,4 0,0 12,0 8,4 "
         style="fill:#000000"
         id="polygon1123" />
    </g>
    <g
       id="g1131"
       transform="matrix(0.26458333,0,0,0.26458333,18.700372,3.5340781)">
      <title
         id="title1127">Down Vertical Mark, DV</title>
      <polygon
         points="8,25 4,25 4,4 0,0 12,0 8,4 "
         style="fill:#000000"
         id="polygon1129" />
    </g>
    <g
       id="g1137"
       transform="matrix(0.26458333,0,0,0.26458333,17.165902,10.148661)">
      <title
         id="title1133">Down Vertical Mark, DV</title>
      <polygon
         points="0,0 12,0 8,4 8,25 4,25 4,4 "
         style="fill:#000000"
         id="polygon1135" />
    </g>
    <circle
       style="fill:#000000;fill-rule:evenodd;stroke-width:0.264583"
       id="circle1036"
       cx="18.709824"
       cy="10.583332"
       r="0.79374999">
      <title
         id="title1034">4 Touch Connector, 4T</title>
    </circle>
  </g>
</svg>
