<?xml version="1.0" encoding="UTF-8" standalone="no"?>
<svg
   xmlns:dc="http://purl.org/dc/elements/1.1/"
   xmlns:cc="http://creativecommons.org/ns#"
   xmlns:rdf="http://www.w3.org/1999/02/22-rdf-syntax-ns#"
   xmlns:svg="http://www.w3.org/2000/svg"
   xmlns="http://www.w3.org/2000/svg"
   width="160"
   height="80"
   viewBox="0 0 42.333332 21.166667"
   version="1.1"
   id="svg8">
  <defs
     id="defs2" />
  <metadata
     id="metadata5">
    <rdf:RDF>
      <cc:Work
         rdf:about="">
        <dc:format>image/svg+xml</dc:format>
        <dc:type
           rdf:resource="http://purl.org/dc/dcmitype/StillImage" />
        <dc:title></dc:title>
      </cc:Work>
    </rdf:RDF>
  </metadata>
  <g
     id="layer1">
    <polygon
       points="6,12 0,6 6,0 "
       style="fill:#000000"
       id="polygon1187"
       transform="matrix(0.26458333,0,0,0.26458333,20.329733,7.9738296)">
      <title
         id="title1213">Heel Mark, HE</title>
    </polygon>
    <polygon
       points="0,6 6,0 6,12 "
       style="fill:#000000"
       id="polygon1279"
       transform="matrix(0.26458333,0,0,0.26458333,17.154733,7.9473716)">
      <title
         id="title1277">Heel Mark, HE</title>
    </polygon>
    <g
       id="g1318"
       transform="matrix(0,-0.26458333,0.26458333,0,6.8286728,16.892176)">
      <title
         id="title1314">Right Horizontal Mark, RH</title>
      <polygon
         points="4,4 0,0 12,0 8,4 8,40 4,40 "
         style="fill:#000000"
         id="polygon1316" />
    </g>
    <polygon
       points="6,12 0,6 6,0 "
       style="fill:#000000"
       id="polygon1328"
       transform="matrix(0.26458333,0,0,0.26458333,18.742233,9.5877886)">
      <title
         id="title1326">Heel Mark, HE</title>
    </polygon>
    <polygon
       points="0,6 6,0 6,12 "
       style="fill:#000000"
       id="polygon1332"
       transform="matrix(0.26458333,0,0,0.26458333,17.154733,11.122372)">
      <title
         id="title1330">Heel Mark, HE</title>
    </polygon>
    <polygon
       points="12,40 0,40 4,35 4,4 0,0 12,0 8,4 8,35 "
       style="fill:#000000"
       id="polygon1350"
       transform="matrix(0,-0.26458333,0.26458333,0,5.1576932,8.2894786)">
      <title
         id="title1409">Right Horizontal Barbell Mark, RHBB</title>
    </polygon>
    <g
       id="g1382"
       transform="matrix(0.06847921,-0.25556788,0.25556788,0.06847921,15.955293,7.3869326)">
      <title
         id="title1378">Right Down Diagonal Mark, RDD</title>
      <polygon
         points="8,72 4,72 4,4 0,0 12,0 8,4 "
         style="fill:#000000"
         id="polygon1380" />
    </g>
    <g
       id="g1399"
       transform="matrix(-0.06847921,-0.25556788,0.25556788,-0.06847921,16.663651,17.130031)">
      <title
         id="title1395">Right Up Diagonal Mark, RUD</title>
      <polygon
         points="8,72 4,72 4,4 0,0 12,0 8,4 "
         style="fill:#000000"
         id="polygon1397" />
    </g>
    <polygon
       points="0,6 6,0 6,12 "
       style="fill:#000000"
       id="polygon1407"
       transform="matrix(0.26458333,0,0,0.26458333,35.115763,9.1615446)">
      <title
         id="title1405">Heel Mark, HE</title>
    </polygon>
    <circle
       style="fill:#000000;fill-rule:evenodd;stroke-width:0.264583"
       id="circle1336"
       cx="16.527328"
       cy="15.300936"
       r="0.79374999">
      <title
         id="title1334">Other 2 Touch Connector, O2T</title>
    </circle>
    <circle
       style="fill:#000000;fill-rule:evenodd;stroke-width:0.264583"
       id="path839"
       cx="34.301338"
       cy="10.772322"
       r="0.79374999">
      <title
         id="title958">Right Middle Corner Connector, RMC</title>
    </circle>
  </g>
</svg>
