<?xml version="1.0" encoding="UTF-8" standalone="no"?>
<svg
   xmlns:dc="http://purl.org/dc/elements/1.1/"
   xmlns:cc="http://creativecommons.org/ns#"
   xmlns:rdf="http://www.w3.org/1999/02/22-rdf-syntax-ns#"
   xmlns:svg="http://www.w3.org/2000/svg"
   xmlns="http://www.w3.org/2000/svg"
   width="160"
   height="80"
   viewBox="0 0 42.333332 21.166667"
   version="1.1"
   id="svg8">
  <defs
     id="defs2" />
  <metadata
     id="metadata5">
    <rdf:RDF>
      <cc:Work
         rdf:about="">
        <dc:format>image/svg+xml</dc:format>
        <dc:type
           rdf:resource="http://purl.org/dc/dcmitype/StillImage" />
        <dc:title></dc:title>
      </cc:Work>
    </rdf:RDF>
  </metadata>
  <g
     id="layer1">
    <g
       id="g857"
       transform="matrix(0.26458333,0,0,0.26458333,16.460863,4.5829613)">
      <title
         id="title853">Down Vertical Mark, DV</title>
      <polygon
         points="4,4 0,0 12,0 8,4 8,40 4,40 "
         style="fill:#000000"
         id="polygon855" />
    </g>
    <g
       id="g874"
       transform="matrix(0.26458333,0,0,0.26458333,13.285863,4.5829613)">
      <title
         id="title870">Down Vertical Mark, DV</title>
      <polygon
         points="0,0 12,0 8,4 8,40 4,40 4,4 "
         style="fill:#000000"
         id="polygon872" />
    </g>
    <g
       id="g880"
       transform="matrix(0,-0.26458333,0.26458333,0,3.7647562,11.131399)">
      <title
         id="title876">Right Horizontal Mark, RH</title>
      <polygon
         points="0,0 12,0 8,4 8,40 4,40 4,4 "
         style="fill:#000000"
         id="polygon878" />
    </g>
    <g
       id="g900"
       transform="matrix(-0.13229166,-0.22913589,0.22913589,-0.13229166,21.155782,16.85859)">
      <title
         id="title896">Right Up Diagonal Mark, RUD</title>
      <polygon
         points="12,0 8,4 8,72 4,72 4,4 0,0 "
         style="fill:#000000"
         id="polygon898" />
    </g>
    <polygon
       points="12,0 8,4 8,15 4,15 4,4 0,0 "
       style="fill:#000000"
       id="polygon948"
       transform="matrix(0.22913589,-0.13229166,0.13229166,0.22913589,19.858435,10.565871)">
      <title
         id="title966">Right Down Diagonal Mark, RDD</title>
    </polygon>
    <polygon
       points="8,4 8,15 4,15 4,4 0,0 12,0 "
       style="fill:#000000"
       id="polygon954"
       transform="matrix(0.22913589,-0.13229166,0.13229166,0.22913589,22.608066,8.9783711)">
      <title
         id="title964">Right Down Diagonal Mark, RDD</title>
    </polygon>
    <polygon
       points="8,15 4,15 4,4 0,0 12,0 8,4 "
       style="fill:#000000"
       id="polygon956"
       transform="matrix(0.22913589,-0.13229166,0.13229166,0.22913589,25.357697,7.3908712)">
      <title
         id="title962">Right Down Diagonal Mark, RDD</title>
    </polygon>
    <polygon
       points="4,15 4,4 0,0 12,0 8,4 8,15 "
       style="fill:#000000"
       id="polygon958"
       transform="matrix(0.22913589,-0.13229166,0.13229166,0.22913589,28.107328,5.8033713)">
      <title
         id="title960">Right Down Diagonal Mark, RDD</title>
    </polygon>
    <circle
       style="fill:#000000;fill-rule:evenodd;stroke-width:0.264583"
       id="path839"
       cx="23.340029"
       cy="13.418155"
       r="0.79374999">
      <title
         id="title988">Other 2 Touch Connector, O2T</title>
    </circle>
    <circle
       style="fill:#000000;fill-rule:evenodd;stroke-width:0.264583"
       id="circle984"
       cx="14.646577"
       cy="9.5438986"
       r="0.79374999">
      <title
         id="title986">Right 2 Touch Connector, R2T</title>
    </circle>
    <circle
       style="fill:#000000;fill-rule:evenodd;stroke-width:0.264583"
       id="circle992"
       cx="26.127604"
       cy="11.859003"
       r="0.79374999">
      <title
         id="title990">Other 2 Touch Connector, O2T</title>
    </circle>
    <circle
       style="fill:#000000;fill-rule:evenodd;stroke-width:0.264583"
       id="circle996"
       cx="28.867931"
       cy="10.205358"
       r="0.79374999">
      <title
         id="title994">Other 2 Touch Connector, O2T</title>
    </circle>
    <circle
       style="fill:#000000;fill-rule:evenodd;stroke-width:0.264583"
       id="circle1000"
       cx="31.655506"
       cy="8.7406998"
       r="0.79374999">
      <title
         id="title998">Other 2 Touch Connector, O2T</title>
    </circle>
  </g>
</svg>
