<?xml version="1.0" encoding="UTF-8" standalone="no"?>
<svg
   xmlns:dc="http://purl.org/dc/elements/1.1/"
   xmlns:cc="http://creativecommons.org/ns#"
   xmlns:rdf="http://www.w3.org/1999/02/22-rdf-syntax-ns#"
   xmlns:svg="http://www.w3.org/2000/svg"
   xmlns="http://www.w3.org/2000/svg"
   width="160"
   height="80"
   viewBox="0 0 42.333332 21.166667"
   version="1.1"
   id="svg8">
  <defs
     id="defs2" />
  <metadata
     id="metadata5">
    <rdf:RDF>
      <cc:Work
         rdf:about="">
        <dc:format>image/svg+xml</dc:format>
        <dc:type
           rdf:resource="http://purl.org/dc/dcmitype/StillImage" />
        <dc:title></dc:title>
      </cc:Work>
    </rdf:RDF>
  </metadata>
  <g
     id="layer1">
    <g
       id="g1114"
       transform="matrix(0.26458333,0,0,0.26458333,22.366854,9.2055726)">
      <title
         id="title1110">Down Vertical Mark, DV</title>
      <polygon
         points="8,4 8,22 4,22 4,4 0,0 12,0 "
         style="fill:#000000"
         id="polygon1112" />
    </g>
    <g
       id="g1140"
       transform="matrix(0,-0.26458333,0.26458333,0,16.01674,15.336384)">
      <title
         id="title1136">Right Horizontal Mark, RH</title>
      <polygon
         points="8,4 8,50 4,50 4,4 0,0 12,0 "
         style="fill:#000000"
         id="polygon1138" />
    </g>
    <g
       id="g1212"
       transform="matrix(0.26458333,0,0,0.26458333,25.320625,5.4050595)">
      <title
         id="title1208">Down Vertical Mark, DV</title>
      <polygon
         points="0,0 12,0 8,4 8,40 4,40 4,4 "
         style="fill:#000000"
         id="polygon1210" />
    </g>
    <circle
       style="fill:#000000;fill-rule:evenodd;stroke-width:0.264583"
       id="circle1078"
       cx="26.945961"
       cy="13.701635"
       r="0.79374999">
      <title
         id="title1092">2 Cross Connector, 2C</title>
    </circle>
    <g
       id="g1229"
       transform="matrix(0.26458333,0,0,0.26458333,18.246914,9.2528196)">
      <title
         id="title1225">Down Vertical Mark, DV</title>
      <polygon
         points="4,4 0,0 12,0 8,4 8,22 4,22 "
         style="fill:#000000"
         id="polygon1227" />
    </g>
    <circle
       style="fill:#000000;fill-rule:evenodd;stroke-width:0.264583"
       id="circle1233"
       cx="23.897657"
       cy="13.748881"
       r="0.79374999">
      <title
         id="title1231">2 Cross Connector, 2C</title>
    </circle>
    <circle
       style="fill:#000000;fill-rule:evenodd;stroke-width:0.264583"
       id="circle1144"
       cx="19.787167"
       cy="13.654387"
       r="0.79374999">
      <title
         id="title1142">2 Cross Connector, 2C</title>
    </circle>
    <g
       id="g1253"
       transform="matrix(0,-0.26458333,0.26458333,0,19.764375,8.5800595)">
      <title
         id="title1249">Right Horizontal Mark, RH</title>
      <polygon
         points="4,4 0,0 12,0 8,4 8,25 4,25 "
         style="fill:#000000"
         id="polygon1251" />
    </g>
    <circle
       style="fill:#000000;fill-rule:evenodd;stroke-width:0.264583"
       id="circle1134"
       cx="26.775833"
       cy="7.0342126"
       r="0.79374999">
      <title
         id="title1132">Northeast Corner Connector, NEC</title>
    </circle>
  </g>
</svg>
