<?xml version="1.0" encoding="UTF-8" standalone="no"?>
<svg
   xmlns:dc="http://purl.org/dc/elements/1.1/"
   xmlns:cc="http://creativecommons.org/ns#"
   xmlns:rdf="http://www.w3.org/1999/02/22-rdf-syntax-ns#"
   xmlns:svg="http://www.w3.org/2000/svg"
   xmlns="http://www.w3.org/2000/svg"
   width="160"
   height="80"
   viewBox="0 0 42.333332 21.166667"
   version="1.1"
   id="svg8">
  <defs
     id="defs2" />
  <metadata
     id="metadata5">
    <rdf:RDF>
      <cc:Work
         rdf:about="">
        <dc:format>image/svg+xml</dc:format>
        <dc:type
           rdf:resource="http://purl.org/dc/dcmitype/StillImage" />
        <dc:title></dc:title>
      </cc:Work>
    </rdf:RDF>
  </metadata>
  <g
     id="layer1">
    <g
       id="g1108"
       transform="matrix(0,-0.26458333,0.26458333,0,28.786666,8.8182978)">
      <title
         id="title1104">Right Horizontal Mark, RH</title>
      <polygon
         points="0,0 12,0 8,4 8,25 4,25 4,4 "
         style="fill:#000000"
         id="polygon1106" />
    </g>
    <g
       id="g1114"
       transform="matrix(0.26458333,0,0,0.26458333,20.004503,8.6122252)">
      <title
         id="title1110">Down Vertical Mark, DV</title>
      <polygon
         points="4,4 0,0 12,0 8,4 8,25 4,25 "
         style="fill:#000000"
         id="polygon1112" />
    </g>
    <g
       id="g1120"
       transform="matrix(0,-0.26458333,0.26458333,0,15.874999,8.5800595)">
      <title
         id="title1116">Right Horizontal Mark, RH</title>
      <polygon
         points="8,40 4,40 4,4 0,0 12,0 8,4 "
         style="fill:#000000"
         id="polygon1118" />
    </g>
    <g
       id="g1130"
       transform="matrix(0.26458333,0,0,0.26458333,25.399999,5.4050595)">
      <title
         id="title1126">Down Vertical Mark, DV</title>
      <polygon
         points="8,4 8,40 4,40 4,4 0,0 12,0 "
         style="fill:#000000"
         id="polygon1128" />
    </g>
    <circle
       style="fill:#000000;fill-rule:evenodd;stroke-width:0.264583"
       id="circle1134"
       cx="26.590738"
       cy="7.0870523"
       r="0.79374999">
      <title
         id="title1132">Northeast Corner Connector, NEC</title>
    </circle>
    <g
       id="g1140"
       transform="matrix(0,-0.26458333,0.26458333,0,16.01674,15.336384)">
      <title
         id="title1136">Right Horizontal Mark, RH</title>
      <polygon
         points="0,0 12,0 8,4 8,40 4,40 4,4 "
         style="fill:#000000"
         id="polygon1138" />
    </g>
    <circle
       style="fill:#000000;fill-rule:evenodd;stroke-width:0.264583"
       id="circle1078"
       cx="26.496244"
       cy="13.701635"
       r="0.79374999">
      <title
         id="title1092">Right 2 Touch Connector, R2T</title>
    </circle>
    <circle
       style="fill:#000000;fill-rule:evenodd;stroke-width:0.264583"
       id="circle1144"
       cx="21.629801"
       cy="13.607141"
       r="0.79374999">
      <title
         id="title1142">2 Cross Connector, 2C</title>
    </circle>
    <g
       id="g1150"
       transform="matrix(0.26458333,0,0,0.26458333,34.367523,5.6300687)">
      <title
         id="title1146">Down Vertical Mark, DV</title>
      <polygon
         points="12,0 8,4 8,40 4,40 4,4 0,0 "
         style="fill:#000000"
         id="polygon1148" />
    </g>
    <g
       id="g1156"
       transform="matrix(0,-0.26458333,0.26458333,0,28.885091,15.285244)">
      <title
         id="title1152">Right Horizontal Mark, RH</title>
      <polygon
         points="4,25 4,4 0,0 12,0 8,4 8,25 "
         style="fill:#000000"
         id="polygon1154" />
    </g>
    <circle
       style="fill:#000000;fill-rule:evenodd;stroke-width:0.264583"
       id="circle1160"
       cx="35.803909"
       cy="7.2287936"
       r="0.79374999">
      <title
         id="title1158">Northeast Corner Connector, NEC</title>
    </circle>
    <circle
       style="fill:#000000;fill-rule:evenodd;stroke-width:0.264583"
       id="circle1164"
       cx="35.992897"
       cy="13.654388"
       r="0.79374999">
      <title
         id="title1162">Right 2 Touch Connector, R2T</title>
    </circle>
  </g>
</svg>
