<?xml version="1.0" encoding="UTF-8" standalone="no"?>
<svg
   xmlns:dc="http://purl.org/dc/elements/1.1/"
   xmlns:cc="http://creativecommons.org/ns#"
   xmlns:rdf="http://www.w3.org/1999/02/22-rdf-syntax-ns#"
   xmlns:svg="http://www.w3.org/2000/svg"
   xmlns="http://www.w3.org/2000/svg"
   xmlns:sodipodi="http://sodipodi.sourceforge.net/DTD/sodipodi-0.dtd"
   xmlns:inkscape="http://www.inkscape.org/namespaces/inkscape"
   width="160"
   height="80"
   viewBox="0 0 42.333332 21.166667"
   version="1.1"
   id="svg8"
   inkscape:version="1.0.2-2 (e86c870879, 2021-01-15)"
   sodipodi:docname="cdli71.svg">
  <defs
     id="defs2" />
  <sodipodi:namedview
     id="base"
     pagecolor="#ffffff"
     bordercolor="#666666"
     borderopacity="1.0"
     inkscape:pageopacity="0.0"
     inkscape:pageshadow="2"
     inkscape:zoom="5.6"
     inkscape:cx="79.651412"
     inkscape:cy="50.025076"
     inkscape:document-units="px"
     inkscape:current-layer="layer1"
     inkscape:document-rotation="0"
     showgrid="false"
     units="px"
     inkscape:window-width="1755"
     inkscape:window-height="1020"
     inkscape:window-x="249"
     inkscape:window-y="64"
     inkscape:window-maximized="0" />
  <metadata
     id="metadata5">
    <rdf:RDF>
      <cc:Work
         rdf:about="">
        <dc:format>image/svg+xml</dc:format>
        <dc:type
           rdf:resource="http://purl.org/dc/dcmitype/StillImage" />
        <dc:title></dc:title>
      </cc:Work>
    </rdf:RDF>
  </metadata>
  <g
     inkscape:label="Layer 1"
     inkscape:groupmode="layer"
     id="layer1">
    <g
       id="g1318"
       transform="matrix(0.26458333,0,0,0.26458333,18.155971,5.3445833)">
      <title
         id="title1314">Down Vertical Mark, DV</title>
      <polygon
         points="4,4 0,0 12,0 8,4 8,40 4,40 "
         style="fill:#000000"
         id="polygon1316" />
    </g>
    <polygon
       points="4,4 0,0 12,0 8,4 8,35 12,40 0,40 4,35 "
       style="fill:#000000"
       id="polygon1350"
       transform="matrix(0,-0.26458333,0.26458333,0,8.2605562,8.0697918)">
      <title
         id="title1409">Right Horizontal Barbell Mark, RHBB</title>
    </polygon>
    <polygon
       points="8,74 4,74 4,39 0,35 4,35 4,4 0,0 12,0 8,4 8,35 12,35 8,39 "
       style="fill:#000000"
       id="polygon1461"
       transform="matrix(0,-0.26458333,0.26458333,0,9.265973,18.044583)">
      <title
         id="title1534">Right Horizontal Head-to-Tail Mark, RHHT</title>
    </polygon>
    <g
       id="g1493"
       transform="matrix(0,-0.26458333,0.26458333,0,20.291689,7.8107645)">
      <title
         id="title1489">Right Horizontal Mark, RH</title>
      <polygon
         points="8,4 8,25 4,25 4,4 0,0 12,0 "
         style="fill:#000000"
         id="polygon1491" />
    </g>
    <g
       id="g1510"
       transform="matrix(0.26458333,0,0,0.26458333,26.702014,5.3445832)">
      <title
         id="title1506">Down Vertical Mark, DV</title>
      <polygon
         points="4,40 4,4 0,0 12,0 8,4 8,40 "
         style="fill:#000000"
         id="polygon1508" />
    </g>
    <circle
       style="fill:#000000;fill-rule:evenodd;stroke-width:0.264583"
       id="path839"
       cx="19.654764"
       cy="16.158484"
       r="0.79374999">
      <title
         id="title1542">Bottom 2 Touch Connector, B2T</title>
    </circle>
    <circle
       style="fill:#000000;fill-rule:evenodd;stroke-width:0.264583"
       id="circle1528"
       cx="27.403276"
       cy="6.1421142"
       r="0.79374999">
      <title
         id="title1538">Northeast Corner Connector, NEC</title>
    </circle>
    <circle
       style="fill:#000000;fill-rule:evenodd;stroke-width:0.264583"
       id="circle1530"
       cx="20.505211"
       cy="6.4255967"
       r="0.79374999">
      <title
         id="title1536">Northwest Corner Connector, NWC</title>
    </circle>
    <circle
       style="fill:#000000;fill-rule:evenodd;stroke-width:0.264583"
       id="circle1532"
       cx="28.253723"
       cy="16.300224"
       r="0.79374999">
      <title
         id="title1540">Southeast Corner Connector, SEC</title>
    </circle>
  </g>
</svg>
