<?xml version="1.0" encoding="UTF-8" standalone="no"?>
<svg
   xmlns:dc="http://purl.org/dc/elements/1.1/"
   xmlns:cc="http://creativecommons.org/ns#"
   xmlns:rdf="http://www.w3.org/1999/02/22-rdf-syntax-ns#"
   xmlns:svg="http://www.w3.org/2000/svg"
   xmlns="http://www.w3.org/2000/svg"
   width="160"
   height="80"
   viewBox="0 0 42.333332 21.166667"
   version="1.1"
   id="svg8">
  <defs
     id="defs2" />
  <metadata
     id="metadata5">
    <rdf:RDF>
      <cc:Work
         rdf:about="">
        <dc:format>image/svg+xml</dc:format>
        <dc:type
           rdf:resource="http://purl.org/dc/dcmitype/StillImage" />
        <dc:title></dc:title>
      </cc:Work>
    </rdf:RDF>
  </metadata>
  <g
     id="layer1">
    <g
       id="g894"
       transform="matrix(0.26458333,0,0,0.26458333,27.788847,4.875893)">
      <title
         id="title890">Down Vertical Mark, DV</title>
      <polygon
         points="8,40 4,40 4,4 0,0 12,0 8,4 "
         style="fill:#000000"
         id="polygon892" />
    </g>
    <g
       id="g982"
       transform="matrix(0,-0.26458333,0.26458333,0,18.810021,15.332604)">
      <title
         id="title978">Right Horizontal Mark, RH</title>
      <polygon
         points="8,4 8,46 4,46 4,4 0,0 12,0 "
         style="fill:#000000"
         id="polygon980" />
    </g>
    <g
       id="g989"
       transform="matrix(0,-0.26458333,0.26458333,0,20.454295,11.602092)">
      <title
         id="title985">Right Horizontal Mark, RH</title>
      <polygon
         points="8,4 8,40 4,40 4,4 0,0 12,0 "
         style="fill:#000000"
         id="polygon987" />
    </g>
    <g
       id="g995"
       transform="matrix(0.26458333,0,0,0.26458333,23.064145,4.875893)">
      <title
         id="title991">Down Vertical Mark, DV</title>
      <polygon
         points="0,0 12,0 8,4 8,40 4,40 4,4 "
         style="fill:#000000"
         id="polygon993" />
    </g>
    <g
       id="g1001"
       transform="matrix(0.26458333,0,0,0.26458333,18.38669,4.828646)">
      <title
         id="title997">Down Vertical Mark, DV</title>
      <polygon
         points="4,4 0,0 12,0 8,4 8,40 4,40 "
         style="fill:#000000"
         id="polygon999" />
    </g>
    <g
       id="g1007"
       transform="matrix(0,-0.26458333,0.26458333,0,8.8616901,8.003646)">
      <title
         id="title1003">Right Horizontal Mark, RH</title>
      <polygon
         points="12,0 8,4 8,40 4,40 4,4 0,0 "
         style="fill:#000000"
         id="polygon1005" />
    </g>
    <g
       id="g1013"
       transform="matrix(0,-0.26458333,0.26458333,0,8.8616901,12.265328)">
      <title
         id="title1009">Right Horizontal Mark, RH</title>
      <polygon
         points="4,4 0,0 12,0 8,4 8,40 4,40 "
         style="fill:#000000"
         id="polygon1011" />
    </g>
    <g
       id="g1019"
       transform="matrix(0.26458333,0,0,0.26458333,12.102836,5.2898145)">
      <title
         id="title1015">Down Vertical Mark, DV</title>
      <polygon
         points="0,0 12,0 8,4 8,35 4,35 4,4 "
         style="fill:#000000"
         id="polygon1017" />
    </g>
    <circle
       style="fill:#000000;fill-rule:evenodd;stroke-width:0.264583"
       id="circle958"
       cx="29.2913"
       cy="13.862276"
       r="0.79374999">
      <title
         id="title966">2 Cross Connector, 2C</title>
    </circle>
    <circle
       style="fill:#000000;fill-rule:evenodd;stroke-width:0.264583"
       id="circle1023"
       cx="29.433041"
       cy="10.035268"
       r="0.79374999">
      <title
         id="title1021">2 Cross Connector, 2C</title>
    </circle>
    <circle
       style="fill:#000000;fill-rule:evenodd;stroke-width:0.264583"
       id="circle1027"
       cx="24.661091"
       cy="13.673288"
       r="0.79374999">
      <title
         id="title1025">2 Cross Connector, 2C</title>
    </circle>
    <circle
       style="fill:#000000;fill-rule:evenodd;stroke-width:0.264583"
       id="circle1031"
       cx="24.661091"
       cy="9.8935261"
       r="0.79374999">
      <title
         id="title1029">2 Cross Connector, 2C</title>
    </circle>
    <circle
       style="fill:#000000;fill-rule:evenodd;stroke-width:0.264583"
       id="circle1035"
       cx="19.983635"
       cy="13.673288"
       r="0.79374999">
      <title
         id="title1033">2 Cross Connector, 2C</title>
    </circle>
    <circle
       style="fill:#000000;fill-rule:evenodd;stroke-width:0.264583"
       id="circle1039"
       cx="13.69978"
       cy="10.602232"
       r="0.79374999">
      <title
         id="title1037">2 Cross Connector, 2C</title>
    </circle>
    <circle
       style="fill:#000000;fill-rule:evenodd;stroke-width:0.264583"
       id="circle1043"
       cx="13.652534"
       cy="6.4444938"
       r="0.79374999">
      <title
         id="title1041">2 Cross Connector, 2C</title>
    </circle>
    <circle
       style="fill:#000000;fill-rule:evenodd;stroke-width:0.264583"
       id="circle956"
       cx="20.030884"
       cy="6.302753"
       r="0.79374999">
      <title
         id="title976">Northeast Corner Connector, NEC</title>
    </circle>
    <circle
       style="fill:#000000;fill-rule:evenodd;stroke-width:0.264583"
       id="circle1047"
       cx="20.645094"
       cy="9.9880199"
       r="0.79374999">
      <title
         id="title1045">Left 2 Touch, L2T</title>
    </circle>
  </g>
</svg>
