<?xml version="1.0" encoding="UTF-8" standalone="no"?>
<svg
   xmlns:dc="http://purl.org/dc/elements/1.1/"
   xmlns:cc="http://creativecommons.org/ns#"
   xmlns:rdf="http://www.w3.org/1999/02/22-rdf-syntax-ns#"
   xmlns:svg="http://www.w3.org/2000/svg"
   xmlns="http://www.w3.org/2000/svg"
   width="160"
   height="80"
   viewBox="0 0 42.333332 21.166667"
   version="1.1"
   id="svg8">
  <defs
     id="defs2" />
  <metadata
     id="metadata5">
    <rdf:RDF>
      <cc:Work
         rdf:about="">
        <dc:format>image/svg+xml</dc:format>
        <dc:type
           rdf:resource="http://purl.org/dc/dcmitype/StillImage" />
        <dc:title></dc:title>
      </cc:Work>
    </rdf:RDF>
  </metadata>
  <g
     id="layer1">
    <polygon
       points="6,12 0,6 6,0 "
       style="fill:#000000"
       id="polygon1203"
       transform="matrix(0.26458333,0,0,0.26458333,12.390172,6.6334817)">
      <title
         id="title1217">Heel Mark, HE</title>
    </polygon>
    <g
       id="g1386"
       transform="matrix(0.26458333,0,0,0.26458333,23.488386,3.4047343)">
      <title
         id="title1382">Down Vertical Mark, DV</title>
      <polygon
         points="8,40 4,40 4,4 0,0 12,0 8,4 "
         style="fill:#000000"
         id="polygon1384" />
    </g>
    <g
       id="g1431"
       transform="matrix(0,-0.26458333,0.26458333,0,13.963385,13.978731)">
      <title
         id="title1427">Right Horizontal Mark, RH</title>
      <polygon
         points="0,0 12,0 8,4 8,40 4,40 4,4 "
         style="fill:#000000"
         id="polygon1429" />
    </g>
    <g
       id="g1437"
       transform="matrix(0,-0.26458333,0.26458333,0,13.989844,6.2886166)">
      <title
         id="title1433">Right Horizontal Mark, RH</title>
      <polygon
         points="12,0 8,4 8,40 4,40 4,4 0,0 "
         style="fill:#000000"
         id="polygon1435" />
    </g>
    <circle
       style="fill:#000000;fill-rule:evenodd;stroke-width:0.264583"
       id="path839"
       cx="24.993675"
       cy="12.340961"
       r="0.79374999">
      <title
         id="title1419">Right 2 Touch Connector, R2T</title>
    </circle>
    <circle
       style="fill:#000000;fill-rule:evenodd;stroke-width:0.264583"
       id="circle1415"
       cx="24.993675"
       cy="4.6774549"
       r="0.79374999">
      <title
         id="title1417">Northeast Corner Connector, NEC</title>
    </circle>
    <g
       id="g1457"
       transform="matrix(0,-0.26458333,0.26458333,0,17.953869,11.719189)">
      <title
         id="title1453">Right Horizontal Mark, RH</title>
      <polygon
         points="8,25 4,25 4,4 0,0 12,0 8,4 "
         style="fill:#000000"
         id="polygon1455" />
    </g>
    <g
       id="g1474"
       transform="matrix(0,-0.26458333,0.26458333,0,17.953869,8.4912728)">
      <title
         id="title1470">Right Horizontal Mark, RH</title>
      <polygon
         points="8,4 8,25 4,25 4,4 0,0 12,0 "
         style="fill:#000000"
         id="polygon1472" />
    </g>
    <circle
       style="fill:#000000;fill-rule:evenodd;stroke-width:0.264583"
       id="circle1478"
       cx="25.040922"
       cy="10.120352"
       r="0.79374999">
      <title
         id="title1476">Right 2 Touch Connector, R2T</title>
    </circle>
    <circle
       style="fill:#000000;fill-rule:evenodd;stroke-width:0.264583"
       id="circle1482"
       cx="24.984339"
       cy="6.9548011"
       r="0.79374999">
      <title
         id="title1480">Right 2 Touch Connector, R2T</title>
    </circle>
  </g>
</svg>
