<?xml version="1.0" encoding="UTF-8" standalone="no"?>
<svg
   xmlns:dc="http://purl.org/dc/elements/1.1/"
   xmlns:cc="http://creativecommons.org/ns#"
   xmlns:rdf="http://www.w3.org/1999/02/22-rdf-syntax-ns#"
   xmlns:svg="http://www.w3.org/2000/svg"
   xmlns="http://www.w3.org/2000/svg"
   width="160"
   height="80"
   viewBox="0 0 42.333332 21.166667"
   version="1.1"
   id="svg8">
  <defs
     id="defs2" />
  <metadata
     id="metadata5">
    <rdf:RDF>
      <cc:Work
         rdf:about="">
        <dc:format>image/svg+xml</dc:format>
        <dc:type
           rdf:resource="http://purl.org/dc/dcmitype/StillImage" />
        <dc:title></dc:title>
      </cc:Work>
    </rdf:RDF>
  </metadata>
  <g
     id="layer1">
    <polygon
       points="12,40 0,40 4,35 4,4 0,0 12,0 8,4 8,35 "
       style="fill:#000000"
       id="polygon851"
       transform="matrix(0,-0.26458333,0.26458333,0,2.834821,7.8241075)">
      <title
         id="title865">Right Horizontal Barbell Mark, RHBB</title>
    </polygon>
    <polygon
       points="4,4 0,0 12,0 8,4 8,35 12,40 0,40 4,35 "
       style="fill:#000000"
       id="polygon869"
       transform="matrix(0,-0.26458333,0.26458333,0,2.8347458,12.61295)">
      <title
         id="title867">Right Horizontal Barbell Mark, RHBB</title>
    </polygon>
    <g
       id="g889"
       transform="matrix(0.26458333,0,0,0.26458333,6.7222687,3.4490331)">
      <title
         id="title885">Down Vertical Mark, DV</title>
      <polygon
         points="8,40 4,40 4,4 0,0 12,0 8,4 "
         style="fill:#000000"
         id="polygon887" />
    </g>
    <polygon
       points="8,18 12,18 8,22 8,40 4,40 4,22 0,18 4,18 4,4 0,0 12,0 8,4 "
       style="fill:#000000"
       id="polygon914"
       transform="matrix(0,-0.26458333,0.26458333,0,15.119048,8.729398)">
      <title
         id="title928">Right Horizontal Head-to-Tail Mark, RHHT</title>
    </polygon>
    <g
       id="g948"
       transform="matrix(0,-0.26458333,0.26458333,0,15.119048,12.671688)">
      <title
         id="title944">Right Horizontal Mark, RH</title>
      <polygon
         points="8,4 8,40 4,40 4,4 0,0 12,0 "
         style="fill:#000000"
         id="polygon946" />
    </g>
    <g
       id="g979"
       transform="matrix(0.18708867,-0.18708867,0.18708867,0.18708867,17.374797,3.555873)">
      <title
         id="title975">Right Down Diagonal Mark, RDD</title>
      <polygon
         points="4,25 4,4 0,0 12,0 8,4 8,25 "
         style="fill:#000000"
         id="polygon977" />
    </g>
    <circle
       style="fill:#000000;fill-rule:evenodd;stroke-width:0.264583"
       id="path839"
       cx="22.725819"
       cy="6.8508182"
       r="0.79374999">
      <title
         id="title1016">Other 2 Touch Connector</title>
    </circle>
    <circle
       style="fill:#000000;fill-rule:evenodd;stroke-width:0.264583"
       id="circle1008"
       cx="8.2682285"
       cy="11.008556"
       r="0.79374999">
      <title
         id="title1010">2 Cross Connector, 2C</title>
    </circle>
    <circle
       style="fill:#000000;fill-rule:evenodd;stroke-width:0.264583"
       id="circle1014"
       cx="8.3154755"
       cy="6.1421127"
       r="0.79374999">
      <title
         id="title1012">2 Cross Connector, 2C</title>
    </circle>
  </g>
</svg>
