<?xml version="1.0" encoding="UTF-8" standalone="no"?>
<svg
   xmlns:dc="http://purl.org/dc/elements/1.1/"
   xmlns:cc="http://creativecommons.org/ns#"
   xmlns:rdf="http://www.w3.org/1999/02/22-rdf-syntax-ns#"
   xmlns:svg="http://www.w3.org/2000/svg"
   xmlns="http://www.w3.org/2000/svg"
   width="160"
   height="80"
   viewBox="0 0 42.333332 21.166667"
   version="1.1"
   id="svg8">
  <defs
     id="defs2" />
  <metadata
     id="metadata5">
    <rdf:RDF>
      <cc:Work
         rdf:about="">
        <dc:format>image/svg+xml</dc:format>
        <dc:type
           rdf:resource="http://purl.org/dc/dcmitype/StillImage" />
        <dc:title></dc:title>
      </cc:Work>
    </rdf:RDF>
  </metadata>
  <g
     id="layer1">
    <polygon
       points="8,18 12,18 8,22 8,40 4,40 4,22 0,18 4,18 4,4 0,0 12,0 8,4 "
       style="fill:#000000"
       id="polygon1656"
       transform="matrix(0.26458333,0,0,0.26458333,21.852694,4.8607737)">
      <title
         id="title1670">Down Vertical Head-to-Tail Mark, DVHT</title>
    </polygon>
    <g
       id="g1690"
       transform="matrix(0,-0.26458333,0.26458333,0,12.327694,11.73994)">
      <title
         id="title1686">Right Horizontal Mark, RH</title>
      <polygon
         points="0,0 12,0 8,4 8,40 4,40 4,4 "
         style="fill:#000000"
         id="polygon1688" />
    </g>
    <g
       id="g1707"
       transform="matrix(0,-0.26458333,0.26458333,0,12.327694,16.50244)">
      <title
         id="title1703">Right Horizontal Mark, RH</title>
      <polygon
         points="8,40 4,40 4,4 0,0 12,0 8,4 "
         style="fill:#000000"
         id="polygon1705" />
    </g>
    <g
       id="g1727"
       transform="matrix(0.18708867,-0.18708867,0.18708867,0.18708867,17.658279,4.4063195)">
      <title
         id="title1723">Right Down Diagonal Mark, RDD</title>
      <polygon
         points="8,4 8,25 4,25 4,4 0,0 12,0 "
         style="fill:#000000"
         id="polygon1725" />
    </g>
    <g
       id="g1744"
       transform="matrix(0.18708867,-0.18708867,0.18708867,0.18708867,15.678768,6.4427663)">
      <title
         id="title1740">Right Down Diagonal Mark, RDD</title>
      <polygon
         points="4,4 0,0 12,0 8,4 8,25 4,25 "
         style="fill:#000000"
         id="polygon1742" />
    </g>
    <circle
       style="fill:#000000;fill-rule:evenodd;stroke-width:0.264583"
       id="path839"
       cx="23.387276"
       cy="14.930059"
       r="0.79374999">
      <title
         id="title1774">Southeast Corner Connector, SEC</title>
    </circle>
    <circle
       style="fill:#000000;fill-rule:evenodd;stroke-width:0.264583"
       id="circle1762"
       cx="23.434525"
       cy="10.063617"
       r="0.79374999">
      <title
         id="title1772">Right 2 Touch Connector, R2T</title>
    </circle>
    <circle
       style="fill:#000000;fill-rule:evenodd;stroke-width:0.264583"
       id="circle1764"
       cx="23.245537"
       cy="7.5595245"
       r="0.79374999">
      <title
         id="title1768">Other 2 Touch Connector, O2T</title>
    </circle>
    <circle
       style="fill:#000000;fill-rule:evenodd;stroke-width:0.264583"
       id="circle1766"
       cx="21.246042"
       cy="10.063617"
       r="0.79374999">
      <title
         id="title1770">Other 2 Touch Connector, O2T</title>
    </circle>
  </g>
</svg>
