<?xml version="1.0" encoding="UTF-8" standalone="no"?>
<svg
   xmlns:dc="http://purl.org/dc/elements/1.1/"
   xmlns:cc="http://creativecommons.org/ns#"
   xmlns:rdf="http://www.w3.org/1999/02/22-rdf-syntax-ns#"
   xmlns:svg="http://www.w3.org/2000/svg"
   xmlns="http://www.w3.org/2000/svg"
   xmlns:sodipodi="http://sodipodi.sourceforge.net/DTD/sodipodi-0.dtd"
   xmlns:inkscape="http://www.inkscape.org/namespaces/inkscape"
   width="160"
   height="80"
   viewBox="0 0 42.333332 21.166667"
   version="1.1"
   id="svg8"
   inkscape:version="1.0.2-2 (e86c870879, 2021-01-15)"
   sodipodi:docname="cdli175.svg">
  <defs
     id="defs2" />
  <sodipodi:namedview
     id="base"
     pagecolor="#ffffff"
     bordercolor="#666666"
     borderopacity="1.0"
     inkscape:pageopacity="0.0"
     inkscape:pageshadow="2"
     inkscape:zoom="5.6"
     inkscape:cx="78.810065"
     inkscape:cy="50.300067"
     inkscape:document-units="px"
     inkscape:current-layer="layer1"
     inkscape:document-rotation="0"
     showgrid="false"
     units="px"
     inkscape:window-width="1755"
     inkscape:window-height="1020"
     inkscape:window-x="171"
     inkscape:window-y="2"
     inkscape:window-maximized="0" />
  <metadata
     id="metadata5">
    <rdf:RDF>
      <cc:Work
         rdf:about="">
        <dc:format>image/svg+xml</dc:format>
        <dc:type
           rdf:resource="http://purl.org/dc/dcmitype/StillImage" />
        <dc:title></dc:title>
      </cc:Work>
    </rdf:RDF>
  </metadata>
  <g
     inkscape:label="Layer 1"
     inkscape:groupmode="layer"
     id="layer1">
    <g
       id="g917"
       transform="matrix(0,-0.26458333,0.26458333,0,16.222662,12.306831)">
      <title
         id="title913">Right Horizontal Mark, RH</title>
      <polygon
         points="0,0 12,0 8,4 8,40 4,40 4,4 "
         style="fill:#000000"
         id="polygon915" />
    </g>
    <polygon
       points="0,6 6,0 6,12 "
       style="fill:#000000"
       id="polygon968"
       transform="matrix(0.26458333,0,0,0.26458333,16.857662,3.6284958)">
      <title
         id="title984">Heel Mark, HE</title>
    </polygon>
    <polygon
       points="6,0 6,12 0,6 "
       style="fill:#000000"
       id="polygon982"
       transform="matrix(0.26458333,0,0,0.26458333,16.857662,0.53287083)">
      <title
         id="title986">Heel Mark, HE</title>
    </polygon>
    <polygon
       points="0,18 4,18 4,4 0,0 12,0 8,4 8,18 12,18 8,22 8,40 4,40 4,22 "
       style="fill:#000000"
       id="polygon1026"
       transform="matrix(0,-0.26458333,0.26458333,0,16.222662,9.131831)">
      <title
         id="title1046">Right Horizontal Head-to-Tail Mark, RHHT</title>
    </polygon>
    <g
       id="g1044"
       transform="matrix(0.09049282,-0.248627,0.248627,0.09049282,16.048256,5.1478156)">
      <title
         id="title1040">Right Down Diagonal  Mark, RDD</title>
      <polygon
         points="8,4 8,20 4,20 4,4 0,0 12,0 "
         style="fill:#000000"
         id="polygon1042"
         transform="rotate(15,-70.27678,29.516317)" />
    </g>
    <circle
       style="fill:#000000;fill-rule:evenodd;stroke-width:0.264583"
       id="circle1006"
       cx="26.363838"
       cy="7.3705349"
       r="0.79374999">
      <title
         id="title1008">Other 2 Touch Connector, O2T</title>
    </circle>
    <g
       id="g1052"
       transform="matrix(0.25556787,-0.0684792,0.0684792,0.25556787,16.504706,-2.8228971)">
      <title
         id="title1048">Down Vertical  Mark, DV</title>
      <polygon
         points="12,0 8,4 8,20 4,20 4,4 0,0 "
         style="fill:#000000"
         id="polygon1050"
         transform="rotate(15,-70.27678,29.516317)" />
    </g>
    <polygon
       points="8,4 8,15 4,15 4,4 0,0 12,0 "
       style="fill:#000000"
       id="polygon1056"
       transform="matrix(0.15175875,-0.21673398,0.21673398,0.15175875,11.625263,7.160637)">
      <title
         id="title1068">Right Down Diagonal  Mark, RDD</title>
    </polygon>
    <polygon
       points="8,4 8,15 4,15 4,4 0,0 12,0 "
       style="fill:#000000"
       id="polygon1060"
       transform="matrix(0.15175875,-0.21673398,0.21673398,0.15175875,11.569171,9.8718223)">
      <title
         id="title1070">Right Down Diagonal  Mark, RDD</title>
    </polygon>
    <circle
       style="fill:#000000;fill-rule:evenodd;stroke-width:0.264583"
       id="circle1066"
       cx="20.646948"
       cy="7.3705349"
       r="0.79374999">
      <title
         id="title1064">Bottom 2 Touch Connector, B2T</title>
    </circle>
  </g>
</svg>
