<?xml version="1.0" encoding="UTF-8" standalone="no"?>
<svg
   xmlns:dc="http://purl.org/dc/elements/1.1/"
   xmlns:cc="http://creativecommons.org/ns#"
   xmlns:rdf="http://www.w3.org/1999/02/22-rdf-syntax-ns#"
   xmlns:svg="http://www.w3.org/2000/svg"
   xmlns="http://www.w3.org/2000/svg"
   width="160"
   height="80"
   viewBox="0 0 42.333332 21.166667"
   version="1.1"
   id="svg8">
  <defs
     id="defs2" />
  <metadata
     id="metadata5">
    <rdf:RDF>
      <cc:Work
         rdf:about="">
        <dc:format>image/svg+xml</dc:format>
        <dc:type
           rdf:resource="http://purl.org/dc/dcmitype/StillImage" />
        <dc:title></dc:title>
      </cc:Work>
    </rdf:RDF>
  </metadata>
  <g
     id="layer1">
    <polygon
       points="4,35 4,4 0,0 12,0 8,4 8,35 12,35 8,39 8,74 4,74 4,39 0,35 "
       style="fill:#000000"
       id="polygon1330"
       transform="matrix(0,-0.26458333,0.26458333,0,8.64904,6.6665548)">
      <title
         id="title1348">Right Horizontal Head-to-Tail Mark, RHHT</title>
    </polygon>
    <polygon
       points="12,35 8,39 8,74 4,74 4,39 0,35 4,35 4,4 0,0 12,0 8,4 8,35 "
       style="fill:#000000"
       id="polygon1344"
       transform="matrix(0,-0.26458333,0.26458333,0,8.718966,16.163207)">
      <title
         id="title1350">Right Horizontal Head-to-Tail Mark, RHHT</title>
    </polygon>
    <polygon
       points="4,4 0,0 12,0 8,4 8,35 12,40 0,40 4,35 "
       style="fill:#000000"
       id="polygon897"
       transform="matrix(0,-0.26458333,0.26458333,0,12.37872,12.936236)">
      <title
         id="title922">Right Horizontal Barbell Mark, RHBB</title>
    </polygon>
    <polygon
       points="4,4 0,0 12,0 8,4 8,35 12,40 0,40 4,35 "
       style="fill:#000000"
       id="polygon926"
       transform="matrix(0,-0.26458333,0.26458333,0,12.37872,9.7612358)">
      <title
         id="title924">Right Horizontal Barbell Mark, RHBB</title>
    </polygon>
    <polygon
       points="6,0 6,12 0,6 "
       style="fill:#000000"
       id="polygon940"
       transform="matrix(0.26458333,0,0,0.26458333,24.814137,8.3343745)">
      <title
         id="title954">Heel Mark, HE</title>
    </polygon>
  </g>
</svg>
