<?xml version="1.0" encoding="UTF-8" standalone="no"?>
<svg
   xmlns:dc="http://purl.org/dc/elements/1.1/"
   xmlns:cc="http://creativecommons.org/ns#"
   xmlns:rdf="http://www.w3.org/1999/02/22-rdf-syntax-ns#"
   xmlns:svg="http://www.w3.org/2000/svg"
   xmlns="http://www.w3.org/2000/svg"
   width="160"
   height="80"
   viewBox="0 0 42.333332 21.166667"
   version="1.1"
   id="svg8">
  <defs
     id="defs2" />
  <metadata
     id="metadata5">
    <rdf:RDF>
      <cc:Work
         rdf:about="">
        <dc:format>image/svg+xml</dc:format>
        <dc:type
           rdf:resource="http://purl.org/dc/dcmitype/StillImage" />
        <dc:title></dc:title>
      </cc:Work>
    </rdf:RDF>
  </metadata>
  <g
     id="layer1">
    <polygon
       points="8,4 8,18 12,18 8,22 8,40 4,40 4,22 0,18 4,18 4,4 0,0 12,0 "
       style="fill:#000000"
       id="polygon1656"
       transform="matrix(0.26458333,0,0,0.26458333,22.735268,3.5721396)">
      <title
         id="title1670">Down Vertical Head-to-Tail Mark, DVHT</title>
    </polygon>
    <g
       id="g2961"
       transform="matrix(0,-0.26458333,0.26458333,0,11.150297,8.0603425)">
      <title
         id="title2957">Right Horizontal Mark, RH</title>
      <polygon
         points="4,25 4,4 0,0 12,0 8,4 8,25 "
         style="fill:#000000"
         id="polygon2959" />
    </g>
    <g
       id="g2978"
       transform="matrix(0,-0.26458333,0.26458333,0,11.150297,12.558182)">
      <title
         id="title2974">Right Horizontal Mark, RH</title>
      <polygon
         points="12,0 8,4 8,25 4,25 4,4 0,0 "
         style="fill:#000000"
         id="polygon2976" />
    </g>
    <polygon
       points="6,12 0,6 6,0 "
       style="fill:#000000"
       id="polygon2992"
       transform="matrix(0.26458333,0,0,0.26458333,19.99494,9.4683038)">
      <title
         id="title3012">Heel Mark, HE</title>
    </polygon>
    <polygon
       points="6,12 0,6 6,0 "
       style="fill:#000000"
       id="polygon3006"
       transform="matrix(0.26458333,0,0,0.26458333,18.327952,9.4247228)">
      <title
         id="title3014">Heel Mark, HE</title>
    </polygon>
    <polygon
       points="0,6 6,0 6,12 "
       style="fill:#000000"
       id="polygon3008"
       transform="matrix(0.26458333,0,0,0.26458333,18.294085,4.9646416)">
      <title
         id="title3016">Heel Mark, HE</title>
    </polygon>
    <polygon
       points="6,12 0,6 6,0 "
       style="fill:#000000"
       id="polygon3010"
       transform="matrix(0.26458333,0,0,0.26458333,19.900447,4.9798368)">
      <title
         id="title3018">Heel Mark, HE</title>
    </polygon>
  </g>
</svg>
