<?xml version="1.0" encoding="UTF-8" standalone="no"?>
<svg
   xmlns:dc="http://purl.org/dc/elements/1.1/"
   xmlns:cc="http://creativecommons.org/ns#"
   xmlns:rdf="http://www.w3.org/1999/02/22-rdf-syntax-ns#"
   xmlns:svg="http://www.w3.org/2000/svg"
   xmlns="http://www.w3.org/2000/svg"
   width="160"
   height="80"
   viewBox="0 0 42.333332 21.166667"
   version="1.1"
   id="svg8">
  <defs
     id="defs2" />
  <metadata
     id="metadata5">
    <rdf:RDF>
      <cc:Work
         rdf:about="">
        <dc:format>image/svg+xml</dc:format>
        <dc:type
           rdf:resource="http://purl.org/dc/dcmitype/StillImage" />
        <dc:title></dc:title>
      </cc:Work>
    </rdf:RDF>
  </metadata>
  <g
     id="layer1">
    <polygon
       points="6,0 6,12 0,6 "
       style="fill:#000000"
       id="polygon1203"
       transform="matrix(0.26458333,0,0,0.26458333,15.635099,6.5974607)">
      <title
         id="title1217">Heel Mark, HE</title>
    </polygon>
    <g
       id="g1682"
       transform="matrix(0,-0.26458333,0.26458333,0,14.940454,14.696697)">
      <title
         id="title1678">Right Horizontal Mark, RH</title>
      <polygon
         points="4,4 0,0 12,0 8,4 8,40 4,40 "
         style="fill:#000000"
         id="polygon1680" />
    </g>
    <g
       id="g1688"
       transform="matrix(0.26458333,0,0,0.26458333,21.94817,4.1606865)">
      <title
         id="title1684">Down Vertical Mark, DV</title>
      <polygon
         points="8,40 4,40 4,4 0,0 12,0 8,4 "
         style="fill:#000000"
         id="polygon1686" />
    </g>
    <circle
       style="fill:#000000;fill-rule:evenodd;stroke-width:0.264583"
       id="circle1706"
       cx="23.498819"
       cy="13.04018"
       r="0.79374999">
      <title
         id="title1704">2 Cross Connector, 2C</title>
    </circle>
    <polygon
       points="4,40 4,22 0,18 4,18 4,4 0,0 12,0 8,4 8,18 12,18 8,22 8,40 "
       style="fill:#000000"
       id="polygon1740"
       transform="matrix(0.26458333,0,0,0.26458333,18.77317,4.1606865)">
      <title
         id="title1758">Down Vertical Head-to-Tail Mark, DVHT</title>
    </polygon>
    <circle
       style="fill:#000000;fill-rule:evenodd;stroke-width:0.264583"
       id="circle1756"
       cx="20.286022"
       cy="13.087427"
       r="0.79374999">
      <title
         id="title1754">2 Cross Connector, 2C</title>
    </circle>
  </g>
</svg>
