<?xml version="1.0" encoding="UTF-8" standalone="no"?>
<svg
   xmlns:dc="http://purl.org/dc/elements/1.1/"
   xmlns:cc="http://creativecommons.org/ns#"
   xmlns:rdf="http://www.w3.org/1999/02/22-rdf-syntax-ns#"
   xmlns:svg="http://www.w3.org/2000/svg"
   xmlns="http://www.w3.org/2000/svg"
   width="160"
   height="80"
   viewBox="0 0 42.333332 21.166667"
   version="1.1"
   id="svg8">
  <defs
     id="defs2" />
  <metadata
     id="metadata5">
    <rdf:RDF>
      <cc:Work
         rdf:about="">
        <dc:format>image/svg+xml</dc:format>
        <dc:type
           rdf:resource="http://purl.org/dc/dcmitype/StillImage" />
        <dc:title></dc:title>
      </cc:Work>
    </rdf:RDF>
  </metadata>
  <g
     id="layer1">
    <g
       id="g62"
       transform="matrix(0.26458333,0,0,0.26458333,22.508482,5.4806547)">
      <title
         id="title58">Down Vertical Mark, DV</title>
      <polygon
         points="4,4 0,0 12,0 8,4 8,40 4,40 "
         style="fill:#000000"
         id="polygon60" />
    </g>
    <g
       id="g79"
       transform="matrix(0.26458333,0,0,0.26458333,13.33311,5.4824312)">
      <title
         id="title75">Down Vertical Mark, DV</title>
      <polygon
         points="8,40 4,40 4,4 0,0 12,0 8,4 "
         style="fill:#000000"
         id="polygon77" />
    </g>
    <g
       id="g99"
       transform="matrix(0,-0.26458333,0.26458333,0,16.300223,12.418332)">
      <title
         id="title95">Right Horizontal Mark, RH</title>
      <polygon
         points="4,4 0,0 12,0 8,4 8,25 4,25 "
         style="fill:#000000"
         id="polygon97" />
    </g>
    <g
       id="g163"
       transform="matrix(0.26458333,0,0,0.26458333,27.13869,5.5751488)">
      <title
         id="title159">Down Vertical Mark, DV</title>
      <polygon
         points="4,4 0,0 12,0 8,4 8,35 4,35 "
         style="fill:#000000"
         id="polygon161"
         transform="translate(-33.928572,1.7857143)" />
    </g>
    <g
       id="g169"
       transform="matrix(0,-0.26458333,0.26458333,0,7.7768601,8.6574312)">
      <title
         id="title165">Right Horizontal Mark, RH</title>
      <polygon
         points="4,4 0,0 12,0 8,4 8,25 4,25 "
         style="fill:#000000"
         id="polygon167" />
    </g>
    <g
       id="g175"
       transform="matrix(0,-0.26458333,0.26458333,0,7.8902529,15.946702)">
      <title
         id="title171">Right Horizontal Mark, RH</title>
      <polygon
         points="0,0 12,0 8,4 8,25 4,25 4,4 "
         style="fill:#000000"
         id="polygon173" />
    </g>
    <g
       id="g181"
       transform="matrix(0,-0.26458333,0.26458333,0,5.1499255,12.276591)">
      <title
         id="title177">Right Horizontal Mark, RH</title>
      <polygon
         points="8,4 8,35 4,35 4,4 0,0 12,0 "
         style="fill:#000000"
         id="polygon179" />
    </g>
    <g
       id="g201"
       transform="matrix(0.26458333,0,0,0.26458333,18.861012,10.025818)">
      <title
         id="title197">2 Cross Connector, 2C</title>
      <circle
         cx="3"
         cy="3"
         r="3"
         style="fill:#000000"
         id="circle199" />
    </g>
    <g
       id="g218"
       transform="matrix(0.26458333,0,0,0.26458333,13.994569,13.569345)">
      <title
         id="title214">Right 2 Touch Connector, R2T</title>
      <circle
         cx="3"
         cy="3"
         r="3"
         style="fill:#000000"
         id="circle216" />
    </g>
    <g
       id="g224"
       transform="matrix(0.26458333,0,0,0.26458333,13.994569,9.8840772)">
      <title
         id="title220">Right 2 Touch Connector, R2T</title>
      <circle
         cx="3"
         cy="3"
         r="3"
         style="fill:#000000"
         id="circle222" />
    </g>
    <g
       id="g230"
       transform="matrix(0.26458333,0,0,0.26458333,14.041816,6.3877974)">
      <title
         id="title226">Northeast Corner Connector, NEC</title>
      <circle
         cx="3"
         cy="3"
         r="3"
         style="fill:#000000"
         id="circle228" />
    </g>
  </g>
</svg>
