<?xml version="1.0" encoding="UTF-8" standalone="no"?>
<svg
   xmlns:dc="http://purl.org/dc/elements/1.1/"
   xmlns:cc="http://creativecommons.org/ns#"
   xmlns:rdf="http://www.w3.org/1999/02/22-rdf-syntax-ns#"
   xmlns:svg="http://www.w3.org/2000/svg"
   xmlns="http://www.w3.org/2000/svg"
   width="160"
   height="80"
   viewBox="0 0 42.333332 21.166667"
   version="1.1"
   id="svg8">
  <defs
     id="defs2" />
  <metadata
     id="metadata5">
    <rdf:RDF>
      <cc:Work
         rdf:about="">
        <dc:format>image/svg+xml</dc:format>
        <dc:type
           rdf:resource="http://purl.org/dc/dcmitype/StillImage" />
        <dc:title></dc:title>
      </cc:Work>
    </rdf:RDF>
  </metadata>
  <g
     id="layer1">
    <polygon
       points="0,6 6,0 6,12 "
       style="fill:#000000"
       id="polygon463"
       transform="matrix(0.26458333,0,0,0.26458333,23.689582,9.0524177)">
      <title
         id="title473">Heel Mark, HE</title>
    </polygon>
    <g
       id="g495"
       transform="matrix(0.26458333,0,0,0.26458333,8.9485862,0.78052083)">
      <title
         id="title491">Down Vertical Mark, DV</title>
      <polygon
         points="4,72 4,4 0,0 12,0 8,4 8,72 "
         style="fill:#000000"
         id="polygon493" />
    </g>
    <g
       id="g512"
       transform="matrix(0.26458333,0,0,0.26458333,27.998473,0.83343749)">
      <title
         id="title508">Down Vertical Mark, DV</title>
      <polygon
         points="0,0 12,0 8,4 8,72 4,72 4,4 "
         style="fill:#000000"
         id="polygon510" />
    </g>
    <g
       id="g518"
       transform="matrix(0,-0.26458333,0.26458333,0,10.00692,2.9765625)">
      <title
         id="title514">Right Horizontal Mark, RH</title>
      <polygon
         points="8,4 8,72 4,72 4,4 0,0 12,0 "
         style="fill:#000000"
         id="polygon516" />
    </g>
    <g
       id="g524"
       transform="matrix(0,-0.26458333,0.26458333,0,10.00692,20.968229)">
      <title
         id="title520">Right Horizontal Mark, RH</title>
      <polygon
         points="0,0 12,0 8,4 8,72 4,72 4,4 "
         style="fill:#000000"
         id="polygon522" />
    </g>
    <g
       id="g376"
       transform="matrix(0.26458333,0,0,0.26458333,28.641145,0.71815498)">
      <title
         id="title372">Northeast Corner Connector, NEC</title>
      <circle
         cx="3"
         cy="3"
         r="3"
         style="fill:#000000"
         id="circle374" />
    </g>
    <g
       id="g423"
       transform="matrix(0.26458333,0,0,0.26458333,9.7423358,0.62366059)">
      <title
         id="title419">Northwest Corner Connector, NWC</title>
      <circle
         cx="3"
         cy="3"
         r="3"
         style="fill:#000000"
         id="circle421" />
    </g>
    <g
       id="g417"
       transform="matrix(0.26458333,0,0,0.26458333,10.025818,18.624777)">
      <title
         id="title413">Southwest Corner Connector, SWC</title>
      <circle
         cx="3"
         cy="3"
         r="3"
         style="fill:#000000"
         id="circle415" />
    </g>
    <g
       id="g393"
       transform="matrix(0.26458333,0,0,0.26458333,28.782887,18.530283)">
      <title
         id="title389">Southeast Corner Connector, SEC</title>
      <circle
         cx="3"
         cy="3"
         r="3"
         style="fill:#000000"
         id="circle391" />
    </g>
    <polygon
       points="12,0 8,4 8,28 12,28 8,32 8,60 4,60 4,32 0,28 4,28 4,4 0,0 "
       style="fill:#000000"
       id="polygon609"
       transform="matrix(0.26458333,0,0,0.26458333,19.106697,2.9538083)">
      <title
         id="title735">Down Vertical Head-to-Tail Mark, DVHT</title>
    </polygon>
    <polygon
       points="6,0 6,12 0,6 "
       style="fill:#000000"
       id="polygon625"
       transform="matrix(0.26458333,0,0,0.26458333,23.642335,4.6962421)">
      <title
         id="title623">Heel Mark, HE</title>
    </polygon>
    <polygon
       points="6,12 0,6 6,0 "
       style="fill:#000000"
       id="polygon629"
       transform="matrix(0.26458333,0,0,0.26458333,23.831323,13.493638)">
      <title
         id="title627">Heel Mark, HE</title>
    </polygon>
    <g
       id="g649"
       transform="matrix(0,-0.26458333,0.26458333,0,13.523912,6.1288083)">
      <title
         id="title645">Right Horizontal Mark, RH</title>
      <polygon
         points="4,25 4,4 0,0 12,0 8,4 8,25 "
         style="fill:#000000"
         id="polygon647" />
    </g>
    <g
       id="g666"
       transform="matrix(0,-0.26458333,0.26458333,0,13.552223,17.698736)">
      <title
         id="title662">Right Horizontal Mark, RH</title>
      <polygon
         points="4,4 0,0 12,0 8,4 8,25 4,25 "
         style="fill:#000000"
         id="polygon664" />
    </g>
    <g
       id="g672"
       transform="matrix(0,-0.26458333,0.26458333,0,13.552223,13.968148)">
      <title
         id="title668">Right Horizontal Mark, RH</title>
      <polygon
         points="4,4 0,0 12,0 8,4 8,25 4,25 "
         style="fill:#000000"
         id="polygon670" />
    </g>
    <g
       id="g678"
       transform="matrix(0,-0.26458333,0.26458333,0,13.550447,9.9671187)">
      <title
         id="title674">Right Horizontal Mark, RH</title>
      <polygon
         points="4,4 0,0 12,0 8,4 8,25 4,25 "
         style="fill:#000000"
         id="polygon676" />
    </g>
    <g
       id="g698"
       transform="matrix(0.26458333,0,0,0.26458333,19.853199,18.435789)">
      <title
         id="title694">Bottom 2 Touch Connector, B2T</title>
      <circle
         cx="3"
         cy="3"
         r="3"
         style="fill:#000000"
         id="circle696" />
    </g>
    <g
       id="g715"
       transform="matrix(0.26458333,0,0,0.26458333,19.805952,15.364732)">
      <title
         id="title711">Right 2 Touch Connector, R2T</title>
      <circle
         cx="3"
         cy="3"
         r="3"
         style="fill:#000000"
         id="circle713" />
    </g>
    <g
       id="g721"
       transform="matrix(0.26458333,0,0,0.26458333,19.805952,11.632218)">
      <title
         id="title717">Right 2 Touch Connector, R2T</title>
      <circle
         cx="3"
         cy="3"
         r="3"
         style="fill:#000000"
         id="circle719" />
    </g>
    <g
       id="g727"
       transform="matrix(0.26458333,0,0,0.26458333,19.900446,7.6162207)">
      <title
         id="title723">Right 2 Touch Connector, R2T</title>
      <circle
         cx="3"
         cy="3"
         r="3"
         style="fill:#000000"
         id="circle725" />
    </g>
    <g
       id="g733"
       transform="matrix(0.26458333,0,0,0.26458333,19.711458,3.8364588)">
      <title
         id="title729">Northeast Corner Connector, NEC</title>
      <circle
         cx="3"
         cy="3"
         r="3"
         style="fill:#000000"
         id="circle731" />
    </g>
  </g>
</svg>
