<?xml version="1.0" encoding="UTF-8" standalone="no"?>
<svg
   xmlns:dc="http://purl.org/dc/elements/1.1/"
   xmlns:cc="http://creativecommons.org/ns#"
   xmlns:rdf="http://www.w3.org/1999/02/22-rdf-syntax-ns#"
   xmlns:svg="http://www.w3.org/2000/svg"
   xmlns="http://www.w3.org/2000/svg"
   width="160"
   height="80"
   viewBox="0 0 42.333332 21.166667"
   version="1.1"
   id="svg8">
  <defs
     id="defs2" />
  <metadata
     id="metadata5">
    <rdf:RDF>
      <cc:Work
         rdf:about="">
        <dc:format>image/svg+xml</dc:format>
        <dc:type
           rdf:resource="http://purl.org/dc/dcmitype/StillImage" />
        <dc:title></dc:title>
      </cc:Work>
    </rdf:RDF>
  </metadata>
  <g
     id="layer1">
    <polygon
       points="4,60 4,32 0,28 4,28 4,4 0,0 12,0 8,4 8,28 12,28 8,32 8,60 "
       style="fill:#000000"
       id="polygon1550"
       transform="matrix(0,-0.26458333,0.26458333,0,7.068155,13.433199)">
      <title
         id="title1554">Right Horizontal Head-to-Tail Mark, RHHT</title>
    </polygon>
    <polygon
       points="12,8 8,12 8,40 4,40 4,12 0,8 4,8 4,4 0,0 12,0 8,4 8,8 "
       style="fill:#000000"
       id="polygon1647"
       transform="matrix(0,-0.26458333,0.26458333,0,25.091949,9.8954163)">
      <title
         id="title1645">Right Horizontal Head-to-Tail Mark, RHHT</title>
    </polygon>
    <polygon
       points="8,22 8,40 4,40 4,22 0,18 4,18 4,4 0,0 12,0 8,4 8,18 12,18 "
       style="fill:#000000"
       id="polygon1665"
       transform="matrix(0.26458333,0,0,0.26458333,21.775208,3.2808331)">
      <title
         id="title1714">Down Vertical Head-to-Tail Mark, DVHT</title>
    </polygon>
    <polygon
       points="4,32 0,28 4,28 4,4 0,0 12,0 8,4 8,28 12,28 8,32 8,60 4,60 "
       style="fill:#000000"
       id="polygon1681"
       transform="matrix(0,-0.26458333,0.26458333,0,6.9585415,6.4558331)">
      <title
         id="title1679">Right Horizontal Head-to-Tail Mark, RHHT</title>
    </polygon>
    <circle
       style="fill:#000000;fill-rule:evenodd;stroke-width:0.264583"
       id="circle1425"
       cx="23.239792"
       cy="4.8871551"
       r="0.79374999">
      <title
         id="title1423">Northeast Corner Connector, NEC</title>
    </circle>
    <circle
       style="fill:#000000;fill-rule:evenodd;stroke-width:0.264583"
       id="circle1409-9"
       cx="23.254835"
       cy="11.696283"
       r="0.79374999">
      <title
         id="title1407-0">Right 2 Touch Connector, R2T</title>
    </circle>
    <g
       id="g1701"
       transform="matrix(0.26458333,0,0,0.26458333,28.556101,3.4490326)">
      <title
         id="title1697">Down Vertical Mark, DV</title>
      <polygon
         points="12,0 8,4 8,40 4,40 4,4 0,0 "
         style="fill:#000000"
         id="polygon1699" />
    </g>
    <circle
       style="fill:#000000;fill-rule:evenodd;stroke-width:0.264583"
       id="circle1409"
       cx="30.170023"
       cy="8.2737846"
       r="0.79374999">
      <title
         id="title1407">2  Cross Connector, 2C</title>
    </circle>
  </g>
</svg>
