<?xml version="1.0" encoding="UTF-8" standalone="no"?>
<svg
   xmlns:dc="http://purl.org/dc/elements/1.1/"
   xmlns:cc="http://creativecommons.org/ns#"
   xmlns:rdf="http://www.w3.org/1999/02/22-rdf-syntax-ns#"
   xmlns:svg="http://www.w3.org/2000/svg"
   xmlns="http://www.w3.org/2000/svg"
   width="160"
   height="80"
   viewBox="0 0 42.333332 21.166667"
   version="1.1"
   id="svg8">
  <defs
     id="defs2" />
  <metadata
     id="metadata5">
    <rdf:RDF>
      <cc:Work
         rdf:about="">
        <dc:format>image/svg+xml</dc:format>
        <dc:type
           rdf:resource="http://purl.org/dc/dcmitype/StillImage" />
        <dc:title></dc:title>
      </cc:Work>
    </rdf:RDF>
  </metadata>
  <g
     id="layer1">
    <g
       id="g1701"
       transform="matrix(0.26458333,0,0,0.26458333,21.775208,3.2808331)">
      <title
         id="title1697">Down Vertical Mark, DV</title>
      <polygon
         points="4,4 0,0 12,0 8,4 8,40 4,40 "
         style="fill:#000000"
         id="polygon1699" />
    </g>
    <g
       id="g1736"
       transform="matrix(0,-0.26458333,0.26458333,0,12.250208,6.4558331)">
      <title
         id="title1732">Right Horizontal Mark, RH</title>
      <polygon
         points="4,4 0,0 12,0 8,4 8,40 4,40 "
         style="fill:#000000"
         id="polygon1734" />
    </g>
    <g
       id="g1742"
       transform="matrix(0,-0.26458333,0.26458333,0,12.306904,13.467291)">
      <title
         id="title1738">Right Horizontal Mark, RH</title>
      <polygon
         points="4,40 4,4 0,0 12,0 8,4 8,40 "
         style="fill:#000000"
         id="polygon1740" />
    </g>
    <circle
       style="fill:#000000;fill-rule:evenodd;stroke-width:0.264583"
       id="circle1409-9"
       cx="23.360592"
       cy="11.838024"
       r="0.79374999">
      <title
         id="title1407-0">Right 2 Touch Connector, R2T</title>
    </circle>
    <g
       id="g1762"
       transform="matrix(0,-0.26458333,0.26458333,0,5.6356247,7.5141664)">
      <title
         id="title1758">Right Horizontal Mark, RH</title>
      <polygon
         points="0,0 12,0 8,4 8,25 4,25 4,4 "
         style="fill:#000000"
         id="polygon1760" />
    </g>
    <g
       id="g1779"
       transform="matrix(0,-0.26458333,0.26458333,0,5.6923207,12.408958)">
      <title
         id="title1775">Right Horizontal Mark, RH</title>
      <polygon
         points="12,0 8,4 8,25 4,25 4,4 0,0 "
         style="fill:#000000"
         id="polygon1777" />
    </g>
    <circle
       style="fill:#000000;fill-rule:evenodd;stroke-width:0.264583"
       id="circle1425"
       cx="23.381533"
       cy="4.9816489"
       r="0.79374999">
      <title
         id="title1423">Northeast Corner Connector, NEC</title>
    </circle>
    <circle
       style="fill:#000000;fill-rule:evenodd;stroke-width:0.264583"
       id="path839"
       cx="12.425968"
       cy="10.866816"
       r="0.79374999">
      <title
         id="title1801">Horizontal 2 Touch Connector, H2T</title>
    </circle>
    <circle
       style="fill:#000000;fill-rule:evenodd;stroke-width:0.264583"
       id="circle1797"
       cx="12.331474"
       cy="6.0476193"
       r="0.79374999">
      <title
         id="title1799">Horizontal 2 Touch Connector, H2T</title>
    </circle>
    <polygon
       points="0,6 6,0 6,12 "
       style="fill:#000000"
       id="polygon1835"
       transform="matrix(0.26458333,0,0,0.26458333,16.581702,6.8791666)">
      <title
         id="title1853">Heel Mark, HE</title>
    </polygon>
    <polygon
       points="6,0 6,12 0,6 "
       style="fill:#000000"
       id="polygon1849"
       transform="matrix(0.26458333,0,0,0.26458333,12.718898,6.8791666)">
      <title
         id="title1857">Heel Mark, HE</title>
    </polygon>
    <polygon
       points="0,6 6,0 6,12 "
       style="fill:#000000"
       id="polygon1851"
       transform="matrix(0.26458333,0,0,0.26458333,14.710833,6.8791666)">
      <title
         id="title1855">Heel Mark, HE</title>
    </polygon>
  </g>
</svg>
