<?xml version="1.0" encoding="UTF-8" standalone="no"?>
<svg
   xmlns:dc="http://purl.org/dc/elements/1.1/"
   xmlns:cc="http://creativecommons.org/ns#"
   xmlns:rdf="http://www.w3.org/1999/02/22-rdf-syntax-ns#"
   xmlns:svg="http://www.w3.org/2000/svg"
   xmlns="http://www.w3.org/2000/svg"
   width="160"
   height="80"
   viewBox="0 0 42.333332 21.166667"
   version="1.1"
   id="svg8">
  <defs
     id="defs2" />
  <metadata
     id="metadata5">
    <rdf:RDF>
      <cc:Work
         rdf:about="">
        <dc:format>image/svg+xml</dc:format>
        <dc:type
           rdf:resource="http://purl.org/dc/dcmitype/StillImage" />
        <dc:title></dc:title>
      </cc:Work>
    </rdf:RDF>
  </metadata>
  <g
     id="layer1">
    <g
       id="g1274"
       transform="matrix(0,-0.26458333,0.26458333,0,18.549182,13.954918)">
      <title
         id="title1270">Right Horizontal Mark, RH</title>
      <polygon
         points="8,4 8,50 4,50 4,4 0,0 12,0 "
         style="fill:#000000"
         id="polygon1272"
         transform="translate(0,-2.9999994)" />
    </g>
    <g
       id="g1533"
       transform="matrix(0,-0.26458333,0.26458333,0,18.549182,3.874256)">
      <title
         id="title1529">Right Horizontal Mark, RH</title>
      <polygon
         points="8,4 8,50 4,50 4,4 0,0 12,0 "
         style="fill:#000000"
         id="polygon1531"
         transform="translate(0,-2.9999994)" />
    </g>
    <polygon
       points="4,4 0,0 12,0 8,4 8,18 12,18 8,22 8,38 4,38 4,22 0,18 4,18 "
       style="fill:#000000"
       id="polygon1567"
       transform="matrix(0.26458333,0,0,0.26458333,34.499852,0.68315416)">
      <title
         id="title1597">Down Vertical Head-to-Tail Mark, DVHT</title>
    </polygon>
    <polygon
       points="4,39 0,35 4,35 4,4 0,0 12,0 8,4 8,35 12,35 8,39 8,74 4,74 "
       style="fill:#000000"
       id="polygon1613"
       transform="matrix(0.26458333,0,0,0.26458333,29.926265,0.69925604)">
      <title
         id="title1668">Down Vertical Head-to-Tail Mark, DVHT</title>
    </polygon>
    <polygon
       points="0,0 12,0 8,4 8,18 12,18 8,22 8,38 4,38 4,22 0,18 4,18 4,4 "
       style="fill:#000000"
       id="polygon1629"
       transform="matrix(0.26458333,0,0,0.26458333,34.499852,10.102321)">
      <title
         id="title1627">Down Vertical Head-to-Tail Mark, DVHT</title>
    </polygon>
    <g
       id="g1649"
       transform="matrix(0,-0.26458333,0.26458333,0,11.877902,18.927158)">
      <title
         id="title1645">Right Horizontal Mark, RH</title>
      <polygon
         points="4,4 0,0 12,0 8,4 8,72 4,72 "
         style="fill:#000000"
         id="polygon1647" />
    </g>
    <g
       id="g1666"
       transform="matrix(0,-0.26458333,0.26458333,0,11.925149,8.5801727)">
      <title
         id="title1662">Right Horizontal Mark, RH</title>
      <polygon
         points="12,0 8,4 8,72 4,72 4,4 0,0 "
         style="fill:#000000"
         id="polygon1664" />
    </g>
    <circle
       style="fill:#000000;fill-rule:evenodd;stroke-width:0.264583"
       id="circle1139"
       cx="31.230284"
       cy="2.2206111"
       r="0.79374999">
      <title
         id="title1151">Northeast Corner Connector, NEC</title>
    </circle>
    <circle
       style="fill:#000000;fill-rule:evenodd;stroke-width:0.264583"
       id="circle1505"
       cx="31.305914"
       cy="6.9453139"
       r="0.79374999">
      <title
         id="title1503">Right 2 Touch Connector, R2T</title>
    </circle>
    <circle
       style="fill:#000000;fill-rule:evenodd;stroke-width:0.264583"
       id="circle1133"
       cx="31.305916"
       cy="12.378721"
       r="0.79374999">
      <title
         id="title1143">Right 2 Touch Connector, R2T</title>
    </circle>
    <circle
       style="fill:#000000;fill-rule:evenodd;stroke-width:0.264583"
       id="circle1527"
       cx="31.353163"
       cy="17.245165"
       r="0.79374999">
      <title
         id="title1525">Right 2 Touch Connector, R2T</title>
    </circle>
    <circle
       style="fill:#000000;fill-rule:evenodd;stroke-width:0.264583"
       id="circle1296"
       cx="36.00412"
       cy="10.110866"
       r="0.79374999">
      <title
         id="title1294">Vertical 2 Touch Connector, V2T</title>
    </circle>
  </g>
</svg>
