<?xml version="1.0" encoding="UTF-8" standalone="no"?>
<svg
   xmlns:dc="http://purl.org/dc/elements/1.1/"
   xmlns:cc="http://creativecommons.org/ns#"
   xmlns:rdf="http://www.w3.org/1999/02/22-rdf-syntax-ns#"
   xmlns:svg="http://www.w3.org/2000/svg"
   xmlns="http://www.w3.org/2000/svg"
   width="160"
   height="80"
   viewBox="0 0 42.333332 21.166667"
   version="1.1"
   id="svg8">
  <defs
     id="defs2" />
  <metadata
     id="metadata5">
    <rdf:RDF>
      <cc:Work
         rdf:about="">
        <dc:format>image/svg+xml</dc:format>
        <dc:type
           rdf:resource="http://purl.org/dc/dcmitype/StillImage" />
        <dc:title></dc:title>
      </cc:Work>
    </rdf:RDF>
  </metadata>
  <g
     id="layer1">
    <g
       id="g1175"
       transform="matrix(0.26458334,0,0,0.26458334,7.3818749,8.0471161)">
      <title
         id="title1171">Down Vertical Mark, DV</title>
      <polygon
         points="4,25 4,4 0,0 12,0 8,4 8,25 "
         style="fill:#000000"
         id="polygon1173" />
    </g>
    <g
       id="g1228"
       transform="matrix(0.26458334,0,0,0.26458334,4.206875,8.0471161)">
      <title
         id="title1224">Down Vertical Mark, DV</title>
      <polygon
         points="12,0 8,4 8,25 4,25 4,4 0,0 "
         style="fill:#000000"
         id="polygon1226" />
    </g>
    <g
       id="g1386"
       transform="matrix(0.26458334,0,0,0.26458334,10.556875,8.0471161)">
      <title
         id="title1382">Down Vertical Mark, DV</title>
      <polygon
         points="12,0 8,4 8,25 4,25 4,4 0,0 "
         style="fill:#000000"
         id="polygon1384" />
    </g>
    <g
       id="g1400"
       transform="matrix(0,-0.26458333,0.26458333,0,1.3001625,14.119414)">
      <title
         id="title1396">Right Horizontal Mark, RH</title>
      <polygon
         points="12,0 8,4 8,55 4,55 4,4 0,0 "
         style="fill:#000000"
         id="polygon1398" />
    </g>
    <g
       id="g1406"
       transform="matrix(0,-0.26458333,0.26458333,0,1.3210646,8.166289)">
      <title
         id="title1402">Right Horizontal Mark, RH</title>
      <polygon
         points="4,55 4,4 0,0 12,0 8,4 8,55 "
         style="fill:#000000"
         id="polygon1404" />
    </g>
    <circle
       style="fill:#000000;fill-rule:evenodd;stroke-width:0.264583"
       id="circle1101"
       cx="5.7943368"
       cy="12.560149"
       r="0.79374999">
      <title
         id="title1105">2 Cross Connector, 2C</title>
    </circle>
    <circle
       style="fill:#000000;fill-rule:evenodd;stroke-width:0.264583"
       id="circle1196"
       cx="9.050602"
       cy="12.528021"
       r="0.79374999">
      <title
         id="title1194">2 Cross Connector, 2C</title>
    </circle>
    <circle
       style="fill:#000000;fill-rule:evenodd;stroke-width:0.264583"
       id="circle1390"
       cx="12.132922"
       cy="12.56956"
       r="0.79374999">
      <title
         id="title1388">2 Cross Connector, 2C</title>
    </circle>
    <polygon
       points="8,4 8,18 12,18 8,22 8,40 4,40 4,22 0,18 4,18 4,4 0,0 12,0 "
       style="fill:#000000"
       id="polygon1420"
       transform="matrix(0.26458333,0,0,0.26458333,14.788319,4.991289)">
      <title
         id="title1466">Down Vertical Head-to-Tail Mark, DVHT</title>
    </polygon>
    <polygon
       points="0,6 6,0 6,12 "
       style="fill:#000000"
       id="polygon1446"
       transform="matrix(0.26458333,0,0,0.26458333,17.727084,11.358185)">
      <title
         id="title1464">Heel Mark, HE</title>
    </polygon>
    <polygon
       points="0,6 6,0 6,12 "
       style="fill:#000000"
       id="polygon1460"
       transform="matrix(0.26458333,0,0,0.26458333,17.821578,6.3027532)">
      <title
         id="title1462">Heel Mark, HE</title>
    </polygon>
    <circle
       style="fill:#000000;fill-rule:evenodd;stroke-width:0.264583"
       id="circle1362"
       cx="15.969493"
       cy="12.567709"
       r="0.79374999">
      <title
         id="title1372">Right 2 Touch Connector, R2T</title>
    </circle>
    <circle
       style="fill:#000000;fill-rule:evenodd;stroke-width:0.264583"
       id="circle1356"
       cx="16.016739"
       cy="6.4728422"
       r="0.79374999">
      <title
         id="title1378">Northeast Corner Connector, NEC</title>
    </circle>
  </g>
</svg>
