<?xml version="1.0" encoding="UTF-8" standalone="no"?>
<svg
   xmlns:dc="http://purl.org/dc/elements/1.1/"
   xmlns:cc="http://creativecommons.org/ns#"
   xmlns:rdf="http://www.w3.org/1999/02/22-rdf-syntax-ns#"
   xmlns:svg="http://www.w3.org/2000/svg"
   xmlns="http://www.w3.org/2000/svg"
   width="160"
   height="80"
   viewBox="0 0 42.333332 21.166667"
   version="1.1"
   id="svg8">
  <defs
     id="defs2" />
  <metadata
     id="metadata5">
    <rdf:RDF>
      <cc:Work
         rdf:about="">
        <dc:format>image/svg+xml</dc:format>
        <dc:type
           rdf:resource="http://purl.org/dc/dcmitype/StillImage" />
        <dc:title></dc:title>
      </cc:Work>
    </rdf:RDF>
  </metadata>
  <g
     id="layer1">
    <g
       id="g1445"
       transform="matrix(0,-0.26458333,0.26458333,0,15.54427,14.650243)">
      <title
         id="title1441">Right Horizontal Mark, RH</title>
      <polygon
         points="4,4 0,0 12,0 8,4 8,40 4,40 "
         style="fill:#000000"
         id="polygon1443" />
    </g>
    <g
       id="g1751"
       transform="matrix(0,-0.26458333,0.26458333,0,15.54427,11.475243)">
      <title
         id="title1747">Right Horizontal Mark, RH</title>
      <polygon
         points="4,40 4,4 0,0 12,0 8,4 8,40 "
         style="fill:#000000"
         id="polygon1749" />
    </g>
    <g
       id="g1757"
       transform="matrix(0,-0.26458333,0.26458333,0,15.54427,8.300243)">
      <title
         id="title1753">Right Horizontal Mark, RH</title>
      <polygon
         points="12,0 8,4 8,40 4,40 4,4 0,0 "
         style="fill:#000000"
         id="polygon1755" />
    </g>
    <polygon
       points="0,6 6,0 6,12 "
       style="fill:#000000"
       id="polygon1771"
       transform="matrix(0.26458333,0,0,0.26458333,20.750893,10.602232)">
      <title
         id="title1787">Heel Overwrite Mark, OHE</title>
    </polygon>
    <polygon
       points="6,0 6,12 0,6 "
       style="fill:#000000"
       id="polygon1785"
       transform="matrix(0.26458333,0,0,0.26458333,18.341295,10.602232)">
      <title
         id="title1789">Heel Overwrite Mark, OHE</title>
    </polygon>
  </g>
</svg>
