<?xml version="1.0" encoding="UTF-8" standalone="no"?>
<svg
   xmlns:dc="http://purl.org/dc/elements/1.1/"
   xmlns:cc="http://creativecommons.org/ns#"
   xmlns:rdf="http://www.w3.org/1999/02/22-rdf-syntax-ns#"
   xmlns:svg="http://www.w3.org/2000/svg"
   xmlns="http://www.w3.org/2000/svg"
   width="160"
   height="80"
   viewBox="0 0 42.333332 21.166667"
   version="1.1"
   id="svg8">
  <defs
     id="defs2" />
  <metadata
     id="metadata5">
    <rdf:RDF>
      <cc:Work
         rdf:about="">
        <dc:format>image/svg+xml</dc:format>
        <dc:type
           rdf:resource="http://purl.org/dc/dcmitype/StillImage" />
        <dc:title></dc:title>
      </cc:Work>
    </rdf:RDF>
  </metadata>
  <g
     id="layer1">
    <polygon
       points="0,6 6,0 6,12 "
       style="fill:#000000"
       id="polygon1203"
       transform="matrix(0.26458333,0,0,0.26458333,9.9497887,8.2444545)">
      <title
         id="title1217">Heel Mark, HE</title>
    </polygon>
    <g
       id="g1386"
       transform="matrix(0.26458333,0,0,0.26458333,11.020293,4.9099868)">
      <title
         id="title1382">Down Vertical Mark, DV</title>
      <polygon
         points="12,0 8,4 8,40 4,40 4,4 0,0 "
         style="fill:#000000"
         id="polygon1384" />
    </g>
    <g
       id="g1542"
       transform="matrix(0,-0.26458333,0.26458333,0,13.142516,11.411177)">
      <title
         id="title1538">Right Horizontal Mark, RH</title>
      <polygon
         points="8,25 4,25 4,4 0,0 12,0 8,4 "
         style="fill:#000000"
         id="polygon1540" />
    </g>
    <circle
       style="fill:#000000;fill-rule:evenodd;stroke-width:0.264583"
       id="circle1478"
       cx="13.16818"
       cy="9.8888407"
       r="0.79374999">
      <title
         id="title1476">Left 2 Touch Connector, L2T</title>
    </circle>
    <g
       id="g1664"
       transform="matrix(0.26458333,0,0,0.26458333,18.666751,4.9099868)">
      <title
         id="title1660">Down Vertical Mark, DV</title>
      <polygon
         points="4,4 0,0 12,0 8,4 8,40 4,40 "
         style="fill:#000000"
         id="polygon1662" />
    </g>
    <g
       id="g1670"
       transform="matrix(0.26458333,0,0,0.26458333,29.870003,5.0517279)">
      <title
         id="title1666">Down Vertical Mark, DV</title>
      <polygon
         points="0,0 12,0 8,4 8,40 4,40 4,4 "
         style="fill:#000000"
         id="polygon1668" />
    </g>
    <g
       id="g1676"
       transform="matrix(0,-0.26458333,0.26458333,0,20.783418,6.3915774)">
      <title
         id="title1672">Right Horizontal Mark, RH</title>
      <polygon
         points="8,40 4,40 4,4 0,0 12,0 8,4 "
         style="fill:#000000"
         id="polygon1674" />
    </g>
    <g
       id="g1682"
       transform="matrix(0,-0.26458333,0.26458333,0,20.783418,16.81616)">
      <title
         id="title1678">Right Horizontal Mark, RH</title>
      <polygon
         points="8,4 8,40 4,40 4,4 0,0 12,0 "
         style="fill:#000000"
         id="polygon1680" />
    </g>
    <g
       id="g1688"
       transform="matrix(0.26458333,0,0,0.26458333,24.436595,5.240716)">
      <title
         id="title1684">Down Vertical Mark, DV</title>
      <polygon
         points="8,40 4,40 4,4 0,0 12,0 8,4 "
         style="fill:#000000"
         id="polygon1686" />
    </g>
    <g
       id="g1694"
       transform="matrix(0,-0.26458333,0.26458333,0,20.736171,11.473467)">
      <title
         id="title1690">Right Horizontal Mark, RH</title>
      <polygon
         points="4,40 4,4 0,0 12,0 8,4 8,40 "
         style="fill:#000000"
         id="polygon1692" />
    </g>
    <circle
       style="fill:#000000;fill-rule:evenodd;stroke-width:0.264583"
       id="circle1577"
       cx="21.118795"
       cy="5.001533"
       r="0.79374999">
      <title
         id="title1585">Northwest Corner Connector, NWC</title>
    </circle>
    <circle
       style="fill:#000000;fill-rule:evenodd;stroke-width:0.264583"
       id="path839"
       cx="20.837317"
       cy="15.112397"
       r="0.79374999">
      <title
         id="title1591">Southwest Corner Connector, SWC</title>
    </circle>
    <circle
       style="fill:#000000;fill-rule:evenodd;stroke-width:0.264583"
       id="circle1698"
       cx="31.467897"
       cy="15.348633"
       r="0.79374999">
      <title
         id="title1696">Southeast Corner Connector, SEC</title>
    </circle>
    <circle
       style="fill:#000000;fill-rule:evenodd;stroke-width:0.264583"
       id="circle1702"
       cx="31.326157"
       cy="5.0487814"
       r="0.79374999">
      <title
         id="title1700">Northeast Corner Connector, NEC</title>
    </circle>
    <circle
       style="fill:#000000;fill-rule:evenodd;stroke-width:0.264583"
       id="circle1706"
       cx="26.081738"
       cy="9.8679781"
       r="0.79374999">
      <title
         id="title1704">2 Cross Connector, 2C</title>
    </circle>
    <circle
       style="fill:#000000;fill-rule:evenodd;stroke-width:0.264583"
       id="circle1710"
       cx="26.128984"
       cy="5.2377696"
       r="0.79374999">
      <title
         id="title1708">Top 2 Touch Connector, T2T</title>
    </circle>
    <circle
       style="fill:#000000;fill-rule:evenodd;stroke-width:0.264583"
       id="circle1714"
       cx="26.081738"
       cy="15.112398"
       r="0.79374999">
      <title
         id="title1712">Bottom 2 Touch Connector, B2T</title>
    </circle>
    <circle
       style="fill:#000000;fill-rule:evenodd;stroke-width:0.264583"
       id="circle1718"
       cx="20.295126"
       cy="9.8679781"
       r="0.79374999">
      <title
         id="title1716">3 Touch Connector, 3T</title>
    </circle>
    <circle
       style="fill:#000000;fill-rule:evenodd;stroke-width:0.264583"
       id="circle1722"
       cx="31.042675"
       cy="9.867979"
       r="0.79374999">
      <title
         id="title1720">Right 2 Touch Connector, R2T</title>
    </circle>
  </g>
</svg>
