<?xml version="1.0" encoding="UTF-8" standalone="no"?>
<svg
   xmlns:dc="http://purl.org/dc/elements/1.1/"
   xmlns:cc="http://creativecommons.org/ns#"
   xmlns:rdf="http://www.w3.org/1999/02/22-rdf-syntax-ns#"
   xmlns:svg="http://www.w3.org/2000/svg"
   xmlns="http://www.w3.org/2000/svg"
   width="160"
   height="80"
   viewBox="0 0 42.333332 21.166667"
   version="1.1"
   id="svg8">
  <defs
     id="defs2" />
  <metadata
     id="metadata5">
    <rdf:RDF>
      <cc:Work
         rdf:about="">
        <dc:format>image/svg+xml</dc:format>
        <dc:type
           rdf:resource="http://purl.org/dc/dcmitype/StillImage" />
        <dc:title></dc:title>
      </cc:Work>
    </rdf:RDF>
  </metadata>
  <g
     id="layer1">
    <polygon
       points="0,35 4,30 4,4 0,0 12,0 8,4 8,30 12,35 "
       style="fill:#000000"
       id="polygon851"
       transform="matrix(0,-0.26458333,0.26458333,0,15.984594,10.241265)">
      <title
         id="title971">Right Horizontal Barbell Mark, RHBB</title>
    </polygon>
    <polygon
       points="0,18 4,18 4,4 0,0 12,0 8,4 8,18 12,18 8,22 8,40 4,40 4,22 "
       style="fill:#000000"
       id="polygon877"
       transform="matrix(0,-0.26458333,0.26458333,0,16.011052,14.395223)">
      <title
         id="title973">Right Horizontal Head-to-Tail Mark, RHHT</title>
    </polygon>
    <g
       id="g940"
       transform="matrix(0.26458333,0,0,0.26458333,25.53609,8.3362648)">
      <title
         id="title936">Down Vertical Mark, DV</title>
      <polygon
         points="4,4 0,0 12,0 8,4 8,25 4,25 "
         style="fill:#000000"
         id="polygon938" />
    </g>
    <circle
       style="fill:#000000;fill-rule:evenodd;stroke-width:0.264583"
       id="path839"
       cx="26.717266"
       cy="12.813316"
       r="0.79374999">
      <title
         id="title977">Right 2 Touch Connector, R2T</title>
    </circle>
  </g>
</svg>
