<?xml version="1.0" encoding="UTF-8" standalone="no"?>
<svg
   xmlns:dc="http://purl.org/dc/elements/1.1/"
   xmlns:cc="http://creativecommons.org/ns#"
   xmlns:rdf="http://www.w3.org/1999/02/22-rdf-syntax-ns#"
   xmlns:svg="http://www.w3.org/2000/svg"
   xmlns="http://www.w3.org/2000/svg"
   width="160"
   height="80"
   viewBox="0 0 42.333332 21.166667"
   version="1.1"
   id="svg8">
  <defs
     id="defs2" />
  <metadata
     id="metadata5">
    <rdf:RDF>
      <cc:Work
         rdf:about="">
        <dc:format>image/svg+xml</dc:format>
        <dc:type
           rdf:resource="http://purl.org/dc/dcmitype/StillImage" />
        <dc:title></dc:title>
      </cc:Work>
    </rdf:RDF>
  </metadata>
  <g
     id="layer1">
    <g
       id="g874"
       transform="matrix(0,-0.26458333,0.26458333,0,17.802679,4.3278275)">
      <title
         id="title870">Right Horizontal Mark, RH</title>
      <polygon
         points="4,4 0,0 12,0 8,4 8,40 4,40 "
         style="fill:#000000"
         id="polygon872" />
    </g>
    <g
       id="g880"
       transform="matrix(0,-0.26458333,0.26458333,0,17.755431,8.6651036)">
      <title
         id="title876">Right Horizontal Mark, RH</title>
      <polygon
         points="12,0 8,4 8,40 4,40 4,4 0,0 "
         style="fill:#000000"
         id="polygon878" />
    </g>
    <g
       id="g886"
       transform="matrix(0,-0.26458333,0.26458333,0,17.755431,12.832291)">
      <title
         id="title882">Right Horizontal Mark, RH</title>
      <polygon
         points="4,40 4,4 0,0 12,0 8,4 8,40 "
         style="fill:#000000"
         id="polygon884" />
    </g>
    <g
       id="g892"
       transform="matrix(0,-0.26458333,0.26458333,0,17.698735,16.99003)">
      <title
         id="title888">Right Horizontal Mark, RH</title>
      <polygon
         points="4,40 4,4 0,0 12,0 8,4 8,40 "
         style="fill:#000000"
         id="polygon890" />
    </g>
    <g
       id="g918"
       transform="matrix(0.26458333,0,0,0.26458333,27.327679,1.1528275)">
      <title
         id="title914">Down Vertical Mark, DV</title>
      <polygon
         points="8,72 4,72 4,4 0,0 12,0 8,4 "
         style="fill:#000000"
         id="polygon916" />
    </g>
    <g
       id="g935"
       transform="matrix(0.26458333,0,0,0.26458333,10.059723,1.0583335)">
      <title
         id="title931">Down Vertical Mark, DV</title>
      <polygon
         points="4,4 0,0 12,0 8,4 8,72 4,72 "
         style="fill:#000000"
         id="polygon933" />
    </g>
    <polygon
       points="0,40 4,35 4,4 0,0 12,0 8,4 8,35 12,40 "
       style="fill:#000000"
       id="polygon949"
       transform="matrix(0,-0.26458333,0.26458333,0,6.0948655,11.178645)">
      <title
         id="title991">Right Horizontal Barbell, RHBB</title>
    </polygon>
    <polygon
       points="0,6 6,0 6,12 "
       style="fill:#000000"
       id="polygon975"
       transform="matrix(0.26458333,0,0,0.26458333,14.325298,0.16063972)">
      <title
         id="title989">Heel Mark, HE</title>
    </polygon>
    <circle
       style="fill:#000000;fill-rule:evenodd;stroke-width:0.264583"
       id="path839"
       cx="28.631699"
       cy="15.355283"
       r="0.79374999">
      <title
         id="title1017">Right 2 Touch Connector, R2T</title>
    </circle>
    <circle
       style="fill:#000000;fill-rule:evenodd;stroke-width:0.264583"
       id="circle1009"
       cx="28.678946"
       cy="11.150298"
       r="0.79374999">
      <title
         id="title1021">Right 2 Touch Connector, R2T</title>
    </circle>
    <circle
       style="fill:#000000;fill-rule:evenodd;stroke-width:0.264583"
       id="circle1011"
       cx="28.584452"
       cy="6.9925599"
       r="0.79374999">
      <title
         id="title1019">Right 2 Touch Connector, R2T</title>
    </circle>
    <circle
       style="fill:#000000;fill-rule:evenodd;stroke-width:0.264583"
       id="circle1013"
       cx="28.773439"
       cy="2.8348219"
       r="0.79374999">
      <title
         id="title1023">Northeast Corner Connector, NEC</title>
    </circle>
    <circle
       style="fill:#000000;fill-rule:evenodd;stroke-width:0.264583"
       id="circle1015"
       cx="11.670017"
       cy="9.6383934"
       r="0.79374999">
      <title
         id="title1025">2 Cross Connector, 2C</title>
    </circle>
  </g>
</svg>
