<?xml version="1.0" encoding="UTF-8" standalone="no"?>
<svg
   xmlns:dc="http://purl.org/dc/elements/1.1/"
   xmlns:cc="http://creativecommons.org/ns#"
   xmlns:rdf="http://www.w3.org/1999/02/22-rdf-syntax-ns#"
   xmlns:svg="http://www.w3.org/2000/svg"
   xmlns="http://www.w3.org/2000/svg"
   width="160"
   height="80"
   viewBox="0 0 42.333332 21.166667"
   version="1.1"
   id="svg8">
  <defs
     id="defs2" />
  <metadata
     id="metadata5">
    <rdf:RDF>
      <cc:Work
         rdf:about="">
        <dc:format>image/svg+xml</dc:format>
        <dc:type
           rdf:resource="http://purl.org/dc/dcmitype/StillImage" />
        <dc:title></dc:title>
      </cc:Work>
    </rdf:RDF>
  </metadata>
  <g
     id="layer1">
    <polygon
       points="4,18 4,4 0,0 12,0 8,4 8,18 12,18 8,22 8,40 4,40 4,22 0,18 "
       style="fill:#000000"
       id="polygon28"
       transform="matrix(0.26458333,0,0,0.26458333,26.603816,5.2718227)">
      <title
         id="title134">Down Vertical Head-to-Tail Mark, DVHT</title>
    </polygon>
    <g
       id="g60"
       transform="matrix(0,-0.26458333,0.26458333,0,18.137149,8.4468227)">
      <title
         id="title56">Right Horizontal Mark, RH</title>
      <polygon
         points="8,40 4,40 4,4 0,0 12,0 8,4 "
         style="fill:#000000"
         id="polygon58" />
    </g>
    <g
       id="g77"
       transform="matrix(0,-0.26458333,0.26458333,0,18.137149,11.621823)">
      <title
         id="title73">Right Horizontal Mark, RH</title>
      <polygon
         points="4,40 4,4 0,0 12,0 8,4 8,40 "
         style="fill:#000000"
         id="polygon75" />
    </g>
    <g
       id="g97"
       transform="matrix(0.26458333,0,0,0.26458333,22.540572,7.3034456)">
      <title
         id="title93">Down Vertical Mark, DV</title>
      <polygon
         points="8,4 8,25 4,25 4,4 0,0 12,0 "
         style="fill:#000000"
         id="polygon95" />
    </g>
    <g
       id="g114"
       transform="matrix(0.26458333,0,0,0.26458333,18.137149,9.5051561)">
      <title
         id="title110">Down Vertical Mark, DV</title>
      <polygon
         points="4,25 4,4 0,0 12,0 8,4 8,25 "
         style="fill:#000000"
         id="polygon112" />
    </g>
    <g
       id="g120"
       transform="matrix(0,-0.26458333,0.26458333,0,12.599798,15.741765)">
      <title
         id="title116">Right Horizontal Mark, RH</title>
      <polygon
         points="4,25 4,4 0,0 12,0 8,4 8,25 "
         style="fill:#000000"
         id="polygon118" />
    </g>
    <g
       id="g126"
       transform="matrix(0,-0.26458333,0.26458333,0,12.554517,12.25671)">
      <title
         id="title122">Right Horizontal Mark, RH</title>
      <polygon
         points="4,4 0,0 12,0 8,4 8,25 4,25 "
         style="fill:#000000"
         id="polygon124" />
    </g>
    <g
       id="g154"
       transform="matrix(0.26458333,0,0,0.26458333,23.334322,9.2500227)">
      <title
         id="title150">2 Cross Connector, 2C</title>
      <circle
         cx="3"
         cy="3"
         r="3"
         style="fill:#000000"
         id="circle152" />
    </g>
    <g
       id="g171"
       transform="matrix(0.26458333,0,0,0.26458333,23.334322,6.4624483)">
      <title
         id="title167">Top 2 Touch Connector, T2T</title>
      <circle
         cx="3"
         cy="3"
         r="3"
         style="fill:#000000"
         id="circle169" />
    </g>
    <g
       id="g177"
       transform="matrix(0.26458333,0,0,0.26458333,18.845855,13.360514)">
      <title
         id="title173">Right 2 Touch Connector, R2T</title>
      <circle
         cx="3"
         cy="3"
         r="3"
         style="fill:#000000"
         id="circle175" />
    </g>
    <g
       id="g183"
       transform="matrix(0.26458333,0,0,0.26458333,18.845855,9.7224929)">
      <title
         id="title179">3 Touch Connector, 3T</title>
      <circle
         cx="3"
         cy="3"
         r="3"
         style="fill:#000000"
         id="circle181" />
    </g>
    <g
       id="g195"
       transform="matrix(0.26458333,0,0,0.26458333,27.303072,9.2972696)">
      <title
         id="title191">Right 2 Touch Connector, R2T</title>
      <circle
         cx="3"
         cy="3"
         r="3"
         style="fill:#000000"
         id="circle193" />
    </g>
    <g
       id="g201"
       transform="matrix(0.26458333,0,0,0.26458333,27.255825,6.178966)">
      <title
         id="title197">Northeast Corner Connector, NEC</title>
      <circle
         cx="3"
         cy="3"
         r="3"
         style="fill:#000000"
         id="circle199" />
    </g>
    <g
       id="g207"
       transform="matrix(0.26458333,0,0,0.26458333,12.864381,5.6894868)">
      <title
         id="title203">Down Vertical Mark, DV</title>
      <polygon
         points="4,40 4,4 0,0 12,0 8,4 8,40 "
         style="fill:#000000"
         id="polygon205" />
    </g>
    <g
       id="g189"
       transform="matrix(0.26458333,0,0,0.26458333,13.601436,9.6752459)">
      <title
         id="title185">2 Cross Connector, 2C</title>
      <circle
         cx="3"
         cy="3"
         r="3"
         style="fill:#000000"
         id="circle187" />
    </g>
    <g
       id="g213"
       transform="matrix(0.26458333,0,0,0.26458333,13.648683,13.313267)">
      <title
         id="title209">2 Cross Connector, 2C</title>
      <circle
         cx="3"
         cy="3"
         r="3"
         style="fill:#000000"
         id="circle211" />
    </g>
  </g>
</svg>
