<?xml version="1.0" encoding="UTF-8" standalone="no"?>
<svg
   xmlns:dc="http://purl.org/dc/elements/1.1/"
   xmlns:cc="http://creativecommons.org/ns#"
   xmlns:rdf="http://www.w3.org/1999/02/22-rdf-syntax-ns#"
   xmlns:svg="http://www.w3.org/2000/svg"
   xmlns="http://www.w3.org/2000/svg"
   xmlns:sodipodi="http://sodipodi.sourceforge.net/DTD/sodipodi-0.dtd"
   xmlns:inkscape="http://www.inkscape.org/namespaces/inkscape"
   width="160"
   height="80"
   viewBox="0 0 42.333332 21.166667"
   version="1.1"
   id="svg8"
   inkscape:version="1.0.2-2 (e86c870879, 2021-01-15)"
   sodipodi:docname="cdli114.svg">
  <defs
     id="defs2" />
  <sodipodi:namedview
     id="base"
     pagecolor="#ffffff"
     bordercolor="#666666"
     borderopacity="1.0"
     inkscape:pageopacity="0.0"
     inkscape:pageshadow="2"
     inkscape:zoom="5.6"
     inkscape:cx="79.870825"
     inkscape:cy="43.604089"
     inkscape:document-units="px"
     inkscape:current-layer="layer1"
     inkscape:document-rotation="0"
     showgrid="false"
     units="px"
     inkscape:window-width="1755"
     inkscape:window-height="1020"
     inkscape:window-x="183"
     inkscape:window-y="13"
     inkscape:window-maximized="0" />
  <metadata
     id="metadata5">
    <rdf:RDF>
      <cc:Work
         rdf:about="">
        <dc:format>image/svg+xml</dc:format>
        <dc:type
           rdf:resource="http://purl.org/dc/dcmitype/StillImage" />
        <dc:title></dc:title>
      </cc:Work>
    </rdf:RDF>
  </metadata>
  <g
     inkscape:label="Layer 1"
     inkscape:groupmode="layer"
     id="layer1">
    <g
       id="g894"
       transform="matrix(0.26458333,0,0,0.26458333,14.816665,4.091592)">
      <title
         id="title890">Down Vertical Mark, DV</title>
      <polygon
         points="4,40 4,4 0,0 12,0 8,4 8,40 "
         style="fill:#000000"
         id="polygon892" />
    </g>
    <g
       id="g982"
       transform="matrix(0,-0.26458333,0.26458333,0,5.2916651,6.2082586)">
      <title
         id="title978">Right Horizontal Mark, RH</title>
      <polygon
         points="8,4 8,40 4,40 4,4 0,0 12,0 "
         style="fill:#000000"
         id="polygon980" />
    </g>
    <circle
       style="fill:#000000;fill-rule:evenodd;stroke-width:0.264583"
       id="circle956"
       cx="16.319118"
       cy="4.5735116"
       r="0.79374999">
      <title
         id="title976">Northeast Corner Connector, NEC</title>
    </circle>
    <g
       id="g989"
       transform="matrix(0,-0.26458333,0.26458333,0,5.2822931,12.686771)">
      <title
         id="title985">Right Horizontal Mark, RH</title>
      <polygon
         points="4,4 0,0 12,0 8,4 8,40 4,40 "
         style="fill:#000000"
         id="polygon987" />
    </g>
    <g
       id="g1288"
       transform="matrix(0.26458333,0,0,0.26458333,25.022022,4.1330562)">
      <title
         id="title1284">Down Vertical Mark, DV</title>
      <polygon
         points="4,4 0,0 12,0 8,4 8,40 4,40 "
         style="fill:#000000"
         id="polygon1286" />
    </g>
    <g
       id="g1308"
       transform="matrix(0,-0.26458333,0.26458333,0,27.138689,14.451806)">
      <title
         id="title1304">Right Horizontal Mark, RH</title>
      <polygon
         points="4,4 0,0 12,0 8,4 8,25 4,25 "
         style="fill:#000000"
         id="polygon1306" />
    </g>
    <g
       id="g1325"
       transform="matrix(0,-0.26458333,0.26458333,0,19.359827,6.3027526)">
      <title
         id="title1321">Right Horizontal Mark, RH</title>
      <polygon
         points="4,4 0,0 12,0 8,4 8,25 4,25 "
         style="fill:#000000"
         id="polygon1323" />
    </g>
    <g
       id="g1331"
       transform="matrix(0,-0.26458333,0.26458333,0,19.439202,9.4777526)">
      <title
         id="title1327">Right Horizontal Mark, RH</title>
      <polygon
         points="12,0 8,4 8,25 4,25 4,4 0,0 "
         style="fill:#000000"
         id="polygon1329" />
    </g>
    <g
       id="g1337"
       transform="matrix(0,-0.26458333,0.26458333,0,19.46566,12.705556)">
      <title
         id="title1333">Right Horizontal Mark, RH</title>
      <polygon
         points="12,0 8,4 8,25 4,25 4,4 0,0 "
         style="fill:#000000"
         id="polygon1335" />
    </g>
    <g
       id="g1343"
       transform="matrix(0,-0.26458333,0.26458333,0,15.90331,15.799405)">
      <title
         id="title1339">Right Horizontal Mark, RH</title>
      <polygon
         points="4,4 0,0 12,0 8,4 8,40 4,40 "
         style="fill:#000000"
         id="polygon1341" />
    </g>
    <circle
       style="fill:#000000;fill-rule:evenodd;stroke-width:0.264583"
       id="circle958"
       cx="16.366367"
       cy="11.241087"
       r="0.79374999">
      <title
         id="title966">Right 2 Touch Connector, R2T</title>
    </circle>
    <g
       id="g1349"
       transform="matrix(0,-0.26458333,0.26458333,0,27.138689,11.170973)">
      <title
         id="title1345">Right Horizontal Mark, RH</title>
      <polygon
         points="8,25 4,25 4,4 0,0 12,0 8,4 "
         style="fill:#000000"
         id="polygon1347" />
    </g>
    <g
       id="g1355"
       transform="matrix(0.26458333,0,0,0.26458333,32.694939,7.8107645)">
      <title
         id="title1351">Down Vertical Mark, DV</title>
      <polygon
         points="4,4 0,0 12,0 8,4 8,25 4,25 "
         style="fill:#000000"
         id="polygon1353" />
    </g>
    <circle
       style="fill:#000000;fill-rule:evenodd;stroke-width:0.264583"
       id="path839"
       cx="34.254093"
       cy="12.896585"
       r="0.79374999">
      <title
         id="title1391">Right 2 Touch Connector, R2T</title>
    </circle>
    <circle
       style="fill:#000000;fill-rule:evenodd;stroke-width:0.264583"
       id="circle1373"
       cx="34.301338"
       cy="9.6951265"
       r="0.79374999">
      <title
         id="title1389">Right 2 Touch Connector, R2T</title>
    </circle>
    <circle
       style="fill:#000000;fill-rule:evenodd;stroke-width:0.264583"
       id="circle1375"
       cx="26.600075"
       cy="4.7719498"
       r="0.79374999">
      <title
         id="title1397">Northeast Corner Connector, NEC</title>
    </circle>
    <circle
       style="fill:#000000;fill-rule:evenodd;stroke-width:0.264583"
       id="circle1377"
       cx="26.329741"
       cy="7.8430061"
       r="0.79374999">
      <title
         id="title1393">Right 2 Touch Connector, R2T</title>
    </circle>
    <circle
       style="fill:#000000;fill-rule:evenodd;stroke-width:0.264583"
       id="circle1379"
       cx="27.22192"
       cy="9.4739351"
       r="0.79374999">
      <title
         id="title1401">Left 2 Touch Connector, L2T</title>
    </circle>
    <circle
       style="fill:#000000;fill-rule:evenodd;stroke-width:0.264583"
       id="circle1381"
       cx="26.371279"
       cy="11.087893"
       r="0.79374999">
      <title
         id="title1395">Right 2 Touch Connector, R2T</title>
    </circle>
    <circle
       style="fill:#000000;fill-rule:evenodd;stroke-width:0.264583"
       id="circle1383"
       cx="27.407137"
       cy="12.777523"
       r="0.79374999">
      <title
         id="title1403">Left 2 Touch Connector, L2T</title>
    </circle>
    <circle
       style="fill:#000000;fill-rule:evenodd;stroke-width:0.264583"
       id="circle1385"
       cx="26.380804"
       cy="14.406563"
       r="0.79374999">
      <title
         id="title1399">Southeast Corner Connector, SEC</title>
    </circle>
    <circle
       style="fill:#000000;fill-rule:evenodd;stroke-width:0.264583"
       id="circle1387"
       cx="16.441965"
       cy="14.221355"
       r="0.79374999">
      <title
         id="title1405">Southwest Corner Connector, SWC</title>
    </circle>
  </g>
</svg>
