<?xml version="1.0" encoding="UTF-8" standalone="no"?>
<svg
   xmlns:dc="http://purl.org/dc/elements/1.1/"
   xmlns:cc="http://creativecommons.org/ns#"
   xmlns:rdf="http://www.w3.org/1999/02/22-rdf-syntax-ns#"
   xmlns:svg="http://www.w3.org/2000/svg"
   xmlns="http://www.w3.org/2000/svg"
   width="160"
   height="80"
   viewBox="0 0 42.333332 21.166667"
   version="1.1"
   id="svg8">
  <defs
     id="defs2" />
  <metadata
     id="metadata5">
    <rdf:RDF>
      <cc:Work
         rdf:about="">
        <dc:format>image/svg+xml</dc:format>
        <dc:type
           rdf:resource="http://purl.org/dc/dcmitype/StillImage" />
        <dc:title></dc:title>
      </cc:Work>
    </rdf:RDF>
  </metadata>
  <g
     id="layer1">
    <g
       id="g857"
       transform="matrix(0.26458333,0,0,0.26458333,20.439062,5.3389138)">
      <title
         id="title853">Down Vertical Mark, DV</title>
      <polygon
         points="4,4 0,0 12,0 8,4 8,40 4,40 "
         style="fill:#000000"
         id="polygon855" />
    </g>
    <g
       id="g874"
       transform="matrix(0.26458333,0,0,0.26458333,15.421428,5.3389138)">
      <title
         id="title870">Down Vertical Mark, DV</title>
      <polygon
         points="4,4 0,0 12,0 8,4 8,40 4,40 "
         style="fill:#000000"
         id="polygon872" />
    </g>
    <g
       id="g1003"
       transform="matrix(0,-0.26458333,0.26458333,0,12.066891,12.407069)">
      <title
         id="title999">Right Horizontal Mark, RH</title>
      <polygon
         points="4,72 4,4 0,0 12,0 8,4 8,72 "
         style="fill:#000000"
         id="polygon1001" />
    </g>
    <circle
       style="fill:#000000;fill-rule:evenodd;stroke-width:0.264583"
       id="circle1036"
       cx="22.064362"
       cy="10.677828"
       r="0.79374999">
      <title
         id="title1034"> 2 Cross Connector, 2C</title>
    </circle>
    <circle
       style="fill:#000000;fill-rule:evenodd;stroke-width:0.264583"
       id="circle983"
       cx="16.867189"
       cy="10.725075"
       r="0.79374999">
      <title
         id="title981"> 2 Cross Connector, 2C</title>
    </circle>
    <polygon
       points="6,0 6,12 0,6 "
       style="fill:#000000"
       id="polygon1050"
       transform="matrix(0.26458333,0,0,0.26458333,24.010937,11.594419)">
      <title
         id="title1072">Heel Mark, HE</title>
    </polygon>
    <polygon
       points="6,12 0,6 6,0 "
       style="fill:#000000"
       id="polygon1064"
       transform="matrix(0.26458333,0,0,0.26458333,23.963691,6.6807287)">
      <title
         id="title1074">Heel Mark, HE</title>
    </polygon>
    <polygon
       points="0,6 6,0 6,12 "
       style="fill:#000000"
       id="polygon1066"
       transform="matrix(0.26458333,0,0,0.26458333,27.970239,6.5238312)">
      <title
         id="title1076">Heel Mark, HE</title>
    </polygon>
    <polygon
       points="0,6 6,0 6,12 "
       style="fill:#000000"
       id="polygon1068"
       transform="matrix(0.26458333,0,0,0.26458333,27.970162,11.547172)">
      <title
         id="title1070">Heel Mark, HE</title>
    </polygon>
  </g>
</svg>
