<?xml version="1.0" encoding="UTF-8" standalone="no"?>
<svg
   xmlns:dc="http://purl.org/dc/elements/1.1/"
   xmlns:cc="http://creativecommons.org/ns#"
   xmlns:rdf="http://www.w3.org/1999/02/22-rdf-syntax-ns#"
   xmlns:svg="http://www.w3.org/2000/svg"
   xmlns="http://www.w3.org/2000/svg"
   xmlns:sodipodi="http://sodipodi.sourceforge.net/DTD/sodipodi-0.dtd"
   xmlns:inkscape="http://www.inkscape.org/namespaces/inkscape"
   width="160"
   height="80"
   viewBox="0 0 42.333332 21.166667"
   version="1.1"
   id="svg8"
   inkscape:version="1.0.2-2 (e86c870879, 2021-01-15)"
   sodipodi:docname="cdli146w.svg">
  <defs
     id="defs2" />
  <sodipodi:namedview
     id="base"
     pagecolor="#ffffff"
     bordercolor="#666666"
     borderopacity="1.0"
     inkscape:pageopacity="0.0"
     inkscape:pageshadow="2"
     inkscape:zoom="5.6"
     inkscape:cx="77.637639"
     inkscape:cy="45.605919"
     inkscape:document-units="px"
     inkscape:current-layer="layer1"
     inkscape:document-rotation="0"
     showgrid="false"
     units="px"
     inkscape:window-width="1755"
     inkscape:window-height="1020"
     inkscape:window-x="176"
     inkscape:window-y="5"
     inkscape:window-maximized="0" />
  <metadata
     id="metadata5">
    <rdf:RDF>
      <cc:Work
         rdf:about="">
        <dc:format>image/svg+xml</dc:format>
        <dc:type
           rdf:resource="http://purl.org/dc/dcmitype/StillImage" />
        <dc:title></dc:title>
      </cc:Work>
    </rdf:RDF>
  </metadata>
  <g
     inkscape:label="Layer 1"
     inkscape:groupmode="layer"
     id="layer1">
    <g
       id="g1183"
       transform="matrix(0,-0.26458333,0.26458333,0,9.7517478,6.057068)">
      <title
         id="title1179">Right Horizontal Mark, RH</title>
      <polygon
         points="12,0 8,4 8,40 4,40 4,4 0,0 "
         style="fill:#000000"
         id="polygon1181" />
    </g>
    <g
       id="g1274"
       transform="matrix(0,-0.26458333,0.26458333,0,11.048206,15.582068)">
      <title
         id="title1270">Right Horizontal Mark, RH</title>
      <polygon
         points="0,0 12,0 8,4 8,50 4,50 4,4 "
         style="fill:#000000"
         id="polygon1272"
         transform="translate(0,-2.9999994)" />
    </g>
    <g
       id="g1306"
       transform="matrix(0,-0.26458333,0.26458333,0,11.074664,9.232068)">
      <title
         id="title1302">Right Horizontal Mark, RH</title>
      <polygon
         points="0,0 12,0 8,4 8,40 4,40 4,4 "
         style="fill:#000000"
         id="polygon1304" />
    </g>
    <g
       id="g1312"
       transform="matrix(0,-0.26458333,0.26458333,0,11.048206,12.407068)">
      <title
         id="title1308">Right Horizontal Mark, RH</title>
      <polygon
         points="8,40 4,40 4,4 0,0 12,0 8,4 "
         style="fill:#000000"
         id="polygon1310" />
    </g>
    <g
       id="g1478"
       transform="matrix(0.26458333,0,0,0.26458333,20.677187,4.1104911)">
      <title
         id="title1474">Down Vertical Mark, DV</title>
      <polygon
         points="4,25 4,4 0,0 12,0 8,4 8,25 "
         style="fill:#000000"
         id="polygon1476" />
    </g>
    <g
       id="g1495"
       transform="matrix(0.26458333,0,0,0.26458333,24.063854,4.1105666)">
      <title
         id="title1491">Down Vertical Mark, DV</title>
      <polygon
         points="4,4 0,0 12,0 8,4 8,25 4,25 "
         style="fill:#000000"
         id="polygon1493" />
    </g>
    <g
       id="g1501"
       transform="matrix(0.26458333,0,0,0.26458333,22.317604,10.725074)">
      <title
         id="title1497">Down Vertical Mark, DV</title>
      <polygon
         points="4,4 0,0 12,0 8,4 8,25 4,25 "
         style="fill:#000000"
         id="polygon1499" />
    </g>
    <circle
       style="fill:#000000;fill-rule:evenodd;stroke-width:0.264583"
       id="circle1139"
       cx="21.072172"
       cy="4.6302094"
       r="0.79374999">
      <title
         id="title1151">Northeast Corner Connector, NEC</title>
    </circle>
    <circle
       style="fill:#000000;fill-rule:evenodd;stroke-width:0.264583"
       id="circle1133"
       cx="21.006063"
       cy="7.6540189"
       r="0.79374999">
      <title
         id="title1143">Right 2 Touch Connector, R2T</title>
    </circle>
    <circle
       style="fill:#000000;fill-rule:evenodd;stroke-width:0.264583"
       id="circle1296"
       cx="21.074062"
       cy="10.866817"
       r="0.79374999">
      <title
         id="title1294">Right 2 Touch Connector, R2T</title>
    </circle>
    <circle
       style="fill:#000000;fill-rule:evenodd;stroke-width:0.264583"
       id="circle1300"
       cx="23.861635"
       cy="10.67783"
       r="0.79374999">
      <title
         id="title1298">Vertical 2 Touch Connector, V2T</title>
    </circle>
    <circle
       style="fill:#000000;fill-rule:evenodd;stroke-width:0.264583"
       id="circle1505"
       cx="21.006063"
       cy="7.6540189"
       r="0.79374999">
      <title
         id="title1503">Right 2 Touch Connector, R2T</title>
    </circle>
    <circle
       style="fill:#000000;fill-rule:evenodd;stroke-width:0.264583"
       id="circle1527"
       cx="23.746391"
       cy="13.98512"
       r="0.79374999">
      <title
         id="title1525">Right 2 Touch Connector, R2T</title>
    </circle>
  </g>
</svg>
