<?xml version="1.0" encoding="UTF-8" standalone="no"?>
<svg
   xmlns:dc="http://purl.org/dc/elements/1.1/"
   xmlns:cc="http://creativecommons.org/ns#"
   xmlns:rdf="http://www.w3.org/1999/02/22-rdf-syntax-ns#"
   xmlns:svg="http://www.w3.org/2000/svg"
   xmlns="http://www.w3.org/2000/svg"
   width="160"
   height="80"
   viewBox="0 0 42.333332 21.166667"
   version="1.1"
   id="svg8">
  <defs
     id="defs2" />
  <metadata
     id="metadata5">
    <rdf:RDF>
      <cc:Work
         rdf:about="">
        <dc:format>image/svg+xml</dc:format>
        <dc:type
           rdf:resource="http://purl.org/dc/dcmitype/StillImage" />
        <dc:title></dc:title>
      </cc:Work>
    </rdf:RDF>
  </metadata>
  <g
     id="layer1">
    <g
       id="g267"
       transform="matrix(0.26458333,0,0,0.26458333,14.996205,5.0554316)">
      <title
         id="title263">Down Vertical Mark, DV</title>
      <polygon
         points="0,0 12,0 8,4 8,40 4,40 4,4 "
         style="fill:#000000"
         id="polygon265" />
    </g>
    <g
       id="g284"
       transform="matrix(0.26458333,0,0,0.26458333,25.579538,5.0554316)">
      <title
         id="title280">Down Vertical Mark, DV</title>
      <polygon
         points="4,40 4,4 0,0 12,0 8,4 8,40 "
         style="fill:#000000"
         id="polygon282" />
    </g>
    <g
       id="g290"
       transform="matrix(0,-0.26458333,0.26458333,0,16.054538,7.1720982)">
      <title
         id="title286">Right Horizontal Mark, RH</title>
      <polygon
         points="0,0 12,0 8,4 8,40 4,40 4,4 "
         style="fill:#000000"
         id="polygon288" />
    </g>
    <g
       id="g296"
       transform="matrix(0,-0.26458333,0.26458333,0,16.054538,16.697099)">
      <title
         id="title292">Right Horizontal Mark, RH</title>
      <polygon
         points="12,0 8,4 8,40 4,40 4,4 0,0 "
         style="fill:#000000"
         id="polygon294" />
    </g>
    <polygon
       points="0,18 4,18 4,4 0,0 12,0 8,4 8,18 12,18 8,22 8,40 4,40 4,22 "
       style="fill:#000000"
       id="polygon324"
       transform="matrix(0.26458333,0,0,0.26458333,22.682426,6.5673365)">
      <title
         id="title352">Down Vertical Head-to-Tail Mark, DVHT</title>
    </polygon>
    <g
       id="g376"
       transform="matrix(0.26458333,0,0,0.26458333,26.32604,4.8286462)">
      <title
         id="title372">Northeast Corner Connector, NEC</title>
      <circle
         cx="3"
         cy="3"
         r="3"
         style="fill:#000000"
         id="circle374" />
    </g>
    <g
       id="g393"
       transform="matrix(0.26458333,0,0,0.26458333,26.420535,14.278051)">
      <title
         id="title389">Southeast Corner Connector, SEC</title>
      <circle
         cx="3"
         cy="3"
         r="3"
         style="fill:#000000"
         id="circle391" />
    </g>
    <g
       id="g399"
       transform="matrix(0.26458333,0,0,0.26458333,23.443973,14.419792)">
      <title
         id="title1510">2 Cross Connector, 2C</title>
      <circle
         cx="3"
         cy="3"
         r="3"
         style="fill:#000000"
         id="circle397" />
    </g>
    <g
       id="g417"
       transform="matrix(0.26458333,0,0,0.26458333,15.742707,14.183557)">
      <title
         id="title413">Southwest Corner Connector, SWC</title>
      <circle
         cx="3"
         cy="3"
         r="3"
         style="fill:#000000"
         id="circle415" />
    </g>
    <g
       id="g423"
       transform="matrix(0.26458333,0,0,0.26458333,15.69546,4.9231399)">
      <title
         id="title419">Northwest Corner Connector, NWC</title>
      <circle
         cx="3"
         cy="3"
         r="3"
         style="fill:#000000"
         id="circle421" />
    </g>
    <g
       id="g431"
       transform="matrix(0.26458333,0,0,0.26458333,18.105059,6.5862351)">
      <title
         id="title427">Down Vertical Mark, DV</title>
      <polygon
         points="8,40 4,40 4,4 0,0 12,0 8,4 "
         style="fill:#000000"
         id="polygon429" />
    </g>
    <g
       id="g405"
       transform="matrix(0.26458333,0,0,0.26458333,18.908258,14.230804)">
      <title
         id="title401">2 Cross Connector, 2C</title>
      <circle
         cx="3"
         cy="3"
         r="3"
         style="fill:#000000"
         id="circle403" />
    </g>
  </g>
</svg>
