<?xml version="1.0" encoding="UTF-8" standalone="no"?>
<svg
   xmlns:dc="http://purl.org/dc/elements/1.1/"
   xmlns:cc="http://creativecommons.org/ns#"
   xmlns:rdf="http://www.w3.org/1999/02/22-rdf-syntax-ns#"
   xmlns:svg="http://www.w3.org/2000/svg"
   xmlns="http://www.w3.org/2000/svg"
   xmlns:sodipodi="http://sodipodi.sourceforge.net/DTD/sodipodi-0.dtd"
   xmlns:inkscape="http://www.inkscape.org/namespaces/inkscape"
   width="160"
   height="80"
   viewBox="0 0 42.333332 21.166667"
   version="1.1"
   id="svg8"
   inkscape:version="1.0.2-2 (e86c870879, 2021-01-15)"
   sodipodi:docname="cdli164.svg">
  <defs
     id="defs2" />
  <sodipodi:namedview
     id="base"
     pagecolor="#ffffff"
     bordercolor="#666666"
     borderopacity="1.0"
     inkscape:pageopacity="0.0"
     inkscape:pageshadow="2"
     inkscape:zoom="5.6"
     inkscape:cx="79.938337"
     inkscape:cy="44.476293"
     inkscape:document-units="px"
     inkscape:current-layer="layer1"
     inkscape:document-rotation="0"
     showgrid="false"
     units="px"
     inkscape:window-width="1755"
     inkscape:window-height="1020"
     inkscape:window-x="143"
     inkscape:window-y="0"
     inkscape:window-maximized="0" />
  <metadata
     id="metadata5">
    <rdf:RDF>
      <cc:Work
         rdf:about="">
        <dc:format>image/svg+xml</dc:format>
        <dc:type
           rdf:resource="http://purl.org/dc/dcmitype/StillImage" />
        <dc:title></dc:title>
      </cc:Work>
    </rdf:RDF>
  </metadata>
  <g
     inkscape:label="Layer 1"
     inkscape:groupmode="layer"
     id="layer1">
    <polygon
       points="0,6 6,0 6,12 "
       style="fill:#000000"
       id="polygon1203"
       transform="matrix(0.26458333,0,0,0.26458333,3.8705898,6.739202)">
      <title
         id="title1217">Heel Mark, HE</title>
    </polygon>
    <g
       id="g1386"
       transform="matrix(0.26458333,0,0,0.26458333,4.9410937,3.4047343)">
      <title
         id="title1382">Down Vertical Mark, DV</title>
      <polygon
         points="8,40 4,40 4,4 0,0 12,0 8,4 "
         style="fill:#000000"
         id="polygon1384" />
    </g>
    <g
       id="g1542"
       transform="matrix(0,-0.26458333,0.26458333,0,7.0633166,9.9059247)">
      <title
         id="title1538">Right Horizontal Mark, RH</title>
      <polygon
         points="12,0 8,4 8,25 4,25 4,4 0,0 "
         style="fill:#000000"
         id="polygon1540" />
    </g>
    <circle
       style="fill:#000000;fill-rule:evenodd;stroke-width:0.264583"
       id="circle1478"
       cx="7.0889812"
       cy="8.3835878"
       r="0.79374999">
      <title
         id="title1476">Left 2 Touch Connector, L2T</title>
    </circle>
    <g
       id="g1613"
       transform="matrix(0,-0.26458333,0.26458333,0,13.559895,6.8319196)">
      <title
         id="title1609">Right Horizontal Mark, RH</title>
      <polygon
         points="0,0 12,0 8,4 8,25 4,25 4,4 "
         style="fill:#000000"
         id="polygon1611" />
    </g>
    <g
       id="g1630"
       transform="matrix(0,-0.26458333,0.26458333,0,13.559895,12.974033)">
      <title
         id="title1626">Right Horizontal Mark, RH</title>
      <polygon
         points="4,4 0,0 12,0 8,4 8,25 4,25 "
         style="fill:#000000"
         id="polygon1628" />
    </g>
    <polygon
       points="12,18 8,22 8,40 4,40 4,22 0,18 4,18 4,4 0,0 12,0 8,4 8,18 "
       style="fill:#000000"
       id="polygon1644"
       transform="matrix(0.26458333,0,0,0.26458333,19.116145,3.6569196)">
      <title
         id="title1658">Down Vertical Head-to-Tail Mark, DVHT</title>
    </polygon>
    <circle
       style="fill:#000000;fill-rule:evenodd;stroke-width:0.264583"
       id="path839"
       cx="20.238773"
       cy="11.386534"
       r="0.79374999">
      <title
         id="title1591">Right 2 Touch Connector, R2T</title>
    </circle>
    <circle
       style="fill:#000000;fill-rule:evenodd;stroke-width:0.264583"
       id="circle1577"
       cx="20.284016"
       cy="5.1971736"
       r="0.79374999">
      <title
         id="title1585">Northeast Corner Connector, NEC</title>
    </circle>
  </g>
</svg>
