<?xml version="1.0" encoding="UTF-8" standalone="no"?>
<svg
   xmlns:dc="http://purl.org/dc/elements/1.1/"
   xmlns:cc="http://creativecommons.org/ns#"
   xmlns:rdf="http://www.w3.org/1999/02/22-rdf-syntax-ns#"
   xmlns:svg="http://www.w3.org/2000/svg"
   xmlns="http://www.w3.org/2000/svg"
   width="160"
   height="80"
   viewBox="0 0 42.333332 21.166667"
   version="1.1"
   id="svg8">
  <defs
     id="defs2" />
  <metadata
     id="metadata5">
    <rdf:RDF>
      <cc:Work
         rdf:about="">
        <dc:format>image/svg+xml</dc:format>
        <dc:type
           rdf:resource="http://purl.org/dc/dcmitype/StillImage" />
        <dc:title></dc:title>
      </cc:Work>
    </rdf:RDF>
  </metadata>
  <g
     id="layer1">
    <g
       id="g1175"
       transform="matrix(0.26458334,0,0,0.26458334,22.274211,8.2833512)">
      <title
         id="title1171">Down Vertical Mark, DV</title>
      <polygon
         points="8,25 4,25 4,4 0,0 12,0 8,4 "
         style="fill:#000000"
         id="polygon1173" />
    </g>
    <polygon
       points="0,0 12,0 8,4 8,35 12,40 0,40 4,35 4,4 "
       style="fill:#000000"
       id="polygon1210"
       transform="matrix(0,-0.26458333,0.26458333,0,17.103422,12.54881)">
      <title
         id="title1234">Right Horizontal Barbell Mark, RHBB</title>
    </polygon>
    <g
       id="g1228"
       transform="matrix(0.26458334,0,0,0.26458334,18.966921,8.2833512)">
      <title
         id="title1224">Down Vertical Mark, DV</title>
      <polygon
         points="4,25 4,4 0,0 12,0 8,4 8,25 "
         style="fill:#000000"
         id="polygon1226" />
    </g>
    <polygon
       points="8,4 8,35 12,40 0,40 4,35 4,4 0,0 12,0 "
       style="fill:#000000"
       id="polygon1230"
       transform="matrix(0,-0.26458333,0.26458333,0,16.961681,8.3910719)">
      <title
         id="title1232">Right Horizontal Barbell Mark, RHBB</title>
    </polygon>
    <circle
       style="fill:#000000;fill-rule:evenodd;stroke-width:0.264583"
       id="circle1101"
       cx="20.599701"
       cy="11.055803"
       r="0.79374999">
      <title
         id="title1105">2 Cross Connector, 2C</title>
    </circle>
    <circle
       style="fill:#000000;fill-rule:evenodd;stroke-width:0.264583"
       id="circle1196"
       cx="24.001486"
       cy="10.961308"
       r="0.79374999">
      <title
         id="title1194">2 Cross Connector, 2C</title>
    </circle>
  </g>
</svg>
