<?xml version="1.0" encoding="UTF-8" standalone="no"?>
<svg
   xmlns:dc="http://purl.org/dc/elements/1.1/"
   xmlns:cc="http://creativecommons.org/ns#"
   xmlns:rdf="http://www.w3.org/1999/02/22-rdf-syntax-ns#"
   xmlns:svg="http://www.w3.org/2000/svg"
   xmlns="http://www.w3.org/2000/svg"
   width="160"
   height="80"
   viewBox="0 0 42.333332 21.166667"
   version="1.1"
   id="svg8">
  <defs
     id="defs2" />
  <metadata
     id="metadata5">
    <rdf:RDF>
      <cc:Work
         rdf:about="">
        <dc:format>image/svg+xml</dc:format>
        <dc:type
           rdf:resource="http://purl.org/dc/dcmitype/StillImage" />
        <dc:title></dc:title>
      </cc:Work>
    </rdf:RDF>
  </metadata>
  <g
     id="layer1">
    <g
       id="g989"
       transform="matrix(0,-0.26458333,0.26458333,0,1.5308792,14.642834)">
      <title
         id="title985">Right Horizontal Mark, RH</title>
      <polygon
         points="4,45 4,4 0,0 12,0 8,4 8,45 "
         style="fill:#000000"
         id="polygon987"
         transform="translate(0,0.29999983)" />
    </g>
    <polygon
       points="0,0 12,0 8,4 8,35 12,40 0,40 4,35 4,4 "
       style="fill:#000000"
       id="polygon1123"
       transform="matrix(0,-0.26458333,0.26458333,0,1.6176625,7.1493062)">
      <title
         id="title1149">Right Horizontal Barbell Mark, RHBB</title>
    </polygon>
    <g
       id="g1141"
       transform="matrix(0.26458333,0,0,0.26458333,12.492036,4.9798357)">
      <title
         id="title1137">Down Vertical Mark, DV</title>
      <polygon
         points="8,40 4,40 4,4 0,0 12,0 8,4 "
         style="fill:#000000"
         id="polygon1139" />
    </g>
    <g
       id="g1147"
       transform="matrix(0.26458333,0,0,0.26458333,15.667036,4.9798357)">
      <title
         id="title1143">Down Vertical Mark, DV</title>
      <polygon
         points="0,0 12,0 8,4 8,40 4,40 4,4 "
         style="fill:#000000"
         id="polygon1145" />
    </g>
    <circle
       style="fill:#000000;fill-rule:evenodd;stroke-width:0.264583"
       id="circle1101"
       cx="13.607141"
       cy="13.040178"
       r="0.79374999">
      <title
         id="title1105">Right 2 Touch Connector, R2T</title>
    </circle>
  </g>
</svg>
