<?xml version="1.0" encoding="UTF-8" standalone="no"?>
<svg
   xmlns:dc="http://purl.org/dc/elements/1.1/"
   xmlns:cc="http://creativecommons.org/ns#"
   xmlns:rdf="http://www.w3.org/1999/02/22-rdf-syntax-ns#"
   xmlns:svg="http://www.w3.org/2000/svg"
   xmlns="http://www.w3.org/2000/svg"
   width="160"
   height="80"
   viewBox="0 0 42.333332 21.166667"
   version="1.1"
   id="svg8">
  <defs
     id="defs2" />
  <metadata
     id="metadata5">
    <rdf:RDF>
      <cc:Work
         rdf:about="">
        <dc:format>image/svg+xml</dc:format>
        <dc:type
           rdf:resource="http://purl.org/dc/dcmitype/StillImage" />
        <dc:title></dc:title>
      </cc:Work>
    </rdf:RDF>
  </metadata>
  <g
     id="layer1">
    <g
       id="g989"
       transform="matrix(0,-0.26458333,0.26458333,0,1.5591514,5.1972104)">
      <title
         id="title985">Right Horizontal Mark, RH</title>
      <polygon
         points="8,40 4,40 4,4 0,0 12,0 8,4 "
         style="fill:#000000"
         id="polygon987" />
    </g>
    <polygon
       points="4,40 4,22 0,18 4,18 4,4 0,0 12,0 8,4 8,18 12,18 8,22 8,40 "
       style="fill:#000000"
       id="polygon1051"
       transform="matrix(0.22913589,-0.13229167,0.13229167,0.22913589,14.524734,2.3050781)">
      <title
         id="title1083">Other Head-to-Tail Mark, OHT</title>
    </polygon>
    <g
       id="g1069"
       transform="matrix(0.22913589,-0.13229167,0.13229167,0.22913589,11.776869,3.8621229)">
      <title
         id="title1065">Right Down Diagonal Mark, RDD</title>
      <polygon
         points="0,0 12,0 8,4 8,40 4,40 4,4 "
         style="fill:#000000"
         id="polygon1067" />
    </g>
    <g
       id="g1075"
       transform="matrix(-0.12011833,-0.23574548,0.23574548,-0.12011833,14.224813,14.032034)">
      <title
         id="title1071">Right Up Diagonal Mark, RUD</title>
      <polygon
         points="8,40 4,40 4,4 0,0 12,0 8,4 "
         style="fill:#000000"
         id="polygon1073" />
    </g>
    <g
       id="g1081"
       transform="matrix(0,-0.26458333,0.26458333,0,2.9879394,10.674085)">
      <title
         id="title1077">Right Horizontal Mark, RH</title>
      <polygon
         points="0,0 12,0 8,4 8,40 4,40 4,4 "
         style="fill:#000000"
         id="polygon1079" />
    </g>
    <circle
       style="fill:#000000;fill-rule:evenodd;stroke-width:0.264583"
       id="path839"
       cx="17.575891"
       cy="10.536086"
       r="0.79374999">
      <title
         id="title1107">2 Cross Connector, 2C</title>
    </circle>
    <circle
       style="fill:#000000;fill-rule:evenodd;stroke-width:0.264583"
       id="circle1101"
       cx="20.410713"
       cy="9.0714283"
       r="0.79374999">
      <title
         id="title1105">2 Cross Connector, 2C</title>
    </circle>
    <circle
       style="fill:#000000;fill-rule:evenodd;stroke-width:0.264583"
       id="circle1103"
       cx="12.142485"
       cy="3.496279"
       r="0.79374999">
      <title
         id="title1109">Other 2 Touch Connector, O2T</title>
    </circle>
  </g>
</svg>
