<?xml version="1.0" encoding="UTF-8" standalone="no"?>
<svg
   xmlns:dc="http://purl.org/dc/elements/1.1/"
   xmlns:cc="http://creativecommons.org/ns#"
   xmlns:rdf="http://www.w3.org/1999/02/22-rdf-syntax-ns#"
   xmlns:svg="http://www.w3.org/2000/svg"
   xmlns="http://www.w3.org/2000/svg"
   width="160"
   height="80"
   viewBox="0 0 42.333332 21.166667"
   version="1.1"
   id="svg8">
  <defs
     id="defs2" />
  <metadata
     id="metadata5">
    <rdf:RDF>
      <cc:Work
         rdf:about="">
        <dc:format>image/svg+xml</dc:format>
        <dc:type
           rdf:resource="http://purl.org/dc/dcmitype/StillImage" />
        <dc:title></dc:title>
      </cc:Work>
    </rdf:RDF>
  </metadata>
  <g
     id="layer1">
    <g
       id="g1287"
       transform="matrix(0.18708867,-0.18708867,0.18708867,0.18708867,9.2193509,5.1645298)">
      <title
         id="title1283">Right Down Diagonal Mark, RDD</title>
      <polygon
         points="8,4 8,15 4,15 4,4 0,0 12,0 "
         style="fill:#000000"
         id="polygon1285"
         transform="rotate(-15,109.97652,-71.749461)" />
    </g>
    <g
       id="g1382"
       transform="matrix(0.18708867,-0.18708867,0.18708867,0.18708867,11.104886,9.739616)">
      <title
         id="title1378">Right Down Diagonal Mark, RDD</title>
      <polygon
         points="8,26 4,26 4,8 -8,0 20,0 8,8 "
         style="fill:#000000"
         id="polygon1380"
         transform="rotate(-15,111.14366,-70.228414)" />
    </g>
    <g
       id="g1016"
       transform="matrix(0.18708867,-0.18708867,0.18708867,0.18708867,7.6318509,7.9141605)">
      <title
         id="title1012">Right Down Diagonal Mark, RDD</title>
      <polygon
         points="12,0 8,4 8,15 4,15 4,4 0,0 "
         style="fill:#000000"
         id="polygon1014"
         transform="rotate(-15,109.97652,-71.749461)" />
    </g>
    <circle
       style="fill:#000000;fill-rule:evenodd;stroke-width:0.264583"
       id="circle1319"
       cx="21.003683"
       cy="9.1592531"
       r="0.79374999">
      <title
         id="title1317">Other 2 Touch Connector, O2T</title>
    </circle>
    <g
       id="g1022"
       transform="matrix(0.18708867,-0.18708867,0.18708867,0.18708867,6.0443509,10.663791)">
      <title
         id="title1018">Right Down Diagonal Mark, RDD</title>
      <polygon
         points="12,0 8,4 8,15 4,15 4,4 0,0 "
         style="fill:#000000"
         id="polygon1020"
         transform="rotate(-15,109.97652,-71.749461)" />
    </g>
  </g>
</svg>
