<?xml version="1.0" encoding="UTF-8" standalone="no"?>
<svg
   xmlns:dc="http://purl.org/dc/elements/1.1/"
   xmlns:cc="http://creativecommons.org/ns#"
   xmlns:rdf="http://www.w3.org/1999/02/22-rdf-syntax-ns#"
   xmlns:svg="http://www.w3.org/2000/svg"
   xmlns="http://www.w3.org/2000/svg"
   width="160"
   height="80"
   viewBox="0 0 42.333332 21.166667"
   version="1.1"
   id="svg8">
  <defs
     id="defs2" />
  <metadata
     id="metadata5">
    <rdf:RDF>
      <cc:Work
         rdf:about="">
        <dc:format>image/svg+xml</dc:format>
        <dc:type
           rdf:resource="http://purl.org/dc/dcmitype/StillImage" />
        <dc:title></dc:title>
      </cc:Work>
    </rdf:RDF>
  </metadata>
  <g
     id="layer1">
    <g
       id="g267"
       transform="matrix(0.26458333,0,0,0.26458333,14.570982,4.9703868)">
      <title
         id="title263">Down Vertical Mark, DV</title>
      <polygon
         points="12,0 8,4 8,40 4,40 4,4 0,0 "
         style="fill:#000000"
         id="polygon265" />
    </g>
    <g
       id="g284"
       transform="matrix(0.26458333,0,0,0.26458333,25.154315,4.9703868)">
      <title
         id="title280">Down Vertical Mark, DV</title>
      <polygon
         points="12,0 8,4 8,40 4,40 4,4 0,0 "
         style="fill:#000000"
         id="polygon282" />
    </g>
    <g
       id="g290"
       transform="matrix(0,-0.26458333,0.26458333,0,15.629315,7.0870534)">
      <title
         id="title286">Right Horizontal Mark, RH</title>
      <polygon
         points="4,4 0,0 12,0 8,4 8,40 4,40 "
         style="fill:#000000"
         id="polygon288" />
    </g>
    <g
       id="g296"
       transform="matrix(0,-0.26458333,0.26458333,0,15.629315,16.612054)">
      <title
         id="title292">Right Horizontal Mark, RH</title>
      <polygon
         points="4,40 4,4 0,0 12,0 8,4 8,40 "
         style="fill:#000000"
         id="polygon294" />
    </g>
    <polygon
       points="12,18 8,22 8,40 4,40 4,22 0,18 4,18 4,4 0,0 12,0 8,4 8,18 "
       style="fill:#000000"
       id="polygon310"
       transform="matrix(0.26458333,0,0,0.26458333,17.598684,6.4350447)">
      <title
         id="title354">Down Vertical Head-to-Tail Mark, DVHT</title>
    </polygon>
    <polygon
       points="8,40 4,40 4,22 0,18 4,18 4,4 0,0 12,0 8,4 8,18 12,18 8,22 "
       style="fill:#000000"
       id="polygon324"
       transform="matrix(0.26458333,0,0,0.26458333,22.257203,6.4822917)">
      <title
         id="title352">Down Vertical Head-to-Tail Mark, DVHT</title>
    </polygon>
    <polygon
       points="6,12 0,6 6,0 "
       style="fill:#000000"
       id="polygon338"
       transform="matrix(0.26458333,0,0,0.26458333,20.669703,11.244792)">
      <title
         id="title356">Heel Mark, HE</title>
    </polygon>
    <g
       id="g376"
       transform="matrix(0.26458333,0,0,0.26458333,25.900817,4.7436014)">
      <title
         id="title372">Northeast Corner Connector, NEC</title>
      <circle
         cx="3"
         cy="3"
         r="3"
         style="fill:#000000"
         id="circle374" />
    </g>
    <g
       id="g393"
       transform="matrix(0.26458333,0,0,0.26458333,25.995312,14.193006)">
      <title
         id="title389">Southeast Corner Connector, SEC</title>
      <circle
         cx="3"
         cy="3"
         r="3"
         style="fill:#000000"
         id="circle391" />
    </g>
    <g
       id="g399"
       transform="matrix(0.26458333,0,0,0.26458333,23.01875,14.334747)">
      <title
         id="title1355">2 Cross Connector, 2C</title>
      <circle
         cx="3"
         cy="3"
         r="3"
         style="fill:#000000"
         id="circle397" />
    </g>
    <g
       id="g405"
       transform="matrix(0.26458333,0,0,0.26458333,18.483035,14.145759)">
      <title
         id="title401">2 Cross Connector, 2C</title>
      <circle
         cx="3"
         cy="3"
         r="3"
         style="fill:#000000"
         id="circle403" />
    </g>
    <g
       id="g417"
       transform="matrix(0.26458333,0,0,0.26458333,15.317484,14.098512)">
      <title
         id="title413">Southwest Corner Connector, SWC</title>
      <circle
         cx="3"
         cy="3"
         r="3"
         style="fill:#000000"
         id="circle415" />
    </g>
    <g
       id="g423"
       transform="matrix(0.26458333,0,0,0.26458333,15.270237,4.8380951)">
      <title
         id="title419">Northwest Corner Connector, NWC</title>
      <circle
         cx="3"
         cy="3"
         r="3"
         style="fill:#000000"
         id="circle421" />
    </g>
  </g>
</svg>
