<?xml version="1.0" encoding="UTF-8" standalone="no"?>
<svg
   xmlns:dc="http://purl.org/dc/elements/1.1/"
   xmlns:cc="http://creativecommons.org/ns#"
   xmlns:rdf="http://www.w3.org/1999/02/22-rdf-syntax-ns#"
   xmlns:svg="http://www.w3.org/2000/svg"
   xmlns="http://www.w3.org/2000/svg"
   width="160"
   height="80"
   viewBox="0 0 42.333332 21.166667"
   version="1.1"
   id="svg8">
  <defs
     id="defs2" />
  <metadata
     id="metadata5">
    <rdf:RDF>
      <cc:Work
         rdf:about="">
        <dc:format>image/svg+xml</dc:format>
        <dc:type
           rdf:resource="http://purl.org/dc/dcmitype/StillImage" />
        <dc:title></dc:title>
      </cc:Work>
    </rdf:RDF>
  </metadata>
  <g
     id="layer1">
    <g
       id="g256"
       transform="matrix(0,-0.26458333,0.26458333,0,6.6472395,8.7548977)">
      <title
         id="title252">Right Horizontal Mark, RH</title>
      <polygon
         points="4,57 4,4 0,0 12,0 8,4 8,57 "
         style="fill:#000000"
         id="polygon254"
         transform="translate(-12.199714,0.46428666)" />
    </g>
    <polygon
       points="0,0 12,0 8,4 8,57 4,57 4,4 "
       style="fill:#000000"
       id="polygon329"
       transform="matrix(-0.13229166,-0.22913589,0.22913589,-0.13229166,9.7080115,15.364683)">
      <title
         id="title397">Right Up Diagonal Mark, RUD</title>
    </polygon>
    <g
       id="g383"
       transform="matrix(0.26458333,0,0,0.26458333,14.083922,9.6242427)">
      <title
         id="title379">2 Cross Connector, 2C</title>
      <circle
         cx="3"
         cy="3"
         r="3"
         style="fill:#000000"
         id="circle381" />
    </g>
    <polygon
       points="6,12 0,6 6,0 "
       style="fill:#000000"
       id="polygon894"
       transform="matrix(0.26458333,0,0,0.26458333,22.68802,8.8068452)">
      <title
         id="title908">Heel Mark, HE</title>
    </polygon>
    <polygon
       points="6,12 0,6 6,0 "
       style="fill:#000000"
       id="polygon912"
       transform="matrix(0.26458333,0,0,0.26458333,22.971503,4.6018601)">
      <title
         id="title910">Heel Mark, HE</title>
    </polygon>
  </g>
</svg>
