<?xml version="1.0" encoding="UTF-8" standalone="no"?>
<svg
   xmlns:dc="http://purl.org/dc/elements/1.1/"
   xmlns:cc="http://creativecommons.org/ns#"
   xmlns:rdf="http://www.w3.org/1999/02/22-rdf-syntax-ns#"
   xmlns:svg="http://www.w3.org/2000/svg"
   xmlns="http://www.w3.org/2000/svg"
   width="160"
   height="80"
   viewBox="0 0 42.333332 21.166667"
   version="1.1"
   id="svg8">
  <defs
     id="defs2" />
  <metadata
     id="metadata5">
    <rdf:RDF>
      <cc:Work
         rdf:about="">
        <dc:format>image/svg+xml</dc:format>
        <dc:type
           rdf:resource="http://purl.org/dc/dcmitype/StillImage" />
        <dc:title></dc:title>
      </cc:Work>
    </rdf:RDF>
  </metadata>
  <g
     id="layer1">
    <g
       id="g34"
       transform="matrix(0,-0.26458333,0.26458333,0,0,12.170834)">
      <title
         id="title30">Right Horizontal Mark, RH</title>
      <polygon
         points="8,55 4,55 4,4 0,0 12,0 8,4 "
         style="fill:#000000"
         id="polygon32" />
    </g>
    <g
       id="g96"
       transform="matrix(0.26458333,0,0,0.26458333,13.4843,5.2027666)">
      <title
         id="title92">Down Vertical Mark, DV</title>
      <polygon
         points="8,40 4,40 4,4 0,0 12,0 8,4 "
         style="fill:#000000"
         id="polygon94" />
    </g>
    <g
       id="g113"
       transform="matrix(0.26458333,0,0,0.26458333,10.3093,5.2027666)">
      <title
         id="title109">Down Vertical Mark, DV</title>
      <polygon
         points="4,40 4,4 0,0 12,0 8,4 8,40 "
         style="fill:#000000"
         id="polygon111" />
    </g>
    <g
       id="g119"
       transform="matrix(0,-0.26458333,0.26458333,0,3.96875,8.3777666)">
      <title
         id="title115">Right Horizontal Mark, RH</title>
      <polygon
         points="12,0 8,4 8,40 4,40 4,4 0,0 "
         style="fill:#000000"
         id="polygon117" />
    </g>
    <g
       id="g125"
       transform="matrix(0,-0.26458333,0.26458333,0,3.96875,15.842796)">
      <title
         id="title121">Right Horizontal Mark, RH</title>
      <polygon
         points="12,0 8,4 8,40 4,40 4,4 0,0 "
         style="fill:#000000"
         id="polygon123" />
    </g>
    <g
       id="g145"
       transform="matrix(0.26458333,0,0,0.26458333,11.018006,9.8368299)">
      <title
         id="title141">2 Cross Connector, 2C</title>
      <circle
         cx="3"
         cy="3"
         r="3"
         style="fill:#000000"
         id="circle143" />
    </g>
    <g
       id="g162"
       transform="matrix(0.26458333,0,0,0.26458333,14.467039,9.7895828)">
      <title
         id="title158">Right 2 Touch Connector, R2T</title>
      <circle
         cx="3"
         cy="3"
         r="3"
         style="fill:#000000"
         id="circle160" />
    </g>
    <g
       id="g168"
       transform="matrix(0.26458333,0,0,0.26458333,14.089063,13.380357)">
      <title
         id="title164">Right 2 Touch Connector, R2T</title>
      <circle
         cx="3"
         cy="3"
         r="3"
         style="fill:#000000"
         id="circle166" />
    </g>
    <g
       id="g174"
       transform="matrix(0.26458333,0,0,0.26458333,10.970759,13.33311)">
      <title
         id="title170">2 Cross Connector, 2C</title>
      <circle
         cx="3"
         cy="3"
         r="3"
         style="fill:#000000"
         id="circle172" />
    </g>
    <g
       id="g180"
       transform="matrix(0.26458333,0,0,0.26458333,14.230804,6.0098214)">
      <title
         id="title176">Northeast Corner Connector, NEC</title>
      <circle
         cx="3"
         cy="3"
         r="3"
         style="fill:#000000"
         id="circle178" />
    </g>
    <g
       id="g186"
       transform="matrix(0.26458333,0,0,0.26458333,11.1125,6.1043154)">
      <title
         id="title182">2 Cross Connector, 2C</title>
      <circle
         cx="3"
         cy="3"
         r="3"
         style="fill:#000000"
         id="circle184" />
    </g>
  </g>
</svg>
