<?xml version="1.0" encoding="UTF-8" standalone="no"?>
<svg
   xmlns:dc="http://purl.org/dc/elements/1.1/"
   xmlns:cc="http://creativecommons.org/ns#"
   xmlns:rdf="http://www.w3.org/1999/02/22-rdf-syntax-ns#"
   xmlns:svg="http://www.w3.org/2000/svg"
   xmlns="http://www.w3.org/2000/svg"
   width="160"
   height="80"
   viewBox="0 0 42.333332 21.166667"
   version="1.1"
   id="svg8">
  <defs
     id="defs2" />
  <metadata
     id="metadata5">
    <rdf:RDF>
      <cc:Work
         rdf:about="">
        <dc:format>image/svg+xml</dc:format>
        <dc:type
           rdf:resource="http://purl.org/dc/dcmitype/StillImage" />
        <dc:title></dc:title>
      </cc:Work>
    </rdf:RDF>
  </metadata>
  <g
     id="layer1">
    <polygon
       points="12,18 8,22 8,50 4,50 4,22 0,18 4,18 4,4 0,0 12,0 8,4 8,18 "
       style="fill:#000000"
       id="polygon28"
       transform="matrix(0,-0.26458333,0.26458333,0,11.292039,12.359822)">
      <title
         id="title74">Right Horizontal Head-to-Tail Mark, RHHT</title>
    </polygon>
    <polygon
       points="6,12 0,6 6,0 "
       style="fill:#000000"
       id="polygon54"
       transform="matrix(0.26458333,0,0,0.26458333,17.727083,11.547172)">
      <title
         id="title82">Heel Mark, HE</title>
    </polygon>
    <polygon
       points="0,6 6,0 6,12 "
       style="fill:#000000"
       id="polygon68"
       transform="matrix(0.26458333,0,0,0.26458333,21.695832,11.547172)">
      <title
         id="title80">Heel Mark, HE</title>
    </polygon>
    <polygon
       points="6,0 6,12 0,6 "
       style="fill:#000000"
       id="polygon70"
       transform="matrix(0.26458333,0,0,0.26458333,17.727083,6.8224701)">
      <title
         id="title76">Heel Mark, HE</title>
    </polygon>
    <polygon
       points="0,6 6,0 6,12 "
       style="fill:#000000"
       id="polygon72"
       transform="matrix(0.26458333,0,0,0.26458333,21.695833,6.7279761)">
      <title
         id="title78">Heel Mark, HE</title>
    </polygon>
  </g>
</svg>
