<?xml version="1.0" encoding="UTF-8" standalone="no"?>
<svg
   xmlns:dc="http://purl.org/dc/elements/1.1/"
   xmlns:cc="http://creativecommons.org/ns#"
   xmlns:rdf="http://www.w3.org/1999/02/22-rdf-syntax-ns#"
   xmlns:svg="http://www.w3.org/2000/svg"
   xmlns="http://www.w3.org/2000/svg"
   width="160"
   height="80"
   viewBox="0 0 42.333332 21.166667"
   version="1.1"
   id="svg8">
  <defs
     id="defs2" />
  <metadata
     id="metadata5">
    <rdf:RDF>
      <cc:Work
         rdf:about="">
        <dc:format>image/svg+xml</dc:format>
        <dc:type
           rdf:resource="http://purl.org/dc/dcmitype/StillImage" />
        <dc:title></dc:title>
      </cc:Work>
    </rdf:RDF>
  </metadata>
  <g
     id="layer1">
    <polygon
       points="12,0 8,4 8,18 12,18 8,22 8,40 4,40 4,22 0,18 4,18 4,4 0,0 "
       style="fill:#000000"
       id="polygon120"
       transform="matrix(0.26458333,0,0,0.26458333,16.163207,4.9278646)">
      <title
         id="title195">Down Vertical Head-to-Tail Mark, DVHT</title>
    </polygon>
    <polygon
       points="8,4 8,18 12,18 8,22 8,40 4,40 4,22 0,18 4,18 4,4 0,0 12,0 "
       style="fill:#000000"
       id="polygon134"
       transform="matrix(0.26458333,0,0,0.26458333,20.415439,4.9278646)">
      <title
         id="title197">Down Vertical Head-to-Tail Mark, DVHT</title>
    </polygon>
    <polygon
       points="0,6 6,0 6,12 "
       style="fill:#000000"
       id="polygon201"
       transform="matrix(0.26458333,0,0,0.26458333,19.338207,13.914248)">
      <title
         id="title199">Heel Mark, HE</title>
    </polygon>
  </g>
</svg>
