<?xml version="1.0" encoding="UTF-8" standalone="no"?>
<svg
   xmlns:dc="http://purl.org/dc/elements/1.1/"
   xmlns:cc="http://creativecommons.org/ns#"
   xmlns:rdf="http://www.w3.org/1999/02/22-rdf-syntax-ns#"
   xmlns:svg="http://www.w3.org/2000/svg"
   xmlns="http://www.w3.org/2000/svg"
   width="160"
   height="80"
   viewBox="0 0 42.333332 21.166667"
   version="1.1"
   id="svg8">
  <defs
     id="defs2" />
  <metadata
     id="metadata5">
    <rdf:RDF>
      <cc:Work
         rdf:about="">
        <dc:format>image/svg+xml</dc:format>
        <dc:type
           rdf:resource="http://purl.org/dc/dcmitype/StillImage" />
        <dc:title></dc:title>
      </cc:Work>
    </rdf:RDF>
  </metadata>
  <g
     id="layer1">
    <g
       id="g894"
       transform="matrix(0.26458333,0,0,0.26458333,14.816665,2.8744331)">
      <title
         id="title890">Down Vertical Mark, DV</title>
      <polygon
         points="8,4 8,40 4,40 4,4 0,0 12,0 "
         style="fill:#000000"
         id="polygon892" />
    </g>
    <g
       id="g982"
       transform="matrix(0,-0.26458333,0.26458333,0,5.2916651,6.2082586)">
      <title
         id="title978">Right Horizontal Mark, RH</title>
      <polygon
         points="0,0 12,0 8,4 8,40 4,40 4,4 "
         style="fill:#000000"
         id="polygon980" />
    </g>
    <circle
       style="fill:#000000;fill-rule:evenodd;stroke-width:0.264583"
       id="circle956"
       cx="16.319118"
       cy="4.5735116"
       r="0.79374999">
      <title
         id="title976">Right 2 Touch Connector, R2T</title>
    </circle>
    <g
       id="g989"
       transform="matrix(0,-0.26458333,0.26458333,0,5.4940729,12.686771)">
      <title
         id="title985">Right Horizontal Mark, RH</title>
      <polygon
         points="0,0 12,0 8,4 8,40 4,40 4,4 "
         style="fill:#000000"
         id="polygon987" />
    </g>
    <g
       id="g1445"
       transform="matrix(0.26458333,0,0,0.26458333,23.925891,3.0331833)">
      <title
         id="title1441">Down Vertical Mark, DV</title>
      <polygon
         points="0,0 12,0 8,4 8,40 4,40 4,4 "
         style="fill:#000000"
         id="polygon1443" />
    </g>
    <circle
       style="fill:#000000;fill-rule:evenodd;stroke-width:0.264583"
       id="circle958"
       cx="16.25668"
       cy="11.099347"
       r="0.79374999">
      <title
         id="title966">Right 2 Touch Connector, R2T</title>
    </circle>
    <g
       id="g1516"
       transform="matrix(0.26458333,0,0,0.26458333,20.911532,6.8035718)">
      <title
         id="title1512">Down Vertical Mark, DV</title>
      <polygon
         points="4,4 0,0 12,0 8,4 8,25 4,25 "
         style="fill:#000000"
         id="polygon1514" />
    </g>
    <g
       id="g1533"
       transform="matrix(0.26458333,0,0,0.26458333,17.736532,6.8035718)">
      <title
         id="title1529">Down Vertical Mark, DV</title>
      <polygon
         points="4,4 0,0 12,0 8,4 8,25 4,25 "
         style="fill:#000000"
         id="polygon1531" />
    </g>
  </g>
</svg>
