<?xml version="1.0" encoding="UTF-8" standalone="no"?>
<svg
   xmlns:dc="http://purl.org/dc/elements/1.1/"
   xmlns:cc="http://creativecommons.org/ns#"
   xmlns:rdf="http://www.w3.org/1999/02/22-rdf-syntax-ns#"
   xmlns:svg="http://www.w3.org/2000/svg"
   xmlns="http://www.w3.org/2000/svg"
   width="160"
   height="80"
   viewBox="0 0 42.333332 21.166667"
   version="1.1"
   id="svg8">
  <defs
     id="defs2" />
  <metadata
     id="metadata5">
    <rdf:RDF>
      <cc:Work
         rdf:about="">
        <dc:format>image/svg+xml</dc:format>
        <dc:type
           rdf:resource="http://purl.org/dc/dcmitype/StillImage" />
        <dc:title></dc:title>
      </cc:Work>
    </rdf:RDF>
  </metadata>
  <g
     id="layer1">
    <g
       id="g857"
       transform="matrix(0,-0.26458333,0.26458333,0,10.802522,6.9925596)">
      <title
         id="title853">Right Horizontal Mark, RH</title>
      <polygon
         points="0,0 12,0 8,4 8,72 4,72 4,4 "
         style="fill:#000000"
         id="polygon855" />
    </g>
    <g
       id="g874"
       transform="matrix(0,-0.26458333,0.26458333,0,11.71163,15.480127)">
      <title
         id="title870">Right Horizontal Mark, RH</title>
      <polygon
         points="8,72 4,72 4,4 0,0 12,0 8,4 "
         style="fill:#000000"
         id="polygon872" />
    </g>
    <g
       id="g894"
       transform="matrix(0.26458333,0,0,0.26458333,27.788847,4.875893)">
      <title
         id="title890">Down Vertical Mark, DV</title>
      <polygon
         points="8,4 8,40 4,40 4,4 0,0 12,0 "
         style="fill:#000000"
         id="polygon892" />
    </g>
    <g
       id="g911"
       transform="matrix(0.26458333,0,0,0.26458333,19.998796,6.765774)">
      <title
         id="title907">Down Vertical Mark, DV</title>
      <polygon
         points="0,0 12,0 8,4 8,30 4,30 4,4 "
         style="fill:#000000"
         id="polygon909"
         transform="translate(-1.4285714,2.6785714)" />
    </g>
    <g
       id="g931"
       transform="matrix(0.26458333,0,0,0.26458333,12.915485,8.6651038)">
      <title
         id="title927">Down Vertical Mark, DV</title>
      <polygon
         points="0,0 12,0 8,4 8,25 4,25 4,4 "
         style="fill:#000000"
         id="polygon929" />
    </g>
    <g
       id="g948"
       transform="matrix(0.26458333,0,0,0.26458333,16.090485,8.6651038)">
      <title
         id="title944">Down Vertical Mark, DV</title>
      <polygon
         points="12,0 8,4 8,25 4,25 4,4 0,0 "
         style="fill:#000000"
         id="polygon946" />
    </g>
    <g
       id="g954"
       transform="matrix(0,-0.26458333,0.26458333,0,21.686422,12.386356)">
      <title
         id="title950">Right Horizontal Mark, RH</title>
      <polygon
         points="0,0 12,0 8,4 8,25 4,25 4,4 "
         style="fill:#000000"
         id="polygon952" />
    </g>
    <polygon
       points="6,0 6,12 0,6 "
       style="fill:#000000"
       id="polygon968"
       transform="matrix(0.26458333,0,0,0.26458333,21.076028,13.824479)">
      <title
         id="title986">Heel Mark, HE</title>
    </polygon>
    <polygon
       points="6,0 6,12 0,6 "
       style="fill:#000000"
       id="polygon982"
       transform="matrix(0.26458333,0,0,0.26458333,22.79582,5.8869794)">
      <title
         id="title984">Heel Mark, HE</title>
    </polygon>
    <circle
       style="fill:#000000;fill-rule:evenodd;stroke-width:0.264583"
       id="path839"
       cx="21.873518"
       cy="10.743972"
       r="0.79374999">
      <title
         id="title974">Left 2 Touch Connector, L2T</title>
    </circle>
    <circle
       style="fill:#000000;fill-rule:evenodd;stroke-width:0.264583"
       id="circle956"
       cx="29.338547"
       cy="5.5940475"
       r="0.79374999">
      <title
         id="title976">Northeast Corner Connector, NEC</title>
    </circle>
    <circle
       style="fill:#000000;fill-rule:evenodd;stroke-width:0.264583"
       id="circle958"
       cx="29.385796"
       cy="13.862276"
       r="0.79374999">
      <title
         id="title966">2 Cross Connector, 2C</title>
    </circle>
    <circle
       style="fill:#000000;fill-rule:evenodd;stroke-width:0.264583"
       id="circle960"
       cx="21.023073"
       cy="13.909524"
       r="0.79374999">
      <title
         id="title968">2 Cross Connector, 2C</title>
    </circle>
    <circle
       style="fill:#000000;fill-rule:evenodd;stroke-width:0.264583"
       id="circle962"
       cx="17.621288"
       cy="14.004019"
       r="0.79374999">
      <title
         id="title970">2 Cross Connector, 2C</title>
    </circle>
    <circle
       style="fill:#000000;fill-rule:evenodd;stroke-width:0.264583"
       id="circle964"
       cx="14.361242"
       cy="13.862277"
       r="0.79374999">
      <title
         id="title972">2 Cross Connector, 2C</title>
    </circle>
  </g>
</svg>
