<?xml version="1.0" encoding="UTF-8" standalone="no"?>
<svg
   xmlns:dc="http://purl.org/dc/elements/1.1/"
   xmlns:cc="http://creativecommons.org/ns#"
   xmlns:rdf="http://www.w3.org/1999/02/22-rdf-syntax-ns#"
   xmlns:svg="http://www.w3.org/2000/svg"
   xmlns="http://www.w3.org/2000/svg"
   width="160"
   height="80"
   viewBox="0 0 42.333332 21.166667"
   version="1.1"
   id="svg8">
  <defs
     id="defs2" />
  <metadata
     id="metadata5">
    <rdf:RDF>
      <cc:Work
         rdf:about="">
        <dc:format>image/svg+xml</dc:format>
        <dc:type
           rdf:resource="http://purl.org/dc/dcmitype/StillImage" />
        <dc:title></dc:title>
      </cc:Work>
    </rdf:RDF>
  </metadata>
  <g
     id="layer1">
    <polygon
       points="6,12 0,6 6,0 "
       style="fill:#000000"
       id="polygon1260"
       transform="matrix(0.26458333,0,0,0.26458333,4.0726928,4.6963547)">
      <title
         id="title1315">Heel Mark, HE</title>
    </polygon>
    <polygon
       points="0,6 6,0 6,12 "
       style="fill:#000000"
       id="polygon1274"
       transform="matrix(0.26458333,0,0,0.26458333,4.0726928,7.8713547)">
      <title
         id="title1317">Heel Mark, HE</title>
    </polygon>
    <polygon
       points="6,12 0,6 6,0 "
       style="fill:#000000"
       id="polygon1276"
       transform="matrix(0.26458333,0,0,0.26458333,5.7263383,4.7172562)">
      <title
         id="title1313">Heel Mark, HE</title>
    </polygon>
    <polygon
       points="0,6 6,0 6,12 "
       style="fill:#000000"
       id="polygon1278"
       transform="matrix(0.26458333,0,0,0.26458333,5.7263383,7.8922562)">
      <title
         id="title1311">Heel Mark, HE</title>
    </polygon>
    <g
       id="g1431"
       transform="matrix(0.26458333,0,0,0.26458333,11.90436,6.7771889)">
      <title
         id="title1427">Down Vertical Mark, DV</title>
      <polygon
         points="8,4 8,25 4,25 4,4 0,0 12,0 "
         style="fill:#000000"
         id="polygon1429" />
    </g>
    <polygon
       points="0,18 4,18 4,4 0,0 12,0 8,4 8,18 12,18 8,22 8,40 4,40 4,22 "
       style="fill:#000000"
       id="polygon1445"
       transform="matrix(0.26458333,0,0,0.26458333,17.315127,3.1125583)">
      <title
         id="title1508">Down Vertical Head-to-Tail Mark, DVHT</title>
    </polygon>
    <g
       id="g1477"
       transform="matrix(0,-0.26458333,0.26458333,0,7.790127,6.8960999)">
      <title
         id="title1473">Right Horizontal Mark, RH</title>
      <polygon
         points="8,4 8,40 4,40 4,4 0,0 12,0 "
         style="fill:#000000"
         id="polygon1475" />
    </g>
    <g
       id="g1494"
       transform="matrix(0,-0.26458333,0.26458333,0,7.8147333,12.09331)">
      <title
         id="title1490">Right Horizontal Mark, RH</title>
      <polygon
         points="12,0 8,4 8,40 4,40 4,4 0,0 "
         style="fill:#000000"
         id="polygon1492" />
    </g>
    <circle
       style="fill:#000000;fill-rule:evenodd;stroke-width:0.264583"
       id="circle1498"
       cx="18.851562"
       cy="10.583334"
       r="0.79374999">
      <title
         id="title1496">Right 2 Touch Connector, R2T</title>
    </circle>
    <circle
       style="fill:#000000;fill-rule:evenodd;stroke-width:0.264583"
       id="circle1502"
       cx="13.465402"
       cy="10.583334"
       r="0.79374999">
      <title
         id="title1500">2  Cross Connector, 2C</title>
    </circle>
    <circle
       style="fill:#000000;fill-rule:evenodd;stroke-width:0.264583"
       id="circle1506"
       cx="18.709822"
       cy="5.2444205"
       r="0.79374999">
      <title
         id="title1504">Right 2 Touch Connector, R2T</title>
    </circle>
  </g>
</svg>
