<?xml version="1.0" encoding="UTF-8" standalone="no"?>
<svg
   xmlns:dc="http://purl.org/dc/elements/1.1/"
   xmlns:cc="http://creativecommons.org/ns#"
   xmlns:rdf="http://www.w3.org/1999/02/22-rdf-syntax-ns#"
   xmlns:svg="http://www.w3.org/2000/svg"
   xmlns="http://www.w3.org/2000/svg"
   width="160"
   height="80"
   viewBox="0 0 42.333332 21.166667"
   version="1.1"
   id="svg8">
  <defs
     id="defs2" />
  <metadata
     id="metadata5">
    <rdf:RDF>
      <cc:Work
         rdf:about="">
        <dc:format>image/svg+xml</dc:format>
        <dc:type
           rdf:resource="http://purl.org/dc/dcmitype/StillImage" />
        <dc:title></dc:title>
      </cc:Work>
    </rdf:RDF>
  </metadata>
  <g
     id="layer1">
    <polygon
       points="0,35 4,35 4,4 0,0 12,0 8,4 8,35 12,35 8,39 8,74 4,74 4,39 "
       style="fill:#000000"
       id="polygon1330"
       transform="matrix(0,-0.26458333,0.26458333,0,8.64904,7.4337332)">
      <title
         id="title1348">Right Horizontal Head-to-Tail Mark, RHHT</title>
    </polygon>
    <polygon
       points="0,0 12,0 8,4 8,35 12,35 8,39 8,74 4,74 4,39 0,35 4,35 4,4 "
       style="fill:#000000"
       id="polygon1344"
       transform="matrix(0,-0.26458333,0.26458333,0,8.5338708,15.263548)">
      <title
         id="title1350">Right Horizontal Head-to-Tail Mark, RHHT</title>
    </polygon>
    <polygon
       points="6,12 0,6 6,0 "
       style="fill:#000000"
       id="polygon940"
       transform="matrix(0.26458333,0,0,0.26458333,24.814137,8.2285416)">
      <title
         id="title954">Heel Mark, HE</title>
    </polygon>
    <polygon
       points="4,40 4,22 0,18 4,18 4,4 0,0 12,0 8,4 8,18 12,18 8,22 8,40 "
       style="fill:#000000"
       id="polygon986"
       transform="matrix(0,-0.26458333,0.26458333,0,13.093171,11.348773)">
      <title
         id="title984">Right Horizontal Head-to-Tail Mark, RHHT</title>
    </polygon>
  </g>
</svg>
