<?xml version="1.0" encoding="UTF-8" standalone="no"?>
<svg
   xmlns:dc="http://purl.org/dc/elements/1.1/"
   xmlns:cc="http://creativecommons.org/ns#"
   xmlns:rdf="http://www.w3.org/1999/02/22-rdf-syntax-ns#"
   xmlns:svg="http://www.w3.org/2000/svg"
   xmlns="http://www.w3.org/2000/svg"
   width="160"
   height="80"
   viewBox="0 0 42.333332 21.166667"
   version="1.1"
   id="svg8">
  <defs
     id="defs2" />
  <metadata
     id="metadata5">
    <rdf:RDF>
      <cc:Work
         rdf:about="">
        <dc:format>image/svg+xml</dc:format>
        <dc:type
           rdf:resource="http://purl.org/dc/dcmitype/StillImage" />
        <dc:title></dc:title>
      </cc:Work>
    </rdf:RDF>
  </metadata>
  <g
     id="layer1">
    <g
       id="g334"
       transform="matrix(0.26458333,0,0,0.26458333,11.957314,4.8664439)">
      <title
         id="title330">Down Vertical Mark, DV</title>
      <polygon
         points="8,4 8,40 4,40 4,4 0,0 12,0 "
         style="fill:#000000"
         id="polygon332" />
    </g>
    <polygon
       points="6,0 6,12 0,6 "
       style="fill:#000000"
       id="polygon422"
       transform="matrix(0.26458333,0,0,0.26458333,14.867731,3.2789439)">
      <title
         id="title436">Heel Mark, HE</title>
    </polygon>
    <polygon
       points="6,0 6,12 0,6 "
       style="fill:#000000"
       id="polygon424"
       transform="matrix(0.26458333,0,0,0.26458333,12.972256,14.019212)">
      <title
         id="title434">Heel Mark, HE</title>
    </polygon>
    <g
       id="g448"
       transform="matrix(0,-0.26458333,0.26458333,0,15.204016,11.792857)">
      <title
         id="title444">Right Horizontal Mark, RH</title>
      <polygon
         points="12,0 8,4 8,40 4,40 4,4 0,0 "
         style="fill:#000000"
         id="polygon446" />
    </g>
    <polygon
       points="6,0 6,12 0,6 "
       style="fill:#000000"
       id="polygon529"
       transform="matrix(0.26458333,0,0,0.26458333,22.427255,6.2082594)">
      <title
         id="title527">Heel Mark, HE</title>
    </polygon>
    <polygon
       points="0,6 6,0 6,12 "
       style="fill:#000000"
       id="polygon541"
       transform="matrix(0.26458333,0,0,0.26458333,21.459522,10.781771)">
      <title
         id="title539">Heel Mark, HE</title>
    </polygon>
  </g>
</svg>
