<?xml version="1.0" encoding="UTF-8" standalone="no"?>
<svg
   xmlns:dc="http://purl.org/dc/elements/1.1/"
   xmlns:cc="http://creativecommons.org/ns#"
   xmlns:rdf="http://www.w3.org/1999/02/22-rdf-syntax-ns#"
   xmlns:svg="http://www.w3.org/2000/svg"
   xmlns="http://www.w3.org/2000/svg"
   width="160"
   height="80"
   viewBox="0 0 42.333332 21.166667"
   version="1.1"
   id="svg8">
  <defs
     id="defs2" />
  <metadata
     id="metadata5">
    <rdf:RDF>
      <cc:Work
         rdf:about="">
        <dc:format>image/svg+xml</dc:format>
        <dc:type
           rdf:resource="http://purl.org/dc/dcmitype/StillImage" />
        <dc:title></dc:title>
      </cc:Work>
    </rdf:RDF>
  </metadata>
  <g
     id="layer1">
    <g
       id="g495"
       transform="matrix(0.26458333,0,0,0.26458333,8.9485862,0.78052083)">
      <title
         id="title491">Down Vertical Mark, DV</title>
      <polygon
         points="12,0 8,4 8,72 4,72 4,4 0,0 "
         style="fill:#000000"
         id="polygon493" />
    </g>
    <g
       id="g512"
       transform="matrix(0.26458333,0,0,0.26458333,27.998473,0.83343749)">
      <title
         id="title508">Down Vertical Mark, DV</title>
      <polygon
         points="8,72 4,72 4,4 0,0 12,0 8,4 "
         style="fill:#000000"
         id="polygon510" />
    </g>
    <g
       id="g518"
       transform="matrix(0,-0.26458333,0.26458333,0,10.00692,2.9765625)">
      <title
         id="title514">Right Horizontal Mark, RH</title>
      <polygon
         points="8,72 4,72 4,4 0,0 12,0 8,4 "
         style="fill:#000000"
         id="polygon516" />
    </g>
    <g
       id="g524"
       transform="matrix(0,-0.26458333,0.26458333,0,10.00692,20.968229)">
      <title
         id="title520">Right Horizontal Mark, RH</title>
      <polygon
         points="8,72 4,72 4,4 0,0 12,0 8,4 "
         style="fill:#000000"
         id="polygon522" />
    </g>
    <g
       id="g376"
       transform="matrix(0.26458333,0,0,0.26458333,28.641145,0.71815498)">
      <title
         id="title372">Northeast Corner Connector, NEC</title>
      <circle
         cx="3"
         cy="3"
         r="3"
         style="fill:#000000"
         id="circle374" />
    </g>
    <g
       id="g423"
       transform="matrix(0.26458333,0,0,0.26458333,9.7423358,0.62366059)">
      <title
         id="title419">Northwest Corner Connector, NWC</title>
      <circle
         cx="3"
         cy="3"
         r="3"
         style="fill:#000000"
         id="circle421" />
    </g>
    <g
       id="g417"
       transform="matrix(0.26458333,0,0,0.26458333,10.025818,18.624777)">
      <title
         id="title413">Southwest Corner Connector, SWC</title>
      <circle
         cx="3"
         cy="3"
         r="3"
         style="fill:#000000"
         id="circle415" />
    </g>
    <g
       id="g393"
       transform="matrix(0.26458333,0,0,0.26458333,28.877381,18.530283)">
      <title
         id="title389">Southeast Corner Connector, SEC</title>
      <circle
         cx="3"
         cy="3"
         r="3"
         style="fill:#000000"
         id="circle391" />
    </g>
    <polygon
       points="0,40 4,35 4,4 0,0 12,0 8,4 8,35 12,40 "
       style="fill:#000000"
       id="polygon948"
       transform="matrix(0,-0.26458333,0.26458333,0,15.270162,11.934599)">
      <title
         id="title962">Right Horizontal Barbell Mark, RHBB</title>
    </polygon>
  </g>
</svg>
