<?xml version="1.0" encoding="UTF-8" standalone="no"?>
<svg
   xmlns:dc="http://purl.org/dc/elements/1.1/"
   xmlns:cc="http://creativecommons.org/ns#"
   xmlns:rdf="http://www.w3.org/1999/02/22-rdf-syntax-ns#"
   xmlns:svg="http://www.w3.org/2000/svg"
   xmlns="http://www.w3.org/2000/svg"
   width="160"
   height="80"
   viewBox="0 0 42.333332 21.166667"
   version="1.1"
   id="svg8">
  <defs
     id="defs2" />
  <metadata
     id="metadata5">
    <rdf:RDF>
      <cc:Work
         rdf:about="">
        <dc:format>image/svg+xml</dc:format>
        <dc:type
           rdf:resource="http://purl.org/dc/dcmitype/StillImage" />
        <dc:title></dc:title>
      </cc:Work>
    </rdf:RDF>
  </metadata>
  <g
     id="layer1">
    <g
       id="g267"
       transform="matrix(0.26458333,0,0,0.26458333,13.81503,5.1971724)">
      <title
         id="title263">Down Vertical Mark, DV</title>
      <polygon
         points="4,40 4,4 0,0 12,0 8,4 8,40 "
         style="fill:#000000"
         id="polygon265" />
    </g>
    <g
       id="g284"
       transform="matrix(0.26458333,0,0,0.26458333,24.398363,5.1971724)">
      <title
         id="title280">Down Vertical Mark, DV</title>
      <polygon
         points="4,40 4,4 0,0 12,0 8,4 8,40 "
         style="fill:#000000"
         id="polygon282" />
    </g>
    <g
       id="g290"
       transform="matrix(0,-0.26458333,0.26458333,0,14.873363,7.313839)">
      <title
         id="title286">Right Horizontal Mark, RH</title>
      <polygon
         points="0,0 12,0 8,4 8,40 4,40 4,4 "
         style="fill:#000000"
         id="polygon288" />
    </g>
    <g
       id="g296"
       transform="matrix(0,-0.26458333,0.26458333,0,14.873363,16.838839)">
      <title
         id="title292">Right Horizontal Mark, RH</title>
      <polygon
         points="12,0 8,4 8,40 4,40 4,4 0,0 "
         style="fill:#000000"
         id="polygon294" />
    </g>
    <polygon
       points="4,40 4,22 0,18 4,18 4,4 0,0 12,0 8,4 8,18 12,18 8,22 8,40 "
       style="fill:#000000"
       id="polygon324"
       transform="matrix(0.26458333,0,0,0.26458333,21.223363,5.1971724)">
      <title
         id="title352">Down Vertical Head-to-Tail Mark, DVHT</title>
    </polygon>
    <g
       id="g376"
       transform="matrix(0.26458333,0,0,0.26458333,25.144865,4.970387)">
      <title
         id="title372">Northeast Corner Connector, NEC</title>
      <circle
         cx="3"
         cy="3"
         r="3"
         style="fill:#000000"
         id="circle374" />
    </g>
    <g
       id="g393"
       transform="matrix(0.26458333,0,0,0.26458333,25.23936,14.419791)">
      <title
         id="title389">Southeast Corner Connector, SEC</title>
      <circle
         cx="3"
         cy="3"
         r="3"
         style="fill:#000000"
         id="circle391" />
    </g>
    <g
       id="g399"
       transform="matrix(0.26458333,0,0,0.26458333,22.026563,14.467038)">
      <title
         id="title475">Bottom 2 Touch Connector, B2T</title>
      <desc
         id="desc425">2 Cross Connector, 2C</desc>
      <circle
         cx="3"
         cy="3"
         r="3"
         style="fill:#000000"
         id="circle397" />
    </g>
    <g
       id="g417"
       transform="matrix(0.26458333,0,0,0.26458333,14.561532,14.325297)">
      <title
         id="title413">Southwest Corner Connector, SWC</title>
      <circle
         cx="3"
         cy="3"
         r="3"
         style="fill:#000000"
         id="circle415" />
    </g>
    <g
       id="g423"
       transform="matrix(0.26458333,0,0,0.26458333,14.514285,5.0648807)">
      <title
         id="title419">Northwest Corner Connector, NWC</title>
      <circle
         cx="3"
         cy="3"
         r="3"
         style="fill:#000000"
         id="circle421" />
    </g>
    <g
       id="g405"
       transform="matrix(0.26458333,0,0,0.26458333,21.979315,5.0176337)">
      <title
         id="title401">Top 2 Connector, T2T</title>
      <circle
         cx="3"
         cy="3"
         r="3"
         style="fill:#000000"
         id="circle403" />
    </g>
    <polygon
       points="6,0 6,12 0,6 "
       style="fill:#000000"
       id="polygon445"
       transform="matrix(0.26458333,0,0,0.26458333,19.664211,10.980208)">
      <title
         id="title467">Heel Mark, HE</title>
    </polygon>
    <polygon
       points="6,12 0,6 6,0 "
       style="fill:#000000"
       id="polygon459"
       transform="matrix(0.26458333,0,0,0.26458333,16.971131,10.980208)">
      <title
         id="title469">Heel Mark, HE</title>
    </polygon>
    <polygon
       points="6,0 6,12 0,6 "
       style="fill:#000000"
       id="polygon461"
       transform="matrix(0.26458333,0,0,0.26458333,16.262426,6.7752232)">
      <title
         id="title471">Heel Mark, HE</title>
    </polygon>
    <polygon
       points="6,0 6,12 0,6 "
       style="fill:#000000"
       id="polygon463"
       transform="matrix(0.26458333,0,0,0.26458333,18.224122,6.7279763)">
      <title
         id="title473">Heel Mark, HE</title>
    </polygon>
    <polygon
       points="6,12 0,6 6,0 "
       style="fill:#000000"
       id="polygon465"
       transform="matrix(0.26458333,0,0,0.26458333,20.218022,6.7846724)">
      <title
         id="title1020">Heel Mark, HE</title>
    </polygon>
  </g>
</svg>
