<?xml version="1.0" encoding="UTF-8" standalone="no"?>
<svg
   xmlns:dc="http://purl.org/dc/elements/1.1/"
   xmlns:cc="http://creativecommons.org/ns#"
   xmlns:rdf="http://www.w3.org/1999/02/22-rdf-syntax-ns#"
   xmlns:svg="http://www.w3.org/2000/svg"
   xmlns="http://www.w3.org/2000/svg"
   width="160"
   height="80"
   viewBox="0 0 42.333332 21.166667"
   version="1.1"
   id="svg8">
  <defs
     id="defs2" />
  <metadata
     id="metadata5">
    <rdf:RDF>
      <cc:Work
         rdf:about="">
        <dc:format>image/svg+xml</dc:format>
        <dc:type
           rdf:resource="http://purl.org/dc/dcmitype/StillImage" />
        <dc:title></dc:title>
      </cc:Work>
    </rdf:RDF>
  </metadata>
  <g
     id="layer1">
    <polygon
       points="6,12 0,6 6,0 "
       style="fill:#000000"
       id="polygon1074"
       transform="matrix(0.26458333,0,0,0.26458333,11.821205,5.1215774)">
      <title
         id="title1143">Heel Mark, HE</title>
    </polygon>
    <polygon
       points="6,0 6,12 0,6 "
       style="fill:#000000"
       id="polygon1088"
       transform="matrix(0.26458333,0,0,0.26458333,11.821205,8.2965774)">
      <title
         id="title1141">Heel Mark, HE</title>
    </polygon>
    <polygon
       points="6,12 0,6 6,0 "
       style="fill:#000000"
       id="polygon1090"
       transform="matrix(0.26458333,0,0,0.26458333,11.821205,11.471577)">
      <title
         id="title1137">Heel Mark, HE</title>
    </polygon>
    <polygon
       points="0,6 6,0 6,12 "
       style="fill:#000000"
       id="polygon1092"
       transform="matrix(0.26458333,0,0,0.26458333,13.33311,5.168824)">
      <title
         id="title1145">Heel Mark, HE</title>
    </polygon>
    <polygon
       points="6,0 6,12 0,6 "
       style="fill:#000000"
       id="polygon1094"
       transform="matrix(0.26458333,0,0,0.26458333,13.33311,8.343824)">
      <title
         id="title1139">Heel Mark, HE</title>
    </polygon>
    <polygon
       points="6,12 0,6 6,0 "
       style="fill:#000000"
       id="polygon1096"
       transform="matrix(0.26458333,0,0,0.26458333,13.33311,11.518824)">
      <title
         id="title1135">Heel Mark, HE</title>
    </polygon>
    <g
       id="g1165"
       transform="matrix(0.26458333,0,0,0.26458333,14.92061,4.5603585)">
      <title
         id="title1161">Down Vertical Mark, DV</title>
      <polygon
         points="8,4 8,40 4,40 4,4 0,0 12,0 "
         style="fill:#000000"
         id="polygon1163" />
    </g>
    <g
       id="g1182"
       transform="matrix(0.26458333,0,0,0.26458333,26.509398,4.295775)">
      <title
         id="title1178">Down Vertical Mark, DV</title>
      <polygon
         points="4,4 0,0 12,0 8,4 8,40 4,40 "
         style="fill:#000000"
         id="polygon1180" />
    </g>
    <g
       id="g1188"
       transform="matrix(0,-0.26458333,0.26458333,0,17.037277,6.4124416)">
      <title
         id="title1184">Right Horizontal Mark, RH</title>
      <polygon
         points="4,4 0,0 12,0 8,4 8,40 4,40 "
         style="fill:#000000"
         id="polygon1186" />
    </g>
    <g
       id="g1194"
       transform="matrix(0,-0.26458333,0.26458333,0,17.037277,15.910983)">
      <title
         id="title1190">Right Horizontal Mark, RH</title>
      <polygon
         points="4,4 0,0 12,0 8,4 8,40 4,40 "
         style="fill:#000000"
         id="polygon1192" />
    </g>
    <circle
       style="fill:#000000;fill-rule:evenodd;stroke-width:0.264583"
       id="circle1198"
       cx="28.017487"
       cy="14.268603"
       r="0.79374999">
      <title
         id="title1196">Southeast Corner Connector, SEC</title>
    </circle>
    <circle
       style="fill:#000000;fill-rule:evenodd;stroke-width:0.264583"
       id="circle1202"
       cx="17.245165"
       cy="14.268603"
       r="0.79374999">
      <title
         id="title1200">Southwest Corner Connector, SWC</title>
    </circle>
    <circle
       style="fill:#000000;fill-rule:evenodd;stroke-width:0.264583"
       id="circle1210"
       cx="28.064732"
       cy="4.8191986"
       r="0.79374999">
      <title
         id="title1208">Northeast Corner Connector, NEC</title>
    </circle>
    <circle
       style="fill:#000000;fill-rule:evenodd;stroke-width:0.264583"
       id="circle965"
       cx="17.197916"
       cy="4.9136925"
       r="0.79374999">
      <title
         id="title963">Northwest Corner Connector, NWC</title>
    </circle>
  </g>
</svg>
