<?xml version="1.0" encoding="UTF-8" standalone="no"?>
<svg
   xmlns:dc="http://purl.org/dc/elements/1.1/"
   xmlns:cc="http://creativecommons.org/ns#"
   xmlns:rdf="http://www.w3.org/1999/02/22-rdf-syntax-ns#"
   xmlns:svg="http://www.w3.org/2000/svg"
   xmlns="http://www.w3.org/2000/svg"
   xmlns:sodipodi="http://sodipodi.sourceforge.net/DTD/sodipodi-0.dtd"
   xmlns:inkscape="http://www.inkscape.org/namespaces/inkscape"
   width="160"
   height="80"
   viewBox="0 0 42.333332 21.166667"
   version="1.1"
   id="svg8"
   inkscape:version="1.0.2-2 (e86c870879, 2021-01-15)"
   sodipodi:docname="cdli176.svg">
  <defs
     id="defs2" />
  <sodipodi:namedview
     id="base"
     pagecolor="#ffffff"
     bordercolor="#666666"
     borderopacity="1.0"
     inkscape:pageopacity="0.0"
     inkscape:pageshadow="2"
     inkscape:zoom="5.6"
     inkscape:cx="78.810065"
     inkscape:cy="50.300067"
     inkscape:document-units="px"
     inkscape:current-layer="layer1"
     inkscape:document-rotation="0"
     showgrid="false"
     units="px"
     inkscape:window-width="1755"
     inkscape:window-height="1020"
     inkscape:window-x="171"
     inkscape:window-y="2"
     inkscape:window-maximized="0" />
  <metadata
     id="metadata5">
    <rdf:RDF>
      <cc:Work
         rdf:about="">
        <dc:format>image/svg+xml</dc:format>
        <dc:type
           rdf:resource="http://purl.org/dc/dcmitype/StillImage" />
        <dc:title></dc:title>
      </cc:Work>
    </rdf:RDF>
  </metadata>
  <g
     inkscape:label="Layer 1"
     inkscape:groupmode="layer"
     id="layer1">
    <g
       id="g1044"
       transform="matrix(0.09049282,-0.248627,0.248627,0.09049282,16.458669,7.8838716)">
      <title
         id="title1040">Right Down Diagonal  Mark, RDD</title>
      <polygon
         points="4,20 4,4 0,0 12,0 8,4 8,20 "
         style="fill:#000000"
         id="polygon1042"
         transform="rotate(15,-70.27678,29.516317)" />
    </g>
    <polygon
       points="4,4 0,0 12,0 8,4 8,15 4,15 "
       style="fill:#000000"
       id="polygon1056"
       transform="matrix(0.15175875,-0.21673398,0.21673398,0.15175875,6.5640478,10.23536)">
      <title
         id="title1068">Right Down Diagonal  Mark, RDD</title>
    </polygon>
    <polygon
       points="0,0 12,0 8,4 8,15 4,15 4,4 "
       style="fill:#000000"
       id="polygon1060"
       transform="matrix(0.15175875,-0.21673398,0.21673398,0.15175875,6.6931645,13.449518)">
      <title
         id="title1070">Right Down Diagonal  Mark, RDD</title>
    </polygon>
    <polygon
       points="12,28 8,32 8,60 4,60 4,32 0,28 4,28 4,4 0,0 12,0 8,4 8,28 "
       style="fill:#000000"
       id="polygon1084"
       transform="matrix(0,-0.26458333,0.26458333,0,10.772321,11.887351)">
      <title
         id="title1159">Right Horizontal Head-to-Tail Mark, RHHT</title>
    </polygon>
    <polygon
       points="0,20 4,20 4,4 0,0 12,0 8,4 8,20 12,20 8,24 8,50 4,50 4,24 "
       style="fill:#000000"
       id="polygon1100"
       transform="matrix(0.26458333,0,0,0.26458333,19.080162,3.2885062)">
      <title
         id="title1157">Down Vertical Head-to-Tail Mark, DVHT</title>
    </polygon>
    <g
       id="g1120"
       transform="matrix(0,-0.26458333,0.26458333,0,10.772321,15.062351)">
      <title
         id="title1116">Right Horizontal Mark, RH</title>
      <polygon
         points="4,4 0,0 12,0 8,4 8,62 4,62 "
         style="fill:#000000"
         id="polygon1118" />
    </g>
    <polygon
       points="4,24 0,20 4,20 4,4 0,0 12,0 8,4 8,20 12,20 8,24 8,50 4,50 "
       style="fill:#000000"
       id="polygon1133"
       transform="matrix(0.26458333,0,0,0.26458333,14.873287,3.2885062)">
      <title
         id="title1155">Down Vertical Head-to-Tail Mark, DVHT</title>
    </polygon>
    <circle
       style="fill:#000000;fill-rule:evenodd;stroke-width:0.264583"
       id="circle1066"
       cx="16.394714"
       cy="10.252604"
       r="0.79374999">
      <title
         id="title1064">2 Cross Connector, 2C</title>
    </circle>
    <circle
       style="fill:#000000;fill-rule:evenodd;stroke-width:0.264583"
       id="circle1006"
       cx="26.930803"
       cy="10.252604"
       r="0.79374999">
      <title
         id="title1008">Other 2 Touch Connector, O2T</title>
    </circle>
    <circle
       style="fill:#000000;fill-rule:evenodd;stroke-width:0.264583"
       id="circle1137"
       cx="10.677827"
       cy="10.87067"
       r="0.79374999">
      <title
         id="title1135">Other 2 Touch Connector, O2T</title>
    </circle>
    <circle
       style="fill:#000000;fill-rule:evenodd;stroke-width:0.264583"
       id="circle1141"
       cx="10.725074"
       cy="14.410342"
       r="0.79374999">
      <title
         id="title1139">Other 2 Touch Connector, O2T</title>
    </circle>
    <circle
       style="fill:#000000;fill-rule:evenodd;stroke-width:0.264583"
       id="circle1145"
       cx="20.646948"
       cy="10.205357"
       r="0.79374999">
      <title
         id="title1143">2 Cross Connector, 2C</title>
    </circle>
    <circle
       style="fill:#000000;fill-rule:evenodd;stroke-width:0.264583"
       id="circle1149"
       cx="20.646948"
       cy="13.465401"
       r="0.79374999">
      <title
         id="title1147">2 Cross Connector, 2C</title>
    </circle>
    <circle
       style="fill:#000000;fill-rule:evenodd;stroke-width:0.264583"
       id="circle1153"
       cx="16.394716"
       cy="13.512648"
       r="0.79374999">
      <title
         id="title1151">2 Cross Connector, 2C</title>
    </circle>
  </g>
</svg>
