<?xml version="1.0" encoding="UTF-8" standalone="no"?>
<svg
   xmlns:dc="http://purl.org/dc/elements/1.1/"
   xmlns:cc="http://creativecommons.org/ns#"
   xmlns:rdf="http://www.w3.org/1999/02/22-rdf-syntax-ns#"
   xmlns:svg="http://www.w3.org/2000/svg"
   xmlns="http://www.w3.org/2000/svg"
   width="160"
   height="80"
   viewBox="0 0 42.333332 21.166667"
   version="1.1"
   id="svg8">
  <defs
     id="defs2" />
  <metadata
     id="metadata5">
    <rdf:RDF>
      <cc:Work
         rdf:about="">
        <dc:format>image/svg+xml</dc:format>
        <dc:type
           rdf:resource="http://purl.org/dc/dcmitype/StillImage" />
        <dc:title></dc:title>
      </cc:Work>
    </rdf:RDF>
  </metadata>
  <g
     id="layer1">
    <g
       id="g1751"
       transform="matrix(0,-0.26458333,0.26458333,0,15.570729,12.295452)">
      <title
         id="title1747">Right Horizontal Mark, RH</title>
      <polygon
         points="8,4 8,50 4,50 4,4 0,0 12,0 "
         style="fill:#000000"
         id="polygon1749" />
    </g>
    <g
       id="g1799"
       transform="matrix(0.26458333,0,0,0.26458333,20.250074,5.5353478)">
      <title
         id="title1795">Down Vertical Mark, DV</title>
      <polygon
         points="8,40 4,40 4,4 0,0 12,0 8,4 "
         style="fill:#000000"
         id="polygon1797" />
    </g>
    <g
       id="g1859"
       transform="matrix(0,-0.26458333,0.26458333,0,15.570729,15.470452)">
      <title
         id="title1855">Right Horizontal Mark, RH</title>
      <polygon
         points="4,4 0,0 12,0 8,4 8,50 4,50 "
         style="fill:#000000"
         id="polygon1857" />
    </g>
    <g
       id="g1865"
       transform="matrix(0,-0.26458333,0.26458333,0,15.570729,9.120452)">
      <title
         id="title1861">Right Horizontal Mark, RH</title>
      <polygon
         points="4,4 0,0 12,0 8,4 8,50 4,50 "
         style="fill:#000000"
         id="polygon1863" />
    </g>
    <circle
       style="fill:#000000;fill-rule:evenodd;stroke-width:0.264583"
       id="circle1849"
       cx="21.813044"
       cy="7.4650297"
       r="0.79374999">
      <title
         id="title1851">2 Cross Connector, 2C</title>
    </circle>
    <circle
       style="fill:#000000;fill-rule:evenodd;stroke-width:0.264583"
       id="circle1869"
       cx="21.828125"
       cy="10.677827"
       r="0.79374999">
      <title
         id="title1867">2 Cross Connector, 2C</title>
    </circle>
    <circle
       style="fill:#000000;fill-rule:evenodd;stroke-width:0.264583"
       id="circle1873"
       cx="21.828125"
       cy="13.843377"
       r="0.79374999">
      <title
         id="title1871">2 Cross Connector, 2C</title>
    </circle>
  </g>
</svg>
