<?xml version="1.0" encoding="UTF-8" standalone="no"?>
<svg
   xmlns:dc="http://purl.org/dc/elements/1.1/"
   xmlns:cc="http://creativecommons.org/ns#"
   xmlns:rdf="http://www.w3.org/1999/02/22-rdf-syntax-ns#"
   xmlns:svg="http://www.w3.org/2000/svg"
   xmlns="http://www.w3.org/2000/svg"
   width="160"
   height="80"
   viewBox="0 0 42.333332 21.166667"
   version="1.1"
   id="svg8">
  <defs
     id="defs2" />
  <metadata
     id="metadata5">
    <rdf:RDF>
      <cc:Work
         rdf:about="">
        <dc:format>image/svg+xml</dc:format>
        <dc:type
           rdf:resource="http://purl.org/dc/dcmitype/StillImage" />
        <dc:title></dc:title>
      </cc:Work>
    </rdf:RDF>
  </metadata>
  <g
     id="layer1">
    <g
       id="g495"
       transform="matrix(0.26458333,0,0,0.26458333,10.054223,1.0262056)">
      <title
         id="title491">Down Vertical Mark, DV</title>
      <polygon
         points="4,4 0,0 12,0 8,4 8,72 4,72 "
         style="fill:#000000"
         id="polygon493" />
    </g>
    <g
       id="g512"
       transform="matrix(0.26458333,0,0,0.26458333,29.10411,1.0791222)">
      <title
         id="title508">Down Vertical Mark, DV</title>
      <polygon
         points="8,72 4,72 4,4 0,0 12,0 8,4 "
         style="fill:#000000"
         id="polygon510" />
    </g>
    <g
       id="g518"
       transform="matrix(0,-0.26458333,0.26458333,0,11.112557,3.2222472)">
      <title
         id="title514">Right Horizontal Mark, RH</title>
      <polygon
         points="4,4 0,0 12,0 8,4 8,72 4,72 "
         style="fill:#000000"
         id="polygon516" />
    </g>
    <g
       id="g524"
       transform="matrix(0,-0.26458333,0.26458333,0,11.112557,21.213914)">
      <title
         id="title520">Right Horizontal Mark, RH</title>
      <polygon
         points="8,72 4,72 4,4 0,0 12,0 8,4 "
         style="fill:#000000"
         id="polygon522" />
    </g>
    <g
       id="g376"
       transform="matrix(0.26458333,0,0,0.26458333,29.746782,0.96383972)">
      <title
         id="title372">Northeast Corner Connector, NEC</title>
      <circle
         cx="3"
         cy="3"
         r="3"
         style="fill:#000000"
         id="circle374" />
    </g>
    <g
       id="g423"
       transform="matrix(0.26458333,0,0,0.26458333,10.847973,0.86934533)">
      <title
         id="title419">Northwest Corner Connector, NWC</title>
      <circle
         cx="3"
         cy="3"
         r="3"
         style="fill:#000000"
         id="circle421" />
    </g>
    <g
       id="g417"
       transform="matrix(0.26458333,0,0,0.26458333,11.131455,18.870462)">
      <title
         id="title413">Southwest Corner Connector, SWC</title>
      <circle
         cx="3"
         cy="3"
         r="3"
         style="fill:#000000"
         id="circle415" />
    </g>
    <g
       id="g393"
       transform="matrix(0.26458333,0,0,0.26458333,29.888524,18.775968)">
      <title
         id="title389">Southeast Corner Connector, SEC</title>
      <circle
         cx="3"
         cy="3"
         r="3"
         style="fill:#000000"
         id="circle391" />
    </g>
    <polygon
       points="4,60 4,32 0,28 4,28 4,4 0,0 12,0 8,4 8,28 12,28 8,32 8,60 "
       style="fill:#000000"
       id="polygon609"
       transform="matrix(0.26458333,0,0,0.26458333,20.212334,3.199493)">
      <title
         id="title735">Down Vertical Head-to-Tail Mark, DVHT</title>
    </polygon>
    <g
       id="g649"
       transform="matrix(0,-0.26458333,0.26458333,0,14.629549,6.374493)">
      <title
         id="title645">Right Horizontal Mark, RH</title>
      <polygon
         points="12,0 8,4 8,25 4,25 4,4 0,0 "
         style="fill:#000000"
         id="polygon647" />
    </g>
    <g
       id="g666"
       transform="matrix(0,-0.26458333,0.26458333,0,14.65786,17.944421)">
      <title
         id="title662">Right Horizontal Mark, RH</title>
      <polygon
         points="8,4 8,25 4,25 4,4 0,0 12,0 "
         style="fill:#000000"
         id="polygon664" />
    </g>
    <g
       id="g672"
       transform="matrix(0,-0.26458333,0.26458333,0,14.65786,14.213833)">
      <title
         id="title668">Right Horizontal Mark, RH</title>
      <polygon
         points="8,4 8,25 4,25 4,4 0,0 12,0 "
         style="fill:#000000"
         id="polygon670" />
    </g>
    <g
       id="g678"
       transform="matrix(0,-0.26458333,0.26458333,0,14.656084,10.212803)">
      <title
         id="title674">Right Horizontal Mark, RH</title>
      <polygon
         points="8,4 8,25 4,25 4,4 0,0 12,0 "
         style="fill:#000000"
         id="polygon676" />
    </g>
    <g
       id="g698"
       transform="matrix(0.26458333,0,0,0.26458333,20.958836,18.681474)">
      <title
         id="title694">Bottom 2 Touch Connector, B2T</title>
      <circle
         cx="3"
         cy="3"
         r="3"
         style="fill:#000000"
         id="circle696" />
    </g>
    <g
       id="g715"
       transform="matrix(0.26458333,0,0,0.26458333,20.911589,15.610417)">
      <title
         id="title711">Right 2 Touch Connector, R2T</title>
      <circle
         cx="3"
         cy="3"
         r="3"
         style="fill:#000000"
         id="circle713" />
    </g>
    <g
       id="g721"
       transform="matrix(0.26458333,0,0,0.26458333,20.911589,11.877903)">
      <title
         id="title717">Right 2 Touch Connector, R2T</title>
      <circle
         cx="3"
         cy="3"
         r="3"
         style="fill:#000000"
         id="circle719" />
    </g>
    <g
       id="g727"
       transform="matrix(0.26458333,0,0,0.26458333,21.006083,7.8619054)">
      <title
         id="title723">Right 2 Touch Connector, R2T</title>
      <circle
         cx="3"
         cy="3"
         r="3"
         style="fill:#000000"
         id="circle725" />
    </g>
    <g
       id="g733"
       transform="matrix(0.26458333,0,0,0.26458333,20.817095,4.0821435)">
      <title
         id="title729">Northeast Corner Connector, NEC</title>
      <circle
         cx="3"
         cy="3"
         r="3"
         style="fill:#000000"
         id="circle731" />
    </g>
    <g
       id="g1113"
       transform="matrix(0.13229167,-0.22913588,0.22913588,0.13229167,25.896887,15.406197)">
      <title
         id="title1109">Right Down Diagonal Mark, RDD</title>
      <polygon
         points="0,0 12,0 8,4 8,25 4,25 4,4 "
         style="fill:#000000"
         id="polygon1111" />
    </g>
    <g
       id="g1130"
       transform="matrix(0.13229167,-0.22913588,0.22913588,0.13229167,25.866659,6.712745)">
      <title
         id="title1126">Right Down Diagonal Mark, RDD</title>
      <polygon
         points="8,4 8,25 4,25 4,4 0,0 12,0 "
         style="fill:#000000"
         id="polygon1128" />
    </g>
    <g
       id="g1136"
       transform="matrix(0.13229167,-0.22913588,0.22913588,0.13229167,25.866659,10.775989)">
      <title
         id="title1132">Right Down Diagonal Mark, RDD</title>
      <polygon
         points="0,0 12,0 8,4 8,25 4,25 4,4 "
         style="fill:#000000"
         id="polygon1134" />
    </g>
    <g
       id="g1142"
       transform="matrix(0.26458333,0,0,0.26458333,29.888524,15.421429)">
      <title
         id="title1138">2 Cross Connector, 2c</title>
      <circle
         cx="3"
         cy="3"
         r="3"
         style="fill:#000000"
         id="circle1140" />
    </g>
    <g
       id="g1148"
       transform="matrix(0.26458333,0,0,0.26458333,29.888524,6.8224711)">
      <title
         id="title1144">2 Cross Connector, 2c</title>
      <circle
         cx="3"
         cy="3"
         r="3"
         style="fill:#000000"
         id="circle1146" />
    </g>
    <g
       id="g1154"
       transform="matrix(0.26458333,0,0,0.26458333,30.12476,10.980209)">
      <title
         id="title1150">2 Cross Connector, 2c</title>
      <circle
         cx="3"
         cy="3"
         r="3"
         style="fill:#000000"
         id="circle1152" />
    </g>
  </g>
</svg>
