<?xml version="1.0" encoding="UTF-8" standalone="no"?>
<svg
   xmlns:dc="http://purl.org/dc/elements/1.1/"
   xmlns:cc="http://creativecommons.org/ns#"
   xmlns:rdf="http://www.w3.org/1999/02/22-rdf-syntax-ns#"
   xmlns:svg="http://www.w3.org/2000/svg"
   xmlns="http://www.w3.org/2000/svg"
   width="160"
   height="80"
   viewBox="0 0 42.333332 21.166667"
   version="1.1"
   id="svg8">
  <defs
     id="defs2" />
  <metadata
     id="metadata5">
    <rdf:RDF>
      <cc:Work
         rdf:about="">
        <dc:format>image/svg+xml</dc:format>
        <dc:type
           rdf:resource="http://purl.org/dc/dcmitype/StillImage" />
        <dc:title></dc:title>
      </cc:Work>
    </rdf:RDF>
  </metadata>
  <g
     id="layer1">
    <g
       id="g857"
       transform="matrix(0,-0.26458333,0.26458333,0,24.993675,17.4625)">
      <title
         id="title853">Right Horizontal Mark, RH</title>
      <polygon
         points="8,40 4,40 4,4 0,0 12,0 8,4 "
         style="fill:#000000"
         id="polygon855" />
    </g>
    <g
       id="g874"
       transform="matrix(0.13229166,-0.22913589,0.22913589,0.13229166,25.882406,11.790972)">
      <title
         id="title870">Right Down Diagonal Mark, RDD</title>
      <polygon
         points="12,0 8,4 8,40 4,40 4,4 0,0 "
         style="fill:#000000"
         id="polygon872" />
    </g>
    <g
       id="g894"
       transform="matrix(0.26458333,0,0,0.26458333,25.957515,12.992932)">
      <title
         id="title890">Down Vertical Mark, DV</title>
      <polygon
         points="4,4 0,0 12,0 8,4 8,25 4,25 "
         style="fill:#000000"
         id="polygon892" />
    </g>
    <g
       id="g925"
       transform="matrix(0,-0.26458333,0.26458333,0,8.2781164,11.694584)">
      <title
         id="title921">Right Horizontal Mark, RH</title>
      <polygon
         points="8,4 8,72 4,72 4,4 0,0 12,0 "
         style="fill:#000000"
         id="polygon923" />
    </g>
    <g
       id="g942"
       transform="matrix(0.18708867,-0.18708866,0.18708866,0.18708867,19.948789,15.822951)">
      <title
         id="title938">Right Down Diagonal Mark, RDD</title>
      <polygon
         points="12,0 8,4 8,25 4,25 4,4 0,0 "
         style="fill:#000000"
         id="polygon940" />
    </g>
    <polygon
       points="8,4 8,18 12,18 8,22 8,40 4,40 4,22 0,18 4,18 4,4 0,0 12,0 "
       style="fill:#000000"
       id="polygon982"
       transform="matrix(0.26458333,0,0,0.26458333,9.9880208,7.7012644)">
      <title
         id="title1034">Down Vertical Head-to-Tail Mark, DVHT</title>
    </polygon>
    <polygon
       points="0,6 6,0 6,12 "
       style="fill:#000000"
       id="polygon1008"
       transform="matrix(0.26458333,0,0,0.26458333,19.759612,11.011516)">
      <title
         id="title1030">Heel Mark, HE</title>
    </polygon>
    <g
       id="g1026"
       transform="matrix(0,-0.26458333,0.26458333,0,7.9847465,17.368006)">
      <title
         id="title1022">Right Horizontal Mark, RH</title>
      <polygon
         points="0,0 12,0 8,4 8,40 4,40 4,4 "
         style="fill:#000000"
         id="polygon1024" />
    </g>
    <polygon
       points="6,12 0,6 6,0 "
       style="fill:#000000"
       id="polygon1028"
       transform="matrix(0.26458333,0,0,0.26458333,18.066279,12.599016)">
      <title
         id="title1032">Heel Mark, HE</title>
    </polygon>
    <circle
       style="fill:#000000;fill-rule:evenodd;stroke-width:0.264583"
       id="path839"
       cx="27.545012"
       cy="15.733258"
       r="0.79374999">
      <title
         id="title1086">2 Cross Connector, 2C</title>
    </circle>
    <circle
       style="fill:#000000;fill-rule:evenodd;stroke-width:0.264583"
       id="circle1078"
       cx="35.954979"
       cy="15.874999"
       r="0.79374999">
      <title
         id="title1092">Other 2 Touch Connector, O2T</title>
    </circle>
    <circle
       style="fill:#000000;fill-rule:evenodd;stroke-width:0.264583"
       id="circle1080"
       cx="26.930799"
       cy="10.29985"
       r="0.79374999">
      <title
         id="title1094">Other 2 Touch Connector, O2T</title>
    </circle>
    <circle
       style="fill:#000000;fill-rule:evenodd;stroke-width:0.264583"
       id="circle1082"
       cx="11.575517"
       cy="10.016368"
       r="0.79374999">
      <title
         id="title1088">2 Cross Connector, 2C</title>
    </circle>
    <circle
       style="fill:#000000;fill-rule:evenodd;stroke-width:0.264583"
       id="circle1084"
       cx="11.575517"
       cy="15.874999"
       r="0.79374999">
      <title
         id="title1090">2 Cross Connector, 2C</title>
    </circle>
  </g>
</svg>
