<?xml version="1.0" encoding="UTF-8" standalone="no"?>
<svg
   xmlns:dc="http://purl.org/dc/elements/1.1/"
   xmlns:cc="http://creativecommons.org/ns#"
   xmlns:rdf="http://www.w3.org/1999/02/22-rdf-syntax-ns#"
   xmlns:svg="http://www.w3.org/2000/svg"
   xmlns="http://www.w3.org/2000/svg"
   width="160"
   height="80"
   viewBox="0 0 42.333332 21.166667"
   version="1.1"
   id="svg8">
  <defs
     id="defs2" />
  <metadata
     id="metadata5">
    <rdf:RDF>
      <cc:Work
         rdf:about="">
        <dc:format>image/svg+xml</dc:format>
        <dc:type
           rdf:resource="http://purl.org/dc/dcmitype/StillImage" />
        <dc:title></dc:title>
      </cc:Work>
    </rdf:RDF>
  </metadata>
  <g
     id="layer1">
    <g
       id="g1287"
       transform="matrix(0.22913589,-0.13229167,0.13229167,0.22913589,5.9586502,7.9404504)">
      <title
         id="title1283">Right Down Diagonal Mark, RDD</title>
      <polygon
         points="8,15 4,15 4,4 0,0 12,0 8,4 "
         style="fill:#000000"
         id="polygon1285"
         transform="rotate(-15,109.97652,-71.749461)" />
    </g>
    <g
       id="g1150"
       transform="matrix(0.18708867,-0.18708867,0.18708867,0.18708867,17.156377,10.201614)">
      <title
         id="title1146">Right Down Diagonal Mark, RDD</title>
      <polygon
         points="8,25 4,25 4,4 0,0 12,0 8,4 "
         style="fill:#000000"
         id="polygon1148" />
    </g>
    <g
       id="g1167"
       transform="matrix(0.26458333,0,0,0.26458333,17.330208,4.063244)">
      <title
         id="title1163">Down Vertical Mark, DV</title>
      <polygon
         points="12,0 8,4 8,25 4,25 4,4 0,0 "
         style="fill:#000000"
         id="polygon1165" />
    </g>
    <g
       id="g1195"
       transform="matrix(0.26458333,0,0,0.26458333,26.855208,4.063244)">
      <title
         id="title1191">Down Vertical Mark, DV</title>
      <polygon
         points="0,0 12,0 8,4 8,40 4,40 4,4 "
         style="fill:#000000"
         id="polygon1193" />
    </g>
    <g
       id="g1212"
       transform="matrix(0.26458333,0,0,0.26458333,23.680208,4.063244)">
      <title
         id="title1208">Down Vertical Mark, DV</title>
      <polygon
         points="8,40 4,40 4,4 0,0 12,0 8,4 "
         style="fill:#000000"
         id="polygon1210" />
    </g>
    <g
       id="g1218"
       transform="matrix(0.26458333,0,0,0.26458333,20.505208,4.063244)">
      <title
         id="title1214">Down Vertical Mark, DV</title>
      <polygon
         points="0,0 12,0 8,4 8,40 4,40 4,4 "
         style="fill:#000000"
         id="polygon1216" />
    </g>
    <g
       id="g1238"
       transform="matrix(0,-0.26458333,0.26458333,0,9.9407741,8.5800598)">
      <title
         id="title1234">Right Horizontal Mark, RH</title>
      <polygon
         points="4,4 0,0 12,0 8,4 8,50 4,50 "
         style="fill:#000000"
         id="polygon1236"
         transform="translate(0,17.89957)" />
    </g>
    <polygon
       points="6,0 6,12 0,6 "
       style="fill:#000000"
       id="polygon1263"
       transform="matrix(0.26458333,0,0,0.26458333,21.087292,1.814248)">
      <title
         id="title1277">Heel Mark, HE</title>
    </polygon>
    <circle
       style="fill:#000000;fill-rule:evenodd;stroke-width:0.264583"
       id="circle1319"
       cx="18.83032"
       cy="9.867959"
       r="0.79374999">
      <title
         id="title1317">Other 2 Touch Connector, O2T</title>
    </circle>
    <circle
       style="fill:#000000;fill-rule:evenodd;stroke-width:0.264583"
       id="circle1175"
       cx="25.255913"
       cy="6.9386425"
       r="0.79374999">
      <title
         id="title1173">2 Cross Connector, 2C</title>
    </circle>
    <circle
       style="fill:#000000;fill-rule:evenodd;stroke-width:0.264583"
       id="circle1171"
       cx="22.232105"
       cy="12.986261"
       r="0.79374999">
      <title
         id="title1169">Other 2 Touch Connector, O2T</title>
    </circle>
    <circle
       style="fill:#000000;fill-rule:evenodd;stroke-width:0.264583"
       id="circle1281"
       cx="22.137609"
       cy="6.938643"
       r="0.79374999">
      <title
         id="title1279">2 Cross Connector, 2C</title>
    </circle>
    <circle
       style="fill:#000000;fill-rule:evenodd;stroke-width:0.264583"
       id="circle1286"
       cx="18.830318"
       cy="6.938643"
       r="0.79374999">
      <title
         id="title1284">2 Cross Connector, 2C</title>
    </circle>
    <circle
       style="fill:#000000;fill-rule:evenodd;stroke-width:0.264583"
       id="circle1290"
       cx="28.374216"
       cy="6.8441482"
       r="0.79374999">
      <title
         id="title1288">Right 2 Touch Connector, R2T</title>
    </circle>
  </g>
</svg>
