<?xml version="1.0" encoding="UTF-8" standalone="no"?>
<svg
   xmlns:dc="http://purl.org/dc/elements/1.1/"
   xmlns:cc="http://creativecommons.org/ns#"
   xmlns:rdf="http://www.w3.org/1999/02/22-rdf-syntax-ns#"
   xmlns:svg="http://www.w3.org/2000/svg"
   xmlns="http://www.w3.org/2000/svg"
   width="160"
   height="80"
   viewBox="0 0 42.333332 21.166667"
   version="1.1"
   id="svg8">
  <defs
     id="defs2" />
  <metadata
     id="metadata5">
    <rdf:RDF>
      <cc:Work
         rdf:about="">
        <dc:format>image/svg+xml</dc:format>
        <dc:type
           rdf:resource="http://purl.org/dc/dcmitype/StillImage" />
        <dc:title></dc:title>
      </cc:Work>
    </rdf:RDF>
  </metadata>
  <g
     id="layer1">
    <g
       id="g1165"
       transform="matrix(0.26458333,0,0,0.26458333,14.92061,4.5603585)">
      <title
         id="title1161">Down Vertical Mark, DV</title>
      <polygon
         points="4,4 0,0 12,0 8,4 8,40 4,40 "
         style="fill:#000000"
         id="polygon1163" />
    </g>
    <g
       id="g1230"
       transform="matrix(0.18708867,-0.18708867,0.18708867,0.18708867,4.7134967,12.650996)">
      <title
         id="title1226">Right Down Diagonal Mark, RDD</title>
      <polygon
         points="0,0 12,0 8,4 8,20 4,20 4,4 "
         style="fill:#000000"
         id="polygon1228"
         transform="rotate(-15,109.97652,-71.749461)" />
    </g>
    <g
       id="g1275"
       transform="matrix(0.26458333,0,0,0.26458333,18.09561,4.5603585)">
      <title
         id="title1271">Down Vertical Mark, DV</title>
      <polygon
         points="8,4 8,40 4,40 4,4 0,0 12,0 "
         style="fill:#000000"
         id="polygon1273" />
    </g>
    <g
       id="g1281"
       transform="matrix(0.26458333,0,0,0.26458333,21.27061,4.5603585)">
      <title
         id="title1277">Down Vertical Mark, DV</title>
      <polygon
         points="4,4 0,0 12,0 8,4 8,40 4,40 "
         style="fill:#000000"
         id="polygon1279" />
    </g>
    <g
       id="g1287"
       transform="matrix(0.18708867,-0.18708867,0.18708867,0.18708867,4.7230217,10.209421)">
      <title
         id="title1283">Right Down Diagonal Mark, RDD</title>
      <polygon
         points="8,20 4,20 4,4 0,0 12,0 8,4 "
         style="fill:#000000"
         id="polygon1285"
         transform="rotate(-15,109.97652,-71.749461)" />
    </g>
    <polygon
       points="0,6 6,0 6,12 "
       style="fill:#000000"
       id="polygon1301"
       transform="matrix(0.26458333,0,0,0.26458333,18.435788,2.5741312)">
      <title
         id="title1315">Heel Mark, HE</title>
    </polygon>
    <circle
       style="fill:#000000;fill-rule:evenodd;stroke-width:0.264583"
       id="path839"
       cx="16.468309"
       cy="13.040179"
       r="0.79374999">
      <title
         id="title1269">2 Cross Connector, 2C</title>
    </circle>
    <circle
       style="fill:#000000;fill-rule:evenodd;stroke-width:0.264583"
       id="circle1319"
       cx="19.208637"
       cy="14.504837"
       r="0.79374999">
      <title
         id="title1317">Other 2 Touch Connector, O2T</title>
    </circle>
    <circle
       style="fill:#000000;fill-rule:evenodd;stroke-width:0.264583"
       id="circle1323"
       cx="19.229538"
       cy="12.000744"
       r="0.79374999">
      <title
         id="title1321">Other 2 Touch Connector, O2T</title>
    </circle>
    <circle
       style="fill:#000000;fill-rule:evenodd;stroke-width:0.264583"
       id="circle1327"
       cx="16.61005"
       cy="10.583334"
       r="0.79374999">
      <title
         id="title1325">2 Cross Connector, 2C</title>
    </circle>
  </g>
</svg>
