<?xml version="1.0" encoding="UTF-8" standalone="no"?>
<svg
   xmlns:dc="http://purl.org/dc/elements/1.1/"
   xmlns:cc="http://creativecommons.org/ns#"
   xmlns:rdf="http://www.w3.org/1999/02/22-rdf-syntax-ns#"
   xmlns:svg="http://www.w3.org/2000/svg"
   xmlns="http://www.w3.org/2000/svg"
   width="160"
   height="80"
   viewBox="0 0 42.333332 21.166667"
   version="1.1"
   id="svg8">
  <defs
     id="defs2" />
  <metadata
     id="metadata5">
    <rdf:RDF>
      <cc:Work
         rdf:about="">
        <dc:format>image/svg+xml</dc:format>
        <dc:type
           rdf:resource="http://purl.org/dc/dcmitype/StillImage" />
        <dc:title></dc:title>
      </cc:Work>
    </rdf:RDF>
  </metadata>
  <g
     id="layer1">
    <g
       id="g34"
       transform="matrix(0.26458333,0,0,0.26458333,13.531548,5.1971722)">
      <title
         id="title30">Down Vertical Mark, DV</title>
      <polygon
         points="8,4 8,25 4,25 4,4 0,0 12,0 "
         style="fill:#000000"
         id="polygon32" />
    </g>
    <g
       id="g51"
       transform="matrix(0.26458333,0,0,0.26458333,16.706548,5.1971722)">
      <title
         id="title47">Down Vertical Mark, DV</title>
      <polygon
         points="12,0 8,4 8,25 4,25 4,4 0,0 "
         style="fill:#000000"
         id="polygon49" />
    </g>
    <g
       id="g57"
       transform="matrix(0.26458333,0,0,0.26458333,19.881548,5.1971722)">
      <title
         id="title53">Down Vertical Mark, DV</title>
      <polygon
         points="8,4 8,25 4,25 4,4 0,0 12,0 "
         style="fill:#000000"
         id="polygon55" />
    </g>
    <g
       id="g63"
       transform="matrix(0.26458333,0,0,0.26458333,15.19846,11.811755)">
      <title
         id="title59">Down Vertical Mark, DV</title>
      <polygon
         points="0,0 12,0 8,4 8,25 4,25 4,4 "
         style="fill:#000000"
         id="polygon61" />
    </g>
    <g
       id="g69"
       transform="matrix(0.26458333,0,0,0.26458333,18.188252,11.811755)">
      <title
         id="title65">Down Vertical Mark, DV</title>
      <polygon
         points="0,0 12,0 8,4 8,25 4,25 4,4 "
         style="fill:#000000"
         id="polygon67" />
    </g>
    <g
       id="g89"
       transform="matrix(0.26458333,0,0,0.26458333,19.097247,10.970759)">
      <title
         id="title85">Vertical 2 Touch Connector, V2T</title>
      <circle
         cx="3"
         cy="3"
         r="3"
         style="fill:#000000"
         id="circle87" />
    </g>
    <g
       id="g106"
       transform="matrix(0.26458333,0,0,0.26458333,16.073438,10.923512)">
      <title
         id="title102">Vertical 2 Touch Connector, V2T</title>
      <circle
         cx="3"
         cy="3"
         r="3"
         style="fill:#000000"
         id="circle104" />
    </g>
  </g>
</svg>
