<?xml version="1.0" encoding="UTF-8" standalone="no"?>
<svg
   xmlns:dc="http://purl.org/dc/elements/1.1/"
   xmlns:cc="http://creativecommons.org/ns#"
   xmlns:rdf="http://www.w3.org/1999/02/22-rdf-syntax-ns#"
   xmlns:svg="http://www.w3.org/2000/svg"
   xmlns="http://www.w3.org/2000/svg"
   xmlns:sodipodi="http://sodipodi.sourceforge.net/DTD/sodipodi-0.dtd"
   xmlns:inkscape="http://www.inkscape.org/namespaces/inkscape"
   width="160"
   height="80"
   viewBox="0 0 42.333332 21.166667"
   version="1.1"
   id="svg8"
   inkscape:version="1.0.2-2 (e86c870879, 2021-01-15)"
   sodipodi:docname="cdli219.svg">
  <defs
     id="defs2" />
  <sodipodi:namedview
     id="base"
     pagecolor="#ffffff"
     bordercolor="#666666"
     borderopacity="1.0"
     inkscape:pageopacity="0.0"
     inkscape:pageshadow="2"
     inkscape:zoom="5.6"
     inkscape:cx="67.926896"
     inkscape:cy="42.869151"
     inkscape:document-units="px"
     inkscape:current-layer="layer1"
     inkscape:document-rotation="0"
     showgrid="false"
     units="px"
     inkscape:window-width="1821"
     inkscape:window-height="962"
     inkscape:window-x="265"
     inkscape:window-y="23"
     inkscape:window-maximized="0" />
  <metadata
     id="metadata5">
    <rdf:RDF>
      <cc:Work
         rdf:about="">
        <dc:format>image/svg+xml</dc:format>
        <dc:type
           rdf:resource="http://purl.org/dc/dcmitype/StillImage" />
        <dc:title></dc:title>
      </cc:Work>
    </rdf:RDF>
  </metadata>
  <g
     inkscape:label="Layer 1"
     inkscape:groupmode="layer"
     id="layer1">
    <g
       id="g495"
       transform="matrix(0.26458333,0,0,0.26458333,8.9485862,0.78052083)">
      <title
         id="title491">Down Vertical Mark, DV</title>
      <polygon
         points="4,72 4,4 0,0 12,0 8,4 8,72 "
         style="fill:#000000"
         id="polygon493" />
    </g>
    <g
       id="g512"
       transform="matrix(0.26458333,0,0,0.26458333,27.998473,0.83343749)">
      <title
         id="title508">Down Vertical Mark, DV</title>
      <polygon
         points="0,0 12,0 8,4 8,72 4,72 4,4 "
         style="fill:#000000"
         id="polygon510" />
    </g>
    <g
       id="g518"
       transform="matrix(0,-0.26458333,0.26458333,0,10.00692,2.9765625)">
      <title
         id="title514">Right Horizontal Mark, RH</title>
      <polygon
         points="0,0 12,0 8,4 8,72 4,72 4,4 "
         style="fill:#000000"
         id="polygon516" />
    </g>
    <g
       id="g524"
       transform="matrix(0,-0.26458333,0.26458333,0,10.00692,20.968229)">
      <title
         id="title520">Right Horizontal Mark, RH</title>
      <polygon
         points="0,0 12,0 8,4 8,72 4,72 4,4 "
         style="fill:#000000"
         id="polygon522" />
    </g>
    <g
       id="g376"
       transform="matrix(0.26458333,0,0,0.26458333,28.641145,0.71815498)">
      <title
         id="title372">Northeast Corner Connector, NEC</title>
      <circle
         cx="3"
         cy="3"
         r="3"
         style="fill:#000000"
         id="circle374" />
    </g>
    <g
       id="g423"
       transform="matrix(0.26458333,0,0,0.26458333,9.7423358,0.62366059)">
      <title
         id="title419">Northwest Corner Connector, NWC</title>
      <circle
         cx="3"
         cy="3"
         r="3"
         style="fill:#000000"
         id="circle421" />
    </g>
    <g
       id="g417"
       transform="matrix(0.26458333,0,0,0.26458333,10.025818,18.624777)">
      <title
         id="title413">Southwest Corner Connector, SWC</title>
      <circle
         cx="3"
         cy="3"
         r="3"
         style="fill:#000000"
         id="circle415" />
    </g>
    <g
       id="g393"
       transform="matrix(0.26458333,0,0,0.26458333,28.877381,18.530283)">
      <title
         id="title389">Southeast Corner Connector, SEC</title>
      <circle
         cx="3"
         cy="3"
         r="3"
         style="fill:#000000"
         id="circle391" />
    </g>
    <g
       id="g879"
       transform="matrix(0.26458333,0,0,0.26458333,18.492485,1.8690167)">
      <title
         id="title875">Down Vertical Mark, DV</title>
      <polygon
         points="8,4 8,65 4,65 4,4 0,0 12,0 "
         style="fill:#000000"
         id="polygon877" />
    </g>
    <g
       id="g885"
       transform="matrix(0,-0.26458333,0.26458333,0,11.057731,11.896725)">
      <title
         id="title881">Right Horizontal Mark, RH</title>
      <polygon
         points="0,0 12,0 8,4 8,72 4,72 4,4 "
         style="fill:#000000"
         id="polygon883" />
    </g>
    <g
       id="g784"
       transform="matrix(0.26458333,0,0,0.26458333,19.238987,9.6005954)">
      <title
         id="title780">2 Cross Connector, 2C</title>
      <circle
         cx="3"
         cy="3"
         r="3"
         style="fill:#000000"
         id="circle782" />
    </g>
    <g
       id="g905"
       transform="matrix(0.26458333,0,0,0.26458333,19.427976,18.199554)">
      <title
         id="title901">Bottom 2 Touch Connector, B2T</title>
      <circle
         cx="3"
         cy="3"
         r="3"
         style="fill:#000000"
         id="circle903" />
    </g>
    <g
       id="g934"
       transform="matrix(0.26458333,0,0,0.26458333,28.404911,9.4588544)">
      <title
         id="title930">Right 2 Touch Connector, R2T</title>
      <circle
         cx="3"
         cy="3"
         r="3"
         style="fill:#000000"
         id="circle932" />
    </g>
    <g
       id="g922"
       transform="matrix(0.26458333,0,0,0.26458333,19.286235,1.4268604)">
      <title
         id="title918">Top 2 Touch Connector, T2T</title>
      <circle
         cx="3"
         cy="3"
         r="3"
         style="fill:#000000"
         id="circle920" />
    </g>
    <g
       id="g928"
       transform="matrix(0.26458333,0,0,0.26458333,10.403795,9.5061016)">
      <title
         id="title924">Left 2 Touch Connector, L2T</title>
      <circle
         cx="3"
         cy="3"
         r="3"
         style="fill:#000000"
         id="circle926" />
    </g>
  </g>
</svg>
