<?xml version="1.0" encoding="UTF-8" standalone="no"?>
<svg
   xmlns:dc="http://purl.org/dc/elements/1.1/"
   xmlns:cc="http://creativecommons.org/ns#"
   xmlns:rdf="http://www.w3.org/1999/02/22-rdf-syntax-ns#"
   xmlns:svg="http://www.w3.org/2000/svg"
   xmlns="http://www.w3.org/2000/svg"
   width="160"
   height="80"
   viewBox="0 0 42.333332 21.166667"
   version="1.1"
   id="svg8">
  <defs
     id="defs2" />
  <metadata
     id="metadata5">
    <rdf:RDF>
      <cc:Work
         rdf:about="">
        <dc:format>image/svg+xml</dc:format>
        <dc:type
           rdf:resource="http://purl.org/dc/dcmitype/StillImage" />
        <dc:title></dc:title>
      </cc:Work>
    </rdf:RDF>
  </metadata>
  <g
     id="layer1">
    <g
       id="g60"
       transform="matrix(0.26458333,0,0,0.26458333,11.635647,5.4219682)">
      <title
         id="title56">Down Vertical Mark, DV</title>
      <polygon
         points="4,4 0,0 12,0 8,4 8,30 4,30 "
         style="fill:#000000"
         id="polygon58" />
    </g>
    <g
       id="g77"
       transform="matrix(0.0684792,-0.25556787,0.25556787,0.0684792,12.930563,15.420753)">
      <title
         id="title73">Right Down Diagonal Mark, RDD</title>
      <polygon
         points="4,4 0,0 12,0 8,4 8,25 4,25 "
         style="fill:#000000"
         id="polygon75" />
    </g>
    <g
       id="g120"
       transform="matrix(0,-0.26458333,0.28242224,0,15.048771,13.650362)">
      <title
         id="title116">Right Horizontal Mark, RH</title>
      <polygon
         points="8,35 4,35 4,4 0,0 12,0 8,4 "
         style="fill:#000000"
         id="polygon118" />
    </g>
    <g
       id="g126"
       transform="matrix(0,-0.26458333,0.26458333,0,15.101688,10.501821)">
      <title
         id="title122">Right Horizontal Mark, RH</title>
      <polygon
         points="8,4 8,37 4,37 4,4 0,0 12,0 "
         style="fill:#000000"
         id="polygon124" />
    </g>
    <g
       id="g207"
       transform="matrix(0.26458333,0,0,0.26458333,20.605021,5.4219682)">
      <title
         id="title203">Down Vertical Mark, DV</title>
      <polygon
         points="0,0 12,0 8,4 8,40 4,40 4,4 "
         style="fill:#000000"
         id="polygon205" />
    </g>
    <g
       id="g189"
       transform="matrix(0.26458333,0,0,0.26458333,21.340224,8.099933)">
      <title
         id="title185">2 Cross Connector, 2C</title>
      <circle
         cx="3"
         cy="3"
         r="3"
         style="fill:#000000"
         id="circle187" />
    </g>
    <g
       id="g213"
       transform="matrix(0.26458333,0,0,0.26458333,21.292977,11.084168)">
      <title
         id="title209">2 Cross Connector, 2C</title>
      <circle
         cx="3"
         cy="3"
         r="3"
         style="fill:#000000"
         id="circle211" />
    </g>
    <g
       id="g154"
       transform="matrix(0.26458333,0,0,0.26458333,13.024746,12.809513)">
      <title
         id="title150">Other 2 Touch Connector, O2T</title>
      <circle
         cx="3"
         cy="3"
         r="3"
         style="fill:#000000"
         id="circle152" />
    </g>
    <polygon
       points="0,6 6,0 6,12 "
       style="fill:#000000"
       id="polygon233"
       transform="matrix(0.26458333,0,0,0.26458333,16.341497,2.8005937)">
      <title
         id="title247">Heel Mark, HE</title>
    </polygon>
  </g>
</svg>
