<?xml version="1.0" encoding="UTF-8" standalone="no"?>
<svg
   xmlns:dc="http://purl.org/dc/elements/1.1/"
   xmlns:cc="http://creativecommons.org/ns#"
   xmlns:rdf="http://www.w3.org/1999/02/22-rdf-syntax-ns#"
   xmlns:svg="http://www.w3.org/2000/svg"
   xmlns="http://www.w3.org/2000/svg"
   xmlns:sodipodi="http://sodipodi.sourceforge.net/DTD/sodipodi-0.dtd"
   xmlns:inkscape="http://www.inkscape.org/namespaces/inkscape"
   width="160"
   height="80"
   viewBox="0 0 42.333332 21.166667"
   version="1.1"
   id="svg8"
   inkscape:version="1.0.2-2 (e86c870879, 2021-01-15)"
   sodipodi:docname="cdli144w.svg">
  <defs
     id="defs2" />
  <sodipodi:namedview
     id="base"
     pagecolor="#ffffff"
     bordercolor="#666666"
     borderopacity="1.0"
     inkscape:pageopacity="0.0"
     inkscape:pageshadow="2"
     inkscape:zoom="5.6"
     inkscape:cx="77.637639"
     inkscape:cy="45.605919"
     inkscape:document-units="px"
     inkscape:current-layer="layer1"
     inkscape:document-rotation="0"
     showgrid="false"
     units="px"
     inkscape:window-width="1755"
     inkscape:window-height="1020"
     inkscape:window-x="158"
     inkscape:window-y="10"
     inkscape:window-maximized="0" />
  <metadata
     id="metadata5">
    <rdf:RDF>
      <cc:Work
         rdf:about="">
        <dc:format>image/svg+xml</dc:format>
        <dc:type
           rdf:resource="http://purl.org/dc/dcmitype/StillImage" />
        <dc:title></dc:title>
      </cc:Work>
    </rdf:RDF>
  </metadata>
  <g
     inkscape:label="Layer 1"
     inkscape:groupmode="layer"
     id="layer1">
    <g
       id="g1183"
       transform="matrix(0,-0.26458333,0.26458333,0,9.9104978,6.057068)">
      <title
         id="title1179">Right Horizontal Mark, RH</title>
      <polygon
         points="8,4 8,40 4,40 4,4 0,0 12,0 "
         style="fill:#000000"
         id="polygon1181" />
    </g>
    <g
       id="g1213"
       transform="matrix(0.26458333,0,0,0.26458333,19.435498,3.9404014)">
      <title
         id="title1209">Down Vertical Mark, DV</title>
      <polygon
         points="4,4 0,0 12,0 8,4 8,25 4,25 "
         style="fill:#000000"
         id="polygon1211" />
    </g>
    <g
       id="g1230"
       transform="matrix(0,-0.26458333,0.26458333,0,13.890624,10.611682)">
      <title
         id="title1226">Right Horizontal Mark, RH</title>
      <polygon
         points="8,4 8,25 4,25 4,4 0,0 12,0 "
         style="fill:#000000"
         id="polygon1228" />
    </g>
    <circle
       style="fill:#000000;fill-rule:evenodd;stroke-width:0.264583"
       id="circle1139"
       cx="21.072172"
       cy="4.6302094"
       r="0.79374999">
      <title
         id="title1151">Northeast Corner Connector, NEC</title>
    </circle>
    <circle
       style="fill:#000000;fill-rule:evenodd;stroke-width:0.264583"
       id="circle1133"
       cx="20.994688"
       cy="8.9769354"
       r="0.79374999">
      <title
         id="title1143">Right 2 Touch Connector, R2T</title>
    </circle>
    <g
       id="g1236"
       transform="matrix(0.26458333,0,0,0.26458333,24.679918,4.0821425)">
      <title
         id="title1232">Down Vertical Mark, DV</title>
      <polygon
         points="8,4 8,25 4,25 4,4 0,0 12,0 "
         style="fill:#000000"
         id="polygon1234" />
    </g>
    <polygon
       points="6,0 6,12 0,6 "
       style="fill:#000000"
       id="polygon1250"
       transform="matrix(0.26458333,0,0,0.26458333,22.121056,7.1531989)">
      <title
         id="title1268">Heel Mark, HE</title>
    </polygon>
    <polygon
       points="6,0 6,12 0,6 "
       style="fill:#000000"
       id="polygon1264"
       transform="matrix(0.26458333,0,0,0.26458333,23.092418,4.0821425)">
      <title
         id="title1266">Heel Mark, HE</title>
    </polygon>
  </g>
</svg>
