<?xml version="1.0" encoding="UTF-8" standalone="no"?>
<svg
   xmlns:dc="http://purl.org/dc/elements/1.1/"
   xmlns:cc="http://creativecommons.org/ns#"
   xmlns:rdf="http://www.w3.org/1999/02/22-rdf-syntax-ns#"
   xmlns:svg="http://www.w3.org/2000/svg"
   xmlns="http://www.w3.org/2000/svg"
   width="160"
   height="80"
   viewBox="0 0 42.333332 21.166667"
   version="1.1"
   id="svg8">
  <defs
     id="defs2" />
  <metadata
     id="metadata5">
    <rdf:RDF>
      <cc:Work
         rdf:about="">
        <dc:format>image/svg+xml</dc:format>
        <dc:type
           rdf:resource="http://purl.org/dc/dcmitype/StillImage" />
        <dc:title></dc:title>
      </cc:Work>
    </rdf:RDF>
  </metadata>
  <g
     id="layer1">
    <g
       id="g848"
       transform="matrix(0,-0.26458333,0.26458333,0,12.335139,6.9736611)">
      <title
         id="title844">Right Horizontal Mark, RH</title>
      <polygon
         points="12,0 8,4 8,72 4,72 4,4 0,0 "
         style="fill:#000000"
         id="polygon846" />
    </g>
    <polygon
       points="8,4 8,18 12,18 8,22 8,40 4,40 4,22 0,18 4,18 4,4 0,0 12,0 "
       style="fill:#000000"
       id="polygon862"
       transform="matrix(0.26458333,0,0,0.26458333,30.326808,4.8569945)">
      <title
         id="title872">Down Vertical Head-to-Tail Mark, DVHT</title>
    </polygon>
    <g
       id="g887"
       transform="matrix(0,-0.26458333,0.26458333,0,12.335139,16.472164)">
      <title
         id="title883">Right Horizontal Mark, RH</title>
      <polygon
         points="8,4 8,72 4,72 4,4 0,0 12,0 "
         style="fill:#000000"
         id="polygon885" />
    </g>
    <polygon
       points="12,30 0,30 4,25 4,4 0,0 12,0 8,4 8,25 "
       style="fill:#000000"
       id="polygon866"
       transform="matrix(0,-0.26458333,0.26458333,0,22.151182,12.715081)">
      <title
         id="title880">Right Horizontal Barbell Mark, RHBB</title>
    </polygon>
    <g
       id="g936"
       transform="matrix(0.26458333,0,0,0.26458333,17.282848,10.598414)">
      <title
         id="title932">Down Vertical Mark, DV</title>
      <polygon
         points="12,0 8,4 8,25 4,25 4,4 0,0 "
         style="fill:#000000"
         id="polygon934" />
    </g>
    <g
       id="g953"
       transform="matrix(0.26458333,0,0,0.26458333,14.187225,10.598414)">
      <title
         id="title949">Down Vertical Mark, DV</title>
      <polygon
         points="12,0 8,4 8,25 4,25 4,4 0,0 "
         style="fill:#000000"
         id="polygon951" />
    </g>
    <circle
       style="fill:#000000;fill-rule:evenodd;stroke-width:0.264583"
       id="path839"
       cx="18.898809"
       cy="14.835566"
       r="0.79374999">
      <title
         id="title971">2 Cross Connector, 2C</title>
    </circle>
    <circle
       style="fill:#000000;fill-rule:evenodd;stroke-width:0.264583"
       id="circle975"
       cx="15.780505"
       cy="14.882812"
       r="0.79374999">
      <title
         id="title973">2 Cross Connector, 2C</title>
    </circle>
    <circle
       style="fill:#000000;fill-rule:evenodd;stroke-width:0.264583"
       id="path839-5"
       cx="31.797247"
       cy="14.835567"
       r="0.79374999">
      <title
         id="title997">Southeast Corner Connector, SEC</title>
    </circle>
    <circle
       style="fill:#000000;fill-rule:evenodd;stroke-width:0.264583"
       id="circle993"
       cx="31.891743"
       cy="5.4806557"
       r="0.79374999">
      <title
         id="title995">Northeast Corner Connector, NEC</title>
    </circle>
  </g>
</svg>
