<?xml version="1.0" encoding="UTF-8" standalone="no"?>
<svg
   xmlns:dc="http://purl.org/dc/elements/1.1/"
   xmlns:cc="http://creativecommons.org/ns#"
   xmlns:rdf="http://www.w3.org/1999/02/22-rdf-syntax-ns#"
   xmlns:svg="http://www.w3.org/2000/svg"
   xmlns="http://www.w3.org/2000/svg"
   width="160"
   height="80"
   viewBox="0 0 42.333332 21.166667"
   version="1.1"
   id="svg8">
  <defs
     id="defs2" />
  <metadata
     id="metadata5">
    <rdf:RDF>
      <cc:Work
         rdf:about="">
        <dc:format>image/svg+xml</dc:format>
        <dc:type
           rdf:resource="http://purl.org/dc/dcmitype/StillImage" />
        <dc:title></dc:title>
      </cc:Work>
    </rdf:RDF>
  </metadata>
  <g
     id="layer1">
    <polygon
       points="12,0 8,4 8,10 4,10 4,4 0,0 "
       style="fill:#ff0000"
       id="polygon918"
       transform="matrix(0.18708867,-0.18708867,0.18708867,0.18708867,15.792185,6.9464453)">
      <title
         id="title939">Right Down Diagonal Mark, RDD</title>
    </polygon>
    <polygon
       points="4,10 4,4 0,0 12,0 8,4 8,10 "
       style="fill:#ff0000"
       id="polygon933"
       transform="matrix(0.18708867,-0.18708867,0.18708867,0.18708867,13.547196,9.2178932)">
      <title
         id="title941">Right Down Diagonal Mark, RDD</title>
    </polygon>
    <g
       id="g985"
       transform="matrix(0.18708867,-0.18708867,0.18708867,0.18708867,24.585352,11.249485)">
      <title
         id="title981">Right Down Diagonal Mark, RDD</title>
      <polygon
         points="0,0 12,0 8,4 8,25 4,25 4,4 "
         style="fill:#ff0000"
         id="polygon983" />
    </g>
    <g
       id="g1002"
       transform="matrix(0.18708867,-0.18708867,0.18708867,0.18708867,14.669728,11.837135)">
      <title
         id="title998">Right Down Diagonal Mark, RDD</title>
      <polygon
         points="8,25 4,25 4,4 0,0 12,0 8,4 "
         style="fill:#ff0000"
         id="polygon1000" />
    </g>
    <g
       id="g1008"
       transform="matrix(0.18708867,-0.18708867,0.18708867,0.18708867,16.914717,9.5656867)">
      <title
         id="title1004">Right Down Diagonal Mark, RDD</title>
      <polygon
         points="0,0 12,0 8,4 8,25 4,25 4,4 "
         style="fill:#ff0000"
         id="polygon1006" />
    </g>
    <g
       id="g1020"
       transform="matrix(0.18708867,-0.18708867,0.18708867,0.18708867,21.404845,5.0755587)">
      <title
         id="title1016">Right Down Diagonal Mark, RDD</title>
      <polygon
         points="12,0 8,4 8,25 4,25 4,4 0,0 "
         style="fill:#ff0000"
         id="polygon1018" />
    </g>
    <g
       id="g1026"
       transform="matrix(0.18708867,-0.18708867,0.18708867,0.18708867,20.095224,15.739613)">
      <title
         id="title1022">Right Down Diagonal Mark, RDD</title>
      <polygon
         points="8,25 4,25 4,4 0,0 12,0 8,4 "
         style="fill:#ff0000"
         id="polygon1024" />
    </g>
    <g
       id="g1032"
       transform="matrix(0.18708867,-0.18708867,0.18708867,0.18708867,22.340288,13.494549)">
      <title
         id="title1028">Right Down Diagonal Mark, RDD</title>
      <polygon
         points="0,0 12,0 8,4 8,25 4,25 4,4 "
         style="fill:#ff0000"
         id="polygon1030" />
    </g>
    <g
       id="g1038"
       transform="matrix(0.18708867,-0.18708867,0.18708867,0.18708867,26.830416,9.0044208)">
      <title
         id="title1034">Right Down Diagonal Mark, RDD</title>
      <polygon
         points="8,25 4,25 4,4 0,0 12,0 8,4 "
         style="fill:#ff0000"
         id="polygon1036" />
    </g>
    <circle
       style="fill:#008000;fill-rule:evenodd;stroke-width:0.264583"
       id="circle965"
       cx="16.205727"
       cy="10.205359"
       r="0.79374999">
      <title
         id="title963">Other 2 Touch Connector, O2T</title>
    </circle>
    <circle
       style="fill:#008000;fill-rule:evenodd;stroke-width:0.264583"
       id="path839"
       cx="18.851562"
       cy="8.0792418"
       r="0.79374999">
      <title
         id="title961">Other 2 Touch Connector, O2T</title>
    </circle>
    <g
       id="g1044"
       transform="matrix(0.18708867,-0.18708867,0.18708867,0.18708867,19.159781,7.3206227)">
      <title
         id="title1040">Right Down Diagonal Mark, RDD</title>
      <polygon
         points="12,0 8,4 8,25 4,25 4,4 0,0 "
         style="fill:#ff0000"
         id="polygon1042" />
    </g>
    <circle
       style="fill:#008000;fill-rule:evenodd;stroke-width:0.264583"
       id="circle1048"
       cx="27.308777"
       cy="8.4099731"
       r="0.79374999">
      <title
         id="title1046">Other 2 Touch Connector, O2T</title>
    </circle>
    <circle
       style="fill:#008000;fill-rule:evenodd;stroke-width:0.264583"
       id="circle1052"
       cx="25.182661"
       cy="10.67783"
       r="0.79374999">
      <title
         id="title1050">Other 2 Touch Connector, O2T</title>
    </circle>
    <circle
       style="fill:#008000;fill-rule:evenodd;stroke-width:0.264583"
       id="circle1056"
       cx="22.962051"
       cy="12.898439"
       r="0.79374999">
      <title
         id="title1054">Other 2 Touch Connector, O2T</title>
    </circle>
    <circle
       style="fill:#008000;fill-rule:evenodd;stroke-width:0.264583"
       id="circle1060"
       cx="20.883183"
       cy="15.071802"
       r="0.79374999">
      <title
         id="title1058">Other 2 Touch Connector, O2T</title>
    </circle>
  </g>
</svg>
