<?xml version="1.0" encoding="UTF-8" standalone="no"?>
<svg
   xmlns:dc="http://purl.org/dc/elements/1.1/"
   xmlns:cc="http://creativecommons.org/ns#"
   xmlns:rdf="http://www.w3.org/1999/02/22-rdf-syntax-ns#"
   xmlns:svg="http://www.w3.org/2000/svg"
   xmlns="http://www.w3.org/2000/svg"
   width="160"
   height="80"
   viewBox="0 0 42.333332 21.166667"
   version="1.1"
   id="svg8">
  <defs
     id="defs2" />
  <metadata
     id="metadata5">
    <rdf:RDF>
      <cc:Work
         rdf:about="">
        <dc:format>image/svg+xml</dc:format>
        <dc:type
           rdf:resource="http://purl.org/dc/dcmitype/StillImage" />
        <dc:title></dc:title>
      </cc:Work>
    </rdf:RDF>
  </metadata>
  <g
     id="layer1">
    <g
       id="g857"
       transform="matrix(0,-0.26458333,0.26458333,0,14.739144,5.2784376)">
      <title
         id="title853">Right Horizontal Mark, RH</title>
      <polygon
         points="8,72 4,72 4,4 0,0 12,0 8,4 "
         style="fill:#ff0000"
         id="polygon855" />
    </g>
    <g
       id="g874"
       transform="matrix(0,-0.26458333,0.26458333,0,14.75997,17.713854)">
      <title
         id="title870">Right Horizontal Mark, RH</title>
      <polygon
         points="8,72 4,72 4,4 0,0 12,0 8,4 "
         style="fill:#ff0000"
         id="polygon872" />
    </g>
    <g
       id="g911"
       transform="matrix(0.26458333,0,0,0.26458333,32.704388,2.1563542)">
      <title
         id="title907">Down Vertical Mark, DV</title>
      <polygon
         points="8,4 8,60 4,60 4,4 0,0 12,0 "
         style="fill:#ff0000"
         id="polygon909" />
    </g>
    <g
       id="g931"
       transform="matrix(0,-0.26458333,0.26458333,0,27.167038,8.4383179)">
      <title
         id="title927">Right Horizontal Mark, RH</title>
      <polygon
         points="4,4 0,0 12,0 8,4 8,25 4,25 "
         style="fill:#ff0000"
         id="polygon929" />
    </g>
    <g
       id="g948"
       transform="matrix(0,-0.26458333,0.26458333,0,27.167038,14.266598)">
      <title
         id="title944">Right Horizontal Mark, RH</title>
      <polygon
         points="8,4 8,25 4,25 4,4 0,0 12,0 "
         style="fill:#ff0000"
         id="polygon946" />
    </g>
    <g
       id="g954"
       transform="matrix(0,-0.26458333,0.26458333,0,15.308035,8.627306)">
      <title
         id="title950">Right Horizontal Mark, RH</title>
      <polygon
         points="8,4 8,25 4,25 4,4 0,0 12,0 "
         style="fill:#ff0000"
         id="polygon952" />
    </g>
    <g
       id="g960"
       transform="matrix(0,-0.26458333,0.26458333,0,15.591517,14.355498)">
      <title
         id="title956">Right Horizontal Mark, RH</title>
      <polygon
         points="8,25 4,25 4,4 0,0 12,0 8,4 "
         style="fill:#ff0000"
         id="polygon958" />
    </g>
    <g
       id="g966"
       transform="matrix(0,-0.26458333,0.26458333,0,8.6934518,7.5689727)">
      <title
         id="title962">Right Horizontal Mark, RH</title>
      <polygon
         points="8,4 8,25 4,25 4,4 0,0 12,0 "
         style="fill:#ff0000"
         id="polygon964" />
    </g>
    <g
       id="g972"
       transform="matrix(0,-0.26458333,0.26458333,0,8.9769337,15.413831)">
      <title
         id="title968">Right Horizontal Mark, RH</title>
      <polygon
         points="0,0 12,0 8,4 8,25 4,25 4,4 "
         style="fill:#ff0000"
         id="polygon970" />
    </g>
    <polygon
       points="0,6 6,0 6,12 "
       style="fill:#ff0000"
       id="polygon986"
       transform="matrix(0.26458333,0,0,0.26458333,24.634598,6.6391895)">
      <title
         id="title1010">Heel Mark, HE</title>
    </polygon>
    <polygon
       points="6,12 0,6 6,0 "
       style="fill:#ff0000"
       id="polygon1000"
       transform="matrix(0.26458333,0,0,0.26458333,23.047098,8.0150229)">
      <title
         id="title1012">Heel Mark, HE</title>
    </polygon>
    <polygon
       points="6,12 0,6 6,0 "
       style="fill:#ff0000"
       id="polygon1002"
       transform="matrix(0.26458333,0,0,0.26458333,21.459598,9.4437728)">
      <title
         id="title1014">Heel Mark, HE</title>
    </polygon>
    <polygon
       points="6,0 6,12 0,6 "
       style="fill:#ff0000"
       id="polygon1004"
       transform="matrix(0.26458333,0,0,0.26458333,13.244248,8.3626854)">
      <title
         id="title1008">Heel Mark, HE</title>
    </polygon>
    <polygon
       points="0,6 6,0 6,12 "
       style="fill:#ff0000"
       id="polygon1006"
       transform="matrix(0.26458333,0,0,0.26458333,24.634598,9.787731)">
      <title
         id="title1016">Heel Mark, HE</title>
    </polygon>
    <circle
       style="fill:#008000;fill-rule:evenodd;stroke-width:0.264583"
       id="path839"
       cx="34.159599"
       cy="3.7797623"
       r="0.79374999">
      <title
         id="title1050">Northeast Corner Connector, NEC</title>
    </circle>
    <circle
       style="fill:#008000;fill-rule:evenodd;stroke-width:0.264583"
       id="circle1034"
       cx="34.206844"
       cy="6.8980665"
       r="0.79374999">
      <title
         id="title1048">Right 2 Touch Connector, R2T</title>
    </circle>
    <circle
       style="fill:#008000;fill-rule:evenodd;stroke-width:0.264583"
       id="circle1036"
       cx="34.159599"
       cy="12.662204"
       r="0.79374999">
      <title
         id="title1046">Right 2 Touch Connector, R2T</title>
    </circle>
    <circle
       style="fill:#008000;fill-rule:evenodd;stroke-width:0.264583"
       id="circle1038"
       cx="34.159599"
       cy="16.111237"
       r="0.79374999">
      <title
         id="title1044">Right 2 Touch Connector, R2T</title>
    </circle>
    <circle
       style="fill:#008000;fill-rule:evenodd;stroke-width:0.264583"
       id="circle1040"
       cx="15.40253"
       cy="6.0948677"
       r="0.79374999">
      <title
         id="title1052">Horizontal 2 Touch Connector, H2T</title>
    </circle>
    <circle
       style="fill:#008000;fill-rule:evenodd;stroke-width:0.264583"
       id="circle1042"
       cx="15.686012"
       cy="13.654391"
       r="0.79374999">
      <title
         id="title1054">Horizontal 2 Touch Connector, H2T</title>
    </circle>
  </g>
</svg>
