<?xml version="1.0" encoding="UTF-8" standalone="no"?>
<svg
   xmlns:dc="http://purl.org/dc/elements/1.1/"
   xmlns:cc="http://creativecommons.org/ns#"
   xmlns:rdf="http://www.w3.org/1999/02/22-rdf-syntax-ns#"
   xmlns:svg="http://www.w3.org/2000/svg"
   xmlns="http://www.w3.org/2000/svg"
   width="160"
   height="80"
   viewBox="0 0 42.333332 21.166667"
   version="1.1"
   id="svg8">
  <defs
     id="defs2" />
  <metadata
     id="metadata5">
    <rdf:RDF>
      <cc:Work
         rdf:about="">
        <dc:format>image/svg+xml</dc:format>
        <dc:type
           rdf:resource="http://purl.org/dc/dcmitype/StillImage" />
        <dc:title></dc:title>
      </cc:Work>
    </rdf:RDF>
  </metadata>
  <g
     id="layer1">
    <polygon
       points="12,18 8,22 8,40 4,40 4,22 0,18 4,18 4,4 0,0 12,0 8,4 8,18 "
       style="fill:#ff0000"
       id="polygon28"
       transform="matrix(0,-0.26458333,0.26458333,0,16.205729,10.375446)">
      <title
         id="title112">Right Horizontal Head-to-Tail Mark, RHHT</title>
    </polygon>
    <polygon
       points="8,40 4,40 4,22 0,18 4,18 4,4 0,0 12,0 8,4 8,18 12,18 8,22 "
       style="fill:#ff0000"
       id="polygon42"
       transform="matrix(0,-0.26458333,0.26458333,0,16.205729,14.967857)">
      <title
         id="title114">Right Horizontal Head-to-Tail Mark, RHHT</title>
    </polygon>
    <g
       id="g62"
       transform="matrix(0.26458333,0,0,0.26458333,22.508482,5.4806547)">
      <title
         id="title58">Down Vertical Mark, DV</title>
      <polygon
         points="0,0 12,0 8,4 8,40 4,40 4,4 "
         style="fill:#ff0000"
         id="polygon60" />
    </g>
    <g
       id="g79"
       transform="matrix(0.26458333,0,0,0.26458333,13.33311,5.4824312)">
      <title
         id="title75">Down Vertical Mark, DV</title>
      <polygon
         points="8,4 8,40 4,40 4,4 0,0 12,0 "
         style="fill:#ff0000"
         id="polygon77" />
    </g>
    <g
       id="g99"
       transform="matrix(0,-0.26458333,0.26458333,0,7.8430058,12.465579)">
      <title
         id="title95">Right Horizontal Mark, RH</title>
      <polygon
         points="8,25 4,25 4,4 0,0 12,0 8,4 "
         style="fill:#ff0000"
         id="polygon97" />
    </g>
    <g
       id="g134"
       transform="matrix(0.26458333,0,0,0.26458333,23.349479,12.482663)">
      <title
         id="title130">2 Cross Connector, 2C</title>
      <circle
         cx="3"
         cy="3"
         r="3"
         style="fill:#008000"
         id="circle132" />
    </g>
    <g
       id="g151"
       transform="matrix(0.26458333,0,0,0.26458333,23.302232,7.9469491)">
      <title
         id="title147">2 Cross Connector, 2C</title>
      <circle
         cx="3"
         cy="3"
         r="3"
         style="fill:#008000"
         id="circle149" />
    </g>
    <g
       id="g157"
       transform="matrix(0.26458333,0,0,0.26458333,14.089062,10.120312)">
      <title
         id="title153">Right 2 Touch Connector, R2T</title>
      <circle
         cx="3"
         cy="3"
         r="3"
         style="fill:#008000"
         id="circle155" />
    </g>
  </g>
</svg>
