<?xml version="1.0" encoding="UTF-8" standalone="no"?>
<svg
   xmlns:dc="http://purl.org/dc/elements/1.1/"
   xmlns:cc="http://creativecommons.org/ns#"
   xmlns:rdf="http://www.w3.org/1999/02/22-rdf-syntax-ns#"
   xmlns:svg="http://www.w3.org/2000/svg"
   xmlns="http://www.w3.org/2000/svg"
   width="160"
   height="80"
   viewBox="0 0 42.333332 21.166667"
   version="1.1"
   id="svg8">
  <defs
     id="defs2" />
  <metadata
     id="metadata5">
    <rdf:RDF>
      <cc:Work
         rdf:about="">
        <dc:format>image/svg+xml</dc:format>
        <dc:type
           rdf:resource="http://purl.org/dc/dcmitype/StillImage" />
        <dc:title></dc:title>
      </cc:Work>
    </rdf:RDF>
  </metadata>
  <g
     id="layer1">
    <g
       id="g34"
       transform="matrix(0,-0.26458333,0.26458333,0,9.5438988,12.170834)">
      <title
         id="title30">Right Horizontal Mark, RH</title>
      <polygon
         points="8,4 8,45 4,45 4,4 0,0 12,0 "
         style="fill:#ff0000"
         id="polygon32" />
    </g>
    <g
       id="g65"
       transform="matrix(0.26458333,0,0,0.26458333,20.397523,5.1971726)">
      <title
         id="title61">Down Vertical Mark, DV</title>
      <polygon
         points="4,40 4,4 0,0 12,0 8,4 8,40 "
         style="fill:#ff0000"
         id="polygon63" />
    </g>
    <g
       id="g82"
       transform="matrix(0,-0.26458333,0.26458333,0,10.857442,8.9183103)">
      <title
         id="title78">Right Horizontal Mark, RH</title>
      <polygon
         points="4,40 4,4 0,0 12,0 8,4 8,40 "
         style="fill:#ff0000"
         id="polygon80" />
    </g>
    <g
       id="g88"
       transform="matrix(0,-0.26458333,0.26458333,0,10.904689,15.375996)">
      <title
         id="title84">Right Horizontal Mark, RH</title>
      <polygon
         points="0,0 12,0 8,4 8,40 4,40 4,4 "
         style="fill:#ff0000"
         id="polygon86" />
    </g>
    <g
       id="g94"
       transform="matrix(0.26458333,0,0,0.26458333,32.209279,5.3861607)">
      <title
         id="title90">Down Vertical Mark, DV</title>
      <polygon
         points="8,4 8,40 4,40 4,4 0,0 12,0 "
         style="fill:#ff0000"
         id="polygon92" />
    </g>
    <g
       id="g106"
       transform="matrix(0.26458333,0,0,0.26458333,28.712999,6.4255952)">
      <title
         id="title102">Down Vertical Mark, DV</title>
      <polygon
         points="8,35 4,35 4,4 0,0 12,0 8,4 "
         style="fill:#ff0000"
         id="polygon104" />
    </g>
    <g
       id="g112"
       transform="matrix(0.26458333,0,0,0.26458333,24.130038,6.3311012)">
      <title
         id="title108">Down Vertical Mark, DV</title>
      <polygon
         points="0,0 12,0 8,4 8,35 4,35 4,4 "
         style="fill:#ff0000"
         id="polygon110" />
    </g>
    <g
       id="g132"
       transform="matrix(0.26458333,0,0,0.26458333,21.034375,9.7895829)">
      <title
         id="title128">Right 2 Touch Connector, R2T</title>
      <circle
         cx="3"
         cy="3"
         r="3"
         style="fill:#008000"
         id="circle130" />
    </g>
    <g
       id="g149"
       transform="matrix(0.26458333,0,0,0.26458333,20.892634,6.5295385)">
      <title
         id="title145">Right 2 Touch Connector, R2T</title>
      <circle
         cx="3"
         cy="3"
         r="3"
         style="fill:#008000"
         id="circle147" />
    </g>
    <g
       id="g155"
       transform="matrix(0.26458333,0,0,0.26458333,21.128869,13.049628)">
      <title
         id="title151">Right 2 Touch Connector, R2T</title>
      <circle
         cx="3"
         cy="3"
         r="3"
         style="fill:#008000"
         id="circle153" />
    </g>
  </g>
</svg>
