<?xml version="1.0" encoding="UTF-8" standalone="no"?>
<svg
   xmlns:dc="http://purl.org/dc/elements/1.1/"
   xmlns:cc="http://creativecommons.org/ns#"
   xmlns:rdf="http://www.w3.org/1999/02/22-rdf-syntax-ns#"
   xmlns:svg="http://www.w3.org/2000/svg"
   xmlns="http://www.w3.org/2000/svg"
   xmlns:sodipodi="http://sodipodi.sourceforge.net/DTD/sodipodi-0.dtd"
   xmlns:inkscape="http://www.inkscape.org/namespaces/inkscape"
   width="160"
   height="80"
   viewBox="0 0 42.333332 21.166667"
   version="1.1"
   id="svg8"
   inkscape:version="1.0.2-2 (e86c870879, 2021-01-15)"
   sodipodi:docname="cdli19.svg">
  <defs
     id="defs2" />
  <sodipodi:namedview
     id="base"
     pagecolor="#ffffff"
     bordercolor="#666666"
     borderopacity="1.0"
     inkscape:pageopacity="0.0"
     inkscape:pageshadow="2"
     inkscape:zoom="5.6"
     inkscape:cx="80.739731"
     inkscape:cy="36.407918"
     inkscape:document-units="px"
     inkscape:current-layer="layer1"
     inkscape:document-rotation="0"
     showgrid="false"
     units="px"
     inkscape:window-width="1755"
     inkscape:window-height="1020"
     inkscape:window-x="125"
     inkscape:window-y="39"
     inkscape:window-maximized="0" />
  <metadata
     id="metadata5">
    <rdf:RDF>
      <cc:Work
         rdf:about="">
        <dc:format>image/svg+xml</dc:format>
        <dc:type
           rdf:resource="http://purl.org/dc/dcmitype/StillImage" />
        <dc:title></dc:title>
      </cc:Work>
    </rdf:RDF>
  </metadata>
  <g
     inkscape:label="Layer 1"
     inkscape:groupmode="layer"
     id="layer1">
    <g
       id="g439"
       transform="matrix(0.26458333,0,0,0.26458333,32.067424,2.2356537)">
      <title
         id="title435">Down Vertical Mark, DV</title>
      <polygon
         points="8,40 4,40 4,4 0,0 12,0 8,4 "
         style="fill:#ff0000"
         id="polygon437"
         transform="translate(-12.199714,0.46428666)" />
    </g>
    <polygon
       points="0,18 4,18 4,4 0,0 12,0 8,4 8,18 12,18 8,22 8,40 4,40 4,22 "
       style="fill:#ff0000"
       id="polygon512"
       transform="matrix(0.18708866,-0.18708867,0.18708867,0.18708866,21.727187,4.0850535)">
      <title
         id="title530">Other Head-to-Tail Mark, OHT</title>
    </polygon>
    <g
       id="g550"
       transform="matrix(0.26458333,0,0,0.26458333,29.444345,9.4588541)">
      <title
         id="title546">Other 2 Touch Connector, O2T</title>
      <circle
         cx="3"
         cy="3"
         r="3"
         style="fill:#008000"
         id="circle548" />
    </g>
    <g
       id="g581"
       transform="matrix(0,-0.26458333,0.26458333,0,19.976909,8.5109827)">
      <title
         id="title577">Right Horizontal Mark, RH</title>
      <polygon
         points="8,25 4,25 4,4 0,0 12,0 8,4 "
         style="fill:#ff0000"
         id="polygon579" />
    </g>
    <g
       id="g598"
       transform="matrix(0.26458333,0,0,0.26458333,25.522842,6.1988099)">
      <title
         id="title594">Other 2 Touch Connector, O2T</title>
      <circle
         cx="3"
         cy="3"
         r="3"
         style="fill:#008000"
         id="circle596" />
    </g>
    <polygon
       points="6,0 6,12 0,6 "
       style="fill:#ff0000"
       id="polygon612"
       transform="matrix(0.26458333,0,0,0.26458333,27.339847,3.6200854)">
      <title
         id="title626">Heel Mark, HE</title>
    </polygon>
  </g>
</svg>
