<?xml version="1.0" encoding="UTF-8" standalone="no"?>
<svg
   xmlns:dc="http://purl.org/dc/elements/1.1/"
   xmlns:cc="http://creativecommons.org/ns#"
   xmlns:rdf="http://www.w3.org/1999/02/22-rdf-syntax-ns#"
   xmlns:svg="http://www.w3.org/2000/svg"
   xmlns="http://www.w3.org/2000/svg"
   xmlns:sodipodi="http://sodipodi.sourceforge.net/DTD/sodipodi-0.dtd"
   xmlns:inkscape="http://www.inkscape.org/namespaces/inkscape"
   width="160"
   height="80"
   viewBox="0 0 42.333332 21.166667"
   version="1.1"
   id="svg8"
   inkscape:version="1.0.2-2 (e86c870879, 2021-01-15)"
   sodipodi:docname="cdli216.svg">
  <defs
     id="defs2" />
  <sodipodi:namedview
     id="base"
     pagecolor="#ffffff"
     bordercolor="#666666"
     borderopacity="1.0"
     inkscape:pageopacity="0.0"
     inkscape:pageshadow="2"
     inkscape:zoom="5.6"
     inkscape:cx="79.074392"
     inkscape:cy="52.929104"
     inkscape:document-units="px"
     inkscape:current-layer="layer1"
     inkscape:document-rotation="0"
     showgrid="false"
     units="px"
     inkscape:window-width="1755"
     inkscape:window-height="1020"
     inkscape:window-x="186"
     inkscape:window-y="33"
     inkscape:window-maximized="0" />
  <metadata
     id="metadata5">
    <rdf:RDF>
      <cc:Work
         rdf:about="">
        <dc:format>image/svg+xml</dc:format>
        <dc:type
           rdf:resource="http://purl.org/dc/dcmitype/StillImage" />
        <dc:title></dc:title>
      </cc:Work>
    </rdf:RDF>
  </metadata>
  <g
     inkscape:label="Layer 1"
     inkscape:groupmode="layer"
     id="layer1">
    <polygon
       points="6,12 0,6 6,0 "
       style="fill:#ff0000"
       id="polygon1639"
       transform="matrix(0.26458333,0,0,0.26458333,17.154449,-3.6212008)">
      <title
         id="title1645">Heel Mark, HE</title>
    </polygon>
    <polygon
       points="4,60 4,32 0,28 4,28 4,4 0,0 12,0 8,4 8,28 12,28 8,32 8,60 "
       style="fill:#ff0000"
       id="polygon1863"
       transform="matrix(0,-0.26458333,0.26458333,0,13.18192,7.3516375)">
      <title
         id="title1922">Right Horizontat Head-to-Tail Mark, RHHT</title>
    </polygon>
    <polygon
       points="12,28 8,32 8,60 4,60 4,32 0,28 4,28 4,4 0,0 12,0 8,4 8,28 "
       style="fill:#ff0000"
       id="polygon1877"
       transform="matrix(0,-0.26458333,0.26458333,0,13.232871,14.661621)">
      <title
         id="title1924">Right Horizontat Head-to-Tail Mark, RHHT</title>
    </polygon>
    <g
       id="g1897"
       transform="matrix(0.26458333,0,0,0.26458333,26.940253,5.8965041)">
      <title
         id="title1893">Down Vertical Mark, DV</title>
      <polygon
         points="8,25 4,25 4,4 0,0 12,0 8,4 "
         style="fill:#ff0000"
         id="polygon1895" />
    </g>
    <g
       id="g1914"
       transform="matrix(0.26458333,0,0,0.26458333,12.174537,5.9568291)">
      <title
         id="title1910">Down Vertical Mark, DV</title>
      <polygon
         points="12,0 8,4 8,25 4,25 4,4 0,0 "
         style="fill:#ff0000"
         id="polygon1912" />
    </g>
    <g
       id="g1920"
       transform="matrix(0.26458333,0,0,0.26458333,20.219722,6.2933042)">
      <title
         id="title1916">Down Vertical Mark, DV</title>
      <polygon
         points="4,25 4,4 0,0 12,0 8,4 8,25 "
         style="fill:#ff0000"
         id="polygon1918" />
    </g>
    <circle
       style="fill:#008000;fill-rule:evenodd;stroke-width:0.264583"
       id="circle1585"
       cx="28.457865"
       cy="12.99293"
       r="0.79374999">
      <title
         id="title1583">Southeast Corner Connector, SEC</title>
    </circle>
    <circle
       style="fill:#008000;fill-rule:evenodd;stroke-width:0.264583"
       id="circle1790"
       cx="21.843281"
       cy="6.1799107"
       r="0.79374999">
      <title
         id="title1788">Top 2 Touch Connector, T2T</title>
    </circle>
    <circle
       style="fill:#008000;fill-rule:evenodd;stroke-width:0.264583"
       id="circle1786"
       cx="13.95303"
       cy="6.0628123"
       r="0.79374999">
      <title
         id="title1784">Northwest Corner Connector, NWC</title>
    </circle>
    <circle
       style="fill:#008000;fill-rule:evenodd;stroke-width:0.264583"
       id="circle1932"
       cx="13.905784"
       cy="13.008124"
       r="0.79374999">
      <title
         id="title1930">Southwest Corner Connector, SWC</title>
    </circle>
    <circle
       style="fill:#008000;fill-rule:evenodd;stroke-width:0.264583"
       id="circle1928"
       cx="21.843283"
       cy="12.960877"
       r="0.79374999">
      <title
         id="title1926">Bottom 2 Touch Connector, B2T</title>
    </circle>
    <circle
       style="fill:#008000;fill-rule:evenodd;stroke-width:0.264583"
       id="circle1778"
       cx="28.694101"
       cy="5.9379301"
       r="0.79374999"
       inkscape:transform-center-x="-5.2444197"
       inkscape:transform-center-y="0.047247025">
      <title
         id="title1776">Northeast Corner Connector, NEC</title>
    </circle>
  </g>
</svg>
