<?xml version="1.0" encoding="UTF-8" standalone="no"?>
<svg
   xmlns:dc="http://purl.org/dc/elements/1.1/"
   xmlns:cc="http://creativecommons.org/ns#"
   xmlns:rdf="http://www.w3.org/1999/02/22-rdf-syntax-ns#"
   xmlns:svg="http://www.w3.org/2000/svg"
   xmlns="http://www.w3.org/2000/svg"
   width="160"
   height="80"
   viewBox="0 0 42.333332 21.166667"
   version="1.1"
   id="svg8">
  <defs
     id="defs2" />
  <metadata
     id="metadata5">
    <rdf:RDF>
      <cc:Work
         rdf:about="">
        <dc:format>image/svg+xml</dc:format>
        <dc:type
           rdf:resource="http://purl.org/dc/dcmitype/StillImage" />
        <dc:title></dc:title>
      </cc:Work>
    </rdf:RDF>
  </metadata>
  <g
     id="layer1">
    <g
       id="g1431"
       transform="matrix(0,-0.26458333,0.26458333,0,14.646577,7.1911103)">
      <title
         id="title1427">Right Horizontal Mark, RH</title>
      <polygon
         points="12,0 8,4 8,40 4,40 4,4 0,0 "
         style="fill:#ff0000"
         id="polygon1429" />
    </g>
    <g
       id="g1451"
       transform="matrix(0,-0.26458333,0.26458333,0,16.224627,10.004954)">
      <title
         id="title1447">Right Horizontal Mark, RH</title>
      <polygon
         points="12,0 8,4 8,35 4,35 4,4 0,0 "
         style="fill:#ff0000"
         id="polygon1449" />
    </g>
    <g
       id="g1548"
       transform="matrix(0,-0.26458333,0.26458333,0,14.646577,16.05454)">
      <title
         id="title1544">Right Horizontal Mark, RH</title>
      <polygon
         points="8,4 8,40 4,40 4,4 0,0 12,0 "
         style="fill:#ff0000"
         id="polygon1546" />
    </g>
    <g
       id="g1554"
       transform="matrix(0.26458333,0,0,0.26458333,24.171577,4.412873)">
      <title
         id="title1550">Down Vertical Mark, DV</title>
      <polygon
         points="8,4 8,40 4,40 4,4 0,0 12,0 "
         style="fill:#ff0000"
         id="polygon1552" />
    </g>
    <g
       id="g1560"
       transform="matrix(0,-0.26458333,0.26458333,0,16.224627,13.259329)">
      <title
         id="title1556">Right Horizontal Mark, RH</title>
      <polygon
         points="4,4 0,0 12,0 8,4 8,35 4,35 "
         style="fill:#ff0000"
         id="polygon1558" />
    </g>
    <circle
       style="fill:#008000;fill-rule:evenodd;stroke-width:0.264583"
       id="path839"
       cx="25.796875"
       cy="14.363095"
       r="0.79374999">
      <title
         id="title1586">Southeast Corner Connector, SEC</title>
    </circle>
    <circle
       style="fill:#008000;fill-rule:evenodd;stroke-width:0.264583"
       id="circle1582"
       cx="25.702381"
       cy="5.5279012"
       r="0.79374999">
      <title
         id="title1584">Northeast Corner Connector, NEC</title>
    </circle>
    <g
       id="g1610"
       transform="matrix(0,-0.26458333,0.26458333,0,26.28265,11.556622)">
      <title
         id="title1606">Right Horizontal Mark, RH</title>
      <polygon
         points="8,4 8,25 4,25 4,4 0,0 12,0 "
         style="fill:#ff0000"
         id="polygon1608" />
    </g>
    <circle
       style="fill:#008000;fill-rule:evenodd;stroke-width:0.264583"
       id="circle1578"
       cx="25.702381"
       cy="11.622767"
       r="0.79374999">
      <title
         id="title1590">Right 2 Touch Connector, R2T</title>
    </circle>
    <circle
       style="fill:#008000;fill-rule:evenodd;stroke-width:0.264583"
       id="circle1580"
       cx="25.749628"
       cy="8.5044641"
       r="0.79374999">
      <title
         id="title1588">Right 2 Touch Connector, R2T</title>
    </circle>
    <circle
       style="fill:#008000;fill-rule:evenodd;stroke-width:0.264583"
       id="circle1625"
       cx="26.647324"
       cy="10.063616"
       r="0.79374999">
      <title
         id="title1623">Left 2 Touch Connector, L2T</title>
    </circle>
  </g>
</svg>
