<?xml version="1.0" encoding="UTF-8" standalone="no"?>
<svg
   xmlns:dc="http://purl.org/dc/elements/1.1/"
   xmlns:cc="http://creativecommons.org/ns#"
   xmlns:rdf="http://www.w3.org/1999/02/22-rdf-syntax-ns#"
   xmlns:svg="http://www.w3.org/2000/svg"
   xmlns="http://www.w3.org/2000/svg"
   width="160"
   height="80"
   viewBox="0 0 42.333332 21.166667"
   version="1.1"
   id="svg8">
  <defs
     id="defs2" />
  <metadata
     id="metadata5">
    <rdf:RDF>
      <cc:Work
         rdf:about="">
        <dc:format>image/svg+xml</dc:format>
        <dc:type
           rdf:resource="http://purl.org/dc/dcmitype/StillImage" />
        <dc:title></dc:title>
      </cc:Work>
    </rdf:RDF>
  </metadata>
  <g
     id="layer1">
    <g
       id="g1140"
       transform="matrix(0,-0.26458333,0.26458333,0,13.934168,15.187027)">
      <title
         id="title1136">Right Horizontal Mark, RH</title>
      <polygon
         points="12,0 8,4 8,50 4,50 4,4 0,0 "
         style="fill:#ff0000"
         id="polygon1138" />
    </g>
    <g
       id="g1212"
       transform="matrix(0.26458333,0,0,0.26458333,25.857351,5.2557023)">
      <title
         id="title1208">Down Vertical Mark, DV</title>
      <polygon
         points="12,0 8,4 8,40 4,40 4,4 0,0 "
         style="fill:#ff0000"
         id="polygon1210" />
    </g>
    <circle
       style="fill:#008000;fill-rule:evenodd;stroke-width:0.264583"
       id="circle1078"
       cx="27.482687"
       cy="13.552279"
       r="0.79374999">
      <title
         id="title1092">Right 2 Touch Connector, R2T</title>
    </circle>
    <g
       id="g1229"
       transform="matrix(0.26458333,0,0,0.26458333,13.015799,8.0715115)">
      <title
         id="title1225">Down Vertical Mark, DV</title>
      <polygon
         points="8,22 4,22 4,4 0,0 12,0 8,4 "
         style="fill:#ff0000"
         id="polygon1227" />
    </g>
    <g
       id="g1270"
       transform="matrix(0.26458333,0,0,0.26458333,22.682351,5.2557023)">
      <title
         id="title1266">Down Vertical Mark, DV</title>
      <polygon
         points="4,40 4,4 0,0 12,0 8,4 8,40 "
         style="fill:#ff0000"
         id="polygon1268" />
    </g>
    <g
       id="g1290"
       transform="matrix(0,-0.26458333,0.26458333,0,12.734018,8.219149)">
      <title
         id="title1286">Right Horizontal Mark, RH</title>
      <polygon
         points="8,4 8,40 4,40 4,4 0,0 12,0 "
         style="fill:#ff0000"
         id="polygon1288" />
    </g>
    <circle
       style="fill:#008000;fill-rule:evenodd;stroke-width:0.264583"
       id="circle1134"
       cx="24.005268"
       cy="6.546453"
       r="0.79374999">
      <title
         id="title1132">Northeast Corner Connector, NEC</title>
    </circle>
    <circle
       style="fill:#008000;fill-rule:evenodd;stroke-width:0.264583"
       id="circle1144"
       cx="24.245396"
       cy="13.599524"
       r="0.79374999">
      <title
         id="title1142">2 Cross Connector, 2C</title>
    </circle>
    <circle
       style="fill:#008000;fill-rule:evenodd;stroke-width:0.264583"
       id="path839"
       cx="14.663586"
       cy="13.552279"
       r="0.79374999">
      <title
         id="title1319">Southwest Corner Connector, SWC</title>
    </circle>
  </g>
</svg>
