<?xml version="1.0" encoding="UTF-8" standalone="no"?>
<svg
   xmlns:dc="http://purl.org/dc/elements/1.1/"
   xmlns:cc="http://creativecommons.org/ns#"
   xmlns:rdf="http://www.w3.org/1999/02/22-rdf-syntax-ns#"
   xmlns:svg="http://www.w3.org/2000/svg"
   xmlns="http://www.w3.org/2000/svg"
   width="160"
   height="80"
   viewBox="0 0 42.333332 21.166667"
   version="1.1"
   id="svg8">
  <defs
     id="defs2" />
  <metadata
     id="metadata5">
    <rdf:RDF>
      <cc:Work
         rdf:about="">
        <dc:format>image/svg+xml</dc:format>
        <dc:type
           rdf:resource="http://purl.org/dc/dcmitype/StillImage" />
        <dc:title></dc:title>
      </cc:Work>
    </rdf:RDF>
  </metadata>
  <g
     id="layer1">
    <polygon
       points="6,12 0,6 6,0 "
       style="fill:#ff0000"
       id="polygon1054"
       transform="matrix(0.26458333,0,0,0.26458333,20.684746,14.130602)">
      <title
         id="title1062">Heel Mark, HE</title>
    </polygon>
    <g
       id="g1086"
       transform="matrix(0.26458333,0,0,0.26458333,19.626413,4.393973)">
      <title
         id="title1082">Down Vertical Mark, DV</title>
      <polygon
         points="0,0 12,0 8,4 8,40 4,40 4,4 "
         style="fill:#ff0000"
         id="polygon1084" />
    </g>
    <g
       id="g1103"
       transform="matrix(0,-0.26458333,0.26458333,0,13.679033,11.683358)">
      <title
         id="title1099">Right Horizontal Mark, RH</title>
      <polygon
         points="0,0 12,0 8,4 8,40 4,40 4,4 "
         style="fill:#ff0000"
         id="polygon1101" />
    </g>
    <g
       id="g1159"
       transform="matrix(0.18708867,-0.18708867,0.18708867,0.18708867,15.673905,6.7686703)">
      <title
         id="title1155">Right Down Diagonal Mark, RDD</title>
      <polygon
         points="8,4 8,25 4,25 4,4 0,0 12,0 "
         style="fill:#ff0000"
         id="polygon1157" />
    </g>
    <circle
       style="fill:#008000;fill-rule:evenodd;stroke-width:0.264583"
       id="path839"
       cx="21.119421"
       cy="9.9691229"
       r="0.79374999">
      <title
         id="title1139">3 Touch Connector, 3T</title>
    </circle>
  </g>
</svg>
