<?xml version="1.0" encoding="UTF-8" standalone="no"?>
<svg
   xmlns:dc="http://purl.org/dc/elements/1.1/"
   xmlns:cc="http://creativecommons.org/ns#"
   xmlns:rdf="http://www.w3.org/1999/02/22-rdf-syntax-ns#"
   xmlns:svg="http://www.w3.org/2000/svg"
   xmlns="http://www.w3.org/2000/svg"
   width="160"
   height="80"
   viewBox="0 0 42.333332 21.166667"
   version="1.1"
   id="svg8">
  <defs
     id="defs2" />
  <metadata
     id="metadata5">
    <rdf:RDF>
      <cc:Work
         rdf:about="">
        <dc:format>image/svg+xml</dc:format>
        <dc:type
           rdf:resource="http://purl.org/dc/dcmitype/StillImage" />
        <dc:title></dc:title>
      </cc:Work>
    </rdf:RDF>
  </metadata>
  <g
     id="layer1">
    <g
       id="g1165"
       transform="matrix(0.26458333,0,0,0.26458333,14.92061,4.5603585)">
      <title
         id="title1161">Down Vertical Mark, DV</title>
      <polygon
         points="12,0 8,4 8,40 4,40 4,4 0,0 "
         style="fill:#ff0000"
         id="polygon1163" />
    </g>
    <g
       id="g1230"
       transform="matrix(0.18708867,-0.18708867,0.18708867,0.18708867,13.152702,12.154831)">
      <title
         id="title1226">Right Down Diagonal Mark, RDD</title>
      <polygon
         points="0,0 12,0 8,4 8,10 4,10 4,4 "
         style="fill:#ff0000"
         id="polygon1228" />
    </g>
    <g
       id="g1247"
       transform="matrix(0.18708867,-0.18708867,0.18708867,0.18708867,13.177308,8.0443396)">
      <title
         id="title1243">Right Down Diagonal Mark, RDD</title>
      <polygon
         points="8,4 8,10 4,10 4,4 0,0 12,0 "
         style="fill:#ff0000"
         id="polygon1245" />
    </g>
    <circle
       style="fill:#008000;fill-rule:evenodd;stroke-width:0.264583"
       id="path839"
       cx="16.184828"
       cy="12.945684"
       r="0.79374999">
      <title
         id="title1269">Other 2 Touch Connector, O2T</title>
    </circle>
    <circle
       style="fill:#008000;fill-rule:evenodd;stroke-width:0.264583"
       id="circle1265"
       cx="16.158482"
       cy="8.8824406"
       r="0.79374999">
      <title
         id="title1267">Other 2 Touch Connector, O2T</title>
    </circle>
  </g>
</svg>
