<?xml version="1.0" encoding="UTF-8" standalone="no"?>
<svg
   xmlns:dc="http://purl.org/dc/elements/1.1/"
   xmlns:cc="http://creativecommons.org/ns#"
   xmlns:rdf="http://www.w3.org/1999/02/22-rdf-syntax-ns#"
   xmlns:svg="http://www.w3.org/2000/svg"
   xmlns="http://www.w3.org/2000/svg"
   width="160"
   height="80"
   viewBox="0 0 42.333332 21.166667"
   version="1.1"
   id="svg8">
  <defs
     id="defs2" />
  <metadata
     id="metadata5">
    <rdf:RDF>
      <cc:Work
         rdf:about="">
        <dc:format>image/svg+xml</dc:format>
        <dc:type
           rdf:resource="http://purl.org/dc/dcmitype/StillImage" />
        <dc:title></dc:title>
      </cc:Work>
    </rdf:RDF>
  </metadata>
  <g
     id="layer1">
    <g
       id="g62"
       transform="matrix(0.26458333,0,0,0.26458333,36.35186,5.4806547)">
      <title
         id="title58">Down Vertical Mark, DV</title>
      <polygon
         points="0,0 12,0 8,4 8,40 4,40 4,4 "
         style="fill:#ff0000"
         id="polygon60" />
    </g>
    <g
       id="g236"
       transform="matrix(0.26458333,0,0,0.26458333,33.17686,5.4806547)">
      <title
         id="title232">Down Vertical Mark, DV</title>
      <polygon
         points="12,0 8,4 8,40 4,40 4,4 0,0 "
         style="fill:#ff0000"
         id="polygon234" />
    </g>
    <g
       id="g256"
       transform="matrix(0,-0.26458333,0.26458333,0,19.031101,4.9514881)">
      <title
         id="title252">Right Horizontal Mark, RH</title>
      <polygon
         points="8,4 8,57 4,57 4,4 0,0 12,0 "
         style="fill:#ff0000"
         id="polygon254"
         transform="translate(-12.199714,0.46428666)" />
    </g>
    <g
       id="g297"
       transform="matrix(0.26458333,0,0,0.26458333,33.838318,5.8680802)">
      <title
         id="title293">Northeast Corner Connector, NEC</title>
      <circle
         cx="3"
         cy="3"
         r="3"
         style="fill:#008000"
         id="circle295" />
    </g>
    <polygon
       points="6,0 6,12 0,6 "
       style="fill:#ff0000"
       id="polygon311"
       transform="matrix(0.26458333,0,0,0.26458333,34.235193,14.476488)">
      <title
         id="title325">Heel Mark, HE</title>
    </polygon>
    <g
       id="g331"
       transform="matrix(0,-0.26458333,0.26458333,0,19.031101,13.89448)">
      <title
         id="title327">Right Horizontal Mark, RH</title>
      <polygon
         points="0,0 12,0 8,4 8,57 4,57 4,4 "
         style="fill:#ff0000"
         id="polygon329"
         transform="translate(-12.199714,0.46428666)" />
    </g>
    <g
       id="g201"
       transform="matrix(0.26458333,0,0,0.26458333,34.027306,14.703274)">
      <title
         id="title197">Southeast Corner Connector, SEC</title>
      <circle
         cx="3"
         cy="3"
         r="3"
         style="fill:#008000"
         id="circle199" />
    </g>
    <polygon
       points="6,12 0,6 6,0 "
       style="fill:#ff0000"
       id="polygon335"
       transform="matrix(0.26458333,0,0,0.26458333,37.410193,14.476488)">
      <title
         id="title333">Heel Mark, HE</title>
    </polygon>
    <polygon
       points="0,0 12,0 8,4 8,35 12,40 0,40 4,35 4,4 "
       style="fill:#ff0000"
       id="polygon349"
       transform="matrix(0,-0.26458333,0.26458333,0,16.772693,12.69055)">
      <title
         id="title363">Right Horizontal Barbell Mark, RHBB</title>
    </polygon>
  </g>
</svg>
