<?xml version="1.0" encoding="UTF-8" standalone="no"?>
<svg
   xmlns:dc="http://purl.org/dc/elements/1.1/"
   xmlns:cc="http://creativecommons.org/ns#"
   xmlns:rdf="http://www.w3.org/1999/02/22-rdf-syntax-ns#"
   xmlns:svg="http://www.w3.org/2000/svg"
   xmlns="http://www.w3.org/2000/svg"
   xmlns:sodipodi="http://sodipodi.sourceforge.net/DTD/sodipodi-0.dtd"
   xmlns:inkscape="http://www.inkscape.org/namespaces/inkscape"
   width="160"
   height="80"
   viewBox="0 0 42.333332 21.166667"
   version="1.1"
   id="svg8"
   inkscape:version="1.0.2-2 (e86c870879, 2021-01-15)"
   sodipodi:docname="cdli250.svg">
  <defs
     id="defs2" />
  <sodipodi:namedview
     id="base"
     pagecolor="#ffffff"
     bordercolor="#666666"
     borderopacity="1.0"
     inkscape:pageopacity="0.0"
     inkscape:pageshadow="2"
     inkscape:zoom="5.6"
     inkscape:cx="64.877963"
     inkscape:cy="59.810232"
     inkscape:document-units="px"
     inkscape:current-layer="layer1"
     inkscape:document-rotation="0"
     showgrid="false"
     units="px"
     inkscape:window-width="1755"
     inkscape:window-height="1020"
     inkscape:window-x="143"
     inkscape:window-y="0"
     inkscape:window-maximized="0" />
  <metadata
     id="metadata5">
    <rdf:RDF>
      <cc:Work
         rdf:about="">
        <dc:format>image/svg+xml</dc:format>
        <dc:type
           rdf:resource="http://purl.org/dc/dcmitype/StillImage" />
        <dc:title></dc:title>
      </cc:Work>
    </rdf:RDF>
  </metadata>
  <g
     inkscape:label="Layer 1"
     inkscape:groupmode="layer"
     id="layer1">
    <g
       id="g246"
       transform="matrix(0,-0.26458333,0.26458333,0,11.121949,16.649851)">
      <title
         id="title242">Right Horizontal Mark, RH</title>
      <polygon
         points="4,72 4,4 0,0 12,0 8,4 8,72 "
         style="fill:#ff0000"
         id="polygon244" />
    </g>
    <g
       id="g277"
       transform="matrix(0.26458333,0,0,0.26458333,28.055282,3.9498512)">
      <title
         id="title273">Down Vertical Mark, DV</title>
      <polygon
         points="4,48 4,4 0,0 12,0 8,4 8,48 "
         style="fill:#ff0000"
         id="polygon275" />
    </g>
    <g
       id="g294"
       transform="matrix(0.26458333,0,0,0.26458333,24.880282,3.9498512)">
      <title
         id="title290">Down Vertical Mark, DV</title>
      <polygon
         points="8,48 4,48 4,4 0,0 12,0 8,4 "
         style="fill:#ff0000"
         id="polygon292" />
    </g>
    <g
       id="g300"
       transform="matrix(0.26458333,0,0,0.26458333,10.063616,3.9498512)">
      <title
         id="title296">Down Vertical Mark, DV</title>
      <polygon
         points="4,40 4,4 0,0 12,0 8,4 8,40 "
         style="fill:#ff0000"
         id="polygon298" />
    </g>
    <g
       id="g306"
       transform="matrix(0.26458333,0,0,0.26458333,13.238616,3.9498512)">
      <title
         id="title302">Down Vertical Mark, DV</title>
      <polygon
         points="4,40 4,4 0,0 12,0 8,4 8,40 "
         style="fill:#ff0000"
         id="polygon304" />
    </g>
    <g
       id="g343"
       transform="matrix(0,-0.26458333,0.26458333,0,19.324032,7.1248512)">
      <title
         id="title339">Right Horizontal Mark, RH</title>
      <polygon
         points="4,25 4,4 0,0 12,0 8,4 8,25 "
         style="fill:#ff0000"
         id="polygon341" />
    </g>
    <g
       id="g349"
       transform="matrix(0,-0.26458333,0.26458333,0,29.907365,24.880283)">
      <title
         id="title345">Right Horizontal Mark, RH</title>
      <polygon
         points="8,4 8,38 4,38 4,4 0,0 12,0 "
         style="fill:#ff0000"
         id="polygon347"
         transform="translate(55.107145,-39.999999)" />
    </g>
    <g
       id="g355"
       transform="matrix(0,-0.26458333,0.26458333,0,29.907365,28.055283)">
      <title
         id="title351">Right Horizontal Mark, RH</title>
      <polygon
         points="8,38 4,38 4,4 0,0 12,0 8,4 "
         style="fill:#ff0000"
         id="polygon353"
         transform="translate(55.107145,-39.999999)" />
    </g>
    <g
       id="g375"
       transform="matrix(0.26458333,0,0,0.26458333,10.970758,14.268601)">
      <title
         id="title371">Southwest Corner Connector, SWC</title>
      <circle
         cx="3"
         cy="3"
         r="3"
         style="fill:#008000"
         id="circle373" />
    </g>
    <g
       id="g392"
       transform="matrix(0.26458333,0,0,0.26458333,14.089062,14.268601)">
      <title
         id="title388">Bottom 2 Touch Connector, B2T</title>
      <circle
         cx="3"
         cy="3"
         r="3"
         style="fill:#008000"
         id="circle390" />
    </g>
    <g
       id="g398"
       transform="matrix(0.26458333,0,0,0.26458333,28.924627,14.079614)">
      <title
         id="title394">Right 2 Touch Connector, R2T</title>
      <circle
         cx="3"
         cy="3"
         r="3"
         style="fill:#008000"
         id="circle396" />
    </g>
    <g
       id="g404"
       transform="matrix(0.26458333,0,0,0.26458333,28.87738,11.197545)">
      <title
         id="title400">Right 2 Touch Connector, R2T</title>
      <circle
         cx="3"
         cy="3"
         r="3"
         style="fill:#008000"
         id="circle402" />
    </g>
    <g
       id="g410"
       transform="matrix(0.26458333,0,0,0.26458333,28.782886,7.7957595)">
      <title
         id="title406">Right 2 Touch Connector, R2T</title>
      <circle
         cx="3"
         cy="3"
         r="3"
         style="fill:#008000"
         id="circle408" />
    </g>
    <g
       id="g416"
       transform="matrix(0.26458333,0,0,0.26458333,25.664583,14.221355)">
      <title
         id="title412">2 Cross Connector, 2C</title>
      <circle
         cx="3"
         cy="3"
         r="3"
         style="fill:#008000"
         id="circle414" />
    </g>
    <g
       id="g422"
       transform="matrix(0.26458333,0,0,0.26458333,25.664583,11.103051)">
      <title
         id="title418">2 Cross Connector, 2C</title>
      <circle
         cx="3"
         cy="3"
         r="3"
         style="fill:#008000"
         id="circle420" />
    </g>
    <g
       id="g428"
       transform="matrix(0.26458333,0,0,0.26458333,25.71183,7.8430066)">
      <title
         id="title424">2 Cross Connector, 2C</title>
      <circle
         cx="3"
         cy="3"
         r="3"
         style="fill:#008000"
         id="circle426" />
    </g>
    <g
       id="g434"
       transform="matrix(0.26458333,0,0,0.26458333,25.475594,4.7247031)">
      <title
         id="title430">Northeast Corner Connector, NEC</title>
      <circle
         cx="3"
         cy="3"
         r="3"
         style="fill:#008000"
         id="circle432" />
    </g>
  </g>
</svg>
