<?xml version="1.0" encoding="UTF-8" standalone="no"?>
<svg
   xmlns:dc="http://purl.org/dc/elements/1.1/"
   xmlns:cc="http://creativecommons.org/ns#"
   xmlns:rdf="http://www.w3.org/1999/02/22-rdf-syntax-ns#"
   xmlns:svg="http://www.w3.org/2000/svg"
   xmlns="http://www.w3.org/2000/svg"
   width="160"
   height="80"
   viewBox="0 0 42.333332 21.166667"
   version="1.1"
   id="svg8">
  <defs
     id="defs2" />
  <metadata
     id="metadata5">
    <rdf:RDF>
      <cc:Work
         rdf:about="">
        <dc:format>image/svg+xml</dc:format>
        <dc:type
           rdf:resource="http://purl.org/dc/dcmitype/StillImage" />
        <dc:title></dc:title>
      </cc:Work>
    </rdf:RDF>
  </metadata>
  <g
     id="layer1">
    <g
       id="g874"
       transform="matrix(0.26458333,0,0,0.26458333,23.774703,4.6774555)">
      <title
         id="title870">Down Vertical Mark, DV</title>
      <polygon
         points="8,4 8,40 4,40 4,4 0,0 12,0 "
         style="fill:#ff0000"
         id="polygon872" />
    </g>
    <g
       id="g892"
       transform="matrix(0.26458333,0,0,0.26458333,17.547545,4.6396571)">
      <title
         id="title888">Down Vertical Mark, DV</title>
      <polygon
         points="0,0 12,0 8,4 8,40 4,40 4,4 "
         style="fill:#ff0000"
         id="polygon890" />
    </g>
    <g
       id="g1045"
       transform="matrix(0,-0.26458333,0.26458333,0,14.882812,11.27314)">
      <title
         id="title1041">Right Horizontal Mark, RH</title>
      <polygon
         points="8,4 8,25 4,25 4,4 0,0 12,0 "
         style="fill:#ff0000"
         id="polygon1043" />
    </g>
    <g
       id="g1062"
       transform="matrix(0.13229166,-0.22913589,0.22913589,0.13229166,20.051685,11.792822)">
      <title
         id="title1058">Right Down Diagonal Mark, RDD</title>
      <polygon
         points="0,0 12,0 8,4 8,25 4,25 4,4 "
         style="fill:#ff0000"
         id="polygon1060" />
    </g>
    <circle
       style="fill:#008000;fill-rule:evenodd;stroke-width:0.264583"
       id="circle1015"
       cx="19.135048"
       cy="9.7801342"
       r="0.79374999">
      <title
         id="title1025">2 Cross Connector, 2C</title>
    </circle>
    <circle
       style="fill:#008000;fill-rule:evenodd;stroke-width:0.264583"
       id="circle1066"
       cx="25.324408"
       cy="12.945684"
       r="0.79374999">
      <title
         id="title1064">2 Cross Connector, 2C</title>
    </circle>
    <circle
       style="fill:#008000;fill-rule:evenodd;stroke-width:0.264583"
       id="circle1070"
       cx="21.450151"
       cy="9.6856403"
       r="0.79374999">
      <title
         id="title1068">Other 2 Touch Connector, O2T</title>
    </circle>
    <g
       id="g1076"
       transform="matrix(0.13229166,-0.22913589,0.22913589,0.13229166,24.965289,7.4270862)">
      <title
         id="title1072">Right Down Diagonal Mark, RDD</title>
      <polygon
         points="0,0 12,0 8,4 8,25 4,25 4,4 "
         style="fill:#ff0000"
         id="polygon1074" />
    </g>
    <g
       id="g1082"
       transform="matrix(0.13229166,-0.22913589,0.22913589,0.13229166,25.012622,10.895129)">
      <title
         id="title1078">Right Down Diagonal Mark, RDD</title>
      <polygon
         points="4,4 0,0 12,0 8,4 8,25 4,25 "
         style="fill:#ff0000"
         id="polygon1080" />
    </g>
    <circle
       style="fill:#008000;fill-rule:evenodd;stroke-width:0.264583"
       id="circle1086"
       cx="25.796877"
       cy="6.1421137"
       r="0.79374999">
      <title
         id="title1084">Other 2 Touch Connector, O2T</title>
    </circle>
    <circle
       style="fill:#008000;fill-rule:evenodd;stroke-width:0.264583"
       id="circle1090"
       cx="25.844124"
       cy="9.5438995"
       r="0.79374999">
      <title
         id="title1088">Other 2 Touch Connector, O2T</title>
    </circle>
  </g>
</svg>
