<?xml version="1.0" encoding="UTF-8" standalone="no"?>
<svg
   xmlns:dc="http://purl.org/dc/elements/1.1/"
   xmlns:cc="http://creativecommons.org/ns#"
   xmlns:rdf="http://www.w3.org/1999/02/22-rdf-syntax-ns#"
   xmlns:svg="http://www.w3.org/2000/svg"
   xmlns="http://www.w3.org/2000/svg"
   xmlns:sodipodi="http://sodipodi.sourceforge.net/DTD/sodipodi-0.dtd"
   xmlns:inkscape="http://www.inkscape.org/namespaces/inkscape"
   width="160"
   height="80"
   viewBox="0 0 42.333332 21.166667"
   version="1.1"
   id="svg8"
   inkscape:version="1.0.2-2 (e86c870879, 2021-01-15)"
   sodipodi:docname="cdli139.svg">
  <defs
     id="defs2" />
  <sodipodi:namedview
     id="base"
     pagecolor="#ffffff"
     bordercolor="#666666"
     borderopacity="1.0"
     inkscape:pageopacity="0.0"
     inkscape:pageshadow="2"
     inkscape:zoom="5.6"
     inkscape:cx="82.569694"
     inkscape:cy="42.237696"
     inkscape:document-units="px"
     inkscape:current-layer="layer1"
     inkscape:document-rotation="0"
     showgrid="false"
     units="px"
     inkscape:window-width="1755"
     inkscape:window-height="1020"
     inkscape:window-x="268"
     inkscape:window-y="27"
     inkscape:window-maximized="0" />
  <metadata
     id="metadata5">
    <rdf:RDF>
      <cc:Work
         rdf:about="">
        <dc:format>image/svg+xml</dc:format>
        <dc:type
           rdf:resource="http://purl.org/dc/dcmitype/StillImage" />
        <dc:title></dc:title>
      </cc:Work>
    </rdf:RDF>
  </metadata>
  <g
     inkscape:label="Layer 1"
     inkscape:groupmode="layer"
     id="layer1">
    <g
       id="g1431"
       transform="matrix(0,-0.26458333,0.26458333,0,14.646577,7.587873)">
      <title
         id="title1427">Right Horizontal Mark, RH</title>
      <polygon
         points="4,40 4,4 0,0 12,0 8,4 8,40 "
         style="fill:#ff0000"
         id="polygon1429" />
    </g>
    <g
       id="g1451"
       transform="matrix(0,-0.26458333,0.26458333,0,14.646577,10.762873)">
      <title
         id="title1447">Right Horizontal Mark, RH</title>
      <polygon
         points="8,35 4,35 4,4 0,0 12,0 8,4 "
         style="fill:#ff0000"
         id="polygon1449" />
    </g>
    <g
       id="g1468"
       transform="matrix(0,-0.26458333,0.26458333,0,14.646577,13.937873)">
      <title
         id="title1464">Right Horizontal Mark, RH</title>
      <polygon
         points="0,0 12,0 8,4 8,30 4,30 4,4 "
         style="fill:#ff0000"
         id="polygon1466" />
    </g>
    <g
       id="g1474"
       transform="matrix(0,-0.26458333,0.26458333,0,14.646577,17.112873)">
      <title
         id="title1470">Right Horizontal Mark, RH</title>
      <polygon
         points="8,4 8,25 4,25 4,4 0,0 12,0 "
         style="fill:#ff0000"
         id="polygon1472" />
    </g>
    <polygon
       points="6,0 6,12 0,6 "
       style="fill:#ff0000"
       id="polygon1488"
       transform="matrix(0.26458333,0,0,0.26458333,28.907581,5.4258104)">
      <title
         id="title1542">Heel Mark, HE</title>
    </polygon>
    <polygon
       points="0,6 6,0 6,12 "
       style="fill:#ff0000"
       id="polygon1502"
       transform="matrix(0.26458333,0,0,0.26458333,25.706123,9.5533103)">
      <title
         id="title1540">Heel Mark, HE</title>
    </polygon>
    <polygon
       points="6,0 6,12 0,6 "
       style="fill:#ff0000"
       id="polygon1504"
       transform="matrix(0.26458333,0,0,0.26458333,22.107792,13.36331)">
      <title
         id="title1538">Heel Mark, HE</title>
    </polygon>
    <polygon
       points="0,6 6,0 6,12 "
       style="fill:#ff0000"
       id="polygon1506"
       transform="matrix(0.26458333,0,0,0.26458333,28.537164,13.07227)">
      <title
         id="title1536">Heel Mark, HE</title>
    </polygon>
    <polygon
       points="4,4 0,0 12,0 8,4 8,18 12,18 8,22 8,40 4,40 4,22 0,18 4,18 "
       style="fill:#ff0000"
       id="polygon1520"
       transform="matrix(0.26458333,0,0,0.26458333,31.957887,5.7168898)">
      <title
         id="title1534">Down Vertical Head-to-Tail Mark, DVHT</title>
    </polygon>
  </g>
</svg>
