<?xml version="1.0" encoding="UTF-8" standalone="no"?>
<svg
   xmlns:dc="http://purl.org/dc/elements/1.1/"
   xmlns:cc="http://creativecommons.org/ns#"
   xmlns:rdf="http://www.w3.org/1999/02/22-rdf-syntax-ns#"
   xmlns:svg="http://www.w3.org/2000/svg"
   xmlns="http://www.w3.org/2000/svg"
   width="160"
   height="80"
   viewBox="0 0 42.333332 21.166667"
   version="1.1"
   id="svg8">
  <defs
     id="defs2" />
  <metadata
     id="metadata5">
    <rdf:RDF>
      <cc:Work
         rdf:about="">
        <dc:format>image/svg+xml</dc:format>
        <dc:type
           rdf:resource="http://purl.org/dc/dcmitype/StillImage" />
        <dc:title></dc:title>
      </cc:Work>
    </rdf:RDF>
  </metadata>
  <g
     id="layer1">
    <g
       id="g857"
       transform="matrix(0.26458333,0,0,0.26458333,23.307939,6.8111687)">
      <title
         id="title853">Down Vertical Mark, DV</title>
      <polygon
         points="8,4 8,40 4,40 4,4 0,0 12,0 "
         style="fill:#ff0000"
         id="polygon855" />
    </g>
    <polygon
       points="4,4 0,0 12,0 8,4 8,35 12,40 0,40 4,35 "
       style="fill:#ff0000"
       id="polygon1000"
       transform="matrix(0,-0.26458333,0.26458333,0,12.274776,9.2982141)">
      <title
         id="title1074">Right Horizontal Barbell Mark, RHBB</title>
    </polygon>
    <polygon
       points="0,0 12,0 8,4 8,35 12,40 0,40 4,35 4,4 "
       style="fill:#ff0000"
       id="polygon1014"
       transform="matrix(0,-0.26458333,0.26458333,0,12.274776,12.473214)">
      <title
         id="title1076">Right Horizontal Barbell Mark, RHBB</title>
    </polygon>
    <polygon
       points="0,0 12,0 8,4 8,35 12,35 8,39 8,74 4,74 4,39 0,35 4,35 4,4 "
       style="fill:#ff0000"
       id="polygon1054"
       transform="matrix(0,-0.26458333,0.26458333,0,11.216443,7.1815475)">
      <title
         id="title1070">Right Horizontal Head-to-Tail Mark, RHHT</title>
    </polygon>
    <polygon
       points="12,0 8,4 8,35 12,35 8,39 8,74 4,74 4,39 0,35 4,35 4,4 0,0 "
       style="fill:#ff0000"
       id="polygon1068"
       transform="matrix(0,-0.26458333,0.26458333,0,11.216443,14.589881)">
      <title
         id="title1072">Right Horizontal Head-to-Tail Mark, RHHT</title>
    </polygon>
    <circle
       style="fill:#008000;fill-rule:evenodd;stroke-width:0.264583"
       id="path839"
       cx="24.86898"
       cy="12.992932"
       r="0.79374999">
      <title
         id="title946">2 Cross Connector, 2C</title>
    </circle>
  </g>
</svg>
