<?xml version="1.0" encoding="UTF-8" standalone="no"?>
<svg
   xmlns:dc="http://purl.org/dc/elements/1.1/"
   xmlns:cc="http://creativecommons.org/ns#"
   xmlns:rdf="http://www.w3.org/1999/02/22-rdf-syntax-ns#"
   xmlns:svg="http://www.w3.org/2000/svg"
   xmlns="http://www.w3.org/2000/svg"
   width="160"
   height="80"
   viewBox="0 0 42.333332 21.166667"
   version="1.1"
   id="svg8">
  <defs
     id="defs2" />
  <metadata
     id="metadata5">
    <rdf:RDF>
      <cc:Work
         rdf:about="">
        <dc:format>image/svg+xml</dc:format>
        <dc:type
           rdf:resource="http://purl.org/dc/dcmitype/StillImage" />
        <dc:title></dc:title>
      </cc:Work>
    </rdf:RDF>
  </metadata>
  <g
     id="layer1">
    <polygon
       points="0,0 12,0 8,4 8,18 12,18 8,22 8,40 4,40 4,22 0,18 4,18 4,4 "
       style="fill:#ff0000"
       id="polygon981"
       transform="matrix(0.26458333,0,0,0.26458333,19.016001,5.3521618)">
      <title
         id="title995">Down Vertical Head-to-Tail Mark, DVHT</title>
    </polygon>
    <g
       id="g1015"
       transform="matrix(0.26458333,0,0,0.26458333,15.841001,5.3521618)">
      <title
         id="title1011">Down Vertical Mark, DV</title>
      <polygon
         points="0,0 12,0 8,4 8,40 4,40 4,4 "
         style="fill:#ff0000"
         id="polygon1013" />
    </g>
    <polygon
       points="6,0 6,12 0,6 "
       style="fill:#ff0000"
       id="polygon1040"
       transform="matrix(0.26458333,0,0,0.26458333,13.427604,10.885714)">
      <title
         id="title1060">Heel Mark, HE</title>
    </polygon>
    <polygon
       points="6,12 0,6 6,0 "
       style="fill:#ff0000"
       id="polygon1054"
       transform="matrix(0.26458333,0,0,0.26458333,8.9391369,10.79122)">
      <title
         id="title1062">Heel Mark, HE</title>
    </polygon>
    <polygon
       points="0,6 6,0 6,12 "
       style="fill:#ff0000"
       id="polygon1056"
       transform="matrix(0.26458333,0,0,0.26458333,11.206994,8.5233625)">
      <title
         id="title1064">Heel Mark, HE</title>
    </polygon>
    <polygon
       points="6,0 6,12 0,6 "
       style="fill:#ff0000"
       id="polygon1058"
       transform="matrix(0.26458333,0,0,0.26458333,13.569345,6.2082585)">
      <title
         id="title1066">Heel Mark, HE</title>
    </polygon>
  </g>
</svg>
