<?xml version="1.0" encoding="UTF-8" standalone="no"?>
<svg
   xmlns:dc="http://purl.org/dc/elements/1.1/"
   xmlns:cc="http://creativecommons.org/ns#"
   xmlns:rdf="http://www.w3.org/1999/02/22-rdf-syntax-ns#"
   xmlns:svg="http://www.w3.org/2000/svg"
   xmlns="http://www.w3.org/2000/svg"
   width="160"
   height="80"
   viewBox="0 0 42.333332 21.166667"
   version="1.1"
   id="svg8">
  <defs
     id="defs2" />
  <metadata
     id="metadata5">
    <rdf:RDF>
      <cc:Work
         rdf:about="">
        <dc:format>image/svg+xml</dc:format>
        <dc:type
           rdf:resource="http://purl.org/dc/dcmitype/StillImage" />
        <dc:title></dc:title>
      </cc:Work>
    </rdf:RDF>
  </metadata>
  <g
     id="layer1">
    <polygon
       points="8,18 12,18 8,22 8,40 4,40 4,22 0,18 4,18 4,4 0,0 12,0 8,4 "
       style="fill:#ff0000"
       id="polygon120"
       transform="matrix(0.26458333,0,0,0.26458333,15.029278,3.7235408)">
      <title
         id="title195">Down Vertical Head-to-Tail Mark, DVHT</title>
    </polygon>
    <polygon
       points="12,18 8,22 8,40 4,40 4,22 0,18 4,18 4,4 0,0 12,0 8,4 8,18 "
       style="fill:#ff0000"
       id="polygon134"
       transform="matrix(0.26458333,0,0,0.26458333,19.28151,3.7235408)">
      <title
         id="title197">Down Vertical Head-to-Tail Mark, DVHT</title>
    </polygon>
    <g
       id="g154"
       transform="matrix(0.13229167,-0.22913589,0.22913589,0.13229167,16.066733,13.351485)">
      <title
         id="title150"> Right Down Diagonal Mark, RDD </title>
      <polygon
         points="8,25 4,25 4,4 0,0 12,0 8,4 "
         style="fill:#ff0000"
         id="polygon152" />
    </g>
    <polygon
       points="6,0 6,12 0,6 "
       style="fill:#ff0000"
       id="polygon179"
       transform="matrix(0.26458333,0,0,0.26458333,22.503757,8.0797164)">
      <title
         id="title193">Heel Mark, HE</title>
    </polygon>
    <circle
       style="fill:#008000;fill-rule:evenodd;stroke-width:0.264583"
       id="path839"
       cx="20.741444"
       cy="13.937872"
       r="0.79374999">
      <title
         id="title1027">Other 2 Touch Connector, O2T</title>
    </circle>
    <circle
       style="fill:#008000;fill-rule:evenodd;stroke-width:0.264583"
       id="circle1031"
       cx="17.008928"
       cy="12.000744"
       r="0.79374999">
      <title
         id="title1029">Other 2 Touch Connector, O2T</title>
    </circle>
  </g>
</svg>
