<?xml version="1.0" encoding="UTF-8" standalone="no"?>
<svg
   xmlns:dc="http://purl.org/dc/elements/1.1/"
   xmlns:cc="http://creativecommons.org/ns#"
   xmlns:rdf="http://www.w3.org/1999/02/22-rdf-syntax-ns#"
   xmlns:svg="http://www.w3.org/2000/svg"
   xmlns="http://www.w3.org/2000/svg"
   width="160"
   height="80"
   viewBox="0 0 42.333332 21.166667"
   version="1.1"
   id="svg8">
  <defs
     id="defs2" />
  <metadata
     id="metadata5">
    <rdf:RDF>
      <cc:Work
         rdf:about="">
        <dc:format>image/svg+xml</dc:format>
        <dc:type
           rdf:resource="http://purl.org/dc/dcmitype/StillImage" />
        <dc:title></dc:title>
      </cc:Work>
    </rdf:RDF>
  </metadata>
  <g
     id="layer1">
    <polygon
       points="0,0 12,0 8,4 8,35 12,40 0,40 4,35 4,4 "
       style="fill:#ff0000"
       id="polygon2150"
       transform="matrix(0,-0.26458333,0.26458333,0,9.5402138,8.5573051)">
      <title
         id="title2158">Right Horizontal Barbell Mark, RHBB</title>
    </polygon>
    <g
       id="g2170"
       transform="matrix(0.26458333,0,0,0.26458333,29.539765,5.3389137)">
      <title
         id="title2166">Down Vertical Mark, DV</title>
      <polygon
         points="4,40 4,4 0,0 12,0 8,4 8,40 "
         style="fill:#ff0000"
         id="polygon2168" />
    </g>
    <g
       id="g2176"
       transform="matrix(0.26458333,0,0,0.26458333,26.364765,5.3389137)">
      <title
         id="title2172">Down Vertical Mark, DV</title>
      <polygon
         points="12,0 8,4 8,40 4,40 4,4 0,0 "
         style="fill:#ff0000"
         id="polygon2174" />
    </g>
    <g
       id="g2196"
       transform="matrix(0,-0.26458333,0.26458333,0,20.808515,8.5139137)">
      <title
         id="title2192">Right Horizontal Mark, RH</title>
      <polygon
         points="8,4 8,25 4,25 4,4 0,0 12,0 "
         style="fill:#ff0000"
         id="polygon2194" />
    </g>
    <g
       id="g2213"
       transform="matrix(0.26458333,0,0,0.26458333,26.999689,5.9814733)">
      <title
         id="title2209">Northeast Corner Connector, NEC</title>
      <circle
         cx="3"
         cy="3"
         r="3"
         style="fill:#008000"
         id="circle2211" />
    </g>
    <polygon
       points="4,39 0,35 4,35 4,4 0,0 12,0 8,4 8,35 12,35 8,39 8,80 4,80 "
       style="fill:#ff0000"
       id="polygon3185"
       transform="matrix(0,-0.26458333,0.26458333,0,9.4314319,14.826116)">
      <title
         id="title3199">Right Horizontal Head-to-Tail Mark, RHHT</title>
    </polygon>
    <g
       id="g2219"
       transform="matrix(0.26458333,0,0,0.26458333,27.046936,12.454316)">
      <title
         id="title2215">2 Cross Connector, 2C</title>
      <circle
         cx="3"
         cy="3"
         r="3"
         style="fill:#008000"
         id="circle2217" />
    </g>
    <g
       id="g2225"
       transform="matrix(0.26458333,0,0,0.26458333,30.306981,12.359822)">
      <title
         id="title2221">Right 2 Touch Connector, R2T</title>
      <circle
         cx="3"
         cy="3"
         r="3"
         style="fill:#008000"
         id="circle2223" />
    </g>
  </g>
</svg>
