<?xml version="1.0" encoding="UTF-8" standalone="no"?>
<svg
   xmlns:dc="http://purl.org/dc/elements/1.1/"
   xmlns:cc="http://creativecommons.org/ns#"
   xmlns:rdf="http://www.w3.org/1999/02/22-rdf-syntax-ns#"
   xmlns:svg="http://www.w3.org/2000/svg"
   xmlns="http://www.w3.org/2000/svg"
   width="160"
   height="80"
   viewBox="0 0 42.333332 21.166667"
   version="1.1"
   id="svg8">
  <defs
     id="defs2" />
  <metadata
     id="metadata5">
    <rdf:RDF>
      <cc:Work
         rdf:about="">
        <dc:format>image/svg+xml</dc:format>
        <dc:type
           rdf:resource="http://purl.org/dc/dcmitype/StillImage" />
        <dc:title></dc:title>
      </cc:Work>
    </rdf:RDF>
  </metadata>
  <g
     id="layer1">
    <polygon
       points="6,0 6,12 0,6 "
       style="fill:#ff0000"
       id="polygon1133"
       transform="matrix(0.26458333,0,0,0.26458333,24.884062,10.696726)">
      <title
         id="title1149">Heel Mark, HE</title>
    </polygon>
    <polygon
       points="6,12 0,6 6,0 "
       style="fill:#ff0000"
       id="polygon1147"
       transform="matrix(0.26458333,0,0,0.26458333,24.778229,5.8302824)">
      <title
         id="title1151">Heel Mark, HE</title>
    </polygon>
    <g
       id="g894"
       transform="matrix(0.26458333,0,0,0.26458333,22.04546,4.8002974)">
      <title
         id="title890">Down Vertical Mark, DV</title>
      <polygon
         points="4,40 4,4 0,0 12,0 8,4 8,40 "
         style="fill:#ff0000"
         id="polygon892" />
    </g>
    <g
       id="g982"
       transform="matrix(0,-0.26458333,0.26458333,0,12.282411,7.0758272)">
      <title
         id="title978">Right Horizontal Mark, RH</title>
      <polygon
         points="0,0 12,0 8,4 8,40 4,40 4,4 "
         style="fill:#ff0000"
         id="polygon980" />
    </g>
    <circle
       style="fill:#008000;fill-rule:evenodd;stroke-width:0.264583"
       id="circle956"
       cx="23.59516"
       cy="5.5184522"
       r="0.79374999">
      <title
         id="title976">Northeast Corner Connector, NEC</title>
    </circle>
    <g
       id="g989"
       transform="matrix(0,-0.26458333,0.26458333,0,13.437053,15.374181)">
      <title
         id="title985">Right Horizontal Mark, RH</title>
      <polygon
         points="4,4 0,0 12,0 8,4 8,40 4,40 "
         style="fill:#ff0000"
         id="polygon987" />
    </g>
    <circle
       style="fill:#008000;fill-rule:evenodd;stroke-width:0.264583"
       id="circle958"
       cx="23.642408"
       cy="13.78668"
       r="0.79374999">
      <title
         id="title966">Right 2 Touch Connector, R2T</title>
    </circle>
    <polygon
       points="8,40 4,40 4,22 0,18 4,18 4,4 0,0 12,0 8,4 8,18 12,18 8,22 "
       style="fill:#ff0000"
       id="polygon1230"
       transform="matrix(0,-0.26458333,0.26458333,0,27.176413,11.481064)">
      <title
         id="title1274">Right Horizontal Head-to-Tail, RHHT</title>
    </polygon>
    <g
       id="g1248"
       transform="matrix(0,-0.26458333,0.26458333,0,27.176413,15.291064)">
      <title
         id="title1244">Right Horizontal Mark, RH</title>
      <polygon
         points="8,4 8,40 4,40 4,4 0,0 12,0 "
         style="fill:#ff0000"
         id="polygon1246" />
    </g>
    <g
       id="g1254"
       transform="matrix(0.0684792,-0.25556787,0.25556787,0.0684792,26.841979,7.9735123)">
      <title
         id="title1250">Right Down Diagonal, RDD</title>
      <polygon
         points="4,4 0,0 12,0 8,4 8,40 4,40 "
         style="fill:#ff0000"
         id="polygon1252" />
    </g>
    <circle
       style="fill:#008000;fill-rule:evenodd;stroke-width:0.264583"
       id="path839"
       cx="37.32515"
       cy="9.4966507"
       r="0.79374999">
      <title
         id="title1272">Other 2 Touch Connector, O2T</title>
    </circle>
  </g>
</svg>
