<?xml version="1.0" encoding="UTF-8" standalone="no"?>
<svg
   xmlns:dc="http://purl.org/dc/elements/1.1/"
   xmlns:cc="http://creativecommons.org/ns#"
   xmlns:rdf="http://www.w3.org/1999/02/22-rdf-syntax-ns#"
   xmlns:svg="http://www.w3.org/2000/svg"
   xmlns="http://www.w3.org/2000/svg"
   width="160"
   height="80"
   viewBox="0 0 42.333332 21.166667"
   version="1.1"
   id="svg8">
  <defs
     id="defs2" />
  <metadata
     id="metadata5">
    <rdf:RDF>
      <cc:Work
         rdf:about="">
        <dc:format>image/svg+xml</dc:format>
        <dc:type
           rdf:resource="http://purl.org/dc/dcmitype/StillImage" />
        <dc:title></dc:title>
      </cc:Work>
    </rdf:RDF>
  </metadata>
  <g
     id="layer1">
    <g
       id="g917"
       transform="matrix(0,-0.26458333,0.26458333,0,16.222662,12.306831)">
      <title
         id="title913">Right Horizontal Mark, RH</title>
      <polygon
         points="4,40 4,4 0,0 12,0 8,4 8,40 "
         style="fill:#ff0000"
         id="polygon915" />
    </g>
    <polygon
       points="0,6 6,0 6,12 "
       style="fill:#ff0000"
       id="polygon968"
       transform="matrix(0.26458333,0,0,0.26458333,13.569345,8.1586916)">
      <title
         id="title984">Heel Mark, HE</title>
    </polygon>
    <polygon
       points="6,0 6,12 0,6 "
       style="fill:#ff0000"
       id="polygon982"
       transform="matrix(0.26458333,0,0,0.26458333,13.616592,4.7436008)">
      <title
         id="title986">Heel Mark, HE</title>
    </polygon>
    <polygon
       points="8,18 12,18 8,22 8,40 4,40 4,22 0,18 4,18 4,4 0,0 12,0 8,4 "
       style="fill:#ff0000"
       id="polygon1026"
       transform="matrix(0,-0.26458333,0.26458333,0,16.222662,9.131831)">
      <title
         id="title1046">Right Horizontal Head-to-Tail Mark, RHHT</title>
    </polygon>
    <g
       id="g1044"
       transform="matrix(0.09049282,-0.248627,0.248627,0.09049282,16.048256,5.1478156)">
      <title
         id="title1040">Right Down Diagonal  Mark, RDD</title>
      <polygon
         points="4,40 4,4 0,0 12,0 8,4 8,40 "
         style="fill:#ff0000"
         id="polygon1042" />
    </g>
    <circle
       style="fill:#008000;fill-rule:evenodd;stroke-width:0.264583"
       id="circle1006"
       cx="26.363838"
       cy="7.3705349"
       r="0.79374999">
      <title
         id="title1008">Other 2 Touch Connector, O2T</title>
    </circle>
  </g>
</svg>
