<?xml version="1.0" encoding="UTF-8" standalone="no"?>
<svg
   xmlns:dc="http://purl.org/dc/elements/1.1/"
   xmlns:cc="http://creativecommons.org/ns#"
   xmlns:rdf="http://www.w3.org/1999/02/22-rdf-syntax-ns#"
   xmlns:svg="http://www.w3.org/2000/svg"
   xmlns="http://www.w3.org/2000/svg"
   width="160"
   height="80"
   viewBox="0 0 42.333332 21.166667"
   version="1.1"
   id="svg8">
  <defs
     id="defs2" />
  <metadata
     id="metadata5">
    <rdf:RDF>
      <cc:Work
         rdf:about="">
        <dc:format>image/svg+xml</dc:format>
        <dc:type
           rdf:resource="http://purl.org/dc/dcmitype/StillImage" />
        <dc:title></dc:title>
      </cc:Work>
    </rdf:RDF>
  </metadata>
  <g
     id="layer1">
    <polygon
       points="4,18 4,4 0,0 12,0 8,4 8,18 12,18 8,22 8,40 4,40 4,22 0,18 "
       style="fill:#ff0000"
       id="polygon48"
       transform="matrix(0,-0.26458333,0.43356609,0,1.5875,11.944194)">
      <title
         id="title197">Right Horizontal Head-to-Tail Mark, RHHT</title>
    </polygon>
    <g
       id="g80"
       transform="matrix(0.26458333,0,0,0.26458333,17.89,4.8645757)">
      <title
         id="title76">Down Vertical Mark, DV</title>
      <polygon
         points="8,4 8,40 4,40 4,4 0,0 12,0 "
         style="fill:#ff0000"
         id="polygon78" />
    </g>
    <g
       id="g97"
       transform="matrix(0.26458333,0,0,0.26458333,14.814993,4.8645757)">
      <title
         id="title93">Down Vertical Mark, DV</title>
      <polygon
         points="4,40 4,4 0,0 12,0 8,4 8,40 "
         style="fill:#ff0000"
         id="polygon95" />
    </g>
    <g
       id="g123"
       transform="matrix(0,-0.26458333,0.26458333,0,9.2587431,8.0395757)">
      <title
         id="title119">Right Horizontal Mark, RH</title>
      <polygon
         points="8,4 8,25 4,25 4,4 0,0 12,0 "
         style="fill:#ff0000"
         id="polygon121" />
    </g>
    <g
       id="g140"
       transform="matrix(0,-0.26458333,0.23481771,0,9.5411396,15.859916)">
      <title
         id="title136">Right Horizontal Mark, RH</title>
      <polygon
         points="0,0 12,0 8,4 8,40 4,40 4,4 "
         style="fill:#ff0000"
         id="polygon138" />
    </g>
    <g
       id="g160"
       transform="matrix(0.26458333,0,0,0.26458333,15.509691,5.7543532)">
      <title
         id="title156">Northeast Corner Connector, NEC</title>
      <circle
         cx="3"
         cy="3"
         r="3"
         style="fill:#008000"
         id="circle158" />
    </g>
    <g
       id="g177"
       transform="matrix(0.26458333,0,0,0.26458333,18.716926,9.5629437)">
      <title
         id="title173">Right 2 Touch Connector, R2T</title>
      <circle
         cx="3"
         cy="3"
         r="3"
         style="fill:#008000"
         id="circle175" />
    </g>
    <g
       id="g183"
       transform="matrix(0.26458333,0,0,0.26458333,18.650108,13.438352)">
      <title
         id="title179">Right 2 Touch Connector, R2T</title>
      <circle
         cx="3"
         cy="3"
         r="3"
         style="fill:#008000"
         id="circle181" />
    </g>
    <g
       id="g189"
       transform="matrix(0.26458333,0,0,0.26458333,15.576508,13.571987)">
      <title
         id="title185">2 Cross Connector, 2C</title>
      <circle
         cx="3"
         cy="3"
         r="3"
         style="fill:#008000"
         id="circle187" />
    </g>
    <g
       id="g195"
       transform="matrix(0.26458333,0,0,0.26458333,15.576508,9.6965789)">
      <title
         id="title191">2 Cross Connector, 2C</title>
      <circle
         cx="3"
         cy="3"
         r="3"
         style="fill:#008000"
         id="circle193" />
    </g>
  </g>
</svg>
