<?xml version="1.0" encoding="UTF-8" standalone="no"?>
<svg
   xmlns:dc="http://purl.org/dc/elements/1.1/"
   xmlns:cc="http://creativecommons.org/ns#"
   xmlns:rdf="http://www.w3.org/1999/02/22-rdf-syntax-ns#"
   xmlns:svg="http://www.w3.org/2000/svg"
   xmlns="http://www.w3.org/2000/svg"
   width="160"
   height="80"
   viewBox="0 0 42.333332 21.166667"
   version="1.1"
   id="svg8">
  <defs
     id="defs2" />
  <metadata
     id="metadata5">
    <rdf:RDF>
      <cc:Work
         rdf:about="">
        <dc:format>image/svg+xml</dc:format>
        <dc:type
           rdf:resource="http://purl.org/dc/dcmitype/StillImage" />
        <dc:title></dc:title>
      </cc:Work>
    </rdf:RDF>
  </metadata>
  <g
     id="layer1">
    <polygon
       points="6,12 0,6 6,0 "
       style="fill:#ff0000"
       id="polygon965"
       transform="matrix(0.26458333,0,0,0.26458333,18.199553,7.2760795)">
      <title
         id="title987">Heel Mark, HE</title>
    </polygon>
    <g
       id="g1007"
       transform="matrix(0,-0.26458333,0.26458333,0,11.377083,8.0886913)">
      <title
         id="title1003">Right Horizontal Mark, RH</title>
      <polygon
         points="4,40 4,4 0,0 12,0 8,4 8,40 "
         style="fill:#ff0000"
         id="polygon1005" />
    </g>
    <g
       id="g1024"
       transform="matrix(0,-0.26458333,0.26458333,0,11.377083,13.882952)">
      <title
         id="title1020">Right Horizontal Mark, RH</title>
      <polygon
         points="0,0 12,0 8,4 8,40 4,40 4,4 "
         style="fill:#ff0000"
         id="polygon1022" />
    </g>
    <g
       id="g1044"
       transform="matrix(0,-0.26458333,0.26458333,0,4.7624997,9.1470246)">
      <title
         id="title1040">Right Horizontal Mark, RH</title>
      <polygon
         points="8,25 4,25 4,4 0,0 12,0 8,4 "
         style="fill:#ff0000"
         id="polygon1042" />
    </g>
    <g
       id="g1061"
       transform="matrix(0,-0.26458333,0.26458333,0,4.7624997,12.824619)">
      <title
         id="title1057">Right Horizontal Mark, RH</title>
      <polygon
         points="0,0 12,0 8,4 8,25 4,25 4,4 "
         style="fill:#ff0000"
         id="polygon1059" />
    </g>
    <polygon
       points="6,0 6,12 0,6 "
       style="fill:#ff0000"
       id="polygon1065"
       transform="matrix(0.26458333,0,0,0.26458333,2.4777473,7.7806776)">
      <title
         id="title1063">Heel Mark, HE</title>
    </polygon>
    <circle
       style="fill:#008000;fill-rule:evenodd;stroke-width:0.264583"
       id="circle1097"
       cx="11.528275"
       cy="11.244792"
       r="0.79374999">
      <title
         id="title1107">Horizontal 2 Touch Connector, H2T</title>
    </circle>
    <circle
       style="fill:#008000;fill-rule:evenodd;stroke-width:0.264583"
       id="circle1101"
       cx="11.481028"
       cy="7.3232889"
       r="0.79374999">
      <title
         id="title1109">Horizontal 2 Touch Connector, H2T</title>
    </circle>
    <g
       id="g1119"
       transform="matrix(0.26458333,0,0,0.26458333,14.089062,8.0243209)">
      <title
         id="title1115">Down Vertical Mark, DV</title>
      <polygon
         points="4,4 0,0 12,0 8,4 8,25 4,25 "
         style="fill:#ff0000"
         id="polygon1117" />
    </g>
    <g
       id="g1125"
       transform="matrix(0.26458333,0,0,0.26458333,20.902083,4.9136913)">
      <title
         id="title1121">Down Vertical Mark, DV</title>
      <polygon
         points="0,0 12,0 8,4 8,40 4,40 4,4 "
         style="fill:#ff0000"
         id="polygon1123" />
    </g>
    <circle
       style="fill:#008000;fill-rule:evenodd;stroke-width:0.264583"
       id="circle1103"
       cx="22.489584"
       cy="6.4728422"
       r="0.79374999">
      <title
         id="title1113">Northeast Corner Connector, NEC</title>
    </circle>
    <circle
       style="fill:#008000;fill-rule:evenodd;stroke-width:0.264583"
       id="path839"
       cx="22.347841"
       cy="12.331472"
       r="0.79374999">
      <title
         id="title1105">Right 2 Touch Connector, R2T</title>
    </circle>
    <circle
       style="fill:#008000;fill-rule:evenodd;stroke-width:0.264583"
       id="circle1129"
       cx="15.638764"
       cy="12.142486"
       r="0.79374999">
      <title
         id="title1127">2 Cross Connector, 2C</title>
    </circle>
  </g>
</svg>
