<?xml version="1.0" encoding="UTF-8" standalone="no"?>
<svg
   xmlns:dc="http://purl.org/dc/elements/1.1/"
   xmlns:cc="http://creativecommons.org/ns#"
   xmlns:rdf="http://www.w3.org/1999/02/22-rdf-syntax-ns#"
   xmlns:svg="http://www.w3.org/2000/svg"
   xmlns="http://www.w3.org/2000/svg"
   width="160"
   height="80"
   viewBox="0 0 42.333332 21.166667"
   version="1.1"
   id="svg8">
  <defs
     id="defs2" />
  <metadata
     id="metadata5">
    <rdf:RDF>
      <cc:Work
         rdf:about="">
        <dc:format>image/svg+xml</dc:format>
        <dc:type
           rdf:resource="http://purl.org/dc/dcmitype/StillImage" />
        <dc:title></dc:title>
      </cc:Work>
    </rdf:RDF>
  </metadata>
  <g
     id="layer1">
    <g
       id="g62"
       transform="matrix(0.26458333,0,0,0.26458333,36.35186,5.4806547)">
      <title
         id="title58">Down Vertical Mark, DV</title>
      <polygon
         points="4,40 4,4 0,0 12,0 8,4 8,40 "
         style="fill:#ff0000"
         id="polygon60" />
    </g>
    <g
       id="g79"
       transform="matrix(0.26458333,0,0,0.26458333,12.199181,5.057208)">
      <title
         id="title75">Down Vertical Mark, DV</title>
      <polygon
         points="8,40 4,40 4,4 0,0 12,0 8,4 "
         style="fill:#ff0000"
         id="polygon77" />
    </g>
    <g
       id="g169"
       transform="matrix(0,-0.26458333,0.26458333,0,6.6429311,8.232208)">
      <title
         id="title165">Right Horizontal Mark, RH</title>
      <polygon
         points="4,4 0,0 12,0 8,4 8,25 4,25 "
         style="fill:#ff0000"
         id="polygon167" />
    </g>
    <g
       id="g175"
       transform="matrix(0,-0.26458333,0.26458333,0,6.6241083,15.385407)">
      <title
         id="title171">Right Horizontal Mark, RH</title>
      <polygon
         points="8,25 4,25 4,4 0,0 12,0 8,4 "
         style="fill:#ff0000"
         id="polygon173" />
    </g>
    <g
       id="g181"
       transform="matrix(0,-0.26458333,0.26458333,0,4.0915923,11.879678)">
      <title
         id="title177">Right Horizontal Mark, RH</title>
      <polygon
         points="4,35 4,4 0,0 12,0 8,4 8,35 "
         style="fill:#ff0000"
         id="polygon179" />
    </g>
    <g
       id="g218"
       transform="matrix(0.26458333,0,0,0.26458333,12.813393,12.955134)">
      <title
         id="title214">Right 2 Touch Connector, R2T</title>
      <circle
         cx="3"
         cy="3"
         r="3"
         style="fill:#008000"
         id="circle216" />
    </g>
    <g
       id="g224"
       transform="matrix(0.26458333,0,0,0.26458333,12.813394,9.5061011)">
      <title
         id="title220">Right 2 Touch Connector, R2T</title>
      <circle
         cx="3"
         cy="3"
         r="3"
         style="fill:#008000"
         id="circle222" />
    </g>
    <g
       id="g230"
       transform="matrix(0.26458333,0,0,0.26458333,12.813393,5.9153272)">
      <title
         id="title226">Northeast Corner Connector, NEC</title>
      <circle
         cx="3"
         cy="3"
         r="3"
         style="fill:#008000"
         id="circle228" />
    </g>
    <g
       id="g236"
       transform="matrix(0.26458333,0,0,0.26458333,33.17686,5.4806547)">
      <title
         id="title232">Down Vertical Mark, DV</title>
      <polygon
         points="12,0 8,4 8,40 4,40 4,4 0,0 "
         style="fill:#ff0000"
         id="polygon234" />
    </g>
    <g
       id="g256"
       transform="matrix(0,-0.26458333,0.26458333,0,19.031101,4.9514881)">
      <title
         id="title252">Right Horizontal Mark, RH</title>
      <polygon
         points="0,0 12,0 8,4 8,57 4,57 4,4 "
         style="fill:#ff0000"
         id="polygon254"
         transform="translate(-12.199714,0.46428666)" />
    </g>
    <g
       id="g273"
       transform="matrix(0,-0.26458333,0.26458333,0,19.377025,15.487574)">
      <title
         id="title269">Right Horizontal Mark, RH</title>
      <polygon
         style="fill:#ff0000"
         id="polygon271"
         points="4,4 0,0 12,0 8,4 8,72 4,72 " />
    </g>
    <g
       id="g279"
       transform="matrix(0,-0.26458333,0.26458333,0,15.232441,10.186458)">
      <title
         id="title275">Right Horizontal Mark, RH</title>
      <polygon
         points="12,0 8,4 8,25 4,25 4,4 0,0 "
         style="fill:#ff0000"
         id="polygon277" />
    </g>
    <g
       id="g285"
       transform="matrix(0,-0.26458333,0.26458333,0,15.232441,13.361458)">
      <title
         id="title281">Right Horizontal Mark, RH</title>
      <polygon
         points="0,0 12,0 8,4 8,25 4,25 4,4 "
         style="fill:#ff0000"
         id="polygon283" />
    </g>
    <g
       id="g201"
       transform="matrix(0.26458333,0,0,0.26458333,33.932812,13.191369)">
      <title
         id="title197">2 Cross Connector, 2C</title>
      <circle
         cx="3"
         cy="3"
         r="3"
         style="fill:#008000"
         id="circle199" />
    </g>
    <g
       id="g291"
       transform="matrix(0.26458333,0,0,0.26458333,36.956622,13.049628)">
      <title
         id="title287">Right 2 Touch Connector, R2T</title>
      <circle
         cx="3"
         cy="3"
         r="3"
         style="fill:#008000"
         id="circle289" />
    </g>
    <g
       id="g297"
       transform="matrix(0.26458333,0,0,0.26458333,33.838318,5.8680802)">
      <title
         id="title293">Northeast Corner Connector, NEC</title>
      <circle
         cx="3"
         cy="3"
         r="3"
         style="fill:#008000"
         id="circle295" />
    </g>
    <polygon
       points="6,12 0,6 6,0 "
       style="fill:#ff0000"
       id="polygon311"
       transform="matrix(0.26458333,0,0,0.26458333,29.775074,8.57061)">
      <title
         id="title325">Heel Mark, HE</title>
    </polygon>
  </g>
</svg>
