<?xml version="1.0" encoding="UTF-8" standalone="no"?>
<svg
   xmlns:dc="http://purl.org/dc/elements/1.1/"
   xmlns:cc="http://creativecommons.org/ns#"
   xmlns:rdf="http://www.w3.org/1999/02/22-rdf-syntax-ns#"
   xmlns:svg="http://www.w3.org/2000/svg"
   xmlns="http://www.w3.org/2000/svg"
   width="160"
   height="80"
   viewBox="0 0 42.333332 21.166667"
   version="1.1"
   id="svg8">
  <defs
     id="defs2" />
  <metadata
     id="metadata5">
    <rdf:RDF>
      <cc:Work
         rdf:about="">
        <dc:format>image/svg+xml</dc:format>
        <dc:type
           rdf:resource="http://purl.org/dc/dcmitype/StillImage" />
        <dc:title></dc:title>
      </cc:Work>
    </rdf:RDF>
  </metadata>
  <g
     id="layer1">
    <g
       id="g857"
       transform="matrix(0.26458333,0,0,0.26458333,27.784953,5.0270833)">
      <title
         id="title853">Down Vertical Mark, DV</title>
      <polygon
         points="4,4 0,0 12,0 8,4 8,50 4,50 "
         style="fill:#ff0000"
         id="polygon855"
         transform="translate(0,-3.1)" />
    </g>
    <g
       id="g880"
       transform="matrix(0,-0.26458333,0.26458333,0,18.254398,7.8052083)">
      <title
         id="title876">Right Horizontal Mark, RH</title>
      <polygon
         points="12,0 8,4 8,40 4,40 4,4 0,0 "
         style="fill:#ff0000"
         id="polygon878" />
    </g>
    <g
       id="g886"
       transform="matrix(0,-0.26458333,0.26458333,0,18.254398,10.980208)">
      <title
         id="title882">Right Horizontal Mark, RH</title>
      <polygon
         points="0,0 12,0 8,4 8,40 4,40 4,4 "
         style="fill:#ff0000"
         id="polygon884" />
    </g>
    <g
       id="g892"
       transform="matrix(0,-0.26458333,0.26458333,0,18.254398,14.155208)">
      <title
         id="title888">Right Horizontal Mark, RH</title>
      <polygon
         points="8,40 4,40 4,4 0,0 12,0 8,4 "
         style="fill:#ff0000"
         id="polygon890" />
    </g>
    <g
       id="g898"
       transform="matrix(0,-0.26458333,0.26458333,0,18.254398,17.330208)">
      <title
         id="title894">Right Horizontal Mark, RH</title>
      <polygon
         points="0,0 12,0 8,4 8,40 4,40 4,4 "
         style="fill:#ff0000"
         id="polygon896" />
    </g>
    <g
       id="g904"
       transform="matrix(0.26458333,0,0,0.26458333,14.414045,5.0270833)">
      <title
         id="title900">Down Vertical Mark, DV</title>
      <polygon
         points="12,0 8,4 8,50 4,50 4,4 0,0 "
         style="fill:#ff0000"
         id="polygon902"
         transform="translate(0,-3.1)" />
    </g>
    <polygon
       points="6,12 0,6 6,0 "
       style="fill:#ff0000"
       id="polygon918"
       transform="matrix(0.26458333,0,0,0.26458333,19.711458,2.1450148)">
      <title
         id="title966">Heel Mark, HE</title>
    </polygon>
    <polygon
       points="0,6 6,0 6,12 "
       style="fill:#ff0000"
       id="polygon932"
       transform="matrix(0.26458333,0,0,0.26458333,13.380357,15.23244)">
      <title
         id="title964">Heel Mark, HE</title>
    </polygon>
    <circle
       style="fill:#008000;fill-rule:evenodd;stroke-width:0.264583"
       id="path839"
       cx="29.434896"
       cy="15.922247"
       r="0.79374999">
      <title
         id="title962">Right 2 Touch Connector, R2T</title>
    </circle>
    <circle
       style="fill:#008000;fill-rule:evenodd;stroke-width:0.264583"
       id="circle950"
       cx="29.387648"
       cy="6.283854"
       r="0.79374999">
      <title
         id="title956">Right 2 Touch Connector, R2T</title>
    </circle>
    <circle
       style="fill:#008000;fill-rule:evenodd;stroke-width:0.264583"
       id="circle952"
       cx="29.387651"
       cy="12.70945"
       r="0.79374999">
      <title
         id="title960">Right 2 Touch Connector, R2T</title>
    </circle>
    <circle
       style="fill:#008000;fill-rule:evenodd;stroke-width:0.264583"
       id="circle954"
       cx="29.293158"
       cy="9.4966516"
       r="0.79374999">
      <title
         id="title958">Right 2 Touch Connector, R2T</title>
    </circle>
  </g>
</svg>
