<?xml version="1.0" encoding="UTF-8" standalone="no"?>
<svg
   xmlns:dc="http://purl.org/dc/elements/1.1/"
   xmlns:cc="http://creativecommons.org/ns#"
   xmlns:rdf="http://www.w3.org/1999/02/22-rdf-syntax-ns#"
   xmlns:svg="http://www.w3.org/2000/svg"
   xmlns="http://www.w3.org/2000/svg"
   width="160"
   height="80"
   viewBox="0 0 42.333332 21.166667"
   version="1.1"
   id="svg8">
  <defs
     id="defs2" />
  <metadata
     id="metadata5">
    <rdf:RDF>
      <cc:Work
         rdf:about="">
        <dc:format>image/svg+xml</dc:format>
        <dc:type
           rdf:resource="http://purl.org/dc/dcmitype/StillImage" />
        <dc:title></dc:title>
      </cc:Work>
    </rdf:RDF>
  </metadata>
  <g
     id="layer1">
    <polygon
       points="0,6 6,0 6,12 "
       style="fill:#ff0000"
       id="polygon965"
       transform="matrix(0.26458333,0,0,0.26458333,10.927292,6.6862854)">
      <title
         id="title987">Heel Mark, HE</title>
    </polygon>
    <g
       id="g1044"
       transform="matrix(0,-0.26458333,0.26458333,0,5.159375,9.1470246)">
      <title
         id="title1040">Right Horizontal Mark, RH</title>
      <polygon
         points="8,4 8,25 4,25 4,4 0,0 12,0 "
         style="fill:#ff0000"
         id="polygon1042" />
    </g>
    <g
       id="g1061"
       transform="matrix(0,-0.26458333,0.26458333,0,5.23875,12.824619)">
      <title
         id="title1057">Right Horizontal Mark, RH</title>
      <polygon
         points="12,0 8,4 8,30 4,30 4,4 0,0 "
         style="fill:#ff0000"
         id="polygon1059" />
    </g>
    <polygon
       points="0,6 6,0 6,12 "
       style="fill:#ff0000"
       id="polygon1065"
       transform="matrix(0.26458333,0,0,0.26458333,2.4777473,7.7806776)">
      <title
         id="title1063">Heel Mark, HE</title>
    </polygon>
    <g
       id="g1125"
       transform="matrix(0.26458333,0,0,0.26458333,11.959167,4.6225354)">
      <title
         id="title1121">Down Vertical Mark, DV</title>
      <polygon
         points="8,4 8,40 4,40 4,4 0,0 12,0 "
         style="fill:#ff0000"
         id="polygon1123" />
    </g>
    <g
       id="g1135"
       transform="matrix(0,-0.26458333,0.26458333,0,15.298586,14.005795)">
      <title
         id="title1131">Right Horizontal Mark, RH</title>
      <polygon
         points="8,25 4,25 4,4 0,0 12,0 8,4 "
         style="fill:#ff0000"
         id="polygon1133" />
    </g>
    <g
       id="g1141"
       transform="matrix(0,-0.26458333,0.26458333,0,15.345833,7.850452)">
      <title
         id="title1137">Right Horizontal Mark, RH</title>
      <polygon
         points="4,4 0,0 12,0 8,4 8,25 4,25 "
         style="fill:#ff0000"
         id="polygon1139" />
    </g>
    <g
       id="g1147"
       transform="matrix(0.26458333,0,0,0.26458333,20.756565,4.5829621)">
      <title
         id="title1143">Down Vertical Mark, DV</title>
      <polygon
         points="0,0 12,0 8,4 8,40 4,40 4,4 "
         style="fill:#ff0000"
         id="polygon1145" />
    </g>
    <circle
       style="fill:#008000;fill-rule:evenodd;stroke-width:0.264583"
       id="path839"
       cx="22.347841"
       cy="12.331472"
       r="0.79374999">
      <title
         id="title1105">Right 2 Touch Connector, R2T</title>
    </circle>
    <circle
       style="fill:#008000;fill-rule:evenodd;stroke-width:0.264583"
       id="circle1103"
       cx="22.330839"
       cy="6.2346416"
       r="0.79374999">
      <title
         id="title1113">Northeast Corner Connector, NEC</title>
    </circle>
    <circle
       style="fill:#008000;fill-rule:evenodd;stroke-width:0.264583"
       id="circle1097"
       cx="13.433161"
       cy="11.244792"
       r="0.79374999">
      <title
         id="title1107">Right 2 Touch Connector, R2T</title>
    </circle>
  </g>
</svg>
