<?xml version="1.0" encoding="UTF-8" standalone="no"?>
<svg
   xmlns:dc="http://purl.org/dc/elements/1.1/"
   xmlns:cc="http://creativecommons.org/ns#"
   xmlns:rdf="http://www.w3.org/1999/02/22-rdf-syntax-ns#"
   xmlns:svg="http://www.w3.org/2000/svg"
   xmlns="http://www.w3.org/2000/svg"
   width="160"
   height="80"
   viewBox="0 0 42.333332 21.166667"
   version="1.1"
   id="svg8">
  <defs
     id="defs2" />
  <metadata
     id="metadata5">
    <rdf:RDF>
      <cc:Work
         rdf:about="">
        <dc:format>image/svg+xml</dc:format>
        <dc:type
           rdf:resource="http://purl.org/dc/dcmitype/StillImage" />
        <dc:title></dc:title>
      </cc:Work>
    </rdf:RDF>
  </metadata>
  <g
     id="layer1">
    <polygon
       points="8,22 8,40 4,40 4,22 0,18 4,18 4,4 0,0 12,0 8,4 8,18 12,18 "
       style="fill:#ff0000"
       id="polygon102"
       transform="matrix(0.26458333,0,0,0.26458333,10.205357,4.7247027)">
      <title
         id="title147">Down Vertical Head-to-Tail Mark, DVHT</title>
    </polygon>
    <g
       id="g134"
       transform="matrix(0.26458333,0,0,0.26458333,7.0303571,4.7247027)">
      <title
         id="title130">Down Vertical Mark, DV</title>
      <polygon
         points="8,4 8,40 4,40 4,4 0,0 12,0 "
         style="fill:#ff0000"
         id="polygon132" />
    </g>
    <g
       id="g495"
       transform="matrix(0.26458333,0,0,0.26458333,15.341108,4.6339125)">
      <title
         id="title491">Down Vertical Mark, DV</title>
      <polygon
         points="0,0 12,0 8,4 8,40 4,40 4,4 "
         style="fill:#ff0000"
         id="polygon493" />
    </g>
    <polygon
       points="12,0 8,4 8,40 4,40 4,4 0,0 "
       style="fill:#ff0000"
       id="polygon516"
       transform="matrix(0,-0.26458333,0.26458333,0,17.431279,6.6976624)" />
    <polygon
       points="0,0 12,0 8,4 8,40 4,40 4,4 "
       style="fill:#ff0000"
       id="polygon1072"
       transform="matrix(0,-0.26458333,0.26458333,0,17.431279,16.302037)" />
    <g
       id="g1044"
       transform="matrix(0.26458333,0,0,0.26458333,26.268362,4.6339125)">
      <title
         id="title1040">Down Vertical Mark, DV</title>
      <polygon
         points="0,0 12,0 8,4 8,40 4,40 4,4 "
         style="fill:#ff0000"
         id="polygon1042" />
    </g>
    <polygon
       points="4,18 4,4 0,0 12,0 8,4 8,18 12,18 8,22 8,40 4,40 4,22 0,18 "
       style="fill:#ff0000"
       id="polygon1058"
       transform="matrix(0,-0.26458333,0.26458333,0,19.185995,11.577373)" />
    <g
       id="g417"
       transform="matrix(0.26458333,0,0,0.26458333,16.796316,13.909524)">
      <title
         id="title413">Southwest Corner Connector, SWC</title>
      <circle
         cx="3"
         cy="3"
         r="3"
         style="fill:#008000"
         id="circle415" />
    </g>
    <g
       id="g423"
       transform="matrix(0.26458333,0,0,0.26458333,16.843563,4.4128718)">
      <title
         id="title419">Northwest Corner Connector, NWC</title>
      <circle
         cx="3"
         cy="3"
         r="3"
         style="fill:#008000"
         id="circle421" />
    </g>
    <g
       id="g376"
       transform="matrix(0.26458333,0,0,0.26458333,27.096167,4.4128721)">
      <title
         id="title372">Northeast Corner Connector, NEC</title>
      <circle
         cx="3"
         cy="3"
         r="3"
         style="fill:#008000"
         id="circle374" />
    </g>
    <g
       id="g1034"
       transform="matrix(0.26458333,0,0,0.26458333,27.048921,9.1848218)">
      <title
         id="title1030">2 Cross Connector, 2C</title>
      <circle
         cx="3"
         cy="3"
         r="3"
         style="fill:#008000"
         id="circle1032" />
    </g>
    <g
       id="g393"
       transform="matrix(0.26458333,0,0,0.26458333,27.001674,13.81503)">
      <title
         id="title389">Southeast Corner Connector, SEC</title>
      <circle
         cx="3"
         cy="3"
         r="3"
         style="fill:#008000"
         id="circle391" />
    </g>
  </g>
</svg>
