<?xml version="1.0" encoding="UTF-8" standalone="no"?>
<svg
   xmlns:dc="http://purl.org/dc/elements/1.1/"
   xmlns:cc="http://creativecommons.org/ns#"
   xmlns:rdf="http://www.w3.org/1999/02/22-rdf-syntax-ns#"
   xmlns:svg="http://www.w3.org/2000/svg"
   xmlns="http://www.w3.org/2000/svg"
   width="160"
   height="80"
   viewBox="0 0 42.333332 21.166667"
   version="1.1"
   id="svg8">
  <defs
     id="defs2" />
  <metadata
     id="metadata5">
    <rdf:RDF>
      <cc:Work
         rdf:about="">
        <dc:format>image/svg+xml</dc:format>
        <dc:type
           rdf:resource="http://purl.org/dc/dcmitype/StillImage" />
        <dc:title></dc:title>
      </cc:Work>
    </rdf:RDF>
  </metadata>
  <g
     id="layer1">
    <g
       id="g51"
       transform="matrix(0,-0.26458333,0.26458333,0,11.910975,13.843378)">
      <title
         id="title47">Right Horizontal Mark, RH</title>
      <polygon
         points="4,4 0,0 12,0 8,4 8,40 4,40 "
         style="fill:#ff0000"
         id="polygon49" />
    </g>
    <polygon
       points="8,4 8,35 12,40 0,40 4,35 4,4 0,0 12,0 "
       style="fill:#ff0000"
       id="polygon2136"
       transform="matrix(0,-0.26458333,0.26458333,0,22.669235,9.3038082)">
      <title
         id="title2156">Right Horizontal Barbell Mark, RHBB</title>
    </polygon>
    <polygon
       points="12,0 8,4 8,35 12,40 0,40 4,35 4,4 0,0 "
       style="fill:#ff0000"
       id="polygon2150"
       transform="matrix(0,-0.26458333,0.26458333,0,11.847777,9.3302666)">
      <title
         id="title2158">Right Horizontal Barbell Mark, RHBB</title>
    </polygon>
    <polygon
       points="12,40 0,40 4,35 4,4 0,0 12,0 8,4 8,35 "
       style="fill:#ff0000"
       id="polygon2152"
       transform="matrix(0,-0.26458333,0.26458333,0,22.489583,13.871726)">
      <title
         id="title2154">Right Horizontal Barbell Mark, RHBB</title>
    </polygon>
    <g
       id="g2116"
       transform="matrix(0.26458333,0,0,0.26458333,21.851748,11.43378)">
      <title
         id="title2112">Horizontal 2 Touch Connector, H2T</title>
      <circle
         cx="3"
         cy="3"
         r="3"
         style="fill:#008000"
         id="circle2114" />
    </g>
  </g>
</svg>
