<?xml version="1.0" encoding="UTF-8" standalone="no"?>
<svg
   xmlns:dc="http://purl.org/dc/elements/1.1/"
   xmlns:cc="http://creativecommons.org/ns#"
   xmlns:rdf="http://www.w3.org/1999/02/22-rdf-syntax-ns#"
   xmlns:svg="http://www.w3.org/2000/svg"
   xmlns="http://www.w3.org/2000/svg"
   width="160"
   height="80"
   viewBox="0 0 42.333332 21.166667"
   version="1.1"
   id="svg8">
  <defs
     id="defs2" />
  <metadata
     id="metadata5">
    <rdf:RDF>
      <cc:Work
         rdf:about="">
        <dc:format>image/svg+xml</dc:format>
        <dc:type
           rdf:resource="http://purl.org/dc/dcmitype/StillImage" />
        <dc:title></dc:title>
      </cc:Work>
    </rdf:RDF>
  </metadata>
  <g
     id="layer1">
    <g
       id="g857"
       transform="matrix(0.26458333,0,0,0.26458333,17.424187,4.8508471)">
      <title
         id="title853">Down Vertical Mark, DV</title>
      <polygon
         points="4,40 4,4 0,0 12,0 8,4 8,40 "
         style="fill:#ff0000"
         id="polygon855" />
    </g>
    <g
       id="g874"
       transform="matrix(0.26458333,0,0,0.26458333,12.406553,4.8508471)">
      <title
         id="title870">Down Vertical Mark, DV</title>
      <polygon
         points="8,4 8,40 4,40 4,4 0,0 12,0 "
         style="fill:#ff0000"
         id="polygon872" />
    </g>
    <g
       id="g1003"
       transform="matrix(0,0.26458333,0.26458333,0,9.0520161,8.7440021)">
      <title
         id="title999">Right Horizontal Mark, RH</title>
      <polygon
         points="0,0 12,0 8,4 8,72 4,72 4,4 "
         style="fill:#ff0000"
         id="polygon1001" />
    </g>
    <polygon
       points="4,4 0,0 12,0 8,4 8,10 4,10 "
       style="fill:#ff0000"
       id="polygon1030"
       transform="matrix(0.13229166,-0.22913589,0.22913589,0.13229166,23.229696,13.972268)">
      <title
         id="title966">Right Down Diagonal Mark, RDD</title>
    </polygon>
    <polygon
       points="0,0 12,0 8,4 8,10 4,10 4,4 "
       style="fill:#ff0000"
       id="polygon952"
       transform="matrix(0.13229166,-0.22913589,0.22913589,0.13229166,19.880004,14.482439)">
      <title
         id="title968">Right Down Diagonal Mark, RDD</title>
    </polygon>
    <polygon
       points="4,10 4,4 0,0 12,0 8,4 8,10 "
       style="fill:#ff0000"
       id="polygon954"
       transform="matrix(0.13229166,-0.22913589,0.22913589,0.13229166,20.11624,8.6768265)">
      <title
         id="title964">Right Down Diagonal Mark, RDD</title>
    </polygon>
    <polygon
       points="0,0 12,0 8,4 8,10 4,10 4,4 "
       style="fill:#ff0000"
       id="polygon956"
       transform="matrix(0.13229166,-0.22913589,0.22913589,0.13229166,23.465932,8.1399869)">
      <title
         id="title962">Right Down Diagonal Mark, RDD</title>
    </polygon>
    <circle
       style="fill:#008000;fill-rule:evenodd;stroke-width:0.264583"
       id="circle1036"
       cx="19.049486"
       cy="10.189761"
       r="0.79374999">
      <title
         id="title1034"> 2 Cross Connector, 2C</title>
    </circle>
    <circle
       style="fill:#008000;fill-rule:evenodd;stroke-width:0.264583"
       id="circle983"
       cx="13.852314"
       cy="10.237008"
       r="0.79374999">
      <title
         id="title981"> 2 Cross Connector, 2C</title>
    </circle>
  </g>
</svg>
