<?xml version="1.0" encoding="UTF-8" standalone="no"?>
<svg
   xmlns:dc="http://purl.org/dc/elements/1.1/"
   xmlns:cc="http://creativecommons.org/ns#"
   xmlns:rdf="http://www.w3.org/1999/02/22-rdf-syntax-ns#"
   xmlns:svg="http://www.w3.org/2000/svg"
   xmlns="http://www.w3.org/2000/svg"
   width="160"
   height="80"
   viewBox="0 0 42.333332 21.166667"
   version="1.1"
   id="svg8">
  <defs
     id="defs2" />
  <metadata
     id="metadata5">
    <rdf:RDF>
      <cc:Work
         rdf:about="">
        <dc:format>image/svg+xml</dc:format>
        <dc:type
           rdf:resource="http://purl.org/dc/dcmitype/StillImage" />
        <dc:title></dc:title>
      </cc:Work>
    </rdf:RDF>
  </metadata>
  <g
     id="layer1">
    <polygon
       points="6,12 0,6 6,0 "
       style="fill:#ff0000"
       id="polygon1074"
       transform="matrix(0.26458333,0,0,0.26458333,11.821205,5.1215774)">
      <title
         id="title1143">Heel Mark, HE</title>
    </polygon>
    <polygon
       points="6,0 6,12 0,6 "
       style="fill:#ff0000"
       id="polygon1088"
       transform="matrix(0.26458333,0,0,0.26458333,11.821205,8.2965774)">
      <title
         id="title1141">Heel Mark, HE</title>
    </polygon>
    <polygon
       points="6,12 0,6 6,0 "
       style="fill:#ff0000"
       id="polygon1090"
       transform="matrix(0.26458333,0,0,0.26458333,11.821205,11.471577)">
      <title
         id="title1137">Heel Mark, HE</title>
    </polygon>
    <polygon
       points="0,6 6,0 6,12 "
       style="fill:#ff0000"
       id="polygon1092"
       transform="matrix(0.26458333,0,0,0.26458333,13.33311,5.168824)">
      <title
         id="title1145">Heel Mark, HE</title>
    </polygon>
    <polygon
       points="6,0 6,12 0,6 "
       style="fill:#ff0000"
       id="polygon1094"
       transform="matrix(0.26458333,0,0,0.26458333,13.33311,8.343824)">
      <title
         id="title1139">Heel Mark, HE</title>
    </polygon>
    <polygon
       points="6,12 0,6 6,0 "
       style="fill:#ff0000"
       id="polygon1096"
       transform="matrix(0.26458333,0,0,0.26458333,13.33311,11.518824)">
      <title
         id="title1135">Heel Mark, HE</title>
    </polygon>
    <g
       id="g1116"
       transform="matrix(0,-0.26458333,0.26458333,0,15.449776,13.35201)">
      <title
         id="title1112">Right Horizontal Mark, RH</title>
      <polygon
         points="12,0 8,4 8,25 4,25 4,4 0,0 "
         style="fill:#ff0000"
         id="polygon1114" />
    </g>
    <g
       id="g1133"
       transform="matrix(0.18708867,-0.18708867,0.18708867,0.18708867,15.890433,8.054836)">
      <title
         id="title1129">Right Down Diagonal Mark, RDD</title>
      <polygon
         points="0,0 12,0 8,4 8,25 4,25 4,4 "
         style="fill:#ff0000"
         id="polygon1131" />
    </g>
    <circle
       style="fill:#008000;fill-rule:evenodd;stroke-width:0.264583"
       id="circle965"
       cx="21.639135"
       cy="11.62277"
       r="0.79374999">
      <title
         id="title963">Other 2 Touch Connector, O2T</title>
    </circle>
  </g>
</svg>
