<?xml version="1.0" encoding="UTF-8" standalone="no"?>
<svg
   xmlns:dc="http://purl.org/dc/elements/1.1/"
   xmlns:cc="http://creativecommons.org/ns#"
   xmlns:rdf="http://www.w3.org/1999/02/22-rdf-syntax-ns#"
   xmlns:svg="http://www.w3.org/2000/svg"
   xmlns="http://www.w3.org/2000/svg"
   width="160"
   height="80"
   viewBox="0 0 42.333332 21.166667"
   version="1.1"
   id="svg8">
  <defs
     id="defs2" />
  <metadata
     id="metadata5">
    <rdf:RDF>
      <cc:Work
         rdf:about="">
        <dc:format>image/svg+xml</dc:format>
        <dc:type
           rdf:resource="http://purl.org/dc/dcmitype/StillImage" />
        <dc:title></dc:title>
      </cc:Work>
    </rdf:RDF>
  </metadata>
  <g
     id="layer1">
    <g
       id="g1318"
       transform="matrix(0.26458333,0,0,0.26458333,21.546608,2.981325)">
      <title
         id="title1314">Down Vertical Mark, DV</title>
      <polygon
         points="4,4 0,0 12,0 8,4 8,40 4,40 "
         style="fill:#ff0000"
         id="polygon1316" />
    </g>
    <polygon
       points="12,0 8,4 8,35 12,40 0,40 4,35 4,4 0,0 "
       style="fill:#ff0000"
       id="polygon1350"
       transform="matrix(0,-0.26458333,0.26458333,0,10.16945,7.0294695)">
      <title
         id="title1409">Right Horizontal Barbell Mark, RHBB</title>
    </polygon>
    <g
       id="g1493"
       transform="matrix(0,-0.26458333,0.26458333,0,10.16945,11.527365)">
      <title
         id="title1489">Right Horizontal Mark, RH</title>
      <polygon
         points="0,0 12,0 8,4 8,40 4,40 4,4 "
         style="fill:#ff0000"
         id="polygon1491"
         transform="translate(-4.3000059)" />
    </g>
    <g
       id="g1510"
       transform="matrix(0.26458333,0,0,0.26458333,26.89119,2.981325)">
      <title
         id="title1506">Down Vertical Mark, DV</title>
      <polygon
         points="8,40 4,40 4,4 0,0 12,0 8,4 "
         style="fill:#ff0000"
         id="polygon1508" />
    </g>
    <g
       id="g955"
       transform="matrix(0,-0.26458333,0.26458333,0,21.032484,7.6853521)">
      <title
         id="title951">Right Horizontal Mark, RH</title>
      <polygon
         points="8,40 4,40 4,4 0,0 12,0 8,4 "
         style="fill:#ff0000"
         id="polygon953">
        <title
           id="title957">Right Horizontal Mark, RH</title>
      </polygon>
    </g>
    <g
       id="g965"
       transform="matrix(0,-0.26458333,0.26458333,0,21.032484,11.812854)">
      <title
         id="title959">Right Horizontal Mark, RH</title>
      <polygon
         points="4,4 0,0 12,0 8,4 8,40 4,40 "
         style="fill:#ff0000"
         id="polygon963">
        <title
           id="title961">Right Horizontal Mark, RH</title>
      </polygon>
    </g>
    <circle
       style="fill:#008000;fill-rule:evenodd;stroke-width:0.264583"
       id="circle1528"
       cx="28.556219"
       cy="6.0939794"
       r="0.79374999">
      <title
         id="title1538">2 Cross Connector, 2C</title>
    </circle>
    <circle
       style="fill:#008000;fill-rule:evenodd;stroke-width:0.264583"
       id="circle969"
       cx="23.170059"
       cy="5.9522386"
       r="0.79374999">
      <title
         id="title967">2 Cross Connector, 2C</title>
    </circle>
    <circle
       style="fill:#008000;fill-rule:evenodd;stroke-width:0.264583"
       id="circle973"
       cx="23.217306"
       cy="10.204471"
       r="0.79374999">
      <title
         id="title971">2 Cross Connector, 2C</title>
    </circle>
    <circle
       style="fill:#008000;fill-rule:evenodd;stroke-width:0.264583"
       id="circle977"
       cx="28.556219"
       cy="10.204471"
       r="0.79374999">
      <title
         id="title975">2 Cross Connector, 2C</title>
    </circle>
    <circle
       style="fill:#008000;fill-rule:evenodd;stroke-width:0.264583"
       id="path839"
       cx="20.854952"
       cy="11.054917"
       r="0.79374999">
      <title
         id="title1542">Horizontal 2 Touch Connector, H2T</title>
    </circle>
  </g>
</svg>
