<?xml version="1.0" encoding="UTF-8" standalone="no"?>
<svg
   xmlns:dc="http://purl.org/dc/elements/1.1/"
   xmlns:cc="http://creativecommons.org/ns#"
   xmlns:rdf="http://www.w3.org/1999/02/22-rdf-syntax-ns#"
   xmlns:svg="http://www.w3.org/2000/svg"
   xmlns="http://www.w3.org/2000/svg"
   width="160"
   height="80"
   viewBox="0 0 42.333332 21.166667"
   version="1.1"
   id="svg8">
  <defs
     id="defs2" />
  <metadata
     id="metadata5">
    <rdf:RDF>
      <cc:Work
         rdf:about="">
        <dc:format>image/svg+xml</dc:format>
        <dc:type
           rdf:resource="http://purl.org/dc/dcmitype/StillImage" />
        <dc:title></dc:title>
      </cc:Work>
    </rdf:RDF>
  </metadata>
  <g
     id="layer1">
    <g
       id="g1690"
       transform="matrix(0,-0.26458333,0.26458333,0,9.2093904,7.77119)">
      <title
         id="title1686">Right Horizontal Mark, RH</title>
      <polygon
         points="8,40 4,40 4,4 0,0 12,0 8,4 "
         style="fill:#ff0000"
         id="polygon1688" />
    </g>
    <g
       id="g1794"
       transform="matrix(0,-0.26458333,0.26458333,0,9.3076636,12.454316)">
      <title
         id="title1790">Right Horizontal Mark, RH</title>
      <polygon
         points="0,0 12,0 8,4 8,25 4,25 4,4 "
         style="fill:#ff0000"
         id="polygon1792" />
    </g>
    <polygon
       points="6,12 0,6 6,0 "
       style="fill:#ff0000"
       id="polygon1819"
       transform="matrix(0.26458333,0,0,0.26458333,19.369352,9.2262854)">
      <title
         id="title1881">Heel Mark, HE</title>
    </polygon>
    <polygon
       points="6,12 0,6 6,0 "
       style="fill:#ff0000"
       id="polygon1833"
       transform="matrix(0.26458333,0,0,0.26458333,17.80831,7.612327)">
      <title
         id="title1885">Heel Mark, HE</title>
    </polygon>
    <polygon
       points="6,12 0,6 6,0 "
       style="fill:#ff0000"
       id="polygon1835"
       transform="matrix(0.26458333,0,0,0.26458333,19.369352,6.0512854)">
      <title
         id="title1883">Heel Mark, HE</title>
    </polygon>
    <polygon
       points="0,6 6,0 6,12 "
       style="fill:#ff0000"
       id="polygon1837"
       transform="matrix(0.26458333,0,0,0.26458333,16.141435,9.199827)">
      <title
         id="title1887">Heel Mark, HE</title>
    </polygon>
    <g
       id="g1843"
       transform="matrix(0,-0.26458333,0.26458333,0,21.382037,7.9186017)">
      <title
         id="title1839">Right Horizontal Mark, RH</title>
      <polygon
         points="0,0 12,0 8,4 8,25 4,25 4,4 "
         style="fill:#ff0000"
         id="polygon1841" />
    </g>
    <g
       id="g1849"
       transform="matrix(0,-0.26458333,0.26458333,0,21.433101,12.401285)">
      <title
         id="title1845">Right Horizontal Mark, RH</title>
      <polygon
         points="0,0 12,0 8,4 8,25 4,25 4,4 "
         style="fill:#ff0000"
         id="polygon1847" />
    </g>
    <g
       id="g1861"
       transform="matrix(0.26458333,0,0,0.26458333,26.989351,5.5750353)">
      <title
         id="title1857">Down Vertical Mark, DV</title>
      <polygon
         points="4,25 4,4 0,0 12,0 8,4 8,25 "
         style="fill:#ff0000"
         id="polygon1859" />
    </g>
    <circle
       style="fill:#008000;fill-rule:evenodd;stroke-width:0.264583"
       id="path839"
       cx="28.348213"
       cy="10.819568"
       r="0.79374999">
      <title
         id="title1889">Right 2 Touch Connector, R2T</title>
    </circle>
    <circle
       style="fill:#008000;fill-rule:evenodd;stroke-width:0.264583"
       id="circle1879"
       cx="28.348215"
       cy="6.3783479"
       r="0.79374999">
      <title
         id="title1891">Northeast Corner Connector, NEC</title>
    </circle>
  </g>
</svg>
