<?xml version="1.0" encoding="UTF-8" standalone="no"?>
<svg
   xmlns:dc="http://purl.org/dc/elements/1.1/"
   xmlns:cc="http://creativecommons.org/ns#"
   xmlns:rdf="http://www.w3.org/1999/02/22-rdf-syntax-ns#"
   xmlns:svg="http://www.w3.org/2000/svg"
   xmlns="http://www.w3.org/2000/svg"
   width="160"
   height="80"
   viewBox="0 0 42.333332 21.166667"
   version="1.1"
   id="svg8">
  <defs
     id="defs2" />
  <metadata
     id="metadata5">
    <rdf:RDF>
      <cc:Work
         rdf:about="">
        <dc:format>image/svg+xml</dc:format>
        <dc:type
           rdf:resource="http://purl.org/dc/dcmitype/StillImage" />
        <dc:title></dc:title>
      </cc:Work>
    </rdf:RDF>
  </metadata>
  <g
     id="layer1">
    <polygon
       points="6,0 6,12 0,6 "
       style="fill:#ff0000"
       id="polygon1203"
       transform="matrix(0.26458333,0,0,0.26458333,20.21806,9.5740232)">
      <title
         id="title1217">Heel Mark, HE</title>
    </polygon>
    <g
       id="g1778"
       transform="matrix(0.26458333,0,0,0.26458333,21.563541,3.9215032)">
      <title
         id="title1774">Down Vertical Mark, DV</title>
      <polygon
         points="8,4 8,25 4,25 4,4 0,0 12,0 "
         style="fill:#ff0000"
         id="polygon1776" />
    </g>
    <g
       id="g1795"
       transform="matrix(0.26458333,0,0,0.26458333,24.738541,3.9215032)">
      <title
         id="title1791">Down Vertical Mark, DV</title>
      <polygon
         points="4,4 0,0 12,0 8,4 8,25 4,25 "
         style="fill:#ff0000"
         id="polygon1793" />
    </g>
    <g
       id="g1801"
       transform="matrix(0.26458333,0,0,0.26458333,23.1775,10.536086)">
      <title
         id="title1797">Down Vertical Mark, DV</title>
      <polygon
         points="8,25 4,25 4,4 0,0 12,0 8,4 "
         style="fill:#ff0000"
         id="polygon1799" />
    </g>
    <circle
       style="fill:#008000;fill-rule:evenodd;stroke-width:0.264583"
       id="circle1706"
       cx="24.774488"
       cy="10.488841"
       r="0.79374999">
      <title
         id="title1704">Vertical 2 Touch, V2T</title>
    </circle>
  </g>
</svg>
