<?xml version="1.0" encoding="UTF-8" standalone="no"?>
<svg
   xmlns:dc="http://purl.org/dc/elements/1.1/"
   xmlns:cc="http://creativecommons.org/ns#"
   xmlns:rdf="http://www.w3.org/1999/02/22-rdf-syntax-ns#"
   xmlns:svg="http://www.w3.org/2000/svg"
   xmlns="http://www.w3.org/2000/svg"
   width="160"
   height="80"
   viewBox="0 0 42.333332 21.166667"
   version="1.1"
   id="svg8">
  <defs
     id="defs2" />
  <metadata
     id="metadata5">
    <rdf:RDF>
      <cc:Work
         rdf:about="">
        <dc:format>image/svg+xml</dc:format>
        <dc:type
           rdf:resource="http://purl.org/dc/dcmitype/StillImage" />
        <dc:title></dc:title>
      </cc:Work>
    </rdf:RDF>
  </metadata>
  <g
     id="layer1">
    <polygon
       points="8,30 4,30 4,4 0,0 12,0 8,4 "
       style="fill:#ff0000"
       id="polygon1210"
       transform="matrix(0.26458333,0,0,0.26458333,14.872831,6.7822442)">
      <title
         id="title1327">Down Vertical Mark, DV</title>
    </polygon>
    <g
       id="g1373"
       transform="matrix(0.0684792,-0.25556787,0.25556787,0.0684792,14.852429,12.321325)">
      <title
         id="title1369">Right Down Diagonal Mark, ORDD</title>
      <polygon
         points="8,4 8,50 4,50 4,4 0,0 12,0 "
         style="fill:#ff0000"
         id="polygon1371" />
    </g>
    <polygon
       points="8,22 8,32 4,32 4,22 0,18 4,18 4,4 0,0 12,0 8,4 8,18 12,18 "
       style="fill:#ff0000"
       id="polygon1430"
       transform="matrix(0.26458333,0,0,0.26458333,24.247703,6.254665)">
      <title
         id="title1487">Down Vertical Head-to-Tail Mark, DVHT</title>
    </polygon>
    <polygon
       points="8,30 4,30 4,4 0,0 12,0 8,4 "
       style="fill:#ff0000"
       id="polygon1446"
       transform="matrix(0.26458333,0,0,0.26458333,14.872831,6.7822442)">
      <title
         id="title1444">Down Vertical Mark, DV</title>
    </polygon>
    <polygon
       points="4,30 4,4 0,0 12,0 8,4 8,30 "
       style="fill:#ff0000"
       id="polygon1450"
       transform="matrix(0.26458333,0,0,0.26458333,18.047831,6.7822442)">
      <title
         id="title1448">Down Vertical Mark, DV</title>
    </polygon>
    <polygon
       points="4,4 0,0 12,0 8,4 8,30 4,30 "
       style="fill:#ff0000"
       id="polygon1454"
       transform="matrix(0.26458333,0,0,0.26458333,21.222831,6.7822442)">
      <title
         id="title1452">Down Vertical Mark, DV</title>
    </polygon>
    <g
       id="g1474"
       transform="matrix(0,-0.26458333,0.26458333,0,11.697831,9.957244)">
      <title
         id="title1470">Right Horizontal Mark, RH</title>
      <polygon
         points="4,40 4,4 0,0 12,0 8,4 8,40 "
         style="fill:#ff0000"
         id="polygon1472" />
    </g>
    <circle
       style="fill:#008000;fill-rule:evenodd;stroke-width:0.264583"
       id="path839"
       cx="16.37521"
       cy="8.3868656"
       r="0.79374999">
      <title
         id="title1319">2 Cross Connector, 2C</title>
    </circle>
    <circle
       style="fill:#008000;fill-rule:evenodd;stroke-width:0.264583"
       id="circle1078"
       cx="19.591713"
       cy="8.3396177"
       r="0.79374999">
      <title
         id="title1092">2 Cross Connector, 2C</title>
    </circle>
    <circle
       style="fill:#008000;fill-rule:evenodd;stroke-width:0.264583"
       id="circle1363"
       cx="22.691118"
       cy="8.2451248"
       r="0.79374999">
      <title
         id="title1361">Right 2 Touch Connector, R2T</title>
    </circle>
    <circle
       style="fill:#008000;fill-rule:evenodd;stroke-width:0.264583"
       id="circle1491"
       cx="25.730122"
       cy="13.678533"
       r="0.79374999">
      <title
         id="title1489">2 Cross Connector, 2C</title>
    </circle>
    <circle
       style="fill:#008000;fill-rule:evenodd;stroke-width:0.264583"
       id="circle1495"
       cx="22.753559"
       cy="12.875333"
       r="0.79374999">
      <title
         id="title1493">2 Cross Connector, 2C</title>
    </circle>
    <circle
       style="fill:#008000;fill-rule:evenodd;stroke-width:0.264583"
       id="circle1499"
       cx="19.682503"
       cy="11.930392"
       r="0.79374999">
      <title
         id="title1497">2 Cross Connector, 2C</title>
    </circle>
    <circle
       style="fill:#008000;fill-rule:evenodd;stroke-width:0.264583"
       id="circle1503"
       cx="16.564199"
       cy="11.127192"
       r="0.79374999">
      <title
         id="title1501">2 Cross Connector, 2C</title>
    </circle>
  </g>
</svg>
