<?xml version="1.0" encoding="UTF-8" standalone="no"?>
<svg
   xmlns:dc="http://purl.org/dc/elements/1.1/"
   xmlns:cc="http://creativecommons.org/ns#"
   xmlns:rdf="http://www.w3.org/1999/02/22-rdf-syntax-ns#"
   xmlns:svg="http://www.w3.org/2000/svg"
   xmlns="http://www.w3.org/2000/svg"
   width="160"
   height="80"
   viewBox="0 0 42.333332 21.166667"
   version="1.1"
   id="svg8">
  <defs
     id="defs2" />
  <metadata
     id="metadata5">
    <rdf:RDF>
      <cc:Work
         rdf:about="">
        <dc:format>image/svg+xml</dc:format>
        <dc:type
           rdf:resource="http://purl.org/dc/dcmitype/StillImage" />
        <dc:title></dc:title>
      </cc:Work>
    </rdf:RDF>
  </metadata>
  <g
     id="layer1">
    <g
       id="g1338"
       transform="matrix(0,-0.26458333,0.26458333,0,12.333439,15.466861)">
      <title
         id="title1334">Right Horizontal  Mark, RH</title>
      <polygon
         points="0,0 12,0 8,4 8,50 4,50 4,4 "
         style="fill:#ff0000"
         id="polygon1336" />
    </g>
    <g
       id="g1490"
       transform="matrix(0.26458333,0,0,0.26458333,24.447575,3.8535431)">
      <title
         id="title1486">Down Vertical Mark, DV</title>
      <polygon
         points="12,0 8,4 8,50 4,50 4,4 0,0 "
         style="fill:#ff0000"
         id="polygon1488" />
    </g>
    <g
       id="g1496"
       transform="matrix(0,-0.26458333,0.26458333,0,10.538052,11.734346)">
      <title
         id="title1492">Right Horizontal  Mark, RH</title>
      <polygon
         points="4,4 0,0 12,0 8,4 8,40 4,40 "
         style="fill:#ff0000"
         id="polygon1494"
         transform="translate(17.785712,16.571426)" />
    </g>
    <circle
       style="fill:#008000;fill-rule:evenodd;stroke-width:0.264583"
       id="circle1425"
       cx="26.089808"
       cy="5.4806533"
       r="0.79374999">
      <title
         id="title1423">Northeast Corner Connector, NEC</title>
    </circle>
    <circle
       style="fill:#008000;fill-rule:evenodd;stroke-width:0.264583"
       id="circle1409"
       cx="25.95933"
       cy="13.843377"
       r="0.79374999">
      <title
         id="title1407">Right 2 Touch Connector, R2T</title>
    </circle>
  </g>
</svg>
