<?xml version="1.0" encoding="UTF-8" standalone="no"?>
<svg
   xmlns:dc="http://purl.org/dc/elements/1.1/"
   xmlns:cc="http://creativecommons.org/ns#"
   xmlns:rdf="http://www.w3.org/1999/02/22-rdf-syntax-ns#"
   xmlns:svg="http://www.w3.org/2000/svg"
   xmlns="http://www.w3.org/2000/svg"
   xmlns:sodipodi="http://sodipodi.sourceforge.net/DTD/sodipodi-0.dtd"
   xmlns:inkscape="http://www.inkscape.org/namespaces/inkscape"
   width="160"
   height="80"
   viewBox="0 0 42.333332 21.166667"
   version="1.1"
   id="svg8"
   inkscape:version="1.0.2-2 (e86c870879, 2021-01-15)"
   sodipodi:docname="cdli135.svg">
  <defs
     id="defs2" />
  <sodipodi:namedview
     id="base"
     pagecolor="#ffffff"
     bordercolor="#666666"
     borderopacity="1.0"
     inkscape:pageopacity="0.0"
     inkscape:pageshadow="2"
     inkscape:zoom="5.6"
     inkscape:cx="76.816043"
     inkscape:cy="42.237696"
     inkscape:document-units="px"
     inkscape:current-layer="layer1"
     inkscape:document-rotation="0"
     showgrid="false"
     units="px"
     inkscape:window-width="1755"
     inkscape:window-height="1020"
     inkscape:window-x="188"
     inkscape:window-y="10"
     inkscape:window-maximized="0" />
  <metadata
     id="metadata5">
    <rdf:RDF>
      <cc:Work
         rdf:about="">
        <dc:format>image/svg+xml</dc:format>
        <dc:type
           rdf:resource="http://purl.org/dc/dcmitype/StillImage" />
        <dc:title></dc:title>
      </cc:Work>
    </rdf:RDF>
  </metadata>
  <g
     inkscape:label="Layer 1"
     inkscape:groupmode="layer"
     id="layer1">
    <g
       id="g857"
       transform="matrix(0.26458333,0,0,0.26458333,24.91808,6.869717)">
      <title
         id="title853">Down Vertical Mark, DV</title>
      <polygon
         points="0,0 12,0 8,4 8,40 4,40 4,4 "
         style="fill:#ff0000"
         id="polygon855" />
    </g>
    <g
       id="g1096"
       transform="matrix(0.26458333,0,0,0.26458333,29.879018,5.1215774)">
      <title
         id="title1092">Down Vertical Mark, DV</title>
      <polygon
         points="0,0 12,0 8,4 8,45 4,45 4,4 "
         style="fill:#ff0000"
         id="polygon1094"
         transform="translate(0,0.39985692)" />
    </g>
    <g
       id="g1113"
       transform="matrix(0,-0.26458333,0.26458333,0,22.470685,6.2857062)">
      <title
         id="title1109">Right Horizontal Mark, RH</title>
      <polygon
         points="4,40 4,4 0,0 12,0 8,4 8,40 "
         style="fill:#ff0000"
         id="polygon1111" />
    </g>
    <g
       id="g1125"
       transform="matrix(0,-0.26458333,0.26458333,0,15.39308,8.9863836)">
      <title
         id="title1121">Right Horizontal Mark, RH</title>
      <polygon
         points="0,0 12,0 8,4 8,40 4,40 4,4 "
         style="fill:#ff0000"
         id="polygon1123" />
    </g>
    <g
       id="g1145"
       transform="matrix(0,-0.26458333,0.26458333,0,19.357975,11.320388)">
      <title
         id="title1141">Right Horizontal Mark, RH</title>
      <polygon
         points="0,0 12,0 8,4 8,25 4,25 4,4 "
         style="fill:#ff0000"
         id="polygon1143" />
    </g>
    <g
       id="g1162"
       transform="matrix(0,-0.26458333,0.26458333,0,19.384433,14.495388)">
      <title
         id="title1158">Right Horizontal Mark, RH</title>
      <polygon
         points="8,4 8,25 4,25 4,4 0,0 12,0 "
         style="fill:#ff0000"
         id="polygon1160" />
    </g>
    <polygon
       points="12,28 8,32 8,60 4,60 4,32 0,28 4,28 4,4 0,0 12,0 8,4 8,28 "
       style="fill:#ff0000"
       id="polygon1176"
       transform="matrix(0,-0.26458333,0.26458333,0,15.062352,17.107164)">
      <title
         id="title1224">Right Horizontal Head-to-Tail Mark, RHHT</title>
    </polygon>
    <circle
       style="fill:#008000;fill-rule:evenodd;stroke-width:0.264583"
       id="path839"
       cx="26.47538"
       cy="15.544272"
       r="0.79374999">
      <title
         id="title946">2 Cross Connector, 2C</title>
    </circle>
    <circle
       style="fill:#008000;fill-rule:evenodd;stroke-width:0.264583"
       id="path839-8"
       cx="31.277531"
       cy="15.544271"
       r="0.79374999">
      <title
         id="title1214">Right 2 Touch Connector, R2T</title>
    </circle>
    <circle
       style="fill:#008000;fill-rule:evenodd;stroke-width:0.264583"
       id="circle1206"
       cx="26.460186"
       cy="12.992931"
       r="0.79374999">
      <title
         id="title1216">Right 2 Touch Connector, R2T</title>
    </circle>
    <circle
       style="fill:#008000;fill-rule:evenodd;stroke-width:0.264583"
       id="circle1208"
       cx="26.505581"
       cy="9.5911455"
       r="0.79374999">
      <title
         id="title1218">Right 2 Touch Connector, R2T</title>
    </circle>
    <circle
       style="fill:#008000;fill-rule:evenodd;stroke-width:0.264583"
       id="circle1210"
       cx="26.552828"
       cy="7.5122766"
       r="0.79374999">
      <title
         id="title1220">Northeast Corner Connector, NEC</title>
    </circle>
    <circle
       style="fill:#008000;fill-rule:evenodd;stroke-width:0.264583"
       id="circle1212"
       cx="31.513767"
       cy="5.1026788"
       r="0.79374999">
      <title
         id="title1222">Northeast Corner Connector, NEC</title>
    </circle>
  </g>
</svg>
