<?xml version="1.0" encoding="UTF-8" standalone="no"?>
<svg
   xmlns:dc="http://purl.org/dc/elements/1.1/"
   xmlns:cc="http://creativecommons.org/ns#"
   xmlns:rdf="http://www.w3.org/1999/02/22-rdf-syntax-ns#"
   xmlns:svg="http://www.w3.org/2000/svg"
   xmlns="http://www.w3.org/2000/svg"
   width="160"
   height="80"
   viewBox="0 0 42.333332 21.166667"
   version="1.1"
   id="svg8">
  <defs
     id="defs2" />
  <metadata
     id="metadata5">
    <rdf:RDF>
      <cc:Work
         rdf:about="">
        <dc:format>image/svg+xml</dc:format>
        <dc:type
           rdf:resource="http://purl.org/dc/dcmitype/StillImage" />
        <dc:title></dc:title>
      </cc:Work>
    </rdf:RDF>
  </metadata>
  <g
     id="layer1">
    <g
       id="g1175"
       transform="matrix(0.26458334,0,0,0.26458334,20.218966,8.7624342)">
      <title
         id="title1171">Down Vertical Mark, DV</title>
      <polygon
         points="8,4 8,25 4,25 4,4 0,0 12,0 "
         style="fill:#ff0000"
         id="polygon1173" />
    </g>
    <polygon
       points="8,4 8,35 12,40 0,40 4,35 4,4 0,0 12,0 "
       style="fill:#ff0000"
       id="polygon1210"
       transform="matrix(0,-0.26458333,0.26458333,0,15.048177,13.027893)">
      <title
         id="title1234">Right Horizontal Barbell Mark, RHBB</title>
    </polygon>
    <g
       id="g1228"
       transform="matrix(0.26458334,0,0,0.26458334,16.911676,8.7624342)">
      <title
         id="title1224">Down Vertical Mark, DV</title>
      <polygon
         points="8,25 4,25 4,4 0,0 12,0 8,4 "
         style="fill:#ff0000"
         id="polygon1226" />
    </g>
    <polygon
       points="12,40 0,40 4,35 4,4 0,0 12,0 8,4 8,35 "
       style="fill:#ff0000"
       id="polygon1230"
       transform="matrix(0,-0.26458333,0.26458333,0,14.906436,8.8701549)">
      <title
         id="title1232">Right Horizontal Barbell Mark, RHBB</title>
    </polygon>
    <circle
       style="fill:#008000;fill-rule:evenodd;stroke-width:0.264583"
       id="circle1101"
       cx="18.544456"
       cy="11.534886"
       r="0.79374999">
      <title
         id="title1105">2 Cross Connector, 2C</title>
    </circle>
    <circle
       style="fill:#008000;fill-rule:evenodd;stroke-width:0.264583"
       id="circle1196"
       cx="21.946241"
       cy="11.440391"
       r="0.79374999">
      <title
         id="title1194">2 Cross Connector, 2C</title>
    </circle>
    <g
       id="g1573"
       transform="matrix(0.26458334,0,0,0.26458334,26.028385,6.6553291)">
      <title
         id="title1569">Down Vertical Mark, DV</title>
      <polygon
         points="12,0 8,4 8,25 4,25 4,4 0,0 "
         style="fill:#ff0000"
         id="polygon1571" />
    </g>
  </g>
</svg>
