<?xml version="1.0" encoding="UTF-8" standalone="no"?>
<svg
   xmlns:dc="http://purl.org/dc/elements/1.1/"
   xmlns:cc="http://creativecommons.org/ns#"
   xmlns:rdf="http://www.w3.org/1999/02/22-rdf-syntax-ns#"
   xmlns:svg="http://www.w3.org/2000/svg"
   xmlns="http://www.w3.org/2000/svg"
   width="160"
   height="80"
   viewBox="0 0 42.333332 21.166667"
   version="1.1"
   id="svg8">
  <defs
     id="defs2" />
  <metadata
     id="metadata5">
    <rdf:RDF>
      <cc:Work
         rdf:about="">
        <dc:format>image/svg+xml</dc:format>
        <dc:type
           rdf:resource="http://purl.org/dc/dcmitype/StillImage" />
        <dc:title></dc:title>
      </cc:Work>
    </rdf:RDF>
  </metadata>
  <g
     id="layer1">
    <g
       id="g1490"
       transform="matrix(0.22913589,-0.13229166,0.13229166,0.22913589,19.947742,2.2031908)">
      <title
         id="title1486">Right Down Diagonal Mark, RDD</title>
      <polygon
         points="8,4 8,38 4,38 4,4 0,0 12,0 "
         style="fill:#ff0000"
         id="polygon1488"
         transform="translate(0.00467901,8.1918136)" />
    </g>
    <polygon
       points="4,32 0,28 4,28 4,4 0,0 12,0 8,4 8,28 12,28 8,32 8,60 4,60 "
       style="fill:#ff0000"
       id="polygon1550"
       transform="matrix(0,-0.26458333,0.26458333,0,11.603869,14.189152)">
      <title
         id="title1554">Right Horizontal Head-to-Tail Mark, RHHT</title>
    </polygon>
    <circle
       style="fill:#008000;fill-rule:evenodd;stroke-width:0.264583"
       id="circle1409"
       cx="27.932291"
       cy="12.593977"
       r="0.79374999">
      <title
         id="title1407">Other 2 Touch Connector, O2T</title>
    </circle>
    <polygon
       points="8,28 12,28 8,32 8,60 4,60 4,32 0,28 4,28 4,4 0,0 12,0 8,4 "
       style="fill:#ff0000"
       id="polygon1536"
       transform="matrix(0,-0.26458333,0.26458333,0,11.603869,7.049256)">
      <title
         id="title1552">Right Horizontal Head-to-Tail Mark, RHHT</title>
    </polygon>
    <circle
       style="fill:#008000;fill-rule:evenodd;stroke-width:0.264583"
       id="circle1425-6"
       cx="23.712223"
       cy="5.4541192"
       r="0.79374999">
      <title
         id="title1423-8">2 Cross Connector, 2C</title>
    </circle>
  </g>
</svg>
