<?xml version="1.0" encoding="UTF-8" standalone="no"?>
<svg
   xmlns:dc="http://purl.org/dc/elements/1.1/"
   xmlns:cc="http://creativecommons.org/ns#"
   xmlns:rdf="http://www.w3.org/1999/02/22-rdf-syntax-ns#"
   xmlns:svg="http://www.w3.org/2000/svg"
   xmlns="http://www.w3.org/2000/svg"
   width="160"
   height="80"
   viewBox="0 0 42.333332 21.166667"
   version="1.1"
   id="svg8">
  <defs
     id="defs2" />
  <metadata
     id="metadata5">
    <rdf:RDF>
      <cc:Work
         rdf:about="">
        <dc:format>image/svg+xml</dc:format>
        <dc:type
           rdf:resource="http://purl.org/dc/dcmitype/StillImage" />
        <dc:title></dc:title>
      </cc:Work>
    </rdf:RDF>
  </metadata>
  <g
     id="layer1">
    <g
       id="g94"
       transform="matrix(0.26458333,0,0,0.26458333,17.93497,6.5106398)">
      <title
         id="title90">Down Vertical Mark, DV</title>
      <polygon
         points="4,4 0,0 12,0 8,4 8,35 4,35 "
         style="fill:#ff0000"
         id="polygon92" />
    </g>
    <polygon
       points="6,0 6,12 0,6 "
       style="fill:#ff0000"
       id="polygon134"
       transform="matrix(0.26458333,0,0,0.26458333,14.750521,10.035268)">
      <title
         id="title181">Heel Mark, HE</title>
    </polygon>
    <g
       id="g280"
       transform="matrix(0,-0.26458333,0.26458333,0,10.460491,17.982217)">
      <title
         id="title276">Right Horizontal Mark, RH</title>
      <polygon
         points="8,40 4,40 4,4 0,0 12,0 8,4 "
         style="fill:#ff0000"
         id="polygon278" />
    </g>
    <g
       id="g268"
       transform="matrix(0.26458333,0,0,0.26458333,18.813765,15.506474)">
      <title
         id="title264">Bottom 2 Touch Connector, B2T</title>
      <circle
         cx="3"
         cy="3"
         r="3"
         style="fill:#008000"
         id="circle266" />
    </g>
    <g
       id="g286"
       transform="matrix(0.26458333,0,0,0.26458333,10.460491,6.5256833)">
      <title
         id="title282">Down Vertical Mark, DV</title>
      <polygon
         points="8,4 8,35 4,35 4,4 0,0 12,0 "
         style="fill:#ff0000"
         id="polygon284" />
    </g>
    <g
       id="g262"
       transform="matrix(0.26458333,0,0,0.26458333,11.301489,15.459226)">
      <title
         id="title258">Southwest Corner Connector, SWC</title>
      <circle
         cx="3"
         cy="3"
         r="3"
         style="fill:#008000"
         id="circle260" />
    </g>
  </g>
</svg>
