<?xml version="1.0" encoding="UTF-8" standalone="no"?>
<svg
   xmlns:dc="http://purl.org/dc/elements/1.1/"
   xmlns:cc="http://creativecommons.org/ns#"
   xmlns:rdf="http://www.w3.org/1999/02/22-rdf-syntax-ns#"
   xmlns:svg="http://www.w3.org/2000/svg"
   xmlns="http://www.w3.org/2000/svg"
   width="160"
   height="80"
   viewBox="0 0 42.333332 21.166667"
   version="1.1"
   id="svg8">
  <defs
     id="defs2" />
  <metadata
     id="metadata5">
    <rdf:RDF>
      <cc:Work
         rdf:about="">
        <dc:format>image/svg+xml</dc:format>
        <dc:type
           rdf:resource="http://purl.org/dc/dcmitype/StillImage" />
        <dc:title></dc:title>
      </cc:Work>
    </rdf:RDF>
  </metadata>
  <g
     id="layer1">
    <g
       id="g495"
       transform="matrix(0.26458333,0,0,0.26458333,8.9485862,0.78052083)">
      <title
         id="title491">Down Vertical Mark, DV</title>
      <polygon
         points="4,4 0,0 12,0 8,4 8,72 4,72 "
         style="fill:#ff0000"
         id="polygon493" />
    </g>
    <g
       id="g512"
       transform="matrix(0.26458333,0,0,0.26458333,27.998473,0.83343749)">
      <title
         id="title508">Down Vertical Mark, DV</title>
      <polygon
         points="12,0 8,4 8,72 4,72 4,4 0,0 "
         style="fill:#ff0000"
         id="polygon510" />
    </g>
    <g
       id="g518"
       transform="matrix(0.26458333,0,0,0.26458333,22.584039,0.84099711)">
      <title
         id="title514">Down Vertical Mark, DV</title>
      <polygon
         points="4,72 4,4 0,0 12,0 8,4 8,72 "
         style="fill:#ff0000"
         id="polygon516" />
    </g>
    <g
       id="g524"
       transform="matrix(0,-0.26458333,0.26458333,0,10.00692,20.968229)">
      <title
         id="title520">Right Horizontal Mark, RH</title>
      <polygon
         points="8,72 4,72 4,4 0,0 12,0 8,4 "
         style="fill:#ff0000"
         id="polygon522" />
    </g>
    <g
       id="g417"
       transform="matrix(0.26458333,0,0,0.26458333,10.025818,18.624777)">
      <title
         id="title413">Southwest Corner Connector, SWC</title>
      <circle
         cx="3"
         cy="3"
         r="3"
         style="fill:#008000"
         id="circle415" />
    </g>
    <g
       id="g393"
       transform="matrix(0.26458333,0,0,0.26458333,28.877381,18.530283)">
      <title
         id="title389">Southeast Corner Connector, SEC</title>
      <circle
         cx="3"
         cy="3"
         r="3"
         style="fill:#008000"
         id="circle391" />
    </g>
    <g
       id="g1067"
       transform="matrix(0,-0.26458333,0.26458333,0,13.242415,11.465927)">
      <title
         id="title1063">Right Horizontal Mark, RH</title>
      <polygon
         points="0,0 12,0 8,4 8,40 4,40 4,4 "
         style="fill:#ff0000"
         id="polygon1065">
        <title
           id="title1111">Right Down Diagonal Mark, RDD</title>
      </polygon>
    </g>
    <g
       id="g1098"
       transform="matrix(0.26458333,0,0,0.26458333,23.254985,9.0808779)">
      <title
         id="title1094">Right 2 Touch Connector, R2T</title>
      <circle
         cx="3"
         cy="3"
         r="3"
         style="fill:#008000"
         id="circle1096" />
    </g>
    <g
       id="g1117"
       transform="matrix(0.26458333,0,0,0.26458333,23.396726,18.530283)">
      <title
         id="title1113">Bottom 2 Touch Connector, B2T</title>
      <circle
         cx="3"
         cy="3"
         r="3"
         style="fill:#008000"
         id="circle1115" />
    </g>
  </g>
</svg>
