<?xml version="1.0" encoding="UTF-8" standalone="no"?>
<svg
   xmlns:dc="http://purl.org/dc/elements/1.1/"
   xmlns:cc="http://creativecommons.org/ns#"
   xmlns:rdf="http://www.w3.org/1999/02/22-rdf-syntax-ns#"
   xmlns:svg="http://www.w3.org/2000/svg"
   xmlns="http://www.w3.org/2000/svg"
   width="160"
   height="80"
   viewBox="0 0 42.333332 21.166667"
   version="1.1"
   id="svg8">
  <defs
     id="defs2" />
  <metadata
     id="metadata5">
    <rdf:RDF>
      <cc:Work
         rdf:about="">
        <dc:format>image/svg+xml</dc:format>
        <dc:type
           rdf:resource="http://purl.org/dc/dcmitype/StillImage" />
        <dc:title></dc:title>
      </cc:Work>
    </rdf:RDF>
  </metadata>
  <g
     id="layer1">
    <g
       id="g1086"
       transform="matrix(0,-0.26458333,0.26458333,0,20.268973,7.6749643)">
      <title
         id="title1082">Right Horizontal Mark, RH</title>
      <polygon
         points="12,0 8,4 8,40 4,40 4,4 0,0 "
         style="fill:#ff0000"
         id="polygon1084" />
    </g>
    <polygon
       points="6,0 6,12 0,6 "
       style="fill:#ff0000"
       id="polygon1274"
       transform="matrix(0.26458333,0,0,0.26458333,17.83851,4.4828354)">
      <title
         id="title1353">Heel Mark, HE</title>
    </polygon>
    <g
       id="g1292"
       transform="matrix(0,-0.26458333,0.26458333,0,20.268973,10.849964)">
      <title
         id="title1288">Right Horizontal Mark, RH</title>
      <polygon
         points="4,4 0,0 12,0 8,4 8,40 4,40 "
         style="fill:#ff0000"
         id="polygon1290" />
    </g>
    <g
       id="g1298"
       transform="matrix(0,-0.26458333,0.26458333,0,9.6856397,9.2623881)">
      <title
         id="title1294">Right Horizontal Mark, RH</title>
      <polygon
         points="4,4 0,0 12,0 8,4 8,40 4,40 "
         style="fill:#ff0000"
         id="polygon1296" />
    </g>
    <circle
       style="fill:#008000;fill-rule:evenodd;stroke-width:0.264583"
       id="path839"
       cx="20.40493"
       cy="7.5993686"
       r="0.79374999">
      <title
         id="title1349">Horizontal 2 Touch Connector, H2T</title>
    </circle>
    <polygon
       points="0,6 6,0 6,12 "
       style="fill:#ff0000"
       id="polygon926"
       transform="matrix(0.26458333,0,0,0.26458333,17.791263,7.7411789)">
      <title
         id="title924">Heel Mark, HE</title>
    </polygon>
  </g>
</svg>
