<?xml version="1.0" encoding="UTF-8" standalone="no"?>
<svg
   xmlns:dc="http://purl.org/dc/elements/1.1/"
   xmlns:cc="http://creativecommons.org/ns#"
   xmlns:rdf="http://www.w3.org/1999/02/22-rdf-syntax-ns#"
   xmlns:svg="http://www.w3.org/2000/svg"
   xmlns="http://www.w3.org/2000/svg"
   width="160"
   height="80"
   viewBox="0 0 42.333332 21.166667"
   version="1.1"
   id="svg8">
  <defs
     id="defs2" />
  <metadata
     id="metadata5">
    <rdf:RDF>
      <cc:Work
         rdf:about="">
        <dc:format>image/svg+xml</dc:format>
        <dc:type
           rdf:resource="http://purl.org/dc/dcmitype/StillImage" />
        <dc:title></dc:title>
      </cc:Work>
    </rdf:RDF>
  </metadata>
  <g
     id="layer1">
    <g
       id="g1338"
       transform="matrix(-0.0684792,-0.25556787,0.25556787,-0.0684792,15.230508,17.779293)">
      <title
         id="title1334">Right Up Diagonal, RUD</title>
      <polygon
         points="4,50 4,4 0,0 12,0 8,4 8,50 "
         style="fill:#ff0000"
         id="polygon1336" />
    </g>
    <polygon
       points="4,4 0,0 12,0 8,4 8,18 12,18 8,22 8,40 4,40 4,22 0,18 4,18 "
       style="fill:#ff0000"
       id="polygon1439"
       transform="matrix(0.13229167,-0.22913589,0.22913589,0.13229167,18.040382,8.9579382)">
      <title
         id="title1484">Other Head-to-Tail Mark, OHT</title>
    </polygon>
    <g
       id="g1471"
       transform="matrix(0.13229167,-0.22913589,0.22913589,0.13229167,15.507942,12.180039)">
      <title
         id="title1467">Right Down Diagonal Mark, RDD</title>
      <polygon
         points="12,0 8,4 8,25 4,25 4,4 0,0 "
         style="fill:#ff0000"
         id="polygon1469" />
    </g>
    <circle
       style="fill:#008000;fill-rule:evenodd;stroke-width:0.264583"
       id="circle1409"
       cx="21.789343"
       cy="14.232567"
       r="0.79374999">
      <title
         id="title1407">Other 2 Touch Connector, O2T</title>
    </circle>
    <circle
       style="fill:#008000;fill-rule:evenodd;stroke-width:0.264583"
       id="circle1425"
       cx="27.600729"
       cy="12.626168"
       r="0.79374999">
      <title
         id="title1423">Other 2 Touch Connector, O2T</title>
    </circle>
  </g>
</svg>
