<?xml version="1.0" encoding="UTF-8" standalone="no"?>
<svg
   xmlns:dc="http://purl.org/dc/elements/1.1/"
   xmlns:cc="http://creativecommons.org/ns#"
   xmlns:rdf="http://www.w3.org/1999/02/22-rdf-syntax-ns#"
   xmlns:svg="http://www.w3.org/2000/svg"
   xmlns="http://www.w3.org/2000/svg"
   width="160"
   height="80"
   viewBox="0 0 42.333332 21.166667"
   version="1.1"
   id="svg8">
  <defs
     id="defs2" />
  <metadata
     id="metadata5">
    <rdf:RDF>
      <cc:Work
         rdf:about="">
        <dc:format>image/svg+xml</dc:format>
        <dc:type
           rdf:resource="http://purl.org/dc/dcmitype/StillImage" />
        <dc:title></dc:title>
      </cc:Work>
    </rdf:RDF>
  </metadata>
  <g
     id="layer1">
    <polygon
       points="0,6 6,0 6,12 "
       style="fill:#ff0000"
       id="polygon916"
       transform="matrix(0.26458333,0,0,0.26458333,18.794829,6.080125)">
      <title
         id="title930">Heel Mark, HE</title>
    </polygon>
    <g
       id="g952"
       transform="matrix(0,-0.26458333,0.26458333,0,15.54427,11.698363)">
      <title
         id="title948">Right Horizontal Mark, RH</title>
      <polygon
         points="8,4 8,40 4,40 4,4 0,0 12,0 "
         style="fill:#ff0000"
         id="polygon950" />
    </g>
    <polygon
       points="6,12 0,6 6,0 "
       style="fill:#ff0000"
       id="polygon967"
       transform="matrix(0.26458333,0,0,0.26458333,18.794829,2.905125)">
      <title
         id="title965">Heel Mark, HE</title>
    </polygon>
    <polygon
       points="0,6 6,0 6,12 "
       style="fill:#ff0000"
       id="polygon971"
       transform="matrix(0.26458333,0,0,0.26458333,25.598437,4.2900297)">
      <title
         id="title969">Heel Mark, HE</title>
    </polygon>
    <polygon
       points="6,0 6,12 0,6 "
       style="fill:#ff0000"
       id="polygon975"
       transform="matrix(0.26458333,0,0,0.26458333,22.196613,2.9635968)">
      <title
         id="title973">Heel Mark, HE</title>
    </polygon>
    <polygon
       points="6,12 0,6 6,0 "
       style="fill:#ff0000"
       id="polygon979"
       transform="matrix(0.26458333,0,0,0.26458333,25.598437,7.4650297)">
      <title
         id="title977">Heel Mark, HE</title>
    </polygon>
    <polygon
       points="6,12 0,6 6,0 "
       style="fill:#ff0000"
       id="polygon983"
       transform="matrix(0.26458333,0,0,0.26458333,22.196613,6.1385968)">
      <title
         id="title981">Heel Mark, HE</title>
    </polygon>
  </g>
</svg>
