<?xml version="1.0" encoding="UTF-8" standalone="no"?>
<svg
   xmlns:dc="http://purl.org/dc/elements/1.1/"
   xmlns:cc="http://creativecommons.org/ns#"
   xmlns:rdf="http://www.w3.org/1999/02/22-rdf-syntax-ns#"
   xmlns:svg="http://www.w3.org/2000/svg"
   xmlns="http://www.w3.org/2000/svg"
   width="160"
   height="80"
   viewBox="0 0 42.333332 21.166667"
   version="1.1"
   id="svg8">
  <defs
     id="defs2" />
  <metadata
     id="metadata5">
    <rdf:RDF>
      <cc:Work
         rdf:about="">
        <dc:format>image/svg+xml</dc:format>
        <dc:type
           rdf:resource="http://purl.org/dc/dcmitype/StillImage" />
        <dc:title></dc:title>
      </cc:Work>
    </rdf:RDF>
  </metadata>
  <g
     id="layer1">
    <polygon
       points="8,18 12,18 8,22 8,40 4,40 4,22 0,18 4,18 4,4 0,0 12,0 8,4 "
       style="fill:#ff0000"
       id="polygon120"
       transform="matrix(0.26458333,0,0,0.26458333,16.11596,3.8652818)">
      <title
         id="title195">Down Vertical Head-to-Tail Mark, DVHT</title>
    </polygon>
    <polygon
       points="12,18 8,22 8,40 4,40 4,22 0,18 4,18 4,4 0,0 12,0 8,4 8,18 "
       style="fill:#ff0000"
       id="polygon134"
       transform="matrix(0.26458333,0,0,0.26458333,20.368192,3.8652818)">
      <title
         id="title197">Down Vertical Head-to-Tail Mark, DVHT</title>
    </polygon>
    <g
       id="g154"
       transform="matrix(0.13229167,-0.22913589,0.22913589,0.13229167,17.153415,13.493226)">
      <title
         id="title150"> Right Down Diagonal Mark, RDD </title>
      <polygon
         points="4,25 4,4 0,0 12,0 8,4 8,25 "
         style="fill:#ff0000"
         id="polygon152" />
    </g>
    <circle
       style="fill:#008000;fill-rule:evenodd;stroke-width:0.264583"
       id="path839"
       cx="21.875372"
       cy="14.221354"
       r="0.79374999">
      <title
         id="title908">Other 2 Touch Connector, O2T</title>
    </circle>
    <circle
       style="fill:#008000;fill-rule:evenodd;stroke-width:0.264583"
       id="circle904"
       cx="18.142859"
       cy="12.189731"
       r="0.79374999">
      <title
         id="title906">Other 2 Touch Connector, O2T</title>
    </circle>
  </g>
</svg>
