<?xml version="1.0" encoding="UTF-8" standalone="no"?>
<svg
   xmlns:dc="http://purl.org/dc/elements/1.1/"
   xmlns:cc="http://creativecommons.org/ns#"
   xmlns:rdf="http://www.w3.org/1999/02/22-rdf-syntax-ns#"
   xmlns:svg="http://www.w3.org/2000/svg"
   xmlns="http://www.w3.org/2000/svg"
   width="160"
   height="80"
   viewBox="0 0 42.333332 21.166667"
   version="1.1"
   id="svg8">
  <defs
     id="defs2" />
  <metadata
     id="metadata5">
    <rdf:RDF>
      <cc:Work
         rdf:about="">
        <dc:format>image/svg+xml</dc:format>
        <dc:type
           rdf:resource="http://purl.org/dc/dcmitype/StillImage" />
        <dc:title></dc:title>
      </cc:Work>
    </rdf:RDF>
  </metadata>
  <g
     id="layer1">
    <polygon
       points="0,18 4,18 4,4 0,0 12,0 8,4 8,18 12,18 8,22 8,40 4,40 4,22 "
       style="fill:#ff0000"
       id="polygon28"
       transform="matrix(0.26458333,0,0,0.26458333,28.650595,4.91369)">
      <title
         id="title134">Down Vertical Head-to-Tail Mark, DVHT</title>
    </polygon>
    <g
       id="g60"
       transform="matrix(0,-0.26458333,0.26458333,0,20.183928,8.08869)">
      <title
         id="title56">Right Horizontal Mark, RH</title>
      <polygon
         points="12,0 8,4 8,40 4,40 4,4 0,0 "
         style="fill:#ff0000"
         id="polygon58" />
    </g>
    <g
       id="g77"
       transform="matrix(0,-0.26458333,0.26458333,0,20.183928,11.26369)">
      <title
         id="title73">Right Horizontal Mark, RH</title>
      <polygon
         points="4,40 4,4 0,0 12,0 8,4 8,40 "
         style="fill:#ff0000"
         id="polygon75" />
    </g>
    <g
       id="g97"
       transform="matrix(0.26458333,0,0,0.26458333,24.587351,6.9453129)">
      <title
         id="title93">Down Vertical Mark, DV</title>
      <polygon
         points="0,0 12,0 8,4 8,25 4,25 4,4 "
         style="fill:#ff0000"
         id="polygon95" />
    </g>
    <g
       id="g114"
       transform="matrix(0.26458333,0,0,0.26458333,20.183928,9.1470234)">
      <title
         id="title110">Down Vertical Mark, DV</title>
      <polygon
         points="0,0 12,0 8,4 8,25 4,25 4,4 "
         style="fill:#ff0000"
         id="polygon112" />
    </g>
    <g
       id="g120"
       transform="matrix(0,-0.26458333,0.26458333,0,14.646577,15.383632)">
      <title
         id="title116">Right Horizontal Mark, RH</title>
      <polygon
         points="8,4 8,25 4,25 4,4 0,0 12,0 "
         style="fill:#ff0000"
         id="polygon118" />
    </g>
    <g
       id="g126"
       transform="matrix(0,-0.26458333,0.26458333,0,14.601296,11.898577)">
      <title
         id="title122">Right Horizontal Mark, RH</title>
      <polygon
         points="8,25 4,25 4,4 0,0 12,0 8,4 "
         style="fill:#ff0000"
         id="polygon124" />
    </g>
    <g
       id="g132"
       transform="matrix(0.26458333,0,0,0.26458333,14.665476,5.1026794)">
      <title
         id="title128">Down Vertical Mark, DV</title>
      <polygon
         points="8,4 8,18 4,18 4,4 0,0 12,0 "
         style="fill:#ff0000"
         id="polygon130" />
    </g>
    <g
       id="g154"
       transform="matrix(0.26458333,0,0,0.26458333,25.381101,8.89189)">
      <title
         id="title150">2 Cross Connector, 2C</title>
      <circle
         cx="3"
         cy="3"
         r="3"
         style="fill:#008000"
         id="circle152" />
    </g>
    <g
       id="g171"
       transform="matrix(0.26458333,0,0,0.26458333,25.381101,6.1043156)">
      <title
         id="title167">Top 2 Touch Connector, T2T</title>
      <circle
         cx="3"
         cy="3"
         r="3"
         style="fill:#008000"
         id="circle169" />
    </g>
    <g
       id="g177"
       transform="matrix(0.26458333,0,0,0.26458333,20.892634,13.002381)">
      <title
         id="title173">Right 2 Touch Connector, R2T</title>
      <circle
         cx="3"
         cy="3"
         r="3"
         style="fill:#008000"
         id="circle175" />
    </g>
    <g
       id="g183"
       transform="matrix(0.26458333,0,0,0.26458333,20.892634,9.3643602)">
      <title
         id="title179">3 Touch Connector, 3T</title>
      <circle
         cx="3"
         cy="3"
         r="3"
         style="fill:#008000"
         id="circle181" />
    </g>
    <g
       id="g189"
       transform="matrix(0.26458333,0,0,0.26458333,15.648215,9.3171132)">
      <title
         id="title185">Bottom 2 Touch Connector, B2T</title>
      <circle
         cx="3"
         cy="3"
         r="3"
         style="fill:#008000"
         id="circle187" />
    </g>
    <g
       id="g195"
       transform="matrix(0.26458333,0,0,0.26458333,29.349851,8.9391369)">
      <title
         id="title191">Right 2 Touch Connector, R2T</title>
      <circle
         cx="3"
         cy="3"
         r="3"
         style="fill:#008000"
         id="circle193" />
    </g>
    <g
       id="g201"
       transform="matrix(0.26458333,0,0,0.26458333,29.302604,5.8208333)">
      <title
         id="title197">Northeast Corner Connector, NEC</title>
      <circle
         cx="3"
         cy="3"
         r="3"
         style="fill:#008000"
         id="circle199" />
    </g>
  </g>
</svg>
