<?xml version="1.0" encoding="UTF-8" standalone="no"?>
<svg
   xmlns:dc="http://purl.org/dc/elements/1.1/"
   xmlns:cc="http://creativecommons.org/ns#"
   xmlns:rdf="http://www.w3.org/1999/02/22-rdf-syntax-ns#"
   xmlns:svg="http://www.w3.org/2000/svg"
   xmlns="http://www.w3.org/2000/svg"
   width="160"
   height="80"
   viewBox="0 0 42.333332 21.166667"
   version="1.1"
   id="svg8">
  <defs
     id="defs2" />
  <metadata
     id="metadata5">
    <rdf:RDF>
      <cc:Work
         rdf:about="">
        <dc:format>image/svg+xml</dc:format>
        <dc:type
           rdf:resource="http://purl.org/dc/dcmitype/StillImage" />
        <dc:title></dc:title>
      </cc:Work>
    </rdf:RDF>
  </metadata>
  <g
     id="layer1">
    <g
       id="g894"
       transform="matrix(0.26458333,0,0,0.26458333,14.816665,4.091592)">
      <title
         id="title890">Down Vertical Mark, DV</title>
      <polygon
         points="4,40 4,4 0,0 12,0 8,4 8,40 "
         style="fill:#ff0000"
         id="polygon892" />
    </g>
    <g
       id="g982"
       transform="matrix(0,-0.26458333,0.26458333,0,5.2916651,6.2082586)">
      <title
         id="title978">Right Horizontal Mark, RH</title>
      <polygon
         points="0,0 12,0 8,4 8,40 4,40 4,4 "
         style="fill:#ff0000"
         id="polygon980" />
    </g>
    <circle
       style="fill:#008000;fill-rule:evenodd;stroke-width:0.264583"
       id="circle956"
       cx="16.319118"
       cy="4.5735116"
       r="0.79374999">
      <title
         id="title976">Northeast Corner Connector, NEC</title>
    </circle>
    <g
       id="g989"
       transform="matrix(0,-0.26458333,0.26458333,0,5.2822931,12.686771)">
      <title
         id="title985">Right Horizontal Mark, RH</title>
      <polygon
         points="8,40 4,40 4,4 0,0 12,0 8,4 "
         style="fill:#ff0000"
         id="polygon987" />
    </g>
    <g
       id="g1288"
       transform="matrix(0.26458333,0,0,0.26458333,25.022022,4.1330562)">
      <title
         id="title1284">Down Vertical Mark, DV</title>
      <polygon
         points="4,4 0,0 12,0 8,4 8,40 4,40 "
         style="fill:#ff0000"
         id="polygon1286" />
    </g>
    <g
       id="g1308"
       transform="matrix(0,-0.26458333,0.26458333,0,27.138689,14.451806)">
      <title
         id="title1304">Right Horizontal Mark, RH</title>
      <polygon
         points="8,25 4,25 4,4 0,0 12,0 8,4 "
         style="fill:#ff0000"
         id="polygon1306" />
    </g>
    <g
       id="g1325"
       transform="matrix(0,-0.26458333,0.26458333,0,19.359827,6.3027526)">
      <title
         id="title1321">Right Horizontal Mark, RH</title>
      <polygon
         points="4,4 0,0 12,0 8,4 8,25 4,25 "
         style="fill:#ff0000"
         id="polygon1323" />
    </g>
    <g
       id="g1343"
       transform="matrix(0,-0.26458333,0.26458333,0,15.90331,15.799405)">
      <title
         id="title1339">Right Horizontal Mark, RH</title>
      <polygon
         points="4,4 0,0 12,0 8,4 8,40 4,40 "
         style="fill:#ff0000"
         id="polygon1341" />
    </g>
    <circle
       style="fill:#008000;fill-rule:evenodd;stroke-width:0.264583"
       id="circle958"
       cx="16.366367"
       cy="11.241087"
       r="0.79374999">
      <title
         id="title966">Right 2 Touch Connector, R2T</title>
    </circle>
    <g
       id="g1349"
       transform="matrix(0,-0.26458333,0.26458333,0,27.138689,8.3663895)">
      <title
         id="title1345">Right Horizontal Mark, RH</title>
      <polygon
         points="4,25 4,4 0,0 12,0 8,4 8,25 "
         style="fill:#ff0000"
         id="polygon1347" />
    </g>
    <circle
       style="fill:#008000;fill-rule:evenodd;stroke-width:0.264583"
       id="circle1375"
       cx="26.600075"
       cy="4.7719498"
       r="0.79374999">
      <title
         id="title1397">Northeast Corner Connector, NEC</title>
    </circle>
    <circle
       style="fill:#008000;fill-rule:evenodd;stroke-width:0.264583"
       id="circle1379"
       cx="27.174673"
       cy="6.922596"
       r="0.79374999">
      <title
         id="title1401">Left 2 Touch Connector, L2T</title>
    </circle>
    <circle
       style="fill:#008000;fill-rule:evenodd;stroke-width:0.264583"
       id="circle1383"
       cx="27.407137"
       cy="12.777523"
       r="0.79374999">
      <title
         id="title1403">Left 2 Touch Connector, L2T</title>
    </circle>
    <circle
       style="fill:#008000;fill-rule:evenodd;stroke-width:0.264583"
       id="circle1385"
       cx="26.380804"
       cy="14.406563"
       r="0.79374999">
      <title
         id="title1399">Southeast Corner Connector, SEC</title>
    </circle>
    <circle
       style="fill:#008000;fill-rule:evenodd;stroke-width:0.264583"
       id="circle1387"
       cx="16.441965"
       cy="14.221355"
       r="0.79374999">
      <title
         id="title1405">Southwest Corner Connector, SWC</title>
    </circle>
    <polygon
       points="4,4 0,0 12,0 8,4 8,25 12,30 0,30 4,25 "
       style="fill:#ff0000"
       id="polygon1419"
       transform="matrix(0,-0.26458333,0.26458333,0,17.717634,11.1314)">
      <title
         id="title1433">Right Horizontal Barbell Mark, RHBB</title>
    </polygon>
    <g
       id="g1439"
       transform="matrix(0.26458333,0,0,0.26458333,32.770534,4.0858092)">
      <title
         id="title1435">Down Vertical Mark, DV</title>
      <polygon
         points="12,0 8,4 8,40 4,40 4,4 0,0 "
         style="fill:#ff0000"
         id="polygon1437" />
    </g>
    <circle
       style="fill:#008000;fill-rule:evenodd;stroke-width:0.264583"
       id="circle1373"
       cx="34.240788"
       cy="6.8603053"
       r="0.79374999">
      <title
         id="title1389">Right 2 Touch Connector, R2T</title>
    </circle>
    <circle
       style="fill:#008000;fill-rule:evenodd;stroke-width:0.264583"
       id="path839"
       cx="34.254093"
       cy="12.896585"
       r="0.79374999">
      <title
         id="title1391">Right 2 Touch Connector, R2T</title>
    </circle>
  </g>
</svg>
