<?xml version="1.0" encoding="UTF-8" standalone="no"?>
<svg
   xmlns:dc="http://purl.org/dc/elements/1.1/"
   xmlns:cc="http://creativecommons.org/ns#"
   xmlns:rdf="http://www.w3.org/1999/02/22-rdf-syntax-ns#"
   xmlns:svg="http://www.w3.org/2000/svg"
   xmlns="http://www.w3.org/2000/svg"
   width="160"
   height="80"
   viewBox="0 0 42.333332 21.166667"
   version="1.1"
   id="svg8">
  <defs
     id="defs2" />
  <metadata
     id="metadata5">
    <rdf:RDF>
      <cc:Work
         rdf:about="">
        <dc:format>image/svg+xml</dc:format>
        <dc:type
           rdf:resource="http://purl.org/dc/dcmitype/StillImage" />
        <dc:title></dc:title>
      </cc:Work>
    </rdf:RDF>
  </metadata>
  <g
     id="layer1">
    <g
       id="g334"
       transform="matrix(0.26458333,0,0,0.26458333,11.957314,4.8664439)">
      <title
         id="title330">Down Vertical Mark, DV</title>
      <polygon
         points="8,40 4,40 4,4 0,0 12,0 8,4 "
         style="fill:#ff0000"
         id="polygon332" />
    </g>
    <polygon
       points="0,6 6,0 6,12 "
       style="fill:#ff0000"
       id="polygon422"
       transform="matrix(0.26458333,0,0,0.26458333,14.867731,3.2789439)">
      <title
         id="title436">Heel Mark, HE</title>
    </polygon>
    <g
       id="g448"
       transform="matrix(0,-0.26458333,0.26458333,0,15.204016,11.792857)">
      <title
         id="title444">Right Down Diagonal Mark, RDD</title>
      <polygon
         points="0,0 12,0 8,4 8,20 4,20 4,4 "
         style="fill:#ff0000"
         id="polygon446"
         transform="rotate(15,26.501525,-67.819102)" />
    </g>
    <g
       id="g657"
       transform="matrix(0.26458333,0,0,0.26458333,13.096875,14.089062)">
      <title
         id="title653">Other 2 Touch Connector, O2T</title>
      <circle
         cx="3"
         cy="3"
         r="3"
         style="fill:#008000"
         id="circle655" />
    </g>
    <polygon
       points="8,4 8,22 4,22 4,4 0,0 12,0 "
       style="fill:#ff0000"
       id="polygon675"
       transform="matrix(0,-0.26458333,0.26458333,0,14.105996,11.439525)">
      <title
         id="title673">Right Horizontal Mark, RH</title>
    </polygon>
    <g
       id="g634"
       transform="matrix(0.26458333,0,0,0.26458333,13.427604,8.9863836)">
      <title
         id="title630">Left 2 Touch Connector, L2T</title>
      <circle
         cx="3"
         cy="3"
         r="3"
         style="fill:#008000"
         id="circle632" />
    </g>
  </g>
</svg>
