<?xml version="1.0" encoding="UTF-8" standalone="no"?>
<svg
   xmlns:dc="http://purl.org/dc/elements/1.1/"
   xmlns:cc="http://creativecommons.org/ns#"
   xmlns:rdf="http://www.w3.org/1999/02/22-rdf-syntax-ns#"
   xmlns:svg="http://www.w3.org/2000/svg"
   xmlns="http://www.w3.org/2000/svg"
   width="160"
   height="80"
   viewBox="0 0 42.333332 21.166667"
   version="1.1"
   id="svg8">
  <defs
     id="defs2" />
  <metadata
     id="metadata5">
    <rdf:RDF>
      <cc:Work
         rdf:about="">
        <dc:format>image/svg+xml</dc:format>
        <dc:type
           rdf:resource="http://purl.org/dc/dcmitype/StillImage" />
        <dc:title></dc:title>
      </cc:Work>
    </rdf:RDF>
  </metadata>
  <g
     id="layer1">
    <polygon
       points="6,0 6,12 0,6 "
       style="fill:#ff0000"
       id="polygon1260"
       transform="matrix(0.26458333,0,0,0.26458333,3.9404396,4.4317708)">
      <title
         id="title1315">Heel Mark, HE</title>
    </polygon>
    <polygon
       points="0,6 6,0 6,12 "
       style="fill:#ff0000"
       id="polygon1274"
       transform="matrix(0.26458333,0,0,0.26458333,3.9404396,8.3211458)">
      <title
         id="title1317">Heel Mark, HE</title>
    </polygon>
    <polygon
       points="6,12 0,6 6,0 "
       style="fill:#ff0000"
       id="polygon1276"
       transform="matrix(0.26458333,0,0,0.26458333,5.7263383,4.4526729)">
      <title
         id="title1313">Heel Mark, HE</title>
    </polygon>
    <polygon
       points="6,0 6,12 0,6 "
       style="fill:#ff0000"
       id="polygon1278"
       transform="matrix(0.26458333,0,0,0.26458333,5.7263383,8.3420479)">
      <title
         id="title1311">Heel Mark, HE</title>
    </polygon>
    <polygon
       points="0,6 6,0 6,12 "
       style="fill:#ff0000"
       id="polygon1552"
       transform="matrix(0.26458333,0,0,0.26458333,7.5217252,4.4054259)">
      <title
         id="title1550">Heel Mark, HE</title>
    </polygon>
    <polygon
       points="8,30 4,30 4,19 0,15 4,15 4,4 0,0 12,0 8,4 8,15 12,15 8,19 "
       style="fill:#ff0000"
       id="polygon1566"
       transform="matrix(0.26458333,0,0,0.26458333,9.1092252,3.8496875)">
      <title
         id="title1580">Down Vertical Head-to-Tail Mark, DVHT</title>
    </polygon>
  </g>
</svg>
