<?xml version="1.0" encoding="UTF-8" standalone="no"?>
<svg
   xmlns:dc="http://purl.org/dc/elements/1.1/"
   xmlns:cc="http://creativecommons.org/ns#"
   xmlns:rdf="http://www.w3.org/1999/02/22-rdf-syntax-ns#"
   xmlns:svg="http://www.w3.org/2000/svg"
   xmlns="http://www.w3.org/2000/svg"
   width="160"
   height="80"
   viewBox="0 0 42.333332 21.166667"
   version="1.1"
   id="svg8">
  <defs
     id="defs2" />
  <metadata
     id="metadata5">
    <rdf:RDF>
      <cc:Work
         rdf:about="">
        <dc:format>image/svg+xml</dc:format>
        <dc:type
           rdf:resource="http://purl.org/dc/dcmitype/StillImage" />
        <dc:title></dc:title>
      </cc:Work>
    </rdf:RDF>
  </metadata>
  <g
     id="layer1">
    <polygon
       points="12,0 8,4 8,18 12,18 8,22 8,30 4,30 4,22 0,18 4,18 4,4 0,0 "
       style="fill:#ff0000"
       id="polygon982"
       transform="matrix(0.26458333,0,0,0.26458333,10.035268,11.375231)">
      <title
         id="title1034">Down Vertical Head-to-Tail Mark, DVHT</title>
    </polygon>
    <polygon
       points="6,12 0,6 6,0 "
       style="fill:#ff0000"
       id="polygon1008"
       transform="matrix(0.26458333,0,0,0.26458333,20.090341,9.7358464)">
      <title
         id="title1030">Heel Mark, HE</title>
    </polygon>
    <g
       id="g1026"
       transform="matrix(0,-0.26458333,0.26458333,0,7.6144437,16.521378)">
      <title
         id="title1022">Right Horizontal Mark, RH</title>
      <polygon
         points="12,0 8,4 8,40 4,40 4,4 0,0 "
         style="fill:#ff0000"
         id="polygon1024" />
    </g>
    <polygon
       points="6,12 0,6 6,0 "
       style="fill:#ff0000"
       id="polygon1028"
       transform="matrix(0.26458333,0,0,0.26458333,18.066279,11.963929)">
      <title
         id="title1032">Heel Mark, HE</title>
    </polygon>
    <circle
       style="fill:#008000;fill-rule:evenodd;stroke-width:0.264583"
       id="circle1084"
       cx="11.575517"
       cy="14.9225"
       r="0.79374999">
      <title
         id="title1090">2 Cross Connector, 2C</title>
    </circle>
    <polygon
       points="4,22 0,18 4,18 4,4 0,0 12,0 8,4 8,18 12,18 8,22 8,40 4,40 "
       style="fill:#ff0000"
       id="polygon1098"
       transform="matrix(0.26458333,0,0,0.26458333,33.233556,7.7485114)">
      <title
         id="title1096">Down Vertical Head-to-Tail Mark, DVHT</title>
    </polygon>
    <polygon
       points="0,18 4,18 4,4 0,0 12,0 8,4 8,18 12,18 8,22 8,40 4,40 4,22 "
       style="fill:#ff0000"
       id="polygon1102"
       transform="matrix(0.26458333,0,0,0.26458333,30.058556,7.7485114)">
      <title
         id="title1100">Down Vertical Head-to-Tail Mark, DVHT</title>
    </polygon>
    <g
       id="g1108"
       transform="matrix(0,-0.26458333,0.26458333,0,24.615699,16.432477)">
      <title
         id="title1104">Right Horizontal Mark, RH</title>
      <polygon
         points="12,0 8,4 8,25 4,25 4,4 0,0 "
         style="fill:#ff0000"
         id="polygon1106" />
    </g>
    <g
       id="g1114"
       transform="matrix(0,-0.26458333,0.26458333,0,24.729016,11.745611)">
      <title
         id="title1110">Right Horizontal Mark, RH</title>
      <polygon
         points="4,4 0,0 12,0 8,4 8,25 4,25 "
         style="fill:#ff0000"
         id="polygon1112" />
    </g>
    <g
       id="g1120"
       transform="matrix(0,-0.26458333,0.26458333,0,7.6540173,11.556622)">
      <title
         id="title1116">Right Horizontal Mark, RH</title>
      <polygon
         points="0,0 12,0 8,4 8,40 4,40 4,4 "
         style="fill:#ff0000"
         id="polygon1118" />
    </g>
    <polygon
       points="6,0 6,12 0,6 "
       style="fill:#ff0000"
       id="polygon1124"
       transform="matrix(0.26458333,0,0,0.26458333,21.347112,12.413721)">
      <title
         id="title1122">Heel Mark, HE</title>
    </polygon>
    <circle
       style="fill:#008000;fill-rule:evenodd;stroke-width:0.264583"
       id="circle1080"
       cx="31.318993"
       cy="14.835565"
       r="0.79374999">
      <title
         id="title1094">Right 2 Touch Connector, R2T</title>
    </circle>
    <circle
       style="fill:#008000;fill-rule:evenodd;stroke-width:0.264583"
       id="circle1078"
       cx="31.268194"
       cy="10.158109"
       r="0.79374999">
      <title
         id="title1092">Right 2 Touch Connector, R2T</title>
    </circle>
  </g>
</svg>
