<?xml version="1.0" encoding="UTF-8" standalone="no"?>
<svg
   xmlns:dc="http://purl.org/dc/elements/1.1/"
   xmlns:cc="http://creativecommons.org/ns#"
   xmlns:rdf="http://www.w3.org/1999/02/22-rdf-syntax-ns#"
   xmlns:svg="http://www.w3.org/2000/svg"
   xmlns="http://www.w3.org/2000/svg"
   width="160"
   height="80"
   viewBox="0 0 42.333332 21.166667"
   version="1.1"
   id="svg8">
  <defs
     id="defs2" />
  <metadata
     id="metadata5">
    <rdf:RDF>
      <cc:Work
         rdf:about="">
        <dc:format>image/svg+xml</dc:format>
        <dc:type
           rdf:resource="http://purl.org/dc/dcmitype/StillImage" />
        <dc:title></dc:title>
      </cc:Work>
    </rdf:RDF>
  </metadata>
  <g
     id="layer1">
    <g
       id="g34"
       transform="matrix(0,-0.26458333,0.26458333,0,16.34747,15.714361)">
      <title
         id="title30">Right Horizontal Mark, RH</title>
      <polygon
         points="4,40 4,4 0,0 12,0 8,4 8,40 "
         style="fill:#ff0000"
         id="polygon32" />
    </g>
    <g
       id="g51"
       transform="matrix(0.09049283,-0.248627,0.248627,0.09049283,16.029146,7.9973822)">
      <title
         id="title47">Right Down Diagonal Mark, RDD</title>
      <polygon
         points="8,4 8,40 4,40 4,4 0,0 12,0 "
         style="fill:#ff0000"
         id="polygon49" />
    </g>
    <g
       id="g71"
       transform="matrix(0.26458333,0,0,0.26458333,22.130506,10.536086)">
      <title
         id="title67">Down Vertical Mark, DV</title>
      <polygon
         points="8,20 4,20 4,4 0,0 12,0 8,4 "
         style="fill:#ff0000"
         id="polygon69" />
    </g>
    <g
       id="g88"
       transform="matrix(0.26458333,0,0,0.26458333,19.749294,9.5834728)">
      <title
         id="title84">Down Vertical Mark, DV</title>
      <polygon
         points="4,23 4,4 0,0 12,0 8,4 8,23 "
         style="fill:#ff0000"
         id="polygon86"
         transform="scale(1,1.0304348)" />
    </g>
    <g
       id="g94"
       transform="matrix(0.26458333,0,0,0.26458333,17.341585,8.6838895)">
      <title
         id="title90">Down Vertical Mark, DV</title>
      <polygon
         points="8,27 4,27 4,4 0,0 12,0 8,4 "
         style="fill:#ff0000"
         id="polygon92" />
    </g>
    <g
       id="g100"
       transform="matrix(0,-0.26458333,0.26458333,0,13.1064,12.926785)">
      <title
         id="title96">Right Horizontal Mark, RH</title>
      <polygon
         points="12,0 8,4 8,20 4,20 4,4 0,0 "
         style="fill:#ff0000"
         id="polygon98" />
    </g>
    <g
       id="g120"
       transform="matrix(0.26458333,0,0,0.26458333,22.924255,13.285863)">
      <title
         id="title116">2 Cross Connector, 2C</title>
      <circle
         cx="3"
         cy="3"
         r="3"
         style="fill:#008000"
         id="circle118" />
    </g>
    <g
       id="g137"
       transform="matrix(0.26458333,0,0,0.26458333,20.656399,13.285863)">
      <title
         id="title133">2 Cross Connector, 2C</title>
      <circle
         cx="3"
         cy="3"
         r="3"
         style="fill:#008000"
         id="circle135" />
    </g>
    <g
       id="g143"
       transform="matrix(0.26458333,0,0,0.26458333,17.963318,13.33311)">
      <title
         id="title139">2 Cross Connector, 2C</title>
      <circle
         cx="3"
         cy="3"
         r="3"
         style="fill:#008000"
         id="circle141" />
    </g>
    <g
       id="g149"
       transform="matrix(0.26458333,0,0,0.26458333,17.963318,10.640029)">
      <title
         id="title145">Right 2 Touch Connector, R2T</title>
      <circle
         cx="3"
         cy="3"
         r="3"
         style="fill:#008000"
         id="circle147" />
    </g>
  </g>
</svg>
