<?xml version="1.0" encoding="UTF-8" standalone="no"?>
<svg
   xmlns:dc="http://purl.org/dc/elements/1.1/"
   xmlns:cc="http://creativecommons.org/ns#"
   xmlns:rdf="http://www.w3.org/1999/02/22-rdf-syntax-ns#"
   xmlns:svg="http://www.w3.org/2000/svg"
   xmlns="http://www.w3.org/2000/svg"
   width="160"
   height="80"
   viewBox="0 0 42.333332 21.166667"
   version="1.1"
   id="svg8">
  <defs
     id="defs2" />
  <metadata
     id="metadata5">
    <rdf:RDF>
      <cc:Work
         rdf:about="">
        <dc:format>image/svg+xml</dc:format>
        <dc:type
           rdf:resource="http://purl.org/dc/dcmitype/StillImage" />
        <dc:title></dc:title>
      </cc:Work>
    </rdf:RDF>
  </metadata>
  <g
     id="layer1">
    <g
       id="g857"
       transform="matrix(0.26458333,0,0,0.26458333,21.469048,5.197173)">
      <title
         id="title853">Down Vertical Mark, DV</title>
      <polygon
         points="12,0 8,4 8,40 4,40 4,4 0,0 "
         style="fill:#ff0000"
         id="polygon855" />
    </g>
    <g
       id="g874"
       transform="matrix(0.17007089,-0.20268259,0.20268259,0.17007089,14.160235,9.3013035)">
      <title
         id="title870">Right Down Diagonal Mark, RDD</title>
      <polygon
         points="8,40 4,40 4,4 0,0 12,0 8,4 "
         style="fill:#ff0000"
         id="polygon872" />
    </g>
    <g
       id="g894"
       transform="matrix(0.17007089,-0.20268259,0.20268259,0.17007089,17.202679,8.8269056)">
      <title
         id="title890">Right Down Diagonal Mark, RDD</title>
      <polygon
         points="0,0 12,0 8,4 8,25 4,25 4,4 "
         style="fill:#ff0000"
         id="polygon892" />
    </g>
    <g
       id="g925"
       transform="matrix(0.26458333,0,0,0.26458333,20.218386,6.3376187)">
      <title
         id="title921">Right Down Diagonal Mark, RDD</title>
      <polygon
         points="0,0 12,0 8,4 8,10 4,10 4,4 "
         style="fill:#ff0000"
         id="polygon923"
         transform="rotate(-50,6,5)" />
    </g>
    <circle
       style="fill:#008000;fill-rule:evenodd;stroke-width:0.264583"
       id="path839"
       cx="22.962053"
       cy="14.268601"
       r="0.79374999">
      <title
         id="title954">Other 2 Touch Connector, O2T</title>
    </circle>
    <circle
       style="fill:#008000;fill-rule:evenodd;stroke-width:0.264583"
       id="circle958"
       cx="22.962053"
       cy="11.244791"
       r="0.79374999">
      <title
         id="title956">Other 2 Touch Connector, O2T</title>
    </circle>
    <circle
       style="fill:#008000;fill-rule:evenodd;stroke-width:0.264583"
       id="circle962"
       cx="23.0093"
       cy="8.3154764"
       r="0.79374999">
      <title
         id="title960">Other 2 Touch Connector, O2T</title>
    </circle>
  </g>
</svg>
