<?xml version="1.0" encoding="UTF-8" standalone="no"?>
<svg
   xmlns:dc="http://purl.org/dc/elements/1.1/"
   xmlns:cc="http://creativecommons.org/ns#"
   xmlns:rdf="http://www.w3.org/1999/02/22-rdf-syntax-ns#"
   xmlns:svg="http://www.w3.org/2000/svg"
   xmlns="http://www.w3.org/2000/svg"
   width="160"
   height="80"
   viewBox="0 0 42.333332 21.166667"
   version="1.1"
   id="svg8">
  <defs
     id="defs2" />
  <metadata
     id="metadata5">
    <rdf:RDF>
      <cc:Work
         rdf:about="">
        <dc:format>image/svg+xml</dc:format>
        <dc:type
           rdf:resource="http://purl.org/dc/dcmitype/StillImage" />
        <dc:title></dc:title>
      </cc:Work>
    </rdf:RDF>
  </metadata>
  <g
     id="layer1">
    <g
       id="g989"
       transform="matrix(0,-0.26458333,0.26458333,0,8.9486619,14.54834)">
      <title
         id="title985">Right Horizontal Mark, RH</title>
      <polygon
         points="0,0 12,0 8,4 8,45 4,45 4,4 "
         style="fill:#ff0000"
         id="polygon987"
         transform="translate(0,0.29999983)" />
    </g>
    <g
       id="g1155"
       transform="matrix(0,-0.26458333,0.26458333,0,8.8541678,7.6030275)">
      <title
         id="title1151">Right Horizontal Mark, RH</title>
      <polygon
         points="8,45 4,45 4,4 0,0 12,0 8,4 "
         style="fill:#ff0000"
         id="polygon1153"
         transform="translate(0,0.29999983)" />
    </g>
    <g
       id="g1175"
       transform="matrix(0.13229167,-0.22913589,0.22913589,0.13229167,15.475214,12.634729)">
      <title
         id="title1171">Right Down Diagonal Mark, RDD</title>
      <polygon
         points="12,0 8,4 8,25 4,25 4,4 0,0 "
         style="fill:#ff0000"
         id="polygon1173" />
    </g>
    <g
       id="g1192"
       transform="matrix(0.13229167,-0.22913589,0.22913589,0.13229167,15.477096,5.6460244)">
      <title
         id="title1188">Right Down Diagonal Mark, RDD</title>
      <polygon
         points="0,0 12,0 8,4 8,25 4,25 4,4 "
         style="fill:#ff0000"
         id="polygon1190" />
    </g>
    <circle
       style="fill:#008000;fill-rule:evenodd;stroke-width:0.264583"
       id="circle1196"
       cx="18.946054"
       cy="5.8586302"
       r="0.79374999">
      <title
         id="title1194">2 Cross Connector, 2C</title>
    </circle>
    <circle
       style="fill:#008000;fill-rule:evenodd;stroke-width:0.264583"
       id="circle1101"
       cx="18.757067"
       cy="12.85119"
       r="0.79374999">
      <title
         id="title1105">2 Cross Connector, 2C</title>
    </circle>
  </g>
</svg>
