<?xml version="1.0" encoding="UTF-8" standalone="no"?>
<svg
   xmlns:dc="http://purl.org/dc/elements/1.1/"
   xmlns:cc="http://creativecommons.org/ns#"
   xmlns:rdf="http://www.w3.org/1999/02/22-rdf-syntax-ns#"
   xmlns:svg="http://www.w3.org/2000/svg"
   xmlns="http://www.w3.org/2000/svg"
   xmlns:sodipodi="http://sodipodi.sourceforge.net/DTD/sodipodi-0.dtd"
   xmlns:inkscape="http://www.inkscape.org/namespaces/inkscape"
   width="160"
   height="80"
   viewBox="0 0 42.333332 21.166667"
   version="1.1"
   id="svg8"
   inkscape:version="1.0.2-2 (e86c870879, 2021-01-15)"
   sodipodi:docname="cdli67.svg">
  <defs
     id="defs2" />
  <sodipodi:namedview
     id="base"
     pagecolor="#ffffff"
     bordercolor="#666666"
     borderopacity="1.0"
     inkscape:pageopacity="0.0"
     inkscape:pageshadow="2"
     inkscape:zoom="5.6"
     inkscape:cx="79.651412"
     inkscape:cy="48.47793"
     inkscape:document-units="px"
     inkscape:current-layer="layer1"
     inkscape:document-rotation="0"
     showgrid="false"
     units="px"
     inkscape:window-width="1755"
     inkscape:window-height="1020"
     inkscape:window-x="293"
     inkscape:window-y="33"
     inkscape:window-maximized="0" />
  <metadata
     id="metadata5">
    <rdf:RDF>
      <cc:Work
         rdf:about="">
        <dc:format>image/svg+xml</dc:format>
        <dc:type
           rdf:resource="http://purl.org/dc/dcmitype/StillImage" />
        <dc:title></dc:title>
      </cc:Work>
    </rdf:RDF>
  </metadata>
  <g
     inkscape:label="Layer 1"
     inkscape:groupmode="layer"
     id="layer1">
    <g
       id="g931"
       transform="matrix(0,-0.26458333,0.26458333,0,20.063089,6.4161456)">
      <title
         id="title927">Right Horizontal Mark, RH</title>
      <polygon
         points="0,0 12,0 8,4 8,25 4,25 4,4 "
         style="fill:#ff0000"
         id="polygon929" />
    </g>
    <g
       id="g948"
       transform="matrix(0,-0.26458333,0.26458333,0,20.081874,12.747096)">
      <title
         id="title944">Right Horizontal Mark, RH</title>
      <polygon
         points="4,4 0,0 12,0 8,4 8,25 4,25 "
         style="fill:#ff0000"
         id="polygon946" />
    </g>
    <g
       id="g954"
       transform="matrix(0,-0.26458333,0.26458333,0,20.081875,9.5720957)">
      <title
         id="title950">Right Horizontal Mark, RH</title>
      <polygon
         points="4,25 4,4 0,0 12,0 8,4 8,25 "
         style="fill:#ff0000"
         id="polygon952" />
    </g>
    <polygon
       points="4,30 4,4 0,0 12,0 8,4 8,30 12,35 0,35 "
       style="fill:#ff0000"
       id="polygon1120"
       transform="matrix(0,-0.26458333,0.26458333,0,10.282956,7.6935541)">
      <title
         id="title1136">Right Horizontal Barbell Mark, RHBB</title>
    </polygon>
    <g
       id="g1156"
       transform="matrix(0.26458333,0,0,0.26458333,24.587351,4.299479)">
      <title
         id="title1152">Down Vertical Mark, DV</title>
      <polygon
         points="12,0 8,4 8,40 4,40 4,4 0,0 "
         style="fill:#ff0000"
         id="polygon1154" />
    </g>
    <g
       id="g1173"
       transform="matrix(0.26458333,0,0,0.26458333,29.929931,4.3561)">
      <title
         id="title1169">Down Vertical Mark, DV</title>
      <polygon
         points="4,4 0,0 12,0 8,4 8,40 4,40 "
         style="fill:#ff0000"
         id="polygon1171" />
    </g>
    <polygon
       points="0,6 6,0 6,12 "
       style="fill:#ff0000"
       id="polygon1187"
       transform="matrix(0.26458333,0,0,0.26458333,27.885193,7.956399)">
      <title
         id="title1213">Heel Mark, HE</title>
    </polygon>
    <g
       id="g1205"
       transform="matrix(0,-0.26458333,0.26458333,0,19.658542,15.922096)">
      <title
         id="title1201">Right Horizontal Mark, RH</title>
      <polygon
         points="12,0 8,4 8,25 4,25 4,4 0,0 "
         style="fill:#ff0000"
         id="polygon1203" />
    </g>
    <g
       id="g1211"
       transform="matrix(0,-0.26458333,0.26458333,0,12.832292,14.863763)">
      <title
         id="title1207">Right Horizontal Mark, RH</title>
      <polygon
         points="4,30 4,4 0,0 12,0 8,4 8,30 "
         style="fill:#ff0000"
         id="polygon1209"
         transform="translate(0,-4.2000029)" />
    </g>
    <circle
       style="fill:#008000;fill-rule:evenodd;stroke-width:0.264583"
       id="path839"
       cx="26.316591"
       cy="5.1499252"
       r="0.79374999">
      <title
         id="title1241">Northeast Corner Connector, NEC</title>
    </circle>
    <circle
       style="fill:#008000;fill-rule:evenodd;stroke-width:0.264583"
       id="circle1231"
       cx="26.080357"
       cy="11.103049"
       r="0.79374999">
      <title
         id="title1247">Right 2 Touch Connector, R2T</title>
    </circle>
    <circle
       style="fill:#008000;fill-rule:evenodd;stroke-width:0.264583"
       id="circle1235"
       cx="20.221725"
       cy="13.654389"
       r="0.79374999">
      <title
         id="title1249">Horizontal 2 Touch Connector, H2T</title>
    </circle>
    <circle
       style="fill:#008000;fill-rule:evenodd;stroke-width:0.264583"
       id="circle1237"
       cx="26.127602"
       cy="14.2686"
       r="0.79374999">
      <title
         id="title1243">Southeast Corner Connector, SEC</title>
    </circle>
    <circle
       style="fill:#008000;fill-rule:evenodd;stroke-width:0.264583"
       id="circle1239"
       cx="26.127602"
       cy="7.9374986"
       r="0.79374999">
      <title
         id="title1245">Right 2 Touch Connector, R2T</title>
    </circle>
  </g>
</svg>
