<?xml version="1.0" encoding="UTF-8" standalone="no"?>
<svg
   xmlns:dc="http://purl.org/dc/elements/1.1/"
   xmlns:cc="http://creativecommons.org/ns#"
   xmlns:rdf="http://www.w3.org/1999/02/22-rdf-syntax-ns#"
   xmlns:svg="http://www.w3.org/2000/svg"
   xmlns="http://www.w3.org/2000/svg"
   width="160"
   height="80"
   viewBox="0 0 42.333332 21.166667"
   version="1.1"
   id="svg8">
  <defs
     id="defs2" />
  <metadata
     id="metadata5">
    <rdf:RDF>
      <cc:Work
         rdf:about="">
        <dc:format>image/svg+xml</dc:format>
        <dc:type
           rdf:resource="http://purl.org/dc/dcmitype/StillImage" />
        <dc:title></dc:title>
      </cc:Work>
    </rdf:RDF>
  </metadata>
  <g
     id="layer1">
    <g
       id="g1120"
       transform="matrix(0,-0.26458333,0.26458333,0,13.982039,13.962761)">
      <title
         id="title1116">Right Horizontal Mark, RH</title>
      <polygon
         points="8,4 8,62 4,62 4,4 0,0 12,0 "
         style="fill:#ff0000"
         id="polygon1118" />
    </g>
    <g
       id="g1179"
       transform="matrix(0.26458333,0,0,0.26458333,15.578989,5.4205)">
      <title
         id="title1175">Down Vertical Mark, DV</title>
      <polygon
         points="4,4 0,0 12,0 8,4 8,40 4,40 "
         style="fill:#ff0000"
         id="polygon1177" />
    </g>
    <g
       id="g1196"
       transform="matrix(0.26458333,0,0,0.26458333,22.333537,5.326006)">
      <title
         id="title1192">Down Vertical Mark, DV</title>
      <polygon
         points="4,40 4,4 0,0 12,0 8,4 8,40 "
         style="fill:#ff0000"
         id="polygon1194" />
    </g>
    <g
       id="g1202"
       transform="matrix(0.26458333,0,0,0.26458333,31.293348,5.6567352)">
      <title
         id="title1198">Down Vertical Mark, DV</title>
      <polygon
         points="12,0 8,4 8,40 4,40 4,4 0,0 "
         style="fill:#ff0000"
         id="polygon1200"
         transform="translate(-21.863853,-1.2500001)" />
    </g>
    <circle
       style="fill:#008000;fill-rule:evenodd;stroke-width:0.264583"
       id="circle1153"
       cx="17.147589"
       cy="12.365811"
       r="0.79374999">
      <title
         id="title1151">2 Cross Connector, 2C</title>
    </circle>
    <circle
       style="fill:#008000;fill-rule:evenodd;stroke-width:0.264583"
       id="circle1149"
       cx="23.856667"
       cy="12.365811"
       r="0.79374999">
      <title
         id="title1147">2 Cross Connector, 2C</title>
    </circle>
    <circle
       style="fill:#008000;fill-rule:evenodd;stroke-width:0.264583"
       id="circle1210"
       cx="27.116711"
       cy="12.318565"
       r="0.79374999">
      <title
         id="title1208">2 Cross Connector, 2C</title>
    </circle>
    <g
       id="g1008"
       transform="matrix(0,-0.26458333,0.26458333,0,13.982039,9.2797312)">
      <title
         id="title1004">Right Horizontal Mark, RH</title>
      <polygon
         points="8,4 8,62 4,62 4,4 0,0 12,0 "
         style="fill:#ff0000"
         id="polygon1006" />
    </g>
    <circle
       style="fill:#008000;fill-rule:evenodd;stroke-width:0.264583"
       id="circle1066"
       cx="17.10034"
       cy="7.7355847"
       r="0.79374999">
      <title
         id="title1064">2 Cross Connector, 2C</title>
    </circle>
    <circle
       style="fill:#008000;fill-rule:evenodd;stroke-width:0.264583"
       id="circle1145"
       cx="23.95116"
       cy="7.6411095"
       r="0.79374999">
      <title
         id="title1143">2 Cross Connector, 2C</title>
    </circle>
    <circle
       style="fill:#008000;fill-rule:evenodd;stroke-width:0.264583"
       id="circle1206"
       cx="27.069464"
       cy="7.5466156"
       r="0.79374999">
      <title
         id="title1204">2 Cross Connector, 2C</title>
    </circle>
    <polygon
       points="0,6 6,0 6,12 "
       style="fill:#ff0000"
       id="polygon1022"
       transform="matrix(0.26458333,0,0,0.26458333,11.443229,9.6100439)">
      <title
         id="title1044">Heel Mark, HE</title>
    </polygon>
    <polygon
       points="6,0 6,12 0,6 "
       style="fill:#ff0000"
       id="polygon1036"
       transform="matrix(0.26458333,0,0,0.26458333,11.395983,4.9325885)">
      <title
         id="title1042">Heel Mark, HE</title>
    </polygon>
    <polygon
       points="6,12 0,6 6,0 "
       style="fill:#ff0000"
       id="polygon1038"
       transform="matrix(0.26458333,0,0,0.26458333,23.921037,2.151006)">
      <title
         id="title1040">Heel Mark, HE</title>
    </polygon>
  </g>
</svg>
