<?xml version="1.0" encoding="UTF-8" standalone="no"?>
<svg
   xmlns:dc="http://purl.org/dc/elements/1.1/"
   xmlns:cc="http://creativecommons.org/ns#"
   xmlns:rdf="http://www.w3.org/1999/02/22-rdf-syntax-ns#"
   xmlns:svg="http://www.w3.org/2000/svg"
   xmlns="http://www.w3.org/2000/svg"
   width="160"
   height="80"
   viewBox="0 0 42.333332 21.166667"
   version="1.1"
   id="svg8">
  <defs
     id="defs2" />
  <metadata
     id="metadata5">
    <rdf:RDF>
      <cc:Work
         rdf:about="">
        <dc:format>image/svg+xml</dc:format>
        <dc:type
           rdf:resource="http://purl.org/dc/dcmitype/StillImage" />
        <dc:title></dc:title>
      </cc:Work>
    </rdf:RDF>
  </metadata>
  <g
     id="layer1">
    <g
       id="g1165"
       transform="matrix(0.26458333,0,0,0.26458333,10.573544,5.0734041)">
      <title
         id="title1161">Down Vertical Mark, DV</title>
      <polygon
         points="8,40 4,40 4,4 0,0 12,0 8,4 "
         style="fill:#ff0000"
         id="polygon1163" />
    </g>
    <g
       id="g1230"
       transform="matrix(0.18708867,-0.18708867,0.18708867,0.18708867,-2.6233598,13.164042)">
      <title
         id="title1226">Right Down Diagonal Mark, RDD</title>
      <polygon
         points="12,0 8,4 8,20 4,20 4,4 0,0 "
         style="fill:#ff0000"
         id="polygon1228"
         transform="rotate(-15,109.97652,-71.749461)" />
    </g>
    <g
       id="g1275"
       transform="matrix(0.26458333,0,0,0.26458333,13.748545,5.0734041)">
      <title
         id="title1271">Down Vertical Mark, DV</title>
      <polygon
         points="0,0 12,0 8,4 8,40 4,40 4,4 "
         style="fill:#ff0000"
         id="polygon1273" />
    </g>
    <g
       id="g1281"
       transform="matrix(0,-0.26458333,0.26458333,0,17.479206,13.804654)">
      <title
         id="title1277">Right Horizontal Mark, RH</title>
      <polygon
         points="8,40 4,40 4,4 0,0 12,0 8,4 "
         style="fill:#ff0000"
         id="polygon1279" />
    </g>
    <g
       id="g1287"
       transform="matrix(0.18708867,-0.18708867,0.18708867,0.18708867,-1.2115431,10.537259)">
      <title
         id="title1283">Right Down Diagonal Mark, RDD</title>
      <polygon
         points="8,4 8,15 4,15 4,4 0,0 12,0 "
         style="fill:#ff0000"
         id="polygon1285"
         transform="rotate(-15,109.97652,-71.749461)" />
    </g>
    <polygon
       points="6,0 6,12 0,6 "
       style="fill:#ff0000"
       id="polygon1301"
       transform="matrix(0.26458333,0,0,0.26458333,14.088723,3.0871768)">
      <title
         id="title1315">Heel Mark, HE</title>
    </polygon>
    <circle
       style="fill:#008000;fill-rule:evenodd;stroke-width:0.264583"
       id="circle1319"
       cx="11.932257"
       cy="15.017882"
       r="0.79374999">
      <title
         id="title1317">Other 2 Touch Connector, O2T</title>
    </circle>
    <circle
       style="fill:#008000;fill-rule:evenodd;stroke-width:0.264583"
       id="circle1323"
       cx="12.000405"
       cy="11.568849"
       r="0.79374999">
      <title
         id="title1321">Other 2 Touch Connector, O2T</title>
    </circle>
    <g
       id="g1333"
       transform="matrix(0.26458333,0,0,0.26458333,23.935039,5.0734041)">
      <title
         id="title1329">Down Vertical Mark, DV</title>
      <polygon
         points="8,4 8,40 4,40 4,4 0,0 12,0 "
         style="fill:#ff0000"
         id="polygon1331" />
    </g>
    <g
       id="g1339"
       transform="matrix(0.26458333,0,0,0.26458333,28.958417,5.0261571)">
      <title
         id="title1335">Down Vertical Mark, DV</title>
      <polygon
         points="0,0 12,0 8,4 8,40 4,40 4,4 "
         style="fill:#ff0000"
         id="polygon1337" />
    </g>
    <g
       id="g1359"
       transform="matrix(0.26458333,0,0,0.26458333,16.923544,5.0734041)">
      <title
         id="title1355">Down Vertical Mark, DV</title>
      <polygon
         points="8,25 4,25 4,4 0,0 12,0 8,4 "
         style="fill:#ff0000"
         id="polygon1357" />
    </g>
    <g
       id="g1376"
       transform="matrix(0.19586804,-0.18708867,0.19586804,0.18708867,17.421761,10.673255)">
      <title
         id="title1372">Right Down Diagonal Mark, RDD</title>
      <polygon
         points="12,0 8,4 8,20 4,20 4,4 0,0 "
         style="fill:#ff0000"
         id="polygon1374"
         transform="rotate(-15,109.97652,-71.749461)" />
    </g>
    <g
       id="g1382"
       transform="matrix(0.18708867,-0.18708867,0.18708867,0.18708867,11.908085,10.542815)">
      <title
         id="title1378">Right Down Diagonal Mark, RDD</title>
      <polygon
         points="12,0 8,4 8,26 4,26 4,4 0,0 "
         style="fill:#ff0000"
         id="polygon1380"
         transform="rotate(-15,111.14366,-70.228414)" />
    </g>
    <circle
       style="fill:#008000;fill-rule:evenodd;stroke-width:0.264583"
       id="circle1327"
       cx="30.689323"
       cy="11.56885"
       r="0.79374999">
      <title
         id="title1325">2 Cross Connector, 2C</title>
    </circle>
    <circle
       style="fill:#008000;fill-rule:evenodd;stroke-width:0.264583"
       id="circle1390"
       cx="25.397657"
       cy="12.183062"
       r="0.79374999">
      <title
         id="title1388">3 Touch Connector, 3T</title>
    </circle>
    <circle
       style="fill:#008000;fill-rule:evenodd;stroke-width:0.264583"
       id="circle1014"
       cx="18.357851"
       cy="12.18306"
       r="0.79374999">
      <title
         id="title1012">Southwest Corner Connector, SWC</title>
    </circle>
  </g>
</svg>
