<?xml version="1.0" encoding="UTF-8" standalone="no"?>
<svg
   xmlns:dc="http://purl.org/dc/elements/1.1/"
   xmlns:cc="http://creativecommons.org/ns#"
   xmlns:rdf="http://www.w3.org/1999/02/22-rdf-syntax-ns#"
   xmlns:svg="http://www.w3.org/2000/svg"
   xmlns="http://www.w3.org/2000/svg"
   width="160"
   height="80"
   viewBox="0 0 42.333332 21.166667"
   version="1.1"
   id="svg8">
  <defs
     id="defs2" />
  <metadata
     id="metadata5">
    <rdf:RDF>
      <cc:Work
         rdf:about="">
        <dc:format>image/svg+xml</dc:format>
        <dc:type
           rdf:resource="http://purl.org/dc/dcmitype/StillImage" />
        <dc:title></dc:title>
      </cc:Work>
    </rdf:RDF>
  </metadata>
  <g
     id="layer1">
    <g
       id="g34"
       transform="matrix(0.26458333,0,0,0.26458333,26.018936,4.4790182)">
      <title
         id="title30">Down Vertical Mark, DV</title>
      <polygon
         points="8,4 8,40 4,40 4,4 0,0 12,0 "
         style="fill:#ff0000"
         id="polygon32" />
    </g>
    <g
       id="g51"
       transform="matrix(0,-0.26458333,0.26458333,0,16.493936,7.6540182)">
      <title
         id="title47">Right Horizontal Mark, RH</title>
      <polygon
         points="4,40 4,4 0,0 12,0 8,4 8,40 "
         style="fill:#ff0000"
         id="polygon49" />
    </g>
    <g
       id="g57"
       transform="matrix(0,-0.26458333,0.26458333,0,16.493936,16.120685)">
      <title
         id="title53">Right Horizontal Mark, RH</title>
      <polygon
         points="4,4 0,0 12,0 8,4 8,40 4,40 "
         style="fill:#ff0000"
         id="polygon55" />
    </g>
    <polygon
       points="4,4 0,0 12,0 8,4 8,35 4,35 "
       style="fill:#ff0000"
       id="polygon61"
       transform="matrix(0,-0.26458333,0.26458333,0,18.053088,13.533551)">
      <title
         id="title83">Right Horizontal Mark, RH</title>
    </polygon>
    <polygon
       points="0,0 12,0 8,4 8,35 4,35 4,4 "
       style="fill:#ff0000"
       id="polygon77"
       transform="matrix(0,-0.26458333,0.26458333,0,18.053088,10.358551)">
      <title
         id="title81">Right Horizontal Mark, RH</title>
    </polygon>
    <g
       id="g75"
       transform="matrix(0,-0.26458333,0.26458333,0,12.763235,9.1357978)">
      <title
         id="title71">Right Horizontal Mark, RH</title>
      <polygon
         points="8,4 8,20 4,20 4,4 0,0 12,0 "
         style="fill:#ff0000"
         id="polygon73" />
    </g>
    <g
       id="g103"
       transform="matrix(0.26458333,0,0,0.26458333,17.363281,6.7090773)">
      <title
         id="title99">Horizontal 2 Touch Connector, H2T</title>
      <circle
         cx="3"
         cy="3"
         r="3"
         style="fill:#008000"
         id="circle101" />
    </g>
    <g
       id="g120"
       transform="matrix(0.26458333,0,0,0.26458333,26.765439,13.701637)">
      <title
         id="title116">Southeast Corner Connector, SEC</title>
      <circle
         cx="3"
         cy="3"
         r="3"
         style="fill:#008000"
         id="circle118" />
    </g>
    <g
       id="g126"
       transform="matrix(0.26458333,0,0,0.26458333,26.765439,11.103051)">
      <title
         id="title122">Right 2 Touch Connector, R2T</title>
      <circle
         cx="3"
         cy="3"
         r="3"
         style="fill:#008000"
         id="circle124" />
    </g>
    <g
       id="g132"
       transform="matrix(0.26458333,0,0,0.26458333,26.812686,8.0319934)">
      <title
         id="title128">Right 2 Touch Connector, R2T</title>
      <circle
         cx="3"
         cy="3"
         r="3"
         style="fill:#008000"
         id="circle130" />
    </g>
    <g
       id="g138"
       transform="matrix(0.26458333,0,0,0.26458333,26.670945,5.3389135)">
      <title
         id="title134">Northeast Corner Connector, NEC</title>
      <circle
         cx="3"
         cy="3"
         r="3"
         style="fill:#008000"
         id="circle136" />
    </g>
    <g
       id="g2110"
       transform="matrix(0,-0.26458333,0.26458333,0,12.763235,14.639131)">
      <title
         id="title2106">Right Horizontal Mark, RH</title>
      <polygon
         points="12,0 8,4 8,20 4,20 4,4 0,0 "
         style="fill:#ff0000"
         id="polygon2108" />
    </g>
    <g
       id="g2116"
       transform="matrix(0.26458333,0,0,0.26458333,17.22154,12.000744)">
      <title
         id="title2112">Horizontal 2 Touch Connector, H2T</title>
      <circle
         cx="3"
         cy="3"
         r="3"
         style="fill:#008000"
         id="circle2114" />
    </g>
    <g
       id="g2122"
       transform="matrix(0.26458333,0,0,0.26458333,29.193936,4.4790182)">
      <title
         id="title2118">Down Vertical Mark, DV</title>
      <polygon
         points="8,40 4,40 4,4 0,0 12,0 8,4 "
         style="fill:#ff0000"
         id="polygon2120" />
    </g>
  </g>
</svg>
