<?xml version="1.0" encoding="UTF-8" standalone="no"?>
<svg
   xmlns:dc="http://purl.org/dc/elements/1.1/"
   xmlns:cc="http://creativecommons.org/ns#"
   xmlns:rdf="http://www.w3.org/1999/02/22-rdf-syntax-ns#"
   xmlns:svg="http://www.w3.org/2000/svg"
   xmlns="http://www.w3.org/2000/svg"
   width="160"
   height="80"
   viewBox="0 0 42.333332 21.166667"
   version="1.1"
   id="svg8">
  <defs
     id="defs2" />
  <metadata
     id="metadata5">
    <rdf:RDF>
      <cc:Work
         rdf:about="">
        <dc:format>image/svg+xml</dc:format>
        <dc:type
           rdf:resource="http://purl.org/dc/dcmitype/StillImage" />
        <dc:title></dc:title>
      </cc:Work>
    </rdf:RDF>
  </metadata>
  <g
     id="layer1">
    <polygon
       points="0,6 6,0 6,12 "
       style="fill:#ff0000"
       id="polygon965"
       transform="matrix(0.26458333,0,0,0.26458333,17.093916,9.3728645)">
      <title
         id="title987">Heel Mark, HE</title>
    </polygon>
    <g
       id="g1061"
       transform="matrix(0,-0.26458333,0.26458333,0,13.295255,15.800387)">
      <title
         id="title1057">Right Horizontal Mark, RH</title>
      <polygon
         points="8,30 4,30 4,4 0,0 12,0 8,4 "
         style="fill:#ff0000"
         id="polygon1059" />
    </g>
    <g
       id="g1125"
       transform="matrix(0.26458333,0,0,0.26458333,20.015672,6.539876)">
      <title
         id="title1121">Down Vertical Mark, DV</title>
      <polygon
         points="8,4 8,40 4,40 4,4 0,0 12,0 "
         style="fill:#ff0000"
         id="polygon1123" />
    </g>
    <g
       id="g1135"
       transform="matrix(0,-0.26458333,0.26458333,0,23.355091,15.923136)">
      <title
         id="title1131">Right Horizontal Mark, RH</title>
      <polygon
         points="8,25 4,25 4,4 0,0 12,0 8,4 "
         style="fill:#ff0000"
         id="polygon1133" />
    </g>
    <g
       id="g1141"
       transform="matrix(0,-0.26458333,0.26458333,0,23.402338,9.7677926)">
      <title
         id="title1137">Right Horizontal Mark, RH</title>
      <polygon
         points="4,4 0,0 12,0 8,4 8,25 4,25 "
         style="fill:#ff0000"
         id="polygon1139" />
    </g>
    <g
       id="g1147"
       transform="matrix(0.26458333,0,0,0.26458333,28.81307,6.5003027)">
      <title
         id="title1143">Down Vertical Mark, DV</title>
      <polygon
         points="0,0 12,0 8,4 8,40 4,40 4,4 "
         style="fill:#ff0000"
         id="polygon1145" />
    </g>
    <circle
       style="fill:#008000;fill-rule:evenodd;stroke-width:0.264583"
       id="path839"
       cx="30.404346"
       cy="14.248813"
       r="0.79374999">
      <title
         id="title1105">Right 2 Touch Connector, R2T</title>
    </circle>
    <circle
       style="fill:#008000;fill-rule:evenodd;stroke-width:0.264583"
       id="circle1103"
       cx="30.387344"
       cy="8.1519823"
       r="0.79374999">
      <title
         id="title1113">Northeast Corner Connector, NEC</title>
    </circle>
    <circle
       style="fill:#008000;fill-rule:evenodd;stroke-width:0.264583"
       id="circle1097"
       cx="21.489666"
       cy="14.167644"
       r="0.79374999">
      <title
         id="title1107">Right 2 Touch Connector, R2T</title>
    </circle>
    <g
       id="g968"
       transform="matrix(0,-0.26458333,0.26458333,0,13.321771,9.5297624)">
      <title
         id="title964">Right Horizontal Mark, RH</title>
      <polygon
         points="4,30 4,4 0,0 12,0 8,4 8,30 "
         style="fill:#ff0000"
         id="polygon966" />
    </g>
    <circle
       style="fill:#008000;fill-rule:evenodd;stroke-width:0.264583"
       id="circle972"
       cx="21.552151"
       cy="8.0574884"
       r="0.79374999">
      <title
         id="title970">Northeast Corner Connector, NEC</title>
    </circle>
  </g>
</svg>
