<?xml version="1.0" encoding="UTF-8" standalone="no"?>
<svg
   xmlns:dc="http://purl.org/dc/elements/1.1/"
   xmlns:cc="http://creativecommons.org/ns#"
   xmlns:rdf="http://www.w3.org/1999/02/22-rdf-syntax-ns#"
   xmlns:svg="http://www.w3.org/2000/svg"
   xmlns="http://www.w3.org/2000/svg"
   width="160"
   height="80"
   viewBox="0 0 42.333332 21.166667"
   version="1.1"
   id="svg8">
  <defs
     id="defs2" />
  <metadata
     id="metadata5">
    <rdf:RDF>
      <cc:Work
         rdf:about="">
        <dc:format>image/svg+xml</dc:format>
        <dc:type
           rdf:resource="http://purl.org/dc/dcmitype/StillImage" />
        <dc:title></dc:title>
      </cc:Work>
    </rdf:RDF>
  </metadata>
  <g
     id="layer1">
    <g
       id="g880"
       transform="matrix(0.26458333,0,0,0.26458333,6.8224688,5.0554301)">
      <title
         id="title876">Down Vertical Mark, DV</title>
      <polygon
         points="0,0 12,0 8,4 8,40 4,40 4,4 "
         style="fill:#ff0000"
         id="polygon878" />
    </g>
    <g
       id="g886"
       transform="matrix(0,-0.26458333,0.26458333,0,22.962053,12.312573)">
      <title
         id="title882">Right Horizontal Mark, RH</title>
      <polygon
         points="4,4 0,0 12,0 8,4 8,40 4,40 "
         style="fill:#ff0000"
         id="polygon884" />
    </g>
    <g
       id="g892"
       transform="matrix(0.26458333,0,0,0.26458333,14.363096,4.9042412)">
      <title
         id="title888">Down Vertical Mark, DV</title>
      <polygon
         points="4,4 0,0 12,0 8,4 8,40 4,40 "
         style="fill:#ff0000"
         id="polygon890" />
    </g>
    <g
       id="g898"
       transform="matrix(0.26458333,0,0,0.26458333,17.538096,4.9042412)">
      <title
         id="title894">Down Vertical Mark, DV</title>
      <polygon
         points="8,4 8,40 4,40 4,4 0,0 12,0 "
         style="fill:#ff0000"
         id="polygon896" />
    </g>
    <g
       id="g904"
       transform="matrix(0.26458333,0,0,0.26458333,32.354762,4.9042412)">
      <title
         id="title900">Down Vertical Mark, DV</title>
      <polygon
         points="8,4 8,40 4,40 4,4 0,0 12,0 "
         style="fill:#ff0000"
         id="polygon902" />
    </g>
    <g
       id="g924"
       transform="matrix(0,-0.26458333,0.26458333,0,15.421429,17.604241)">
      <title
         id="title920">Right Horizontal Mark, RH</title>
      <polygon
         points="0,0 12,0 8,4 8,72 4,72 4,4 "
         style="fill:#ff0000"
         id="polygon922" />
    </g>
    <g
       id="g955"
       transform="matrix(0,-0.26458333,0.26458333,0,9.5911459,12.123586)">
      <title
         id="title951">Right Horizontal Mark, RH</title>
      <polygon
         points="8,25 4,25 4,4 0,0 12,0 8,4 "
         style="fill:#ff0000"
         id="polygon953" />
    </g>
    <polygon
       points="6,12 0,6 6,0 "
       style="fill:#ff0000"
       id="polygon980"
       transform="matrix(0.26458333,0,0,0.26458333,5.4901037,8.9164583)">
      <title
         id="title994">Heel Mark, HE</title>
    </polygon>
    <circle
       style="fill:#008000;fill-rule:evenodd;stroke-width:0.264583"
       id="path839"
       cx="33.592636"
       cy="10.725073"
       r="0.79374999">
      <title
         id="title1022">Right 2 Touch Connector, R2T</title>
    </circle>
    <circle
       style="fill:#008000;fill-rule:evenodd;stroke-width:0.264583"
       id="circle1012"
       cx="33.828869"
       cy="15.922245"
       r="0.79374999">
      <title
         id="title1024">Southeast Corner Connector, SEC</title>
    </circle>
    <circle
       style="fill:#008000;fill-rule:evenodd;stroke-width:0.264583"
       id="circle1014"
       cx="19.229538"
       cy="15.922245"
       r="0.79374999">
      <title
         id="title1028">Bottom 2 Touch Connector, B2T</title>
    </circle>
    <circle
       style="fill:#008000;fill-rule:evenodd;stroke-width:0.264583"
       id="circle1016"
       cx="16.111235"
       cy="16.016739"
       r="0.79374999">
      <title
         id="title1026">Southwest Corner Connector, SWC</title>
    </circle>
    <circle
       style="fill:#008000;fill-rule:evenodd;stroke-width:0.264583"
       id="circle1018"
       cx="15.874999"
       cy="10.488836"
       r="0.79374999">
      <title
         id="title1020">Right 2 Touch Connector, R2T</title>
    </circle>
  </g>
</svg>
