<svg  xmlns="http://www.w3.org/2000/svg" xmlns:xlink="http://www.w3.org/1999/xlink" >
<g>
   <g>
       <title> DV: A down vertical mark </title>
       <polygon points="0,16, 24, 16, 14, 26, 14, 96, 10, 96, 10, 26" style= "fill:red" />
   </g>

   <g>
       <title> DV: A down vertical mark </title>
       <polygon points="88,16,112,16,102,26,102,96,98,96,98,26" style= "fill:red" />
   </g>

   <g>
       <title> RH: A right horizontal mark </title>
       <polygon points="16,0,26,10,96,10,96,14,26,14,16,24" style= "fill:red" />
   </g>

   <g>
       <title> RH: A right horizontal mark </title>
       <polygon points="16,112, 16, 88, 25,98, 96, 98,96, 102, 25, 102" style= "fill:red" />
   </g>

   <g>
       <title> RHBB: A right horizontal barbell mark </title>
       <polygon points="24,42, 34, 52, 86, 52, 86, 56, 34, 56, 24, 66" style= "fill:red" />
       <polygon points="74, 54, 86, 42, 86, 66" style= "fill:red" />
   </g>

   <g>
       <title>NWC: A northwest corner connector </title>
       <circle cx="12" cy="12" r="4" style="fill:green" />
   </g>

   <g>
       <title>NEC: A northeast corner connector </title>
       <circle cx="100" cy="12" r="4" style="fill:green" />
   </g>

   <g>
       <title>SEC: A southeast corner connector </title>
       <circle cx="100" cy="100" r="4" style="fill:green" />
   </g>

   <g>
       <title>SWC: A southwest corner connector </title>
       <circle cx="12" cy="100" r="4" style="fill:green" />
   </g>
</g>

</svg>