<?xml version="1.0" encoding="UTF-8" standalone="no"?>
<svg
   xmlns:dc="http://purl.org/dc/elements/1.1/"
   xmlns:cc="http://creativecommons.org/ns#"
   xmlns:rdf="http://www.w3.org/1999/02/22-rdf-syntax-ns#"
   xmlns:svg="http://www.w3.org/2000/svg"
   xmlns="http://www.w3.org/2000/svg"
   width="11.309856"
   height="15"
   viewBox="0 0 2.9923994 3.9687501"
   version="1.1"
   id="svg8">
  <defs
     id="defs2" />
  <metadata
     id="metadata5">
    <rdf:RDF>
      <cc:Work
         rdf:about="">
        <dc:format>image/svg+xml</dc:format>
        <dc:type
           rdf:resource="http://purl.org/dc/dcmitype/StillImage" />
        <dc:title></dc:title>
      </cc:Work>
    </rdf:RDF>
  </metadata>
  <g
     id="layer1"
     transform="translate(-17.024634,-9.9218754)">
    <polygon
       points="8,18 12,18 8,22 8,40 4,40 4,22 0,18 4,18 4,4 0,0 12,0 8,4 "
       style="fill:#ff0000"
       id="polygon120"
       transform="matrix(0.08736933,0,0,0.08736933,17.024634,9.9218754)">
      <title
         id="title195">Down Vertical Head-to-Tail Mark, DVHT</title>
    </polygon>
    <polygon
       points="12,18 8,22 8,40 4,40 4,22 0,18 4,18 4,4 0,0 12,0 8,4 8,18 "
       style="fill:#ff0000"
       id="polygon134"
       transform="matrix(0.08736933,0,0,0.08736933,18.428784,9.9218754)">
      <title
         id="title197">Down Vertical Head-to-Tail Mark, DVHT</title>
    </polygon>
    <g
       id="g154"
       transform="matrix(0.04368467,-0.07566406,0.07566406,0.04368467,17.367217,13.101165)">
      <title
         id="title150"> Right Down Diagonal Mark, RDD </title>
      <polygon
         points="0,0 12,0 8,4 8,25 4,25 4,4 "
         style="fill:#ff0000"
         id="polygon152" />
    </g>
    <polygon
       points="6,0 6,12 0,6 "
       style="fill:#ff0000"
       id="polygon179"
       transform="matrix(0.08736933,0,0,0.08736933,19.492817,11.360349)">
      <title
         id="title193">Heel Mark, HE</title>
    </polygon>
    <circle
       style="fill:#008000;fill-rule:evenodd;stroke-width:0.0873692"
       id="path839"
       cx="18.910875"
       cy="13.294799"
       r="0.262108">
      <title
         id="title1027">Other 2 Touch Connector, O2T</title>
    </circle>
    <circle
       style="fill:#008000;fill-rule:evenodd;stroke-width:0.0873692"
       id="circle1031"
       cx="17.678343"
       cy="12.65513"
       r="0.262108">
      <title
         id="title1029">Other 2 Touch Connector, O2T</title>
    </circle>
  </g>
</svg>
