<?xml version="1.0" encoding="UTF-8" standalone="no"?>
<svg
   xmlns:dc="http://purl.org/dc/elements/1.1/"
   xmlns:cc="http://creativecommons.org/ns#"
   xmlns:rdf="http://www.w3.org/1999/02/22-rdf-syntax-ns#"
   xmlns:svg="http://www.w3.org/2000/svg"
   xmlns="http://www.w3.org/2000/svg"
   width="20.905092"
   height="15"
   viewBox="0 0 5.5311388 3.9687501"
   version="1.1"
   id="svg8">
  <defs
     id="defs2" />
  <metadata
     id="metadata5">
    <rdf:RDF>
      <cc:Work
         rdf:about="">
        <dc:format>image/svg+xml</dc:format>
        <dc:type
           rdf:resource="http://purl.org/dc/dcmitype/StillImage" />
        <dc:title></dc:title>
      </cc:Work>
    </rdf:RDF>
  </metadata>
  <g
     id="layer1"
     transform="translate(-18.542838,-7.7957589)">
    <g
       id="g952"
       transform="matrix(0,-0.10734598,0.10734598,0,18.542838,11.60349)">
      <title
         id="title948">Right Horizontal Mark, RH</title>
      <polygon
         points="8,4 8,40 4,40 4,4 0,0 12,0 "
         style="fill:#ff0000"
         id="polygon950" />
    </g>
    <g
       id="g930"
       transform="matrix(0.10734598,0,0,0.10734598,23.519091,11.947457)">
      <title
         id="title926">Right Down Diagonal, RDD</title>
      <polygon
         points="4,4 0,0 12,0 8,4 8,15 4,15 "
         style="fill:#ff0000"
         id="polygon928"
         transform="rotate(-60,-10.881767,7.3674096)" />
    </g>
    <g
       id="g947"
       transform="matrix(0.10734598,0,0,0.10734598,20.394556,9.9500303)">
      <title
         id="title943">Right Down Diagonal, RDD</title>
      <polygon
         points="0,0 12,0 8,4 8,15 4,15 4,4 "
         style="fill:#ff0000"
         id="polygon945"
         transform="rotate(-60,-10.881767,7.3674096)" />
    </g>
    <circle
       style="fill:#008000;fill-rule:evenodd;stroke-width:0.107346"
       id="path839"
       cx="22.552977"
       cy="10.893166"
       r="0.32203797">
      <title
         id="title977">Other 2 Touch Connector, O2T</title>
    </circle>
    <polygon
       points="6,12 0,6 6,0 "
       style="fill:#ff0000"
       id="polygon1009"
       transform="matrix(0.10734598,0,0,0.10734598,23.009217,9.4159318)">
      <title
         id="title1007">Heel Mark, HE</title>
    </polygon>
    <polygon
       points="0,6 6,0 6,12 "
       style="fill:#ff0000"
       id="polygon1013"
       transform="matrix(0.10734598,0,0,0.10734598,19.068066,9.3162074)">
      <title
         id="title1011">Heel Mark, HE</title>
    </polygon>
    <polygon
       points="0,6 6,0 6,12 "
       style="fill:#ff0000"
       id="polygon1017"
       transform="matrix(0.10734598,0,0,0.10734598,20.026252,7.7957589)">
      <title
         id="title1015">Heel Mark, HE</title>
    </polygon>
  </g>
</svg>
