<?xml version="1.0" encoding="UTF-8" standalone="no"?>
<svg
   xmlns:dc="http://purl.org/dc/elements/1.1/"
   xmlns:cc="http://creativecommons.org/ns#"
   xmlns:rdf="http://www.w3.org/1999/02/22-rdf-syntax-ns#"
   xmlns:svg="http://www.w3.org/2000/svg"
   xmlns="http://www.w3.org/2000/svg"
   width="29.871609"
   height="15"
   viewBox="0 0 7.9035296 3.9687501"
   version="1.1"
   id="svg8">
  <defs
     id="defs2" />
  <metadata
     id="metadata5">
    <rdf:RDF>
      <cc:Work
         rdf:about="">
        <dc:format>image/svg+xml</dc:format>
        <dc:type
           rdf:resource="http://purl.org/dc/dcmitype/StillImage" />
        <dc:title></dc:title>
      </cc:Work>
    </rdf:RDF>
  </metadata>
  <g
     id="layer1"
     transform="translate(-16.45895,-8.3627231)">
    <polygon
       points="0,6 6,0 6,12 "
       style="fill:#ff0000"
       id="polygon1260"
       transform="matrix(0.09904153,0,0,0.09904153,16.45895,9.0765156)">
      <title
         id="title1315">Heel Mark, HE</title>
    </polygon>
    <polygon
       points="6,0 6,12 0,6 "
       style="fill:#ff0000"
       id="polygon1274"
       transform="matrix(0.09904153,0,0,0.09904153,16.45895,10.265014)">
      <title
         id="title1317">Heel Mark, HE</title>
    </polygon>
    <polygon
       points="0,6 6,0 6,12 "
       style="fill:#ff0000"
       id="polygon1276"
       transform="matrix(0.09904153,0,0,0.09904153,17.077959,9.0843397)">
      <title
         id="title1313">Heel Mark, HE</title>
    </polygon>
    <polygon
       points="6,0 6,12 0,6 "
       style="fill:#ff0000"
       id="polygon1278"
       transform="matrix(0.09904153,0,0,0.09904153,17.077959,10.272838)">
      <title
         id="title1311">Heel Mark, HE</title>
    </polygon>
    <g
       id="g1431"
       transform="matrix(0.09904153,0,0,0.09904153,19.39058,9.8554347)">
      <title
         id="title1427">Down Vertical Mark, DV</title>
      <polygon
         points="0,0 12,0 8,4 8,25 4,25 4,4 "
         style="fill:#ff0000"
         id="polygon1429" />
    </g>
    <g
       id="g1477"
       transform="matrix(0,-0.09904153,0.09904153,0,17.850498,9.8999467)">
      <title
         id="title1473">Right Horizontal Mark, RH</title>
      <polygon
         points="8,4 8,40 4,40 4,4 0,0 12,0 "
         style="fill:#ff0000"
         id="polygon1475" />
    </g>
    <g
       id="g1494"
       transform="matrix(0,-0.09904153,0.09904153,0,17.859709,11.845419)">
      <title
         id="title1490">Right Horizontal Mark, RH</title>
      <polygon
         points="4,4 0,0 12,0 8,4 8,40 4,40 "
         style="fill:#ff0000"
         id="polygon1492" />
    </g>
    <circle
       style="fill:#008000;fill-rule:evenodd;stroke-width:0.0990414"
       id="circle1502"
       cx="19.974924"
       cy="11.28019"
       r="0.29712459">
      <title
         id="title1500">2  Cross Connector, 2C</title>
    </circle>
    <g
       id="g1514"
       transform="matrix(0.09904153,0,0,0.09904153,21.341712,8.3627231)">
      <title
         id="title1510">Down Vertical Mark, DV</title>
      <polygon
         points="4,4 0,0 12,0 8,4 8,40 4,40 "
         style="fill:#ff0000"
         id="polygon1512" />
    </g>
    <circle
       style="fill:#008000;fill-rule:evenodd;stroke-width:0.0990414"
       id="circle1498"
       cx="21.951511"
       cy="11.28019"
       r="0.29712459">
      <title
         id="title1496">Right 2 Touch Connector, R2T</title>
    </circle>
    <circle
       style="fill:#008000;fill-rule:evenodd;stroke-width:0.0990414"
       id="circle1506"
       cx="21.93807"
       cy="9.2816734"
       r="0.29712459">
      <title
         id="title1504">Right 2 Touch Connector, R2T</title>
    </circle>
    <g
       id="g1520"
       transform="matrix(0.09904153,0,0,0.09904153,23.173981,8.3627231)">
      <title
         id="title1516">Down Vertical Mark, DV</title>
      <polygon
         points="4,40 4,4 0,0 12,0 8,4 8,40 "
         style="fill:#ff0000"
         id="polygon1518" />
    </g>
    <polygon
       points="6,12 0,6 6,0 "
       style="fill:#ff0000"
       id="polygon1524"
       transform="matrix(0.09904153,0,0,0.09904153,22.436814,9.1295736)">
      <title
         id="title1522">Heel Mark, HE</title>
    </polygon>
    <polygon
       points="6,12 0,6 6,0 "
       style="fill:#ff0000"
       id="polygon1528"
       transform="matrix(0.09904153,0,0,0.09904153,22.436814,10.318072)">
      <title
         id="title1526">Heel Mark, HE</title>
    </polygon>
  </g>
</svg>
