<?xml version="1.0" encoding="UTF-8" standalone="no"?>
<svg
   xmlns:dc="http://purl.org/dc/elements/1.1/"
   xmlns:cc="http://creativecommons.org/ns#"
   xmlns:rdf="http://www.w3.org/1999/02/22-rdf-syntax-ns#"
   xmlns:svg="http://www.w3.org/2000/svg"
   xmlns="http://www.w3.org/2000/svg"
   width="27.8125"
   height="15"
   viewBox="0 0 7.3587237 3.9687501"
   version="1.1"
   id="svg8">
  <defs
     id="defs2" />
  <metadata
     id="metadata5">
    <rdf:RDF>
      <cc:Work
         rdf:about="">
        <dc:format>image/svg+xml</dc:format>
        <dc:type
           rdf:resource="http://purl.org/dc/dcmitype/StillImage" />
        <dc:title></dc:title>
      </cc:Work>
    </rdf:RDF>
  </metadata>
  <g
     id="layer1"
     transform="translate(-18.290504,-8.8351934)">
    <g
       id="g34"
       transform="matrix(0,-0.08268229,0.08268229,0,18.290504,12.803943)">
      <title
         id="title30">Right Horizontal Mark, RH</title>
      <polygon
         points="8,85 4,85 4,4 0,0 12,0 8,4 "
         style="fill:#ff0000"
         id="polygon32" />
    </g>
    <g
       id="g65"
       transform="matrix(0,-0.08268229,0.08268229,0,21.680478,11.315662)">
      <title
         id="title61">Right Horizontal Mark, RH</title>
      <polygon
         points="8,40 4,40 4,4 0,0 12,0 8,4 "
         style="fill:#ff0000"
         id="polygon63" />
    </g>
    <g
       id="g82"
       transform="matrix(0.08268229,0,0,0.08268229,18.290504,8.8351934)">
      <title
         id="title78">Down Vertical Mark, DV</title>
      <polygon
         points="8,4 8,40 4,40 4,4 0,0 12,0 "
         style="fill:#ff0000"
         id="polygon80" />
    </g>
    <g
       id="g88"
       transform="matrix(0,-0.08268229,0.08268229,0,21.680478,9.8273809)">
      <title
         id="title84">Right Horizontal Mark, RH</title>
      <polygon
         points="4,40 4,4 0,0 12,0 8,4 8,40 "
         style="fill:#ff0000"
         id="polygon86" />
    </g>
    <g
       id="g94"
       transform="matrix(0.08268229,0,0,0.08268229,19.72268,8.8824403)">
      <title
         id="title90">Down Vertical Mark, DV</title>
      <polygon
         points="8,40 4,40 4,4 0,0 12,0 8,4 "
         style="fill:#ff0000"
         id="polygon92" />
    </g>
    <polygon
       points="4,40 4,22 0,18 4,18 4,4 0,0 12,0 8,4 8,18 12,18 8,22 8,40 "
       style="fill:#ff0000"
       id="polygon108"
       transform="matrix(0.08268229,0,0,0.08268229,24.65704,8.8351934)">
      <title
         id="title179">Down Vertical Head-to-Tail Mark, DVHT</title>
    </polygon>
    <polygon
       points="6,0 6,12 0,6 "
       style="fill:#ff0000"
       id="polygon134"
       transform="matrix(0.08268229,0,0,0.08268229,20.753255,9.6561105)">
      <title
         id="title181">Heel Mark, HE</title>
    </polygon>
    <g
       id="g166"
       transform="matrix(0.08268229,0,0,0.08268229,22.972082,9.7895715)">
      <title
         id="title162">Down Vertical Mark, DV</title>
      <polygon
         points="12,0 8,4 8,25 4,25 4,4 0,0 "
         style="fill:#ff0000"
         id="polygon164" />
    </g>
    <g
       id="g227"
       transform="matrix(0.08268229,0,0,0.08268229,24.85784,10.553804)">
      <title
         id="title223">Right 2 Touch Connector, R2T</title>
      <circle
         cx="3"
         cy="3"
         r="3"
         style="fill:#008000"
         id="circle225" />
    </g>
    <g
       id="g244"
       transform="matrix(0.08268229,0,0,0.08268229,24.946428,12.030273)">
      <title
         id="title240">Southeast Corner Connector, SEC</title>
      <circle
         cx="3"
         cy="3"
         r="3"
         style="fill:#008000"
         id="circle242" />
    </g>
    <g
       id="g250"
       transform="matrix(0.08268229,0,0,0.08268229,24.88737,9.0773343)">
      <title
         id="title246">Northeast Corner Connector, NEC</title>
      <circle
         cx="3"
         cy="3"
         r="3"
         style="fill:#008000"
         id="circle248" />
    </g>
    <g
       id="g256"
       transform="matrix(0.08268229,0,0,0.08268229,23.204195,10.553804)">
      <title
         id="title252">2 Cross Connector, 2C</title>
      <circle
         cx="3"
         cy="3"
         r="3"
         style="fill:#008000"
         id="circle254" />
    </g>
    <g
       id="g262"
       transform="matrix(0.08268229,0,0,0.08268229,20.000256,12.059803)">
      <title
         id="title258">Bottom 2 Touch Connector, B2T</title>
      <circle
         cx="3"
         cy="3"
         r="3"
         style="fill:#008000"
         id="circle260" />
    </g>
    <g
       id="g268"
       transform="matrix(0.08268229,0,0,0.08268229,18.523786,12.045038)">
      <title
         id="title264">Southwest Corner Connector, SWC</title>
      <circle
         cx="3"
         cy="3"
         r="3"
         style="fill:#008000"
         id="circle266" />
    </g>
  </g>
</svg>
