<?xml version="1.0" encoding="UTF-8" standalone="no"?>
<svg
   xmlns:dc="http://purl.org/dc/elements/1.1/"
   xmlns:cc="http://creativecommons.org/ns#"
   xmlns:rdf="http://www.w3.org/1999/02/22-rdf-syntax-ns#"
   xmlns:svg="http://www.w3.org/2000/svg"
   xmlns="http://www.w3.org/2000/svg"
   width="18"
   height="15"
   viewBox="0 0 4.7624999 3.9687501"
   version="1.1"
   id="svg8">
  <defs
     id="defs2" />
  <metadata
     id="metadata5">
    <rdf:RDF>
      <cc:Work
         rdf:about="">
        <dc:format>image/svg+xml</dc:format>
        <dc:type
           rdf:resource="http://purl.org/dc/dcmitype/StillImage" />
        <dc:title></dc:title>
      </cc:Work>
    </rdf:RDF>
  </metadata>
  <g
     id="layer1"
     transform="translate(-16.659301,-10.110863)">
    <g
       id="g1108"
       transform="matrix(0,-0.09921875,0.09921875,0,18.076045,13.803204)">
      <title
         id="title1104">Right Horizontal Mark, RH</title>
      <polygon
         points="4,4 0,0 12,0 8,4 8,25 4,25 "
         style="fill:#ff0000"
         id="polygon1106" />
    </g>
    <g
       id="g1114"
       transform="matrix(0.09921875,0,0,0.09921875,17.321983,10.906045)">
      <title
         id="title1110">Down Vertical Mark, DV</title>
      <polygon
         points="8,4 8,25 4,25 4,4 0,0 12,0 "
         style="fill:#ff0000"
         id="polygon1112" />
    </g>
    <g
       id="g1120"
       transform="matrix(0,-0.09921875,0.09921875,0,16.659301,11.301488)">
      <title
         id="title1116">Right Horizontal Mark, RH</title>
      <polygon
         points="4,40 4,4 0,0 12,0 8,4 8,40 "
         style="fill:#ff0000"
         id="polygon1118" />
    </g>
    <g
       id="g1130"
       transform="matrix(0.09921875,0,0,0.09921875,20.231176,10.110863)">
      <title
         id="title1126">Down Vertical Mark, DV</title>
      <polygon
         points="8,40 4,40 4,4 0,0 12,0 8,4 "
         style="fill:#ff0000"
         id="polygon1128" />
    </g>
    <circle
       style="fill:#008000;fill-rule:evenodd;stroke-width:0.0992186"
       id="circle1084"
       cx="17.934969"
       cy="10.93367"
       r="0.29765624">
      <title
         id="title1090">Top 2 Touch Connector, T2T</title>
    </circle>
    <circle
       style="fill:#008000;fill-rule:evenodd;stroke-width:0.0992186"
       id="circle1080"
       cx="18.003672"
       cy="13.239797"
       r="0.29765624">
      <title
         id="title1094">Southwest Corner Connector, SWC</title>
    </circle>
    <circle
       style="fill:#008000;fill-rule:evenodd;stroke-width:0.0992186"
       id="circle1078"
       cx="20.642267"
       cy="13.222079"
       r="0.29765624">
      <title
         id="title1092">Right 2 Touch Connector, R2T</title>
    </circle>
    <circle
       style="fill:#008000;fill-rule:evenodd;stroke-width:0.0992186"
       id="circle1134"
       cx="20.677702"
       cy="10.741611"
       r="0.29765624">
      <title
         id="title1132">Northeast Corner Connector, NEC</title>
    </circle>
  </g>
</svg>
