<?xml version="1.0" encoding="UTF-8" standalone="no"?>
<svg
   xmlns:dc="http://purl.org/dc/elements/1.1/"
   xmlns:cc="http://creativecommons.org/ns#"
   xmlns:rdf="http://www.w3.org/1999/02/22-rdf-syntax-ns#"
   xmlns:svg="http://www.w3.org/2000/svg"
   xmlns="http://www.w3.org/2000/svg"
   width="26.29018"
   height="15"
   viewBox="0 0 6.9559433 3.9687501"
   version="1.1"
   id="svg8">
  <defs
     id="defs2" />
  <metadata
     id="metadata5">
    <rdf:RDF>
      <cc:Work
         rdf:about="">
        <dc:format>image/svg+xml</dc:format>
        <dc:type
           rdf:resource="http://purl.org/dc/dcmitype/StillImage" />
        <dc:title></dc:title>
      </cc:Work>
    </rdf:RDF>
  </metadata>
  <g
     id="layer1"
     transform="translate(-18.019424,-8.2682291)">
    <g
       id="g857"
       transform="matrix(0.09921875,0,0,0.09921875,21.555863,8.2682291)">
      <title
         id="title853">Down Vertical Mark, DV</title>
      <polygon
         points="0,0 12,0 8,4 8,40 4,40 4,4 "
         style="fill:#ff0000"
         id="polygon855" />
    </g>
    <g
       id="g874"
       transform="matrix(0.09921875,0,0,0.09921875,19.67425,8.2682291)">
      <title
         id="title870">Down Vertical Mark, DV</title>
      <polygon
         points="8,4 8,40 4,40 4,4 0,0 12,0 "
         style="fill:#ff0000"
         id="polygon872" />
    </g>
    <polygon
       points="0,6 6,0 6,12 "
       style="fill:#ff0000"
       id="polygon1050"
       transform="matrix(0.09921875,0,0,0.09921875,22.583487,10.482933)">
      <title
         id="title1072">Heel Mark, HE</title>
    </polygon>
    <polygon
       points="0,6 6,0 6,12 "
       style="fill:#ff0000"
       id="polygon1064"
       transform="matrix(0.09921875,0,0,0.09921875,23.497716,9.6041385)">
      <title
         id="title1074">Heel Mark, HE</title>
    </polygon>
    <polygon
       points="0,6 6,0 6,12 "
       style="fill:#ff0000"
       id="polygon1066"
       transform="matrix(0.09921875,0,0,0.09921875,24.380055,8.7125731)">
      <title
         id="title1076">Heel Mark, HE</title>
    </polygon>
    <polygon
       points="0,6 6,0 6,12 "
       style="fill:#ff0000"
       id="polygon1068"
       transform="matrix(0.09921875,0,0,0.09921875,24.380026,10.596326)">
      <title
         id="title1070">Heel Mark, HE</title>
    </polygon>
    <g
       id="g1088"
       transform="matrix(0,-0.09921875,0.09921875,0,18.019424,10.777046)">
      <title
         id="title1084">Right Horizontal  Mark, RH</title>
      <polygon
         points="4,4 0,0 12,0 8,4 8,40 4,40 "
         style="fill:#ff0000"
         id="polygon1086" />
    </g>
    <circle
       style="fill:#008000;fill-rule:evenodd;stroke-width:0.0992186"
       id="circle983"
       cx="20.216412"
       cy="10.164016"
       r="0.29765624">
      <title
         id="title981"> 2 Cross Connector, 2C</title>
    </circle>
    <circle
       style="fill:#008000;fill-rule:evenodd;stroke-width:0.0992186"
       id="circle1036"
       cx="22.041327"
       cy="10.199451"
       r="0.29765624">
      <title
         id="title1034">Right 2 Touch Connector, R2T</title>
    </circle>
  </g>
</svg>
