<?xml version="1.0" encoding="UTF-8" standalone="no"?>
<svg
   xmlns:dc="http://purl.org/dc/elements/1.1/"
   xmlns:cc="http://creativecommons.org/ns#"
   xmlns:rdf="http://www.w3.org/1999/02/22-rdf-syntax-ns#"
   xmlns:svg="http://www.w3.org/2000/svg"
   xmlns="http://www.w3.org/2000/svg"
   width="17.433535"
   height="15"
   viewBox="0 0 4.6126226 3.9687501"
   version="1.1"
   id="svg8">
  <defs
     id="defs2" />
  <metadata
     id="metadata5">
    <rdf:RDF>
      <cc:Work
         rdf:about="">
        <dc:format>image/svg+xml</dc:format>
        <dc:type
           rdf:resource="http://purl.org/dc/dcmitype/StillImage" />
        <dc:title></dc:title>
      </cc:Work>
    </rdf:RDF>
  </metadata>
  <g
     id="layer1"
     transform="translate(-16.498005,-8.6934524)">
    <g
       id="g894"
       transform="matrix(0.0960963,0,0,0.0960963,19.957471,8.8183502)">
      <title
         id="title890">Down Vertical Mark, DV</title>
      <polygon
         points="0,0 12,0 8,4 8,40 4,40 4,4 "
         style="fill:#ff0000"
         id="polygon892" />
    </g>
    <g
       id="g982"
       transform="matrix(0,-0.0960963,0.0960963,0,16.498005,9.846608)">
      <title
         id="title978">Right Horizontal Mark, RH</title>
      <polygon
         points="12,0 8,4 8,40 4,40 4,4 0,0 "
         style="fill:#ff0000"
         id="polygon980" />
    </g>
    <circle
       style="fill:#008000;fill-rule:evenodd;stroke-width:0.0960962"
       id="circle956"
       cx="20.50316"
       cy="9.2528706"
       r="0.28828892">
      <title
         id="title976">Northeast Corner Connector, NEC</title>
    </circle>
    <g
       id="g989"
       transform="matrix(0,-0.0960963,0.0960963,0,16.850198,12.199595)">
      <title
         id="title985">Right Horizontal Mark, RH</title>
      <polygon
         points="8,4 8,40 4,40 4,4 0,0 12,0 "
         style="fill:#ff0000"
         id="polygon987" />
    </g>
    <circle
       style="fill:#008000;fill-rule:evenodd;stroke-width:0.0960962"
       id="circle958"
       cx="20.520321"
       cy="11.674524"
       r="0.28828892">
      <title
         id="title966">Right 2 Touch Connector, R2T</title>
    </circle>
    <g
       id="g1445"
       transform="matrix(0.0960963,0,0,0.0960963,18.340994,8.7263861)">
      <title
         id="title1441">Down Vertical Mark, DV</title>
      <polygon
         points="0,0 12,0 8,4 8,40 4,40 4,4 "
         style="fill:#ff0000"
         id="polygon1443" />
    </g>
    <circle
       style="fill:#008000;fill-rule:evenodd;stroke-width:0.0960962"
       id="circle1449"
       cx="18.923735"
       cy="9.27209"
       r="0.28828892">
      <title
         id="title1447">2 Cross Connector, 2C</title>
    </circle>
    <circle
       style="fill:#008000;fill-rule:evenodd;stroke-width:0.0960962"
       id="circle1385"
       cx="18.923735"
       cy="11.657337"
       r="0.28828892">
      <title
         id="title1399">2 Cross Connector, 2C</title>
    </circle>
  </g>
</svg>
