<?xml version="1.0" encoding="UTF-8" standalone="no"?>
<svg
   xmlns:dc="http://purl.org/dc/elements/1.1/"
   xmlns:cc="http://creativecommons.org/ns#"
   xmlns:rdf="http://www.w3.org/1999/02/22-rdf-syntax-ns#"
   xmlns:svg="http://www.w3.org/2000/svg"
   xmlns="http://www.w3.org/2000/svg"
   width="16.666666"
   height="15"
   viewBox="0 0 4.4097219 3.9687501"
   version="1.1"
   id="svg8">
  <defs
     id="defs2" />
  <metadata
     id="metadata5">
    <rdf:RDF>
      <cc:Work
         rdf:about="">
        <dc:format>image/svg+xml</dc:format>
        <dc:type
           rdf:resource="http://purl.org/dc/dcmitype/StillImage" />
        <dc:title></dc:title>
      </cc:Work>
    </rdf:RDF>
  </metadata>
  <g
     id="layer1"
     transform="translate(-16.174231,-8.6462054)">
    <g
       id="g1445"
       transform="matrix(0,-0.11024306,0.11024306,0,16.174231,12.614955)">
      <title
         id="title1441">Right Horizontal Mark, RH</title>
      <polygon
         points="4,40 4,4 0,0 12,0 8,4 8,40 "
         style="fill:#ff0000"
         id="polygon1443" />
    </g>
    <g
       id="g1751"
       transform="matrix(0,-0.11024306,0.11024306,0,16.174231,11.292039)">
      <title
         id="title1747">Right Horizontal Mark, RH</title>
      <polygon
         points="12,0 8,4 8,40 4,40 4,4 0,0 "
         style="fill:#ff0000"
         id="polygon1749" />
    </g>
    <g
       id="g1757"
       transform="matrix(0,-0.11024306,0.11024306,0,16.174231,9.969122)">
      <title
         id="title1753">Right Horizontal Mark, RH</title>
      <polygon
         points="4,40 4,4 0,0 12,0 8,4 8,40 "
         style="fill:#ff0000"
         id="polygon1755" />
    </g>
    <polygon
       points="0,6 6,0 6,12 "
       style="fill:#ff0000"
       id="polygon1771"
       transform="matrix(0.11024306,0,0,0.11024306,18.343657,10.928284)">
      <title
         id="title1787">Heel Overwrite Mark, OHE</title>
    </polygon>
    <polygon
       points="6,0 6,12 0,6 "
       style="fill:#ff0000"
       id="polygon1785"
       transform="matrix(0.11024306,0,0,0.11024306,17.339658,10.928284)">
      <title
         id="title1789">Heel Overwrite Mark, OHE</title>
    </polygon>
  </g>
</svg>
