<?xml version="1.0" encoding="UTF-8" standalone="no"?>
<svg
   xmlns:dc="http://purl.org/dc/elements/1.1/"
   xmlns:cc="http://creativecommons.org/ns#"
   xmlns:rdf="http://www.w3.org/1999/02/22-rdf-syntax-ns#"
   xmlns:svg="http://www.w3.org/2000/svg"
   xmlns="http://www.w3.org/2000/svg"
   width="29.072968"
   height="15"
   viewBox="0 0 7.6922224 3.9687501"
   version="1.1"
   id="svg8">
  <defs
     id="defs2" />
  <metadata
     id="metadata5">
    <rdf:RDF>
      <cc:Work
         rdf:about="">
        <dc:format>image/svg+xml</dc:format>
        <dc:type
           rdf:resource="http://purl.org/dc/dcmitype/StillImage" />
        <dc:title></dc:title>
      </cc:Work>
    </rdf:RDF>
  </metadata>
  <g
     id="layer1"
     transform="translate(-15.572415,-8.3627229)">
    <g
       id="g874"
       transform="matrix(0,-0.08274385,0.08274385,0,15.572415,11.341502)">
      <title
         id="title870">Right Horizontal Mark, RH</title>
      <polygon
         points="12,0 8,4 8,40 4,40 4,4 0,0 "
         style="fill:#ff0000"
         id="polygon872" />
    </g>
    <g
       id="g880"
       transform="matrix(0.08274385,0,0,0.08274385,18.533463,8.3627231)">
      <title
         id="title876">Down Vertical Mark, DV</title>
      <polygon
         points="8,40 4,40 4,4 0,0 12,0 8,4 "
         style="fill:#ff0000"
         id="polygon878" />
    </g>
    <g
       id="g886"
       transform="matrix(0,-0.08274385,0.08274385,0,15.572415,9.996914)">
      <title
         id="title882">Right Horizontal Mark, RH</title>
      <polygon
         points="8,40 4,40 4,4 0,0 12,0 8,4 "
         style="fill:#ff0000"
         id="polygon884" />
    </g>
    <g
       id="g892"
       transform="matrix(0.08274385,0,0,0.08274385,20.306545,8.3774986)">
      <title
         id="title888">Down Vertical Mark, DV</title>
      <polygon
         points="8,40 4,40 4,4 0,0 12,0 8,4 "
         style="fill:#ff0000"
         id="polygon890" />
    </g>
    <g
       id="g898"
       transform="matrix(0.08274385,0,0,0.08274385,22.109179,8.3627229)">
      <title
         id="title894">Down Vertical Mark, DV</title>
      <polygon
         points="4,40 4,4 0,0 12,0 8,4 8,40 "
         style="fill:#ff0000"
         id="polygon896" />
    </g>
    <g
       id="g918"
       transform="matrix(0,-0.08274385,0.08274385,0,17.307081,12.331473)">
      <title
         id="title914">Right Horizontal Mark, RH</title>
      <polygon
         points="4,4 0,0 12,0 8,4 8,72 4,72 "
         style="fill:#ff0000"
         id="polygon916" />
    </g>
    <circle
       style="fill:#008000;fill-rule:evenodd;stroke-width:0.0827437"
       id="path839"
       cx="20.803009"
       cy="11.73158"
       r="0.24823155">
      <title
         id="title961">Bottom 2 Touch Connector, B2T</title>
    </circle>
    <circle
       style="fill:#008000;fill-rule:evenodd;stroke-width:0.0827437"
       id="circle947"
       cx="22.620419"
       cy="11.761131"
       r="0.24823155">
      <title
         id="title963">Bottom 2 Touch Connector, B2T</title>
    </circle>
    <circle
       style="fill:#008000;fill-rule:evenodd;stroke-width:0.0827437"
       id="circle949"
       cx="19.01515"
       cy="11.73158"
       r="0.24823155">
      <title
         id="title959">Bottom 2 Touch Connector, B2T</title>
    </circle>
    <circle
       style="fill:#008000;fill-rule:evenodd;stroke-width:0.0827437"
       id="circle951"
       cx="18.9856"
       cy="9.4856749"
       r="0.24823155">
      <title
         id="title955">Right 2 Touch Connector, R2T</title>
    </circle>
    <circle
       style="fill:#008000;fill-rule:evenodd;stroke-width:0.0827437"
       id="circle953"
       cx="19.000374"
       cy="10.859815"
       r="0.24823155">
      <title
         id="title957">Right 2 Touch Connector, R2T</title>
    </circle>
  </g>
</svg>
