<?xml version="1.0" encoding="UTF-8" standalone="no"?>
<svg
   xmlns:dc="http://purl.org/dc/elements/1.1/"
   xmlns:cc="http://creativecommons.org/ns#"
   xmlns:rdf="http://www.w3.org/1999/02/22-rdf-syntax-ns#"
   xmlns:svg="http://www.w3.org/2000/svg"
   xmlns="http://www.w3.org/2000/svg"
   width="22.798244"
   height="15"
   viewBox="0 0 6.0320353 3.9687501"
   version="1.1"
   id="svg8">
  <defs
     id="defs2" />
  <metadata
     id="metadata5">
    <rdf:RDF>
      <cc:Work
         rdf:about="">
        <dc:format>image/svg+xml</dc:format>
        <dc:type
           rdf:resource="http://purl.org/dc/dcmitype/StillImage" />
        <dc:title></dc:title>
      </cc:Work>
    </rdf:RDF>
  </metadata>
  <g
     id="layer1"
     transform="translate(-14.79611,-8.5517112)">
    <g
       id="g892"
       transform="matrix(0.09869006,0,0,0.09869006,15.79006,8.5728588)">
      <title
         id="title888">Down Vertical Mark, DV</title>
      <polygon
         points="4,40 4,4 0,0 12,0 8,4 8,40 "
         style="fill:#ff0000"
         id="polygon890" />
    </g>
    <g
       id="g1045"
       transform="matrix(0,-0.09869006,0.09869006,0,14.79611,11.04716)">
      <title
         id="title1041">Right Horizontal Mark, RH</title>
      <polygon
         points="8,4 8,25 4,25 4,4 0,0 12,0 "
         style="fill:#ff0000"
         id="polygon1043" />
    </g>
    <g
       id="g1062"
       transform="matrix(0.04934503,-0.0854681,0.0854681,0.04934503,17.823033,11.232516)">
      <title
         id="title1058">Right Down Diagonal Mark, RDD</title>
      <polygon
         points="8,4 8,25 4,25 4,4 0,0 12,0 "
         style="fill:#ff0000"
         id="polygon1060" />
    </g>
    <circle
       style="fill:#008000;fill-rule:evenodd;stroke-width:0.0986899"
       id="circle1015"
       cx="16.382202"
       cy="10.490266"
       r="0.29607019">
      <title
         id="title1025">2 Cross Connector, 2C</title>
    </circle>
    <polygon
       points="4,40 4,22 0,18 4,18 4,4 0,0 12,0 8,4 8,18 12,18 8,22 8,40 "
       style="fill:#ff0000"
       id="polygon1104"
       transform="matrix(0.09869006,0,0,0.09869006,19.643865,8.5517112)">
      <title
         id="title1146">Down Vertical Head-to-Tail, DVHT</title>
    </polygon>
    <circle
       style="fill:#008000;fill-rule:evenodd;stroke-width:0.0986899"
       id="circle1066"
       cx="20.188818"
       cy="11.917747"
       r="0.29607019">
      <title
         id="title1064">Other 2 Touch Connector, O2T</title>
    </circle>
    <polygon
       points="6,12 0,6 6,0 "
       style="fill:#ff0000"
       id="polygon1130"
       transform="matrix(0.09869006,0,0,0.09869006,17.381789,9.6654991)">
      <title
         id="title1148">Heel Mark, HE</title>
    </polygon>
    <polygon
       points="6,12 0,6 6,0 "
       style="fill:#ff0000"
       id="polygon1144"
       transform="matrix(0.09869006,0,0,0.09869006,16.77978,10.6524)">
      <title
         id="title1150">Heel Mark, HE</title>
    </polygon>
  </g>
</svg>
