<?xml version="1.0" encoding="UTF-8" standalone="no"?>
<svg
   xmlns:dc="http://purl.org/dc/elements/1.1/"
   xmlns:cc="http://creativecommons.org/ns#"
   xmlns:rdf="http://www.w3.org/1999/02/22-rdf-syntax-ns#"
   xmlns:svg="http://www.w3.org/2000/svg"
   xmlns="http://www.w3.org/2000/svg"
   width="29.192513"
   height="15"
   viewBox="0 0 7.723852 3.9687501"
   version="1.1"
   id="svg8">
  <defs
     id="defs2" />
  <metadata
     id="metadata5">
    <rdf:RDF>
      <cc:Work
         rdf:about="">
        <dc:format>image/svg+xml</dc:format>
        <dc:type
           rdf:resource="http://purl.org/dc/dcmitype/StillImage" />
        <dc:title></dc:title>
      </cc:Work>
    </rdf:RDF>
  </metadata>
  <g
     id="layer1"
     transform="translate(-17.021258,-7.7485114)">
    <polygon
       points="8,30 4,30 4,4 0,0 12,0 8,4 "
       style="fill:#ff0000"
       id="polygon1210"
       transform="matrix(0.1239988,0,0,0.1239988,18.509244,7.995765)">
      <title
         id="title1327">Down Vertical Mark, DV</title>
    </polygon>
    <g
       id="g1373"
       transform="matrix(0.03209325,-0.11977365,0.11977365,0.03209325,18.499682,10.591693)">
      <title
         id="title1369">Right Down Diagonal Mark, ORDD</title>
      <polygon
         points="4,4 0,0 12,0 8,4 8,50 4,50 "
         style="fill:#ff0000"
         id="polygon1371" />
    </g>
    <polygon
       points="8,22 8,32 4,32 4,22 0,18 4,18 4,4 0,0 12,0 8,4 8,18 12,18 "
       style="fill:#ff0000"
       id="polygon1430"
       transform="matrix(0.1239988,0,0,0.1239988,22.902842,7.7485114)">
      <title
         id="title1487">Down Vertical Head-to-Tail Mark, DVHT</title>
    </polygon>
    <polygon
       points="8,30 4,30 4,4 0,0 12,0 8,4 "
       style="fill:#ff0000"
       id="polygon1446"
       transform="matrix(0.1239988,0,0,0.1239988,18.509244,7.995765)">
      <title
         id="title1444">Down Vertical Mark, DV</title>
    </polygon>
    <polygon
       points="4,30 4,4 0,0 12,0 8,4 8,30 "
       style="fill:#ff0000"
       id="polygon1450"
       transform="matrix(0.1239988,0,0,0.1239988,19.99723,7.995765)">
      <title
         id="title1448">Down Vertical Mark, DV</title>
    </polygon>
    <polygon
       points="4,4 0,0 12,0 8,4 8,30 4,30 "
       style="fill:#ff0000"
       id="polygon1454"
       transform="matrix(0.1239988,0,0,0.1239988,21.485215,7.995765)">
      <title
         id="title1452">Down Vertical Mark, DV</title>
    </polygon>
    <g
       id="g1474"
       transform="matrix(0,-0.1239988,0.1239988,0,17.021258,9.4837506)">
      <title
         id="title1470">Right Horizontal Mark, RH</title>
      <polygon
         points="12,0 8,4 8,40 4,40 4,4 0,0 "
         style="fill:#ff0000"
         id="polygon1472" />
    </g>
    <circle
       style="fill:#008000;fill-rule:evenodd;stroke-width:0.123999"
       id="path839"
       cx="19.213345"
       cy="8.7477818"
       r="0.3719964">
      <title
         id="title1319">2 Cross Connector, 2C</title>
    </circle>
    <circle
       style="fill:#008000;fill-rule:evenodd;stroke-width:0.123999"
       id="circle1078"
       cx="20.720781"
       cy="8.7256393"
       r="0.3719964">
      <title
         id="title1092">2 Cross Connector, 2C</title>
    </circle>
    <circle
       style="fill:#008000;fill-rule:evenodd;stroke-width:0.123999"
       id="circle1363"
       cx="22.173338"
       cy="8.6813545"
       r="0.3719964">
      <title
         id="title1361">Right 2 Touch Connector, R2T</title>
    </circle>
    <circle
       style="fill:#008000;fill-rule:evenodd;stroke-width:0.123999"
       id="circle1491"
       cx="23.597588"
       cy="11.227758"
       r="0.3719964">
      <title
         id="title1489">2 Cross Connector, 2C</title>
    </circle>
    <circle
       style="fill:#008000;fill-rule:evenodd;stroke-width:0.123999"
       id="circle1495"
       cx="22.202602"
       cy="10.851333"
       r="0.3719964">
      <title
         id="title1493">2 Cross Connector, 2C</title>
    </circle>
    <circle
       style="fill:#008000;fill-rule:evenodd;stroke-width:0.123999"
       id="circle1499"
       cx="20.76333"
       cy="10.40848"
       r="0.3719964">
      <title
         id="title1497">2 Cross Connector, 2C</title>
    </circle>
    <circle
       style="fill:#008000;fill-rule:evenodd;stroke-width:0.123999"
       id="circle1503"
       cx="19.301916"
       cy="10.032055"
       r="0.3719964">
      <title
         id="title1501">2 Cross Connector, 2C</title>
    </circle>
  </g>
</svg>
