<?xml version="1.0" encoding="UTF-8" standalone="no"?>
<svg
   xmlns:dc="http://purl.org/dc/elements/1.1/"
   xmlns:cc="http://creativecommons.org/ns#"
   xmlns:rdf="http://www.w3.org/1999/02/22-rdf-syntax-ns#"
   xmlns:svg="http://www.w3.org/2000/svg"
   xmlns="http://www.w3.org/2000/svg"
   width="18.81666"
   height="15"
   viewBox="0 0 4.9785744 3.9687501"
   version="1.1"
   id="svg8">
  <defs
     id="defs2" />
  <metadata
     id="metadata5">
    <rdf:RDF>
      <cc:Work
         rdf:about="">
        <dc:format>image/svg+xml</dc:format>
        <dc:type
           rdf:resource="http://purl.org/dc/dcmitype/StillImage" />
        <dc:title></dc:title>
      </cc:Work>
    </rdf:RDF>
  </metadata>
  <g
     id="layer1"
     transform="translate(-19.102602,-7.7957586)">
    <g
       id="g857"
       transform="matrix(0.07321433,0,0,0.07321433,21.829836,8.8359354)">
      <title
         id="title853">Down Vertical Mark, DV</title>
      <polygon
         points="4,4 0,0 12,0 8,4 8,40 4,40 "
         style="fill:#ff0000"
         id="polygon855" />
    </g>
    <g
       id="g1096"
       transform="matrix(0.07321433,0,0,0.07321433,23.202605,8.352198)">
      <title
         id="title1092">Down Vertical Mark, DV</title>
      <polygon
         points="8,45 4,45 4,4 0,0 12,0 8,4 "
         style="fill:#ff0000"
         id="polygon1094"
         transform="translate(0,0.39985692)" />
    </g>
    <g
       id="g1113"
       transform="matrix(0,-0.07321433,0.07321433,0,21.152604,8.6743305)">
      <title
         id="title1109">Right Horizontal Mark, RH</title>
      <polygon
         points="12,0 8,4 8,40 4,40 4,4 0,0 "
         style="fill:#ff0000"
         id="polygon1111" />
    </g>
    <g
       id="g1125"
       transform="matrix(0,-0.07321433,0.07321433,0,19.19412,9.42165)">
      <title
         id="title1121">Right Horizontal Mark, RH</title>
      <polygon
         points="8,40 4,40 4,4 0,0 12,0 8,4 "
         style="fill:#ff0000"
         id="polygon1123" />
    </g>
    <g
       id="g1145"
       transform="matrix(0,-0.07321433,0.07321433,0,20.291268,10.067505)">
      <title
         id="title1141">Right Horizontal Mark, RH</title>
      <polygon
         points="8,25 4,25 4,4 0,0 12,0 8,4 "
         style="fill:#ff0000"
         id="polygon1143" />
    </g>
    <g
       id="g1162"
       transform="matrix(0,-0.07321433,0.07321433,0,20.29859,10.946077)">
      <title
         id="title1158">Right Horizontal Mark, RH</title>
      <polygon
         points="4,4 0,0 12,0 8,4 8,25 4,25 "
         style="fill:#ff0000"
         id="polygon1160" />
    </g>
    <polygon
       points="12,28 8,32 8,60 4,60 4,32 0,28 4,28 4,4 0,0 12,0 8,4 8,28 "
       style="fill:#ff0000"
       id="polygon1176"
       transform="matrix(0,-0.07321433,0.07321433,0,19.102602,11.668797)">
      <title
         id="title1224">Right Horizontal Head-to-Tail Mark, RHHT</title>
    </polygon>
    <circle
       style="fill:#008000;fill-rule:evenodd;stroke-width:0.0732142"
       id="path839"
       cx="22.260765"
       cy="11.23632"
       r="0.21964298">
      <title
         id="title946">2 Cross Connector, 2C</title>
    </circle>
    <circle
       style="fill:#008000;fill-rule:evenodd;stroke-width:0.0732142"
       id="path839-8"
       cx="23.589596"
       cy="11.23632"
       r="0.21964298">
      <title
         id="title1214">Right 2 Touch Connector, R2T</title>
    </circle>
    <circle
       style="fill:#008000;fill-rule:evenodd;stroke-width:0.0732142"
       id="circle1206"
       cx="22.256561"
       cy="10.530324"
       r="0.21964298">
      <title
         id="title1216">Right 2 Touch Connector, R2T</title>
    </circle>
    <circle
       style="fill:#008000;fill-rule:evenodd;stroke-width:0.0732142"
       id="circle1208"
       cx="22.269123"
       cy="9.5889969"
       r="0.21964298">
      <title
         id="title1218">Right 2 Touch Connector, R2T</title>
    </circle>
    <circle
       style="fill:#008000;fill-rule:evenodd;stroke-width:0.0732142"
       id="circle1210"
       cx="22.282196"
       cy="9.0137415"
       r="0.21964298">
      <title
         id="title1220">Northeast Corner Connector, NEC</title>
    </circle>
    <circle
       style="fill:#008000;fill-rule:evenodd;stroke-width:0.0732142"
       id="circle1212"
       cx="23.654964"
       cy="8.3469687"
       r="0.21964298">
      <title
         id="title1222">Northeast Corner Connector, NEC</title>
    </circle>
  </g>
</svg>
