<?xml version="1.0" encoding="UTF-8" standalone="no"?>
<svg
   xmlns:dc="http://purl.org/dc/elements/1.1/"
   xmlns:cc="http://creativecommons.org/ns#"
   xmlns:rdf="http://www.w3.org/1999/02/22-rdf-syntax-ns#"
   xmlns:svg="http://www.w3.org/2000/svg"
   xmlns="http://www.w3.org/2000/svg"
   width="17.651947"
   height="15"
   viewBox="0 0 4.6704108 3.9687501"
   version="1.1"
   id="svg8">
  <defs
     id="defs2" />
  <metadata
     id="metadata5">
    <rdf:RDF>
      <cc:Work
         rdf:about="">
        <dc:format>image/svg+xml</dc:format>
        <dc:type
           rdf:resource="http://purl.org/dc/dcmitype/StillImage" />
        <dc:title></dc:title>
      </cc:Work>
    </rdf:RDF>
  </metadata>
  <g
     id="layer1"
     transform="translate(-16.043887,-9.0241815)">
    <g
       id="g857"
       transform="matrix(0.09921875,0,0,0.09921875,19.523673,9.0241815)">
      <title
         id="title853">Down Vertical Mark, DV</title>
      <polygon
         points="4,4 0,0 12,0 8,4 8,40 4,40 "
         style="fill:#ff0000"
         id="polygon855" />
    </g>
    <g
       id="g874"
       transform="matrix(0.09921875,0,0,0.09921875,18.088502,9.0241815)">
      <title
         id="title870">Down Vertical Mark, DV</title>
      <polygon
         points="4,40 4,4 0,0 12,0 8,4 8,40 "
         style="fill:#ff0000"
         id="polygon872" />
    </g>
    <polygon
       points="6,0 6,12 0,6 "
       style="fill:#ff0000"
       id="polygon1050"
       transform="matrix(0.09921875,0,0,0.09921875,17.711443,11.802306)">
      <title
         id="title1072">Heel Mark, HE</title>
    </polygon>
    <polygon
       points="6,12 0,6 6,0 "
       style="fill:#ff0000"
       id="polygon1064"
       transform="matrix(0.09921875,0,0,0.09921875,19.075006,11.759784)">
      <title
         id="title1074">Heel Mark, HE</title>
    </polygon>
    <g
       id="g1108"
       transform="matrix(0,-0.09921875,0.09921875,0,16.043887,11.621587)">
      <title
         id="title1104">Right Horizontal Mark, RH</title>
      <polygon
         points="8,25 4,25 4,4 0,0 12,0 8,4 "
         style="fill:#ff0000"
         id="polygon1106" />
    </g>
    <circle
       style="fill:#008000;fill-rule:evenodd;stroke-width:0.0992186"
       id="circle1036"
       cx="18.612946"
       cy="11.008556"
       r="0.29765624">
      <title
         id="title1034">Right 2 Touch Connector, R2T</title>
    </circle>
    <g
       id="g914"
       transform="matrix(0.09921875,0,0,0.09921875,16.74902,9.0241815)">
      <title
         id="title910">Down Vertical Mark, DV</title>
      <polygon
         points="4,40 4,4 0,0 12,0 8,4 8,40 "
         style="fill:#ff0000"
         id="polygon912" />
    </g>
    <circle
       style="fill:#008000;fill-rule:evenodd;stroke-width:0.0992186"
       id="circle918"
       cx="17.354992"
       cy="11.026274"
       r="0.29765624">
      <title
         id="title916">2 Cross Connector, 2C</title>
    </circle>
  </g>
</svg>
