<?xml version="1.0" encoding="UTF-8" standalone="no"?>
<svg
   xmlns:dc="http://purl.org/dc/elements/1.1/"
   xmlns:cc="http://creativecommons.org/ns#"
   xmlns:rdf="http://www.w3.org/1999/02/22-rdf-syntax-ns#"
   xmlns:svg="http://www.w3.org/2000/svg"
   xmlns="http://www.w3.org/2000/svg"
   width="39.579674"
   height="15"
   viewBox="0 0 10.472122 3.9687501"
   version="1.1"
   id="svg8">
  <defs
     id="defs2" />
  <metadata
     id="metadata5">
    <rdf:RDF>
      <cc:Work
         rdf:about="">
        <dc:format>image/svg+xml</dc:format>
        <dc:type
           rdf:resource="http://purl.org/dc/dcmitype/StillImage" />
        <dc:title></dc:title>
      </cc:Work>
    </rdf:RDF>
  </metadata>
  <g
     id="layer1"
     transform="translate(-11.536633,-8.4572175)">
    <g
       id="g857"
       transform="matrix(0.08305691,0,0,0.08305691,15.522142,8.5724529)">
      <title
         id="title853">Down Vertical Mark, DV</title>
      <polygon
         points="4,40 4,4 0,0 12,0 8,4 8,40 "
         style="fill:#ff0000"
         id="polygon855" />
    </g>
    <g
       id="g874"
       transform="matrix(0.08305691,0,0,0.08305691,14.525459,8.5724529)">
      <title
         id="title870">Down Vertical Mark, DV</title>
      <polygon
         points="8,40 4,40 4,4 0,0 12,0 8,4 "
         style="fill:#ff0000"
         id="polygon872" />
    </g>
    <g
       id="g880"
       transform="matrix(0,-0.08305691,0.08305691,0,11.536633,10.628111)">
      <title
         id="title876">Right Horizontal Mark, RH</title>
      <polygon
         points="8,40 4,40 4,4 0,0 12,0 8,4 "
         style="fill:#ff0000"
         id="polygon878" />
    </g>
    <g
       id="g900"
       transform="matrix(-0.04152845,-0.07192939,0.07192939,-0.04152845,16.995952,12.425968)">
      <title
         id="title896">Right Up Diagonal Mark, RUD</title>
      <polygon
         points="4,72 4,4 0,0 12,0 8,4 8,72 "
         style="fill:#ff0000"
         id="polygon898" />
    </g>
    <polygon
       points="4,4 0,0 12,0 8,4 8,15 4,15 "
       style="fill:#ff0000"
       id="polygon948"
       transform="matrix(0.07192939,-0.04152845,0.04152845,0.07192939,16.588694,10.450583)">
      <title
         id="title966">Right Down Diagonal Mark, RDD</title>
    </polygon>
    <polygon
       points="0,0 12,0 8,4 8,15 4,15 4,4 "
       style="fill:#ff0000"
       id="polygon954"
       transform="matrix(0.07192939,-0.04152845,0.04152845,0.07192939,17.451847,9.9522418)">
      <title
         id="title964">Right Down Diagonal Mark, RDD</title>
    </polygon>
    <polygon
       points="12,0 8,4 8,15 4,15 4,4 0,0 "
       style="fill:#ff0000"
       id="polygon956"
       transform="matrix(0.07192939,-0.04152845,0.04152845,0.07192939,18.315,9.4539004)">
      <title
         id="title962">Right Down Diagonal Mark, RDD</title>
    </polygon>
    <polygon
       points="8,4 8,15 4,15 4,4 0,0 12,0 "
       style="fill:#ff0000"
       id="polygon958"
       transform="matrix(0.07192939,-0.04152845,0.04152845,0.07192939,19.178152,8.955559)">
      <title
         id="title960">Right Down Diagonal Mark, RDD</title>
    </polygon>
    <circle
       style="fill:#008000;fill-rule:evenodd;stroke-width:0.0830568"
       id="path839"
       cx="17.681622"
       cy="11.345961"
       r="0.24917072">
      <title
         id="title988">Other 2 Touch Connector, O2T</title>
    </circle>
    <circle
       style="fill:#008000;fill-rule:evenodd;stroke-width:0.0830568"
       id="circle984"
       cx="14.952609"
       cy="10.12977"
       r="0.24917072">
      <title
         id="title986">Right 2 Touch Connector, R2T</title>
    </circle>
    <circle
       style="fill:#008000;fill-rule:evenodd;stroke-width:0.0830568"
       id="circle992"
       cx="18.556684"
       cy="10.856518"
       r="0.24917072">
      <title
         id="title990">Other 2 Touch Connector, O2T</title>
    </circle>
    <circle
       style="fill:#008000;fill-rule:evenodd;stroke-width:0.0830568"
       id="circle996"
       cx="19.416918"
       cy="10.337412"
       r="0.24917072">
      <title
         id="title994">Other 2 Touch Connector, O2T</title>
    </circle>
    <circle
       style="fill:#008000;fill-rule:evenodd;stroke-width:0.0830568"
       id="circle1000"
       cx="20.291983"
       cy="9.8776331"
       r="0.24917072">
      <title
         id="title998">Other 2 Touch Connector, O2T</title>
    </circle>
  </g>
</svg>
