<?xml version="1.0" encoding="UTF-8" standalone="no"?>
<svg
   xmlns:dc="http://purl.org/dc/elements/1.1/"
   xmlns:cc="http://creativecommons.org/ns#"
   xmlns:rdf="http://www.w3.org/1999/02/22-rdf-syntax-ns#"
   xmlns:svg="http://www.w3.org/2000/svg"
   xmlns="http://www.w3.org/2000/svg"
   width="30.211708"
   height="15"
   viewBox="0 0 7.9935142 3.9687501"
   version="1.1"
   id="svg8">
  <defs
     id="defs2" />
  <metadata
     id="metadata5">
    <rdf:RDF>
      <cc:Work
         rdf:about="">
        <dc:format>image/svg+xml</dc:format>
        <dc:type
           rdf:resource="http://purl.org/dc/dcmitype/StillImage" />
        <dc:title></dc:title>
      </cc:Work>
    </rdf:RDF>
  </metadata>
  <g
     id="layer1"
     transform="translate(-16.886427,-8.2682291)">
    <g
       id="g256"
       transform="matrix(0,-0.14023709,0.14023709,0,16.821317,9.3621185)">
      <title
         id="title252">Right Horizontal Mark, RH</title>
      <polygon
         points="4,57 4,4 0,0 12,0 8,4 8,57 "
         style="fill:#ff0000"
         id="polygon254"
         transform="translate(-12.199714,0.46428666)" />
    </g>
    <polygon
       points="6,12 0,6 6,0 "
       style="fill:#ff0000"
       id="polygon411"
       transform="matrix(0.14023709,0,0,0.14023709,22.215437,10.554134)">
      <title
         id="title431">Heel Mark, HE</title>
    </polygon>
    <polygon
       points="0,6 6,0 6,12 "
       style="fill:#ff0000"
       id="polygon425"
       transform="matrix(0.14023709,0,0,0.14023709,20.086838,10.178499)">
      <title
         id="title433">Heel Mark, HE</title>
    </polygon>
    <polygon
       points="6,0 6,12 0,6 "
       style="fill:#ff0000"
       id="polygon427"
       transform="matrix(0.14023709,0,0,0.14023709,24.038519,8.2682291)">
      <title
         id="title429">Heel Mark, HE</title>
    </polygon>
  </g>
</svg>
