<?xml version="1.0" encoding="UTF-8" standalone="no"?>
<svg
   xmlns:dc="http://purl.org/dc/elements/1.1/"
   xmlns:cc="http://creativecommons.org/ns#"
   xmlns:rdf="http://www.w3.org/1999/02/22-rdf-syntax-ns#"
   xmlns:svg="http://www.w3.org/2000/svg"
   xmlns="http://www.w3.org/2000/svg"
   width="9.5367432"
   height="15"
   viewBox="0 0 2.5232632 3.9687501"
   version="1.1"
   id="svg8">
  <defs
     id="defs2" />
  <metadata
     id="metadata5">
    <rdf:RDF>
      <cc:Work
         rdf:about="">
        <dc:format>image/svg+xml</dc:format>
        <dc:type
           rdf:resource="http://purl.org/dc/dcmitype/StillImage" />
        <dc:title></dc:title>
      </cc:Work>
    </rdf:RDF>
  </metadata>
  <g
     id="layer1"
     transform="translate(-19.101835,-8.7879464)">
    <g
       id="g286"
       transform="matrix(0.07434235,0,0,0.07434235,19.786766,10.154714)">
      <title
         id="title282">Down Vertical Mark, DV</title>
      <polygon
         points="8,4 8,35 4,35 4,4 0,0 12,0 "
         style="fill:#ff0000"
         id="polygon284" />
    </g>
    <polygon
       points="0,18 4,18 4,4 0,0 12,0 8,4 8,18 12,18 8,22 8,40 4,40 4,22 "
       style="fill:#ff0000"
       id="polygon300"
       transform="matrix(0.05256798,-0.05256798,0.05256798,0.05256798,19.101835,9.4187622)">
      <title
         id="title314">Other Head-to-Tail Mark, OHT</title>
    </polygon>
    <g
       id="g262"
       transform="matrix(0.07434235,0,0,0.07434235,20.023069,9.9832168)">
      <title
         id="title258">Other 2 Touch Connector, O2T</title>
      <circle
         cx="3"
         cy="3"
         r="3"
         style="fill:#008000"
         id="circle260" />
    </g>
  </g>
</svg>
