<?xml version="1.0" encoding="UTF-8" standalone="no"?>
<svg
   xmlns:dc="http://purl.org/dc/elements/1.1/"
   xmlns:cc="http://creativecommons.org/ns#"
   xmlns:rdf="http://www.w3.org/1999/02/22-rdf-syntax-ns#"
   xmlns:svg="http://www.w3.org/2000/svg"
   xmlns="http://www.w3.org/2000/svg"
   width="21.957054"
   height="15"
   viewBox="0 0 5.8094704 3.9687501"
   version="1.1"
   id="svg8">
  <defs
     id="defs2" />
  <metadata
     id="metadata5">
    <rdf:RDF>
      <cc:Work
         rdf:about="">
        <dc:format>image/svg+xml</dc:format>
        <dc:type
           rdf:resource="http://purl.org/dc/dcmitype/StillImage" />
        <dc:title></dc:title>
      </cc:Work>
    </rdf:RDF>
  </metadata>
  <g
     id="layer1"
     transform="translate(-18.261931,-8.4572172)">
    <g
       id="g1490"
       transform="matrix(0.07774471,-0.04488592,0.04488592,0.07774471,21.092967,8.3591881)">
      <title
         id="title1486">Right Down Diagonal Mark, RDD</title>
      <polygon
         points="12,0 8,4 8,38 4,38 4,4 0,0 "
         style="fill:#ff0000"
         id="polygon1488"
         transform="translate(0.00467901,8.1918136)" />
    </g>
    <polygon
       points="4,32 0,28 4,28 4,4 0,0 12,0 8,4 8,28 12,28 8,32 8,60 4,60 "
       style="fill:#ff0000"
       id="polygon1550"
       transform="matrix(0,-0.08977185,0.08977185,0,18.261931,12.425967)">
      <title
         id="title1554">Right Horizontal Head-to-Tail Mark, RHHT</title>
    </polygon>
    <circle
       style="fill:#008000;fill-rule:evenodd;stroke-width:0.0897717"
       id="circle1409"
       cx="23.802086"
       cy="11.884732"
       r="0.26931554">
      <title
         id="title1407">Other 2 Touch Connector, O2T</title>
    </circle>
    <polygon
       points="8,28 12,28 8,32 8,60 4,60 4,32 0,28 4,28 4,4 0,0 12,0 8,4 "
       style="fill:#ff0000"
       id="polygon1536"
       transform="matrix(0,-0.08977185,0.08977185,0,18.261931,10.003435)">
      <title
         id="title1552">Right Horizontal Head-to-Tail Mark, RHHT</title>
    </polygon>
    <circle
       style="fill:#008000;fill-rule:evenodd;stroke-width:0.0897717"
       id="circle1425-6"
       cx="22.370237"
       cy="9.4622126"
       r="0.26931554">
      <title
         id="title1423-8">2 Cross Connector, 2C</title>
    </circle>
  </g>
</svg>
