<?xml version="1.0" encoding="UTF-8" standalone="no"?>
<svg
   xmlns:dc="http://purl.org/dc/elements/1.1/"
   xmlns:cc="http://creativecommons.org/ns#"
   xmlns:rdf="http://www.w3.org/1999/02/22-rdf-syntax-ns#"
   xmlns:svg="http://www.w3.org/2000/svg"
   xmlns="http://www.w3.org/2000/svg"
   width="15.508432"
   height="15"
   viewBox="0 0 4.1032726 3.9687501"
   version="1.1"
   id="svg8">
  <defs
     id="defs2" />
  <metadata
     id="metadata5">
    <rdf:RDF>
      <cc:Work
         rdf:about="">
        <dc:format>image/svg+xml</dc:format>
        <dc:type
           rdf:resource="http://purl.org/dc/dcmitype/StillImage" />
        <dc:title></dc:title>
      </cc:Work>
    </rdf:RDF>
  </metadata>
  <g
     id="layer1"
     transform="translate(-16.705431,-8.9296873)">
    <polygon
       points="12,0 8,4 8,8 12,8 8,12 8,20 4,20 4,12 0,8 4,8 4,4 0,0 "
       style="fill:#ff0000"
       id="polygon851"
       transform="matrix(0.07161958,-0.07161958,0.07161958,0.07161958,17.852722,10.943732)">
      <title
         id="title942">Other Head-to-Tail Mark, OHT</title>
    </polygon>
    <g
       id="g883"
       transform="matrix(0.07161958,-0.07161958,0.07161958,0.07161958,18.803356,10.165281)">
      <title
         id="title879">Right Down Diagonal Mark, RDD</title>
      <polygon
         points="0,0 12,0 8,4 8,20 4,20 4,4 "
         style="fill:#ff0000"
         id="polygon881" />
    </g>
    <g
       id="g900"
       transform="matrix(0.07161958,-0.07161958,0.07161958,0.07161958,16.942642,11.752524)">
      <title
         id="title896">Right Down Diagonal Mark, RDD</title>
      <polygon
         points="4,20 4,4 0,0 12,0 8,4 8,20 "
         style="fill:#ff0000"
         id="polygon898" />
    </g>
    <polygon
       points="0,0 12,0 8,4 8,10 4,10 4,4 "
       style="fill:#ff0000"
       id="polygon918"
       transform="matrix(0.07161958,-0.07161958,0.07161958,0.07161958,17.564838,9.7891223)">
      <title
         id="title939">Right Down Diagonal Mark, RDD</title>
    </polygon>
    <polygon
       points="8,10 4,10 4,4 0,0 12,0 8,4 "
       style="fill:#ff0000"
       id="polygon933"
       transform="matrix(0.07161958,-0.07161958,0.07161958,0.07161958,16.705431,10.658657)">
      <title
         id="title941">Right Down Diagonal Mark, RDD</title>
    </polygon>
    <circle
       style="fill:#008000;fill-rule:evenodd;stroke-width:0.101285"
       id="circle965"
       cx="17.885925"
       cy="10.946237"
       r="0.30385613">
      <title
         id="title963">Other 2 Touch Connector, O2T</title>
    </circle>
    <circle
       style="fill:#008000;fill-rule:evenodd;stroke-width:0.101285"
       id="path839"
       cx="18.772173"
       cy="10.114249"
       r="0.30385613">
      <title
         id="title961">Other 2 Touch Connector, O2T</title>
    </circle>
  </g>
</svg>
