<?xml version="1.0" encoding="UTF-8" standalone="no"?>
<svg
   xmlns:dc="http://purl.org/dc/elements/1.1/"
   xmlns:cc="http://creativecommons.org/ns#"
   xmlns:rdf="http://www.w3.org/1999/02/22-rdf-syntax-ns#"
   xmlns:svg="http://www.w3.org/2000/svg"
   xmlns="http://www.w3.org/2000/svg"
   width="15.749921"
   height="14.999999"
   viewBox="0 0 4.1671664 3.9687498"
   version="1.1"
   id="svg8">
  <defs
     id="defs2" />
  <metadata
     id="metadata5">
    <rdf:RDF>
      <cc:Work
         rdf:about="">
        <dc:format>image/svg+xml</dc:format>
        <dc:type
           rdf:resource="http://purl.org/dc/dcmitype/StillImage" />
        <dc:title></dc:title>
      </cc:Work>
    </rdf:RDF>
  </metadata>
  <g
     id="layer1"
     transform="translate(-18.941342,-8.6462054)">
    <g
       id="g495"
       transform="matrix(0.04960937,0,0,0.04960937,18.941342,8.82976)">
      <title
         id="title491">Down Vertical Mark, DV</title>
      <polygon
         points="8,72 4,72 4,4 0,0 12,0 8,4 "
         style="fill:#ff0000"
         id="polygon493" />
    </g>
    <g
       id="g512"
       transform="matrix(0.04960937,0,0,0.04960937,22.513196,8.8396818)">
      <title
         id="title508">Down Vertical Mark, DV</title>
      <polygon
         points="8,72 4,72 4,4 0,0 12,0 8,4 "
         style="fill:#ff0000"
         id="polygon510" />
    </g>
    <g
       id="g518"
       transform="matrix(0,-0.04960937,0.04960937,0,19.139779,9.2415178)">
      <title
         id="title514">Right Horizontal Mark, RH</title>
      <polygon
         points="8,72 4,72 4,4 0,0 12,0 8,4 "
         style="fill:#ff0000"
         id="polygon516" />
    </g>
    <g
       id="g524"
       transform="matrix(0,-0.04960937,0.04960937,0,19.139779,12.614955)">
      <title
         id="title520">Right Horizontal Mark, RH</title>
      <polygon
         points="8,72 4,72 4,4 0,0 12,0 8,4 "
         style="fill:#ff0000"
         id="polygon522" />
    </g>
    <g
       id="g376"
       transform="matrix(0.04960937,0,0,0.04960937,22.633697,8.8180664)">
      <title
         id="title372">Northeast Corner Connector, NEC</title>
      <circle
         cx="3"
         cy="3"
         r="3"
         style="fill:#008000"
         id="circle374" />
    </g>
    <g
       id="g423"
       transform="matrix(0.04960937,0,0,0.04960937,19.09017,8.8003487)">
      <title
         id="title419">Northwest Corner Connector, NWC</title>
      <circle
         cx="3"
         cy="3"
         r="3"
         style="fill:#008000"
         id="circle421" />
    </g>
    <g
       id="g417"
       transform="matrix(0.04960937,0,0,0.04960937,19.143323,12.175558)">
      <title
         id="title413">Southwest Corner Connector, SWC</title>
      <circle
         cx="3"
         cy="3"
         r="3"
         style="fill:#008000"
         id="circle415" />
    </g>
    <g
       id="g393"
       transform="matrix(0.04960937,0,0,0.04960937,22.677991,12.15784)">
      <title
         id="title389">Southeast Corner Connector, SEC</title>
      <circle
         cx="3"
         cy="3"
         r="3"
         style="fill:#008000"
         id="circle391" />
    </g>
    <g
       id="g879"
       transform="matrix(0.04960937,0,0,0.04960937,20.730823,9.0338529)">
      <title
         id="title875">Down Vertical Mark, DV</title>
      <polygon
         points="4,4 0,0 12,0 8,4 8,65 4,65 "
         style="fill:#ff0000"
         id="polygon877" />
    </g>
    <g
       id="g885"
       transform="matrix(0,-0.04960937,0.04960937,0,19.336807,10.914048)">
      <title
         id="title881">Right Horizontal Mark, RH</title>
      <polygon
         points="4,4 0,0 12,0 8,4 8,72 4,72 "
         style="fill:#ff0000"
         id="polygon883" />
    </g>
    <g
       id="g784"
       transform="matrix(0.04960937,0,0,0.04960937,20.870792,10.483524)">
      <title
         id="title780">2 Cross Connector, 2C</title>
      <circle
         cx="3"
         cy="3"
         r="3"
         style="fill:#008000"
         id="circle782" />
    </g>
    <g
       id="g905"
       transform="matrix(0.04960937,0,0,0.04960937,20.906227,12.095829)">
      <title
         id="title901">Bottom 2 Touch Connector, B2T</title>
      <circle
         cx="3"
         cy="3"
         r="3"
         style="fill:#008000"
         id="circle903" />
    </g>
    <g
       id="g934"
       transform="matrix(0.04960937,0,0,0.04960937,22.589403,10.456948)">
      <title
         id="title930">Right 2 Touch Connector, R2T</title>
      <circle
         cx="3"
         cy="3"
         r="3"
         style="fill:#008000"
         id="circle932" />
    </g>
    <g
       id="g922"
       transform="matrix(0.04960937,0,0,0.04960937,20.879651,8.9509486)">
      <title
         id="title918">Top 2 Touch Connector, T2T</title>
      <circle
         cx="3"
         cy="3"
         r="3"
         style="fill:#008000"
         id="circle920" />
    </g>
    <g
       id="g928"
       transform="matrix(0.04960937,0,0,0.04960937,19.214194,10.465806)">
      <title
         id="title924">Left 2 Touch Connector, L2T</title>
      <circle
         cx="3"
         cy="3"
         r="3"
         style="fill:#008000"
         id="circle926" />
    </g>
  </g>
</svg>
