<?xml version="1.0" encoding="UTF-8" standalone="no"?>
<svg
   xmlns:dc="http://purl.org/dc/elements/1.1/"
   xmlns:cc="http://creativecommons.org/ns#"
   xmlns:rdf="http://www.w3.org/1999/02/22-rdf-syntax-ns#"
   xmlns:svg="http://www.w3.org/2000/svg"
   xmlns="http://www.w3.org/2000/svg"
   width="30.070555"
   height="15"
   viewBox="0 0 7.9561674 3.9687501"
   version="1.1"
   id="svg8">
  <defs
     id="defs2" />
  <metadata
     id="metadata5">
    <rdf:RDF>
      <cc:Work
         rdf:about="">
        <dc:format>image/svg+xml</dc:format>
        <dc:type
           rdf:resource="http://purl.org/dc/dcmitype/StillImage" />
        <dc:title></dc:title>
      </cc:Work>
    </rdf:RDF>
  </metadata>
  <g
     id="layer1"
     transform="translate(-17.613806,-8.0792408)">
    <g
       id="g1108"
       transform="matrix(0,-0.0971532,0.0971532,0,22.354882,9.3325588)">
      <title
         id="title1104">Right Horizontal Mark, RH</title>
      <polygon
         points="4,4 0,0 12,0 8,4 8,25 4,25 "
         style="fill:#ff0000"
         id="polygon1106" />
    </g>
    <g
       id="g1114"
       transform="matrix(0.0971532,0,0,0.0971532,19.130132,9.2568903)">
      <title
         id="title1110">Down Vertical Mark, DV</title>
      <polygon
         points="8,4 8,25 4,25 4,4 0,0 12,0 "
         style="fill:#ff0000"
         id="polygon1112" />
    </g>
    <g
       id="g1120"
       transform="matrix(0,-0.0971532,0.0971532,0,17.613806,9.2450793)">
      <title
         id="title1116">Right Horizontal Mark, RH</title>
      <polygon
         points="0,0 12,0 8,4 8,40 4,40 4,4 "
         style="fill:#ff0000"
         id="polygon1118" />
    </g>
    <g
       id="g1130"
       transform="matrix(0.0971532,0,0,0.0971532,21.111321,8.0792408)">
      <title
         id="title1126">Down Vertical Mark, DV</title>
      <polygon
         points="4,4 0,0 12,0 8,4 8,40 4,40 "
         style="fill:#ff0000"
         id="polygon1128" />
    </g>
    <circle
       style="fill:#008000;fill-rule:evenodd;stroke-width:0.0971531"
       id="circle1134"
       cx="21.548553"
       cy="8.6968575"
       r="0.29145962">
      <title
         id="title1132">Northeast Corner Connector, NEC</title>
    </circle>
    <g
       id="g1140"
       transform="matrix(0,-0.0971532,0.0971532,0,17.665852,11.725956)">
      <title
         id="title1136">Right Horizontal Mark, RH</title>
      <polygon
         points="8,40 4,40 4,4 0,0 12,0 8,4 "
         style="fill:#ff0000"
         id="polygon1138" />
    </g>
    <circle
       style="fill:#008000;fill-rule:evenodd;stroke-width:0.0971531"
       id="circle1078"
       cx="21.513855"
       cy="11.125688"
       r="0.29145962">
      <title
         id="title1092">Right 2 Touch Connector, R2T</title>
    </circle>
    <circle
       style="fill:#008000;fill-rule:evenodd;stroke-width:0.0971531"
       id="circle1144"
       cx="19.726931"
       cy="11.090989"
       r="0.29145962">
      <title
         id="title1142">2 Cross Connector, 2C</title>
    </circle>
    <g
       id="g1150"
       transform="matrix(0.0971532,0,0,0.0971532,24.404135,8.1618627)">
      <title
         id="title1146">Down Vertical Mark, DV</title>
      <polygon
         points="4,40 4,4 0,0 12,0 8,4 8,40 "
         style="fill:#ff0000"
         id="polygon1148" />
    </g>
    <g
       id="g1156"
       transform="matrix(0,-0.0971532,0.0971532,0,22.391023,11.707178)">
      <title
         id="title1152">Right Horizontal Mark, RH</title>
      <polygon
         points="12,0 8,4 8,25 4,25 4,4 0,0 "
         style="fill:#ff0000"
         id="polygon1154" />
    </g>
    <circle
       style="fill:#008000;fill-rule:evenodd;stroke-width:0.0971531"
       id="circle1160"
       cx="24.931566"
       cy="8.7489033"
       r="0.29145962">
      <title
         id="title1158">Northeast Corner Connector, NEC</title>
    </circle>
    <circle
       style="fill:#008000;fill-rule:evenodd;stroke-width:0.0971531"
       id="circle1164"
       cx="25.000961"
       cy="11.108338"
       r="0.29145962">
      <title
         id="title1162">Right 2 Touch Connector, R2T</title>
    </circle>
  </g>
</svg>
