<?xml version="1.0" encoding="UTF-8" standalone="no"?>
<svg
   xmlns:dc="http://purl.org/dc/elements/1.1/"
   xmlns:cc="http://creativecommons.org/ns#"
   xmlns:rdf="http://www.w3.org/1999/02/22-rdf-syntax-ns#"
   xmlns:svg="http://www.w3.org/2000/svg"
   xmlns="http://www.w3.org/2000/svg"
   width="15.915597"
   height="15"
   viewBox="0 0 4.2110016 3.9687501"
   version="1.1"
   id="svg8">
  <defs
     id="defs2" />
  <metadata
     id="metadata5">
    <rdf:RDF>
      <cc:Work
         rdf:about="">
        <dc:format>image/svg+xml</dc:format>
        <dc:type
           rdf:resource="http://purl.org/dc/dcmitype/StillImage" />
        <dc:title></dc:title>
      </cc:Work>
    </rdf:RDF>
  </metadata>
  <g
     id="layer1"
     transform="translate(-20.384082,-9.2604165)">
    <g
       id="g1195"
       transform="matrix(0.07503376,0,0,0.07503376,23.694678,9.8178208)">
      <title
         id="title1191">Down Vertical Mark, DV</title>
      <polygon
         points="12,0 8,4 8,40 4,40 4,4 0,0 "
         style="fill:#ff0000"
         id="polygon1193" />
    </g>
    <g
       id="g1212"
       transform="matrix(0,-0.07503376,0.07503376,0,21.044379,12.112793)">
      <title
         id="title1208">Right Horizontal Mark, RH</title>
      <polygon
         points="12,0 8,4 8,40 4,40 4,4 0,0 "
         style="fill:#ff0000"
         id="polygon1210" />
    </g>
    <g
       id="g1218"
       transform="matrix(0,-0.07503376,0.07503376,0,21.044379,12.983184)">
      <title
         id="title1214">Right Horizontal Mark, RH</title>
      <polygon
         points="4,4 0,0 12,0 8,4 8,40 4,40 "
         style="fill:#ff0000"
         id="polygon1216" />
    </g>
    <polygon
       points="6,0 6,12 0,6 "
       style="fill:#ff0000"
       id="polygon1263"
       transform="matrix(0.07503376,0,0,0.07503376,20.384082,10.734294)">
      <title
         id="title1277">Heel Mark, HE</title>
    </polygon>
    <g
       id="g1296"
       transform="matrix(0,-0.07503376,0.07503376,0,21.038483,11.243452)">
      <title
         id="title1292">Right Horizontal Mark, RH</title>
      <polygon
         points="0,0 12,0 8,4 8,40 4,40 4,4 "
         style="fill:#ff0000"
         id="polygon1294" />
    </g>
    <g
       id="g1302"
       transform="matrix(0,-0.07503376,0.07503376,0,21.044379,10.41703)">
      <title
         id="title1298">Right Horizontal Mark, RH</title>
      <polygon
         points="8,40 4,40 4,4 0,0 12,0 8,4 "
         style="fill:#ff0000"
         id="polygon1300" />
    </g>
    <circle
       style="fill:#008000;fill-rule:evenodd;stroke-width:0.0750337"
       id="circle1290"
       cx="24.082603"
       cy="10.794048"
       r="0.22510128">
      <title
         id="title1288">Right 2 Touch Connector, R2T</title>
    </circle>
    <circle
       style="fill:#008000;fill-rule:evenodd;stroke-width:0.0750337"
       id="circle1306"
       cx="24.101362"
       cy="11.651577"
       r="0.22510128">
      <title
         id="title1304">Right 2 Touch Connector, R2T</title>
    </circle>
    <circle
       style="fill:#008000;fill-rule:evenodd;stroke-width:0.0750337"
       id="circle1310"
       cx="24.097084"
       cy="12.535903"
       r="0.22510128">
      <title
         id="title1308">Right 2 Touch Connector, R2T</title>
    </circle>
    <circle
       style="fill:#008000;fill-rule:evenodd;stroke-width:0.0750337"
       id="circle1175"
       cx="24.058462"
       cy="10.030312"
       r="0.22510128">
      <title
         id="title1173">Northeast Corner Connector, NEC</title>
    </circle>
    <polygon
       points="6,0 6,12 0,6 "
       style="fill:#ff0000"
       id="polygon1314"
       transform="matrix(0.07503376,0,0,0.07503376,23.05046,9.2604165)">
      <title
         id="title1312">Heel Mark, HE</title>
    </polygon>
    <polygon
       points="6,0 6,12 0,6 "
       style="fill:#ff0000"
       id="polygon1318"
       transform="matrix(0.07503376,0,0,0.07503376,23.130854,12.328761)">
      <title
         id="title1316">Heel Mark, HE</title>
    </polygon>
  </g>
</svg>
