<?xml version="1.0" encoding="UTF-8" standalone="no"?>
<svg
   xmlns:dc="http://purl.org/dc/elements/1.1/"
   xmlns:cc="http://creativecommons.org/ns#"
   xmlns:rdf="http://www.w3.org/1999/02/22-rdf-syntax-ns#"
   xmlns:svg="http://www.w3.org/2000/svg"
   xmlns="http://www.w3.org/2000/svg"
   width="16.370653"
   height="15"
   viewBox="0 0 4.3314018 3.9687501"
   version="1.1"
   id="svg8">
  <defs
     id="defs2" />
  <metadata
     id="metadata5">
    <rdf:RDF>
      <cc:Work
         rdf:about="">
        <dc:format>image/svg+xml</dc:format>
        <dc:type
           rdf:resource="http://purl.org/dc/dcmitype/StillImage" />
        <dc:title></dc:title>
      </cc:Work>
    </rdf:RDF>
  </metadata>
  <g
     id="layer1"
     transform="translate(-19.331695,-8.8824405)">
    <polygon
       points="12,0 8,4 8,47 4,47 4,4 0,0 "
       style="fill:#ff0000"
       id="polygon950"
       transform="matrix(0.07727747,0,0,0.07727747,19.331695,9.2191494)">
      <title
         id="title956">Down Vertical Mark, DV</title>
    </polygon>
    <g
       id="g857"
       transform="matrix(0,-0.07727747,0.07727747,0,19.953789,9.8097701)">
      <title
         id="title853">Right Horizontal Mark, RH</title>
      <polygon
         points="4,4 0,0 12,0 8,4 8,40 4,40 "
         style="fill:#ff0000"
         id="polygon855" />
    </g>
    <g
       id="g874"
       transform="matrix(0,-0.07727747,0.07727747,0,19.953789,10.7371)">
      <title
         id="title870">Right Horizontal Mark, RH</title>
      <polygon
         points="0,0 12,0 8,4 8,40 4,40 4,4 "
         style="fill:#ff0000"
         id="polygon872" />
    </g>
    <g
       id="g880"
       transform="matrix(0,-0.07727747,0.07727747,0,19.953789,11.664429)">
      <title
         id="title876">Right Horizontal Mark, RH</title>
      <polygon
         points="8,40 4,40 4,4 0,0 12,0 8,4 "
         style="fill:#ff0000"
         id="polygon878" />
    </g>
    <g
       id="g886"
       transform="matrix(0,-0.07727747,0.07727747,0,19.953789,12.591759)">
      <title
         id="title882">Right Horizontal Mark, RH</title>
      <polygon
         points="0,0 12,0 8,4 8,40 4,40 4,4 "
         style="fill:#ff0000"
         id="polygon884" />
    </g>
    <polygon
       points="12,0 8,4 8,47 4,47 4,4 0,0 "
       style="fill:#ff0000"
       id="polygon935"
       transform="matrix(0.07727747,0,0,0.07727747,22.735767,9.1915503)">
      <title
         id="title954">Down Vertical Mark, DV</title>
    </polygon>
    <circle
       style="fill:#008000;fill-rule:evenodd;stroke-width:0.0772774"
       id="path839"
       cx="23.127686"
       cy="12.147414"
       r="0.2318324">
      <title
         id="title994">Right 2 Touch Connector, R2T</title>
    </circle>
    <circle
       style="fill:#008000;fill-rule:evenodd;stroke-width:0.0772774"
       id="circle974"
       cx="23.127686"
       cy="11.181445"
       r="0.2318324">
      <title
         id="title996">Right 2 Touch Connector, R2T</title>
    </circle>
    <circle
       style="fill:#008000;fill-rule:evenodd;stroke-width:0.0772774"
       id="circle976"
       cx="23.141485"
       cy="10.284474"
       r="0.2318324">
      <title
         id="title998">Right 2 Touch Connector, R2T</title>
    </circle>
    <circle
       style="fill:#008000;fill-rule:evenodd;stroke-width:0.0772774"
       id="circle978"
       cx="23.169085"
       cy="9.4013033"
       r="0.2318324">
      <title
         id="title1000">Northeast Corner Connector, NEC</title>
    </circle>
    <circle
       style="fill:#008000;fill-rule:evenodd;stroke-width:0.0772774"
       id="circle980"
       cx="19.912392"
       cy="9.415103"
       r="0.2318324">
      <title
         id="title1002">Northwest Corner Connector, NWC</title>
    </circle>
    <circle
       style="fill:#008000;fill-rule:evenodd;stroke-width:0.0772774"
       id="circle982"
       cx="19.953791"
       cy="10.256876"
       r="0.2318324">
      <title
         id="title992">Left 2 Touch Connector, L2T</title>
    </circle>
    <circle
       style="fill:#008000;fill-rule:evenodd;stroke-width:0.0772774"
       id="circle984"
       cx="19.98139"
       cy="11.181445"
       r="0.2318324">
      <title
         id="title990">Left 2 Touch Connector, L2T</title>
    </circle>
    <circle
       style="fill:#008000;fill-rule:evenodd;stroke-width:0.0772774"
       id="circle986"
       cx="19.953791"
       cy="12.133615"
       r="0.2318324">
      <title
         id="title988">Left 2 Touch Connector, L2T</title>
    </circle>
  </g>
</svg>
