<?xml version="1.0" encoding="UTF-8" standalone="no"?>
<svg
   xmlns:dc="http://purl.org/dc/elements/1.1/"
   xmlns:cc="http://creativecommons.org/ns#"
   xmlns:rdf="http://www.w3.org/1999/02/22-rdf-syntax-ns#"
   xmlns:svg="http://www.w3.org/2000/svg"
   xmlns="http://www.w3.org/2000/svg"
   width="26.827726"
   height="15"
   viewBox="0 0 7.098169 3.9687501"
   version="1.1"
   id="svg8">
  <defs
     id="defs2" />
  <metadata
     id="metadata5">
    <rdf:RDF>
      <cc:Work
         rdf:about="">
        <dc:format>image/svg+xml</dc:format>
        <dc:type
           rdf:resource="http://purl.org/dc/dcmitype/StillImage" />
        <dc:title></dc:title>
      </cc:Work>
    </rdf:RDF>
  </metadata>
  <g
     id="layer1"
     transform="translate(-16.861629,-8.4572173)">
    <g
       id="g1445"
       transform="matrix(0,-0.09858568,0.09858568,0,16.861629,9.7289305)">
      <title
         id="title1441">Right Horizontal Mark, RH</title>
      <polygon
         points="0,0 12,0 8,4 8,40 4,40 4,4 "
         style="fill:#ff0000"
         id="polygon1443" />
    </g>
    <g
       id="g1570"
       transform="matrix(0,-0.09858568,0.09858568,0,16.928526,12.425967)">
      <title
         id="title1566">Right Horizontal Mark, RH</title>
      <polygon
         points="4,40 4,4 0,0 12,0 8,4 8,40 "
         style="fill:#ff0000"
         id="polygon1568" />
    </g>
    <polygon
       points="0,18 4,18 4,4 0,0 12,0 8,4 8,18 12,18 8,22 8,40 4,40 4,22 "
       style="fill:#ff0000"
       id="polygon1638"
       transform="matrix(0.09858568,0,0,0.09858568,20.410714,8.4572173)">
      <title
         id="title1652">Down Vertical Head-to-Tail Mark, DVHT</title>
    </polygon>
    <circle
       style="fill:#008000;fill-rule:evenodd;stroke-width:0.0985856"
       id="circle1612"
       cx="20.921246"
       cy="9.1409655"
       r="0.29575706">
      <title
         id="title1610">Right 2 Touch Connector, R2T</title>
    </circle>
    <circle
       style="fill:#008000;fill-rule:evenodd;stroke-width:0.0985856"
       id="circle1600"
       cx="20.880377"
       cy="11.853523"
       r="0.29575706">
      <title
         id="title1598">Right 2 Touch Connector, R2T</title>
    </circle>
    <polygon
       points="4,18 4,4 0,0 12,0 8,4 8,18 12,18 8,22 8,40 4,40 4,22 0,18 "
       style="fill:#ff0000"
       id="polygon1656"
       transform="matrix(0.09858568,0,0,0.09858568,21.593742,8.4572173)">
      <title
         id="title1654">Down Vertical Head-to-Tail Mark, DVHT</title>
    </polygon>
    <polygon
       points="4,4 0,0 12,0 8,4 8,18 12,18 8,22 8,40 4,40 4,22 0,18 4,18 "
       style="fill:#ff0000"
       id="polygon1660"
       transform="matrix(0.09858568,0,0,0.09858568,22.77677,8.4572173)">
      <title
         id="title1658">Down Vertical Head-to-Tail Mark, DVHT</title>
    </polygon>
  </g>
</svg>
