<?xml version="1.0" encoding="UTF-8" standalone="no"?>
<svg
   xmlns:dc="http://purl.org/dc/elements/1.1/"
   xmlns:cc="http://creativecommons.org/ns#"
   xmlns:rdf="http://www.w3.org/1999/02/22-rdf-syntax-ns#"
   xmlns:svg="http://www.w3.org/2000/svg"
   xmlns="http://www.w3.org/2000/svg"
   width="23.172125"
   height="15"
   viewBox="0 0 6.1309578 3.9687501"
   version="1.1"
   id="svg8">
  <defs
     id="defs2" />
  <metadata
     id="metadata5">
    <rdf:RDF>
      <cc:Work
         rdf:about="">
        <dc:format>image/svg+xml</dc:format>
        <dc:type
           rdf:resource="http://purl.org/dc/dcmitype/StillImage" />
        <dc:title></dc:title>
      </cc:Work>
    </rdf:RDF>
  </metadata>
  <g
     id="layer1"
     transform="translate(-9.5967228,-8.5044643)">
    <g
       id="g894"
       transform="matrix(0.0960963,0,0,0.0960963,14.574525,8.6293621)">
      <title
         id="title890">Down Vertical Mark, DV</title>
      <polygon
         points="4,40 4,4 0,0 12,0 8,4 8,40 "
         style="fill:#ff0000"
         id="polygon892" />
    </g>
    <g
       id="g982"
       transform="matrix(0,-0.0960963,0.0960963,0,9.5967228,9.6576199)">
      <title
         id="title978">Right Horizontal Mark, RH</title>
      <polygon
         points="4,4 0,0 12,0 8,4 8,40 4,40 "
         style="fill:#ff0000"
         id="polygon980" />
    </g>
    <g
       id="g989"
       transform="matrix(0,-0.0960963,0.0960963,0,9.9296965,12.010607)">
      <title
         id="title985">Right Horizontal Mark, RH</title>
      <polygon
         points="8,40 4,40 4,4 0,0 12,0 8,4 "
         style="fill:#ff0000"
         id="polygon987" />
    </g>
    <g
       id="g1445"
       transform="matrix(0.0960963,0,0,0.0960963,12.958048,8.5373979)">
      <title
         id="title1441">Down Vertical Mark, DV</title>
      <polygon
         points="4,40 4,4 0,0 12,0 8,4 8,40 "
         style="fill:#ff0000"
         id="polygon1443" />
    </g>
    <circle
       style="fill:#008000;fill-rule:evenodd;stroke-width:0.0960962"
       id="circle1449"
       cx="13.540788"
       cy="9.0831013"
       r="0.28828892">
      <title
         id="title1447">Northeast Corner Connector, NEC</title>
    </circle>
    <circle
       style="fill:#008000;fill-rule:evenodd;stroke-width:0.0960962"
       id="circle1385"
       cx="13.540788"
       cy="11.468349"
       r="0.28828892">
      <title
         id="title1399">Right 2 Touch Connector, R2T</title>
    </circle>
  </g>
</svg>
