<?xml version="1.0" encoding="UTF-8" standalone="no"?>
<svg
   xmlns:dc="http://purl.org/dc/elements/1.1/"
   xmlns:cc="http://creativecommons.org/ns#"
   xmlns:rdf="http://www.w3.org/1999/02/22-rdf-syntax-ns#"
   xmlns:svg="http://www.w3.org/2000/svg"
   xmlns="http://www.w3.org/2000/svg"
   width="21.142307"
   height="15"
   viewBox="0 0 5.593902 3.9687501"
   version="1.1"
   id="svg8">
  <defs
     id="defs2" />
  <metadata
     id="metadata5">
    <rdf:RDF>
      <cc:Work
         rdf:about="">
        <dc:format>image/svg+xml</dc:format>
        <dc:type
           rdf:resource="http://purl.org/dc/dcmitype/StillImage" />
        <dc:title></dc:title>
      </cc:Work>
    </rdf:RDF>
  </metadata>
  <g
     id="layer1"
     transform="translate(-17.802752,-8.5989583)">
    <polygon
       points="6,12 0,6 6,0 "
       style="fill:#ff0000"
       id="polygon1074"
       transform="matrix(0.08285491,0,0,0.08285491,17.802752,9.1889799)">
      <title
         id="title1143">Heel Mark, HE</title>
    </polygon>
    <polygon
       points="6,0 6,12 0,6 "
       style="fill:#ff0000"
       id="polygon1088"
       transform="matrix(0.08285491,0,0,0.08285491,17.802752,10.183239)">
      <title
         id="title1141">Heel Mark, HE</title>
    </polygon>
    <polygon
       points="6,12 0,6 6,0 "
       style="fill:#ff0000"
       id="polygon1090"
       transform="matrix(0.08285491,0,0,0.08285491,17.802752,11.177498)">
      <title
         id="title1137">Heel Mark, HE</title>
    </polygon>
    <polygon
       points="0,6 6,0 6,12 "
       style="fill:#ff0000"
       id="polygon1092"
       transform="matrix(0.08285491,0,0,0.08285491,18.276209,9.2037753)">
      <title
         id="title1145">Heel Mark, HE</title>
    </polygon>
    <polygon
       points="6,0 6,12 0,6 "
       style="fill:#ff0000"
       id="polygon1094"
       transform="matrix(0.08285491,0,0,0.08285491,18.276209,10.198034)">
      <title
         id="title1139">Heel Mark, HE</title>
    </polygon>
    <polygon
       points="6,12 0,6 6,0 "
       style="fill:#ff0000"
       id="polygon1096"
       transform="matrix(0.08285491,0,0,0.08285491,18.276209,11.192293)">
      <title
         id="title1135">Heel Mark, HE</title>
    </polygon>
    <g
       id="g1165"
       transform="matrix(0.08285491,0,0,0.08285491,18.773338,9.0132329)">
      <title
         id="title1161">Down Vertical Mark, DV</title>
      <polygon
         points="4,4 0,0 12,0 8,4 8,40 4,40 "
         style="fill:#ff0000"
         id="polygon1163" />
    </g>
    <g
       id="g1182"
       transform="matrix(0.08285491,0,0,0.08285491,22.402395,8.9303779)">
      <title
         id="title1178">Down Vertical Mark, DV</title>
      <polygon
         points="8,4 8,40 4,40 4,4 0,0 12,0 "
         style="fill:#ff0000"
         id="polygon1180" />
    </g>
    <g
       id="g1188"
       transform="matrix(0,-0.08285491,0.08285491,0,19.436177,9.5932171)">
      <title
         id="title1184">Right Horizontal Mark, RH</title>
      <polygon
         points="8,4 8,40 4,40 4,4 0,0 12,0 "
         style="fill:#ff0000"
         id="polygon1186" />
    </g>
    <g
       id="g1194"
       transform="matrix(0,-0.08285491,0.08285491,0,19.436177,12.567708)">
      <title
         id="title1190">Right Horizontal Mark, RH</title>
      <polygon
         points="8,4 8,40 4,40 4,4 0,0 12,0 "
         style="fill:#ff0000"
         id="polygon1192" />
    </g>
    <circle
       style="fill:#008000;fill-rule:evenodd;stroke-width:0.0828548"
       id="circle1198"
       cx="22.874657"
       cy="12.053393"
       r="0.24856472">
      <title
         id="title1196">Southeast Corner Connector, SEC</title>
    </circle>
    <circle
       style="fill:#008000;fill-rule:evenodd;stroke-width:0.0828548"
       id="circle1202"
       cx="19.501278"
       cy="12.053393"
       r="0.24856472">
      <title
         id="title1200">Southwest Corner Connector, SWC</title>
    </circle>
    <circle
       style="fill:#008000;fill-rule:evenodd;stroke-width:0.0828548"
       id="circle1210"
       cx="22.889452"
       cy="9.0942888"
       r="0.24856472">
      <title
         id="title1208">Northeast Corner Connector, NEC</title>
    </circle>
    <circle
       style="fill:#008000;fill-rule:evenodd;stroke-width:0.0828548"
       id="circle965"
       cx="19.486483"
       cy="9.1238804"
       r="0.24856472">
      <title
         id="title963">Northwest Corner Connector, NWC</title>
    </circle>
  </g>
</svg>
