<?xml version="1.0" encoding="UTF-8" standalone="no"?>
<svg
   xmlns:dc="http://purl.org/dc/elements/1.1/"
   xmlns:cc="http://creativecommons.org/ns#"
   xmlns:rdf="http://www.w3.org/1999/02/22-rdf-syntax-ns#"
   xmlns:svg="http://www.w3.org/2000/svg"
   xmlns="http://www.w3.org/2000/svg"
   width="27"
   height="15"
   viewBox="0 0 7.1437498 3.9687501"
   version="1.1"
   id="svg8">
  <defs
     id="defs2" />
  <metadata
     id="metadata5">
    <rdf:RDF>
      <cc:Work
         rdf:about="">
        <dc:format>image/svg+xml</dc:format>
        <dc:type
           rdf:resource="http://purl.org/dc/dcmitype/StillImage" />
        <dc:title></dc:title>
      </cc:Work>
    </rdf:RDF>
  </metadata>
  <g
     id="layer1"
     transform="translate(-15.799405,-7.7012648)">
    <g
       id="g1157"
       transform="matrix(0,-0.09921875,0.09921875,0,15.799405,10.192364)">
      <title
         id="title1153">Right Horizontal Mark, RH</title>
      <polygon
         points="8,72 4,72 4,4 0,0 12,0 8,4 "
         style="fill:#ff0000"
         id="polygon1155" />
    </g>
    <g
       id="g1188"
       transform="matrix(0.09921875,0,0,0.09921875,20.551274,7.7012648)">
      <title
         id="title1184">Down Vertical Mark, DV</title>
      <polygon
         points="4,40 4,4 0,0 12,0 8,4 8,40 "
         style="fill:#ff0000"
         id="polygon1186" />
    </g>
    <g
       id="g1205"
       transform="matrix(0.09921875,0,0,0.09921875,19.360649,7.7012648)">
      <title
         id="title1201">Down Vertical Mark, DV</title>
      <polygon
         points="12,0 8,4 8,40 4,40 4,4 0,0 "
         style="fill:#ff0000"
         id="polygon1203" />
    </g>
    <g
       id="g1211"
       transform="matrix(0.09921875,0,0,0.09921875,18.170024,7.7012648)">
      <title
         id="title1207">Down Vertical Mark, DV</title>
      <polygon
         points="4,40 4,4 0,0 12,0 8,4 8,40 "
         style="fill:#ff0000"
         id="polygon1209" />
    </g>
    <g
       id="g1217"
       transform="matrix(0.09921875,0,0,0.09921875,16.979399,7.7012648)">
      <title
         id="title1213">Down Vertical Mark, DV</title>
      <polygon
         points="4,40 4,4 0,0 12,0 8,4 8,40 "
         style="fill:#ff0000"
         id="polygon1215" />
    </g>
    <circle
       style="fill:#008000;fill-rule:evenodd;stroke-width:0.0992186"
       id="circle1036"
       cx="17.581799"
       cy="9.5616159"
       r="0.29765624">
      <title
         id="title1034">2 Cross Connector, 2C</title>
    </circle>
    <circle
       style="fill:#008000;fill-rule:evenodd;stroke-width:0.0992186"
       id="circle1221"
       cx="18.751163"
       cy="9.5438986"
       r="0.29765624">
      <title
         id="title1219">2 Cross Connector, 2C</title>
    </circle>
    <circle
       style="fill:#008000;fill-rule:evenodd;stroke-width:0.0992186"
       id="circle1225"
       cx="19.955963"
       cy="9.5438986"
       r="0.29765624">
      <title
         id="title1223">2 Cross Connector, 2C</title>
    </circle>
    <circle
       style="fill:#008000;fill-rule:evenodd;stroke-width:0.0992186"
       id="circle1229"
       cx="21.143044"
       cy="9.5793333"
       r="0.29765624">
      <title
         id="title1227">2 Cross Connector, 2C</title>
    </circle>
  </g>
</svg>
