<?xml version="1.0" encoding="UTF-8" standalone="no"?>
<svg
   xmlns:dc="http://purl.org/dc/elements/1.1/"
   xmlns:cc="http://creativecommons.org/ns#"
   xmlns:rdf="http://www.w3.org/1999/02/22-rdf-syntax-ns#"
   xmlns:svg="http://www.w3.org/2000/svg"
   xmlns="http://www.w3.org/2000/svg"
   width="27.375"
   height="15"
   viewBox="0 0 7.2429685 3.9687501"
   version="1.1"
   id="svg8">
  <defs
     id="defs2" />
  <metadata
     id="metadata5">
    <rdf:RDF>
      <cc:Work
         rdf:about="">
        <dc:format>image/svg+xml</dc:format>
        <dc:type
           rdf:resource="http://purl.org/dc/dcmitype/StillImage" />
        <dc:title></dc:title>
      </cc:Work>
    </rdf:RDF>
  </metadata>
  <g
     id="layer1"
     transform="translate(-15.938783,-8.3627234)">
    <g
       id="g1701"
       transform="matrix(0.09921875,0,0,0.09921875,21.991127,8.3627234)">
      <title
         id="title1697">Down Vertical Mark, DV</title>
      <polygon
         points="4,40 4,4 0,0 12,0 8,4 8,40 "
         style="fill:#ff0000"
         id="polygon1699" />
    </g>
    <g
       id="g1736"
       transform="matrix(0,-0.09921875,0.09921875,0,18.419252,9.5533484)">
      <title
         id="title1732">Right Horizontal Mark, RH</title>
      <polygon
         points="8,4 8,40 4,40 4,4 0,0 12,0 "
         style="fill:#ff0000"
         id="polygon1734" />
    </g>
    <g
       id="g1742"
       transform="matrix(0,-0.09921875,0.09921875,0,18.440513,12.182645)">
      <title
         id="title1738">Right Horizontal Mark, RH</title>
      <polygon
         points="12,0 8,4 8,40 4,40 4,4 0,0 "
         style="fill:#ff0000"
         id="polygon1740" />
    </g>
    <circle
       style="fill:#008000;fill-rule:evenodd;stroke-width:0.0992186"
       id="circle1409-9"
       cx="22.585646"
       cy="11.57167"
       r="0.29765624">
      <title
         id="title1407-0">Right 2 Touch Connector, R2T</title>
    </circle>
    <g
       id="g1762"
       transform="matrix(0,-0.09921875,0.09921875,0,15.938783,9.9502234)">
      <title
         id="title1758">Right Horizontal Mark, RH</title>
      <polygon
         points="8,25 4,25 4,4 0,0 12,0 8,4 "
         style="fill:#ff0000"
         id="polygon1760" />
    </g>
    <g
       id="g1779"
       transform="matrix(0,-0.09921875,0.09921875,0,15.960044,11.78577)">
      <title
         id="title1775">Right Horizontal Mark, RH</title>
      <polygon
         points="4,25 4,4 0,0 12,0 8,4 8,25 "
         style="fill:#ff0000"
         id="polygon1777" />
    </g>
    <circle
       style="fill:#008000;fill-rule:evenodd;stroke-width:0.0992186"
       id="circle1425"
       cx="22.593498"
       cy="9.0005293"
       r="0.29765624">
      <title
         id="title1423">Northeast Corner Connector, NEC</title>
    </circle>
    <circle
       style="fill:#008000;fill-rule:evenodd;stroke-width:0.0992186"
       id="path839"
       cx="18.485163"
       cy="11.207467"
       r="0.29765624">
      <title
         id="title1801">Horizontal 2 Touch Connector, H2T</title>
    </circle>
    <circle
       style="fill:#008000;fill-rule:evenodd;stroke-width:0.0992186"
       id="circle1797"
       cx="18.449726"
       cy="9.4002686"
       r="0.29765624">
      <title
         id="title1799">Horizontal 2 Touch Connector, H2T</title>
    </circle>
    <polygon
       points="0,6 6,0 6,12 "
       style="fill:#ff0000"
       id="polygon1835"
       transform="matrix(0.09921875,0,0,0.09921875,20.043562,9.7120985)">
      <title
         id="title1853">Heel Mark, HE</title>
    </polygon>
    <polygon
       points="6,0 6,12 0,6 "
       style="fill:#ff0000"
       id="polygon1849"
       transform="matrix(0.09921875,0,0,0.09921875,18.595011,9.7120985)">
      <title
         id="title1857">Heel Mark, HE</title>
    </polygon>
    <polygon
       points="0,6 6,0 6,12 "
       style="fill:#ff0000"
       id="polygon1851"
       transform="matrix(0.09921875,0,0,0.09921875,19.341986,9.7120985)">
      <title
         id="title1855">Heel Mark, HE</title>
    </polygon>
  </g>
</svg>
