<?xml version="1.0" encoding="UTF-8" standalone="no"?>
<svg
   xmlns:dc="http://purl.org/dc/elements/1.1/"
   xmlns:cc="http://creativecommons.org/ns#"
   xmlns:rdf="http://www.w3.org/1999/02/22-rdf-syntax-ns#"
   xmlns:svg="http://www.w3.org/2000/svg"
   xmlns="http://www.w3.org/2000/svg"
   width="15.756697"
   height="15"
   viewBox="0 0 4.1689592 3.9687501"
   version="1.1"
   id="svg8">
  <defs
     id="defs2" />
  <metadata
     id="metadata5">
    <rdf:RDF>
      <cc:Work
         rdf:about="">
        <dc:format>image/svg+xml</dc:format>
        <dc:type
           rdf:resource="http://purl.org/dc/dcmitype/StillImage" />
        <dc:title></dc:title>
      </cc:Work>
    </rdf:RDF>
  </metadata>
  <g
     id="layer1"
     transform="translate(-19.318422,-8.6462053)">
    <g
       id="g495"
       transform="matrix(0.04960937,0,0,0.04960937,19.318422,8.82976)">
      <title
         id="title491">Down Vertical Mark, DV</title>
      <polygon
         points="0,0 12,0 8,4 8,72 4,72 4,4 "
         style="fill:#ff0000"
         id="polygon493" />
    </g>
    <g
       id="g512"
       transform="matrix(0.04960937,0,0,0.04960937,22.890276,8.8396818)">
      <title
         id="title508">Down Vertical Mark, DV</title>
      <polygon
         points="0,0 12,0 8,4 8,72 4,72 4,4 "
         style="fill:#ff0000"
         id="polygon510" />
    </g>
    <g
       id="g518"
       transform="matrix(0,-0.04960937,0.04960937,0,19.516859,9.2415178)">
      <title
         id="title514">Right Horizontal Mark, RH</title>
      <polygon
         points="0,0 12,0 8,4 8,72 4,72 4,4 "
         style="fill:#ff0000"
         id="polygon516" />
    </g>
    <g
       id="g524"
       transform="matrix(0,-0.04960937,0.04960937,0,19.516859,12.614955)">
      <title
         id="title520">Right Horizontal Mark, RH</title>
      <polygon
         points="0,0 12,0 8,4 8,72 4,72 4,4 "
         style="fill:#ff0000"
         id="polygon522" />
    </g>
    <g
       id="g376"
       transform="matrix(0.04960937,0,0,0.04960937,23.010777,8.8180664)">
      <title
         id="title372">Northeast Corner Connector, NEC</title>
      <circle
         cx="3"
         cy="3"
         r="3"
         style="fill:#008000"
         id="circle374" />
    </g>
    <g
       id="g423"
       transform="matrix(0.04960937,0,0,0.04960937,19.46725,8.8003487)">
      <title
         id="title419">Northwest Corner Connector, NWC</title>
      <circle
         cx="3"
         cy="3"
         r="3"
         style="fill:#008000"
         id="circle421" />
    </g>
    <g
       id="g417"
       transform="matrix(0.04960937,0,0,0.04960937,19.520403,12.175558)">
      <title
         id="title413">Southwest Corner Connector, SWC</title>
      <circle
         cx="3"
         cy="3"
         r="3"
         style="fill:#008000"
         id="circle415" />
    </g>
    <g
       id="g393"
       transform="matrix(0.04960937,0,0,0.04960937,23.055071,12.15784)">
      <title
         id="title389">Southeast Corner Connector, SEC</title>
      <circle
         cx="3"
         cy="3"
         r="3"
         style="fill:#008000"
         id="circle391" />
    </g>
    <polygon
       points="0,28 4,28 4,4 0,0 12,0 8,4 8,28 12,28 8,32 8,60 4,60 4,32 "
       style="fill:#ff0000"
       id="polygon1002"
       transform="matrix(0,-0.04960937,0.04960937,0,20.510819,10.930008)">
      <title
         id="title1047">Right Horizontal Head-to-Tail Mark, RHHT</title>
    </polygon>
    <g
       id="g1034"
       transform="matrix(0.04960937,0,0,0.04960937,23.028494,10.474665)">
      <title
         id="title1030">2 Cross Connector, 2C</title>
      <circle
         cx="3"
         cy="3"
         r="3"
         style="fill:#008000"
         id="circle1032" />
    </g>
  </g>
</svg>
