<?xml version="1.0" encoding="UTF-8" standalone="no"?>
<svg
   xmlns:dc="http://purl.org/dc/elements/1.1/"
   xmlns:cc="http://creativecommons.org/ns#"
   xmlns:rdf="http://www.w3.org/1999/02/22-rdf-syntax-ns#"
   xmlns:svg="http://www.w3.org/2000/svg"
   xmlns="http://www.w3.org/2000/svg"
   width="22.216005"
   height="15"
   viewBox="0 0 5.8779846 3.9687501"
   version="1.1"
   id="svg8">
  <defs
     id="defs2" />
  <metadata
     id="metadata5">
    <rdf:RDF>
      <cc:Work
         rdf:about="">
        <dc:format>image/svg+xml</dc:format>
        <dc:type
           rdf:resource="http://purl.org/dc/dcmitype/StillImage" />
        <dc:title></dc:title>
      </cc:Work>
    </rdf:RDF>
  </metadata>
  <g
     id="layer1"
     transform="translate(-19.456097,-9.1659228)">
    <g
       id="g1560"
       transform="matrix(0.06581795,0,0,0.06581795,23.730945,8.9736591)">
      <title
         id="title1556">Down Vertical Mark, DV</title>
      <polygon
         points="4,45 4,4 0,0 12,0 8,4 8,45 "
         style="fill:#ff0000"
         id="polygon1558"
         transform="translate(-8.5714286,7.6785715)" />
    </g>
    <polygon
       points="6,0 6,12 0,6 "
       style="fill:#ff0000"
       id="polygon1639"
       transform="matrix(0.06581795,0,0,0.06581795,20.232749,9.1659228)">
      <title
         id="title1645">Heel Mark, HE</title>
    </polygon>
    <g
       id="g1713"
       transform="matrix(0.06581795,0,0,0.06581795,20.020251,9.0554427)">
      <title
         id="title1709">Down Vertical Mark, DV</title>
      <polygon
         points="12,0 8,4 8,45 4,45 4,4 0,0 "
         style="fill:#ff0000"
         id="polygon1711"
         transform="translate(-8.5714286,7.6785715)" />
    </g>
    <g
       id="g1757"
       transform="matrix(0,-0.06581795,0.06581795,0,20.142446,11.412712)">
      <title
         id="title1753">Right Horizontal Mark, RH</title>
      <polygon
         points="0,0 12,0 8,4 8,25 4,25 4,4 "
         style="fill:#ff0000"
         id="polygon1755" />
    </g>
    <g
       id="g1774"
       transform="matrix(0.01703494,-0.06357526,0.06357526,0.01703494,19.671058,12.9631)">
      <title
         id="title1770">Right Down Diagonal Mark, RDD</title>
      <polygon
         points="0,0 12,0 8,4 8,25 4,25 4,4 "
         style="fill:#ff0000"
         id="polygon1772" />
    </g>
    <circle
       style="fill:#008000;fill-rule:evenodd;stroke-width:0.0658179"
       id="circle1499"
       cx="19.856665"
       cy="12.499649"
       r="0.19745384">
      <title
         id="title1497">Other 2 Touch Connector, O2T</title>
    </circle>
    <g
       id="g1796"
       transform="matrix(0,-0.06581795,0.06581795,0,21.784614,12.552745)">
      <title
         id="title1792">Right Horizontal Mark, RH</title>
      <polygon
         points="12,0 8,4 8,25 4,25 4,4 0,0 "
         style="fill:#ff0000"
         id="polygon1794" />
    </g>
    <circle
       style="fill:#008000;fill-rule:evenodd;stroke-width:0.0658179"
       id="circle1585"
       cx="23.479464"
       cy="12.147053"
       r="0.19745384">
      <title
         id="title1583">Right 2 Touch Connector, R2T</title>
    </circle>
    <g
       id="g1802"
       transform="matrix(0,-0.06581795,0.06581795,0,21.787895,11.10995)">
      <title
         id="title1798">Right Horizontal Mark, RH</title>
      <polygon
         points="8,25 4,25 4,4 0,0 12,0 8,4 "
         style="fill:#ff0000"
         id="polygon1800" />
    </g>
    <circle
       style="fill:#008000;fill-rule:evenodd;stroke-width:0.0658179"
       id="circle1778"
       cx="23.491217"
       cy="10.709382"
       r="0.19745384">
      <title
         id="title1776">Right 2 Touch Connector, R2T</title>
    </circle>
    <g
       id="g1808"
       transform="matrix(0,-0.06581795,0.06581795,0,21.784614,10.15039)">
      <title
         id="title1804">Right Horizontal Mark, RH</title>
      <polygon
         points="12,0 8,4 8,25 4,25 4,4 0,0 "
         style="fill:#ff0000"
         id="polygon1806" />
    </g>
    <circle
       style="fill:#008000;fill-rule:evenodd;stroke-width:0.0658179"
       id="circle1790"
       cx="23.479464"
       cy="9.7705545"
       r="0.19745384">
      <title
         id="title1788">Northeast Corner Connector, NEC</title>
    </circle>
    <circle
       style="fill:#008000;fill-rule:evenodd;stroke-width:0.0658179"
       id="circle1786"
       cx="21.845768"
       cy="10.987265"
       r="0.19745384">
      <title
         id="title1784">Horizontal 2 Touch Connector, H2T</title>
    </circle>
    <g
       id="g1814"
       transform="matrix(0.06581795,0,0,0.06581795,25.10842,8.9971656)">
      <title
         id="title1810">Down Vertical Mark, DV</title>
      <polygon
         points="0,0 12,0 8,4 8,45 4,45 4,4 "
         style="fill:#ff0000"
         id="polygon1812"
         transform="translate(-8.5714286,7.6785715)" />
    </g>
    <polygon
       points="6,0 6,12 0,6 "
       style="fill:#ff0000"
       id="polygon1818"
       transform="matrix(0.06581795,0,0,0.06581795,23.988603,10.176698)">
      <title
         id="title1816">Heel Mark, HE</title>
    </polygon>
  </g>
</svg>
