<?xml version="1.0" encoding="UTF-8" standalone="no"?>
<svg
   xmlns:dc="http://purl.org/dc/elements/1.1/"
   xmlns:cc="http://creativecommons.org/ns#"
   xmlns:rdf="http://www.w3.org/1999/02/22-rdf-syntax-ns#"
   xmlns:svg="http://www.w3.org/2000/svg"
   xmlns="http://www.w3.org/2000/svg"
   width="24.181614"
   height="15"
   viewBox="0 0 6.3980518 3.9687501"
   version="1.1"
   id="svg8">
  <defs
     id="defs2" />
  <metadata
     id="metadata5">
    <rdf:RDF>
      <cc:Work
         rdf:about="">
        <dc:format>image/svg+xml</dc:format>
        <dc:type
           rdf:resource="http://purl.org/dc/dcmitype/StillImage" />
        <dc:title></dc:title>
      </cc:Work>
    </rdf:RDF>
  </metadata>
  <g
     id="layer1"
     transform="translate(-19.24331,-7.6067708)">
    <g
       id="g1318"
       transform="matrix(0.07831153,0,0,0.07831153,22.172161,7.8165674)">
      <title
         id="title1314">Down Vertical Mark, DV</title>
      <polygon
         points="4,40 4,4 0,0 12,0 8,4 8,40 "
         style="fill:#ff0000"
         id="polygon1316" />
    </g>
    <polygon
       points="8,35 12,40 0,40 4,35 4,4 0,0 12,0 8,4 "
       style="fill:#ff0000"
       id="polygon1350"
       transform="matrix(0,-0.07831153,0.07831153,0,19.24331,8.6231762)">
      <title
         id="title1409">Right Horizontal Barbell Mark, RHBB</title>
    </polygon>
    <polygon
       points="8,74 4,74 4,39 0,35 4,35 4,4 0,0 12,0 8,4 8,35 12,35 8,39 "
       style="fill:#ff0000"
       id="polygon1461"
       transform="matrix(0,-0.07831153,0.07831153,0,19.540894,11.575521)">
      <title
         id="title1534">Right Horizontal Head-to-Tail Mark, RHHT</title>
    </polygon>
    <g
       id="g1493"
       transform="matrix(0,-0.07831153,0.07831153,0,22.804292,8.5465092)">
      <title
         id="title1489">Right Horizontal Mark, RH</title>
      <polygon
         points="4,4 0,0 12,0 8,4 8,25 4,25 "
         style="fill:#ff0000"
         id="polygon1491" />
    </g>
    <g
       id="g1510"
       transform="matrix(0.07831153,0,0,0.07831153,24.701624,7.8165674)">
      <title
         id="title1506">Down Vertical Mark, DV</title>
      <polygon
         points="12,0 8,4 8,40 4,40 4,4 0,0 "
         style="fill:#ff0000"
         id="polygon1508" />
    </g>
    <circle
       style="fill:#008000;fill-rule:evenodd;stroke-width:0.0783114"
       id="path839"
       cx="22.615774"
       cy="11.017272"
       r="0.23493458">
      <title
         id="title1542">Southwest Corner Connector, SWC</title>
    </circle>
    <circle
       style="fill:#008000;fill-rule:evenodd;stroke-width:0.0783114"
       id="circle1528"
       cx="24.909184"
       cy="8.0526209"
       r="0.23493458">
      <title
         id="title1538">Northeast Corner Connector, NEC</title>
    </circle>
    <circle
       style="fill:#008000;fill-rule:evenodd;stroke-width:0.0783114"
       id="circle1530"
       cx="22.867491"
       cy="8.1365261"
       r="0.23493458">
      <title
         id="title1536">Northwest Corner Connector, NWC</title>
    </circle>
    <circle
       style="fill:#008000;fill-rule:evenodd;stroke-width:0.0783114"
       id="circle1532"
       cx="25.1609"
       cy="11.059224"
       r="0.23493458">
      <title
         id="title1540">Southeast Corner Connector, SEC</title>
    </circle>
  </g>
</svg>
