<?xml version="1.0" encoding="UTF-8" standalone="no"?>
<svg
   xmlns:dc="http://purl.org/dc/elements/1.1/"
   xmlns:cc="http://creativecommons.org/ns#"
   xmlns:rdf="http://www.w3.org/1999/02/22-rdf-syntax-ns#"
   xmlns:svg="http://www.w3.org/2000/svg"
   xmlns="http://www.w3.org/2000/svg"
   width="13.283422"
   height="15"
   viewBox="0 0 3.5145718 3.9687501"
   version="1.1"
   id="svg8">
  <defs
     id="defs2" />
  <metadata
     id="metadata5">
    <rdf:RDF>
      <cc:Work
         rdf:about="">
        <dc:format>image/svg+xml</dc:format>
        <dc:type
           rdf:resource="http://purl.org/dc/dcmitype/StillImage" />
        <dc:title></dc:title>
      </cc:Work>
    </rdf:RDF>
  </metadata>
  <g
     id="layer1"
     transform="translate(-17.330512,-8.9769344)">
    <polygon
       points="8,18 12,18 8,22 8,40 4,40 4,22 0,18 4,18 4,4 0,0 12,0 8,4 "
       style="fill:#ff0000"
       id="polygon1656"
       transform="matrix(0.07322025,0,0,0.07322025,19.966441,9.7239935)">
      <title
         id="title1670">Down Vertical Head-to-Tail Mark, DVHT</title>
    </polygon>
    <g
       id="g1690"
       transform="matrix(0,-0.07322025,0.07322025,0,17.330512,11.62772)">
      <title
         id="title1686">Right Horizontal Mark, RH</title>
      <polygon
         points="8,40 4,40 4,4 0,0 12,0 8,4 "
         style="fill:#ff0000"
         id="polygon1688" />
    </g>
    <g
       id="g1707"
       transform="matrix(0,-0.07322025,0.07322025,0,17.330512,12.945684)">
      <title
         id="title1703">Right Horizontal Mark, RH</title>
      <polygon
         points="0,0 12,0 8,4 8,40 4,40 4,4 "
         style="fill:#ff0000"
         id="polygon1705" />
    </g>
    <g
       id="g1727"
       transform="matrix(0.05177454,-0.05177454,0.05177454,0.05177454,18.805687,9.5982288)">
      <title
         id="title1723">Right Down Diagonal Mark, RDD</title>
      <polygon
         points="4,4 0,0 12,0 8,4 8,25 4,25 "
         style="fill:#ff0000"
         id="polygon1725" />
    </g>
    <g
       id="g1744"
       transform="matrix(0.05177454,-0.05177454,0.05177454,0.05177454,18.257881,10.161791)">
      <title
         id="title1740">Right Down Diagonal Mark, RDD</title>
      <polygon
         points="8,4 8,25 4,25 4,4 0,0 12,0 "
         style="fill:#ff0000"
         id="polygon1742" />
    </g>
    <circle
       style="fill:#008000;fill-rule:evenodd;stroke-width:0.0732202"
       id="path839"
       cx="20.391117"
       cy="12.510547"
       r="0.21966074">
      <title
         id="title1774">Southeast Corner Connector, SEC</title>
    </circle>
    <circle
       style="fill:#008000;fill-rule:evenodd;stroke-width:0.0732202"
       id="circle1762"
       cx="20.404194"
       cy="11.163817"
       r="0.21966074">
      <title
         id="title1772">Right 2 Touch Connector, R2T</title>
    </circle>
    <circle
       style="fill:#008000;fill-rule:evenodd;stroke-width:0.0732202"
       id="circle1764"
       cx="20.351892"
       cy="10.47084"
       r="0.21966074">
      <title
         id="title1768">Other 2 Touch Connector, O2T</title>
    </circle>
    <circle
       style="fill:#008000;fill-rule:evenodd;stroke-width:0.0732202"
       id="circle1766"
       cx="19.798557"
       cy="11.163817"
       r="0.21966074">
      <title
         id="title1770">Other 2 Touch Connector, O2T</title>
    </circle>
  </g>
</svg>
