<?xml version="1.0" encoding="UTF-8" standalone="no"?>
<svg
   xmlns:dc="http://purl.org/dc/elements/1.1/"
   xmlns:cc="http://creativecommons.org/ns#"
   xmlns:rdf="http://www.w3.org/1999/02/22-rdf-syntax-ns#"
   xmlns:svg="http://www.w3.org/2000/svg"
   xmlns="http://www.w3.org/2000/svg"
   width="19.688185"
   height="15"
   viewBox="0 0 5.2091654 3.9687501"
   version="1.1"
   id="svg8">
  <defs
     id="defs2" />
  <metadata
     id="metadata5">
    <rdf:RDF>
      <cc:Work
         rdf:about="">
        <dc:format>image/svg+xml</dc:format>
        <dc:type
           rdf:resource="http://purl.org/dc/dcmitype/StillImage" />
        <dc:title></dc:title>
      </cc:Work>
    </rdf:RDF>
  </metadata>
  <g
     id="layer1"
     transform="translate(-17.947872,-7.6540182)">
    <polygon
       points="6,12 0,6 6,0 "
       style="fill:#ff0000"
       id="polygon1203"
       transform="matrix(0.09656258,0,0,0.09656258,17.947872,8.9386315)">
      <title
         id="title1217">Heel Mark, HE</title>
    </polygon>
    <g
       id="g1386"
       transform="matrix(0.09656258,0,0,0.09656258,21.998287,7.7602648)">
      <title
         id="title1382">Down Vertical Mark, DV</title>
      <polygon
         points="0,0 12,0 8,4 8,40 4,40 4,4 "
         style="fill:#ff0000"
         id="polygon1384" />
    </g>
    <g
       id="g1431"
       transform="matrix(0,-0.09656258,0.09656258,0,18.522033,11.619361)">
      <title
         id="title1427">Right Horizontal Mark, RH</title>
      <polygon
         points="8,40 4,40 4,4 0,0 12,0 8,4 "
         style="fill:#ff0000"
         id="polygon1429" />
    </g>
    <g
       id="g1437"
       transform="matrix(0,-0.09656258,0.09656258,0,18.53169,8.8127692)">
      <title
         id="title1433">Right Horizontal Mark, RH</title>
      <polygon
         points="4,40 4,4 0,0 12,0 8,4 8,40 "
         style="fill:#ff0000"
         id="polygon1435" />
    </g>
    <circle
       style="fill:#008000;fill-rule:evenodd;stroke-width:0.0965625"
       id="path839"
       cx="22.547659"
       cy="11.021639"
       r="0.28968775">
      <title
         id="title1419">Right 2 Touch Connector, R2T</title>
    </circle>
    <circle
       style="fill:#008000;fill-rule:evenodd;stroke-width:0.0965625"
       id="circle1415"
       cx="22.547659"
       cy="8.2247581"
       r="0.28968775">
      <title
         id="title1417">Northeast Corner Connector, NEC</title>
    </circle>
    <g
       id="g1457"
       transform="matrix(0,-0.09656258,0.09656258,0,19.978404,10.794716)">
      <title
         id="title1453">Right Horizontal Mark, RH</title>
      <polygon
         points="0,0 12,0 8,4 8,25 4,25 4,4 "
         style="fill:#ff0000"
         id="polygon1455" />
    </g>
    <g
       id="g1474"
       transform="matrix(0,-0.09656258,0.09656258,0,19.978404,9.6166527)">
      <title
         id="title1470">Right Horizontal Mark, RH</title>
      <polygon
         points="4,4 0,0 12,0 8,4 8,25 4,25 "
         style="fill:#ff0000"
         id="polygon1472" />
    </g>
    <circle
       style="fill:#008000;fill-rule:evenodd;stroke-width:0.0965625"
       id="circle1478"
       cx="22.564901"
       cy="10.211203"
       r="0.28968775">
      <title
         id="title1476">Right 2 Touch Connector, R2T</title>
    </circle>
    <circle
       style="fill:#008000;fill-rule:evenodd;stroke-width:0.0965625"
       id="circle1482"
       cx="22.54425"
       cy="9.0559006"
       r="0.28968775">
      <title
         id="title1480">Right 2 Touch Connector, R2T</title>
    </circle>
  </g>
</svg>
