<?xml version="1.0" encoding="UTF-8" standalone="no"?>
<svg
   xmlns:dc="http://purl.org/dc/elements/1.1/"
   xmlns:cc="http://creativecommons.org/ns#"
   xmlns:rdf="http://www.w3.org/1999/02/22-rdf-syntax-ns#"
   xmlns:svg="http://www.w3.org/2000/svg"
   xmlns="http://www.w3.org/2000/svg"
   width="26.926228"
   height="15"
   viewBox="0 0 7.1242308 3.9687501"
   version="1.1"
   id="svg8">
  <defs
     id="defs2" />
  <metadata
     id="metadata5">
    <rdf:RDF>
      <cc:Work
         rdf:about="">
        <dc:format>image/svg+xml</dc:format>
        <dc:type
           rdf:resource="http://purl.org/dc/dcmitype/StillImage" />
        <dc:title></dc:title>
      </cc:Work>
    </rdf:RDF>
  </metadata>
  <g
     id="layer1"
     transform="translate(-15.478435,-8.9296875)">
    <polygon
       points="0,6 6,0 6,12 "
       style="fill:#ff0000"
       id="polygon1203"
       transform="matrix(0.14109463,0,0,0.14109463,15.520784,8.9356735)">
      <title
         id="title1217">Heel Mark, HE</title>
    </polygon>
    <polygon
       points="0,6 6,0 6,12 "
       style="fill:#ff0000"
       id="polygon1825"
       transform="matrix(0.14109463,0,0,0.14109463,15.478435,11.192119)">
      <title
         id="title1823">Heel Mark, HE</title>
    </polygon>
    <polygon
       points="4,18 4,4 0,0 12,0 8,4 8,18 12,18 8,22 8,40 4,40 4,22 0,18 "
       style="fill:#ff0000"
       id="polygon1839"
       transform="matrix(0,-0.14109463,0.14109463,0,16.958881,10.622823)">
      <title
         id="title1855">Right Horizontal Head-to-Tail Mark, RHHT</title>
    </polygon>
    <polygon
       points="8,4 8,18 12,18 8,22 8,40 4,40 4,22 0,18 4,18 4,4 0,0 12,0 "
       style="fill:#ff0000"
       id="polygon1853"
       transform="matrix(0,-0.14109463,0.14109463,0,16.90849,12.898437)">
      <title
         id="title1857">Right Horizontal Head-to-Tail Mark, RHHT</title>
    </polygon>
  </g>
</svg>
