<?xml version="1.0" encoding="UTF-8" standalone="no"?>
<svg
   xmlns:dc="http://purl.org/dc/elements/1.1/"
   xmlns:cc="http://creativecommons.org/ns#"
   xmlns:rdf="http://www.w3.org/1999/02/22-rdf-syntax-ns#"
   xmlns:svg="http://www.w3.org/2000/svg"
   xmlns="http://www.w3.org/2000/svg"
   xmlns:sodipodi="http://sodipodi.sourceforge.net/DTD/sodipodi-0.dtd"
   xmlns:inkscape="http://www.inkscape.org/namespaces/inkscape"
   width="16.036579"
   height="15"
   viewBox="0 0 4.2430114 3.9687501"
   version="1.1"
   id="svg8"
   inkscape:version="1.0.2-2 (e86c870879, 2021-01-15)"
   sodipodi:docname="smallcdli223x.svg">
  <defs
     id="defs2" />
  <sodipodi:namedview
     id="base"
     pagecolor="#ffffff"
     bordercolor="#666666"
     borderopacity="1.0"
     inkscape:pageopacity="0.0"
     inkscape:pageshadow="2"
     inkscape:zoom="5.6"
     inkscape:cx="12.285439"
     inkscape:cy="24.418096"
     inkscape:document-units="px"
     inkscape:current-layer="layer1"
     inkscape:document-rotation="0"
     showgrid="false"
     units="px"
     inkscape:window-width="1755"
     inkscape:window-height="1020"
     inkscape:window-x="143"
     inkscape:window-y="0"
     inkscape:window-maximized="0" />
  <metadata
     id="metadata5">
    <rdf:RDF>
      <cc:Work
         rdf:about="">
        <dc:format>image/svg+xml</dc:format>
        <dc:type
           rdf:resource="http://purl.org/dc/dcmitype/StillImage" />
        <dc:title></dc:title>
      </cc:Work>
    </rdf:RDF>
  </metadata>
  <g
     inkscape:label="Layer 1"
     inkscape:groupmode="layer"
     id="layer1"
     transform="translate(-15.926857,-8.5989584)">
    <g
       id="g495"
       transform="matrix(0.04960937,0,0,0.04960937,15.926857,8.7825131)">
      <title
         id="title491">Down Vertical Mark, DV</title>
      <polygon
         points="4,72 4,4 0,0 12,0 8,4 8,72 "
         style="fill:#ff0000"
         id="polygon493" />
    </g>
    <g
       id="g512"
       transform="matrix(0.04960937,0,0,0.04960937,19.498711,8.7924349)">
      <title
         id="title508">Down Vertical Mark, DV</title>
      <polygon
         points="0,0 12,0 8,4 8,72 4,72 4,4 "
         style="fill:#ff0000"
         id="polygon510" />
    </g>
    <g
       id="g518"
       transform="matrix(0,-0.04960937,0.04960937,0,16.125294,9.1942709)">
      <title
         id="title514">Right Horizontal Mark, RH</title>
      <polygon
         points="8,4 8,72 4,72 4,4 0,0 12,0 "
         style="fill:#ff0000"
         id="polygon516" />
    </g>
    <g
       id="g524"
       transform="matrix(0,-0.04960937,0.04960937,0,16.125294,12.567708)">
      <title
         id="title520">Right Horizontal Mark, RH</title>
      <polygon
         points="0,0 12,0 8,4 8,72 4,72 4,4 "
         style="fill:#ff0000"
         id="polygon522" />
    </g>
    <g
       id="g376"
       transform="matrix(0.04960937,0,0,0.04960937,19.619212,8.7708194)">
      <title
         id="title372">Northeast Corner Connector, NEC</title>
      <circle
         cx="3"
         cy="3"
         r="3"
         style="fill:#008000"
         id="circle374" />
    </g>
    <g
       id="g423"
       transform="matrix(0.04960937,0,0,0.04960937,16.075685,8.7531017)">
      <title
         id="title419">Northwest Corner Connector, NWC</title>
      <circle
         cx="3"
         cy="3"
         r="3"
         style="fill:#008000"
         id="circle421" />
    </g>
    <g
       id="g417"
       transform="matrix(0.04960937,0,0,0.04960937,16.128838,12.128311)">
      <title
         id="title413">Southwest Corner Connector, SWC</title>
      <circle
         cx="3"
         cy="3"
         r="3"
         style="fill:#008000"
         id="circle415" />
    </g>
    <g
       id="g393"
       transform="matrix(0.04960937,0,0,0.04960937,19.645788,12.110594)">
      <title
         id="title389">Southeast Corner Connector, SEC</title>
      <circle
         cx="3"
         cy="3"
         r="3"
         style="fill:#008000"
         id="circle391" />
    </g>
    <polygon
       points="4,60 4,32 0,28 4,28 4,4 0,0 12,0 8,4 8,28 12,28 8,32 8,60 "
       style="fill:#ff0000"
       id="polygon609"
       transform="matrix(0.04960937,0,0,0.04960937,17.831503,9.1900044)">
      <title
         id="title735">Down Vertical Head-to-Tail Mark, DVHT</title>
    </polygon>
    <g
       id="g649"
       transform="matrix(0,-0.04960937,0.04960937,0,16.78473,9.7853169)">
      <title
         id="title645">Right Horizontal Mark, RH</title>
      <polygon
         points="4,25 4,4 0,0 12,0 8,4 8,25 "
         style="fill:#ff0000"
         id="polygon647" />
    </g>
    <g
       id="g666"
       transform="matrix(0,-0.04960937,0.04960937,0,16.790039,11.954678)">
      <title
         id="title662">Right Horizontal Mark, RH</title>
      <polygon
         points="4,4 0,0 12,0 8,4 8,25 4,25 "
         style="fill:#ff0000"
         id="polygon664" />
    </g>
    <g
       id="g672"
       transform="matrix(0,-0.04960937,0.04960937,0,16.790039,11.255193)">
      <title
         id="title668">Right Horizontal Mark, RH</title>
      <polygon
         points="4,4 0,0 12,0 8,4 8,25 4,25 "
         style="fill:#ff0000"
         id="polygon670" />
    </g>
    <g
       id="g678"
       transform="matrix(0,-0.04960937,0.04960937,0,16.789706,10.505)">
      <title
         id="title674">Right Horizontal Mark, RH</title>
      <polygon
         points="4,4 0,0 12,0 8,4 8,25 4,25 "
         style="fill:#ff0000"
         id="polygon676" />
    </g>
    <g
       id="g698"
       transform="matrix(0.04960937,0,0,0.04960937,17.971472,12.092876)">
      <title
         id="title694">Bottom 2 Touch Connector, B2T</title>
      <circle
         cx="3"
         cy="3"
         r="3"
         style="fill:#008000"
         id="circle696" />
    </g>
    <g
       id="g715"
       transform="matrix(0.04960937,0,0,0.04960937,17.962613,11.517053)">
      <title
         id="title711">Right 2 Touch Connector, R2T</title>
      <circle
         cx="3"
         cy="3"
         r="3"
         style="fill:#008000"
         id="circle713" />
    </g>
    <g
       id="g721"
       transform="matrix(0.04960937,0,0,0.04960937,17.962613,10.817206)">
      <title
         id="title717">Right 2 Touch Connector, R2T</title>
      <circle
         cx="3"
         cy="3"
         r="3"
         style="fill:#008000"
         id="circle719" />
    </g>
    <g
       id="g727"
       transform="matrix(0.04960937,0,0,0.04960937,17.980331,10.064207)">
      <title
         id="title723">Right 2 Touch Connector, R2T</title>
      <circle
         cx="3"
         cy="3"
         r="3"
         style="fill:#008000"
         id="circle725" />
    </g>
    <g
       id="g733"
       transform="matrix(0.04960937,0,0,0.04960937,17.944895,9.3555014)">
      <title
         id="title729">Northeast Corner Connector, NEC</title>
      <circle
         cx="3"
         cy="3"
         r="3"
         style="fill:#008000"
         id="circle731" />
    </g>
    <g
       id="g1113"
       transform="matrix(0.02480469,-0.04296298,0.04296298,0.02480469,18.897356,11.478761)">
      <title
         id="title1109">Right Down Diagonal Mark, RDD</title>
      <polygon
         points="8,25 4,25 4,4 0,0 12,0 8,4 "
         style="fill:#ff0000"
         id="polygon1111" />
    </g>
    <g
       id="g1130"
       transform="matrix(0.02480469,-0.04296298,0.04296298,0.02480469,18.891689,9.8487392)">
      <title
         id="title1126">Right Down Diagonal Mark, RDD</title>
      <polygon
         points="4,4 0,0 12,0 8,4 8,25 4,25 "
         style="fill:#ff0000"
         id="polygon1128" />
    </g>
    <g
       id="g1136"
       transform="matrix(0.02480469,-0.04296298,0.04296298,0.02480469,18.891689,10.610597)">
      <title
         id="title1132">Right Down Diagonal Mark, RDD</title>
      <polygon
         points="8,25 4,25 4,4 0,0 12,0 8,4 "
         style="fill:#ff0000"
         id="polygon1134" />
    </g>
    <g
       id="g1142"
       transform="matrix(0.04960937,0,0,0.04960937,19.645788,11.481617)">
      <title
         id="title1138">2 Cross Connector, 2c</title>
      <circle
         cx="3"
         cy="3"
         r="3"
         style="fill:#008000"
         id="circle1140" />
    </g>
    <g
       id="g1148"
       transform="matrix(0.04960937,0,0,0.04960937,19.645788,9.8693128)">
      <title
         id="title1144">2 Cross Connector, 2c</title>
      <circle
         cx="3"
         cy="3"
         r="3"
         style="fill:#008000"
         id="circle1146" />
    </g>
    <g
       id="g1154"
       transform="matrix(0.04960937,0,0,0.04960937,19.690082,10.648889)">
      <title
         id="title1150">2 Cross Connector, 2c</title>
      <circle
         cx="3"
         cy="3"
         r="3"
         style="fill:#008000"
         id="circle1152" />
    </g>
  </g>
</svg>
