<?xml version="1.0" encoding="UTF-8" standalone="no"?>
<svg
   xmlns:dc="http://purl.org/dc/elements/1.1/"
   xmlns:cc="http://creativecommons.org/ns#"
   xmlns:rdf="http://www.w3.org/1999/02/22-rdf-syntax-ns#"
   xmlns:svg="http://www.w3.org/2000/svg"
   xmlns="http://www.w3.org/2000/svg"
   width="25.143036"
   height="15"
   viewBox="0 0 6.652428 3.9687501"
   version="1.1"
   id="svg8">
  <defs
     id="defs2" />
  <metadata
     id="metadata5">
    <rdf:RDF>
      <cc:Work
         rdf:about="">
        <dc:format>image/svg+xml</dc:format>
        <dc:type
           rdf:resource="http://purl.org/dc/dcmitype/StillImage" />
        <dc:title></dc:title>
      </cc:Work>
    </rdf:RDF>
  </metadata>
  <g
     id="layer1"
     transform="translate(-15.761584,-9.2604166)">
    <polygon
       points="4,4 0,0 12,0 8,4 8,35 12,40 0,40 4,35 "
       style="fill:#ff0000"
       id="polygon1171"
       transform="matrix(0,-0.1370222,0.1370222,0,16.908656,10.904683)">
      <title
         id="title1185">Right Horizontal Barbell Mark, RHBB</title>
    </polygon>
    <polygon
       points="0,0 12,0 8,4 8,35 12,40 0,40 4,35 4,4 "
       style="fill:#ff0000"
       id="polygon1189"
       transform="matrix(0,-0.1370222,0.1370222,0,16.933124,13.229167)">
      <title
         id="title1187">Right Horizontal Barbell Mark, RHBB</title>
    </polygon>
    <polygon
       points="0,6 6,0 6,12 "
       style="fill:#ff0000"
       id="polygon1203"
       transform="matrix(0.1370222,0,0,0.1370222,15.761584,10.417334)">
      <title
         id="title1217">Heel Mark, HE</title>
    </polygon>
  </g>
</svg>
