<?xml version="1.0" encoding="UTF-8" standalone="no"?>
<svg
   xmlns:dc="http://purl.org/dc/elements/1.1/"
   xmlns:cc="http://creativecommons.org/ns#"
   xmlns:rdf="http://www.w3.org/1999/02/22-rdf-syntax-ns#"
   xmlns:svg="http://www.w3.org/2000/svg"
   xmlns="http://www.w3.org/2000/svg"
   width="25.845697"
   height="15"
   viewBox="0 0 6.8383406 3.9687501"
   version="1.1"
   id="svg8">
  <defs
     id="defs2" />
  <metadata
     id="metadata5">
    <rdf:RDF>
      <cc:Work
         rdf:about="">
        <dc:format>image/svg+xml</dc:format>
        <dc:type
           rdf:resource="http://purl.org/dc/dcmitype/StillImage" />
        <dc:title></dc:title>
      </cc:Work>
    </rdf:RDF>
  </metadata>
  <g
     id="layer1"
     transform="translate(-18.881425,-8.7406994)">
    <g
       id="g1108"
       transform="matrix(0,-0.09921875,0.09921875,0,23.239297,11.281394)">
      <title
         id="title1104">Right Horizontal Mark, RH</title>
      <polygon
         points="4,25 4,4 0,0 12,0 8,4 8,25 "
         style="fill:#ff0000"
         id="polygon1106" />
    </g>
    <g
       id="g1114"
       transform="matrix(0.09921875,0,0,0.09921875,20.429989,9.9433866)">
      <title
         id="title1110">Down Vertical Mark, DV</title>
      <polygon
         points="8,25 4,25 4,4 0,0 12,0 8,4 "
         style="fill:#ff0000"
         id="polygon1112" />
    </g>
    <g
       id="g1120"
       transform="matrix(0,-0.09921875,0.09921875,0,18.881425,9.9313244)">
      <title
         id="title1116">Right Horizontal Mark, RH</title>
      <polygon
         points="12,0 8,4 8,40 4,40 4,4 0,0 "
         style="fill:#ff0000"
         id="polygon1118" />
    </g>
    <g
       id="g1130"
       transform="matrix(0.09921875,0,0,0.09921875,22.4533,8.7406994)">
      <title
         id="title1126">Down Vertical Mark, DV</title>
      <polygon
         points="4,40 4,4 0,0 12,0 8,4 8,40 "
         style="fill:#ff0000"
         id="polygon1128" />
    </g>
    <circle
       style="fill:#008000;fill-rule:evenodd;stroke-width:0.0992186"
       id="circle1134"
       cx="22.899826"
       cy="9.3714466"
       r="0.29765624">
      <title
         id="title1132">Northeast Corner Connector, NEC</title>
    </circle>
    <g
       id="g1140"
       transform="matrix(0,-0.09921875,0.09921875,0,18.934577,12.464946)">
      <title
         id="title1136">Right Horizontal Mark, RH</title>
      <polygon
         points="4,40 4,4 0,0 12,0 8,4 8,40 "
         style="fill:#ff0000"
         id="polygon1138" />
    </g>
    <circle
       style="fill:#008000;fill-rule:evenodd;stroke-width:0.0992186"
       id="circle1078"
       cx="22.864391"
       cy="11.851915"
       r="0.29765624">
      <title
         id="title1092">Right 2 Touch Connector, R2T</title>
    </circle>
    <circle
       style="fill:#008000;fill-rule:evenodd;stroke-width:0.0992186"
       id="circle1080"
       cx="23.27323"
       cy="10.647117"
       r="0.29765624">
      <title
         id="title1094">Left 2 Touch Connector, L2T</title>
    </circle>
    <circle
       style="fill:#008000;fill-rule:evenodd;stroke-width:0.0992186"
       id="circle1144"
       cx="21.039474"
       cy="11.81648"
       r="0.29765624">
      <title
         id="title1142">2 Cross Connector, 2C</title>
    </circle>
  </g>
</svg>
