<?xml version="1.0" encoding="UTF-8" standalone="no"?>
<svg
   xmlns:dc="http://purl.org/dc/elements/1.1/"
   xmlns:cc="http://creativecommons.org/ns#"
   xmlns:rdf="http://www.w3.org/1999/02/22-rdf-syntax-ns#"
   xmlns:svg="http://www.w3.org/2000/svg"
   xmlns="http://www.w3.org/2000/svg"
   width="23.75"
   height="15"
   viewBox="0 0 6.283854 3.9687501"
   version="1.1"
   id="svg8">
  <defs
     id="defs2" />
  <metadata
     id="metadata5">
    <rdf:RDF>
      <cc:Work
         rdf:about="">
        <dc:format>image/svg+xml</dc:format>
        <dc:type
           rdf:resource="http://purl.org/dc/dcmitype/StillImage" />
        <dc:title></dc:title>
      </cc:Work>
    </rdf:RDF>
  </metadata>
  <g
     id="layer1"
     transform="translate(-20.670573,-8.8824404)">
    <g
       id="g34"
       transform="matrix(0,-0.08268229,0.08268229,0,20.670573,12.85119)">
      <title
         id="title30">Right Horizontal Mark, RH</title>
      <polygon
         points="12,0 8,4 8,72 4,72 4,4 0,0 "
         style="fill:#ff0000"
         id="polygon32" />
    </g>
    <g
       id="g65"
       transform="matrix(0.08268229,0,0,0.08268229,25.96224,8.8824404)">
      <title
         id="title61">Down Vertical Mark, DV</title>
      <polygon
         points="8,4 8,40 4,40 4,4 0,0 12,0 "
         style="fill:#ff0000"
         id="polygon63" />
    </g>
    <g
       id="g82"
       transform="matrix(0.08268229,0,0,0.08268229,20.670573,8.8824404)">
      <title
         id="title78">Down Vertical Mark, DV</title>
      <polygon
         points="4,4 0,0 12,0 8,4 8,40 4,40 "
         style="fill:#ff0000"
         id="polygon80" />
    </g>
    <g
       id="g88"
       transform="matrix(0.08268229,0,0,0.08268229,22.183068,8.897205)">
      <title
         id="title84">Down Vertical Mark, DV</title>
      <polygon
         points="8,40 4,40 4,4 0,0 12,0 8,4 "
         style="fill:#ff0000"
         id="polygon86" />
    </g>
    <polygon
       points="8,35 12,40 0,40 4,35 4,4 0,0 12,0 8,4 "
       style="fill:#ff0000"
       id="polygon102"
       transform="matrix(0,-0.08268229,0.08268229,0,22.842129,10.595712)">
      <title
         id="title191">Right Horizontal Barbell Mark, RHBB</title>
    </polygon>
    <polygon
       points="0,6 6,0 6,12 "
       style="fill:#ff0000"
       id="polygon128"
       transform="matrix(0.08268229,0,0,0.08268229,21.612561,11.106003)">
      <title
         id="title193">Heel Mark, HE</title>
    </polygon>
    <g
       id="g160"
       transform="matrix(0.08268229,0,0,0.08268229,26.23391,12.121814)">
      <title
         id="title156">Southeast Corner Connector, SEC</title>
      <circle
         cx="3"
         cy="3"
         r="3"
         style="fill:#008000"
         id="circle158" />
    </g>
    <g
       id="g177"
       transform="matrix(0.08268229,0,0,0.08268229,22.542737,9.8628159)">
      <title
         id="title173">Left 2 Touch, L2T</title>
      <circle
         cx="3"
         cy="3"
         r="3"
         style="fill:#008000"
         id="circle175" />
    </g>
    <g
       id="g183"
       transform="matrix(0.08268229,0,0,0.08268229,22.439384,12.07752)">
      <title
         id="title179">Bottom 2 Touch Connector, B2T</title>
      <circle
         cx="3"
         cy="3"
         r="3"
         style="fill:#008000"
         id="circle181" />
    </g>
    <g
       id="g189"
       transform="matrix(0.08268229,0,0,0.08268229,20.889091,12.121814)">
      <title
         id="title185">Southwest Corner Connector, SWC</title>
      <circle
         cx="3"
         cy="3"
         r="3"
         style="fill:#008000"
         id="circle187" />
    </g>
  </g>
</svg>
