<?xml version="1.0" encoding="UTF-8" standalone="no"?>
<svg
   xmlns:dc="http://purl.org/dc/elements/1.1/"
   xmlns:cc="http://creativecommons.org/ns#"
   xmlns:rdf="http://www.w3.org/1999/02/22-rdf-syntax-ns#"
   xmlns:svg="http://www.w3.org/2000/svg"
   xmlns="http://www.w3.org/2000/svg"
   width="21.936697"
   height="15"
   viewBox="0 0 5.8040842 3.9687501"
   version="1.1"
   id="svg8">
  <defs
     id="defs2" />
  <metadata
     id="metadata5">
    <rdf:RDF>
      <cc:Work
         rdf:about="">
        <dc:format>image/svg+xml</dc:format>
        <dc:type
           rdf:resource="http://purl.org/dc/dcmitype/StillImage" />
        <dc:title></dc:title>
      </cc:Work>
    </rdf:RDF>
  </metadata>
  <g
     id="layer1"
     transform="translate(-17.461425,-8.5044643)">
    <g
       id="g857"
       transform="matrix(0.07843357,0,0,0.07843357,21.045851,9.3358714)">
      <title
         id="title853">Down Vertical Mark, DV</title>
      <polygon
         points="12,0 8,4 8,40 4,40 4,4 0,0 "
         style="fill:#ff0000"
         id="polygon855" />
    </g>
    <polygon
       points="8,35 12,40 0,40 4,35 4,4 0,0 12,0 8,4 "
       style="fill:#ff0000"
       id="polygon1000"
       transform="matrix(0,-0.07843357,0.07843357,0,17.775159,10.073136)">
      <title
         id="title1074">Right Horizontal Barbell Mark, RHBB</title>
    </polygon>
    <polygon
       points="12,40 0,40 4,35 4,4 0,0 12,0 8,4 8,35 "
       style="fill:#ff0000"
       id="polygon1014"
       transform="matrix(0,-0.07843357,0.07843357,0,17.775159,11.014339)">
      <title
         id="title1076">Right Horizontal Barbell Mark, RHBB</title>
    </polygon>
    <polygon
       points="0,0 12,0 8,4 8,35 12,35 8,39 8,74 4,74 4,39 0,35 4,35 4,4 "
       style="fill:#ff0000"
       id="polygon1054"
       transform="matrix(0,-0.07843357,0.07843357,0,17.461425,9.4456671)">
      <title
         id="title1070">Right Horizontal Head-to-Tail Mark, RHHT</title>
    </polygon>
    <polygon
       points="12,0 8,4 8,35 12,35 8,39 8,74 4,74 4,39 0,35 4,35 4,4 0,0 "
       style="fill:#ff0000"
       id="polygon1068"
       transform="matrix(0,-0.07843357,0.07843357,0,17.461425,11.641807)">
      <title
         id="title1072">Right Horizontal Head-to-Tail Mark, RHHT</title>
    </polygon>
    <circle
       style="fill:#008000;fill-rule:evenodd;stroke-width:0.0784335"
       id="path839"
       cx="21.508608"
       cy="11.168405"
       r="0.23530072">
      <title
         id="title946">2 Cross Connector, 2C</title>
    </circle>
  </g>
</svg>
