<?xml version="1.0" encoding="UTF-8" standalone="no"?>
<svg
   xmlns:dc="http://purl.org/dc/elements/1.1/"
   xmlns:cc="http://creativecommons.org/ns#"
   xmlns:rdf="http://www.w3.org/1999/02/22-rdf-syntax-ns#"
   xmlns:svg="http://www.w3.org/2000/svg"
   xmlns="http://www.w3.org/2000/svg"
   width="18.267328"
   height="15"
   viewBox="0 0 4.8332305 3.9687501"
   version="1.1"
   id="svg8">
  <defs
     id="defs2" />
  <metadata
     id="metadata5">
    <rdf:RDF>
      <cc:Work
         rdf:about="">
        <dc:format>image/svg+xml</dc:format>
        <dc:type
           rdf:resource="http://purl.org/dc/dcmitype/StillImage" />
        <dc:title></dc:title>
      </cc:Work>
    </rdf:RDF>
  </metadata>
  <g
     id="layer1"
     transform="translate(-16.812923,-8.220982)">
    <g
       id="g874"
       transform="matrix(0,-0.05239274,0.05239274,0,19.131302,9.0461677)">
      <title
         id="title870">Right Horizontal Mark, RH</title>
      <polygon
         points="4,40 4,4 0,0 12,0 8,4 8,40 "
         style="fill:#ff0000"
         id="polygon872" />
    </g>
    <g
       id="g880"
       transform="matrix(0,-0.05239274,0.05239274,0,19.121946,9.9050343)">
      <title
         id="title876">Right Horizontal Mark, RH</title>
      <polygon
         points="4,40 4,4 0,0 12,0 8,4 8,40 "
         style="fill:#ff0000"
         id="polygon878" />
    </g>
    <g
       id="g886"
       transform="matrix(0,-0.05239274,0.05239274,0,19.121946,10.73022)">
      <title
         id="title882">Right Horizontal Mark, RH</title>
      <polygon
         points="12,0 8,4 8,40 4,40 4,4 0,0 "
         style="fill:#ff0000"
         id="polygon884" />
    </g>
    <g
       id="g892"
       transform="matrix(0,-0.05239274,0.05239274,0,19.110719,11.553535)">
      <title
         id="title888">Right Horizontal Mark, RH</title>
      <polygon
         points="12,0 8,4 8,40 4,40 4,4 0,0 "
         style="fill:#ff0000"
         id="polygon890" />
    </g>
    <g
       id="g918"
       transform="matrix(0.05239274,0,0,0.05239274,21.017441,8.4174549)">
      <title
         id="title914">Down Vertical Mark, DV</title>
      <polygon
         points="0,0 12,0 8,4 8,72 4,72 4,4 "
         style="fill:#ff0000"
         id="polygon916" />
    </g>
    <g
       id="g935"
       transform="matrix(0.05239274,0,0,0.05239274,17.598043,8.3987432)">
      <title
         id="title931">Down Vertical Mark, DV</title>
      <polygon
         points="8,4 8,72 4,72 4,4 0,0 12,0 "
         style="fill:#ff0000"
         id="polygon933" />
    </g>
    <polygon
       points="12,0 8,4 8,35 12,40 0,40 4,35 4,4 0,0 "
       style="fill:#ff0000"
       id="polygon949"
       transform="matrix(0,-0.05239274,0.05239274,0,16.812923,10.402765)">
      <title
         id="title991">Right Horizontal Barbell, RHBB</title>
    </polygon>
    <polygon
       points="0,6 6,0 6,12 "
       style="fill:#ff0000"
       id="polygon975"
       transform="matrix(0.05239274,0,0,0.05239274,18.442712,8.220982)">
      <title
         id="title989">Heel Mark, HE</title>
    </polygon>
    <circle
       style="fill:#008000;fill-rule:evenodd;stroke-width:0.0523927"
       id="path839"
       cx="21.275661"
       cy="11.229822"
       r="0.15717821">
      <title
         id="title1017">Right 2 Touch Connector, R2T</title>
    </circle>
    <circle
       style="fill:#008000;fill-rule:evenodd;stroke-width:0.0523927"
       id="circle1009"
       cx="21.285019"
       cy="10.397152"
       r="0.15717821">
      <title
         id="title1021">Right 2 Touch Connector, R2T</title>
    </circle>
    <circle
       style="fill:#008000;fill-rule:evenodd;stroke-width:0.0523927"
       id="circle1011"
       cx="21.266306"
       cy="9.5738373"
       r="0.15717821">
      <title
         id="title1019">Right 2 Touch Connector, R2T</title>
    </circle>
    <circle
       style="fill:#008000;fill-rule:evenodd;stroke-width:0.0523927"
       id="circle1013"
       cx="21.30373"
       cy="8.7505226"
       r="0.15717821">
      <title
         id="title1023">Northeast Corner Connector, NEC</title>
    </circle>
    <circle
       style="fill:#008000;fill-rule:evenodd;stroke-width:0.0523927"
       id="circle1015"
       cx="17.916914"
       cy="10.097765"
       r="0.15717821">
      <title
         id="title1025">2 Cross Connector, 2C</title>
    </circle>
  </g>
</svg>
