<?xml version="1.0" encoding="UTF-8" standalone="no"?>
<svg
   xmlns:dc="http://purl.org/dc/elements/1.1/"
   xmlns:cc="http://creativecommons.org/ns#"
   xmlns:rdf="http://www.w3.org/1999/02/22-rdf-syntax-ns#"
   xmlns:svg="http://www.w3.org/2000/svg"
   xmlns="http://www.w3.org/2000/svg"
   width="24.769764"
   height="15"
   viewBox="0 0 6.5536665 3.9687501"
   version="1.1"
   id="svg8">
  <defs
     id="defs2" />
  <metadata
     id="metadata5">
    <rdf:RDF>
      <cc:Work
         rdf:about="">
        <dc:format>image/svg+xml</dc:format>
        <dc:type
           rdf:resource="http://purl.org/dc/dcmitype/StillImage" />
        <dc:title></dc:title>
      </cc:Work>
    </rdf:RDF>
  </metadata>
  <g
     id="layer1"
     transform="translate(-16.566917,-7.5122769)">
    <g
       id="g857"
       transform="matrix(0,-0.13363476,0.13363476,0,16.566917,11.007569)">
      <title
         id="title853">Right Horizontal Mark, RH</title>
      <polygon
         points="0,0 12,0 8,4 8,25 4,25 4,4 "
         style="fill:#ff0000"
         id="polygon855" />
    </g>
    <g
       id="g874"
       transform="matrix(0.09449405,-0.09449405,0.09449405,0.09449405,19.151833,10.914063)">
      <title
         id="title870">Right Down Diagonal Mark, RDD</title>
      <polygon
         points="4,10 4,4 0,0 12,0 8,4 8,10 "
         style="fill:#ff0000"
         id="polygon872" />
    </g>
    <circle
       style="fill:#008000;fill-rule:evenodd;stroke-width:0.133635"
       id="path839"
       cx="19.645288"
       cy="10.27735"
       r="0.4009043">
      <title
         id="title932">Other 2 Touch Connector, O2T</title>
    </circle>
    <polygon
       points="0,6 6,0 6,12 "
       style="fill:#ff0000"
       id="polygon916"
       transform="matrix(0.13363476,0,0,0.13363476,19.16323,8.0562832)">
      <title
         id="title930">Heel Mark, HE</title>
    </polygon>
    <g
       id="g969"
       transform="matrix(0.09449405,-0.09449405,0.09449405,0.09449405,20.285762,9.7801341)">
      <title
         id="title965">Right Down Diagonal Mark, RDD</title>
      <polygon
         points="12,0 8,4 8,10 4,10 4,4 0,0 "
         style="fill:#ff0000"
         id="polygon967" />
    </g>
    <g
       id="g975"
       transform="matrix(0.09449405,-0.09449405,0.09449405,0.09449405,21.41969,8.6462055)">
      <title
         id="title971">Right Down Diagonal Mark, RDD</title>
      <polygon
         points="4,10 4,4 0,0 12,0 8,4 8,10 "
         style="fill:#ff0000"
         id="polygon973" />
    </g>
  </g>
</svg>
