<?xml version="1.0" encoding="UTF-8" standalone="no"?>
<svg
   xmlns:dc="http://purl.org/dc/elements/1.1/"
   xmlns:cc="http://creativecommons.org/ns#"
   xmlns:rdf="http://www.w3.org/1999/02/22-rdf-syntax-ns#"
   xmlns:svg="http://www.w3.org/2000/svg"
   xmlns="http://www.w3.org/2000/svg"
   width="23.268805"
   height="15"
   viewBox="0 0 6.1565377 3.9687501"
   version="1.1"
   id="svg8">
  <defs
     id="defs2" />
  <metadata
     id="metadata5">
    <rdf:RDF>
      <cc:Work
         rdf:about="">
        <dc:format>image/svg+xml</dc:format>
        <dc:type
           rdf:resource="http://purl.org/dc/dcmitype/StillImage" />
        <dc:title></dc:title>
      </cc:Work>
    </rdf:RDF>
  </metadata>
  <g
     id="layer1"
     transform="translate(-19.364067,-8.7406992)">
    <polygon
       points="6,12 0,6 6,0 "
       style="fill:#ff0000"
       id="polygon1260"
       transform="matrix(0.09921875,0,0,0.09921875,19.364067,9.3346228)">
      <title
         id="title1315">Heel Mark, HE</title>
    </polygon>
    <polygon
       points="0,6 6,0 6,12 "
       style="fill:#ff0000"
       id="polygon1274"
       transform="matrix(0.09921875,0,0,0.09921875,19.364067,10.525248)">
      <title
         id="title1317">Heel Mark, HE</title>
    </polygon>
    <polygon
       points="6,12 0,6 6,0 "
       style="fill:#ff0000"
       id="polygon1276"
       transform="matrix(0.09921875,0,0,0.09921875,19.984184,9.3424609)">
      <title
         id="title1313">Heel Mark, HE</title>
    </polygon>
    <polygon
       points="0,6 6,0 6,12 "
       style="fill:#ff0000"
       id="polygon1278"
       transform="matrix(0.09921875,0,0,0.09921875,19.984184,10.533086)">
      <title
         id="title1311">Heel Mark, HE</title>
    </polygon>
    <g
       id="g1431"
       transform="matrix(0.09921875,0,0,0.09921875,22.300942,10.114936)">
      <title
         id="title1427">Down Vertical Mark, DV</title>
      <polygon
         points="4,4 0,0 12,0 8,4 8,25 4,25 "
         style="fill:#ff0000"
         id="polygon1429" />
    </g>
    <polygon
       points="0,18 4,18 4,4 0,0 12,0 8,4 8,18 12,18 8,22 8,40 4,40 4,22 "
       style="fill:#ff0000"
       id="polygon1445"
       transform="matrix(0.09921875,0,0,0.09921875,24.32998,8.7406992)">
      <title
         id="title1508">Down Vertical Head-to-Tail Mark, DVHT</title>
    </polygon>
    <g
       id="g1477"
       transform="matrix(0,-0.09921875,0.09921875,0,20.758105,10.159527)">
      <title
         id="title1473">Right Horizontal Mark, RH</title>
      <polygon
         points="4,4 0,0 12,0 8,4 8,40 4,40 "
         style="fill:#ff0000"
         id="polygon1475" />
    </g>
    <g
       id="g1494"
       transform="matrix(0,-0.09921875,0.09921875,0,20.767332,12.108481)">
      <title
         id="title1490">Right Horizontal Mark, RH</title>
      <polygon
         points="4,40 4,4 0,0 12,0 8,4 8,40 "
         style="fill:#ff0000"
         id="polygon1492" />
    </g>
    <circle
       style="fill:#008000;fill-rule:evenodd;stroke-width:0.0992186"
       id="circle1498"
       cx="24.906143"
       cy="11.54224"
       r="0.29765624">
      <title
         id="title1496">Right 2 Touch Connector, R2T</title>
    </circle>
    <circle
       style="fill:#008000;fill-rule:evenodd;stroke-width:0.0992186"
       id="circle1502"
       cx="22.886333"
       cy="11.54224"
       r="0.29765624">
      <title
         id="title1500">2  Cross Connector, 2C</title>
    </circle>
    <circle
       style="fill:#008000;fill-rule:evenodd;stroke-width:0.0992186"
       id="circle1506"
       cx="24.852989"
       cy="9.5401478"
       r="0.29765624">
      <title
         id="title1504">Right 2 Touch Connector, R2T</title>
    </circle>
  </g>
</svg>
