<?xml version="1.0" encoding="UTF-8" standalone="no"?>
<svg
   xmlns:dc="http://purl.org/dc/elements/1.1/"
   xmlns:cc="http://creativecommons.org/ns#"
   xmlns:rdf="http://www.w3.org/1999/02/22-rdf-syntax-ns#"
   xmlns:svg="http://www.w3.org/2000/svg"
   xmlns="http://www.w3.org/2000/svg"
   width="10.8"
   height="15"
   viewBox="0 0 2.8575 3.9687501"
   version="1.1"
   id="svg8">
  <defs
     id="defs2" />
  <metadata
     id="metadata5">
    <rdf:RDF>
      <cc:Work
         rdf:about="">
        <dc:format>image/svg+xml</dc:format>
        <dc:type
           rdf:resource="http://purl.org/dc/dcmitype/StillImage" />
        <dc:title></dc:title>
      </cc:Work>
    </rdf:RDF>
  </metadata>
  <g
     id="layer1"
     transform="translate(-16.336131,-8.3627231)">
    <g
       id="g34"
       transform="matrix(0.079375,0,0,0.079375,16.336131,8.3627231)">
      <title
         id="title30">Down Vertical Mark, DV</title>
      <polygon
         points="12,0 8,4 8,25 4,25 4,4 0,0 "
         style="fill:#ff0000"
         id="polygon32" />
    </g>
    <g
       id="g51"
       transform="matrix(0.079375,0,0,0.079375,17.288631,8.3627231)">
      <title
         id="title47">Down Vertical Mark, DV</title>
      <polygon
         points="4,25 4,4 0,0 12,0 8,4 8,25 "
         style="fill:#ff0000"
         id="polygon49" />
    </g>
    <g
       id="g57"
       transform="matrix(0.079375,0,0,0.079375,18.241131,8.3627231)">
      <title
         id="title53">Down Vertical Mark, DV</title>
      <polygon
         points="4,4 0,0 12,0 8,4 8,25 4,25 "
         style="fill:#ff0000"
         id="polygon55" />
    </g>
    <g
       id="g63"
       transform="matrix(0.079375,0,0,0.079375,16.836204,10.347098)">
      <title
         id="title59">Down Vertical Mark, DV</title>
      <polygon
         points="8,25 4,25 4,4 0,0 12,0 8,4 "
         style="fill:#ff0000"
         id="polygon61" />
    </g>
    <g
       id="g69"
       transform="matrix(0.079375,0,0,0.079375,17.733142,10.347098)">
      <title
         id="title65">Down Vertical Mark, DV</title>
      <polygon
         points="8,25 4,25 4,4 0,0 12,0 8,4 "
         style="fill:#ff0000"
         id="polygon67" />
    </g>
    <g
       id="g89"
       transform="matrix(0.079375,0,0,0.079375,18.00584,10.094799)">
      <title
         id="title85">Vertical 2 Touch Connector, V2T</title>
      <circle
         cx="3"
         cy="3"
         r="3"
         style="fill:#008000"
         id="circle87" />
    </g>
    <g
       id="g106"
       transform="matrix(0.079375,0,0,0.079375,17.098698,10.080625)">
      <title
         id="title102">Vertical 2 Touch Connector, V2T</title>
      <circle
         cx="3"
         cy="3"
         r="3"
         style="fill:#008000"
         id="circle104" />
    </g>
  </g>
</svg>
