<?xml version="1.0" encoding="UTF-8" standalone="no"?>
<svg
   xmlns:dc="http://purl.org/dc/elements/1.1/"
   xmlns:cc="http://creativecommons.org/ns#"
   xmlns:rdf="http://www.w3.org/1999/02/22-rdf-syntax-ns#"
   xmlns:svg="http://www.w3.org/2000/svg"
   xmlns="http://www.w3.org/2000/svg"
   width="42.311016"
   height="15"
   viewBox="0 0 11.194789 3.9687501"
   version="1.1"
   id="svg8">
  <defs
     id="defs2" />
  <metadata
     id="metadata5">
    <rdf:RDF>
      <cc:Work
         rdf:about="">
        <dc:format>image/svg+xml</dc:format>
        <dc:type
           rdf:resource="http://purl.org/dc/dcmitype/StillImage" />
        <dc:title></dc:title>
      </cc:Work>
    </rdf:RDF>
  </metadata>
  <g
     id="layer1"
     transform="translate(-15.002307,-8.6934524)">
    <g
       id="g1175"
       transform="matrix(0.09022848,0,0,0.09022848,16.946125,10.143553)">
      <title
         id="title1171">Down Vertical Mark, DV</title>
      <polygon
         points="12,0 8,4 8,25 4,25 4,4 0,0 "
         style="fill:#ff0000"
         id="polygon1173" />
    </g>
    <polygon
       points="8,35 12,40 0,40 4,35 4,4 0,0 12,0 8,4 "
       style="fill:#ff0000"
       id="polygon1210"
       transform="matrix(0,-0.09022847,0.09022847,0,15.077738,12.267181)">
      <title
         id="title1234">Right Horizontal Barbell Mark, RHBB</title>
    </polygon>
    <g
       id="g1228"
       transform="matrix(0.09022848,0,0,0.09022848,15.863384,10.143553)">
      <title
         id="title1224">Down Vertical Mark, DV</title>
      <polygon
         points="4,25 4,4 0,0 12,0 8,4 8,25 "
         style="fill:#ff0000"
         id="polygon1226" />
    </g>
    <polygon
       points="4,35 4,4 0,0 12,0 8,4 8,35 12,40 0,40 "
       style="fill:#ff0000"
       id="polygon1230"
       transform="matrix(0,-0.09022847,0.09022847,0,15.002307,9.8386828)">
      <title
         id="title1232">Right Horizontal Barbell Mark, RHBB</title>
    </polygon>
    <circle
       style="fill:#008000;fill-rule:evenodd;stroke-width:0.0902284"
       id="circle1101"
       cx="16.414383"
       cy="11.682592"
       r="0.27068543">
      <title
         id="title1105">2 Cross Connector, 2C</title>
    </circle>
    <circle
       style="fill:#008000;fill-rule:evenodd;stroke-width:0.0902284"
       id="circle1196"
       cx="17.480343"
       cy="11.673569"
       r="0.27068543">
      <title
         id="title1194">2 Cross Connector, 2C</title>
    </circle>
    <g
       id="g1271"
       transform="matrix(0,-0.09022847,0.09022847,0,19.02071,12.601027)">
      <title
         id="title1267">Right Horizontal Mark, RH</title>
      <polygon
         points="12,0 8,4 8,72 4,72 4,4 0,0 "
         style="fill:#ff0000"
         id="polygon1269" />
    </g>
    <g
       id="g1291"
       transform="matrix(0.09022847,0,0,0.09022847,19.152817,9.0530635)">
      <title
         id="title1287">Down Vertical Mark, DV</title>
      <polygon
         points="4,40 4,4 0,0 12,0 8,4 8,40 "
         style="fill:#ff0000"
         id="polygon1289" />
    </g>
    <g
       id="g1308"
       transform="matrix(0.09022847,0,0,0.09022847,20.27165,9.0530635)">
      <title
         id="title1304">Down Vertical Mark, DV</title>
      <polygon
         points="8,40 4,40 4,4 0,0 12,0 8,4 "
         style="fill:#ff0000"
         id="polygon1306" />
    </g>
    <g
       id="g1314"
       transform="matrix(0.09022847,0,0,0.09022847,25.114355,9.0530635)">
      <title
         id="title1310">Down Vertical Mark, DV</title>
      <polygon
         points="8,4 8,40 4,40 4,4 0,0 12,0 "
         style="fill:#ff0000"
         id="polygon1312" />
    </g>
    <g
       id="g1320"
       transform="matrix(0.09022847,0,0,0.09022847,24.031613,9.0530635)">
      <title
         id="title1316">Down Vertical Mark, DV</title>
      <polygon
         points="4,4 0,0 12,0 8,4 8,40 4,40 "
         style="fill:#ff0000"
         id="polygon1318" />
    </g>
    <g
       id="g1326"
       transform="matrix(0,-0.09022848,0.09022848,0,22.208379,11.941678)">
      <title
         id="title1322">Right Horizontal Mark, RH</title>
      <polygon
         points="8,4 8,25 4,25 4,4 0,0 12,0 "
         style="fill:#ff0000"
         id="polygon1324" />
    </g>
    <g
       id="g1332"
       transform="matrix(0,-0.09022848,0.09022848,0,22.208379,10.858936)">
      <title
         id="title1328">Right Horizontal Mark, RH</title>
      <polygon
         points="4,4 0,0 12,0 8,4 8,25 4,25 "
         style="fill:#ff0000"
         id="polygon1330" />
    </g>
    <g
       id="g1338"
       transform="matrix(0,-0.09022848,0.09022848,0,22.208379,9.7761942)">
      <title
         id="title1334">Right Horizontal Mark, RH</title>
      <polygon
         points="8,4 8,25 4,25 4,4 0,0 12,0 "
         style="fill:#ff0000"
         id="polygon1336" />
    </g>
    <circle
       style="fill:#008000;fill-rule:evenodd;stroke-width:0.0902284"
       id="path839"
       cx="19.68327"
       cy="12.039639"
       r="0.27068543">
      <title
         id="title1380">2 Cross Connector, 2C</title>
    </circle>
    <circle
       style="fill:#008000;fill-rule:evenodd;stroke-width:0.0902284"
       id="circle1356"
       cx="24.460197"
       cy="9.252224"
       r="0.27068543">
      <title
         id="title1378">Northeast Corner Connector, NEC</title>
    </circle>
    <circle
       style="fill:#008000;fill-rule:evenodd;stroke-width:0.0902284"
       id="circle1358"
       cx="24.460197"
       cy="10.347855"
       r="0.27068543">
      <title
         id="title1376">Right 2 Touch Connector, R2T</title>
    </circle>
    <circle
       style="fill:#008000;fill-rule:evenodd;stroke-width:0.0902284"
       id="circle1360"
       cx="24.476311"
       cy="11.39515"
       r="0.27068543">
      <title
         id="title1374">Right 2 Touch Connector, R2T</title>
    </circle>
    <circle
       style="fill:#008000;fill-rule:evenodd;stroke-width:0.0902284"
       id="circle1362"
       cx="25.588053"
       cy="12.055751"
       r="0.27068543">
      <title
         id="title1372">Right 2 Touch Connector, R2T</title>
    </circle>
    <circle
       style="fill:#008000;fill-rule:evenodd;stroke-width:0.0902284"
       id="circle1364"
       cx="24.540758"
       cy="12.055751"
       r="0.27068543">
      <title
         id="title1370">2 Cross Connector, 2C</title>
    </circle>
    <circle
       style="fill:#008000;fill-rule:evenodd;stroke-width:0.0902284"
       id="circle1366"
       cx="20.815006"
       cy="12.039639"
       r="0.27068543">
      <title
         id="title1368">2 Cross Connector, 2C</title>
    </circle>
  </g>
</svg>
