<?xml version="1.0" encoding="UTF-8" standalone="no"?>
<svg
   xmlns:dc="http://purl.org/dc/elements/1.1/"
   xmlns:cc="http://creativecommons.org/ns#"
   xmlns:rdf="http://www.w3.org/1999/02/22-rdf-syntax-ns#"
   xmlns:svg="http://www.w3.org/2000/svg"
   xmlns="http://www.w3.org/2000/svg"
   width="16.21492"
   height="15"
   viewBox="0 0 4.2901975 3.9687501"
   version="1.1"
   id="svg8">
  <defs
     id="defs2" />
  <metadata
     id="metadata5">
    <rdf:RDF>
      <cc:Work
         rdf:about="">
        <dc:format>image/svg+xml</dc:format>
        <dc:type
           rdf:resource="http://purl.org/dc/dcmitype/StillImage" />
        <dc:title></dc:title>
      </cc:Work>
    </rdf:RDF>
  </metadata>
  <g
     id="layer1"
     transform="translate(-18.879827,-8.6934523)">
    <g
       id="g857"
       transform="matrix(0.06457002,0,0,0.06457002,22.395185,9.3968043)">
      <title
         id="title853">Down Vertical Mark, DV</title>
      <polygon
         points="4,4 0,0 12,0 8,4 8,50 4,50 "
         style="fill:#ff0000"
         id="polygon855"
         transform="translate(0,-3.1)" />
    </g>
    <g
       id="g880"
       transform="matrix(0,-0.06457002,0.06457002,0,20.069308,10.07479)">
      <title
         id="title876">Right Horizontal Mark, RH</title>
      <polygon
         points="4,4 0,0 12,0 8,4 8,40 4,40 "
         style="fill:#ff0000"
         id="polygon878" />
    </g>
    <g
       id="g886"
       transform="matrix(0,-0.06457002,0.06457002,0,20.069308,10.84963)">
      <title
         id="title882">Right Horizontal Mark, RH</title>
      <polygon
         points="4,40 4,4 0,0 12,0 8,4 8,40 "
         style="fill:#ff0000"
         id="polygon884" />
    </g>
    <g
       id="g892"
       transform="matrix(0,-0.06457002,0.06457002,0,20.069308,11.62447)">
      <title
         id="title888">Right Horizontal Mark, RH</title>
      <polygon
         points="12,0 8,4 8,40 4,40 4,4 0,0 "
         style="fill:#ff0000"
         id="polygon890" />
    </g>
    <g
       id="g898"
       transform="matrix(0,-0.06457002,0.06457002,0,20.069308,12.39931)">
      <title
         id="title894">Right Horizontal Mark, RH</title>
      <polygon
         points="4,40 4,4 0,0 12,0 8,4 8,40 "
         style="fill:#ff0000"
         id="polygon896" />
    </g>
    <g
       id="g904"
       transform="matrix(0.06457002,0,0,0.06457002,19.132093,9.3968043)">
      <title
         id="title900">Down Vertical Mark, DV</title>
      <polygon
         points="4,4 0,0 12,0 8,4 8,50 4,50 "
         style="fill:#ff0000"
         id="polygon902"
         transform="translate(0,-3.1)" />
    </g>
    <polygon
       points="0,6 6,0 6,12 "
       style="fill:#ff0000"
       id="polygon918"
       transform="matrix(0.06457002,0,0,0.06457002,20.424895,8.6934523)">
      <title
         id="title966">Heel Mark, HE</title>
    </polygon>
    <polygon
       points="6,0 6,12 0,6 "
       style="fill:#ff0000"
       id="polygon932"
       transform="matrix(0.06457002,0,0,0.06457002,18.879827,11.887362)">
      <title
         id="title964">Heel Mark, HE</title>
    </polygon>
    <circle
       style="fill:#008000;fill-rule:evenodd;stroke-width:0.0645699"
       id="path839"
       cx="22.797844"
       cy="12.055705"
       r="0.19371004">
      <title
         id="title962">Right 2 Touch Connector, R2T</title>
    </circle>
    <circle
       style="fill:#008000;fill-rule:evenodd;stroke-width:0.0645699"
       id="circle950"
       cx="22.786312"
       cy="9.7035122"
       r="0.19371004">
      <title
         id="title956">Right 2 Touch Connector, R2T</title>
    </circle>
    <circle
       style="fill:#008000;fill-rule:evenodd;stroke-width:0.0645699"
       id="circle952"
       cx="22.786314"
       cy="11.271641"
       r="0.19371004">
      <title
         id="title960">Right 2 Touch Connector, R2T</title>
    </circle>
    <circle
       style="fill:#008000;fill-rule:evenodd;stroke-width:0.0645699"
       id="circle954"
       cx="22.763252"
       cy="10.487576"
       r="0.19371004">
      <title
         id="title958">Right 2 Touch Connector, R2T</title>
    </circle>
  </g>
</svg>
