<?xml version="1.0" encoding="UTF-8" standalone="no"?>
<svg
   xmlns:dc="http://purl.org/dc/elements/1.1/"
   xmlns:cc="http://creativecommons.org/ns#"
   xmlns:rdf="http://www.w3.org/1999/02/22-rdf-syntax-ns#"
   xmlns:svg="http://www.w3.org/2000/svg"
   xmlns="http://www.w3.org/2000/svg"
   width="26.987286"
   height="15"
   viewBox="0 0 7.1403858 3.9687501"
   version="1.1"
   id="svg8">
  <defs
     id="defs2" />
  <metadata
     id="metadata5">
    <rdf:RDF>
      <cc:Work
         rdf:about="">
        <dc:format>image/svg+xml</dc:format>
        <dc:type
           rdf:resource="http://purl.org/dc/dcmitype/StillImage" />
        <dc:title></dc:title>
      </cc:Work>
    </rdf:RDF>
  </metadata>
  <g
     id="layer1"
     transform="translate(-16.840521,-9.3549106)">
    <g
       id="g62"
       transform="matrix(0.08302774,0,0,0.08302774,22.984574,9.5043843)">
      <title
         id="title58">Down Vertical Mark, DV</title>
      <polygon
         points="4,4 0,0 12,0 8,4 8,40 4,40 "
         style="fill:#ff0000"
         id="polygon60" />
    </g>
    <g
       id="g236"
       transform="matrix(0.08302774,0,0,0.08302774,21.988241,9.5043843)">
      <title
         id="title232">Down Vertical Mark, DV</title>
      <polygon
         points="4,40 4,4 0,0 12,0 8,4 8,40 "
         style="fill:#ff0000"
         id="polygon234" />
    </g>
    <g
       id="g256"
       transform="matrix(0,-0.08302774,0.08302774,0,17.549222,9.3383288)">
      <title
         id="title252">Right Horizontal Mark, RH</title>
      <polygon
         points="4,4 0,0 12,0 8,4 8,57 4,57 "
         style="fill:#ff0000"
         id="polygon254"
         transform="translate(-12.199714,0.46428666)" />
    </g>
    <g
       id="g297"
       transform="matrix(0.08302774,0,0,0.08302774,22.19581,9.6259606)">
      <title
         id="title293">Northeast Corner Connector, NEC</title>
      <circle
         cx="3"
         cy="3"
         r="3"
         style="fill:#008000"
         id="circle295" />
    </g>
    <polygon
       points="6,0 6,12 0,6 "
       style="fill:#ff0000"
       id="polygon311"
       transform="matrix(0.08302774,0,0,0.08302774,22.320352,12.327328)">
      <title
         id="title325">Heel Mark, HE</title>
    </polygon>
    <g
       id="g331"
       transform="matrix(0,-0.08302774,0.08302774,0,17.549222,12.14469)">
      <title
         id="title327">Right Horizontal Mark, RH</title>
      <polygon
         points="8,57 4,57 4,4 0,0 12,0 8,4 "
         style="fill:#ff0000"
         id="polygon329"
         transform="translate(-12.199714,0.46428666)" />
    </g>
    <g
       id="g201"
       transform="matrix(0.08302774,0,0,0.08302774,22.255116,12.398494)">
      <title
         id="title197">Southeast Corner Connector, SEC</title>
      <circle
         cx="3"
         cy="3"
         r="3"
         style="fill:#008000"
         id="circle199" />
    </g>
    <polygon
       points="6,12 0,6 6,0 "
       style="fill:#ff0000"
       id="polygon335"
       transform="matrix(0.08302774,0,0,0.08302774,23.316685,12.327328)">
      <title
         id="title333">Heel Mark, HE</title>
    </polygon>
    <polygon
       points="12,40 0,40 4,35 4,4 0,0 12,0 8,4 8,35 "
       style="fill:#ff0000"
       id="polygon349"
       transform="matrix(0,-0.08302774,0.08302774,0,16.840521,11.76689)">
      <title
         id="title363">Right Horizontal Barbell Mark, RHBB</title>
    </polygon>
  </g>
</svg>
