<?xml version="1.0" encoding="UTF-8" standalone="no"?>
<svg
   xmlns:dc="http://purl.org/dc/elements/1.1/"
   xmlns:cc="http://creativecommons.org/ns#"
   xmlns:rdf="http://www.w3.org/1999/02/22-rdf-syntax-ns#"
   xmlns:svg="http://www.w3.org/2000/svg"
   xmlns="http://www.w3.org/2000/svg"
   width="24.822697"
   height="15"
   viewBox="0 0 6.5676715 3.96875"
   version="1.1"
   id="svg8">
  <defs
     id="defs2" />
  <metadata
     id="metadata5">
    <rdf:RDF>
      <cc:Work
         rdf:about="">
        <dc:format>image/svg+xml</dc:format>
        <dc:type
           rdf:resource="http://purl.org/dc/dcmitype/StillImage" />
        <dc:title></dc:title>
      </cc:Work>
    </rdf:RDF>
  </metadata>
  <g
     id="layer1"
     transform="translate(-16.93789,-9.3076638)">
    <polygon
       points="8,50 4,50 4,22 0,18 4,18 4,4 0,0 12,0 8,4 8,18 12,18 8,22 "
       style="fill:#ff0000"
       id="polygon28"
       transform="matrix(0,-0.13135343,0.13135343,0,16.93789,12.103616)">
      <title
         id="title74">Right Horizontal Head-to-Tail Mark, RHHT</title>
    </polygon>
    <polygon
       points="6,0 6,12 0,6 "
       style="fill:#ff0000"
       id="polygon54"
       transform="matrix(0.13135343,0,0,0.13135343,20.132593,11.700173)">
      <title
         id="title82">Heel Mark, HE</title>
    </polygon>
    <polygon
       points="6,12 0,6 6,0 "
       style="fill:#ff0000"
       id="polygon68"
       transform="matrix(0.13135343,0,0,0.13135343,22.102894,11.700173)">
      <title
         id="title80">Heel Mark, HE</title>
    </polygon>
    <polygon
       points="0,6 6,0 6,12 "
       style="fill:#ff0000"
       id="polygon70"
       transform="matrix(0.13135343,0,0,0.13135343,20.132593,9.3545757)">
      <title
         id="title76">Heel Mark, HE</title>
    </polygon>
    <polygon
       points="6,12 0,6 6,0 "
       style="fill:#ff0000"
       id="polygon72"
       transform="matrix(0.13135343,0,0,0.13135343,22.102895,9.3076638)">
      <title
         id="title78">Heel Mark, HE</title>
    </polygon>
  </g>
</svg>
