<?xml version="1.0" encoding="UTF-8" standalone="no"?>
<svg
   xmlns:dc="http://purl.org/dc/elements/1.1/"
   xmlns:cc="http://creativecommons.org/ns#"
   xmlns:rdf="http://www.w3.org/1999/02/22-rdf-syntax-ns#"
   xmlns:svg="http://www.w3.org/2000/svg"
   xmlns="http://www.w3.org/2000/svg"
   width="33.750237"
   height="15"
   viewBox="0 0 8.9297498 3.9687501"
   version="1.1"
   id="svg8">
  <defs
     id="defs2" />
  <metadata
     id="metadata5">
    <rdf:RDF>
      <cc:Work
         rdf:about="">
        <dc:format>image/svg+xml</dc:format>
        <dc:type
           rdf:resource="http://purl.org/dc/dcmitype/StillImage" />
        <dc:title></dc:title>
      </cc:Work>
    </rdf:RDF>
  </metadata>
  <g
     id="layer1"
     transform="translate(-16.701792,-9.3549112)">
    <polygon
       points="6,0 6,12 0,6 "
       style="fill:#ff0000"
       id="polygon1133"
       transform="matrix(0.09144675,0,0,0.09144675,21.057244,11.703747)">
      <title
         id="title1149">Heel Mark, HE</title>
    </polygon>
    <polygon
       points="6,12 0,6 6,0 "
       style="fill:#ff0000"
       id="polygon1147"
       transform="matrix(0.09144675,0,0,0.09144675,21.020666,10.02178)">
      <title
         id="title1151">Heel Mark, HE</title>
    </polygon>
    <g
       id="g894"
       transform="matrix(0.09144675,0,0,0.09144675,20.076151,9.665791)">
      <title
         id="title890">Down Vertical Mark, DV</title>
      <polygon
         points="12,0 8,4 8,40 4,40 4,4 0,0 "
         style="fill:#ff0000"
         id="polygon892" />
    </g>
    <g
       id="g982"
       transform="matrix(0,-0.09144675,0.09144675,0,16.701792,10.452272)">
      <title
         id="title978">Right Horizontal Mark, RH</title>
      <polygon
         points="8,40 4,40 4,4 0,0 12,0 8,4 "
         style="fill:#ff0000"
         id="polygon980" />
    </g>
    <circle
       style="fill:#008000;fill-rule:evenodd;stroke-width:0.0914466"
       id="circle956"
       cx="20.611767"
       cy="9.9140034"
       r="0.27434027">
      <title
         id="title976">Northeast Corner Connector, NEC</title>
    </circle>
    <g
       id="g989"
       transform="matrix(0,-0.09144675,0.09144675,0,17.100866,13.320395)">
      <title
         id="title985">Right Horizontal Mark, RH</title>
      <polygon
         points="8,4 8,40 4,40 4,4 0,0 12,0 "
         style="fill:#ff0000"
         id="polygon987" />
    </g>
    <circle
       style="fill:#008000;fill-rule:evenodd;stroke-width:0.0914466"
       id="circle958"
       cx="20.628098"
       cy="12.771714"
       r="0.27434027">
      <title
         id="title966">Right 2 Touch Connector, R2T</title>
    </circle>
    <polygon
       points="8,40 4,40 4,22 0,18 4,18 4,4 0,0 12,0 8,4 8,18 12,18 8,22 "
       style="fill:#ff0000"
       id="polygon1230"
       transform="matrix(0,-0.09144675,0.09144675,0,21.849539,11.974835)">
      <title
         id="title1274">Right Horizontal Head-to-Tail, RHHT</title>
    </polygon>
    <g
       id="g1248"
       transform="matrix(0,-0.09144675,0.09144675,0,21.849539,13.291668)">
      <title
         id="title1244">Right Horizontal Mark, RH</title>
      <polygon
         points="4,4 0,0 12,0 8,4 8,40 4,40 "
         style="fill:#ff0000"
         id="polygon1246" />
    </g>
    <g
       id="g1254"
       transform="matrix(0.02366816,-0.08833078,0.08833078,0.02366816,21.73395,10.762535)">
      <title
         id="title1250">Right Down Diagonal, RDD</title>
      <polygon
         points="8,4 8,40 4,40 4,4 0,0 12,0 "
         style="fill:#ff0000"
         id="polygon1252" />
    </g>
    <circle
       style="fill:#008000;fill-rule:evenodd;stroke-width:0.0914466"
       id="path839"
       cx="25.357203"
       cy="11.288971"
       r="0.27434027">
      <title
         id="title1272">Other 2 Touch Connector, O2T</title>
    </circle>
  </g>
</svg>
