<?xml version="1.0" encoding="UTF-8" standalone="no"?>
<svg
   xmlns:dc="http://purl.org/dc/elements/1.1/"
   xmlns:cc="http://creativecommons.org/ns#"
   xmlns:rdf="http://www.w3.org/1999/02/22-rdf-syntax-ns#"
   xmlns:svg="http://www.w3.org/2000/svg"
   xmlns="http://www.w3.org/2000/svg"
   width="19.644222"
   height="15"
   viewBox="0 0 5.1975336 3.9687501"
   version="1.1"
   id="svg8">
  <defs
     id="defs2" />
  <metadata
     id="metadata5">
    <rdf:RDF>
      <cc:Work
         rdf:about="">
        <dc:format>image/svg+xml</dc:format>
        <dc:type
           rdf:resource="http://purl.org/dc/dcmitype/StillImage" />
        <dc:title></dc:title>
      </cc:Work>
    </rdf:RDF>
  </metadata>
  <g
     id="layer1"
     transform="translate(-17.433971,-8.4572172)">
    <polygon
       points="6,12 0,6 6,0 "
       style="fill:#ff0000"
       id="polygon920"
       transform="matrix(0.15740086,0,0,0.15740086,18.693178,9.0811992)">
      <title
         id="title967">Heel Mark, HE</title>
    </polygon>
    <polygon
       points="6,12 0,6 6,0 "
       style="fill:#ff0000"
       id="polygon922"
       transform="matrix(0.15740086,0,0,0.15740086,19.676933,9.0811992)">
      <title
         id="title965">Heel Mark, HE</title>
    </polygon>
    <polygon
       points="6,0 6,12 0,6 "
       style="fill:#ff0000"
       id="polygon924"
       transform="matrix(0.15740086,0,0,0.15740086,20.604474,9.0811992)">
      <title
         id="title963">Heel Mark, HE</title>
    </polygon>
    <g
       id="g944"
       transform="matrix(0.15740086,0,0,0.15740086,17.433971,8.4572172)">
      <title
         id="title940">Down Vertical Mark, DV</title>
      <polygon
         points="0,0 12,0 8,4 8,25 4,25 4,4 "
         style="fill:#ff0000"
         id="polygon942" />
    </g>
    <g
       id="g961"
       transform="matrix(0,-0.15740086,0.15740086,0,18.696483,12.425967)">
      <title
         id="title957">Right Horizontal Mark, RH</title>
      <polygon
         points="12,0 8,4 8,25 4,25 4,4 0,0 "
         style="fill:#ff0000"
         id="polygon959" />
    </g>
    <circle
       style="fill:#008000;fill-rule:evenodd;stroke-width:0.157401"
       id="path839"
       cx="18.856201"
       cy="11.419725"
       r="0.4722026">
      <title
         id="title892">Southwest Corner Connector, SWC</title>
    </circle>
  </g>
</svg>
