<?xml version="1.0" encoding="UTF-8" standalone="no"?>
<svg
   xmlns:dc="http://purl.org/dc/elements/1.1/"
   xmlns:cc="http://creativecommons.org/ns#"
   xmlns:rdf="http://www.w3.org/1999/02/22-rdf-syntax-ns#"
   xmlns:svg="http://www.w3.org/2000/svg"
   xmlns="http://www.w3.org/2000/svg"
   width="18.47673"
   height="15"
   viewBox="0 0 4.8886348 3.9687501"
   version="1.1"
   id="svg8">
  <defs
     id="defs2" />
  <metadata
     id="metadata5">
    <rdf:RDF>
      <cc:Work
         rdf:about="">
        <dc:format>image/svg+xml</dc:format>
        <dc:type
           rdf:resource="http://purl.org/dc/dcmitype/StillImage" />
        <dc:title></dc:title>
      </cc:Work>
    </rdf:RDF>
  </metadata>
  <g
     id="layer1"
     transform="translate(-15.793034,-6.8035718)">
    <g
       id="g1287"
       transform="matrix(0.10449522,-0.10449522,0.10449522,0.10449522,11.613973,7.9525188)">
      <title
         id="title1283">Right Down Diagonal Mark, RDD</title>
      <polygon
         points="4,15 4,4 0,0 12,0 8,4 8,15 "
         style="fill:#ff0000"
         id="polygon1285"
         transform="rotate(-15,109.97652,-71.749461)" />
    </g>
    <g
       id="g1382"
       transform="matrix(0.10449522,-0.10449522,0.10449522,0.10449522,13.1199,9.7151265)">
      <title
         id="title1378">Right Down Diagonal Mark, RDD</title>
      <polygon
         points="12,0 8,4 8,15 4,15 4,4 0,0 "
         style="fill:#ff0000"
         id="polygon1380"
         transform="rotate(-15,111.14366,-70.228414)" />
    </g>
    <g
       id="g1016"
       transform="matrix(0.10449522,-0.10449522,0.10449522,0.10449522,10.74208,9.4533577)">
      <title
         id="title1012">Right Down Diagonal Mark, RDD</title>
      <polygon
         points="4,4 0,0 12,0 8,4 8,15 4,15 "
         style="fill:#ff0000"
         id="polygon1014"
         transform="rotate(-15,109.97652,-71.749461)" />
    </g>
    <circle
       style="fill:#008000;fill-rule:evenodd;stroke-width:0.147778"
       id="circle1319"
       cx="18.622318"
       cy="9.4173632"
       r="0.44333568">
      <title
         id="title1317">Other 2 Touch Connector, O2T</title>
    </circle>
  </g>
</svg>
