<?xml version="1.0" encoding="UTF-8" standalone="no"?>
<svg
   xmlns:dc="http://purl.org/dc/elements/1.1/"
   xmlns:cc="http://creativecommons.org/ns#"
   xmlns:rdf="http://www.w3.org/1999/02/22-rdf-syntax-ns#"
   xmlns:svg="http://www.w3.org/2000/svg"
   xmlns="http://www.w3.org/2000/svg"
   width="21.436995"
   height="15"
   viewBox="0 0 5.6718713 3.9687501"
   version="1.1"
   id="svg8">
  <defs
     id="defs2" />
  <metadata
     id="metadata5">
    <rdf:RDF>
      <cc:Work
         rdf:about="">
        <dc:format>image/svg+xml</dc:format>
        <dc:type
           rdf:resource="http://purl.org/dc/dcmitype/StillImage" />
        <dc:title></dc:title>
      </cc:Work>
    </rdf:RDF>
  </metadata>
  <g
     id="layer1"
     transform="translate(-14.928945,-8.598958)">
    <polygon
       points="6,0 6,12 0,6 "
       style="fill:#ff0000"
       id="polygon1260"
       transform="matrix(0.09177786,0,0,0.09177786,14.928945,9.3043627)">
      <title
         id="title1315">Heel Mark, HE</title>
    </polygon>
    <polygon
       points="0,6 6,0 6,12 "
       style="fill:#ff0000"
       id="polygon1274"
       transform="matrix(0.09177786,0,0,0.09177786,14.928945,10.653497)">
      <title
         id="title1317">Heel Mark, HE</title>
    </polygon>
    <polygon
       points="6,12 0,6 6,0 "
       style="fill:#ff0000"
       id="polygon1276"
       transform="matrix(0.09177786,0,0,0.09177786,15.548432,9.3116131)">
      <title
         id="title1313">Heel Mark, HE</title>
    </polygon>
    <polygon
       points="6,0 6,12 0,6 "
       style="fill:#ff0000"
       id="polygon1278"
       transform="matrix(0.09177786,0,0,0.09177786,15.548432,10.660748)">
      <title
         id="title1311">Heel Mark, HE</title>
    </polygon>
    <g
       id="g1477"
       transform="matrix(0,-0.09177786,0.09177786,0,16.264313,9.7002924)">
      <title
         id="title1473">Right Horizontal Mark, RH</title>
      <polygon
         points="12,0 8,4 8,40 4,40 4,4 0,0 "
         style="fill:#ff0000"
         id="polygon1475" />
    </g>
    <g
       id="g1494"
       transform="matrix(0,-0.09177786,0.09177786,0,16.272848,12.567708)">
      <title
         id="title1490">Right Horizontal Mark, RH</title>
      <polygon
         points="4,4 0,0 12,0 8,4 8,40 4,40 "
         style="fill:#ff0000"
         id="polygon1492" />
    </g>
    <g
       id="g1514"
       transform="matrix(0.09177786,0,0,0.09177786,19.499482,8.7346975)">
      <title
         id="title1510">Down Vertical Mark, DV</title>
      <polygon
         points="8,40 4,40 4,4 0,0 12,0 8,4 "
         style="fill:#ff0000"
         id="polygon1512" />
    </g>
    <circle
       style="fill:#008000;fill-rule:evenodd;stroke-width:0.0917777"
       id="circle1498"
       cx="20.04817"
       cy="11.979032"
       r="0.27533358">
      <title
         id="title1496">Right 2 Touch Connector, R2T</title>
    </circle>
    <circle
       style="fill:#008000;fill-rule:evenodd;stroke-width:0.0917777"
       id="circle1506"
       cx="20.002937"
       cy="9.160141"
       r="0.27533358">
      <title
         id="title1504">Northeast Corner Connector, NEC</title>
    </circle>
    <g
       id="g1534"
       transform="matrix(0,-0.09177786,0.09177786,0,17.056172,10.534212)">
      <title
         id="title1530">Right Horizontal Mark, RH</title>
      <polygon
         points="8,30 4,30 4,4 0,0 12,0 8,4 "
         style="fill:#ff0000"
         id="polygon1532" />
    </g>
    <circle
       style="fill:#008000;fill-rule:evenodd;stroke-width:0.0917777"
       id="circle1538"
       cx="20.03178"
       cy="9.9959745"
       r="0.27533358">
      <title
         id="title1536">Right 2 Touch Connector, R2T</title>
    </circle>
    <circle
       style="fill:#008000;fill-rule:evenodd;stroke-width:0.0917777"
       id="circle1542"
       cx="20.04817"
       cy="11.094031"
       r="0.27533358">
      <title
         id="title1540">Right 2 Touch Connector, R2T</title>
    </circle>
    <g
       id="g1548"
       transform="matrix(0,-0.09177786,0.09177786,0,17.056172,11.635547)">
      <title
         id="title1544">Right Horizontal Mark, RH</title>
      <polygon
         points="0,0 12,0 8,4 8,30 4,30 4,4 "
         style="fill:#ff0000"
         id="polygon1546" />
    </g>
  </g>
</svg>
