<?xml version="1.0" encoding="UTF-8" standalone="no"?>
<svg
   xmlns:dc="http://purl.org/dc/elements/1.1/"
   xmlns:cc="http://creativecommons.org/ns#"
   xmlns:rdf="http://www.w3.org/1999/02/22-rdf-syntax-ns#"
   xmlns:svg="http://www.w3.org/2000/svg"
   xmlns="http://www.w3.org/2000/svg"
   width="28.773375"
   height="15"
   viewBox="0 0 7.6129551 3.9687501"
   version="1.1"
   id="svg8">
  <defs
     id="defs2" />
  <metadata
     id="metadata5">
    <rdf:RDF>
      <cc:Work
         rdf:about="">
        <dc:format>image/svg+xml</dc:format>
        <dc:type
           rdf:resource="http://purl.org/dc/dcmitype/StillImage" />
        <dc:title></dc:title>
      </cc:Work>
    </rdf:RDF>
  </metadata>
  <g
     id="layer1"
     transform="translate(-18.446871,-9.2131696)">
    <g
       id="g857"
       transform="matrix(0.09921875,0,0,0.09921875,20.969862,9.2131696)">
      <title
         id="title853">Down Vertical Mark, DV</title>
      <polygon
         points="12,0 8,4 8,40 4,40 4,4 0,0 "
         style="fill:#ff0000"
         id="polygon855" />
    </g>
    <g
       id="g874"
       transform="matrix(0.09921875,0,0,0.09921875,22.964201,9.2131696)">
      <title
         id="title870">Down Vertical Mark, DV</title>
      <polygon
         points="8,4 8,40 4,40 4,4 0,0 12,0 "
         style="fill:#ff0000"
         id="polygon872" />
    </g>
    <g
       id="g880"
       transform="matrix(0.09921875,0,0,0.09921875,24.869201,9.2131696)">
      <title
         id="title876">Down Vertical Mark, DV</title>
      <polygon
         points="12,0 8,4 8,40 4,40 4,4 0,0 "
         style="fill:#ff0000"
         id="polygon878" />
    </g>
    <polygon
       points="8,50 4,50 4,22 0,18 4,18 4,4 0,0 12,0 8,4 8,18 12,18 8,22 "
       style="fill:#ff0000"
       id="polygon894"
       transform="matrix(0,-0.09921875,0.09921875,0,18.446871,11.084152)">
      <title
         id="title908">Right Horizontal Head-to-Tail Mark, RHHT</title>
    </polygon>
    <g
       id="g928"
       transform="matrix(0,-0.09921875,0.09921875,0,20.154128,12.696457)">
      <title
         id="title924" />
      <polygon
         points=""
         style="fill:#ff0000"
         id="polygon926" />
    </g>
    <g
       id="g959"
       transform="matrix(0.09921875,0,0,0.09921875,16.363277,11.97712)">
      <title
         id="title955">Right Horizontal Mark, RH</title>
      <polygon
         points="0,0 12,0 8,4 8,15 4,15 4,4 "
         style="fill:#ff0000"
         id="polygon957"
         transform="rotate(-90,21.000002,-17.999999)" />
    </g>
    <polygon
       points="6,12 0,6 6,0 "
       style="fill:#ff0000"
       id="polygon984"
       transform="matrix(0.09921875,0,0,0.09921875,24.190928,11.434961)">
      <title
         id="title998">Heel Mark, HE</title>
    </polygon>
    <polygon
       points="6,12 0,6 6,0 "
       style="fill:#ff0000"
       id="polygon1002"
       transform="matrix(0.09921875,0,0,0.09921875,22.419164,11.523549)">
      <title
         id="title1000">Heel Mark, HE</title>
    </polygon>
    <circle
       style="fill:#008000;fill-rule:evenodd;stroke-width:0.0992186"
       id="path839"
       cx="23.46096"
       cy="10.435686"
       r="0.29765624">
      <title
         id="title1020">Right 2 Touch Connector, R2T</title>
    </circle>
    <circle
       style="fill:#008000;fill-rule:evenodd;stroke-width:0.0992186"
       id="circle1024"
       cx="21.458868"
       cy="11.67592"
       r="0.29765624">
      <title
         id="title1022">Right 2 Touch Connector, R2T</title>
    </circle>
    <circle
       style="fill:#008000;fill-rule:evenodd;stroke-width:0.0992186"
       id="path839-6"
       cx="21.565174"
       cy="10.471122"
       r="0.29765624">
      <title
         id="title1042">2 Cross Connector, 2C</title>
    </circle>
  </g>
</svg>
