<?xml version="1.0" encoding="UTF-8" standalone="no"?>
<svg
   xmlns:dc="http://purl.org/dc/elements/1.1/"
   xmlns:cc="http://creativecommons.org/ns#"
   xmlns:rdf="http://www.w3.org/1999/02/22-rdf-syntax-ns#"
   xmlns:svg="http://www.w3.org/2000/svg"
   xmlns="http://www.w3.org/2000/svg"
   width="28.400732"
   height="15"
   viewBox="0 0 7.5143601 3.9687501"
   version="1.1"
   id="svg8">
  <defs
     id="defs2" />
  <metadata
     id="metadata5">
    <rdf:RDF>
      <cc:Work
         rdf:about="">
        <dc:format>image/svg+xml</dc:format>
        <dc:type
           rdf:resource="http://purl.org/dc/dcmitype/StillImage" />
        <dc:title></dc:title>
      </cc:Work>
    </rdf:RDF>
  </metadata>
  <g
     id="layer1"
     transform="translate(-14.243936,-9.4021573)">
    <polygon
       points="0,0 12,0 8,4 8,18 12,18 8,22 8,40 4,40 4,22 0,18 4,18 4,4 "
       style="fill:#ff0000"
       id="polygon937"
       transform="matrix(0,-0.15147738,0.15147738,0,15.699201,11.219886)">
      <title
         id="title983">Right Horizontal Head-to-Tail Mark, RHHT</title>
    </polygon>
    <polygon
       points="8,22 8,40 4,40 4,22 0,18 4,18 4,4 0,0 12,0 8,4 8,18 12,18 "
       style="fill:#ff0000"
       id="polygon951"
       transform="matrix(0,-0.15147738,0.15147738,0,15.699201,13.370907)">
      <title
         id="title981">Right Horizontal Head-to-Tail Mark, RHHT</title>
    </polygon>
    <polygon
       points="6,12 0,6 6,0 "
       style="fill:#ff0000"
       id="polygon979"
       transform="matrix(0.15147738,0,0,0.15147738,14.243936,10.425646)">
      <title
         id="title985">Heel Mark, HE</title>
    </polygon>
  </g>
</svg>
