<?xml version="1.0" encoding="UTF-8" standalone="no"?>
<svg
   xmlns:dc="http://purl.org/dc/elements/1.1/"
   xmlns:cc="http://creativecommons.org/ns#"
   xmlns:rdf="http://www.w3.org/1999/02/22-rdf-syntax-ns#"
   xmlns:svg="http://www.w3.org/2000/svg"
   xmlns="http://www.w3.org/2000/svg"
   width="27.066963"
   height="15"
   viewBox="0 0 7.1614671 3.9687501"
   version="1.1"
   id="svg8">
  <defs
     id="defs2" />
  <metadata
     id="metadata5">
    <rdf:RDF>
      <cc:Work
         rdf:about="">
        <dc:format>image/svg+xml</dc:format>
        <dc:type
           rdf:resource="http://purl.org/dc/dcmitype/StillImage" />
        <dc:title></dc:title>
      </cc:Work>
    </rdf:RDF>
  </metadata>
  <g
     id="layer1"
     transform="translate(-16.971722,-8.3627232)">
    <g
       id="g894"
       transform="matrix(0.09921875,0,0,0.09921875,18.214125,8.3627232)">
      <title
         id="title890">Down Vertical Mark, DV</title>
      <polygon
         points="0,0 12,0 8,4 8,40 4,40 4,4 "
         style="fill:#ff0000"
         id="polygon892" />
    </g>
    <g
       id="g1445"
       transform="matrix(0.09921875,0,0,0.09921875,21.786,8.3627232)">
      <title
         id="title1441">Down Vertical Mark, DV</title>
      <polygon
         points="8,4 8,40 4,40 4,4 0,0 12,0 "
         style="fill:#ff0000"
         id="polygon1443" />
    </g>
    <g
       id="g1553"
       transform="matrix(0,-0.09921875,0.09921875,0,16.971722,9.7227574)">
      <title
         id="title1549">Right Horizontal Mark, RH</title>
      <polygon
         points="4,72 4,4 0,0 12,0 8,4 8,72 "
         style="fill:#ff0000"
         id="polygon1551" />
    </g>
    <circle
       style="fill:#008000;fill-rule:evenodd;stroke-width:0.0992186"
       id="circle956"
       cx="18.812981"
       cy="9.1061831"
       r="0.29765624">
      <title
         id="title976">2 Cross Connector, 2C</title>
    </circle>
    <g
       id="g1570"
       transform="matrix(0.09921875,0,0,0.09921875,20.595375,8.3627232)">
      <title
         id="title1566">Down Vertical Mark, DV</title>
      <polygon
         points="4,4 0,0 12,0 8,4 8,40 4,40 "
         style="fill:#ff0000"
         id="polygon1568" />
    </g>
    <g
       id="g1582"
       transform="matrix(0.09921875,0,0,0.09921875,19.40475,8.3627232)">
      <title
         id="title1578">Down Vertical Mark, DV</title>
      <polygon
         points="4,4 0,0 12,0 8,4 8,40 4,40 "
         style="fill:#ff0000"
         id="polygon1580" />
    </g>
    <g
       id="g1588"
       transform="matrix(0,-0.09921875,0.09921875,0,16.989439,12.061485)">
      <title
         id="title1584">Right Horizontal Mark, RH</title>
      <polygon
         points="0,0 12,0 8,4 8,72 4,72 4,4 "
         style="fill:#ff0000"
         id="polygon1586" />
    </g>
    <circle
       style="fill:#008000;fill-rule:evenodd;stroke-width:0.0992186"
       id="circle958"
       cx="18.807283"
       cy="11.482501"
       r="0.29765624">
      <title
         id="title966">2 Cross Connector, 2C</title>
    </circle>
    <circle
       style="fill:#008000;fill-rule:evenodd;stroke-width:0.0992186"
       id="circle1592"
       cx="20.0298"
       cy="11.500218"
       r="0.29765624">
      <title
         id="title1590">2 Cross Connector, 2C</title>
    </circle>
    <circle
       style="fill:#008000;fill-rule:evenodd;stroke-width:0.0992186"
       id="circle1596"
       cx="21.163729"
       cy="11.482501"
       r="0.29765624">
      <title
         id="title1594">2 Cross Connector, 2C</title>
    </circle>
    <circle
       style="fill:#008000;fill-rule:evenodd;stroke-width:0.0992186"
       id="circle1600"
       cx="22.368526"
       cy="11.447066"
       r="0.29765624">
      <title
         id="title1598">2 Cross Connector, 2C</title>
    </circle>
    <circle
       style="fill:#008000;fill-rule:evenodd;stroke-width:0.0992186"
       id="circle1604"
       cx="20.017778"
       cy="9.1239014"
       r="0.29765624">
      <title
         id="title1602">2 Cross Connector, 2C</title>
    </circle>
    <circle
       style="fill:#008000;fill-rule:evenodd;stroke-width:0.0992186"
       id="circle1608"
       cx="21.187143"
       cy="9.1061831"
       r="0.29765624">
      <title
         id="title1606">2 Cross Connector, 2C</title>
    </circle>
    <circle
       style="fill:#008000;fill-rule:evenodd;stroke-width:0.0992186"
       id="circle1612"
       cx="22.409658"
       cy="9.1061831"
       r="0.29765624">
      <title
         id="title1610">2 Cross Connector, 2C</title>
    </circle>
  </g>
</svg>
