<?xml version="1.0" encoding="UTF-8" standalone="no"?>
<svg
   xmlns:dc="http://purl.org/dc/elements/1.1/"
   xmlns:cc="http://creativecommons.org/ns#"
   xmlns:rdf="http://www.w3.org/1999/02/22-rdf-syntax-ns#"
   xmlns:svg="http://www.w3.org/2000/svg"
   xmlns="http://www.w3.org/2000/svg"
   width="26.038317"
   height="15"
   viewBox="0 0 6.8893044 3.9687501"
   version="1.1"
   id="svg8">
  <defs
     id="defs2" />
  <metadata
     id="metadata5">
    <rdf:RDF>
      <cc:Work
         rdf:about="">
        <dc:format>image/svg+xml</dc:format>
        <dc:type
           rdf:resource="http://purl.org/dc/dcmitype/StillImage" />
        <dc:title></dc:title>
      </cc:Work>
    </rdf:RDF>
  </metadata>
  <g
     id="layer1"
     transform="translate(-15.028934,-8.8351937)">
    <polygon
       points="6,12 0,6 6,0 "
       style="fill:#ff0000"
       id="polygon965"
       transform="matrix(0.09751314,0,0,0.09751314,16.428944,9.9475261)">
      <title
         id="title987">Heel Mark, HE</title>
    </polygon>
    <g
       id="g1061"
       transform="matrix(0,-0.09751314,0.09751314,0,15.028934,12.316413)">
      <title
         id="title1057">Right Horizontal Mark, RH</title>
      <polygon
         points="8,4 8,30 4,30 4,4 0,0 12,0 "
         style="fill:#ff0000"
         id="polygon1059" />
    </g>
    <g
       id="g1125"
       transform="matrix(0.09751314,0,0,0.09751314,17.505768,8.903418)">
      <title
         id="title1121">Down Vertical Mark, DV</title>
      <polygon
         points="12,0 8,4 8,40 4,40 4,4 0,0 "
         style="fill:#ff0000"
         id="polygon1123" />
    </g>
    <g
       id="g1135"
       transform="matrix(0,-0.09751314,0.09751314,0,18.736523,12.361652)">
      <title
         id="title1131">Right Horizontal Mark, RH</title>
      <polygon
         points="8,4 8,25 4,25 4,4 0,0 12,0 "
         style="fill:#ff0000"
         id="polygon1133" />
    </g>
    <g
       id="g1141"
       transform="matrix(0,-0.09751314,0.09751314,0,18.753936,10.093078)">
      <title
         id="title1137">Right Horizontal Mark, RH</title>
      <polygon
         points="4,25 4,4 0,0 12,0 8,4 8,25 "
         style="fill:#ff0000"
         id="polygon1139" />
    </g>
    <g
       id="g1147"
       transform="matrix(0.09751314,0,0,0.09751314,20.748081,8.8888331)">
      <title
         id="title1143">Down Vertical Mark, DV</title>
      <polygon
         points="4,4 0,0 12,0 8,4 8,40 4,40 "
         style="fill:#ff0000"
         id="polygon1145" />
    </g>
    <circle
       style="fill:#008000;fill-rule:evenodd;stroke-width:0.097513"
       id="path839"
       cx="21.334551"
       cy="11.744575"
       r="0.29253942">
      <title
         id="title1105">Right 2 Touch Connector, R2T</title>
    </circle>
    <circle
       style="fill:#008000;fill-rule:evenodd;stroke-width:0.097513"
       id="circle1103"
       cx="21.328285"
       cy="9.4975653"
       r="0.29253942">
      <title
         id="title1113">Northeast Corner Connector, NEC</title>
    </circle>
    <circle
       style="fill:#008000;fill-rule:evenodd;stroke-width:0.097513"
       id="circle1097"
       cx="18.049013"
       cy="11.71466"
       r="0.29253942">
      <title
         id="title1107">Right 2 Touch Connector, R2T</title>
    </circle>
    <g
       id="g968"
       transform="matrix(0,-0.09751314,0.09751314,0,15.038707,10.005351)">
      <title
         id="title964">Right Horizontal Mark, RH</title>
      <polygon
         points="8,30 4,30 4,4 0,0 12,0 8,4 "
         style="fill:#ff0000"
         id="polygon966" />
    </g>
    <circle
       style="fill:#008000;fill-rule:evenodd;stroke-width:0.097513"
       id="circle972"
       cx="18.072042"
       cy="9.4627399"
       r="0.29253942">
      <title
         id="title970">Northeast Corner Connector, NEC</title>
    </circle>
  </g>
</svg>
