<?xml version="1.0" encoding="UTF-8" standalone="no"?>
<svg
   xmlns:dc="http://purl.org/dc/elements/1.1/"
   xmlns:cc="http://creativecommons.org/ns#"
   xmlns:rdf="http://www.w3.org/1999/02/22-rdf-syntax-ns#"
   xmlns:svg="http://www.w3.org/2000/svg"
   xmlns="http://www.w3.org/2000/svg"
   width="18.75"
   height="15"
   viewBox="0 0 4.9609373 3.9687501"
   version="1.1"
   id="svg8">
  <defs
     id="defs2" />
  <metadata
     id="metadata5">
    <rdf:RDF>
      <cc:Work
         rdf:about="">
        <dc:format>image/svg+xml</dc:format>
        <dc:type
           rdf:resource="http://purl.org/dc/dcmitype/StillImage" />
        <dc:title></dc:title>
      </cc:Work>
    </rdf:RDF>
  </metadata>
  <g
     id="layer1"
     transform="translate(-18.686197,-8.646205)">
    <g
       id="g1751"
       transform="matrix(0,-0.09921875,0.09921875,0,18.686197,11.181244)">
      <title
         id="title1747">Right Horizontal Mark, RH</title>
      <polygon
         points="12,0 8,4 8,50 4,50 4,4 0,0 "
         style="fill:#ff0000"
         id="polygon1749" />
    </g>
    <g
       id="g1799"
       transform="matrix(0.09921875,0,0,0.09921875,20.440952,8.646205)">
      <title
         id="title1795">Down Vertical Mark, DV</title>
      <polygon
         points="0,0 12,0 8,4 8,40 4,40 4,4 "
         style="fill:#ff0000"
         id="polygon1797" />
    </g>
    <g
       id="g1859"
       transform="matrix(0,-0.09921875,0.09921875,0,18.686197,12.371869)">
      <title
         id="title1855">Right Horizontal Mark, RH</title>
      <polygon
         points="8,4 8,50 4,50 4,4 0,0 12,0 "
         style="fill:#ff0000"
         id="polygon1857" />
    </g>
    <g
       id="g1865"
       transform="matrix(0,-0.09921875,0.09921875,0,18.686197,9.9906191)">
      <title
         id="title1861">Right Horizontal Mark, RH</title>
      <polygon
         points="8,4 8,50 4,50 4,4 0,0 12,0 "
         style="fill:#ff0000"
         id="polygon1863" />
    </g>
    <circle
       style="fill:#008000;fill-rule:evenodd;stroke-width:0.0992186"
       id="circle1849"
       cx="21.027065"
       cy="9.3698359"
       r="0.29765624">
      <title
         id="title1851">2 Cross Connector, 2C</title>
    </circle>
    <circle
       style="fill:#008000;fill-rule:evenodd;stroke-width:0.0992186"
       id="circle1869"
       cx="21.032721"
       cy="10.574635"
       r="0.29765624">
      <title
         id="title1867">2 Cross Connector, 2C</title>
    </circle>
    <circle
       style="fill:#008000;fill-rule:evenodd;stroke-width:0.0992186"
       id="circle1873"
       cx="21.032721"
       cy="11.761716"
       r="0.29765624">
      <title
         id="title1871">2 Cross Connector, 2C</title>
    </circle>
  </g>
</svg>
