<?xml version="1.0" encoding="UTF-8" standalone="no"?>
<svg
   xmlns:dc="http://purl.org/dc/elements/1.1/"
   xmlns:cc="http://creativecommons.org/ns#"
   xmlns:rdf="http://www.w3.org/1999/02/22-rdf-syntax-ns#"
   xmlns:svg="http://www.w3.org/2000/svg"
   xmlns="http://www.w3.org/2000/svg"
   width="18.150576"
   height="15"
   viewBox="0 0 4.8023397 3.9687501"
   version="1.1"
   id="svg8">
  <defs
     id="defs2" />
  <metadata
     id="metadata5">
    <rdf:RDF>
      <cc:Work
         rdf:about="">
        <dc:format>image/svg+xml</dc:format>
        <dc:type
           rdf:resource="http://purl.org/dc/dcmitype/StillImage" />
        <dc:title></dc:title>
      </cc:Work>
    </rdf:RDF>
  </metadata>
  <g
     id="layer1"
     transform="translate(-17.253591,-6.9453125)">
    <g
       id="g1287"
       transform="matrix(0.07439827,-0.07439827,0.07439827,0.07439827,14.920005,7.7633371)">
      <title
         id="title1283">Right Down Diagonal Mark, RDD</title>
      <polygon
         points="12,0 8,4 8,15 4,15 4,4 0,0 "
         style="fill:#ff0000"
         id="polygon1285"
         transform="rotate(-15,109.97652,-71.749461)" />
    </g>
    <g
       id="g1382"
       transform="matrix(0.07439827,-0.07439827,0.07439827,0.07439827,15.669813,9.5826803)">
      <title
         id="title1378">Right Down Diagonal Mark, RDD</title>
      <polygon
         points="-8,0 20,0 8,8 8,26 4,26 4,8 "
         style="fill:#ff0000"
         id="polygon1380"
         transform="rotate(-15,111.14366,-70.228414)" />
    </g>
    <g
       id="g1016"
       transform="matrix(0.07439827,-0.07439827,0.07439827,0.07439827,14.288715,8.8567639)">
      <title
         id="title1012">Right Down Diagonal Mark, RDD</title>
      <polygon
         points="4,15 4,4 0,0 12,0 8,4 8,15 "
         style="fill:#ff0000"
         id="polygon1014"
         transform="rotate(-15,109.97652,-71.749461)" />
    </g>
    <circle
       style="fill:#008000;fill-rule:evenodd;stroke-width:0.105215"
       id="circle1319"
       cx="19.606199"
       cy="9.3518915"
       r="0.31564513">
      <title
         id="title1317">Other 2 Touch Connector, O2T</title>
    </circle>
    <g
       id="g1022"
       transform="matrix(0.07439827,-0.07439827,0.07439827,0.07439827,13.657425,9.9501906)">
      <title
         id="title1018">Right Down Diagonal Mark, RDD</title>
      <polygon
         points="4,15 4,4 0,0 12,0 8,4 8,15 "
         style="fill:#ff0000"
         id="polygon1020"
         transform="rotate(-15,109.97652,-71.749461)" />
    </g>
  </g>
</svg>
