<?xml version="1.0" encoding="UTF-8" standalone="no"?>
<svg
   xmlns:dc="http://purl.org/dc/elements/1.1/"
   xmlns:cc="http://creativecommons.org/ns#"
   xmlns:rdf="http://www.w3.org/1999/02/22-rdf-syntax-ns#"
   xmlns:svg="http://www.w3.org/2000/svg"
   xmlns="http://www.w3.org/2000/svg"
   width="14.91839"
   height="15"
   viewBox="0 0 3.9471573 3.9687501"
   version="1.1"
   id="svg8">
  <defs
     id="defs2" />
  <metadata
     id="metadata5">
    <rdf:RDF>
      <cc:Work
         rdf:about="">
        <dc:format>image/svg+xml</dc:format>
        <dc:type
           rdf:resource="http://purl.org/dc/dcmitype/StillImage" />
        <dc:title></dc:title>
      </cc:Work>
    </rdf:RDF>
  </metadata>
  <g
     id="layer1"
     transform="translate(-16.216525,-8.5989583)">
    <g
       id="g334"
       transform="matrix(0.07546136,0,0,0.07546136,16.216525,9.0517265)">
      <title
         id="title330">Down Vertical Mark, DV</title>
      <polygon
         points="4,4 0,0 12,0 8,4 8,40 4,40 "
         style="fill:#ff0000"
         id="polygon332" />
    </g>
    <polygon
       points="6,12 0,6 6,0 "
       style="fill:#ff0000"
       id="polygon422"
       transform="matrix(0.07546136,0,0,0.07546136,17.0466,8.5989583)">
      <title
         id="title436">Heel Mark, HE</title>
    </polygon>
    <polygon
       points="6,12 0,6 6,0 "
       style="fill:#ff0000"
       id="polygon424"
       transform="matrix(0.07546136,0,0,0.07546136,16.505995,11.662172)">
      <title
         id="title434">Heel Mark, HE</title>
    </polygon>
    <g
       id="g448"
       transform="matrix(0.07546136,0,0,0.07546136,18.198971,9.0652017)">
      <title
         id="title444">Down Vertical Mark, DV</title>
      <polygon
         points="12,0 8,4 8,40 4,40 4,4 0,0 "
         style="fill:#ff0000"
         id="polygon446" />
    </g>
    <polygon
       points="4,4 0,0 12,0 8,4 8,35 12,40 0,40 4,35 "
       style="fill:#ff0000"
       id="polygon511"
       transform="matrix(0,-0.07546136,0.07546136,0,17.145228,11.040672)">
      <title
         id="title525">Right Horizontal Barbell, RHBB</title>
    </polygon>
    <g
       id="g430"
       transform="matrix(0.07546136,0,0,0.07546136,18.441547,10.36152)">
      <title
         id="title426">2 Cross Connector, 2C</title>
      <circle
         cx="3"
         cy="3"
         r="3"
         style="fill:#008000"
         id="circle428" />
    </g>
  </g>
</svg>
