<?xml version="1.0" encoding="UTF-8" standalone="no"?>
<svg
   xmlns:dc="http://purl.org/dc/elements/1.1/"
   xmlns:cc="http://creativecommons.org/ns#"
   xmlns:rdf="http://www.w3.org/1999/02/22-rdf-syntax-ns#"
   xmlns:svg="http://www.w3.org/2000/svg"
   xmlns="http://www.w3.org/2000/svg"
   width="26.126724"
   height="15"
   viewBox="0 0 6.9126956 3.9687501"
   version="1.1"
   id="svg8">
  <defs
     id="defs2" />
  <metadata
     id="metadata5">
    <rdf:RDF>
      <cc:Work
         rdf:about="">
        <dc:format>image/svg+xml</dc:format>
        <dc:type
           rdf:resource="http://purl.org/dc/dcmitype/StillImage" />
        <dc:title></dc:title>
      </cc:Work>
    </rdf:RDF>
  </metadata>
  <g
     id="layer1"
     transform="translate(-18.560765,-9.0714285)">
    <polygon
       points="4,4 0,0 12,0 8,4 8,30 4,30 "
       style="fill:#ff0000"
       id="polygon1446"
       transform="matrix(0.08208376,0,0,0.08208376,20.061796,10.569457)">
      <title
         id="title1444">Down Vertical Mark, DV</title>
    </polygon>
    <polygon
       points="4,4 0,0 12,0 8,4 8,30 4,30 "
       style="fill:#ff0000"
       id="polygon1454"
       transform="matrix(0.08208376,0,0,0.08208376,19.076791,10.577666)">
      <title
         id="title1452">Down Vertical Mark, DV</title>
    </polygon>
    <g
       id="g1474"
       transform="matrix(0,-0.08208376,0.08208376,0,22.190111,10.889584)">
      <title
         id="title1470">Right Horizontal Mark, RH</title>
      <polygon
         points="8,40 4,40 4,4 0,0 12,0 8,4 "
         style="fill:#ff0000"
         id="polygon1472" />
    </g>
    <g
       id="g1523"
       transform="matrix(0,-0.08208376,0.08208376,0,18.585425,10.056434)">
      <title
         id="title1519">Right Horizontal Mark, RH</title>
      <polygon
         points="4,4 0,0 12,0 8,4 8,72 4,72 "
         style="fill:#ff0000"
         id="polygon1521" />
    </g>
    <g
       id="g1540"
       transform="matrix(0,-0.08208376,0.08208376,0,18.560765,12.796308)">
      <title
         id="title1536">Right Horizontal Mark, RH</title>
      <polygon
         points="8,72 4,72 4,4 0,0 12,0 8,4 "
         style="fill:#ff0000"
         id="polygon1538" />
    </g>
    <g
       id="g1560"
       transform="matrix(0.08208376,0,0,0.08208376,23.510451,9.5393059)">
      <title
         id="title1556">Down Vertical Mark, DV</title>
      <polygon
         points="0,0 12,0 8,4 8,40 4,40 4,4 "
         style="fill:#ff0000"
         id="polygon1558" />
    </g>
    <g
       id="g1577"
       transform="matrix(0,-0.08208376,0.08208376,0,22.190111,11.874589)">
      <title
         id="title1573">Right Horizontal Mark, RH</title>
      <polygon
         points="0,0 12,0 8,4 8,40 4,40 4,4 "
         style="fill:#ff0000"
         id="polygon1575" />
    </g>
    <circle
       style="fill:#008000;fill-rule:evenodd;stroke-width:0.0820837"
       id="circle1499"
       cx="23.992998"
       cy="10.390667"
       r="0.24625129">
      <title
         id="title1497">2 Cross Connector, 2C</title>
    </circle>
    <circle
       style="fill:#008000;fill-rule:evenodd;stroke-width:0.0820837"
       id="circle1581"
       cx="24.036972"
       cy="11.416714"
       r="0.24625129">
      <title
         id="title1579">2 Cross Connector, 2C</title>
    </circle>
    <circle
       style="fill:#008000;fill-rule:evenodd;stroke-width:0.0820837"
       id="circle1585"
       cx="24.007656"
       cy="12.325498"
       r="0.24625129">
      <title
         id="title1583">2 Cross Connector, 2C</title>
    </circle>
    <circle
       style="fill:#008000;fill-rule:evenodd;stroke-width:0.0820837"
       id="circle1589"
       cx="19.551682"
       cy="12.296183"
       r="0.24625129">
      <title
         id="title1587">2 Cross Connector, 2C</title>
    </circle>
    <circle
       style="fill:#008000;fill-rule:evenodd;stroke-width:0.0820837"
       id="circle1593"
       cx="20.548412"
       cy="12.281525"
       r="0.24625129">
      <title
         id="title1591">2 Cross Connector, 2C</title>
    </circle>
    <circle
       style="fill:#008000;fill-rule:evenodd;stroke-width:0.0820837"
       id="circle1597"
       cx="24.022314"
       cy="9.6577759"
       r="0.24625129">
      <title
         id="title1595">Northeast Corner Connector, NEC</title>
    </circle>
  </g>
</svg>
