<?xml version="1.0" encoding="UTF-8" standalone="no"?>
<svg
   xmlns:dc="http://purl.org/dc/elements/1.1/"
   xmlns:cc="http://creativecommons.org/ns#"
   xmlns:rdf="http://www.w3.org/1999/02/22-rdf-syntax-ns#"
   xmlns:svg="http://www.w3.org/2000/svg"
   xmlns="http://www.w3.org/2000/svg"
   width="16.216034"
   height="15"
   viewBox="0 0 4.2904922 3.9687501"
   version="1.1"
   id="svg8">
  <defs
     id="defs2" />
  <metadata
     id="metadata5">
    <rdf:RDF>
      <cc:Work
         rdf:about="">
        <dc:format>image/svg+xml</dc:format>
        <dc:type
           rdf:resource="http://purl.org/dc/dcmitype/StillImage" />
        <dc:title></dc:title>
      </cc:Work>
    </rdf:RDF>
  </metadata>
  <g
     id="layer1"
     transform="translate(-16.233845,-7.2760416)">
    <g
       id="g1474"
       transform="matrix(0,-0.07808054,0.07808054,0,16.799929,9.1499748)">
      <title
         id="title1470">Right Horizontal Mark, RH</title>
      <polygon
         points="4,40 4,4 0,0 12,0 8,4 8,40 "
         style="fill:#ff0000"
         id="polygon1472" />
    </g>
    <g
       id="g1560"
       transform="matrix(0.07808054,0,0,0.07808054,20.256633,6.9888167)">
      <title
         id="title1556">Down Vertical Mark, DV</title>
      <polygon
         points="8,4 8,45 4,45 4,4 0,0 12,0 "
         style="fill:#ff0000"
         id="polygon1558"
         transform="translate(-8.5714286,7.6785715)" />
    </g>
    <g
       id="g1577"
       transform="matrix(0,-0.07808054,0.07808054,0,16.799929,10.086941)">
      <title
         id="title1573">Right Horizontal Mark, RH</title>
      <polygon
         points="4,4 0,0 12,0 8,4 8,40 4,40 "
         style="fill:#ff0000"
         id="polygon1575" />
    </g>
    <g
       id="g1603"
       transform="matrix(0,-0.07808054,0.07808054,0,16.799929,8.2130081)">
      <title
         id="title1599">Right Horizontal Mark, RH</title>
      <polygon
         points="0,0 12,0 8,4 8,40 4,40 4,4 "
         style="fill:#ff0000"
         id="polygon1601" />
    </g>
    <g
       id="g1609"
       transform="matrix(0,-0.07808054,0.07808054,0,16.799929,11.023908)">
      <title
         id="title1605">Right Horizontal Mark, RH</title>
      <polygon
         points="8,4 8,40 4,40 4,4 0,0 12,0 "
         style="fill:#ff0000"
         id="polygon1607" />
    </g>
    <circle
       style="fill:#008000;fill-rule:evenodd;stroke-width:0.0780804"
       id="circle1597"
       cx="20.028013"
       cy="7.7568278"
       r="0.23424162">
      <title
         id="title1595">Northeast Corner Connector, NEC</title>
    </circle>
    <circle
       style="fill:#008000;fill-rule:evenodd;stroke-width:0.0780804"
       id="circle1499"
       cx="20.014071"
       cy="8.6631203"
       r="0.23424162">
      <title
         id="title1497">Right 2 Touch Connector, R2T</title>
    </circle>
    <circle
       style="fill:#008000;fill-rule:evenodd;stroke-width:0.0780804"
       id="circle1581"
       cx="20.014071"
       cy="9.6112404"
       r="0.23424162">
      <title
         id="title1579">Right 2 Touch Connector, R2T</title>
    </circle>
    <circle
       style="fill:#008000;fill-rule:evenodd;stroke-width:0.0780804"
       id="circle1585"
       cx="20.014071"
       cy="10.573304"
       r="0.23424162">
      <title
         id="title1583">Right 2 Touch Connector, R2T</title>
    </circle>
    <polygon
       points="6,12 0,6 6,0 "
       style="fill:#ff0000"
       id="polygon1639"
       transform="matrix(0.07808054,0,0,0.07808054,16.233845,8.6268685)">
      <title
         id="title1645">Heel Mark, HE</title>
    </polygon>
    <g
       id="g1819"
       transform="matrix(0.07808054,0,0,0.07808054,12.974802,11.266526)">
      <title
         id="title1815">Right Down Diagonal, RDD</title>
      <polygon
         points="8,4 8,10 4,10 4,4 0,0 12,0 "
         style="fill:#ff0000"
         id="polygon1817"
         transform="rotate(-45,-12.344008,-107.40166)" />
    </g>
    <g
       id="g1836"
       transform="matrix(0.07808054,0,0,0.07808054,12.992931,14.051249)">
      <title
         id="title1832">Right Down Diagonal, RDD</title>
      <polygon
         points="12,0 8,4 8,10 4,10 4,4 0,0 "
         style="fill:#ff0000"
         id="polygon1834"
         transform="rotate(-45,-12.344008,-107.40166)" />
    </g>
    <circle
       style="fill:#008000;fill-rule:evenodd;stroke-width:0.0780804"
       id="circle1840"
       cx="19.163549"
       cy="10.531476"
       r="0.23424162">
      <title
         id="title1838">Other 2 Touch Connector, O2T</title>
    </circle>
    <circle
       style="fill:#008000;fill-rule:evenodd;stroke-width:0.0780804"
       id="circle1844"
       cx="19.135664"
       cy="7.7289424"
       r="0.23424162">
      <title
         id="title1842">Other 2 Touch Connector, O2T</title>
    </circle>
  </g>
</svg>
