<?xml version="1.0" encoding="UTF-8" standalone="no"?>
<svg
   xmlns:dc="http://purl.org/dc/elements/1.1/"
   xmlns:cc="http://creativecommons.org/ns#"
   xmlns:rdf="http://www.w3.org/1999/02/22-rdf-syntax-ns#"
   xmlns:svg="http://www.w3.org/2000/svg"
   xmlns="http://www.w3.org/2000/svg"
   width="21.985321"
   height="15"
   viewBox="0 0 5.8169493 3.9687501"
   version="1.1"
   id="svg8">
  <defs
     id="defs2" />
  <metadata
     id="metadata5">
    <rdf:RDF>
      <cc:Work
         rdf:about="">
        <dc:format>image/svg+xml</dc:format>
        <dc:type
           rdf:resource="http://purl.org/dc/dcmitype/StillImage" />
        <dc:title></dc:title>
      </cc:Work>
    </rdf:RDF>
  </metadata>
  <g
     id="layer1"
     transform="translate(-18.305439,-6.8980654)">
    <g
       id="g1338"
       transform="matrix(0,-0.10659511,0.10659511,0,18.305439,10.813503)">
      <title
         id="title1334">Right Horizontal  Mark, RH</title>
      <polygon
         points="0,0 12,0 8,4 8,40 4,40 4,4 "
         style="fill:#ff0000"
         id="polygon1336" />
    </g>
    <g
       id="g1344"
       transform="matrix(0.10659511,0,0,0.10659511,18.358737,8.2019377)">
      <title
         id="title1340">Down Vertical Mark, DV</title>
      <polygon
         points="4,4 0,0 12,0 8,4 8,25 4,25 "
         style="fill:#ff0000"
         id="polygon1342" />
    </g>
    <circle
       style="fill:#008000;fill-rule:evenodd;stroke-width:0.106595"
       id="circle1229"
       cx="19.031778"
       cy="10.17847"
       r="0.31978533">
      <title
         id="title1227">2 Cross Connector, 2C</title>
    </circle>
    <g
       id="g1405"
       transform="matrix(0.10659511,0,0,0.10659511,19.637878,8.2019377)">
      <title
         id="title1401">Down Vertical Mark, DV</title>
      <polygon
         points="8,4 8,25 4,25 4,4 0,0 12,0 "
         style="fill:#ff0000"
         id="polygon1403" />
    </g>
    <circle
       style="fill:#008000;fill-rule:evenodd;stroke-width:0.106595"
       id="circle1409"
       cx="20.269043"
       cy="10.197504"
       r="0.31978533">
      <title
         id="title1407">2 Cross Connector, 2C</title>
    </circle>
    <g
       id="g1415"
       transform="matrix(0.05329755,-0.09231407,0.09231407,0.05329755,20.003445,8.0058343)">
      <title
         id="title1411">Right Down Diagonal Mark, RDD</title>
      <polygon
         points="0,0 12,0 8,4 8,40 4,40 4,4 "
         style="fill:#ff0000"
         id="polygon1413" />
    </g>
  </g>
</svg>
