<?xml version="1.0" encoding="UTF-8" standalone="no"?>
<svg
   xmlns:dc="http://purl.org/dc/elements/1.1/"
   xmlns:cc="http://creativecommons.org/ns#"
   xmlns:rdf="http://www.w3.org/1999/02/22-rdf-syntax-ns#"
   xmlns:svg="http://www.w3.org/2000/svg"
   xmlns="http://www.w3.org/2000/svg"
   width="21.417067"
   height="15"
   viewBox="0 0 5.6665987 3.9687501"
   version="1.1"
   id="svg8">
  <defs
     id="defs2" />
  <metadata
     id="metadata5">
    <rdf:RDF>
      <cc:Work
         rdf:about="">
        <dc:format>image/svg+xml</dc:format>
        <dc:type
           rdf:resource="http://purl.org/dc/dcmitype/StillImage" />
        <dc:title></dc:title>
      </cc:Work>
    </rdf:RDF>
  </metadata>
  <g
     id="layer1"
     transform="translate(-18.002638,-7.5595237)">
    <g
       id="g334"
       transform="matrix(0.07546136,0,0,0.07546136,18.002638,8.0122919)">
      <title
         id="title330">Down Vertical Mark, DV</title>
      <polygon
         points="4,40 4,4 0,0 12,0 8,4 8,40 "
         style="fill:#ff0000"
         id="polygon332" />
    </g>
    <g
       id="g351"
       transform="matrix(0.07546136,0,0,0.07546136,22.7637,8.0931433)">
      <title
         id="title347">Down Vertical Mark, DV</title>
      <polygon
         points="8,4 8,40 4,40 4,4 0,0 12,0 "
         style="fill:#ff0000"
         id="polygon349" />
    </g>
    <g
       id="g357"
       transform="matrix(0.07546136,0,0,0.07546136,21.038869,8.0392424)">
      <title
         id="title353">Down Vertical Mark, DV</title>
      <polygon
         points="4,4 0,0 12,0 8,4 8,40 4,40 "
         style="fill:#ff0000"
         id="polygon355" />
    </g>
    <g
       id="g377"
       transform="matrix(0,-0.07546136,0.07546136,0,19.456876,10.427066)">
      <title
         id="title373">Right Horizontal Mark, RH</title>
      <polygon
         points="12,0 8,4 8,25 4,25 4,4 0,0 "
         style="fill:#ff0000"
         id="polygon375" />
    </g>
    <g
       id="g394"
       transform="matrix(0,-0.07546136,0.07546136,0,19.456876,9.5290759)">
      <title
         id="title390">Right Horizontal Mark, RH</title>
      <polygon
         points="4,25 4,4 0,0 12,0 8,4 8,25 "
         style="fill:#ff0000"
         id="polygon392" />
    </g>
    <polygon
       points="6,0 6,12 0,6 "
       style="fill:#ff0000"
       id="polygon408"
       transform="matrix(0.07546136,0,0,0.07546136,22.087243,9.1091764)">
      <title
         id="title432">Heel Mark, HE</title>
    </polygon>
    <polygon
       points="0,6 6,0 6,12 "
       style="fill:#ff0000"
       id="polygon422"
       transform="matrix(0.07546136,0,0,0.07546136,18.832713,7.5595237)">
      <title
         id="title436">Heel Mark, HE</title>
    </polygon>
    <polygon
       points="0,6 6,0 6,12 "
       style="fill:#ff0000"
       id="polygon424"
       transform="matrix(0.07546136,0,0,0.07546136,18.292108,10.622737)">
      <title
         id="title434">Heel Mark, HE</title>
    </polygon>
    <g
       id="g430"
       transform="matrix(0.07546136,0,0,0.07546136,21.251778,8.8639272)">
      <title
         id="title426">Right 2 Touch Connector, R2T</title>
      <circle
         cx="3"
         cy="3"
         r="3"
         style="fill:#008000"
         id="circle428" />
    </g>
    <g
       id="g262"
       transform="matrix(0.07546136,0,0,0.07546136,21.265254,9.7532932)">
      <title
         id="title258">Right 2 Touch Connector, R2T</title>
      <circle
         cx="3"
         cy="3"
         r="3"
         style="fill:#008000"
         id="circle260" />
    </g>
  </g>
</svg>
