<?xml version="1.0" encoding="UTF-8" standalone="no"?>
<svg
   xmlns:dc="http://purl.org/dc/elements/1.1/"
   xmlns:cc="http://creativecommons.org/ns#"
   xmlns:rdf="http://www.w3.org/1999/02/22-rdf-syntax-ns#"
   xmlns:svg="http://www.w3.org/2000/svg"
   xmlns="http://www.w3.org/2000/svg"
   width="40.050003"
   height="30"
   viewBox="0 0 10.596563 7.9375001"
   version="1.1"
   id="svg8">
  <defs
     id="defs2" />
  <metadata
     id="metadata5">
    <rdf:RDF>
      <cc:Work
         rdf:about="">
        <dc:format>image/svg+xml</dc:format>
        <dc:type
           rdf:resource="http://purl.org/dc/dcmitype/StillImage" />
        <dc:title></dc:title>
      </cc:Work>
    </rdf:RDF>
  </metadata>
  <g
     id="layer1"
     transform="translate(-13.128057,-6.7090777)">
    <g
       id="layer1-7"
       transform="matrix(0.75,0,0,0.75,2.7114789,3.0238101)">
      <g
         id="g857"
         transform="matrix(0.26458333,0,0,0.26458333,19.295684,4.9136902)">
        <title
           id="title853">Down Vertical Mark, DV</title>
        <polygon
           points="0,0 12,0 8,4 8,40 4,40 4,4 "
           style="fill:#ff0000"
           id="polygon855" />
      </g>
      <g
         id="g881"
         transform="matrix(0,-0.26458333,0.26458333,0,21.402939,11.579225)">
        <title
           id="title877">Right Horizontal Mark, RH</title>
        <polygon
           points="8,4 8,25 4,25 4,4 0,0 12,0 "
           style="fill:#ff0000"
           id="polygon879" />
      </g>
      <g
         id="g898"
         transform="matrix(0,-0.26458333,0.26458333,0,13.888771,11.579225)">
        <title
           id="title894">Right Horizontal Mark, RH</title>
        <polygon
           points="8,4 8,25 4,25 4,4 0,0 12,0 "
           style="fill:#ff0000"
           id="polygon896" />
      </g>
    </g>
  </g>
</svg>
