<?xml version="1.0" encoding="UTF-8" standalone="no"?>
<svg
   xmlns:dc="http://purl.org/dc/elements/1.1/"
   xmlns:cc="http://creativecommons.org/ns#"
   xmlns:rdf="http://www.w3.org/1999/02/22-rdf-syntax-ns#"
   xmlns:svg="http://www.w3.org/2000/svg"
   xmlns="http://www.w3.org/2000/svg"
   width="15.74992"
   height="15"
   viewBox="0 0 4.1671662 3.9687501"
   version="1.1"
   id="svg8">
  <defs
     id="defs2" />
  <metadata
     id="metadata5">
    <rdf:RDF>
      <cc:Work
         rdf:about="">
        <dc:format>image/svg+xml</dc:format>
        <dc:type
           rdf:resource="http://purl.org/dc/dcmitype/StillImage" />
        <dc:title></dc:title>
      </cc:Work>
    </rdf:RDF>
  </metadata>
  <g
     id="layer1"
     transform="translate(-18.232637,-8.7406994)">
    <g
       id="g495"
       transform="matrix(0.04960937,0,0,0.04960937,18.232637,8.9242541)">
      <title
         id="title491">Down Vertical Mark, DV</title>
      <polygon
         points="0,0 12,0 8,4 8,72 4,72 4,4 "
         style="fill:#ff0000"
         id="polygon493" />
    </g>
    <g
       id="g512"
       transform="matrix(0.04960937,0,0,0.04960937,21.804491,8.9341759)">
      <title
         id="title508">Down Vertical Mark, DV</title>
      <polygon
         points="0,0 12,0 8,4 8,72 4,72 4,4 "
         style="fill:#ff0000"
         id="polygon510" />
    </g>
    <g
       id="g518"
       transform="matrix(0,-0.04960937,0.04960937,0,18.431074,9.3360119)">
      <title
         id="title514">Right Horizontal Mark, RH</title>
      <polygon
         points="0,0 12,0 8,4 8,72 4,72 4,4 "
         style="fill:#ff0000"
         id="polygon516" />
    </g>
    <g
       id="g524"
       transform="matrix(0,-0.04960937,0.04960937,0,18.431074,12.709449)">
      <title
         id="title520">Right Horizontal Mark, RH</title>
      <polygon
         points="0,0 12,0 8,4 8,72 4,72 4,4 "
         style="fill:#ff0000"
         id="polygon522" />
    </g>
    <g
       id="g376"
       transform="matrix(0.04960937,0,0,0.04960937,21.924992,8.9125605)">
      <title
         id="title372">Northeast Corner Connector, NEC</title>
      <circle
         cx="3"
         cy="3"
         r="3"
         style="fill:#008000"
         id="circle374" />
    </g>
    <g
       id="g423"
       transform="matrix(0.04960937,0,0,0.04960937,18.381465,8.8948428)">
      <title
         id="title419">Northwest Corner Connector, NWC</title>
      <circle
         cx="3"
         cy="3"
         r="3"
         style="fill:#008000"
         id="circle421" />
    </g>
    <g
       id="g417"
       transform="matrix(0.04960937,0,0,0.04960937,18.434618,12.270052)">
      <title
         id="title413">Southwest Corner Connector, SWC</title>
      <circle
         cx="3"
         cy="3"
         r="3"
         style="fill:#008000"
         id="circle415" />
    </g>
    <g
       id="g393"
       transform="matrix(0.04960937,0,0,0.04960937,21.969286,12.252334)">
      <title
         id="title389">Southeast Corner Connector, SEC</title>
      <circle
         cx="3"
         cy="3"
         r="3"
         style="fill:#008000"
         id="circle391" />
    </g>
    <polygon
       points="12,0 8,4 8,35 12,40 0,40 4,35 4,4 0,0 "
       style="fill:#ff0000"
       id="polygon948"
       transform="matrix(0,-0.04960937,0.04960937,0,19.417932,11.015644)">
      <title
         id="title962">Right Horizontal Barbell Mark, RHBB</title>
    </polygon>
  </g>
</svg>
