<?xml version="1.0" encoding="UTF-8" standalone="no"?>
<svg
   xmlns:dc="http://purl.org/dc/elements/1.1/"
   xmlns:cc="http://creativecommons.org/ns#"
   xmlns:rdf="http://www.w3.org/1999/02/22-rdf-syntax-ns#"
   xmlns:svg="http://www.w3.org/2000/svg"
   xmlns="http://www.w3.org/2000/svg"
   width="26.126724"
   height="15"
   viewBox="0 0 6.9126956 3.9687501"
   version="1.1"
   id="svg8">
  <defs
     id="defs2" />
  <metadata
     id="metadata5">
    <rdf:RDF>
      <cc:Work
         rdf:about="">
        <dc:format>image/svg+xml</dc:format>
        <dc:type
           rdf:resource="http://purl.org/dc/dcmitype/StillImage" />
        <dc:title></dc:title>
      </cc:Work>
    </rdf:RDF>
  </metadata>
  <g
     id="layer1"
     transform="translate(-21.442834,-8.6462053)">
    <polygon
       points="0,0 12,0 8,4 8,30 4,30 4,4 "
       style="fill:#ff0000"
       id="polygon1446"
       transform="matrix(0.08208376,0,0,0.08208376,22.943864,10.144234)">
      <title
         id="title1444">Down Vertical Mark, DV</title>
    </polygon>
    <polygon
       points="0,0 12,0 8,4 8,30 4,30 4,4 "
       style="fill:#ff0000"
       id="polygon1454"
       transform="matrix(0.08208376,0,0,0.08208376,21.958859,10.152442)">
      <title
         id="title1452">Down Vertical Mark, DV</title>
    </polygon>
    <g
       id="g1474"
       transform="matrix(0,-0.08208376,0.08208376,0,25.072179,10.464361)">
      <title
         id="title1470">Right Horizontal Mark, RH</title>
      <polygon
         points="0,0 12,0 8,4 8,40 4,40 4,4 "
         style="fill:#ff0000"
         id="polygon1472" />
    </g>
    <g
       id="g1523"
       transform="matrix(0,-0.08208376,0.08208376,0,21.467494,9.6312105)">
      <title
         id="title1519">Right Horizontal Mark, RH</title>
      <polygon
         points="8,4 8,72 4,72 4,4 0,0 12,0 "
         style="fill:#ff0000"
         id="polygon1521" />
    </g>
    <g
       id="g1540"
       transform="matrix(0,-0.08208376,0.08208376,0,21.442834,12.371085)">
      <title
         id="title1536">Right Horizontal Mark, RH</title>
      <polygon
         points="0,0 12,0 8,4 8,72 4,72 4,4 "
         style="fill:#ff0000"
         id="polygon1538" />
    </g>
    <g
       id="g1560"
       transform="matrix(0.08208376,0,0,0.08208376,26.39252,9.1140828)">
      <title
         id="title1556">Down Vertical Mark, DV</title>
      <polygon
         points="4,4 0,0 12,0 8,4 8,40 4,40 "
         style="fill:#ff0000"
         id="polygon1558" />
    </g>
    <g
       id="g1577"
       transform="matrix(0,-0.08208376,0.08208376,0,25.072179,11.449366)">
      <title
         id="title1573">Right Horizontal Mark, RH</title>
      <polygon
         points="8,40 4,40 4,4 0,0 12,0 8,4 "
         style="fill:#ff0000"
         id="polygon1575" />
    </g>
    <circle
       style="fill:#008000;fill-rule:evenodd;stroke-width:0.0820837"
       id="circle1499"
       cx="26.875067"
       cy="9.9654436"
       r="0.24625129">
      <title
         id="title1497">2 Cross Connector, 2C</title>
    </circle>
    <circle
       style="fill:#008000;fill-rule:evenodd;stroke-width:0.0820837"
       id="circle1581"
       cx="26.919041"
       cy="10.99149"
       r="0.24625129">
      <title
         id="title1579">2 Cross Connector, 2C</title>
    </circle>
    <circle
       style="fill:#008000;fill-rule:evenodd;stroke-width:0.0820837"
       id="circle1585-7"
       cx="26.889725"
       cy="11.900274"
       r="0.24625129">
      <title
         id="title1583-4">2 Cross Connector, 2C</title>
    </circle>
    <circle
       style="fill:#008000;fill-rule:evenodd;stroke-width:0.0820837"
       id="circle1589"
       cx="22.433748"
       cy="11.870959"
       r="0.24625129">
      <title
         id="title1587">2 Cross Connector, 2C</title>
    </circle>
    <circle
       style="fill:#008000;fill-rule:evenodd;stroke-width:0.0820837"
       id="circle1593"
       cx="23.430481"
       cy="11.856301"
       r="0.24625129">
      <title
         id="title1591">2 Cross Connector, 2C</title>
    </circle>
    <circle
       style="fill:#008000;fill-rule:evenodd;stroke-width:0.0820837"
       id="circle1597"
       cx="26.904383"
       cy="9.2325525"
       r="0.24625129">
      <title
         id="title1595">Northeast Corner Connector, NEC</title>
    </circle>
    <g
       id="g2075"
       transform="matrix(0.08208376,0,0,0.08208376,25.407514,9.3029107)">
      <title
         id="title2071">Down Vertical Mark, DV</title>
      <polygon
         points="4,4 0,0 12,0 8,4 8,40 4,40 "
         style="fill:#ff0000"
         id="polygon2073" />
    </g>
    <circle
       style="fill:#008000;fill-rule:evenodd;stroke-width:0.0820837"
       id="circle1790"
       cx="25.915272"
       cy="9.293788"
       r="0.24625129">
      <title
         id="title1788">Top 2 Touch Connector, T2T</title>
    </circle>
    <circle
       style="fill:#008000;fill-rule:evenodd;stroke-width:0.0820837"
       id="circle2079"
       cx="25.892994"
       cy="9.9801006"
       r="0.24625129">
      <title
         id="title2077">2 Cross Connector, 2C</title>
    </circle>
    <circle
       style="fill:#008000;fill-rule:evenodd;stroke-width:0.0820837"
       id="circle2083"
       cx="25.878336"
       cy="10.962174"
       r="0.24625129">
      <title
         id="title2081">2 Cross Connector, 2C</title>
    </circle>
    <circle
       style="fill:#008000;fill-rule:evenodd;stroke-width:0.0820837"
       id="circle2087"
       cx="25.907652"
       cy="11.900275"
       r="0.24625129">
      <title
         id="title2085">2 Cross Connector, 2C</title>
    </circle>
  </g>
</svg>
