<?xml version="1.0" encoding="UTF-8" standalone="no"?>
<svg
   xmlns:dc="http://purl.org/dc/elements/1.1/"
   xmlns:cc="http://creativecommons.org/ns#"
   xmlns:rdf="http://www.w3.org/1999/02/22-rdf-syntax-ns#"
   xmlns:svg="http://www.w3.org/2000/svg"
   xmlns="http://www.w3.org/2000/svg"
   width="14.858948"
   height="15"
   viewBox="0 0 3.9314298 3.9687501"
   version="1.1"
   id="svg8">
  <defs
     id="defs2" />
  <metadata
     id="metadata5">
    <rdf:RDF>
      <cc:Work
         rdf:about="">
        <dc:format>image/svg+xml</dc:format>
        <dc:type
           rdf:resource="http://purl.org/dc/dcmitype/StillImage" />
        <dc:title></dc:title>
      </cc:Work>
    </rdf:RDF>
  </metadata>
  <g
     id="layer1"
     transform="translate(-16.555118,-7.9374999)">
    <g
       id="g857"
       transform="matrix(0.09921875,0,0,0.09921875,19.295923,7.9374999)">
      <title
         id="title853">Down Vertical Mark, DV</title>
      <polygon
         points="0,0 12,0 8,4 8,40 4,40 4,4 "
         style="fill:#ff0000"
         id="polygon855" />
    </g>
    <g
       id="g874"
       transform="matrix(0.06377658,-0.07600597,0.07600597,0.06377658,16.555118,9.4765488)">
      <title
         id="title870">Right Down Diagonal Mark, RDD</title>
      <polygon
         points="0,0 12,0 8,4 8,40 4,40 4,4 "
         style="fill:#ff0000"
         id="polygon872" />
    </g>
    <g
       id="g894"
       transform="matrix(0.06377658,-0.07600597,0.07600597,0.06377658,17.696035,9.2986496)">
      <title
         id="title890">Right Down Diagonal Mark, RDD</title>
      <polygon
         points="8,25 4,25 4,4 0,0 12,0 8,4 "
         style="fill:#ff0000"
         id="polygon892" />
    </g>
    <g
       id="g925"
       transform="matrix(0.09921875,0,0,0.09921875,18.826925,8.365167)">
      <title
         id="title921">Right Down Diagonal Mark, RDD</title>
      <polygon
         points="8,10 4,10 4,4 0,0 12,0 8,4 "
         style="fill:#ff0000"
         id="polygon923"
         transform="rotate(-50,6,5)" />
    </g>
    <circle
       style="fill:#008000;fill-rule:evenodd;stroke-width:0.0992186"
       id="path839"
       cx="19.855801"
       cy="11.339286"
       r="0.29765624">
      <title
         id="title954">Other 2 Touch Connector, O2T</title>
    </circle>
    <circle
       style="fill:#008000;fill-rule:evenodd;stroke-width:0.0992186"
       id="circle958"
       cx="19.855801"
       cy="10.205357"
       r="0.29765624">
      <title
         id="title956">Other 2 Touch Connector, O2T</title>
    </circle>
    <circle
       style="fill:#008000;fill-rule:evenodd;stroke-width:0.0992186"
       id="circle962"
       cx="19.873518"
       cy="9.106864"
       r="0.29765624">
      <title
         id="title960">Other 2 Touch Connector, O2T</title>
    </circle>
  </g>
</svg>
