<?xml version="1.0" encoding="UTF-8" standalone="no"?>
<svg
   xmlns:dc="http://purl.org/dc/elements/1.1/"
   xmlns:cc="http://creativecommons.org/ns#"
   xmlns:rdf="http://www.w3.org/1999/02/22-rdf-syntax-ns#"
   xmlns:svg="http://www.w3.org/2000/svg"
   xmlns="http://www.w3.org/2000/svg"
   width="21.318115"
   height="15"
   viewBox="0 0 5.6404178 3.9687501"
   version="1.1"
   id="svg8">
  <defs
     id="defs2" />
  <metadata
     id="metadata5">
    <rdf:RDF>
      <cc:Work
         rdf:about="">
        <dc:format>image/svg+xml</dc:format>
        <dc:type
           rdf:resource="http://purl.org/dc/dcmitype/StillImage" />
        <dc:title></dc:title>
      </cc:Work>
    </rdf:RDF>
  </metadata>
  <g
     id="layer1"
     transform="translate(-17.023541,-7.2760421)">
    <g
       id="g1690"
       transform="matrix(0,-0.12026515,0.12026515,0,17.023541,8.7192239)">
      <title
         id="title1686">Right Horizontal Mark, RH</title>
      <polygon
         points="0,0 12,0 8,4 8,40 4,40 4,4 "
         style="fill:#ff0000"
         id="polygon1688" />
    </g>
    <polygon
       points="0,6 6,0 6,12 "
       style="fill:#ff0000"
       id="polygon1819"
       transform="matrix(0.12026515,0,0,0.12026515,21.930341,9.1160476)">
      <title
         id="title1881">Heel Mark, HE</title>
    </polygon>
    <polygon
       points="0,6 6,0 6,12 "
       style="fill:#ff0000"
       id="polygon1833"
       transform="matrix(0.12026515,0,0,0.12026515,20.408145,9.1615764)">
      <title
         id="title1885">Heel Mark, HE</title>
    </polygon>
    <polygon
       points="6,0 6,12 0,6 "
       style="fill:#ff0000"
       id="polygon1835"
       transform="matrix(0.12026515,0,0,0.12026515,21.942368,7.5766536)">
      <title
         id="title1883">Heel Mark, HE</title>
    </polygon>
    <g
       id="g1849"
       transform="matrix(0,-0.12026515,0.12026515,0,17.124889,10.845289)">
      <title
         id="title1845">Right Horizontal Mark, RH</title>
      <polygon
         points="4,4 0,0 12,0 8,4 8,25 4,25 "
         style="fill:#ff0000"
         id="polygon1847" />
    </g>
    <g
       id="g1861"
       transform="matrix(0.12026515,0,0,0.12026515,17.504601,8.2381633)">
      <title
         id="title1857">Down Vertical Mark, DV</title>
      <polygon
         points="8,25 4,25 4,4 0,0 12,0 8,4 "
         style="fill:#ff0000"
         id="polygon1859" />
    </g>
    <circle
       style="fill:#008000;fill-rule:evenodd;stroke-width:0.120265"
       id="circle1879"
       cx="18.227911"
       cy="8.2364454"
       r="0.36079547">
      <title
         id="title1891">Top 2 Touch Connector, T2T</title>
    </circle>
    <circle
       style="fill:#008000;fill-rule:evenodd;stroke-width:0.120265"
       id="path839"
       cx="18.270861"
       cy="10.10485"
       r="0.36079547">
      <title
         id="title1889">2 Cross Connector, 2C</title>
    </circle>
  </g>
</svg>
