<?xml version="1.0" encoding="UTF-8" standalone="no"?>
<svg
   xmlns:dc="http://purl.org/dc/elements/1.1/"
   xmlns:cc="http://creativecommons.org/ns#"
   xmlns:rdf="http://www.w3.org/1999/02/22-rdf-syntax-ns#"
   xmlns:svg="http://www.w3.org/2000/svg"
   xmlns="http://www.w3.org/2000/svg"
   width="7.2000003"
   height="15"
   viewBox="0 0 1.905 3.9687501"
   version="1.1"
   id="svg8">
  <defs
     id="defs2" />
  <metadata
     id="metadata5">
    <rdf:RDF>
      <cc:Work
         rdf:about="">
        <dc:format>image/svg+xml</dc:format>
        <dc:type
           rdf:resource="http://purl.org/dc/dcmitype/StillImage" />
        <dc:title></dc:title>
      </cc:Work>
    </rdf:RDF>
  </metadata>
  <g
     id="layer1"
     transform="translate(-19.36372,-8.551711)">
    <g
       id="g1096"
       transform="matrix(0.079375,0,0,0.079375,19.36372,8.551711)">
      <title
         id="title1092">Down Vertical Mark, DV</title>
      <polygon
         points="8,25 4,25 4,4 0,0 12,0 8,4 "
         style="fill:#ff0000"
         id="polygon1094" />
    </g>
    <g
       id="g1113"
       transform="matrix(0.079375,0,0,0.079375,20.31622,8.551711)">
      <title
         id="title1109">Down Vertical Mark, DV</title>
      <polygon
         points="0,0 12,0 8,4 8,25 4,25 4,4 "
         style="fill:#ff0000"
         id="polygon1111" />
    </g>
    <g
       id="g1119"
       transform="matrix(0.079375,0,0,0.079375,19.847909,10.536086)">
      <title
         id="title1115">Down Vertical Mark, DV</title>
      <polygon
         points="4,25 4,4 0,0 12,0 8,4 8,25 "
         style="fill:#ff0000"
         id="polygon1117" />
    </g>
    <circle
       style="fill:#008000;fill-rule:evenodd;stroke-width:0.0793749"
       id="path839"
       cx="20.323603"
       cy="10.465216"
       r="0.23812501">
      <title
         id="title1137">Vertical 2 Touch Connector, V2T</title>
    </circle>
  </g>
</svg>
