<?xml version="1.0" encoding="UTF-8" standalone="no"?>
<svg
   xmlns:dc="http://purl.org/dc/elements/1.1/"
   xmlns:cc="http://creativecommons.org/ns#"
   xmlns:rdf="http://www.w3.org/1999/02/22-rdf-syntax-ns#"
   xmlns:svg="http://www.w3.org/2000/svg"
   xmlns="http://www.w3.org/2000/svg"
   width="14.986515"
   height="15"
   viewBox="0 0 3.965182 3.9687501"
   version="1.1"
   id="svg8">
  <defs
     id="defs2" />
  <metadata
     id="metadata5">
    <rdf:RDF>
      <cc:Work
         rdf:about="">
        <dc:format>image/svg+xml</dc:format>
        <dc:type
           rdf:resource="http://purl.org/dc/dcmitype/StillImage" />
        <dc:title></dc:title>
      </cc:Work>
    </rdf:RDF>
  </metadata>
  <g
     id="layer1"
     transform="translate(-15.687796,-8.6462049)">
    <g
       id="g60"
       transform="matrix(0.07889373,0,0,0.07889373,15.687796,9.427849)">
      <title
         id="title56">Down Vertical Mark, DV</title>
      <polygon
         points="4,30 4,4 0,0 12,0 8,4 8,30 "
         style="fill:#ff0000"
         id="polygon58" />
    </g>
    <g
       id="g77"
       transform="matrix(0.0204192,-0.07620549,0.07620549,0.0204192,16.073915,12.409297)">
      <title
         id="title73">Right Down Diagonal Mark, RDD</title>
      <polygon
         points="8,4 8,25 4,25 4,4 0,0 12,0 "
         style="fill:#ff0000"
         id="polygon75" />
    </g>
    <g
       id="g120"
       transform="matrix(0,-0.07889373,0.08421295,0,16.705525,11.8814)">
      <title
         id="title116">Right Horizontal Mark, RH</title>
      <polygon
         points="0,0 12,0 8,4 8,35 4,35 4,4 "
         style="fill:#ff0000"
         id="polygon118" />
    </g>
    <g
       id="g126"
       transform="matrix(0,-0.07889373,0.07889373,0,16.721304,10.942565)">
      <title
         id="title122">Right Horizontal Mark, RH</title>
      <polygon
         points="4,4 0,0 12,0 8,4 8,37 4,37 "
         style="fill:#ff0000"
         id="polygon124" />
    </g>
    <g
       id="g207"
       transform="matrix(0.07889373,0,0,0.07889373,18.362293,9.427849)">
      <title
         id="title203">Down Vertical Mark, DV</title>
      <polygon
         points="8,40 4,40 4,4 0,0 12,0 8,4 "
         style="fill:#ff0000"
         id="polygon205" />
    </g>
    <g
       id="g189"
       transform="matrix(0.07889373,0,0,0.07889373,18.581517,10.226367)">
      <title
         id="title185">2 Cross Connector, 2C</title>
      <circle
         cx="3"
         cy="3"
         r="3"
         style="fill:#008000"
         id="circle187" />
    </g>
    <g
       id="g213"
       transform="matrix(0.07889373,0,0,0.07889373,18.567429,11.11621)">
      <title
         id="title209">2 Cross Connector, 2C</title>
      <circle
         cx="3"
         cy="3"
         r="3"
         style="fill:#008000"
         id="circle211" />
    </g>
    <g
       id="g154"
       transform="matrix(0.07889373,0,0,0.07889373,16.101999,11.630675)">
      <title
         id="title150">Other 2 Touch Connector, O2T</title>
      <circle
         cx="3"
         cy="3"
         r="3"
         style="fill:#008000"
         id="circle152" />
    </g>
    <polygon
       points="0,6 6,0 6,12 "
       style="fill:#ff0000"
       id="polygon233"
       transform="matrix(0.07889373,0,0,0.07889373,17.090991,8.6462049)">
      <title
         id="title247">Heel Mark, HE</title>
    </polygon>
  </g>
</svg>
