<?xml version="1.0" encoding="UTF-8" standalone="no"?>
<svg
   xmlns:dc="http://purl.org/dc/elements/1.1/"
   xmlns:cc="http://creativecommons.org/ns#"
   xmlns:rdf="http://www.w3.org/1999/02/22-rdf-syntax-ns#"
   xmlns:svg="http://www.w3.org/2000/svg"
   xmlns="http://www.w3.org/2000/svg"
   width="16.368603"
   height="15"
   viewBox="0 0 4.3308593 3.9687501"
   version="1.1"
   id="svg8">
  <defs
     id="defs2" />
  <metadata
     id="metadata5">
    <rdf:RDF>
      <cc:Work
         rdf:about="">
        <dc:format>image/svg+xml</dc:format>
        <dc:type
           rdf:resource="http://purl.org/dc/dcmitype/StillImage" />
        <dc:title></dc:title>
      </cc:Work>
    </rdf:RDF>
  </metadata>
  <g
     id="layer1"
     transform="translate(-16.73338,-8.3154762)">
    <g
       id="g34"
       transform="matrix(0.09019886,0,0,0.09019886,19.981853,8.3154762)">
      <title
         id="title30">Down Vertical Mark, DV</title>
      <polygon
         points="4,4 0,0 12,0 8,4 8,40 4,40 "
         style="fill:#ff0000"
         id="polygon32" />
    </g>
    <g
       id="g51"
       transform="matrix(0,-0.09019886,0.09019886,0,16.734694,12.284226)">
      <title
         id="title47">Right Horizontal Mark, RH</title>
      <polygon
         points="4,40 4,4 0,0 12,0 8,4 8,40 "
         style="fill:#ff0000"
         id="polygon49" />
    </g>
    <g
       id="g57"
       transform="matrix(0,-0.09019886,0.09019886,0,16.734694,9.3978626)">
      <title
         id="title53">Right Horizontal Mark, RH</title>
      <polygon
         points="12,0 8,4 8,40 4,40 4,4 0,0 "
         style="fill:#ff0000"
         id="polygon55" />
    </g>
    <g
       id="g63"
       transform="matrix(0,-0.09019886,0.09019886,0,16.73338,10.83714)">
      <title
         id="title59">Right Horizontal Mark, RH</title>
      <polygon
         points="8,40 4,40 4,4 0,0 12,0 8,4 "
         style="fill:#ff0000"
         id="polygon61" />
    </g>
    <g
       id="g83"
       transform="matrix(0.09019886,0,0,0.09019886,20.204129,11.427337)">
      <title
         id="title79">Southeast Corner Connector, SEC</title>
      <circle
         cx="3"
         cy="3"
         r="3"
         style="fill:#008000"
         id="circle81" />
    </g>
    <g
       id="g100"
       transform="matrix(0.09019886,0,0,0.09019886,20.220236,8.5925157)">
      <title
         id="title96">Northeast Corner Connector, NEC</title>
      <circle
         cx="3"
         cy="3"
         r="3"
         style="fill:#008000"
         id="circle98" />
    </g>
    <g
       id="g106"
       transform="matrix(0.09019886,0,0,0.09019886,20.204129,10.026034)">
      <title
         id="title102">Right 2 Touch Connector, R2T</title>
      <circle
         cx="3"
         cy="3"
         r="3"
         style="fill:#008000"
         id="circle104" />
    </g>
  </g>
</svg>
