<?xml version="1.0" encoding="UTF-8" standalone="no"?>
<svg
   xmlns:dc="http://purl.org/dc/elements/1.1/"
   xmlns:cc="http://creativecommons.org/ns#"
   xmlns:rdf="http://www.w3.org/1999/02/22-rdf-syntax-ns#"
   xmlns:svg="http://www.w3.org/2000/svg"
   xmlns="http://www.w3.org/2000/svg"
   width="39.99992"
   height="15"
   viewBox="0 0 10.583312 3.9687501"
   version="1.1"
   id="svg8">
  <defs
     id="defs2" />
  <metadata
     id="metadata5">
    <rdf:RDF>
      <cc:Work
         rdf:about="">
        <dc:format>image/svg+xml</dc:format>
        <dc:type
           rdf:resource="http://purl.org/dc/dcmitype/StillImage" />
        <dc:title></dc:title>
      </cc:Work>
    </rdf:RDF>
  </metadata>
  <g
     id="layer1"
     transform="translate(-15.638776,-8.5517112)">
    <g
       id="g1690"
       transform="matrix(0,-0.13362793,0.13362793,0,15.638776,10.155246)">
      <title
         id="title1686">Right Horizontal Mark, RH</title>
      <polygon
         points="8,4 8,40 4,40 4,4 0,0 12,0 "
         style="fill:#ff0000"
         id="polygon1688" />
    </g>
    <g
       id="g1794"
       transform="matrix(0,-0.13362793,0.13362793,0,15.688409,12.520461)">
      <title
         id="title1790">Right Horizontal Mark, RH</title>
      <polygon
         points="8,25 4,25 4,4 0,0 12,0 8,4 "
         style="fill:#ff0000"
         id="polygon1792" />
    </g>
    <polygon
       points="6,12 0,6 6,0 "
       style="fill:#ff0000"
       id="polygon1819"
       transform="matrix(0.13362793,0,0,0.13362793,20.770069,10.890143)">
      <title
         id="title1881">Heel Mark, HE</title>
    </polygon>
    <polygon
       points="6,12 0,6 6,0 "
       style="fill:#ff0000"
       id="polygon1833"
       transform="matrix(0.13362793,0,0,0.13362793,19.981664,10.075013)">
      <title
         id="title1885">Heel Mark, HE</title>
    </polygon>
    <polygon
       points="6,12 0,6 6,0 "
       style="fill:#ff0000"
       id="polygon1835"
       transform="matrix(0.13362793,0,0,0.13362793,20.770069,9.2866078)">
      <title
         id="title1883">Heel Mark, HE</title>
    </polygon>
    <polygon
       points="0,6 6,0 6,12 "
       style="fill:#ff0000"
       id="polygon1837"
       transform="matrix(0.13362793,0,0,0.13362793,19.139808,10.87678)">
      <title
         id="title1887">Heel Mark, HE</title>
    </polygon>
    <g
       id="g1843"
       transform="matrix(0,-0.13362793,0.13362793,0,21.786576,10.229697)">
      <title
         id="title1839">Right Horizontal Mark, RH</title>
      <polygon
         points="8,25 4,25 4,4 0,0 12,0 8,4 "
         style="fill:#ff0000"
         id="polygon1841" />
    </g>
    <g
       id="g1849"
       transform="matrix(0,-0.13362793,0.13362793,0,21.812366,12.493678)">
      <title
         id="title1845">Right Horizontal Mark, RH</title>
      <polygon
         points="8,25 4,25 4,4 0,0 12,0 8,4 "
         style="fill:#ff0000"
         id="polygon1847" />
    </g>
    <g
       id="g1861"
       transform="matrix(0.13362793,0,0,0.13362793,24.618553,9.0460774)">
      <title
         id="title1857">Down Vertical Mark, DV</title>
      <polygon
         points="12,0 8,4 8,25 4,25 4,4 0,0 "
         style="fill:#ff0000"
         id="polygon1859" />
    </g>
    <circle
       style="fill:#008000;fill-rule:evenodd;stroke-width:0.133628"
       id="path839"
       cx="25.304846"
       cy="11.694831"
       r="0.40088379">
      <title
         id="title1889">Right 2 Touch Connector, R2T</title>
    </circle>
    <circle
       style="fill:#008000;fill-rule:evenodd;stroke-width:0.133628"
       id="circle1879"
       cx="25.304848"
       cy="9.4517908"
       r="0.40088379">
      <title
         id="title1891">Northeast Corner Connector, NEC</title>
    </circle>
  </g>
</svg>
