<?xml version="1.0" encoding="UTF-8" standalone="no"?>
<svg
   xmlns:dc="http://purl.org/dc/elements/1.1/"
   xmlns:cc="http://creativecommons.org/ns#"
   xmlns:rdf="http://www.w3.org/1999/02/22-rdf-syntax-ns#"
   xmlns:svg="http://www.w3.org/2000/svg"
   xmlns="http://www.w3.org/2000/svg"
   width="12.600379"
   height="15"
   viewBox="0 0 3.3338502 3.9687501"
   version="1.1"
   id="svg8">
  <defs
     id="defs2" />
  <metadata
     id="metadata5">
    <rdf:RDF>
      <cc:Work
         rdf:about="">
        <dc:format>image/svg+xml</dc:format>
        <dc:type
           rdf:resource="http://purl.org/dc/dcmitype/StillImage" />
        <dc:title></dc:title>
      </cc:Work>
    </rdf:RDF>
  </metadata>
  <g
     id="layer1"
     transform="translate(-18.082331,-7.0398062)">
    <g
       id="g1165"
       transform="matrix(0.08252338,0,0,0.08252338,18.445339,7.6593092)">
      <title
         id="title1161">Down Vertical Mark, DV</title>
      <polygon
         points="4,40 4,4 0,0 12,0 8,4 8,40 "
         style="fill:#ff0000"
         id="polygon1163" />
    </g>
    <g
       id="g1230"
       transform="matrix(0.05835284,-0.05835284,0.05835284,0.05835284,15.261747,10.182774)">
      <title
         id="title1226">Right Down Diagonal Mark, RDD</title>
      <polygon
         points="8,20 4,20 4,4 0,0 12,0 8,4 "
         style="fill:#ff0000"
         id="polygon1228"
         transform="rotate(-15,109.97652,-71.749461)" />
    </g>
    <g
       id="g1275"
       transform="matrix(0.08252338,0,0,0.08252338,19.43562,7.6593092)">
      <title
         id="title1271">Down Vertical Mark, DV</title>
      <polygon
         points="4,4 0,0 12,0 8,4 8,40 4,40 "
         style="fill:#ff0000"
         id="polygon1273" />
    </g>
    <g
       id="g1281"
       transform="matrix(0.08252338,0,0,0.08252338,20.4259,7.6593092)">
      <title
         id="title1277">Down Vertical Mark, DV</title>
      <polygon
         points="4,40 4,4 0,0 12,0 8,4 8,40 "
         style="fill:#ff0000"
         id="polygon1279" />
    </g>
    <g
       id="g1287"
       transform="matrix(0.05835284,-0.05835284,0.05835284,0.05835284,15.264718,9.4212484)">
      <title
         id="title1283">Right Down Diagonal Mark, RDD</title>
      <polygon
         points="0,0 12,0 8,4 8,20 4,20 4,4 "
         style="fill:#ff0000"
         id="polygon1285"
         transform="rotate(-15,109.97652,-71.749461)" />
    </g>
    <polygon
       points="0,6 6,0 6,12 "
       style="fill:#ff0000"
       id="polygon1301"
       transform="matrix(0.08252338,0,0,0.08252338,19.541721,7.0398062)">
      <title
         id="title1315">Heel Mark, HE</title>
    </polygon>
    <circle
       style="fill:#008000;fill-rule:evenodd;stroke-width:0.0825233"
       id="path839"
       cx="18.928066"
       cy="10.30416"
       r="0.24757014">
      <title
         id="title1269">2 Cross Connector, 2C</title>
    </circle>
    <circle
       style="fill:#008000;fill-rule:evenodd;stroke-width:0.0825233"
       id="circle1319"
       cx="19.782772"
       cy="10.760986"
       r="0.24757014">
      <title
         id="title1317">Other 2 Touch Connector, O2T</title>
    </circle>
    <circle
       style="fill:#008000;fill-rule:evenodd;stroke-width:0.0825233"
       id="circle1323"
       cx="19.789291"
       cy="9.9799604"
       r="0.24757014">
      <title
         id="title1321">Other 2 Touch Connector, O2T</title>
    </circle>
    <circle
       style="fill:#008000;fill-rule:evenodd;stroke-width:0.0825233"
       id="circle1327"
       cx="18.972275"
       cy="9.5378714"
       r="0.24757014">
      <title
         id="title1325">2 Cross Connector, 2C</title>
    </circle>
  </g>
</svg>
