<?xml version="1.0" encoding="UTF-8" standalone="no"?>
<svg
   xmlns:dc="http://purl.org/dc/elements/1.1/"
   xmlns:cc="http://creativecommons.org/ns#"
   xmlns:rdf="http://www.w3.org/1999/02/22-rdf-syntax-ns#"
   xmlns:svg="http://www.w3.org/2000/svg"
   xmlns="http://www.w3.org/2000/svg"
   width="23.890873"
   height="15"
   viewBox="0 0 6.3211266 3.9687501"
   version="1.1"
   id="svg8">
  <defs
     id="defs2" />
  <metadata
     id="metadata5">
    <rdf:RDF>
      <cc:Work
         rdf:about="">
        <dc:format>image/svg+xml</dc:format>
        <dc:type
           rdf:resource="http://purl.org/dc/dcmitype/StillImage" />
        <dc:title></dc:title>
      </cc:Work>
    </rdf:RDF>
  </metadata>
  <g
     id="layer1"
     transform="translate(-19.754243,-8.6934523)">
    <g
       id="g874"
       transform="matrix(0.09886565,0,0,0.09886565,23.076835,8.7075762)">
      <title
         id="title870">Down Vertical Mark, DV</title>
      <polygon
         points="12,0 8,4 8,40 4,40 4,4 0,0 "
         style="fill:#ff0000"
         id="polygon872" />
    </g>
    <g
       id="g892"
       transform="matrix(0.09886565,0,0,0.09886565,20.749961,8.6934523)">
      <title
         id="title888">Down Vertical Mark, DV</title>
      <polygon
         points="8,40 4,40 4,4 0,0 12,0 8,4 "
         style="fill:#ff0000"
         id="polygon890" />
    </g>
    <g
       id="g1045"
       transform="matrix(0,-0.09886565,0.09886565,0,19.754243,11.172156)">
      <title
         id="title1041">Right Horizontal Mark, RH</title>
      <polygon
         points="4,4 0,0 12,0 8,4 8,25 4,25 "
         style="fill:#ff0000"
         id="polygon1043" />
    </g>
    <g
       id="g1062"
       transform="matrix(0.04943282,-0.08562017,0.08562017,0.04943282,21.685672,11.366343)">
      <title
         id="title1058">Right Down Diagonal Mark, RDD</title>
      <polygon
         points="8,25 4,25 4,4 0,0 12,0 8,4 "
         style="fill:#ff0000"
         id="polygon1060" />
    </g>
    <circle
       style="fill:#008000;fill-rule:evenodd;stroke-width:0.0988655"
       id="circle1015"
       cx="21.343157"
       cy="10.614271"
       r="0.29659694">
      <title
         id="title1025">2 Cross Connector, 2C</title>
    </circle>
    <circle
       style="fill:#008000;fill-rule:evenodd;stroke-width:0.0988655"
       id="circle1066"
       cx="23.655907"
       cy="11.797128"
       r="0.29659694">
      <title
         id="title1064">2 Cross Connector, 2C</title>
    </circle>
    <circle
       style="fill:#008000;fill-rule:evenodd;stroke-width:0.0988655"
       id="circle1070"
       cx="22.208231"
       cy="10.578962"
       r="0.29659694">
      <title
         id="title1068">Other 2 Touch Connector, O2T</title>
    </circle>
    <g
       id="g1076"
       transform="matrix(0.04943282,-0.08562017,0.08562017,0.04943282,23.521716,9.7350182)">
      <title
         id="title1072">Right Down Diagonal Mark, RDD</title>
      <polygon
         points="8,25 4,25 4,4 0,0 12,0 8,4 "
         style="fill:#ff0000"
         id="polygon1074" />
    </g>
    <g
       id="g1082"
       transform="matrix(0.04943282,-0.08562017,0.08562017,0.04943282,23.539403,11.030906)">
      <title
         id="title1078">Right Down Diagonal Mark, RDD</title>
      <polygon
         points="8,4 8,25 4,25 4,4 0,0 12,0 "
         style="fill:#ff0000"
         id="polygon1080" />
    </g>
    <circle
       style="fill:#008000;fill-rule:evenodd;stroke-width:0.0988655"
       id="circle1086"
       cx="23.832451"
       cy="9.2548685"
       r="0.29659694">
      <title
         id="title1084">Other 2 Touch Connector, O2T</title>
    </circle>
    <circle
       style="fill:#008000;fill-rule:evenodd;stroke-width:0.0988655"
       id="circle1090"
       cx="23.850105"
       cy="10.525998"
       r="0.29659694">
      <title
         id="title1088">Other 2 Touch Connector, O2T</title>
    </circle>
  </g>
</svg>
