<?xml version="1.0" encoding="UTF-8" standalone="no"?>
<svg
   xmlns:dc="http://purl.org/dc/elements/1.1/"
   xmlns:cc="http://creativecommons.org/ns#"
   xmlns:rdf="http://www.w3.org/1999/02/22-rdf-syntax-ns#"
   xmlns:svg="http://www.w3.org/2000/svg"
   xmlns="http://www.w3.org/2000/svg"
   width="13.925041"
   height="15"
   viewBox="0 0 3.6843337 3.9687501"
   version="1.1"
   id="svg8">
  <defs
     id="defs2" />
  <metadata
     id="metadata5">
    <rdf:RDF>
      <cc:Work
         rdf:about="">
        <dc:format>image/svg+xml</dc:format>
        <dc:type
           rdf:resource="http://purl.org/dc/dcmitype/StillImage" />
        <dc:title></dc:title>
      </cc:Work>
    </rdf:RDF>
  </metadata>
  <g
     id="layer1"
     transform="translate(-19.230006,-9.6856398)">
    <g
       id="g94"
       transform="matrix(0.09153624,0,0,0.09153624,21.815905,9.6856398)">
      <title
         id="title90">Down Vertical Mark, DV</title>
      <polygon
         points="4,35 4,4 0,0 12,0 8,4 8,35 "
         style="fill:#ff0000"
         id="polygon92" />
    </g>
    <polygon
       points="6,0 6,12 0,6 "
       style="fill:#ff0000"
       id="polygon134"
       transform="matrix(0.09153624,0,0,0.09153624,20.714201,10.905033)">
      <title
         id="title181">Heel Mark, HE</title>
    </polygon>
    <g
       id="g280"
       transform="matrix(0,-0.09153624,0.09153624,0,19.230006,13.65439)">
      <title
         id="title276">Right Horizontal Mark, RH</title>
      <polygon
         points="0,0 12,0 8,4 8,40 4,40 4,4 "
         style="fill:#ff0000"
         id="polygon278" />
    </g>
    <g
       id="g268"
       transform="matrix(0.09153624,0,0,0.09153624,22.119936,12.797872)">
      <title
         id="title264">Bottom 2 Touch Connector, B2T</title>
      <circle
         cx="3"
         cy="3"
         r="3"
         style="fill:#008000"
         id="circle266" />
    </g>
    <g
       id="g286"
       transform="matrix(0.09153624,0,0,0.09153624,19.230006,9.6908443)">
      <title
         id="title282">Down Vertical Mark, DV</title>
      <polygon
         points="4,4 0,0 12,0 8,4 8,35 4,35 "
         style="fill:#ff0000"
         id="polygon284" />
    </g>
    <g
       id="g262"
       transform="matrix(0.09153624,0,0,0.09153624,19.520961,12.781526)">
      <title
         id="title258">Southwest Corner Connector, SWC</title>
      <circle
         cx="3"
         cy="3"
         r="3"
         style="fill:#008000"
         id="circle260" />
    </g>
  </g>
</svg>
