<?xml version="1.0" encoding="UTF-8" standalone="no"?>
<svg
   xmlns:dc="http://purl.org/dc/elements/1.1/"
   xmlns:cc="http://creativecommons.org/ns#"
   xmlns:rdf="http://www.w3.org/1999/02/22-rdf-syntax-ns#"
   xmlns:svg="http://www.w3.org/2000/svg"
   xmlns="http://www.w3.org/2000/svg"
   width="21.549107"
   height="15"
   viewBox="0 0 5.7015343 3.9687501"
   version="1.1"
   id="svg8">
  <defs
     id="defs2" />
  <metadata
     id="metadata5">
    <rdf:RDF>
      <cc:Work
         rdf:about="">
        <dc:format>image/svg+xml</dc:format>
        <dc:type
           rdf:resource="http://purl.org/dc/dcmitype/StillImage" />
        <dc:title></dc:title>
      </cc:Work>
    </rdf:RDF>
  </metadata>
  <g
     id="layer1"
     transform="translate(-16.7095,-8.4572172)">
    <polygon
       points="8,4 8,15 4,15 4,4 0,0 12,0 "
       style="fill:#ff0000"
       id="polygon35"
       transform="matrix(0,-0.09921875,0.09921875,0,16.7095,11.019187)">
      <title
         id="title104">Right Horizontal Mark, RH</title>
    </polygon>
    <polygon
       points="8,4 8,25 12,30 0,30 4,25 4,4 0,0 12,0 "
       style="fill:#ff0000"
       id="polygon88"
       transform="matrix(0,-0.09921875,0.09921875,0,18.180064,11.019187)">
      <title
         id="title192">Right Horizontal Barbell Mark, RHBB</title>
    </polygon>
    <g
       id="g120"
       transform="matrix(0.09921875,0,0,0.09921875,20.915667,8.4572172)">
      <title
         id="title116">Down Vertical Mark, DV</title>
      <polygon
         points="4,40 4,4 0,0 12,0 8,4 8,40 "
         style="fill:#ff0000"
         id="polygon118" />
    </g>
    <polygon
       points="6,0 6,12 0,6 "
       style="fill:#ff0000"
       id="polygon145"
       transform="matrix(0.09921875,0,0,0.09921875,21.798005,10.732162)">
      <title
         id="title196">Heel Mark, HE</title>
    </polygon>
    <polygon
       points="6,12 0,6 6,0 "
       style="fill:#ff0000"
       id="polygon159"
       transform="matrix(0.09921875,0,0,0.09921875,21.815722,9.1730096)">
      <title
         id="title194">Heel Mark, HE</title>
    </polygon>
    <g
       id="g179"
       transform="matrix(0.09921875,0,0,0.09921875,18.024149,10.108501)">
      <title
         id="title175">Horizontal 2 Touch Connector, H2T</title>
      <circle
         cx="3"
         cy="3"
         r="3"
         style="fill:#008000"
         id="circle177" />
    </g>
  </g>
</svg>
