<?xml version="1.0" encoding="UTF-8" standalone="no"?>
<svg
   xmlns:dc="http://purl.org/dc/elements/1.1/"
   xmlns:cc="http://creativecommons.org/ns#"
   xmlns:rdf="http://www.w3.org/1999/02/22-rdf-syntax-ns#"
   xmlns:svg="http://www.w3.org/2000/svg"
   xmlns="http://www.w3.org/2000/svg"
   width="15.74992"
   height="15"
   viewBox="0 0 4.1671662 3.9687501"
   version="1.1"
   id="svg8">
  <defs
     id="defs2" />
  <metadata
     id="metadata5">
    <rdf:RDF>
      <cc:Work
         rdf:about="">
        <dc:format>image/svg+xml</dc:format>
        <dc:type
           rdf:resource="http://purl.org/dc/dcmitype/StillImage" />
        <dc:title></dc:title>
      </cc:Work>
    </rdf:RDF>
  </metadata>
  <g
     id="layer1"
     transform="translate(-17.382191,-8.6462057)">
    <polygon
       points="0,6 6,0 6,12 "
       style="fill:#ff0000"
       id="polygon463"
       transform="matrix(0.04960937,0,0,0.04960937,20.146128,10.380741)">
      <title
         id="title473">Heel Mark, HE</title>
    </polygon>
    <g
       id="g495"
       transform="matrix(0.04960937,0,0,0.04960937,17.382191,8.8297604)">
      <title
         id="title491">Down Vertical Mark, DV</title>
      <polygon
         points="12,0 8,4 8,72 4,72 4,4 0,0 "
         style="fill:#ff0000"
         id="polygon493" />
    </g>
    <g
       id="g512"
       transform="matrix(0.04960937,0,0,0.04960937,20.954045,8.8396822)">
      <title
         id="title508">Down Vertical Mark, DV</title>
      <polygon
         points="8,72 4,72 4,4 0,0 12,0 8,4 "
         style="fill:#ff0000"
         id="polygon510" />
    </g>
    <g
       id="g518"
       transform="matrix(0,-0.04960937,0.04960937,0,17.580628,9.2415182)">
      <title
         id="title514">Right Horizontal Mark, RH</title>
      <polygon
         points="4,4 0,0 12,0 8,4 8,72 4,72 "
         style="fill:#ff0000"
         id="polygon516" />
    </g>
    <g
       id="g524"
       transform="matrix(0,-0.04960937,0.04960937,0,17.580628,12.614956)">
      <title
         id="title520">Right Horizontal Mark, RH</title>
      <polygon
         points="8,72 4,72 4,4 0,0 12,0 8,4 "
         style="fill:#ff0000"
         id="polygon522" />
    </g>
    <g
       id="g376"
       transform="matrix(0.04960937,0,0,0.04960937,21.074546,8.8180668)">
      <title
         id="title372">Northeast Corner Connector, NEC</title>
      <circle
         cx="3"
         cy="3"
         r="3"
         style="fill:#008000"
         id="circle374" />
    </g>
    <g
       id="g423"
       transform="matrix(0.04960937,0,0,0.04960937,17.531019,8.8003491)">
      <title
         id="title419">Northwest Corner Connector, NWC</title>
      <circle
         cx="3"
         cy="3"
         r="3"
         style="fill:#008000"
         id="circle421" />
    </g>
    <g
       id="g417"
       transform="matrix(0.04960937,0,0,0.04960937,17.584172,12.175558)">
      <title
         id="title413">Southwest Corner Connector, SWC</title>
      <circle
         cx="3"
         cy="3"
         r="3"
         style="fill:#008000"
         id="circle415" />
    </g>
    <g
       id="g393"
       transform="matrix(0.04960937,0,0,0.04960937,21.101122,12.157841)">
      <title
         id="title389">Southeast Corner Connector, SEC</title>
      <circle
         cx="3"
         cy="3"
         r="3"
         style="fill:#008000"
         id="circle391" />
    </g>
    <polygon
       points="12,0 8,4 8,28 12,28 8,32 8,60 4,60 4,32 0,28 4,28 4,4 0,0 "
       style="fill:#ff0000"
       id="polygon609"
       transform="matrix(0.04960937,0,0,0.04960937,19.286837,9.2372518)">
      <title
         id="title735">Down Vertical Head-to-Tail Mark, DVHT</title>
    </polygon>
    <polygon
       points="6,0 6,12 0,6 "
       style="fill:#ff0000"
       id="polygon625"
       transform="matrix(0.04960937,0,0,0.04960937,20.137269,9.5639581)">
      <title
         id="title623">Heel Mark, HE</title>
    </polygon>
    <polygon
       points="6,12 0,6 6,0 "
       style="fill:#ff0000"
       id="polygon629"
       transform="matrix(0.04960937,0,0,0.04960937,20.172704,11.21347)">
      <title
         id="title627">Heel Mark, HE</title>
    </polygon>
    <g
       id="g649"
       transform="matrix(0,-0.04960937,0.04960937,0,18.240064,9.8325643)">
      <title
         id="title645">Right Horizontal Mark, RH</title>
      <polygon
         points="12,0 8,4 8,25 4,25 4,4 0,0 "
         style="fill:#ff0000"
         id="polygon647" />
    </g>
    <g
       id="g666"
       transform="matrix(0,-0.04960937,0.04960937,0,18.245373,12.001926)">
      <title
         id="title662">Right Horizontal Mark, RH</title>
      <polygon
         points="8,4 8,25 4,25 4,4 0,0 12,0 "
         style="fill:#ff0000"
         id="polygon664" />
    </g>
    <g
       id="g672"
       transform="matrix(0,-0.04960937,0.04960937,0,18.245373,11.30244)">
      <title
         id="title668">Right Horizontal Mark, RH</title>
      <polygon
         points="8,4 8,25 4,25 4,4 0,0 12,0 "
         style="fill:#ff0000"
         id="polygon670" />
    </g>
    <g
       id="g678"
       transform="matrix(0,-0.04960937,0.04960937,0,18.24504,10.552247)">
      <title
         id="title674">Right Horizontal Mark, RH</title>
      <polygon
         points="8,4 8,25 4,25 4,4 0,0 12,0 "
         style="fill:#ff0000"
         id="polygon676" />
    </g>
    <g
       id="g698"
       transform="matrix(0.04960937,0,0,0.04960937,19.426806,12.140123)">
      <title
         id="title694">Bottom 2 Touch Connector, B2T</title>
      <circle
         cx="3"
         cy="3"
         r="3"
         style="fill:#008000"
         id="circle696" />
    </g>
    <g
       id="g715"
       transform="matrix(0.04960937,0,0,0.04960937,19.417947,11.5643)">
      <title
         id="title711">Right 2 Touch Connector, R2T</title>
      <circle
         cx="3"
         cy="3"
         r="3"
         style="fill:#008000"
         id="circle713" />
    </g>
    <g
       id="g721"
       transform="matrix(0.04960937,0,0,0.04960937,19.417947,10.864454)">
      <title
         id="title717">Right 2 Touch Connector, R2T</title>
      <circle
         cx="3"
         cy="3"
         r="3"
         style="fill:#008000"
         id="circle719" />
    </g>
    <g
       id="g727"
       transform="matrix(0.04960937,0,0,0.04960937,19.435665,10.111454)">
      <title
         id="title723">Right 2 Touch Connector, R2T</title>
      <circle
         cx="3"
         cy="3"
         r="3"
         style="fill:#008000"
         id="circle725" />
    </g>
    <g
       id="g733"
       transform="matrix(0.04960937,0,0,0.04960937,19.400229,9.4027487)">
      <title
         id="title729">Northeast Corner Connector, NEC</title>
      <circle
         cx="3"
         cy="3"
         r="3"
         style="fill:#008000"
         id="circle731" />
    </g>
  </g>
</svg>
