<?xml version="1.0" encoding="UTF-8" standalone="no"?>
<svg
   xmlns:dc="http://purl.org/dc/elements/1.1/"
   xmlns:cc="http://creativecommons.org/ns#"
   xmlns:rdf="http://www.w3.org/1999/02/22-rdf-syntax-ns#"
   xmlns:svg="http://www.w3.org/2000/svg"
   xmlns="http://www.w3.org/2000/svg"
   width="23.805483"
   height="15"
   viewBox="0 0 6.2985338 3.9687501"
   version="1.1"
   id="svg8">
  <defs
     id="defs2" />
  <metadata
     id="metadata5">
    <rdf:RDF>
      <cc:Work
         rdf:about="">
        <dc:format>image/svg+xml</dc:format>
        <dc:type
           rdf:resource="http://purl.org/dc/dcmitype/StillImage" />
        <dc:title></dc:title>
      </cc:Work>
    </rdf:RDF>
  </metadata>
  <g
     id="layer1"
     transform="translate(-16.363754,-8.8351938)">
    <polygon
       points="0,6 6,0 6,12 "
       style="fill:#ff0000"
       id="polygon1260"
       transform="matrix(0.16482206,0,0,0.16482206,16.363754,8.8351938)">
      <title
         id="title1315">Heel Mark, HE</title>
    </polygon>
    <polygon
       points="6,0 6,12 0,6 "
       style="fill:#ff0000"
       id="polygon1274"
       transform="matrix(0.16482206,0,0,0.16482206,16.363754,10.813058)">
      <title
         id="title1317">Heel Mark, HE</title>
    </polygon>
    <polygon
       points="0,6 6,0 6,12 "
       style="fill:#ff0000"
       id="polygon1276"
       transform="matrix(0.16482206,0,0,0.16482206,17.393892,8.8482143)">
      <title
         id="title1313">Heel Mark, HE</title>
    </polygon>
    <polygon
       points="6,0 6,12 0,6 "
       style="fill:#ff0000"
       id="polygon1278"
       transform="matrix(0.16482206,0,0,0.16482206,17.393892,10.826079)">
      <title
         id="title1311">Heel Mark, HE</title>
    </polygon>
    <g
       id="g1298"
       transform="matrix(0,-0.16482206,0.16482206,0,18.541737,11.813763)">
      <title
         id="title1294">Right Horizontal Mark, RH</title>
      <polygon
         points="4,4 0,0 12,0 8,4 8,25 4,25 "
         style="fill:#ff0000"
         id="polygon1296" />
    </g>
  </g>
</svg>
