<?xml version="1.0" encoding="UTF-8" standalone="no"?>
<svg
   xmlns:dc="http://purl.org/dc/elements/1.1/"
   xmlns:cc="http://creativecommons.org/ns#"
   xmlns:rdf="http://www.w3.org/1999/02/22-rdf-syntax-ns#"
   xmlns:svg="http://www.w3.org/2000/svg"
   xmlns="http://www.w3.org/2000/svg"
   width="21.56855"
   height="15"
   viewBox="0 0 5.7066787 3.9687501"
   version="1.1"
   id="svg8">
  <defs
     id="defs2" />
  <metadata
     id="metadata5">
    <rdf:RDF>
      <cc:Work
         rdf:about="">
        <dc:format>image/svg+xml</dc:format>
        <dc:type
           rdf:resource="http://purl.org/dc/dcmitype/StillImage" />
        <dc:title></dc:title>
      </cc:Work>
    </rdf:RDF>
  </metadata>
  <g
     id="layer1"
     transform="translate(-18.26608,-8.693452)">
    <g
       id="g857"
       transform="matrix(-0.03198924,-0.11938547,0.11938547,-0.03198924,19.325298,12.662202)">
      <title
         id="title853">Right Up Diagonal Mark, RUD</title>
      <polygon
         points="8,4 8,40 4,40 4,4 0,0 12,0 "
         style="fill:#ff0000"
         id="polygon855" />
    </g>
    <g
       id="g888"
       transform="matrix(0.06179846,-0.10703808,0.10703808,0.06179846,18.26608,11.410535)">
      <title
         id="title884">Right Down Diagonal Mark, RDD</title>
      <polygon
         points="8,25 4,25 4,4 0,0 12,0 8,4 "
         style="fill:#ff0000"
         id="polygon886" />
    </g>
    <g
       id="g905"
       transform="matrix(0.03198924,-0.11938547,0.11938547,0.03198924,19.007662,10.126078)">
      <title
         id="title901">Right Down Diagonal Mark, RDD</title>
      <polygon
         points="12,0 8,4 8,25 4,25 4,4 0,0 "
         style="fill:#ff0000"
         id="polygon903" />
    </g>
    <circle
       style="fill:#008000;fill-rule:evenodd;stroke-width:0.123597"
       id="path839"
       cx="20.152678"
       cy="11.637167"
       r="0.37079078">
      <title
         id="title923">2 Cross Connector, 2C</title>
    </circle>
  </g>
</svg>
