<?xml version="1.0" encoding="UTF-8" standalone="no"?>
<svg
   xmlns:dc="http://purl.org/dc/elements/1.1/"
   xmlns:cc="http://creativecommons.org/ns#"
   xmlns:rdf="http://www.w3.org/1999/02/22-rdf-syntax-ns#"
   xmlns:svg="http://www.w3.org/2000/svg"
   xmlns="http://www.w3.org/2000/svg"
   width="18.950893"
   height="15"
   viewBox="0 0 5.0140904 3.9687501"
   version="1.1"
   id="svg8">
  <defs
     id="defs2" />
  <metadata
     id="metadata5">
    <rdf:RDF>
      <cc:Work
         rdf:about="">
        <dc:format>image/svg+xml</dc:format>
        <dc:type
           rdf:resource="http://purl.org/dc/dcmitype/StillImage" />
        <dc:title></dc:title>
      </cc:Work>
    </rdf:RDF>
  </metadata>
  <g
     id="layer1"
     transform="translate(-18.517881,-8.3627231)">
    <g
       id="g1114"
       transform="matrix(0.09921875,0,0,0.09921875,20.084162,10.106833)">
      <title
         id="title1110">Down Vertical Mark, DV</title>
      <polygon
         points="8,22 4,22 4,4 0,0 12,0 8,4 "
         style="fill:#ff0000"
         id="polygon1112" />
    </g>
    <g
       id="g1120"
       transform="matrix(0,-0.09921875,0.09921875,0,18.517881,9.5533481)">
      <title
         id="title1116">Right Horizontal Mark, RH</title>
      <polygon
         points="4,40 4,4 0,0 12,0 8,4 8,40 "
         style="fill:#ff0000"
         id="polygon1118" />
    </g>
    <g
       id="g1140"
       transform="matrix(0,-0.09921875,0.09921875,0,18.571033,12.08697)">
      <title
         id="title1136">Right Horizontal Mark, RH</title>
      <polygon
         points="12,0 8,4 8,50 4,50 4,4 0,0 "
         style="fill:#ff0000"
         id="polygon1138" />
    </g>
    <circle
       style="fill:#008000;fill-rule:evenodd;stroke-width:0.0992186"
       id="circle1144"
       cx="20.675932"
       cy="11.438503"
       r="0.29765624">
      <title
         id="title1142">2 Cross Connector, 2C</title>
    </circle>
    <polygon
       points="0,0 12,0 8,4 8,18 12,18 8,22 8,40 4,40 4,22 0,18 4,18 4,4 "
       style="fill:#ff0000"
       id="polygon1178"
       transform="matrix(0.09921875,0,0,0.09921875,22.089756,8.3627231)">
      <title
         id="title1192">Down Vertical Head-to-Tail Mark, DVHT</title>
    </polygon>
    <circle
       style="fill:#008000;fill-rule:evenodd;stroke-width:0.0992186"
       id="circle1134"
       cx="22.536283"
       cy="8.9934702"
       r="0.29765624">
      <title
         id="title1132">Northeast Corner Connector, NEC</title>
    </circle>
    <circle
       style="fill:#008000;fill-rule:evenodd;stroke-width:0.0992186"
       id="circle1078"
       cx="22.669491"
       cy="11.473939"
       r="0.29765624">
      <title
         id="title1092">2 Cross Connector, 2C</title>
    </circle>
  </g>
</svg>
