<?xml version="1.0" encoding="UTF-8" standalone="no"?>
<svg
   xmlns:dc="http://purl.org/dc/elements/1.1/"
   xmlns:cc="http://creativecommons.org/ns#"
   xmlns:rdf="http://www.w3.org/1999/02/22-rdf-syntax-ns#"
   xmlns:svg="http://www.w3.org/2000/svg"
   xmlns="http://www.w3.org/2000/svg"
   width="20.965811"
   height="15"
   viewBox="0 0 5.5472039 3.9687501"
   version="1.1"
   id="svg8">
  <defs
     id="defs2" />
  <metadata
     id="metadata5">
    <rdf:RDF>
      <cc:Work
         rdf:about="">
        <dc:format>image/svg+xml</dc:format>
        <dc:type
           rdf:resource="http://purl.org/dc/dcmitype/StillImage" />
        <dc:title></dc:title>
      </cc:Work>
    </rdf:RDF>
  </metadata>
  <g
     id="layer1"
     transform="translate(-17.68436,-9.165923)">
    <g
       id="g857"
       transform="matrix(0.09019886,0,0,0.09019886,22.149177,9.5267184)">
      <title
         id="title853">Down Vertical Mark, DV</title>
      <polygon
         points="8,4 8,40 4,40 4,4 0,0 12,0 "
         style="fill:#ff0000"
         id="polygon855" />
    </g>
    <g
       id="g874"
       transform="matrix(0.09019886,0,0,0.09019886,20.570723,9.5267184)">
      <title
         id="title870">Down Vertical Mark, DV</title>
      <polygon
         points="8,40 4,40 4,4 0,0 12,0 8,4 "
         style="fill:#ff0000"
         id="polygon872" />
    </g>
    <g
       id="g880"
       transform="matrix(0,-0.09019886,0.09019886,0,17.68436,10.248309)">
      <title
         id="title876">Right Horizontal Mark, RH</title>
      <polygon
         points="12,0 8,4 8,40 4,40 4,4 0,0 "
         style="fill:#ff0000"
         id="polygon878" />
    </g>
    <g
       id="g886"
       transform="matrix(0,-0.09019886,0.09019886,0,17.890529,11.623236)">
      <title
         id="title882">Right Horizontal Mark, RH</title>
      <polygon
         points="0,0 12,0 8,4 8,40 4,40 4,4 "
         style="fill:#ff0000"
         id="polygon884" />
    </g>
    <g
       id="g892"
       transform="matrix(0,-0.09019886,0.09019886,0,17.890529,12.967161)">
      <title
         id="title888">Right Horizontal Mark, RH</title>
      <polygon
         points="4,4 0,0 12,0 8,4 8,40 4,40 "
         style="fill:#ff0000"
         id="polygon890" />
    </g>
    <polygon
       points="6,0 6,12 0,6 "
       style="fill:#ff0000"
       id="polygon906"
       transform="matrix(0.09019886,0,0,0.09019886,21.617675,9.8553001)">
      <title
         id="title920">Heel Mark, HE</title>
    </polygon>
    <circle
       style="fill:#008000;fill-rule:evenodd;stroke-width:0.0901987"
       id="path839"
       cx="21.082924"
       cy="12.442075"
       r="0.27059659">
      <title
         id="title946">2 Cross Connector, 2C</title>
    </circle>
    <circle
       style="fill:#008000;fill-rule:evenodd;stroke-width:0.0901987"
       id="circle938"
       cx="21.131245"
       cy="11.089091"
       r="0.27059659">
      <title
         id="title944">2 Cross Connector, 2C</title>
    </circle>
    <circle
       style="fill:#008000;fill-rule:evenodd;stroke-width:0.0901987"
       id="circle940"
       cx="21.082924"
       cy="9.7683229"
       r="0.27059659">
      <title
         id="title942">Northeast Corner Connector, NEC</title>
    </circle>
  </g>
</svg>
