<?xml version="1.0" encoding="UTF-8" standalone="no"?>
<svg
   xmlns:dc="http://purl.org/dc/elements/1.1/"
   xmlns:cc="http://creativecommons.org/ns#"
   xmlns:rdf="http://www.w3.org/1999/02/22-rdf-syntax-ns#"
   xmlns:svg="http://www.w3.org/2000/svg"
   xmlns="http://www.w3.org/2000/svg"
   width="24"
   height="15"
   viewBox="0 0 6.3499998 3.9687501"
   version="1.1"
   id="svg8">
  <defs
     id="defs2" />
  <metadata
     id="metadata5">
    <rdf:RDF>
      <cc:Work
         rdf:about="">
        <dc:format>image/svg+xml</dc:format>
        <dc:type
           rdf:resource="http://purl.org/dc/dcmitype/StillImage" />
        <dc:title></dc:title>
      </cc:Work>
    </rdf:RDF>
  </metadata>
  <g
     id="layer1"
     transform="translate(-16.101785,-8.7406993)">
    <g
       id="g28"
       transform="matrix(0,-0.15875,0.15875,0,16.101785,10.645699)">
      <title
         id="title24">Right Horizontal Mark, RH</title>
      <polygon
         points="12,0 8,4 8,40 4,40 4,4 0,0 "
         style="fill:#ff0000"
         id="polygon26" />
    </g>
    <g
       id="g45"
       transform="matrix(0,-0.15875,0.15875,0,16.101785,12.550699)">
      <title
         id="title41">Right Horizontal Mark, RH</title>
      <polygon
         points="4,40 4,4 0,0 12,0 8,4 8,40 "
         style="fill:#ff0000"
         id="polygon43" />
    </g>
    <g
       id="g96"
       transform="matrix(0.15875,0,0,0.15875,18.324286,8.7406993)">
      <title
         id="title92">Down Vertical Mark, DV</title>
      <polygon
         points="4,25 4,4 0,0 12,0 8,4 8,25 "
         style="fill:#ff0000"
         id="polygon94" />
    </g>
    <g
       id="g127"
       transform="matrix(0.15875,0,0,0.15875,18.83277,9.3068002)">
      <title
         id="title123">2 Cross Connector, 2C</title>
      <circle
         cx="3"
         cy="3"
         r="3"
         style="fill:#008000"
         id="circle125" />
    </g>
    <g
       id="g144"
       transform="matrix(0.15875,0,0,0.15875,18.79268,11.15096)">
      <title
         id="title140">2 Cross Connector, 2C</title>
      <circle
         cx="3"
         cy="3"
         r="3"
         style="fill:#008000"
         id="circle142" />
    </g>
  </g>
</svg>
