<?xml version="1.0" encoding="UTF-8" standalone="no"?>
<svg
   xmlns:dc="http://purl.org/dc/elements/1.1/"
   xmlns:cc="http://creativecommons.org/ns#"
   xmlns:rdf="http://www.w3.org/1999/02/22-rdf-syntax-ns#"
   xmlns:svg="http://www.w3.org/2000/svg"
   xmlns="http://www.w3.org/2000/svg"
   width="21.17289"
   height="15"
   viewBox="0 0 5.6019936 3.9687501"
   version="1.1"
   id="svg8">
  <defs
     id="defs2" />
  <metadata
     id="metadata5">
    <rdf:RDF>
      <cc:Work
         rdf:about="">
        <dc:format>image/svg+xml</dc:format>
        <dc:type
           rdf:resource="http://purl.org/dc/dcmitype/StillImage" />
        <dc:title></dc:title>
      </cc:Work>
    </rdf:RDF>
  </metadata>
  <g
     id="layer1"
     transform="translate(-16.475789,-8.4099697)">
    <g
       id="g34"
       transform="matrix(0.09019886,0,0,0.09019886,20.995396,8.4099697)">
      <title
         id="title30">Down Vertical Mark, DV</title>
      <polygon
         points="8,4 8,40 4,40 4,4 0,0 12,0 "
         style="fill:#ff0000"
         id="polygon32" />
    </g>
    <g
       id="g51"
       transform="matrix(0,-0.09019886,0.09019886,0,17.748237,9.4923561)">
      <title
         id="title47">Right Horizontal Mark, RH</title>
      <polygon
         points="8,4 8,40 4,40 4,4 0,0 12,0 "
         style="fill:#ff0000"
         id="polygon49" />
    </g>
    <g
       id="g57"
       transform="matrix(0,-0.09019886,0.09019886,0,17.748237,12.37872)">
      <title
         id="title53">Right Horizontal Mark, RH</title>
      <polygon
         points="8,40 4,40 4,4 0,0 12,0 8,4 "
         style="fill:#ff0000"
         id="polygon55" />
    </g>
    <polygon
       points="4,35 4,4 0,0 12,0 8,4 8,35 "
       style="fill:#ff0000"
       id="polygon61"
       transform="matrix(0,-0.09019886,0.09019886,0,18.279766,11.496742)">
      <title
         id="title83">Right Horizontal Mark, RH</title>
    </polygon>
    <polygon
       points="4,4 0,0 12,0 8,4 8,35 4,35 "
       style="fill:#ff0000"
       id="polygon77"
       transform="matrix(0,-0.09019886,0.09019886,0,18.279766,10.414356)">
      <title
         id="title81">Right Horizontal Mark, RH</title>
    </polygon>
    <g
       id="g75"
       transform="matrix(0,-0.09019886,0.09019886,0,16.475789,10.928489)">
      <title
         id="title71">Right Horizontal Mark, RH</title>
      <polygon
         points="4,20 4,4 0,0 12,0 8,4 8,20 "
         style="fill:#ff0000"
         id="polygon73" />
    </g>
    <g
       id="g103"
       transform="matrix(0.09019886,0,0,0.09019886,18.076819,10.10442)">
      <title
         id="title99">Horizontal 2 Touch Connector, H2T</title>
      <circle
         cx="3"
         cy="3"
         r="3"
         style="fill:#008000"
         id="circle101" />
    </g>
    <g
       id="g120"
       transform="matrix(0.09019886,0,0,0.09019886,21.249886,11.554044)">
      <title
         id="title116">Southeast Corner Connector, SEC</title>
      <circle
         cx="3"
         cy="3"
         r="3"
         style="fill:#008000"
         id="circle118" />
    </g>
    <g
       id="g126"
       transform="matrix(0.09019886,0,0,0.09019886,21.249886,10.668163)">
      <title
         id="title122">Right 2 Touch Connector, R2T</title>
      <circle
         cx="3"
         cy="3"
         r="3"
         style="fill:#008000"
         id="circle124" />
    </g>
    <g
       id="g132"
       transform="matrix(0.09019886,0,0,0.09019886,21.265993,9.6212113)">
      <title
         id="title128">Right 2 Touch Connector, R2T</title>
      <circle
         cx="3"
         cy="3"
         r="3"
         style="fill:#008000"
         id="circle130" />
    </g>
    <g
       id="g138"
       transform="matrix(0.09019886,0,0,0.09019886,21.217672,8.7031159)">
      <title
         id="title134">Northeast Corner Connector, NEC</title>
      <circle
         cx="3"
         cy="3"
         r="3"
         style="fill:#008000"
         id="circle136" />
    </g>
  </g>
</svg>
