<?xml version="1.0" encoding="UTF-8" standalone="no"?>
<svg
   xmlns:dc="http://purl.org/dc/elements/1.1/"
   xmlns:cc="http://creativecommons.org/ns#"
   xmlns:rdf="http://www.w3.org/1999/02/22-rdf-syntax-ns#"
   xmlns:svg="http://www.w3.org/2000/svg"
   xmlns="http://www.w3.org/2000/svg"
   width="19.859011"
   height="15"
   viewBox="0 0 5.2543631 3.9687501"
   version="1.1"
   id="svg8">
  <defs
     id="defs2" />
  <metadata
     id="metadata5">
    <rdf:RDF>
      <cc:Work
         rdf:about="">
        <dc:format>image/svg+xml</dc:format>
        <dc:type
           rdf:resource="http://purl.org/dc/dcmitype/StillImage" />
        <dc:title></dc:title>
      </cc:Work>
    </rdf:RDF>
  </metadata>
  <g
     id="layer1"
     transform="translate(-16.791345,-7.7012652)">
    <polygon
       points="0,6 6,0 6,12 "
       style="fill:#ff0000"
       id="polygon916"
       transform="matrix(0.11941734,0,0,0.11941734,18.258456,9.1342733)">
      <title
         id="title930">Heel Mark, HE</title>
    </polygon>
    <g
       id="g952"
       transform="matrix(0,-0.11941734,0.11941734,0,16.791345,11.670015)">
      <title
         id="title948">Right Horizontal Mark, RH</title>
      <polygon
         points="4,4 0,0 12,0 8,4 8,40 4,40 "
         style="fill:#ff0000"
         id="polygon950" />
    </g>
    <polygon
       points="6,12 0,6 6,0 "
       style="fill:#ff0000"
       id="polygon967"
       transform="matrix(0.11941734,0,0,0.11941734,18.258456,7.7012652)">
      <title
         id="title965">Heel Mark, HE</title>
    </polygon>
    <polygon
       points="0,6 6,0 6,12 "
       style="fill:#ff0000"
       id="polygon971"
       transform="matrix(0.11941734,0,0,0.11941734,21.329204,8.3263297)">
      <title
         id="title969">Heel Mark, HE</title>
    </polygon>
    <polygon
       points="6,0 6,12 0,6 "
       style="fill:#ff0000"
       id="polygon975"
       transform="matrix(0.11941734,0,0,0.11941734,19.793821,7.7276559)">
      <title
         id="title973">Heel Mark, HE</title>
    </polygon>
    <polygon
       points="6,12 0,6 6,0 "
       style="fill:#ff0000"
       id="polygon979"
       transform="matrix(0.11941734,0,0,0.11941734,21.329204,9.7593377)">
      <title
         id="title977">Heel Mark, HE</title>
    </polygon>
    <polygon
       points="6,12 0,6 6,0 "
       style="fill:#ff0000"
       id="polygon983"
       transform="matrix(0.11941734,0,0,0.11941734,19.793821,9.160664)">
      <title
         id="title981">Heel Mark, HE</title>
    </polygon>
  </g>
</svg>
