<?xml version="1.0" encoding="UTF-8" standalone="no"?>
<svg
   xmlns:dc="http://purl.org/dc/elements/1.1/"
   xmlns:cc="http://creativecommons.org/ns#"
   xmlns:rdf="http://www.w3.org/1999/02/22-rdf-syntax-ns#"
   xmlns:svg="http://www.w3.org/2000/svg"
   xmlns="http://www.w3.org/2000/svg"
   width="16.82243"
   height="15"
   viewBox="0 0 4.4509344 3.9687501"
   version="1.1"
   id="svg8">
  <defs
     id="defs2" />
  <metadata
     id="metadata5">
    <rdf:RDF>
      <cc:Work
         rdf:about="">
        <dc:format>image/svg+xml</dc:format>
        <dc:type
           rdf:resource="http://purl.org/dc/dcmitype/StillImage" />
        <dc:title></dc:title>
      </cc:Work>
    </rdf:RDF>
  </metadata>
  <g
     id="layer1"
     transform="translate(-19.649905,-7.6540178)">
    <g
       id="g1445"
       transform="matrix(0,-0.0927278,0.0927278,0,19.649905,11.613494)">
      <title
         id="title1441">Right Horizontal Mark, RH</title>
      <polygon
         points="8,4 8,40 4,40 4,4 0,0 12,0 "
         style="fill:#ff0000"
         id="polygon1443" />
    </g>
    <g
       id="g1751"
       transform="matrix(0,-0.0927278,0.0927278,0,19.90027,10.166941)">
      <title
         id="title1747">Right Horizontal Mark, RH</title>
      <polygon
         points="0,0 12,0 8,4 8,40 4,40 4,4 "
         style="fill:#ff0000"
         id="polygon1749" />
    </g>
    <g
       id="g1757"
       transform="matrix(0,-0.0927278,0.0927278,0,19.649905,8.7667514)">
      <title
         id="title1753">Right Horizontal Mark, RH</title>
      <polygon
         points="12,0 8,4 8,40 4,40 4,4 0,0 "
         style="fill:#ff0000"
         id="polygon1755" />
    </g>
    <g
       id="g1799"
       transform="matrix(0.0927278,0,0,0.0927278,22.988106,7.9136559)">
      <title
         id="title1795">Down Vertical Mark, DV</title>
      <polygon
         points="4,4 0,0 12,0 8,4 8,40 4,40 "
         style="fill:#ff0000"
         id="polygon1797" />
    </g>
    <circle
       style="fill:#008000;fill-rule:evenodd;stroke-width:0.0927277"
       id="path839"
       cx="23.478914"
       cy="11.025415"
       r="0.2781834">
      <title
         id="title1825">Right 2 Touch Connector, R2T</title>
    </circle>
    <circle
       style="fill:#008000;fill-rule:evenodd;stroke-width:0.0927277"
       id="circle1817"
       cx="23.458368"
       cy="9.5887833"
       r="0.2781834">
      <title
         id="title1823">Right 2 Touch Connector, R2T</title>
    </circle>
    <circle
       style="fill:#008000;fill-rule:evenodd;stroke-width:0.0927277"
       id="circle1819"
       cx="23.474926"
       cy="8.1925421"
       r="0.2781834">
      <title
         id="title1821">Northeast Corner Connector, NEC</title>
    </circle>
  </g>
</svg>
