<?xml version="1.0" encoding="UTF-8" standalone="no"?>
<svg
   xmlns:dc="http://purl.org/dc/elements/1.1/"
   xmlns:cc="http://creativecommons.org/ns#"
   xmlns:rdf="http://www.w3.org/1999/02/22-rdf-syntax-ns#"
   xmlns:svg="http://www.w3.org/2000/svg"
   xmlns="http://www.w3.org/2000/svg"
   width="23.259508"
   height="15"
   viewBox="0 0 6.154078 3.9687501"
   version="1.1"
   id="svg8">
  <defs
     id="defs2" />
  <metadata
     id="metadata5">
    <rdf:RDF>
      <cc:Work
         rdf:about="">
        <dc:format>image/svg+xml</dc:format>
        <dc:type
           rdf:resource="http://purl.org/dc/dcmitype/StillImage" />
        <dc:title></dc:title>
      </cc:Work>
    </rdf:RDF>
  </metadata>
  <g
     id="layer1"
     transform="translate(-17.853392,-8.2682291)">
    <g
       id="g1236"
       transform="matrix(0.04143363,-0.07176515,0.07176515,0.04143363,21.387694,10.438193)">
      <title
         id="title1232">Right Down Diagonal Mark, RDD</title>
      <polygon
         points="8,4 8,35 4,35 4,4 0,0 12,0 "
         style="fill:#ff0000"
         id="polygon1234"
         transform="translate(1.6779954,-6.4376273)" />
    </g>
    <polygon
       points="0,0 12,0 8,4 8,25 12,30 0,30 4,25 4,4 "
       style="fill:#ff0000"
       id="polygon1304"
       transform="matrix(0,-0.08286726,0.08286726,0,18.217452,10.209691)">
      <title
         id="title1352">Right Horizontal Barbell Mark, RHBB</title>
    </polygon>
    <polygon
       points="12,0 8,4 8,35 12,35 8,39 8,74 4,74 4,39 0,35 4,35 4,4 0,0 "
       style="fill:#ff0000"
       id="polygon1330"
       transform="matrix(0,-0.08286726,0.08286726,0,17.853392,9.2626362)">
      <title
         id="title1348">Right Horizontal Head-to-Tail Mark, RHHT</title>
    </polygon>
    <polygon
       points="4,74 4,39 0,35 4,35 4,4 0,0 12,0 8,4 8,35 12,35 8,39 8,74 "
       style="fill:#ff0000"
       id="polygon1344"
       transform="matrix(0,-0.08286726,0.08286726,0,17.875293,12.236979)">
      <title
         id="title1350">Right Horizontal Head-to-Tail Mark, RHHT</title>
    </polygon>
    <polygon
       points="12,0 8,4 8,25 12,30 0,30 4,25 4,4 0,0 "
       style="fill:#ff0000"
       id="polygon1346"
       transform="matrix(0,-0.08286726,0.08286726,0,18.217452,11.204098)">
      <title
         id="title1354">Right Horizontal Barbell Mark, RHBB</title>
    </polygon>
  </g>
</svg>
