<?xml version="1.0" encoding="UTF-8" standalone="no"?>
<svg
   xmlns:dc="http://purl.org/dc/elements/1.1/"
   xmlns:cc="http://creativecommons.org/ns#"
   xmlns:rdf="http://www.w3.org/1999/02/22-rdf-syntax-ns#"
   xmlns:svg="http://www.w3.org/2000/svg"
   xmlns="http://www.w3.org/2000/svg"
   width="24.19643"
   height="15"
   viewBox="0 0 6.401972 3.9687501"
   version="1.1"
   id="svg8">
  <defs
     id="defs2" />
  <metadata
     id="metadata5">
    <rdf:RDF>
      <cc:Work
         rdf:about="">
        <dc:format>image/svg+xml</dc:format>
        <dc:type
           rdf:resource="http://purl.org/dc/dcmitype/StillImage" />
        <dc:title></dc:title>
      </cc:Work>
    </rdf:RDF>
  </metadata>
  <g
     id="layer1"
     transform="translate(-16.453776,-7.7012648)">
    <g
       id="g1431"
       transform="matrix(0,-0.08268229,0.08268229,0,16.453776,8.6934523)">
      <title
         id="title1427">Right Horizontal Mark, RH</title>
      <polygon
         points="8,40 4,40 4,4 0,0 12,0 8,4 "
         style="fill:#ff0000"
         id="polygon1429" />
    </g>
    <g
       id="g1451"
       transform="matrix(0,-0.08268229,0.08268229,0,16.453776,9.6856398)">
      <title
         id="title1447">Right Horizontal Mark, RH</title>
      <polygon
         points="0,0 12,0 8,4 8,35 4,35 4,4 "
         style="fill:#ff0000"
         id="polygon1449" />
    </g>
    <g
       id="g1468"
       transform="matrix(0,-0.08268229,0.08268229,0,16.453776,10.677827)">
      <title
         id="title1464">Right Horizontal Mark, RH</title>
      <polygon
         points="8,30 4,30 4,4 0,0 12,0 8,4 "
         style="fill:#ff0000"
         id="polygon1466" />
    </g>
    <g
       id="g1474"
       transform="matrix(0,-0.08268229,0.08268229,0,16.453776,11.670015)">
      <title
         id="title1470">Right Horizontal Mark, RH</title>
      <polygon
         points="4,4 0,0 12,0 8,4 8,25 4,25 "
         style="fill:#ff0000"
         id="polygon1472" />
    </g>
    <polygon
       points="6,0 6,12 0,6 "
       style="fill:#ff0000"
       id="polygon1488"
       transform="matrix(0.08268229,0,0,0.08268229,20.91034,8.0178077)">
      <title
         id="title1542">Heel Mark, HE</title>
    </polygon>
    <polygon
       points="0,6 6,0 6,12 "
       style="fill:#ff0000"
       id="polygon1502"
       transform="matrix(0.08268229,0,0,0.08268229,19.909884,9.3076515)">
      <title
         id="title1540">Heel Mark, HE</title>
    </polygon>
    <polygon
       points="6,0 6,12 0,6 "
       style="fill:#ff0000"
       id="polygon1504"
       transform="matrix(0.08268229,0,0,0.08268229,18.785406,10.498276)">
      <title
         id="title1538">Heel Mark, HE</title>
    </polygon>
    <polygon
       points="0,6 6,0 6,12 "
       style="fill:#ff0000"
       id="polygon1506"
       transform="matrix(0.08268229,0,0,0.08268229,20.794585,10.407326)">
      <title
         id="title1536">Heel Mark, HE</title>
    </polygon>
    <polygon
       points="4,4 0,0 12,0 8,4 8,18 12,18 8,22 8,40 4,40 4,22 0,18 4,18 "
       style="fill:#ff0000"
       id="polygon1520"
       transform="matrix(0.08268229,0,0,0.08268229,21.863561,8.1087701)">
      <title
         id="title1534">Down Vertical Head-to-Tail Mark, DVHT</title>
    </polygon>
  </g>
</svg>
